# MagicaVoxel @ Ephtracy

# group
o 

# material
mtllib Arm-14.mtl
usemtl palette

# normals
vn -1 0 0
vn 1 0 0
vn 0 0 1
vn 0 0 -1
vn 0 -1 0
vn 0 1 0

# texcoords
vt 0.705078 0.5
vt 0.931641 0.5
vt 0.939453 0.5
vt 0.943359 0.5

# verts
v -0.3 -0.05 0.2
v -0.3 -0.05 -0.2
v -0.3 0.15 0.2
v -0.3 0.15 0.1
v -0.3 0.15 0
v -0.3 0.15 -0.2
v -0.3 0.25 0.1
v -0.3 0.25 0
v -0.3 0.55 0.2
v -0.3 0.55 -0.2
v -0.2 -0.65 0.2
v -0.2 -0.65 0.1
v -0.2 -0.65 -0.1
v -0.2 -0.65 -0.2
v -0.2 -0.55 0.2
v -0.2 -0.55 0.1
v -0.2 -0.55 -0.1
v -0.2 -0.55 -0.2
v -0.2 -0.05 0.3
v -0.2 -0.05 0.2
v -0.2 -0.05 -0.2
v -0.2 -0.05 -0.3
v -0.2 0.15 0.3
v -0.2 0.15 0.2
v -0.2 0.15 -0.2
v -0.2 0.15 -0.3
v -0.2 0.55 0.3
v -0.2 0.55 0.2
v -0.2 0.55 -0.2
v -0.2 0.55 -0.3
v -0.1 -0.75 0.2
v -0.1 -0.75 0.1
v -0.1 -0.75 -0.1
v -0.1 -0.75 -0.2
v -0.1 -0.65 0.3
v -0.1 -0.65 0.2
v -0.1 -0.65 0.1
v -0.1 -0.65 0
v -0.1 -0.65 -0.1
v -0.1 -0.65 -0.2
v -0.1 -0.65 -0.3
v -0.1 -0.55 0.3
v -0.1 -0.55 0.2
v -0.1 -0.55 0.1
v -0.1 -0.55 0
v -0.1 -0.55 -0.1
v -0.1 -0.55 -0.2
v -0.1 -0.55 -0.3
v -0.1 -0.05 0.2
v -0.1 -0.05 -0.2
v -0.1 0.55 0.1
v -0.1 0.55 -0.1
v -0.1 0.75 0.1
v -0.1 0.75 -0.1
v 0 -0.45 0.3
v 0 -0.45 0.2
v 0 -0.45 -0.2
v 0 -0.45 -0.3
v 0 -0.05 0.3
v 0 -0.05 0.2
v 0 -0.05 -0.2
v 0 -0.05 -0.3
v 0.1 -0.75 0.1
v 0.1 -0.75 -0.1
v 0.1 -0.65 0.1
v 0.1 -0.65 0
v 0.1 -0.65 -0.1
v 0.1 -0.75 0.2
v 0.1 -0.75 0.1
v 0.1 -0.65 0.3
v 0.1 -0.65 0.2
v 0.1 -0.65 0.1
v 0.1 -0.65 -0.2
v 0.1 -0.65 -0.3
v 0.1 -0.55 0.3
v 0.1 -0.55 0.2
v 0.1 -0.55 0
v 0.1 -0.55 -0.1
v 0.1 -0.55 -0.2
v 0.1 -0.55 -0.3
v 0.1 -0.45 0.2
v 0.1 -0.45 -0.2
v 0.1 0.55 0.1
v 0.1 0.55 -0.1
v 0.1 0.75 0.1
v 0.1 0.75 -0.1
v 0.2 -0.75 0.1
v 0.2 -0.75 -0.2
v 0.2 -0.65 0.2
v 0.2 -0.65 0.1
v 0.2 -0.65 0
v 0.2 -0.65 -0.1
v 0.2 -0.55 0.2
v 0.2 -0.55 0
v 0.2 -0.55 -0.1
v 0.2 -0.55 -0.2
v 0.2 -0.45 0.3
v 0.2 -0.45 0.2
v 0.2 -0.45 -0.2
v 0.2 -0.45 -0.3
v 0.2 0.05 0.3
v 0.2 0.05 0.2
v 0.2 0.05 -0.2
v 0.2 0.05 -0.3
v 0.2 0.55 0.3
v 0.2 0.55 0.2
v 0.2 0.55 -0.2
v 0.2 0.55 -0.3
v 0.3 -0.45 0.2
v 0.3 -0.45 -0.2
v 0.3 0.05 0.2
v 0.3 0.05 -0.2
v 0.3 0.55 0.2
v 0.3 0.55 -0.2
v -0.2 -0.05 0.3
v -0.2 0.15 0.3
v -0.2 0.55 0.3
v -0.1 -0.65 0.3
v -0.1 -0.55 0.3
v 0 -0.45 0.3
v 0 -0.05 0.3
v 0 0.05 0.3
v 0 0.15 0.3
v 0.1 -0.65 0.3
v 0.1 -0.55 0.3
v 0.2 -0.45 0.3
v 0.2 0.05 0.3
v 0.2 0.55 0.3
v -0.3 -0.05 0.2
v -0.3 0.15 0.2
v -0.3 0.55 0.2
v -0.2 -0.65 0.2
v -0.2 -0.55 0.2
v -0.2 -0.05 0.2
v -0.2 0.15 0.2
v -0.2 0.55 0.2
v -0.1 -0.75 0.2
v -0.1 -0.65 0.2
v -0.1 -0.55 0.2
v -0.1 -0.05 0.2
v 0 -0.45 0.2
v 0 -0.05 0.2
v 0.1 -0.75 0.2
v 0.1 -0.65 0.2
v 0.1 -0.55 0.2
v 0.1 -0.45 0.2
v 0.2 -0.65 0.2
v 0.2 -0.55 0.2
v 0.2 -0.45 0.2
v 0.2 0.05 0.2
v 0.2 0.55 0.2
v 0.3 -0.45 0.2
v 0.3 0.05 0.2
v 0.3 0.55 0.2
v -0.1 0.55 0.1
v -0.1 0.75 0.1
v 0.1 -0.75 0.1
v 0.1 -0.65 0.1
v 0.1 0.55 0.1
v 0.1 0.75 0.1
v 0.2 -0.75 0.1
v 0.2 -0.65 0.1
v -0.2 -0.65 -0.1
v -0.2 -0.55 -0.1
v -0.1 -0.75 -0.1
v -0.1 -0.65 -0.1
v -0.1 -0.55 -0.1
v 0.1 -0.75 -0.1
v 0.1 -0.65 -0.1
v 0.1 -0.55 -0.1
v 0.2 -0.65 -0.1
v 0.2 -0.55 -0.1
v -0.2 -0.65 0.1
v -0.2 -0.55 0.1
v -0.1 -0.75 0.1
v -0.1 -0.65 0.1
v -0.1 -0.55 0.1
v 0.1 -0.75 0.1
v 0.1 -0.65 0.1
v -0.1 -0.65 0
v -0.1 -0.55 0
v 0.1 -0.65 0
v 0.1 -0.55 0
v 0.2 -0.65 0
v 0.2 -0.55 0
v -0.1 0.55 -0.1
v -0.1 0.75 -0.1
v 0.1 0.55 -0.1
v 0.1 0.75 -0.1
v -0.3 -0.05 -0.2
v -0.3 0.15 -0.2
v -0.3 0.55 -0.2
v -0.2 -0.65 -0.2
v -0.2 -0.55 -0.2
v -0.2 -0.05 -0.2
v -0.2 0.15 -0.2
v -0.2 0.55 -0.2
v -0.1 -0.75 -0.2
v -0.1 -0.65 -0.2
v -0.1 -0.55 -0.2
v -0.1 -0.05 -0.2
v 0 -0.45 -0.2
v 0 -0.05 -0.2
v 0.1 -0.65 -0.2
v 0.1 -0.55 -0.2
v 0.1 -0.45 -0.2
v 0.2 -0.75 -0.2
v 0.2 -0.55 -0.2
v 0.2 -0.45 -0.2
v 0.2 0.05 -0.2
v 0.2 0.55 -0.2
v 0.3 -0.45 -0.2
v 0.3 0.05 -0.2
v 0.3 0.55 -0.2
v -0.2 -0.05 -0.3
v -0.2 0.15 -0.3
v -0.2 0.55 -0.3
v -0.1 -0.65 -0.3
v -0.1 -0.55 -0.3
v 0 -0.45 -0.3
v 0 -0.05 -0.3
v 0 0.05 -0.3
v 0 0.15 -0.3
v 0.1 -0.65 -0.3
v 0.1 -0.55 -0.3
v 0.2 -0.45 -0.3
v 0.2 0.05 -0.3
v 0.2 0.55 -0.3
v -0.1 -0.75 0.2
v 0.1 -0.75 0.2
v -0.1 -0.75 0.1
v 0.1 -0.75 0.1
v 0.2 -0.75 0.1
v -0.1 -0.75 -0.1
v 0.1 -0.75 -0.1
v -0.1 -0.75 -0.2
v 0.2 -0.75 -0.2
v -0.1 -0.65 0.3
v 0.1 -0.65 0.3
v -0.2 -0.65 0.2
v -0.1 -0.65 0.2
v 0.1 -0.65 0.2
v 0.2 -0.65 0.2
v -0.2 -0.65 0.1
v -0.1 -0.65 0.1
v 0.1 -0.65 0.1
v 0.2 -0.65 0.1
v -0.1 -0.65 0
v 0.1 -0.65 0
v -0.2 -0.65 -0.1
v -0.1 -0.65 -0.1
v -0.2 -0.65 -0.2
v -0.1 -0.65 -0.2
v 0.1 -0.65 -0.2
v -0.1 -0.65 -0.3
v 0.1 -0.65 -0.3
v -0.1 -0.55 0
v 0.1 -0.55 0
v -0.1 -0.55 -0.1
v 0.1 -0.55 -0.1
v 0 -0.45 0.3
v 0.2 -0.45 0.3
v 0 -0.45 0.2
v 0.1 -0.45 0.2
v 0.2 -0.45 0.2
v 0.3 -0.45 0.2
v 0 -0.45 -0.2
v 0.1 -0.45 -0.2
v 0.2 -0.45 -0.2
v 0.3 -0.45 -0.2
v 0 -0.45 -0.3
v 0.2 -0.45 -0.3
v -0.2 -0.05 0.3
v 0 -0.05 0.3
v -0.3 -0.05 0.2
v -0.2 -0.05 0.2
v -0.1 -0.05 0.2
v 0 -0.05 0.2
v -0.3 -0.05 -0.2
v -0.2 -0.05 -0.2
v -0.1 -0.05 -0.2
v 0 -0.05 -0.2
v -0.2 -0.05 -0.3
v 0 -0.05 -0.3
v 0.1 -0.65 0
v 0.2 -0.65 0
v 0.1 -0.65 -0.1
v 0.2 -0.65 -0.1
v -0.1 -0.55 0.3
v 0.1 -0.55 0.3
v -0.2 -0.55 0.2
v -0.1 -0.55 0.2
v 0.1 -0.55 0.2
v 0.2 -0.55 0.2
v -0.2 -0.55 0.1
v -0.1 -0.55 0.1
v 0.1 -0.55 0
v 0.2 -0.55 0
v -0.2 -0.55 -0.1
v -0.1 -0.55 -0.1
v 0.1 -0.55 -0.1
v 0.2 -0.55 -0.1
v -0.2 -0.55 -0.2
v -0.1 -0.55 -0.2
v 0.1 -0.55 -0.2
v 0.2 -0.55 -0.2
v -0.1 -0.55 -0.3
v 0.1 -0.55 -0.3
v -0.2 0.55 0.3
v 0.2 0.55 0.3
v -0.3 0.55 0.2
v -0.2 0.55 0.2
v 0.2 0.55 0.2
v 0.3 0.55 0.2
v -0.1 0.55 0.1
v 0.1 0.55 0.1
v -0.1 0.55 -0.1
v 0.1 0.55 -0.1
v -0.3 0.55 -0.2
v -0.2 0.55 -0.2
v 0.2 0.55 -0.2
v 0.3 0.55 -0.2
v -0.2 0.55 -0.3
v 0.2 0.55 -0.3
v -0.1 0.75 0.1
v 0.1 0.75 0.1
v -0.1 0.75 -0.1
v 0.1 0.75 -0.1

# faces
f 3/4/1 2/4/1 1/4/1
f 4/4/1 2/4/1 3/4/1
f 5/4/1 2/4/1 4/4/1
f 6/4/1 2/4/1 5/4/1
f 7/3/1 4/3/1 3/3/1
f 7/2/1 5/2/1 4/2/1
f 8/3/1 6/3/1 5/3/1
f 8/2/1 5/2/1 7/2/1
f 9/3/1 7/3/1 3/3/1
f 9/3/1 8/3/1 7/3/1
f 10/3/1 6/3/1 8/3/1
f 10/3/1 8/3/1 9/3/1
f 15/1/1 12/1/1 11/1/1
f 16/1/1 12/1/1 15/1/1
f 17/1/1 14/1/1 13/1/1
f 18/1/1 14/1/1 17/1/1
f 23/4/1 20/4/1 19/4/1
f 24/4/1 20/4/1 23/4/1
f 25/4/1 22/4/1 21/4/1
f 26/4/1 22/4/1 25/4/1
f 27/3/1 24/3/1 23/3/1
f 28/3/1 24/3/1 27/3/1
f 29/3/1 26/3/1 25/3/1
f 30/3/1 26/3/1 29/3/1
f 36/1/1 32/1/1 31/1/1
f 37/1/1 32/1/1 36/1/1
f 39/1/1 34/1/1 33/1/1
f 40/1/1 34/1/1 39/1/1
f 42/1/1 36/1/1 35/1/1
f 43/1/1 36/1/1 42/1/1
f 44/4/1 38/4/1 37/4/1
f 45/4/1 38/4/1 44/4/1
f 47/1/1 41/1/1 40/1/1
f 48/1/1 41/1/1 47/1/1
f 49/4/1 46/4/1 45/4/1
f 49/4/1 47/4/1 46/4/1
f 49/4/1 44/4/1 43/4/1
f 49/4/1 45/4/1 44/4/1
f 50/4/1 47/4/1 49/4/1
f 53/1/1 52/1/1 51/1/1
f 54/1/1 52/1/1 53/1/1
f 59/4/1 56/4/1 55/4/1
f 60/4/1 56/4/1 59/4/1
f 61/4/1 58/4/1 57/4/1
f 62/4/1 58/4/1 61/4/1
f 65/1/1 64/1/1 63/1/1
f 66/1/1 64/1/1 65/1/1
f 67/1/1 64/1/1 66/1/1
f 68/1/2 69/1/2 71/1/2
f 71/1/2 69/1/2 72/1/2
f 70/1/2 71/1/2 75/1/2
f 75/1/2 71/1/2 76/1/2
f 73/1/2 74/1/2 79/1/2
f 79/1/2 74/1/2 80/1/2
f 77/4/2 78/4/2 81/4/2
f 78/4/2 79/4/2 81/4/2
f 76/4/2 77/4/2 81/4/2
f 81/4/2 79/4/2 82/4/2
f 83/1/2 84/1/2 85/1/2
f 85/1/2 84/1/2 86/1/2
f 87/1/2 88/1/2 90/1/2
f 90/1/2 88/1/2 91/1/2
f 91/1/2 88/1/2 92/1/2
f 89/1/2 90/1/2 93/1/2
f 90/1/2 91/1/2 93/1/2
f 93/1/2 91/1/2 94/1/2
f 92/1/2 88/1/2 95/1/2
f 95/1/2 88/1/2 96/1/2
f 97/4/2 98/4/2 101/4/2
f 101/4/2 98/4/2 102/4/2
f 99/4/2 100/4/2 103/4/2
f 103/4/2 100/4/2 104/4/2
f 101/3/2 102/3/2 105/3/2
f 105/3/2 102/3/2 106/3/2
f 103/3/2 104/3/2 107/3/2
f 107/3/2 104/3/2 108/3/2
f 109/4/2 110/4/2 111/4/2
f 111/4/2 110/4/2 112/4/2
f 111/3/2 112/3/2 113/3/2
f 113/3/2 112/3/2 114/3/2
f 121/4/3 116/4/3 115/4/3
f 122/4/3 116/4/3 121/4/3
f 123/3/3 117/3/3 116/3/3
f 123/4/3 116/4/3 122/4/3
f 124/1/3 119/1/3 118/1/3
f 125/1/3 119/1/3 124/1/3
f 126/4/3 122/4/3 121/4/3
f 126/4/3 121/4/3 120/4/3
f 127/3/3 123/3/3 122/3/3
f 127/4/3 122/4/3 126/4/3
f 128/3/3 117/3/3 123/3/3
f 128/3/3 123/3/3 127/3/3
f 134/4/3 130/4/3 129/4/3
f 135/3/3 131/3/3 130/3/3
f 135/4/3 130/4/3 134/4/3
f 136/3/3 131/3/3 135/3/3
f 138/1/3 133/1/3 132/1/3
f 139/1/3 133/1/3 138/1/3
f 141/4/3 140/4/3 139/4/3
f 142/4/3 140/4/3 141/4/3
f 143/1/3 138/1/3 137/1/3
f 144/1/3 138/1/3 143/1/3
f 145/4/3 141/4/3 139/4/3
f 146/4/3 141/4/3 145/4/3
f 147/1/3 145/1/3 144/1/3
f 148/1/3 145/1/3 147/1/3
f 152/4/3 150/4/3 149/4/3
f 153/3/3 151/3/3 150/3/3
f 153/4/3 150/4/3 152/4/3
f 154/3/3 151/3/3 153/3/3
f 159/1/3 156/1/3 155/1/3
f 160/1/3 156/1/3 159/1/3
f 161/1/3 158/1/3 157/1/3
f 162/1/3 158/1/3 161/1/3
f 166/1/3 164/1/3 163/1/3
f 167/1/3 164/1/3 166/1/3
f 168/1/3 166/1/3 165/1/3
f 169/4/3 167/4/3 166/4/3
f 169/1/3 166/1/3 168/1/3
f 170/4/3 167/4/3 169/4/3
f 171/1/3 170/1/3 169/1/3
f 172/1/3 170/1/3 171/1/3
f 173/1/4 174/1/4 176/1/4
f 176/1/4 174/1/4 177/1/4
f 175/1/4 176/1/4 178/1/4
f 178/1/4 176/1/4 179/1/4
f 180/4/4 181/4/4 182/4/4
f 182/4/4 181/4/4 183/4/4
f 182/1/4 183/1/4 184/1/4
f 184/1/4 183/1/4 185/1/4
f 186/1/4 187/1/4 188/1/4
f 188/1/4 187/1/4 189/1/4
f 190/4/4 191/4/4 195/4/4
f 191/3/4 192/3/4 196/3/4
f 195/4/4 191/4/4 196/4/4
f 196/3/4 192/3/4 197/3/4
f 193/1/4 194/1/4 199/1/4
f 199/1/4 194/1/4 200/1/4
f 200/4/4 201/4/4 202/4/4
f 202/4/4 201/4/4 203/4/4
f 198/1/4 199/1/4 204/1/4
f 200/4/4 202/4/4 205/4/4
f 205/4/4 202/4/4 206/4/4
f 198/1/4 204/1/4 207/1/4
f 204/1/4 205/1/4 207/1/4
f 207/1/4 205/1/4 208/1/4
f 209/4/4 210/4/4 212/4/4
f 210/3/4 211/3/4 213/3/4
f 212/4/4 210/4/4 213/4/4
f 213/3/4 211/3/4 214/3/4
f 215/4/4 216/4/4 221/4/4
f 221/4/4 216/4/4 222/4/4
f 216/3/4 217/3/4 223/3/4
f 222/4/4 216/4/4 223/4/4
f 218/1/4 219/1/4 224/1/4
f 224/1/4 219/1/4 225/1/4
f 221/4/4 222/4/4 226/4/4
f 220/4/4 221/4/4 226/4/4
f 222/3/4 223/3/4 227/3/4
f 226/4/4 222/4/4 227/4/4
f 223/3/4 217/3/4 228/3/4
f 227/3/4 223/3/4 228/3/4
f 231/1/5 230/1/5 229/1/5
f 232/1/5 230/1/5 231/1/5
f 235/1/5 233/1/5 232/1/5
f 236/1/5 235/1/5 234/1/5
f 237/1/5 233/1/5 235/1/5
f 237/1/5 235/1/5 236/1/5
f 241/1/5 239/1/5 238/1/5
f 242/1/5 239/1/5 241/1/5
f 244/1/5 241/1/5 240/1/5
f 245/1/5 241/1/5 244/1/5
f 246/1/5 243/1/5 242/1/5
f 247/1/5 243/1/5 246/1/5
f 248/4/5 246/4/5 245/4/5
f 249/4/5 246/4/5 248/4/5
f 252/1/5 251/1/5 250/1/5
f 253/1/5 251/1/5 252/1/5
f 255/1/5 254/1/5 253/1/5
f 256/1/5 254/1/5 255/1/5
f 259/4/5 258/4/5 257/4/5
f 260/4/5 258/4/5 259/4/5
f 263/4/5 262/4/5 261/4/5
f 264/4/5 262/4/5 263/4/5
f 265/4/5 262/4/5 264/4/5
f 268/4/5 266/4/5 265/4/5
f 268/4/5 265/4/5 264/4/5
f 269/4/5 266/4/5 268/4/5
f 270/4/5 266/4/5 269/4/5
f 271/4/5 268/4/5 267/4/5
f 271/4/5 269/4/5 268/4/5
f 272/4/5 269/4/5 271/4/5
f 276/4/5 274/4/5 273/4/5
f 277/4/5 274/4/5 276/4/5
f 278/4/5 274/4/5 277/4/5
f 279/4/5 276/4/5 275/4/5
f 279/4/5 277/4/5 276/4/5
f 280/4/5 277/4/5 279/4/5
f 281/4/5 277/4/5 280/4/5
f 283/4/5 282/4/5 281/4/5
f 283/4/5 281/4/5 280/4/5
f 284/4/5 282/4/5 283/4/5
f 285/1/6 286/1/6 287/1/6
f 287/1/6 286/1/6 288/1/6
f 289/1/6 290/1/6 292/1/6
f 292/1/6 290/1/6 293/1/6
f 291/1/6 292/1/6 295/1/6
f 295/1/6 292/1/6 296/1/6
f 293/1/6 294/1/6 297/1/6
f 297/1/6 294/1/6 298/1/6
f 299/1/6 300/1/6 303/1/6
f 303/1/6 300/1/6 304/1/6
f 301/1/6 302/1/6 305/1/6
f 305/1/6 302/1/6 306/1/6
f 304/1/6 305/1/6 307/1/6
f 307/1/6 305/1/6 308/1/6
f 309/3/6 310/3/6 312/3/6
f 312/3/6 310/3/6 313/3/6
f 311/3/6 312/3/6 315/3/6
f 313/3/6 314/3/6 315/3/6
f 312/3/6 313/3/6 315/3/6
f 315/3/6 314/3/6 316/3/6
f 311/3/6 315/3/6 317/3/6
f 316/3/6 314/3/6 318/3/6
f 311/3/6 317/3/6 319/3/6
f 317/3/6 318/3/6 319/3/6
f 319/3/6 318/3/6 320/3/6
f 318/3/6 314/3/6 321/3/6
f 320/3/6 318/3/6 321/3/6
f 321/3/6 314/3/6 322/3/6
f 320/3/6 321/3/6 323/3/6
f 323/3/6 321/3/6 324/3/6
f 325/1/6 326/1/6 327/1/6
f 327/1/6 326/1/6 328/1/6
