# MagicaVoxel @ Ephtracy

# group
o 

# material
mtllib Arm-16.mtl
usemtl palette

# normals
vn -1 0 0
vn 1 0 0
vn 0 0 1
vn 0 0 -1
vn 0 -1 0
vn 0 1 0

# texcoords
vt 0.705078 0.5
vt 0.716797 0.5
vt 0.939453 0.5
vt 0.943359 0.5

# verts
v -0.4 0.05 0.3
v -0.4 0.05 -0.3
v -0.4 0.15 0.3
v -0.4 0.15 -0.2
v -0.4 0.25 -0.2
v -0.4 0.25 -0.3
v -0.3 -0.15 0.2
v -0.3 -0.15 -0.2
v -0.3 0.05 0.4
v -0.3 0.05 0.3
v -0.3 0.05 0.2
v -0.3 0.05 -0.2
v -0.3 0.05 -0.3
v -0.3 0.05 -0.4
v -0.3 0.15 0.4
v -0.3 0.15 0.3
v -0.3 0.25 -0.3
v -0.3 0.25 -0.4
v -0.2 -0.25 0.2
v -0.2 -0.25 -0.2
v -0.2 -0.15 0.3
v -0.2 -0.15 0.2
v -0.2 -0.15 -0.2
v -0.2 -0.15 -0.3
v -0.2 0.05 0.3
v -0.2 0.05 0.2
v -0.2 0.05 -0.2
v -0.2 0.05 -0.3
v -0.2 0.15 0.4
v -0.2 0.15 0.3
v -0.2 0.25 0.4
v -0.2 0.25 0.3
v 0.1 -0.25 0.1
v 0.1 -0.25 -0.1
v 0.1 -0.05 0.1
v 0.1 -0.05 -0.1
v -0.1 -0.25 0.1
v -0.1 -0.25 -0.1
v -0.1 -0.05 0.1
v -0.1 -0.05 -0.1
v 0.2 -0.25 0.2
v 0.2 -0.25 -0.2
v 0.2 -0.15 0.3
v 0.2 -0.15 0.2
v 0.2 -0.15 -0.2
v 0.2 -0.15 -0.3
v 0.2 0.05 0.3
v 0.2 0.05 0.2
v 0.2 0.05 -0.2
v 0.2 0.05 -0.3
v 0.2 0.15 0.4
v 0.2 0.15 0.3
v 0.2 0.25 0.4
v 0.2 0.25 0.3
v 0.3 -0.15 0.2
v 0.3 -0.15 -0.2
v 0.3 0.05 0.4
v 0.3 0.05 0.3
v 0.3 0.05 0.2
v 0.3 0.05 -0.2
v 0.3 0.05 -0.3
v 0.3 0.05 -0.4
v 0.3 0.15 0.4
v 0.3 0.15 0.3
v 0.3 0.25 -0.3
v 0.3 0.25 -0.4
v 0.4 0.05 0.3
v 0.4 0.05 -0.3
v 0.4 0.15 0.3
v 0.4 0.15 -0.2
v 0.4 0.25 -0.2
v 0.4 0.25 -0.3
v -0.3 0.05 0.4
v -0.3 0.15 0.4
v -0.2 0.15 0.4
v -0.2 0.25 0.4
v 0.2 0.15 0.4
v 0.2 0.25 0.4
v 0.3 0.05 0.4
v 0.3 0.15 0.4
v -0.4 0.05 0.3
v -0.4 0.15 0.3
v -0.3 0.05 0.3
v -0.3 0.15 0.3
v -0.2 -0.15 0.3
v -0.2 0.05 0.3
v 0.2 -0.15 0.3
v 0.2 0.05 0.3
v 0.3 0.05 0.3
v 0.3 0.15 0.3
v 0.4 0.05 0.3
v 0.4 0.15 0.3
v -0.3 -0.15 0.2
v -0.3 0.05 0.2
v -0.2 -0.25 0.2
v -0.2 -0.15 0.2
v -0.2 0.05 0.2
v 0.2 -0.25 0.2
v 0.2 -0.15 0.2
v 0.2 0.05 0.2
v 0.3 -0.15 0.2
v 0.3 0.05 0.2
v -0.1 -0.25 -0.1
v -0.1 -0.05 -0.1
v 0.1 -0.25 -0.1
v 0.1 -0.05 -0.1
v -0.4 0.15 -0.2
v -0.4 0.25 -0.2
v -0.3 0.15 -0.2
v -0.3 0.25 -0.2
v 0.3 0.15 -0.2
v 0.3 0.25 -0.2
v 0.4 0.15 -0.2
v 0.4 0.25 -0.2
v -0.2 0.15 0.3
v -0.2 0.25 0.3
v 0.2 0.15 0.3
v 0.2 0.25 0.3
v -0.1 -0.25 0.1
v -0.1 -0.05 0.1
v 0.1 -0.25 0.1
v 0.1 -0.05 0.1
v -0.3 -0.15 -0.2
v -0.3 0.05 -0.2
v -0.2 -0.25 -0.2
v -0.2 -0.15 -0.2
v -0.2 0.05 -0.2
v 0.2 -0.25 -0.2
v 0.2 -0.15 -0.2
v 0.2 0.05 -0.2
v 0.3 -0.15 -0.2
v 0.3 0.05 -0.2
v -0.4 0.05 -0.3
v -0.4 0.25 -0.3
v -0.3 0.05 -0.3
v -0.3 0.25 -0.3
v -0.2 -0.15 -0.3
v -0.2 0.05 -0.3
v 0.2 -0.15 -0.3
v 0.2 0.05 -0.3
v 0.3 0.05 -0.3
v 0.3 0.25 -0.3
v 0.4 0.05 -0.3
v 0.4 0.25 -0.3
v -0.3 0.05 -0.4
v -0.3 0.25 -0.4
v 0.3 0.05 -0.4
v 0.3 0.25 -0.4
v -0.2 -0.25 0.2
v 0.2 -0.25 0.2
v -0.1 -0.25 0.1
v 0.1 -0.25 0.1
v -0.1 -0.25 -0.1
v 0.1 -0.25 -0.1
v -0.2 -0.25 -0.2
v 0.2 -0.25 -0.2
v -0.2 -0.15 0.3
v 0.2 -0.15 0.3
v -0.3 -0.15 0.2
v -0.2 -0.15 0.2
v 0.2 -0.15 0.2
v 0.3 -0.15 0.2
v -0.3 -0.15 -0.2
v -0.2 -0.15 -0.2
v 0.2 -0.15 -0.2
v 0.3 -0.15 -0.2
v -0.2 -0.15 -0.3
v 0.2 -0.15 -0.3
v -0.1 -0.05 0.1
v 0.1 -0.05 0.1
v -0.1 -0.05 -0.1
v 0.1 -0.05 -0.1
v -0.3 0.05 0.4
v 0.3 0.05 0.4
v -0.4 0.05 0.3
v -0.3 0.05 0.3
v -0.2 0.05 0.3
v 0.2 0.05 0.3
v 0.3 0.05 0.3
v 0.4 0.05 0.3
v -0.3 0.05 0.2
v -0.2 0.05 0.2
v 0.2 0.05 0.2
v 0.3 0.05 0.2
v -0.3 0.05 -0.2
v -0.2 0.05 -0.2
v 0.2 0.05 -0.2
v 0.3 0.05 -0.2
v -0.4 0.05 -0.3
v -0.3 0.05 -0.3
v -0.2 0.05 -0.3
v 0.2 0.05 -0.3
v 0.3 0.05 -0.3
v 0.4 0.05 -0.3
v -0.3 0.05 -0.4
v 0.3 0.05 -0.4
v -0.3 0.15 0.4
v -0.2 0.15 0.4
v 0.2 0.15 0.4
v 0.3 0.15 0.4
v -0.4 0.15 0.3
v -0.3 0.15 0.3
v -0.2 0.15 0.3
v 0.2 0.15 0.3
v 0.3 0.15 0.3
v 0.4 0.15 0.3
v -0.4 0.15 -0.2
v -0.3 0.15 -0.2
v 0.3 0.15 -0.2
v 0.4 0.15 -0.2
v -0.2 0.25 0.4
v 0.2 0.25 0.4
v -0.2 0.25 0.3
v 0.2 0.25 0.3
v -0.4 0.25 -0.2
v -0.3 0.25 -0.2
v 0.3 0.25 -0.2
v 0.4 0.25 -0.2
v -0.4 0.25 -0.3
v -0.3 0.25 -0.3
v 0.3 0.25 -0.3
v 0.4 0.25 -0.3
v -0.3 0.25 -0.4
v 0.3 0.25 -0.4

# faces
f 3/3/1 2/3/1 1/3/1
f 4/3/1 2/3/1 3/3/1
f 5/3/1 2/3/1 4/3/1
f 6/3/1 2/3/1 5/3/1
f 11/3/1 8/3/1 7/3/1
f 12/3/1 8/3/1 11/3/1
f 15/3/1 10/3/1 9/3/1
f 16/3/1 10/3/1 15/3/1
f 17/3/1 14/3/1 13/3/1
f 18/3/1 14/3/1 17/3/1
f 22/4/1 20/4/1 19/4/1
f 23/4/1 20/4/1 22/4/1
f 25/3/1 22/3/1 21/3/1
f 26/3/1 22/3/1 25/3/1
f 27/3/1 24/3/1 23/3/1
f 28/3/1 24/3/1 27/3/1
f 31/3/1 30/3/1 29/3/1
f 32/3/1 30/3/1 31/3/1
f 35/4/1 34/4/1 33/4/1
f 36/4/1 34/4/1 35/4/1
f 37/4/2 38/4/2 39/4/2
f 39/4/2 38/4/2 40/4/2
f 41/4/2 42/4/2 44/4/2
f 44/4/2 42/4/2 45/4/2
f 43/3/2 44/3/2 47/3/2
f 47/3/2 44/3/2 48/3/2
f 45/3/2 46/3/2 49/3/2
f 49/3/2 46/3/2 50/3/2
f 51/3/2 52/3/2 53/3/2
f 53/3/2 52/3/2 54/3/2
f 55/3/2 56/3/2 59/3/2
f 59/3/2 56/3/2 60/3/2
f 57/3/2 58/3/2 63/3/2
f 63/3/2 58/3/2 64/3/2
f 61/3/2 62/3/2 65/3/2
f 65/3/2 62/3/2 66/3/2
f 67/3/2 68/3/2 69/3/2
f 69/3/2 68/3/2 70/3/2
f 70/3/2 68/3/2 71/3/2
f 71/3/2 68/3/2 72/3/2
f 75/3/3 74/3/3 73/3/3
f 77/3/3 75/3/3 73/3/3
f 77/3/3 76/3/3 75/3/3
f 78/3/3 76/3/3 77/3/3
f 79/3/3 77/3/3 73/3/3
f 80/3/3 77/3/3 79/3/3
f 83/3/3 82/3/3 81/3/3
f 84/3/3 82/3/3 83/3/3
f 87/3/3 86/3/3 85/3/3
f 88/3/3 86/3/3 87/3/3
f 91/3/3 90/3/3 89/3/3
f 92/3/3 90/3/3 91/3/3
f 96/3/3 94/3/3 93/3/3
f 97/3/3 94/3/3 96/3/3
f 98/4/3 96/4/3 95/4/3
f 99/4/3 96/4/3 98/4/3
f 101/3/3 100/3/3 99/3/3
f 102/3/3 100/3/3 101/3/3
f 105/4/3 104/4/3 103/4/3
f 106/4/3 104/4/3 105/4/3
f 109/3/3 108/3/3 107/3/3
f 110/3/3 108/3/3 109/3/3
f 111/4/3 110/4/3 109/4/3
f 112/4/3 110/4/3 111/4/3
f 113/3/3 112/3/3 111/3/3
f 114/3/3 112/3/3 113/3/3
f 115/3/4 116/3/4 117/3/4
f 117/3/4 116/3/4 118/3/4
f 119/4/4 120/4/4 121/4/4
f 121/4/4 120/4/4 122/4/4
f 123/3/4 124/3/4 126/3/4
f 126/3/4 124/3/4 127/3/4
f 125/4/4 126/4/4 128/4/4
f 128/4/4 126/4/4 129/4/4
f 129/3/4 130/3/4 131/3/4
f 131/3/4 130/3/4 132/3/4
f 133/3/4 134/3/4 135/3/4
f 135/3/4 134/3/4 136/3/4
f 137/3/4 138/3/4 139/3/4
f 139/3/4 138/3/4 140/3/4
f 141/3/4 142/3/4 143/3/4
f 143/3/4 142/3/4 144/3/4
f 145/3/4 146/3/4 147/3/4
f 147/3/4 146/3/4 148/3/4
f 151/4/5 150/4/5 149/4/5
f 152/4/5 150/4/5 151/4/5
f 153/4/5 151/4/5 149/4/5
f 154/4/5 150/4/5 152/4/5
f 155/4/5 153/4/5 149/4/5
f 155/4/5 154/4/5 153/4/5
f 156/4/5 150/4/5 154/4/5
f 156/4/5 154/4/5 155/4/5
f 160/3/5 158/3/5 157/3/5
f 161/3/5 158/3/5 160/3/5
f 163/3/5 160/3/5 159/3/5
f 164/3/5 160/3/5 163/3/5
f 165/3/5 162/3/5 161/3/5
f 166/3/5 162/3/5 165/3/5
f 167/3/5 165/3/5 164/3/5
f 168/3/5 165/3/5 167/3/5
f 171/2/5 170/2/5 169/2/5
f 172/2/5 170/2/5 171/2/5
f 176/3/5 174/3/5 173/3/5
f 177/3/5 174/3/5 176/3/5
f 178/3/5 174/3/5 177/3/5
f 179/3/5 174/3/5 178/3/5
f 181/3/5 176/3/5 175/3/5
f 181/4/5 177/4/5 176/4/5
f 182/4/5 177/4/5 181/4/5
f 183/4/5 179/4/5 178/4/5
f 184/3/5 180/3/5 179/3/5
f 184/4/5 179/4/5 183/4/5
f 185/3/5 181/3/5 175/3/5
f 188/3/5 180/3/5 184/3/5
f 189/3/5 185/3/5 175/3/5
f 190/4/5 186/4/5 185/4/5
f 190/3/5 185/3/5 189/3/5
f 191/4/5 186/4/5 190/4/5
f 192/4/5 188/4/5 187/4/5
f 193/3/5 180/3/5 188/3/5
f 193/4/5 188/4/5 192/4/5
f 194/3/5 180/3/5 193/3/5
f 195/3/5 191/3/5 190/3/5
f 195/3/5 192/3/5 191/3/5
f 195/3/5 193/3/5 192/3/5
f 196/3/5 193/3/5 195/3/5
f 197/3/6 198/3/6 202/3/6
f 202/3/6 198/3/6 203/3/6
f 199/3/6 200/3/6 204/3/6
f 204/3/6 200/3/6 205/3/6
f 201/3/6 202/3/6 207/3/6
f 202/4/6 203/4/6 208/4/6
f 207/3/6 202/3/6 208/3/6
f 203/4/6 204/4/6 208/4/6
f 204/4/6 205/4/6 208/4/6
f 205/3/6 206/3/6 209/3/6
f 208/4/6 205/4/6 209/4/6
f 209/3/6 206/3/6 210/3/6
f 211/3/6 212/3/6 213/3/6
f 213/3/6 212/3/6 214/3/6
f 215/3/6 216/3/6 219/3/6
f 216/4/6 217/4/6 220/4/6
f 219/3/6 216/3/6 220/3/6
f 217/3/6 218/3/6 221/3/6
f 220/4/6 217/4/6 221/4/6
f 221/3/6 218/3/6 222/3/6
f 220/3/6 221/3/6 223/3/6
f 223/3/6 221/3/6 224/3/6
