# MagicaVoxel @ Ephtracy

# group
o 

# material
mtllib Arm-10.mtl
usemtl palette

# normals
vn -1 0 0
vn 1 0 0
vn 0 0 1
vn 0 0 -1
vn 0 -1 0
vn 0 1 0

# texcoords
vt 0.705078 0.5
vt 0.939453 0.5
vt 0.943359 0.5

# verts
v -0.75 -0.25 0.5
v -0.75 -0.25 -0.1
v -0.75 -0.15 0.5
v -0.75 -0.15 0.4
v -0.75 -0.15 0.1
v -0.75 -0.15 0
v -0.75 -0.05 0.1
v -0.75 -0.05 0
v -0.75 -0.05 -0.1
v -0.75 0.05 0.4
v -0.75 0.05 0.2
v -0.75 0.15 0.2
v -0.75 0.15 0
v -0.65 -0.35 0.6
v -0.65 -0.35 -0.3
v -0.65 -0.25 0.5
v -0.65 -0.25 -0.1
v -0.65 -0.25 -0.3
v -0.65 -0.25 -0.4
v -0.65 -0.15 0.6
v -0.65 -0.15 0.5
v -0.65 -0.15 -0.4
v -0.65 -0.15 -0.5
v -0.65 -0.05 0
v -0.65 -0.05 -0.1
v -0.65 -0.05 -0.5
v -0.65 -0.05 -0.6
v -0.65 0.05 -0.6
v -0.65 0.05 -0.7
v -0.65 0.15 0.2
v -0.65 0.15 0
v -0.65 0.25 0.2
v -0.65 0.25 0.1
v -0.65 0.25 -0.6
v -0.65 0.25 -0.7
v -0.65 0.35 0.1
v -0.65 0.35 -0.6
v -0.55 -0.35 0.7
v -0.55 -0.35 0.6
v -0.55 -0.15 0.7
v -0.55 -0.15 0.6
v -0.55 -0.15 0.5
v -0.55 -0.15 0.4
v -0.55 0.05 0.5
v -0.55 0.05 0.4
v -0.55 0.05 0.3
v -0.55 0.05 0.2
v -0.55 0.25 0.3
v -0.55 0.25 0.2
v -0.55 0.25 0.1
v -0.55 0.35 0.2
v -0.55 0.35 0.1
v -0.05 -0.35 0.1
v -0.05 -0.35 0
v -0.05 -0.15 0.1
v -0.05 -0.15 0
v -0.05 0.25 0.2
v -0.05 0.25 -0.2
v -0.05 0.35 0.2
v -0.05 0.35 -0.2
v 0.05 -0.05 0.4
v 0.05 -0.05 0.3
v 0.05 0.05 0.4
v 0.05 0.05 0.3
v 0.05 0.05 0.2
v 0.05 0.25 0.3
v 0.05 0.25 0.2
v 0.05 0.25 -0.2
v 0.05 0.25 -0.3
v 0.05 0.35 -0.2
v 0.05 0.35 -0.3
v 0.15 -0.35 0.5
v 0.15 -0.35 0.4
v 0.15 -0.35 -0.1
v 0.15 -0.35 -0.2
v 0.15 -0.25 0.6
v 0.15 -0.25 0.5
v 0.15 -0.25 0.4
v 0.15 -0.25 -0.1
v 0.15 -0.25 -0.2
v 0.15 -0.15 0.6
v 0.15 -0.15 0.5
v 0.15 -0.15 0.4
v 0.15 -0.05 0.4
v 0.15 0.05 0.5
v 0.15 0.05 0.4
v 0.25 -0.35 0.7
v 0.25 -0.35 0.6
v 0.25 -0.35 0.4
v 0.25 -0.35 0.3
v 0.25 -0.35 0.1
v 0.25 -0.35 0
v 0.25 -0.25 0.6
v 0.25 -0.25 0.3
v 0.25 -0.25 0.1
v 0.25 -0.15 0.7
v 0.25 -0.15 0.6
v 0.25 -0.15 0.4
v 0.25 -0.15 0
v 0.45 -0.35 0.3
v 0.45 -0.35 0.1
v 0.45 -0.25 0.3
v 0.45 -0.25 0.1
v 0.65 -0.35 0.6
v 0.65 -0.35 -0.3
v 0.65 -0.25 0.6
v 0.65 -0.25 -0.3
v -0.35 -0.35 0.3
v -0.35 -0.35 0.1
v -0.35 -0.25 0.3
v -0.35 -0.25 0.1
v -0.15 -0.35 0.4
v -0.15 -0.35 0.3
v -0.15 -0.35 0.1
v -0.15 -0.35 0
v -0.15 -0.25 0.3
v -0.15 -0.25 0.1
v -0.15 -0.15 0.4
v -0.15 -0.15 0
v -0.15 0.25 0.2
v -0.15 0.25 -0.2
v -0.15 0.35 0.2
v -0.15 0.35 -0.2
v -0.05 -0.35 0.5
v -0.05 -0.35 0.4
v -0.05 -0.35 -0.1
v -0.05 -0.35 -0.2
v -0.05 -0.25 0.5
v -0.05 -0.25 0.4
v -0.05 -0.25 -0.1
v -0.05 -0.25 -0.2
v -0.05 -0.05 0.4
v -0.05 -0.05 0.3
v -0.05 0.05 0.4
v -0.05 0.05 0.3
v -0.05 0.05 0.2
v -0.05 0.25 0.3
v -0.05 0.25 0.2
v -0.05 0.25 -0.2
v -0.05 0.25 -0.3
v -0.05 0.35 -0.2
v -0.05 0.35 -0.3
v 0.05 -0.25 0.6
v 0.05 -0.25 0.5
v 0.05 -0.15 0.6
v 0.05 -0.15 0.5
v 0.05 -0.15 0.4
v 0.05 -0.05 0.4
v 0.05 0.05 0.5
v 0.05 0.05 0.4
v 0.05 0.25 -0.3
v 0.05 0.25 -0.4
v 0.05 0.35 -0.3
v 0.05 0.35 -0.4
v 0.15 -0.35 0.7
v 0.15 -0.35 0.6
v 0.15 -0.35 0.1
v 0.15 -0.35 0
v 0.15 -0.25 0.6
v 0.15 -0.15 0.7
v 0.15 -0.15 0.6
v 0.15 -0.15 0.1
v 0.15 -0.15 0
v 0.15 0.25 0.2
v 0.15 0.25 0.1
v 0.15 0.35 0.2
v 0.15 0.35 0.1
v 0.25 -0.35 0.6
v 0.25 -0.35 0.5
v 0.25 -0.25 0.6
v 0.25 -0.25 0.5
v 0.25 0.15 -0.3
v 0.25 0.15 -0.4
v 0.25 0.25 0.1
v 0.25 0.25 -0.3
v 0.25 0.25 -0.4
v 0.25 0.25 -0.6
v 0.25 0.35 0.1
v 0.25 0.35 -0.3
v 0.25 0.35 -0.4
v 0.25 0.35 -0.6
v 0.35 -0.05 -0.5
v 0.35 -0.05 -0.6
v 0.35 0.05 0.3
v 0.35 0.05 0.2
v 0.35 0.05 -0.3
v 0.35 0.05 -0.4
v 0.35 0.05 -0.5
v 0.35 0.05 -0.6
v 0.35 0.05 -0.7
v 0.35 0.15 -0.3
v 0.35 0.15 -0.4
v 0.35 0.25 0.3
v 0.35 0.25 0.2
v 0.35 0.25 -0.6
v 0.35 0.25 -0.7
v 0.45 -0.25 -0.3
v 0.45 -0.25 -0.4
v 0.45 -0.15 -0.4
v 0.45 -0.05 -0.3
v 0.45 0.05 0.2
v 0.45 0.05 -0.3
v 0.45 0.05 -0.4
v 0.45 0.05 -0.5
v 0.45 0.05 -0.6
v 0.45 0.25 0.2
v 0.45 0.25 -0.3
v 0.45 0.25 -0.4
v 0.45 0.25 -0.6
v 0.55 -0.35 0.5
v 0.55 -0.35 -0.3
v 0.55 -0.25 0.5
v 0.55 -0.25 -0.3
v 0.55 -0.15 0.5
v 0.55 -0.15 0.4
v 0.55 -0.15 -0.4
v 0.55 -0.15 -0.5
v 0.55 0.05 0.5
v 0.55 0.05 0.4
v 0.55 0.05 -0.4
v 0.55 0.05 -0.5
v 0.65 -0.35 0.7
v 0.65 -0.35 0.6
v 0.65 -0.15 0.7
v 0.65 -0.15 0.6
v 0.65 -0.15 0.4
v 0.65 -0.15 -0.3
v 0.65 0.05 0.4
v 0.65 0.05 -0.3
v 0.75 -0.35 0.6
v 0.75 -0.35 -0.3
v 0.75 -0.15 0.6
v 0.75 -0.15 -0.3
v -0.55 -0.35 0.7
v -0.55 -0.15 0.7
v 0.15 -0.35 0.7
v 0.15 -0.15 0.7
v 0.25 -0.35 0.7
v 0.25 -0.15 0.7
v 0.65 -0.35 0.7
v 0.65 -0.15 0.7
v -0.65 -0.35 0.6
v -0.65 -0.15 0.6
v -0.55 -0.35 0.6
v -0.55 -0.15 0.6
v 0.15 -0.35 0.6
v 0.15 -0.25 0.6
v 0.15 -0.15 0.6
v 0.25 -0.35 0.6
v 0.25 -0.25 0.6
v 0.25 -0.15 0.6
v 0.65 -0.35 0.6
v 0.65 -0.15 0.6
v 0.75 -0.35 0.6
v 0.75 -0.15 0.6
v -0.75 -0.25 0.5
v -0.75 -0.15 0.5
v -0.65 -0.25 0.5
v -0.65 -0.15 0.5
v -0.55 -0.15 0.5
v -0.55 0.05 0.5
v 0.05 -0.25 0.5
v 0.05 -0.15 0.5
v 0.05 0.05 0.5
v 0.15 -0.25 0.5
v 0.15 -0.15 0.5
v 0.15 0.05 0.5
v 0.25 -0.35 0.5
v 0.25 -0.25 0.5
v 0.55 -0.35 0.5
v 0.55 -0.25 0.5
v 0.55 -0.15 0.5
v 0.55 0.05 0.5
v -0.75 -0.15 0.4
v -0.75 0.05 0.4
v -0.65 -0.15 0.4
v -0.65 0.05 0.4
v -0.55 -0.15 0.4
v -0.55 0.05 0.4
v 0.05 -0.15 0.4
v 0.05 -0.05 0.4
v 0.05 0.05 0.4
v 0.15 -0.15 0.4
v 0.15 -0.05 0.4
v 0.15 0.05 0.4
v 0.55 -0.15 0.4
v 0.55 0.05 0.4
v 0.65 -0.15 0.4
v 0.65 0.05 0.4
v -0.55 0.05 0.3
v -0.55 0.25 0.3
v -0.05 -0.05 0.3
v -0.05 0.05 0.3
v -0.05 0.25 0.3
v 0.05 -0.05 0.3
v 0.05 0.05 0.3
v 0.05 0.25 0.3
v 0.35 0.05 0.3
v 0.35 0.25 0.3
v -0.75 0.05 0.2
v -0.75 0.15 0.2
v -0.65 0.05 0.2
v -0.65 0.15 0.2
v -0.65 0.25 0.2
v -0.55 0.05 0.2
v -0.55 0.25 0.2
v -0.55 0.35 0.2
v -0.15 0.25 0.2
v -0.15 0.35 0.2
v -0.05 0.05 0.2
v -0.05 0.25 0.2
v -0.05 0.35 0.2
v 0.05 0.05 0.2
v 0.05 0.25 0.2
v 0.15 0.25 0.2
v 0.15 0.35 0.2
v 0.35 0.05 0.2
v 0.35 0.25 0.2
v 0.45 0.05 0.2
v 0.45 0.25 0.2
v -0.65 0.25 0.1
v -0.65 0.35 0.1
v -0.55 0.25 0.1
v -0.55 0.35 0.1
v -0.35 -0.35 0.1
v -0.35 -0.25 0.1
v -0.15 -0.35 0.1
v -0.15 -0.25 0.1
v -0.05 -0.35 0.1
v -0.05 -0.15 0.1
v 0.15 -0.35 0.1
v 0.15 -0.15 0.1
v 0.15 0.25 0.1
v 0.15 0.35 0.1
v 0.25 -0.35 0.1
v 0.25 -0.25 0.1
v 0.25 0.25 0.1
v 0.25 0.35 0.1
v 0.45 -0.35 0.1
v 0.45 -0.25 0.1
v -0.15 -0.35 0
v -0.15 -0.15 0
v -0.05 -0.35 0
v -0.05 -0.15 0
v 0.15 -0.35 0
v 0.15 -0.15 0
v 0.25 -0.35 0
v 0.25 -0.15 0
v -0.15 0.25 -0.2
v -0.15 0.35 -0.2
v -0.05 -0.35 -0.2
v -0.05 -0.25 -0.2
v -0.05 0.25 -0.2
v -0.05 0.35 -0.2
v 0.15 -0.35 -0.2
v 0.15 -0.25 -0.2
v -0.05 0.25 -0.3
v -0.05 0.35 -0.3
v 0.05 0.25 -0.3
v 0.05 0.35 -0.3
v 0.05 0.25 -0.4
v 0.05 0.35 -0.4
v 0.25 0.15 -0.4
v 0.25 0.25 -0.4
v 0.25 0.35 -0.4
v 0.35 0.05 -0.4
v 0.35 0.15 -0.4
v 0.45 -0.15 -0.4
v 0.45 0.05 -0.4
v 0.45 0.25 -0.4
v 0.55 -0.15 -0.4
v 0.55 0.05 -0.4
v 0.05 -0.25 0.6
v 0.05 -0.15 0.6
v 0.15 -0.25 0.6
v 0.15 -0.15 0.6
v 0.25 -0.35 0.6
v 0.25 -0.25 0.6
v 0.65 -0.35 0.6
v 0.65 -0.25 0.6
v -0.05 -0.35 0.5
v -0.05 -0.25 0.5
v 0.15 -0.35 0.5
v 0.15 -0.25 0.5
v -0.15 -0.35 0.4
v -0.15 -0.15 0.4
v -0.05 -0.35 0.4
v -0.05 -0.25 0.4
v -0.05 -0.05 0.4
v -0.05 0.05 0.4
v 0.05 -0.05 0.4
v 0.05 0.05 0.4
v 0.15 -0.35 0.4
v 0.15 -0.25 0.4
v 0.25 -0.35 0.4
v 0.25 -0.15 0.4
v -0.35 -0.35 0.3
v -0.35 -0.25 0.3
v -0.15 -0.35 0.3
v -0.15 -0.25 0.3
v 0.25 -0.35 0.3
v 0.25 -0.25 0.3
v 0.45 -0.35 0.3
v 0.45 -0.25 0.3
v -0.75 -0.05 0
v -0.75 0.15 0
v -0.65 -0.05 0
v -0.65 0.15 0
v -0.75 -0.25 -0.1
v -0.75 -0.05 -0.1
v -0.65 -0.25 -0.1
v -0.65 -0.05 -0.1
v -0.05 -0.35 -0.1
v -0.05 -0.25 -0.1
v 0.15 -0.35 -0.1
v 0.15 -0.25 -0.1
v -0.05 0.25 -0.2
v -0.05 0.35 -0.2
v 0.05 0.25 -0.2
v 0.05 0.35 -0.2
v -0.65 -0.35 -0.3
v -0.65 -0.25 -0.3
v 0.05 0.25 -0.3
v 0.05 0.35 -0.3
v 0.25 0.15 -0.3
v 0.25 0.25 -0.3
v 0.25 0.35 -0.3
v 0.35 0.05 -0.3
v 0.35 0.15 -0.3
v 0.45 -0.25 -0.3
v 0.45 -0.05 -0.3
v 0.45 0.05 -0.3
v 0.45 0.25 -0.3
v 0.55 -0.35 -0.3
v 0.55 -0.25 -0.3
v 0.55 -0.05 -0.3
v 0.65 -0.35 -0.3
v 0.65 -0.25 -0.3
v 0.65 -0.15 -0.3
v 0.65 0.05 -0.3
v 0.75 -0.35 -0.3
v 0.75 -0.15 -0.3
v -0.65 -0.25 -0.4
v -0.65 -0.15 -0.4
v 0.45 -0.25 -0.4
v 0.45 -0.15 -0.4
v -0.65 -0.15 -0.5
v -0.65 -0.05 -0.5
v 0.35 -0.05 -0.5
v 0.35 0.05 -0.5
v 0.45 0.05 -0.5
v 0.55 -0.15 -0.5
v 0.55 0.05 -0.5
v -0.65 -0.05 -0.6
v -0.65 0.05 -0.6
v -0.65 0.25 -0.6
v -0.65 0.35 -0.6
v 0.25 0.25 -0.6
v 0.25 0.35 -0.6
v 0.35 -0.05 -0.6
v 0.35 0.05 -0.6
v 0.35 0.25 -0.6
v 0.45 0.05 -0.6
v 0.45 0.25 -0.6
v -0.65 0.05 -0.7
v -0.65 0.25 -0.7
v 0.35 0.05 -0.7
v 0.35 0.25 -0.7
v -0.55 -0.35 0.7
v 0.15 -0.35 0.7
v 0.25 -0.35 0.7
v 0.65 -0.35 0.7
v -0.65 -0.35 0.6
v -0.55 -0.35 0.6
v 0.15 -0.35 0.6
v 0.25 -0.35 0.6
v 0.65 -0.35 0.6
v 0.75 -0.35 0.6
v -0.05 -0.35 0.5
v 0.15 -0.35 0.5
v 0.25 -0.35 0.5
v 0.55 -0.35 0.5
v -0.15 -0.35 0.4
v -0.05 -0.35 0.4
v 0.15 -0.35 0.4
v 0.25 -0.35 0.4
v -0.35 -0.35 0.3
v -0.15 -0.35 0.3
v 0.25 -0.35 0.3
v 0.45 -0.35 0.3
v -0.35 -0.35 0.1
v -0.15 -0.35 0.1
v -0.05 -0.35 0.1
v 0.15 -0.35 0.1
v 0.25 -0.35 0.1
v 0.45 -0.35 0.1
v -0.15 -0.35 0
v -0.05 -0.35 0
v 0.15 -0.35 0
v 0.25 -0.35 0
v -0.05 -0.35 -0.1
v 0.15 -0.35 -0.1
v -0.05 -0.35 -0.2
v 0.15 -0.35 -0.2
v -0.65 -0.35 -0.3
v 0.55 -0.35 -0.3
v 0.65 -0.35 -0.3
v 0.75 -0.35 -0.3
v 0.25 -0.25 0.6
v 0.65 -0.25 0.6
v -0.75 -0.25 0.5
v -0.65 -0.25 0.5
v -0.05 -0.25 0.5
v 0.15 -0.25 0.5
v 0.25 -0.25 0.5
v 0.55 -0.25 0.5
v -0.05 -0.25 0.4
v 0.15 -0.25 0.4
v -0.35 -0.25 0.3
v -0.15 -0.25 0.3
v 0.25 -0.25 0.3
v 0.45 -0.25 0.3
v -0.35 -0.25 0.1
v -0.15 -0.25 0.1
v 0.25 -0.25 0.1
v 0.45 -0.25 0.1
v -0.75 -0.25 -0.1
v -0.65 -0.25 -0.1
v -0.05 -0.25 -0.1
v 0.15 -0.25 -0.1
v -0.05 -0.25 -0.2
v 0.15 -0.25 -0.2
v -0.65 -0.25 -0.3
v 0.45 -0.25 -0.3
v 0.55 -0.25 -0.3
v 0.65 -0.25 -0.3
v -0.65 -0.25 -0.4
v 0.45 -0.25 -0.4
v -0.15 -0.15 0.4
v 0.25 -0.15 0.4
v -0.05 -0.15 0.1
v 0.15 -0.15 0.1
v -0.15 -0.15 0
v -0.05 -0.15 0
v 0.15 -0.15 0
v 0.25 -0.15 0
v -0.65 -0.15 -0.4
v 0.45 -0.15 -0.4
v 0.55 -0.15 -0.4
v -0.65 -0.15 -0.5
v 0.55 -0.15 -0.5
v -0.65 -0.05 -0.5
v 0.35 -0.05 -0.5
v -0.65 -0.05 -0.6
v 0.35 -0.05 -0.6
v 0.35 0.05 -0.5
v 0.45 0.05 -0.5
v -0.65 0.05 -0.6
v 0.35 0.05 -0.6
v 0.45 0.05 -0.6
v -0.65 0.05 -0.7
v 0.35 0.05 -0.7
v 0.05 -0.25 0.6
v 0.15 -0.25 0.6
v 0.05 -0.25 0.5
v 0.15 -0.25 0.5
v -0.55 -0.15 0.7
v 0.15 -0.15 0.7
v 0.25 -0.15 0.7
v 0.65 -0.15 0.7
v -0.65 -0.15 0.6
v -0.55 -0.15 0.6
v 0.05 -0.15 0.6
v 0.15 -0.15 0.6
v 0.25 -0.15 0.6
v 0.65 -0.15 0.6
v 0.75 -0.15 0.6
v -0.75 -0.15 0.5
v -0.65 -0.15 0.5
v -0.55 -0.15 0.5
v 0.05 -0.15 0.5
v 0.15 -0.15 0.5
v 0.55 -0.15 0.5
v -0.75 -0.15 0.4
v -0.65 -0.15 0.4
v -0.55 -0.15 0.4
v 0.05 -0.15 0.4
v 0.15 -0.15 0.4
v 0.55 -0.15 0.4
v 0.65 -0.15 0.4
v 0.65 -0.15 -0.3
v 0.75 -0.15 -0.3
v -0.05 -0.05 0.4
v 0.05 -0.05 0.4
v -0.05 -0.05 0.3
v 0.05 -0.05 0.3
v -0.75 -0.05 0
v -0.65 -0.05 0
v -0.75 -0.05 -0.1
v -0.65 -0.05 -0.1
v -0.55 0.05 0.5
v 0.05 0.05 0.5
v 0.15 0.05 0.5
v 0.55 0.05 0.5
v -0.75 0.05 0.4
v -0.65 0.05 0.4
v -0.55 0.05 0.4
v -0.05 0.05 0.4
v 0.05 0.05 0.4
v 0.15 0.05 0.4
v 0.55 0.05 0.4
v 0.65 0.05 0.4
v -0.55 0.05 0.3
v -0.05 0.05 0.3
v 0.05 0.05 0.3
v 0.35 0.05 0.3
v -0.75 0.05 0.2
v -0.65 0.05 0.2
v -0.55 0.05 0.2
v -0.05 0.05 0.2
v 0.05 0.05 0.2
v 0.35 0.05 0.2
v 0.45 0.05 0.2
v 0.35 0.05 -0.3
v 0.45 0.05 -0.3
v 0.65 0.05 -0.3
v 0.35 0.05 -0.4
v 0.45 0.05 -0.4
v 0.55 0.05 -0.4
v 0.45 0.05 -0.5
v 0.55 0.05 -0.5
v -0.75 0.15 0.2
v -0.65 0.15 0.2
v -0.75 0.15 0
v -0.65 0.15 0
v 0.25 0.15 -0.3
v 0.35 0.15 -0.3
v 0.25 0.15 -0.4
v 0.35 0.15 -0.4
v -0.55 0.25 0.3
v -0.05 0.25 0.3
v 0.05 0.25 0.3
v 0.35 0.25 0.3
v -0.65 0.25 0.2
v -0.55 0.25 0.2
v -0.15 0.25 0.2
v -0.05 0.25 0.2
v 0.05 0.25 0.2
v 0.15 0.25 0.2
v 0.35 0.25 0.2
v 0.45 0.25 0.2
v -0.65 0.25 0.1
v -0.55 0.25 0.1
v 0.15 0.25 0.1
v 0.25 0.25 0.1
v -0.15 0.25 -0.2
v -0.05 0.25 -0.2
v 0.05 0.25 -0.2
v -0.05 0.25 -0.3
v 0.05 0.25 -0.3
v 0.25 0.25 -0.3
v 0.45 0.25 -0.3
v 0.05 0.25 -0.4
v 0.25 0.25 -0.4
v 0.45 0.25 -0.4
v -0.65 0.25 -0.6
v 0.25 0.25 -0.6
v 0.35 0.25 -0.6
v 0.45 0.25 -0.6
v -0.65 0.25 -0.7
v 0.35 0.25 -0.7
v -0.55 0.35 0.2
v -0.15 0.35 0.2
v -0.05 0.35 0.2
v 0.15 0.35 0.2
v -0.65 0.35 0.1
v -0.55 0.35 0.1
v 0.15 0.35 0.1
v 0.25 0.35 0.1
v -0.15 0.35 -0.2
v -0.05 0.35 -0.2
v 0.05 0.35 -0.2
v -0.05 0.35 -0.3
v 0.05 0.35 -0.3
v 0.25 0.35 -0.3
v 0.05 0.35 -0.4
v 0.25 0.35 -0.4
v -0.65 0.35 -0.6
v 0.25 0.35 -0.6

# faces
f 3/1/1 2/1/1 1/1/1
f 4/1/1 2/1/1 3/1/1
f 5/1/1 2/1/1 4/1/1
f 6/1/1 2/1/1 5/1/1
f 7/1/1 5/1/1 4/1/1
f 7/3/1 6/3/1 5/3/1
f 8/1/1 2/1/1 6/1/1
f 8/3/1 6/3/1 7/3/1
f 9/1/1 2/1/1 8/1/1
f 10/1/1 7/1/1 4/1/1
f 10/1/1 8/1/1 7/1/1
f 11/1/1 8/1/1 10/1/1
f 12/1/1 8/1/1 11/1/1
f 13/1/1 8/1/1 12/1/1
f 16/3/1 15/3/1 14/3/1
f 17/3/1 15/3/1 16/3/1
f 18/3/1 15/3/1 17/3/1
f 20/3/1 16/3/1 14/3/1
f 21/3/1 16/3/1 20/3/1
f 22/3/1 19/3/1 18/3/1
f 22/3/1 18/3/1 17/3/1
f 25/3/1 23/3/1 22/3/1
f 25/3/1 22/3/1 17/3/1
f 26/3/1 23/3/1 25/3/1
f 28/3/1 25/3/1 24/3/1
f 28/3/1 27/3/1 26/3/1
f 28/3/1 26/3/1 25/3/1
f 31/3/1 28/3/1 24/3/1
f 31/3/1 29/3/1 28/3/1
f 32/3/1 31/3/1 30/3/1
f 33/3/1 31/3/1 32/3/1
f 34/3/1 29/3/1 31/3/1
f 34/3/1 31/3/1 33/3/1
f 35/3/1 29/3/1 34/3/1
f 36/3/1 34/3/1 33/3/1
f 37/3/1 34/3/1 36/3/1
f 40/3/1 39/3/1 38/3/1
f 41/3/1 39/3/1 40/3/1
f 44/3/1 43/3/1 42/3/1
f 45/3/1 43/3/1 44/3/1
f 48/3/1 47/3/1 46/3/1
f 49/3/1 47/3/1 48/3/1
f 51/3/1 50/3/1 49/3/1
f 52/3/1 50/3/1 51/3/1
f 55/1/1 54/1/1 53/1/1
f 56/1/1 54/1/1 55/1/1
f 59/2/1 58/2/1 57/2/1
f 60/2/1 58/2/1 59/2/1
f 63/2/1 62/2/1 61/2/1
f 64/2/1 62/2/1 63/2/1
f 66/2/1 65/2/1 64/2/1
f 67/2/1 65/2/1 66/2/1
f 70/2/1 69/2/1 68/2/1
f 71/2/1 69/2/1 70/2/1
f 77/3/1 73/3/1 72/3/1
f 78/3/1 73/3/1 77/3/1
f 79/3/1 75/3/1 74/3/1
f 80/3/1 75/3/1 79/3/1
f 81/2/1 77/2/1 76/2/1
f 82/2/1 77/2/1 81/2/1
f 84/2/1 83/2/1 82/2/1
f 85/2/1 84/2/1 82/2/1
f 86/2/1 84/2/1 85/2/1
f 93/2/1 88/2/1 87/2/1
f 94/3/1 90/3/1 89/3/1
f 95/3/1 92/3/1 91/3/1
f 96/2/1 93/2/1 87/2/1
f 97/2/1 93/2/1 96/2/1
f 98/3/1 94/3/1 89/3/1
f 98/3/1 95/3/1 94/3/1
f 99/3/1 92/3/1 95/3/1
f 99/3/1 95/3/1 98/3/1
f 102/3/1 101/3/1 100/3/1
f 103/3/1 101/3/1 102/3/1
f 106/2/1 105/2/1 104/2/1
f 107/2/1 105/2/1 106/2/1
f 108/3/2 109/3/2 110/3/2
f 110/3/2 109/3/2 111/3/2
f 112/3/2 113/3/2 116/3/2
f 114/3/2 115/3/2 117/3/2
f 112/3/2 116/3/2 118/3/2
f 116/3/2 117/3/2 118/3/2
f 117/3/2 115/3/2 119/3/2
f 118/3/2 117/3/2 119/3/2
f 120/3/2 121/3/2 122/3/2
f 122/3/2 121/3/2 123/3/2
f 124/3/2 125/3/2 128/3/2
f 128/3/2 125/3/2 129/3/2
f 126/3/2 127/3/2 130/3/2
f 130/3/2 127/3/2 131/3/2
f 132/3/2 133/3/2 134/3/2
f 134/3/2 133/3/2 135/3/2
f 135/3/2 136/3/2 137/3/2
f 137/3/2 136/3/2 138/3/2
f 139/3/2 140/3/2 141/3/2
f 141/3/2 140/3/2 142/3/2
f 143/3/2 144/3/2 145/3/2
f 145/3/2 144/3/2 146/3/2
f 146/3/2 147/3/2 148/3/2
f 146/3/2 148/3/2 149/3/2
f 149/3/2 148/3/2 150/3/2
f 151/3/2 152/3/2 153/3/2
f 153/3/2 152/3/2 154/3/2
f 155/3/2 156/3/2 159/3/2
f 155/3/2 159/3/2 160/3/2
f 160/3/2 159/3/2 161/3/2
f 157/1/2 158/1/2 162/1/2
f 162/1/2 158/1/2 163/1/2
f 164/2/2 165/2/2 166/2/2
f 166/2/2 165/2/2 167/2/2
f 168/3/2 169/3/2 170/3/2
f 170/3/2 169/3/2 171/3/2
f 172/3/2 173/3/2 175/3/2
f 175/3/2 173/3/2 176/3/2
f 174/2/2 175/2/2 178/2/2
f 178/2/2 175/2/2 179/2/2
f 176/3/2 177/3/2 180/3/2
f 180/3/2 177/3/2 181/3/2
f 182/3/2 183/3/2 188/3/2
f 188/3/2 183/3/2 189/3/2
f 186/3/2 187/3/2 191/3/2
f 191/3/2 187/3/2 192/3/2
f 184/2/2 185/2/2 193/2/2
f 193/2/2 185/2/2 194/2/2
f 189/3/2 190/3/2 195/3/2
f 195/3/2 190/3/2 196/3/2
f 197/3/2 198/3/2 199/3/2
f 197/3/2 199/3/2 200/3/2
f 200/3/2 199/3/2 202/3/2
f 202/3/2 199/3/2 203/3/2
f 201/2/2 202/2/2 206/2/2
f 206/2/2 202/2/2 207/2/2
f 204/3/2 205/3/2 208/3/2
f 203/3/2 204/3/2 208/3/2
f 208/3/2 205/3/2 209/3/2
f 210/3/2 211/3/2 212/3/2
f 212/3/2 211/3/2 213/3/2
f 214/2/2 215/2/2 218/2/2
f 218/2/2 215/2/2 219/2/2
f 216/3/2 217/3/2 220/3/2
f 220/3/2 217/3/2 221/3/2
f 222/2/2 223/2/2 224/2/2
f 224/2/2 223/2/2 225/2/2
f 226/2/2 227/2/2 228/2/2
f 228/2/2 227/2/2 229/2/2
f 230/2/2 231/2/2 232/2/2
f 232/2/2 231/2/2 233/2/2
f 236/3/3 235/3/3 234/3/3
f 237/3/3 235/3/3 236/3/3
f 240/2/3 239/2/3 238/2/3
f 241/2/3 239/2/3 240/2/3
f 244/3/3 243/3/3 242/3/3
f 245/3/3 243/3/3 244/3/3
f 249/3/3 247/3/3 246/3/3
f 250/2/3 248/2/3 247/2/3
f 250/3/3 247/3/3 249/3/3
f 251/2/3 248/2/3 250/2/3
f 254/2/3 253/2/3 252/2/3
f 255/2/3 253/2/3 254/2/3
f 258/1/3 257/1/3 256/1/3
f 259/1/3 257/1/3 258/1/3
f 263/3/3 261/3/3 260/3/3
f 264/3/3 261/3/3 263/3/3
f 265/3/3 263/3/3 262/3/3
f 266/3/3 263/3/3 265/3/3
f 270/3/3 269/3/3 268/3/3
f 271/3/3 269/3/3 270/3/3
f 272/2/3 267/2/3 266/2/3
f 273/2/3 267/2/3 272/2/3
f 276/1/3 275/1/3 274/1/3
f 277/1/3 275/1/3 276/1/3
f 278/3/3 277/3/3 276/3/3
f 279/3/3 277/3/3 278/3/3
f 283/1/3 281/1/3 280/1/3
f 284/2/3 282/2/3 281/2/3
f 284/1/3 281/1/3 283/1/3
f 285/2/3 282/2/3 284/2/3
f 288/2/3 287/2/3 286/2/3
f 289/2/3 287/2/3 288/2/3
f 293/3/3 291/3/3 290/3/3
f 294/3/3 291/3/3 293/3/3
f 295/3/3 293/3/3 292/3/3
f 296/3/3 293/3/3 295/3/3
f 298/2/3 297/2/3 296/2/3
f 299/2/3 297/2/3 298/2/3
f 302/1/3 301/1/3 300/1/3
f 303/1/3 301/1/3 302/1/3
f 305/3/3 303/3/3 302/3/3
f 305/3/3 304/3/3 303/3/3
f 306/3/3 304/3/3 305/3/3
f 308/3/3 307/3/3 306/3/3
f 309/3/3 307/3/3 308/3/3
f 313/3/3 311/3/3 310/3/3
f 314/2/3 312/2/3 311/2/3
f 314/3/3 311/3/3 313/3/3
f 315/2/3 312/2/3 314/2/3
f 316/2/3 312/2/3 315/2/3
f 319/2/3 318/2/3 317/2/3
f 320/2/3 318/2/3 319/2/3
f 323/3/3 322/3/3 321/3/3
f 324/3/3 322/3/3 323/3/3
f 327/3/3 326/3/3 325/3/3
f 328/3/3 326/3/3 327/3/3
f 331/1/3 330/1/3 329/1/3
f 332/1/3 330/1/3 331/1/3
f 337/2/3 334/2/3 333/2/3
f 338/2/3 334/2/3 337/2/3
f 339/3/3 336/3/3 335/3/3
f 340/3/3 336/3/3 339/3/3
f 343/3/3 342/3/3 341/3/3
f 344/3/3 342/3/3 343/3/3
f 347/3/3 346/3/3 345/3/3
f 348/3/3 346/3/3 347/3/3
f 353/3/3 350/3/3 349/3/3
f 354/3/3 350/3/3 353/3/3
f 355/3/3 352/3/3 351/3/3
f 356/3/3 352/3/3 355/3/3
f 359/3/3 358/3/3 357/3/3
f 360/3/3 358/3/3 359/3/3
f 364/3/3 362/3/3 361/3/3
f 365/3/3 362/3/3 364/3/3
f 367/3/3 364/3/3 363/3/3
f 369/3/3 367/3/3 366/3/3
f 370/3/3 364/3/3 367/3/3
f 370/3/3 367/3/3 369/3/3
f 371/3/3 369/3/3 368/3/3
f 372/3/3 369/3/3 371/3/3
f 373/3/4 374/3/4 375/3/4
f 375/3/4 374/3/4 376/3/4
f 377/2/4 378/2/4 379/2/4
f 379/2/4 378/2/4 380/2/4
f 381/3/4 382/3/4 383/3/4
f 383/3/4 382/3/4 384/3/4
f 385/3/4 386/3/4 387/3/4
f 387/3/4 386/3/4 388/3/4
f 389/3/4 390/3/4 391/3/4
f 391/3/4 390/3/4 392/3/4
f 388/3/4 386/3/4 394/3/4
f 393/3/4 394/3/4 395/3/4
f 394/3/4 386/3/4 396/3/4
f 395/3/4 394/3/4 396/3/4
f 397/3/4 398/3/4 399/3/4
f 399/3/4 398/3/4 400/3/4
f 401/3/4 402/3/4 403/3/4
f 403/3/4 402/3/4 404/3/4
f 405/1/4 406/1/4 407/1/4
f 407/1/4 406/1/4 408/1/4
f 409/1/4 410/1/4 411/1/4
f 411/1/4 410/1/4 412/1/4
f 413/1/4 414/1/4 415/1/4
f 415/1/4 414/1/4 416/1/4
f 417/2/4 418/2/4 419/2/4
f 419/2/4 418/2/4 420/2/4
f 423/2/4 424/2/4 426/2/4
f 426/2/4 424/2/4 427/2/4
f 425/2/4 426/2/4 429/2/4
f 421/3/4 422/3/4 430/3/4
f 428/2/4 429/2/4 432/2/4
f 429/2/4 426/2/4 433/2/4
f 432/2/4 429/2/4 433/2/4
f 430/3/4 431/3/4 434/3/4
f 421/3/4 430/3/4 434/3/4
f 434/3/4 431/3/4 435/3/4
f 431/2/4 432/2/4 436/2/4
f 435/3/4 431/3/4 436/3/4
f 435/2/4 436/2/4 438/2/4
f 438/2/4 436/2/4 439/2/4
f 436/2/4 432/2/4 440/2/4
f 439/2/4 436/2/4 440/2/4
f 438/2/4 439/2/4 441/2/4
f 437/2/4 438/2/4 441/2/4
f 441/2/4 439/2/4 442/2/4
f 443/3/4 444/3/4 445/3/4
f 445/3/4 444/3/4 446/3/4
f 447/3/4 448/3/4 449/3/4
f 449/3/4 450/3/4 451/3/4
f 447/3/4 449/3/4 452/3/4
f 449/3/4 451/3/4 452/3/4
f 452/3/4 451/3/4 453/3/4
f 456/3/4 457/3/4 458/3/4
f 458/3/4 457/3/4 459/3/4
f 454/3/4 455/3/4 460/3/4
f 460/3/4 455/3/4 461/3/4
f 461/3/4 462/3/4 463/3/4
f 463/3/4 462/3/4 464/3/4
f 465/3/4 466/3/4 467/3/4
f 467/3/4 466/3/4 468/3/4
f 474/3/5 470/3/5 469/3/5
f 475/3/5 470/3/5 474/3/5
f 476/2/5 472/2/5 471/2/5
f 477/2/5 472/2/5 476/2/5
f 479/3/5 475/3/5 474/3/5
f 479/3/5 474/3/5 473/3/5
f 479/3/5 476/3/5 475/3/5
f 480/3/5 476/3/5 479/3/5
f 481/3/5 476/3/5 480/3/5
f 483/3/5 479/3/5 473/3/5
f 484/3/5 479/3/5 483/3/5
f 485/3/5 482/3/5 481/3/5
f 485/3/5 481/3/5 480/3/5
f 486/3/5 482/3/5 485/3/5
f 487/3/5 483/3/5 473/3/5
f 488/3/5 483/3/5 487/3/5
f 489/3/5 482/3/5 486/3/5
f 490/3/5 482/3/5 489/3/5
f 491/3/5 487/3/5 473/3/5
f 496/3/5 482/3/5 490/3/5
f 497/3/5 492/3/5 491/3/5
f 498/1/5 494/1/5 493/1/5
f 499/1/5 494/1/5 498/1/5
f 500/3/5 496/3/5 495/3/5
f 501/1/5 499/1/5 498/1/5
f 501/3/5 498/3/5 497/3/5
f 502/3/5 500/3/5 499/3/5
f 502/1/5 499/1/5 501/1/5
f 503/3/5 501/3/5 497/3/5
f 504/3/5 500/3/5 502/3/5
f 505/3/5 497/3/5 491/3/5
f 505/3/5 504/3/5 503/3/5
f 505/3/5 491/3/5 473/3/5
f 505/3/5 503/3/5 497/3/5
f 506/3/5 500/3/5 504/3/5
f 506/3/5 504/3/5 505/3/5
f 506/3/5 482/3/5 496/3/5
f 506/3/5 496/3/5 500/3/5
f 507/2/5 478/2/5 477/2/5
f 508/2/5 478/2/5 507/2/5
f 515/2/5 510/2/5 509/2/5
f 516/2/5 510/2/5 515/2/5
f 517/3/5 514/3/5 513/3/5
f 518/3/5 514/3/5 517/3/5
f 523/3/5 520/3/5 519/3/5
f 524/3/5 520/3/5 523/3/5
f 525/3/5 522/3/5 521/3/5
f 526/3/5 522/3/5 525/3/5
f 527/1/5 512/1/5 511/1/5
f 528/1/5 512/1/5 527/1/5
f 531/3/5 530/3/5 529/3/5
f 532/3/5 530/3/5 531/3/5
f 535/2/5 510/2/5 516/2/5
f 536/2/5 510/2/5 535/2/5
f 537/3/5 534/3/5 533/3/5
f 538/3/5 534/3/5 537/3/5
f 541/1/5 540/1/5 539/1/5
f 542/1/5 540/1/5 541/1/5
f 543/1/5 541/1/5 539/1/5
f 544/1/5 541/1/5 543/1/5
f 545/1/5 540/1/5 542/1/5
f 546/1/5 540/1/5 545/1/5
f 550/3/5 548/3/5 547/3/5
f 550/3/5 549/3/5 548/3/5
f 551/3/5 549/3/5 550/3/5
f 554/3/5 553/3/5 552/3/5
f 555/3/5 553/3/5 554/3/5
f 559/3/5 557/3/5 556/3/5
f 560/3/5 557/3/5 559/3/5
f 561/3/5 559/3/5 558/3/5
f 562/3/5 559/3/5 561/3/5
f 563/3/6 564/3/6 565/3/6
f 565/3/6 564/3/6 566/3/6
f 567/3/6 568/3/6 572/3/6
f 572/3/6 568/3/6 573/3/6
f 573/3/6 568/3/6 574/3/6
f 569/2/6 570/2/6 575/2/6
f 575/2/6 570/2/6 576/2/6
f 571/3/6 572/3/6 579/3/6
f 572/3/6 573/3/6 579/3/6
f 579/3/6 573/3/6 580/3/6
f 580/3/6 573/3/6 581/3/6
f 576/2/6 577/2/6 582/2/6
f 575/2/6 576/2/6 582/2/6
f 574/2/6 575/2/6 582/2/6
f 582/2/6 577/2/6 583/2/6
f 578/1/6 579/1/6 584/1/6
f 579/3/6 580/3/6 585/3/6
f 584/1/6 579/1/6 585/1/6
f 585/3/6 580/3/6 586/3/6
f 581/3/6 582/3/6 587/3/6
f 587/3/6 582/3/6 588/3/6
f 583/2/6 577/2/6 589/2/6
f 589/2/6 577/2/6 590/2/6
f 590/2/6 577/2/6 591/2/6
f 591/2/6 577/2/6 592/2/6
f 593/1/6 594/1/6 595/1/6
f 595/1/6 594/1/6 596/1/6
f 597/1/6 598/1/6 599/1/6
f 599/1/6 598/1/6 600/1/6
f 601/3/6 602/3/6 607/3/6
f 607/3/6 602/3/6 608/3/6
f 608/3/6 602/3/6 609/3/6
f 603/2/6 604/2/6 610/2/6
f 610/2/6 604/2/6 611/2/6
f 606/3/6 607/3/6 613/3/6
f 607/3/6 608/3/6 613/3/6
f 613/3/6 608/3/6 614/3/6
f 611/2/6 612/2/6 615/2/6
f 610/2/6 611/2/6 615/2/6
f 609/2/6 610/2/6 615/2/6
f 615/2/6 612/2/6 616/2/6
f 605/1/6 606/1/6 617/1/6
f 606/3/6 613/3/6 618/3/6
f 617/1/6 606/1/6 618/1/6
f 618/3/6 613/3/6 619/3/6
f 614/3/6 615/3/6 620/3/6
f 620/3/6 615/3/6 621/3/6
f 616/2/6 612/2/6 622/2/6
f 622/2/6 612/2/6 623/2/6
f 623/2/6 612/2/6 625/2/6
f 625/2/6 612/2/6 626/2/6
f 624/3/6 625/3/6 627/3/6
f 627/3/6 625/3/6 628/3/6
f 628/3/6 629/3/6 630/3/6
f 630/3/6 629/3/6 631/3/6
f 632/1/6 633/1/6 634/1/6
f 634/1/6 633/1/6 635/1/6
f 636/3/6 637/3/6 638/3/6
f 638/3/6 637/3/6 639/3/6
f 640/3/6 641/3/6 645/3/6
f 645/3/6 641/3/6 646/3/6
f 646/3/6 641/3/6 647/3/6
f 642/2/6 643/2/6 648/2/6
f 648/2/6 643/2/6 649/2/6
f 649/2/6 643/2/6 650/2/6
f 644/3/6 645/3/6 652/3/6
f 652/3/6 645/3/6 653/3/6
f 650/2/6 651/2/6 654/2/6
f 649/2/6 650/2/6 654/2/6
f 654/2/6 651/2/6 655/2/6
f 646/3/6 647/3/6 656/3/6
f 656/3/6 647/3/6 657/3/6
f 657/3/6 658/3/6 659/3/6
f 659/3/6 658/3/6 660/3/6
f 655/2/6 651/2/6 661/2/6
f 661/2/6 651/2/6 662/2/6
f 660/3/6 661/3/6 663/3/6
f 663/3/6 661/3/6 664/3/6
f 664/3/6 665/3/6 667/3/6
f 667/3/6 665/3/6 668/3/6
f 668/3/6 665/3/6 669/3/6
f 666/3/6 667/3/6 670/3/6
f 667/3/6 668/3/6 670/3/6
f 670/3/6 668/3/6 671/3/6
f 672/3/6 673/3/6 677/3/6
f 674/2/6 675/2/6 678/2/6
f 676/3/6 677/3/6 680/3/6
f 677/3/6 673/3/6 680/3/6
f 678/2/6 679/2/6 681/2/6
f 674/2/6 678/2/6 681/2/6
f 681/2/6 679/2/6 682/2/6
f 680/3/6 681/3/6 683/3/6
f 682/2/6 679/2/6 684/2/6
f 684/2/6 679/2/6 685/2/6
f 683/3/6 684/3/6 686/3/6
f 676/3/6 680/3/6 688/3/6
f 686/3/6 687/3/6 688/3/6
f 683/3/6 686/3/6 688/3/6
f 680/3/6 683/3/6 688/3/6
f 688/3/6 687/3/6 689/3/6
