# MagicaVoxel @ Ephtracy

# group
o 

# material
mtllib Arm-11.mtl
usemtl palette

# normals
vn -1 0 0
vn 1 0 0
vn 0 0 1
vn 0 0 -1
vn 0 -1 0
vn 0 1 0

# texcoords
vt 0.705078 0.5
vt 0.939453 0.5
vt 0.943359 0.5

# verts
v -0.2 -0.2 0.2
v -0.2 -0.2 -0.2
v -0.2 -0.1 0.3
v -0.2 -0.1 0.2
v -0.2 -0.1 -0.2
v -0.2 -0.1 -0.3
v -0.2 0.1 0.3
v -0.2 0.1 0
v -0.2 0.2 0
v -0.2 0.2 -0.3
v -0.2 0.3 0
v -0.2 0.3 -0.1
v -0.2 0.4 0.3
v -0.2 0.4 0
v -0.2 0.4 -0.1
v -0.2 0.4 -0.3
v -0.2 0.5 0
v -0.2 0.5 -0.1
v -0.1 -0.6 0.1
v -0.1 -0.6 -0.1
v -0.1 -0.2 0.3
v -0.1 -0.2 0.2
v -0.1 -0.2 0.1
v -0.1 -0.2 -0.1
v -0.1 -0.2 -0.2
v -0.1 -0.2 -0.3
v -0.1 -0.1 0.3
v -0.1 -0.1 0.2
v -0.1 -0.1 -0.2
v -0.1 -0.1 -0.3
v -0.1 0.5 0
v -0.1 0.5 -0.1
v -0.1 0.6 0
v -0.1 0.6 -0.1
v 0 0.4 0.3
v 0 0.4 0
v 0 0.4 -0.1
v 0 0.4 -0.3
v 0 0.5 0.3
v 0 0.5 0
v 0 0.5 -0.1
v 0 0.5 -0.3
v 0.1 0.3 0
v 0.1 0.3 -0.1
v 0.1 0.4 0
v 0.1 0.4 -0.1
v 0.1 0.5 0.2
v 0.1 0.5 0
v 0.1 0.5 -0.1
v 0.1 0.5 -0.2
v 0.1 0.6 0.2
v 0.1 0.6 -0.2
v 0 0.3 0
v 0 0.3 -0.1
v 0 0.4 0
v 0 0.4 -0.1
v 0 0.5 0
v 0 0.5 -0.1
v 0 0.6 0
v 0 0.6 -0.1
v 0.1 -0.6 0.1
v 0.1 -0.6 -0.1
v 0.1 -0.2 0.3
v 0.1 -0.2 0.2
v 0.1 -0.2 0.1
v 0.1 -0.2 -0.1
v 0.1 -0.2 -0.2
v 0.1 -0.2 -0.3
v 0.1 -0.1 -0.2
v 0.1 -0.1 -0.3
v 0.1 0.2 0.3
v 0.1 0.2 0.2
v 0.1 0.4 -0.2
v 0.1 0.4 -0.3
v 0.1 0.5 0.3
v 0.1 0.5 0.2
v 0.1 0.5 -0.2
v 0.1 0.5 -0.3
v 0.2 -0.2 0.2
v 0.2 -0.2 -0.2
v 0.2 -0.1 -0.2
v 0.2 -0.1 -0.3
v 0.2 0.1 -0.1
v 0.2 0.1 -0.3
v 0.2 0.2 0.2
v 0.2 0.2 -0.1
v 0.2 0.4 -0.2
v 0.2 0.4 -0.3
v 0.2 0.6 0.2
v 0.2 0.6 -0.2
v -0.2 -0.1 0.3
v -0.2 0.1 0.3
v -0.2 0.4 0.3
v -0.1 -0.2 0.3
v -0.1 -0.1 0.3
v -0.1 0.1 0.3
v -0.1 0.2 0.3
v 0 0.4 0.3
v 0 0.5 0.3
v 0.1 -0.2 0.3
v 0.1 0.2 0.3
v 0.1 0.5 0.3
v -0.2 -0.2 0.2
v -0.2 -0.1 0.2
v -0.1 -0.2 0.2
v -0.1 -0.1 0.2
v 0.1 -0.2 0.2
v 0.1 0.2 0.2
v 0.1 0.5 0.2
v 0.1 0.6 0.2
v 0.2 -0.2 0.2
v 0.2 0.2 0.2
v 0.2 0.6 0.2
v -0.1 -0.6 0.1
v -0.1 -0.2 0.1
v 0.1 -0.6 0.1
v 0.1 -0.2 0.1
v -0.2 0.4 0
v -0.2 0.5 0
v -0.1 0.5 0
v -0.1 0.6 0
v 0 0.4 0
v 0 0.5 0
v 0 0.6 0
v 0 0.3 -0.1
v 0 0.4 -0.1
v 0.1 0.3 -0.1
v 0.1 0.4 -0.1
v 0 0.3 0
v 0 0.4 0
v 0.1 0.3 0
v 0.1 0.4 0
v -0.2 0.4 -0.1
v -0.2 0.5 -0.1
v -0.1 -0.6 -0.1
v -0.1 -0.2 -0.1
v -0.1 0.5 -0.1
v -0.1 0.6 -0.1
v 0 0.4 -0.1
v 0 0.5 -0.1
v 0 0.6 -0.1
v 0.1 -0.6 -0.1
v 0.1 -0.2 -0.1
v -0.2 -0.2 -0.2
v -0.2 -0.1 -0.2
v -0.1 -0.2 -0.2
v -0.1 -0.1 -0.2
v 0.1 -0.2 -0.2
v 0.1 -0.1 -0.2
v 0.1 0.4 -0.2
v 0.1 0.5 -0.2
v 0.1 0.6 -0.2
v 0.2 -0.2 -0.2
v 0.2 -0.1 -0.2
v 0.2 0.4 -0.2
v 0.2 0.6 -0.2
v -0.2 -0.1 -0.3
v -0.2 0.2 -0.3
v -0.2 0.4 -0.3
v -0.1 -0.2 -0.3
v -0.1 -0.1 -0.3
v 0 0.1 -0.3
v 0 0.2 -0.3
v 0 0.4 -0.3
v 0 0.5 -0.3
v 0.1 -0.2 -0.3
v 0.1 -0.1 -0.3
v 0.1 0.4 -0.3
v 0.1 0.5 -0.3
v 0.2 -0.1 -0.3
v 0.2 0.1 -0.3
v 0.2 0.4 -0.3
v -0.1 -0.6 0.1
v 0.1 -0.6 0.1
v -0.1 -0.6 -0.1
v 0.1 -0.6 -0.1
v -0.1 -0.2 0.3
v 0.1 -0.2 0.3
v -0.2 -0.2 0.2
v -0.1 -0.2 0.2
v 0.1 -0.2 0.2
v 0.2 -0.2 0.2
v -0.1 -0.2 0.1
v 0.1 -0.2 0.1
v -0.1 -0.2 -0.1
v 0.1 -0.2 -0.1
v -0.2 -0.2 -0.2
v -0.1 -0.2 -0.2
v 0.1 -0.2 -0.2
v 0.2 -0.2 -0.2
v -0.1 -0.2 -0.3
v 0.1 -0.2 -0.3
v -0.2 -0.1 0.3
v -0.1 -0.1 0.3
v -0.2 -0.1 0.2
v -0.1 -0.1 0.2
v -0.2 -0.1 -0.2
v -0.1 -0.1 -0.2
v 0.1 -0.1 -0.2
v 0.2 -0.1 -0.2
v -0.2 -0.1 -0.3
v -0.1 -0.1 -0.3
v 0.1 -0.1 -0.3
v 0.2 -0.1 -0.3
v 0 0.4 0
v 0.1 0.4 0
v 0 0.4 -0.1
v 0.1 0.4 -0.1
v 0 0.3 0
v 0.1 0.3 0
v 0 0.3 -0.1
v 0.1 0.3 -0.1
v -0.2 0.4 0.3
v 0 0.4 0.3
v -0.2 0.4 0
v 0 0.4 0
v -0.2 0.4 -0.1
v 0 0.4 -0.1
v 0.1 0.4 -0.2
v 0.2 0.4 -0.2
v -0.2 0.4 -0.3
v 0 0.4 -0.3
v 0.1 0.4 -0.3
v 0.2 0.4 -0.3
v 0 0.5 0.3
v 0.1 0.5 0.3
v 0.1 0.5 0.2
v -0.2 0.5 0
v -0.1 0.5 0
v 0 0.5 0
v 0.1 0.5 0
v -0.2 0.5 -0.1
v -0.1 0.5 -0.1
v 0 0.5 -0.1
v 0.1 0.5 -0.1
v 0.1 0.5 -0.2
v 0 0.5 -0.3
v 0.1 0.5 -0.3
v 0.1 0.6 0.2
v 0.2 0.6 0.2
v -0.1 0.6 0
v 0 0.6 0
v -0.1 0.6 -0.1
v 0 0.6 -0.1
v 0.1 0.6 -0.2
v 0.2 0.6 -0.2

# faces
f 4/3/1 2/3/1 1/3/1
f 5/3/1 2/3/1 4/3/1
f 7/3/1 4/3/1 3/3/1
f 7/3/1 6/3/1 5/3/1
f 7/3/1 5/3/1 4/3/1
f 8/3/1 6/3/1 7/3/1
f 9/2/1 8/2/1 7/2/1
f 9/3/1 6/3/1 8/3/1
f 10/3/1 6/3/1 9/3/1
f 11/2/1 9/2/1 7/2/1
f 11/2/1 10/2/1 9/2/1
f 12/2/1 10/2/1 11/2/1
f 13/2/1 11/2/1 7/2/1
f 14/1/1 12/1/1 11/1/1
f 14/2/1 11/2/1 13/2/1
f 15/2/1 10/2/1 12/2/1
f 15/1/1 12/1/1 14/1/1
f 16/2/1 10/2/1 15/2/1
f 17/1/1 15/1/1 14/1/1
f 18/1/1 15/1/1 17/1/1
f 23/1/1 20/1/1 19/1/1
f 24/1/1 20/1/1 23/1/1
f 27/3/1 22/3/1 21/3/1
f 28/3/1 22/3/1 27/3/1
f 29/3/1 26/3/1 25/3/1
f 30/3/1 26/3/1 29/3/1
f 33/1/1 32/1/1 31/1/1
f 34/1/1 32/1/1 33/1/1
f 39/2/1 36/2/1 35/2/1
f 40/2/1 36/2/1 39/2/1
f 41/2/1 38/2/1 37/2/1
f 42/2/1 38/2/1 41/2/1
f 45/2/1 44/2/1 43/2/1
f 46/2/1 44/2/1 45/2/1
f 51/2/1 49/2/1 48/2/1
f 51/2/1 50/2/1 49/2/1
f 51/2/1 48/2/1 47/2/1
f 52/2/1 50/2/1 51/2/1
f 53/1/2 54/1/2 55/1/2
f 55/1/2 54/1/2 56/1/2
f 57/1/2 58/1/2 59/1/2
f 59/1/2 58/1/2 60/1/2
f 61/1/2 62/1/2 65/1/2
f 65/1/2 62/1/2 66/1/2
f 67/3/2 68/3/2 69/3/2
f 69/3/2 68/3/2 70/3/2
f 63/3/2 64/3/2 71/3/2
f 71/3/2 64/3/2 72/3/2
f 71/2/2 72/2/2 75/2/2
f 75/2/2 72/2/2 76/2/2
f 73/2/2 74/2/2 77/2/2
f 77/2/2 74/2/2 78/2/2
f 79/3/2 80/3/2 81/3/2
f 79/3/2 81/3/2 83/3/2
f 81/3/2 82/3/2 83/3/2
f 83/3/2 82/3/2 84/3/2
f 79/3/2 83/3/2 85/3/2
f 83/2/2 84/2/2 86/2/2
f 85/3/2 83/3/2 86/3/2
f 85/2/2 86/2/2 87/2/2
f 86/2/2 84/2/2 87/2/2
f 87/2/2 84/2/2 88/2/2
f 85/2/2 87/2/2 89/2/2
f 89/2/2 87/2/2 90/2/2
f 95/3/3 92/3/3 91/3/3
f 96/2/3 93/2/3 92/2/3
f 96/3/3 92/3/3 95/3/3
f 97/2/3 93/2/3 96/2/3
f 98/2/3 93/2/3 97/2/3
f 100/3/3 95/3/3 94/3/3
f 100/3/3 96/3/3 95/3/3
f 100/3/3 97/3/3 96/3/3
f 101/2/3 99/2/3 98/2/3
f 101/3/3 97/3/3 100/3/3
f 101/2/3 98/2/3 97/2/3
f 102/2/3 99/2/3 101/2/3
f 105/3/3 104/3/3 103/3/3
f 106/3/3 104/3/3 105/3/3
f 111/3/3 108/3/3 107/3/3
f 112/2/3 110/2/3 109/2/3
f 112/3/3 108/3/3 111/3/3
f 112/2/3 109/2/3 108/2/3
f 113/2/3 110/2/3 112/2/3
f 116/1/3 115/1/3 114/1/3
f 117/1/3 115/1/3 116/1/3
f 120/1/3 119/1/3 118/1/3
f 122/1/3 120/1/3 118/1/3
f 122/1/3 121/1/3 120/1/3
f 123/1/3 121/1/3 122/1/3
f 124/1/3 121/1/3 123/1/3
f 127/3/3 126/3/3 125/3/3
f 128/3/3 126/3/3 127/3/3
f 129/3/4 130/3/4 131/3/4
f 131/3/4 130/3/4 132/3/4
f 133/1/4 134/1/4 137/1/4
f 133/1/4 137/1/4 139/1/4
f 137/1/4 138/1/4 139/1/4
f 139/1/4 138/1/4 140/1/4
f 140/1/4 138/1/4 141/1/4
f 135/1/4 136/1/4 142/1/4
f 142/1/4 136/1/4 143/1/4
f 144/3/4 145/3/4 146/3/4
f 146/3/4 145/3/4 147/3/4
f 148/3/4 149/3/4 153/3/4
f 153/3/4 149/3/4 154/3/4
f 151/2/4 152/2/4 155/2/4
f 150/2/4 151/2/4 155/2/4
f 155/2/4 152/2/4 156/2/4
f 157/3/4 158/3/4 161/3/4
f 161/3/4 158/3/4 162/3/4
f 160/3/4 161/3/4 162/3/4
f 158/2/4 159/2/4 163/2/4
f 162/3/4 158/3/4 163/3/4
f 163/2/4 159/2/4 164/2/4
f 160/3/4 162/3/4 166/3/4
f 166/3/4 162/3/4 167/3/4
f 164/2/4 165/2/4 168/2/4
f 162/2/4 163/2/4 168/2/4
f 163/2/4 164/2/4 168/2/4
f 168/2/4 165/2/4 169/2/4
f 167/3/4 162/3/4 170/3/4
f 162/2/4 168/2/4 171/2/4
f 170/3/4 162/3/4 171/3/4
f 171/2/4 168/2/4 172/2/4
f 175/1/5 174/1/5 173/1/5
f 176/1/5 174/1/5 175/1/5
f 180/3/5 178/3/5 177/3/5
f 181/3/5 178/3/5 180/3/5
f 183/3/5 180/3/5 179/3/5
f 183/3/5 182/3/5 181/3/5
f 183/3/5 181/3/5 180/3/5
f 184/3/5 182/3/5 183/3/5
f 185/3/5 183/3/5 179/3/5
f 186/3/5 182/3/5 184/3/5
f 187/3/5 185/3/5 179/3/5
f 187/3/5 186/3/5 185/3/5
f 188/3/5 186/3/5 187/3/5
f 189/3/5 182/3/5 186/3/5
f 189/3/5 186/3/5 188/3/5
f 190/3/5 182/3/5 189/3/5
f 191/3/5 189/3/5 188/3/5
f 192/3/5 189/3/5 191/3/5
f 195/3/5 194/3/5 193/3/5
f 196/3/5 194/3/5 195/3/5
f 201/3/5 198/3/5 197/3/5
f 202/3/5 198/3/5 201/3/5
f 203/3/5 200/3/5 199/3/5
f 204/3/5 200/3/5 203/3/5
f 207/1/5 206/1/5 205/1/5
f 208/1/5 206/1/5 207/1/5
f 209/3/6 210/3/6 211/3/6
f 211/3/6 210/3/6 212/3/6
f 213/2/6 214/2/6 215/2/6
f 215/2/6 214/2/6 216/2/6
f 217/2/6 218/2/6 221/2/6
f 221/2/6 218/2/6 222/2/6
f 219/2/6 220/2/6 223/2/6
f 223/2/6 220/2/6 224/2/6
f 225/2/6 226/2/6 227/2/6
f 225/2/6 227/2/6 230/2/6
f 230/2/6 227/2/6 231/2/6
f 228/1/6 229/1/6 232/1/6
f 232/1/6 229/1/6 233/1/6
f 230/1/6 231/1/6 234/1/6
f 234/1/6 231/1/6 235/1/6
f 234/2/6 235/2/6 236/2/6
f 234/2/6 236/2/6 237/2/6
f 237/2/6 236/2/6 238/2/6
f 241/1/6 242/1/6 243/1/6
f 243/1/6 242/1/6 244/1/6
f 239/2/6 240/2/6 245/2/6
f 245/2/6 240/2/6 246/2/6
