# MagicaVoxel @ Ephtracy

# group
o 

# material
mtllib Brune-0.mtl
usemtl palette

# normals
vn -1 0 0
vn 1 0 0
vn 0 0 1
vn 0 0 -1
vn 0 -1 0
vn 0 1 0

# texcoords
vt 0.474609 0.5
vt 0.478516 0.5
vt 0.482422 0.5
vt 0.853516 0.5
vt 0.939453 0.5
vt 0.947266 0.5

# verts
v -0.5 7.4 0.2
v -0.5 7.4 -0.1
v -0.5 7.5 -0.1
v -0.5 7.5 -0.4
v -0.5 8.3 0.2
v -0.5 8.3 -0.4
v -0.4 7.3 0.3
v -0.4 7.3 0.2
v -0.4 7.4 0.2
v -0.4 7.5 -0.4
v -0.4 7.5 -0.5
v -0.4 8.3 0.2
v -0.4 8.3 -0.4
v -0.4 8.4 -0.4
v -0.4 8.4 -0.5
v -0.4 8.5 0.3
v -0.4 8.5 -0.4
v -0.3 7.6 0.1
v -0.3 7.6 0
v -0.3 7.6 -0.2
v -0.3 7.7 0.2
v -0.3 7.7 0.1
v -0.3 7.7 0
v -0.3 7.7 -0.2
v -0.3 7.8 0.2
v -0.3 7.8 0.1
v -0.3 8.1 0.4
v -0.3 8.1 0.3
v -0.3 8.2 0.4
v -0.3 8.2 0.3
v -0.3 8.3 0.4
v -0.3 8.3 0.3
v -0.3 8.4 -0.4
v -0.3 8.4 -0.5
v -0.3 8.5 0.4
v -0.3 8.5 0.3
v -0.3 8.5 -0.4
v -0.3 8.5 -0.5
v -0.3 8.6 0.3
v -0.3 8.6 -0.4
v -0.2 7.3 -0.1
v -0.2 7.3 -0.3
v -0.2 7.5 -0.1
v -0.2 7.5 -0.3
v -0.2 7.6 0.3
v -0.2 7.6 0.1
v -0.2 7.6 -0.1
v -0.2 7.6 -0.2
v -0.2 7.6 -0.3
v -0.2 7.6 -0.5
v -0.2 7.6 -0.6
v -0.2 7.7 0.2
v -0.2 7.7 0.1
v -0.2 7.8 0.3
v -0.2 7.8 0.2
v -0.2 7.8 -0.2
v -0.2 7.8 -0.3
v -0.2 8.4 -0.5
v -0.2 8.4 -0.6
v -0.1 7.3 0
v -0.1 7.3 -0.1
v -0.1 7.3 -0.3
v -0.1 7.3 -0.4
v -0.1 7.4 0
v -0.1 7.4 -0.1
v -0.1 7.5 0.3
v -0.1 7.5 0.1
v -0.1 7.5 0
v -0.1 7.5 -0.1
v -0.1 7.5 -0.3
v -0.1 7.5 -0.4
v -0.1 7.6 0.3
v -0.1 7.6 0.1
v -0.1 7.6 0
v -0.1 7.6 -0.1
v -0.1 7.7 -0.3
v -0.1 7.7 -0.4
v -0.1 7.8 -0.3
v -0.1 7.8 -0.4
v 0.2 7.6 -0.3
v 0.2 7.6 -0.4
v 0.2 7.8 -0.3
v 0.2 7.8 -0.4
v 0.3 7.3 0.3
v 0.3 7.3 0.2
v 0.3 7.7 0.2
v 0.3 7.8 0.3
v 0.3 7.8 0.2
v 0.4 7.4 0.2
v 0.4 7.4 -0.1
v 0.4 7.5 -0.1
v 0.4 7.5 -0.4
v 0.4 7.6 -0.3
v 0.4 7.6 -0.4
v 0.4 7.7 0.1
v 0.4 7.7 -0.2
v 0.4 7.8 0.2
v 0.4 7.8 0.1
v 0.4 7.8 -0.2
v 0.4 7.8 -0.3
v -0.4 7.4 0.2
v -0.4 7.4 -0.1
v -0.4 7.5 -0.1
v -0.4 7.5 -0.4
v -0.4 7.6 -0.3
v -0.4 7.6 -0.4
v -0.4 7.7 0.1
v -0.4 7.7 -0.2
v -0.4 7.8 0.2
v -0.4 7.8 0.1
v -0.4 7.8 -0.2
v -0.4 7.8 -0.3
v -0.3 7.3 0.3
v -0.3 7.3 0.2
v -0.3 7.7 0.2
v -0.3 7.8 0.3
v -0.3 7.8 0.2
v -0.2 7.6 -0.3
v -0.2 7.6 -0.4
v -0.2 7.8 -0.3
v -0.2 7.8 -0.4
v 0.1 7.3 0
v 0.1 7.3 -0.1
v 0.1 7.3 -0.3
v 0.1 7.3 -0.4
v 0.1 7.4 0
v 0.1 7.4 -0.1
v 0.1 7.5 0.3
v 0.1 7.5 0.1
v 0.1 7.5 0
v 0.1 7.5 -0.1
v 0.1 7.5 -0.3
v 0.1 7.5 -0.4
v 0.1 7.6 0.3
v 0.1 7.6 0.1
v 0.1 7.6 0
v 0.1 7.6 -0.1
v 0.1 7.7 -0.3
v 0.1 7.7 -0.4
v 0.1 7.8 -0.3
v 0.1 7.8 -0.4
v 0.2 7.3 -0.1
v 0.2 7.3 -0.3
v 0.2 7.5 -0.1
v 0.2 7.5 -0.3
v 0.2 7.6 0.3
v 0.2 7.6 0.1
v 0.2 7.6 -0.1
v 0.2 7.6 -0.2
v 0.2 7.6 -0.3
v 0.2 7.6 -0.5
v 0.2 7.6 -0.6
v 0.2 7.7 0.2
v 0.2 7.7 0.1
v 0.2 7.8 0.3
v 0.2 7.8 0.2
v 0.2 7.8 -0.2
v 0.2 7.8 -0.3
v 0.2 8.4 -0.5
v 0.2 8.4 -0.6
v 0.3 7.6 0.1
v 0.3 7.6 0
v 0.3 7.6 -0.2
v 0.3 7.7 0.2
v 0.3 7.7 0.1
v 0.3 7.7 0
v 0.3 7.7 -0.2
v 0.3 7.8 0.2
v 0.3 7.8 0.1
v 0.3 8.1 0.4
v 0.3 8.1 0.3
v 0.3 8.2 0.4
v 0.3 8.2 0.3
v 0.3 8.3 0.4
v 0.3 8.3 0.3
v 0.3 8.4 -0.4
v 0.3 8.4 -0.5
v 0.3 8.5 0.4
v 0.3 8.5 0.3
v 0.3 8.5 -0.4
v 0.3 8.5 -0.5
v 0.3 8.6 0.3
v 0.3 8.6 -0.4
v 0.4 7.3 0.3
v 0.4 7.3 0.2
v 0.4 7.4 0.2
v 0.4 7.5 -0.4
v 0.4 7.5 -0.5
v 0.4 8.3 0.2
v 0.4 8.3 -0.4
v 0.4 8.4 -0.4
v 0.4 8.4 -0.5
v 0.4 8.5 0.3
v 0.4 8.5 -0.4
v 0.5 7.4 0.2
v 0.5 7.4 -0.1
v 0.5 7.5 -0.1
v 0.5 7.5 -0.4
v 0.5 8.3 0.2
v 0.5 8.3 -0.4
v -0.3 8.1 0.4
v -0.3 8.2 0.4
v -0.3 8.3 0.4
v -0.3 8.5 0.4
v 0.3 8.1 0.4
v 0.3 8.2 0.4
v 0.3 8.3 0.4
v 0.3 8.5 0.4
v -0.4 7.3 0.3
v -0.4 8.5 0.3
v -0.3 7.3 0.3
v -0.3 7.8 0.3
v -0.3 7.9 0.3
v -0.3 8 0.3
v -0.3 8.1 0.3
v -0.3 8.2 0.3
v -0.3 8.3 0.3
v -0.3 8.5 0.3
v -0.3 8.6 0.3
v -0.2 7.6 0.3
v -0.2 7.8 0.3
v -0.2 7.9 0.3
v -0.1 7.5 0.3
v -0.1 7.6 0.3
v -0.1 7.7 0.3
v -0.1 7.8 0.3
v 0.1 7.5 0.3
v 0.1 7.6 0.3
v 0.1 7.7 0.3
v 0.1 7.8 0.3
v 0.2 7.6 0.3
v 0.2 7.8 0.3
v 0.2 7.9 0.3
v 0.3 7.3 0.3
v 0.3 7.8 0.3
v 0.3 7.9 0.3
v 0.3 8 0.3
v 0.3 8.1 0.3
v 0.3 8.2 0.3
v 0.3 8.3 0.3
v 0.3 8.5 0.3
v 0.3 8.6 0.3
v 0.4 7.3 0.3
v 0.4 8.5 0.3
v -0.5 7.4 0.2
v -0.5 8.3 0.2
v -0.4 7.4 0.2
v -0.4 8.3 0.2
v -0.3 7.7 0.2
v -0.3 7.8 0.2
v -0.2 7.7 0.2
v -0.2 7.8 0.2
v 0.2 7.7 0.2
v 0.2 7.8 0.2
v 0.3 7.7 0.2
v 0.3 7.8 0.2
v 0.4 7.4 0.2
v 0.4 8.3 0.2
v 0.5 7.4 0.2
v 0.5 8.3 0.2
v -0.4 7.7 0.1
v -0.4 7.8 0.1
v -0.3 7.6 0.1
v -0.3 7.7 0.1
v -0.3 7.8 0.1
v -0.2 7.6 0.1
v -0.2 7.7 0.1
v 0.2 7.6 0.1
v 0.2 7.7 0.1
v 0.3 7.6 0.1
v 0.3 7.7 0.1
v 0.3 7.8 0.1
v 0.4 7.7 0.1
v 0.4 7.8 0.1
v -0.1 7.3 0
v -0.1 7.4 0
v -0.1 7.5 0
v -0.1 7.6 0
v 0.1 7.3 0
v 0.1 7.4 0
v 0.1 7.5 0
v 0.1 7.6 0
v -0.2 7.3 -0.1
v -0.2 7.5 -0.1
v -0.2 7.6 -0.1
v -0.1 7.3 -0.1
v -0.1 7.4 -0.1
v -0.1 7.5 -0.1
v -0.1 7.6 -0.1
v 0.1 7.3 -0.1
v 0.1 7.4 -0.1
v 0.1 7.5 -0.1
v 0.1 7.6 -0.1
v 0.2 7.3 -0.1
v 0.2 7.5 -0.1
v 0.2 7.6 -0.1
v -0.4 7.6 -0.3
v -0.4 7.8 -0.3
v -0.2 7.6 -0.3
v -0.2 7.8 -0.3
v 0.2 7.6 -0.3
v 0.2 7.8 -0.3
v 0.4 7.6 -0.3
v 0.4 7.8 -0.3
v -0.4 7.5 -0.4
v -0.4 7.6 -0.4
v -0.2 7.6 -0.4
v -0.2 7.8 -0.4
v -0.1 7.5 -0.4
v -0.1 7.7 -0.4
v -0.1 7.8 -0.4
v 0.1 7.5 -0.4
v 0.1 7.7 -0.4
v 0.1 7.8 -0.4
v 0.2 7.6 -0.4
v 0.2 7.8 -0.4
v 0.4 7.5 -0.4
v 0.4 7.6 -0.4
v -0.4 7.3 0.2
v -0.4 7.4 0.2
v -0.4 7.8 0.2
v -0.3 7.3 0.2
v -0.3 7.7 0.2
v -0.3 7.8 0.2
v 0.3 7.3 0.2
v 0.3 7.7 0.2
v 0.3 7.8 0.2
v 0.4 7.3 0.2
v 0.4 7.4 0.2
v 0.4 7.8 0.2
v -0.1 7.5 0.1
v -0.1 7.6 0.1
v 0.1 7.5 0.1
v 0.1 7.6 0.1
v -0.5 7.4 -0.1
v -0.5 7.5 -0.1
v -0.4 7.4 -0.1
v -0.4 7.5 -0.1
v 0.4 7.4 -0.1
v 0.4 7.5 -0.1
v 0.5 7.4 -0.1
v 0.5 7.5 -0.1
v -0.4 7.7 -0.2
v -0.4 7.8 -0.2
v -0.3 7.6 -0.2
v -0.3 7.7 -0.2
v -0.2 7.6 -0.2
v -0.2 7.8 -0.2
v 0.2 7.6 -0.2
v 0.2 7.8 -0.2
v 0.3 7.6 -0.2
v 0.3 7.7 -0.2
v 0.4 7.7 -0.2
v 0.4 7.8 -0.2
v -0.2 7.3 -0.3
v -0.2 7.5 -0.3
v -0.2 7.6 -0.3
v -0.2 7.8 -0.3
v -0.1 7.3 -0.3
v -0.1 7.5 -0.3
v -0.1 7.7 -0.3
v -0.1 7.8 -0.3
v 0.1 7.3 -0.3
v 0.1 7.5 -0.3
v 0.1 7.7 -0.3
v 0.1 7.8 -0.3
v 0.2 7.3 -0.3
v 0.2 7.5 -0.3
v 0.2 7.6 -0.3
v 0.2 7.8 -0.3
v -0.5 7.5 -0.4
v -0.5 8.3 -0.4
v -0.4 7.5 -0.4
v -0.4 8.3 -0.4
v -0.4 8.4 -0.4
v -0.4 8.5 -0.4
v -0.3 8.4 -0.4
v -0.3 8.5 -0.4
v -0.3 8.6 -0.4
v -0.1 7.3 -0.4
v -0.1 7.5 -0.4
v 0.1 7.3 -0.4
v 0.1 7.5 -0.4
v 0.3 8.4 -0.4
v 0.3 8.5 -0.4
v 0.3 8.6 -0.4
v 0.4 7.5 -0.4
v 0.4 8.3 -0.4
v 0.4 8.4 -0.4
v 0.4 8.5 -0.4
v 0.5 7.5 -0.4
v 0.5 8.3 -0.4
v -0.4 7.5 -0.5
v -0.4 8.4 -0.5
v -0.3 8.4 -0.5
v -0.3 8.5 -0.5
v -0.2 7.6 -0.5
v -0.2 8.4 -0.5
v 0.2 7.6 -0.5
v 0.2 8.4 -0.5
v 0.3 8.4 -0.5
v 0.3 8.5 -0.5
v 0.4 7.5 -0.5
v 0.4 8.4 -0.5
v -0.2 7.6 -0.6
v -0.2 8.4 -0.6
v 0.2 7.6 -0.6
v 0.2 8.4 -0.6
v -0.4 7.3 0.3
v -0.3 7.3 0.3
v 0.3 7.3 0.3
v 0.4 7.3 0.3
v -0.4 7.3 0.2
v -0.3 7.3 0.2
v 0.3 7.3 0.2
v 0.4 7.3 0.2
v -0.1 7.3 0
v 0.1 7.3 0
v -0.2 7.3 -0.1
v -0.1 7.3 -0.1
v 0.1 7.3 -0.1
v 0.2 7.3 -0.1
v -0.2 7.3 -0.3
v -0.1 7.3 -0.3
v 0.1 7.3 -0.3
v 0.2 7.3 -0.3
v -0.1 7.3 -0.4
v 0.1 7.3 -0.4
v -0.5 7.4 0.2
v -0.4 7.4 0.2
v 0.4 7.4 0.2
v 0.5 7.4 0.2
v -0.5 7.4 -0.1
v -0.4 7.4 -0.1
v 0.4 7.4 -0.1
v 0.5 7.4 -0.1
v -0.1 7.5 0.3
v 0.1 7.5 0.3
v -0.1 7.5 0.1
v 0.1 7.5 0.1
v -0.5 7.5 -0.1
v -0.4 7.5 -0.1
v 0.4 7.5 -0.1
v 0.5 7.5 -0.1
v -0.5 7.5 -0.4
v -0.4 7.5 -0.4
v -0.1 7.5 -0.4
v 0.1 7.5 -0.4
v 0.4 7.5 -0.4
v 0.5 7.5 -0.4
v -0.4 7.5 -0.5
v 0.4 7.5 -0.5
v -0.2 7.6 0.3
v -0.1 7.6 0.3
v 0.1 7.6 0.3
v 0.2 7.6 0.3
v -0.3 7.6 0.1
v -0.2 7.6 0.1
v -0.1 7.6 0.1
v 0.1 7.6 0.1
v 0.2 7.6 0.1
v 0.3 7.6 0.1
v -0.3 7.6 0
v -0.2 7.6 0
v -0.1 7.6 0
v 0.1 7.6 0
v 0.2 7.6 0
v 0.3 7.6 0
v -0.2 7.6 -0.1
v -0.1 7.6 -0.1
v 0.1 7.6 -0.1
v 0.2 7.6 -0.1
v -0.3 7.6 -0.2
v -0.2 7.6 -0.2
v 0.2 7.6 -0.2
v 0.3 7.6 -0.2
v -0.4 7.6 -0.3
v -0.2 7.6 -0.3
v 0.2 7.6 -0.3
v 0.4 7.6 -0.3
v -0.4 7.6 -0.4
v -0.2 7.6 -0.4
v 0.2 7.6 -0.4
v 0.4 7.6 -0.4
v -0.2 7.6 -0.5
v 0.2 7.6 -0.5
v -0.2 7.6 -0.6
v 0.2 7.6 -0.6
v -0.3 7.7 0.2
v -0.2 7.7 0.2
v 0.2 7.7 0.2
v 0.3 7.7 0.2
v -0.4 7.7 0.1
v -0.3 7.7 0.1
v -0.2 7.7 0.1
v 0.2 7.7 0.1
v 0.3 7.7 0.1
v 0.4 7.7 0.1
v -0.3 7.7 0
v 0.3 7.7 0
v -0.4 7.7 -0.2
v -0.3 7.7 -0.2
v 0.3 7.7 -0.2
v 0.4 7.7 -0.2
v -0.3 7.8 0.3
v -0.2 7.8 0.3
v 0.2 7.8 0.3
v 0.3 7.8 0.3
v -0.4 7.8 0.2
v -0.3 7.8 0.2
v -0.2 7.8 0.2
v 0.2 7.8 0.2
v 0.3 7.8 0.2
v 0.4 7.8 0.2
v -0.4 7.8 0.1
v -0.3 7.8 0.1
v 0.3 7.8 0.1
v 0.4 7.8 0.1
v -0.4 7.8 -0.2
v -0.2 7.8 -0.2
v 0.2 7.8 -0.2
v 0.4 7.8 -0.2
v -0.4 7.8 -0.3
v -0.2 7.8 -0.3
v -0.1 7.8 -0.3
v 0.1 7.8 -0.3
v 0.2 7.8 -0.3
v 0.4 7.8 -0.3
v -0.2 7.8 -0.4
v -0.1 7.8 -0.4
v 0.1 7.8 -0.4
v 0.2 7.8 -0.4
v -0.3 8.1 0.4
v 0.3 8.1 0.4
v -0.3 8.1 0.3
v 0.3 8.1 0.3
v -0.3 8.3 0.4
v 0.3 8.3 0.4
v -0.3 8.3 0.3
v 0.3 8.3 0.3
v -0.3 8.2 0.4
v 0.3 8.2 0.4
v -0.3 8.2 0.3
v 0.3 8.2 0.3
v -0.5 8.3 0.2
v -0.4 8.3 0.2
v 0.4 8.3 0.2
v 0.5 8.3 0.2
v -0.5 8.3 -0.4
v -0.4 8.3 -0.4
v 0.4 8.3 -0.4
v 0.5 8.3 -0.4
v -0.4 8.4 -0.4
v -0.3 8.4 -0.4
v 0.3 8.4 -0.4
v 0.4 8.4 -0.4
v -0.4 8.4 -0.5
v -0.3 8.4 -0.5
v -0.2 8.4 -0.5
v 0.2 8.4 -0.5
v 0.3 8.4 -0.5
v 0.4 8.4 -0.5
v -0.2 8.4 -0.6
v 0.2 8.4 -0.6
v -0.3 8.5 0.4
v 0.3 8.5 0.4
v -0.4 8.5 0.3
v -0.3 8.5 0.3
v 0.3 8.5 0.3
v 0.4 8.5 0.3
v -0.4 8.5 -0.4
v -0.3 8.5 -0.4
v 0.3 8.5 -0.4
v 0.4 8.5 -0.4
v -0.3 8.5 -0.5
v 0.3 8.5 -0.5
v -0.3 8.6 0.3
v 0.3 8.6 0.3
v -0.3 8.6 -0.4
v 0.3 8.6 -0.4

# faces
f 3/4/1 2/4/1 1/4/1
f 5/4/1 3/4/1 1/4/1
f 5/4/1 4/4/1 3/4/1
f 6/4/1 4/4/1 5/4/1
f 9/4/1 8/4/1 7/4/1
f 12/4/1 9/4/1 7/4/1
f 13/4/1 11/4/1 10/4/1
f 14/4/1 11/4/1 13/4/1
f 14/4/1 13/4/1 12/4/1
f 15/4/1 11/4/1 14/4/1
f 16/4/1 12/4/1 7/4/1
f 16/4/1 14/4/1 12/4/1
f 17/4/1 14/4/1 16/4/1
f 22/2/1 19/2/1 18/2/1
f 23/1/1 20/1/1 19/1/1
f 23/2/1 19/2/1 22/2/1
f 24/1/1 20/1/1 23/1/1
f 25/3/1 22/3/1 21/3/1
f 26/3/1 22/3/1 25/3/1
f 29/3/1 28/3/1 27/3/1
f 30/3/1 28/3/1 29/3/1
f 35/4/1 32/4/1 31/4/1
f 36/4/1 32/4/1 35/4/1
f 37/4/1 34/4/1 33/4/1
f 38/4/1 34/4/1 37/4/1
f 39/4/1 37/4/1 36/4/1
f 40/4/1 37/4/1 39/4/1
f 43/3/1 42/3/1 41/3/1
f 44/3/1 42/3/1 43/3/1
f 47/1/1 44/1/1 43/1/1
f 48/1/1 44/1/1 47/1/1
f 49/1/1 44/1/1 48/1/1
f 52/3/1 46/3/1 45/3/1
f 53/3/1 46/3/1 52/3/1
f 54/3/1 52/3/1 45/3/1
f 55/3/1 52/3/1 54/3/1
f 56/1/1 49/1/1 48/1/1
f 57/1/1 49/1/1 56/1/1
f 58/4/1 51/4/1 50/4/1
f 59/4/1 51/4/1 58/4/1
f 64/3/1 61/3/1 60/3/1
f 65/3/1 61/3/1 64/3/1
f 68/2/1 65/2/1 64/2/1
f 69/2/1 65/2/1 68/2/1
f 70/3/1 63/3/1 62/3/1
f 71/3/1 63/3/1 70/3/1
f 72/3/1 67/3/1 66/3/1
f 73/3/1 67/3/1 72/3/1
f 74/1/1 69/1/1 68/1/1
f 75/1/1 69/1/1 74/1/1
f 76/1/1 71/1/1 70/1/1
f 77/1/1 71/1/1 76/1/1
f 78/4/1 77/4/1 76/4/1
f 79/4/1 77/4/1 78/4/1
f 82/4/1 81/4/1 80/4/1
f 83/4/1 81/4/1 82/4/1
f 86/4/1 85/4/1 84/4/1
f 87/4/1 86/4/1 84/4/1
f 88/4/1 86/4/1 87/4/1
f 91/4/1 90/4/1 89/4/1
f 93/4/1 92/4/1 91/4/1
f 94/4/1 92/4/1 93/4/1
f 95/4/1 91/4/1 89/4/1
f 95/4/1 93/4/1 91/4/1
f 96/4/1 93/4/1 95/4/1
f 97/4/1 95/4/1 89/4/1
f 98/4/1 95/4/1 97/4/1
f 99/4/1 93/4/1 96/4/1
f 100/4/1 93/4/1 99/4/1
f 101/4/2 102/4/2 103/4/2
f 103/4/2 104/4/2 105/4/2
f 105/4/2 104/4/2 106/4/2
f 101/4/2 103/4/2 107/4/2
f 103/4/2 105/4/2 107/4/2
f 107/4/2 105/4/2 108/4/2
f 101/4/2 107/4/2 109/4/2
f 109/4/2 107/4/2 110/4/2
f 108/4/2 105/4/2 111/4/2
f 111/4/2 105/4/2 112/4/2
f 113/4/2 114/4/2 115/4/2
f 113/4/2 115/4/2 116/4/2
f 116/4/2 115/4/2 117/4/2
f 118/4/2 119/4/2 120/4/2
f 120/4/2 119/4/2 121/4/2
f 122/3/2 123/3/2 126/3/2
f 126/3/2 123/3/2 127/3/2
f 126/2/2 127/2/2 130/2/2
f 130/2/2 127/2/2 131/2/2
f 124/3/2 125/3/2 132/3/2
f 132/3/2 125/3/2 133/3/2
f 128/3/2 129/3/2 134/3/2
f 134/3/2 129/3/2 135/3/2
f 130/1/2 131/1/2 136/1/2
f 136/1/2 131/1/2 137/1/2
f 132/1/2 133/1/2 138/1/2
f 138/1/2 133/1/2 139/1/2
f 138/4/2 139/4/2 140/4/2
f 140/4/2 139/4/2 141/4/2
f 142/3/2 143/3/2 144/3/2
f 144/3/2 143/3/2 145/3/2
f 144/1/2 145/1/2 148/1/2
f 148/1/2 145/1/2 149/1/2
f 149/1/2 145/1/2 150/1/2
f 146/3/2 147/3/2 153/3/2
f 153/3/2 147/3/2 154/3/2
f 146/3/2 153/3/2 155/3/2
f 155/3/2 153/3/2 156/3/2
f 149/1/2 150/1/2 157/1/2
f 157/1/2 150/1/2 158/1/2
f 151/4/2 152/4/2 159/4/2
f 159/4/2 152/4/2 160/4/2
f 161/2/2 162/2/2 165/2/2
f 162/1/2 163/1/2 166/1/2
f 165/2/2 162/2/2 166/2/2
f 166/1/2 163/1/2 167/1/2
f 164/3/2 165/3/2 168/3/2
f 168/3/2 165/3/2 169/3/2
f 170/3/2 171/3/2 172/3/2
f 172/3/2 171/3/2 173/3/2
f 174/4/2 175/4/2 178/4/2
f 178/4/2 175/4/2 179/4/2
f 176/4/2 177/4/2 180/4/2
f 180/4/2 177/4/2 181/4/2
f 179/4/2 180/4/2 182/4/2
f 182/4/2 180/4/2 183/4/2
f 184/4/2 185/4/2 186/4/2
f 184/4/2 186/4/2 189/4/2
f 187/4/2 188/4/2 190/4/2
f 190/4/2 188/4/2 191/4/2
f 189/4/2 190/4/2 191/4/2
f 191/4/2 188/4/2 192/4/2
f 184/4/2 189/4/2 193/4/2
f 189/4/2 191/4/2 193/4/2
f 193/4/2 191/4/2 194/4/2
f 195/4/2 196/4/2 197/4/2
f 195/4/2 197/4/2 199/4/2
f 197/4/2 198/4/2 199/4/2
f 199/4/2 198/4/2 200/4/2
f 205/3/3 202/3/3 201/3/3
f 206/3/3 202/3/3 205/3/3
f 207/4/3 204/4/3 203/4/3
f 208/4/3 204/4/3 207/4/3
f 211/4/3 210/4/3 209/4/3
f 212/4/3 210/4/3 211/4/3
f 213/4/3 210/4/3 212/4/3
f 214/4/3 210/4/3 213/4/3
f 215/4/3 210/4/3 214/4/3
f 216/4/3 210/4/3 215/4/3
f 217/4/3 210/4/3 216/4/3
f 218/4/3 210/4/3 217/4/3
f 221/2/3 213/2/3 212/2/3
f 222/3/3 214/3/3 213/3/3
f 222/2/3 213/2/3 221/2/3
f 224/3/3 221/3/3 220/3/3
f 224/3/3 222/3/3 221/3/3
f 225/3/3 222/3/3 224/3/3
f 226/3/3 222/3/3 225/3/3
f 227/3/3 224/3/3 223/3/3
f 228/6/3 225/6/3 224/6/3
f 228/3/3 224/3/3 227/3/3
f 229/5/3 226/5/3 225/5/3
f 229/6/3 225/6/3 228/6/3
f 230/3/3 222/3/3 226/3/3
f 230/5/3 226/5/3 229/5/3
f 231/3/3 229/3/3 228/3/3
f 231/3/3 230/3/3 229/3/3
f 232/3/3 222/3/3 230/3/3
f 232/3/3 230/3/3 231/3/3
f 233/3/3 214/3/3 222/3/3
f 233/3/3 222/3/3 232/3/3
f 235/2/3 233/2/3 232/2/3
f 236/3/3 214/3/3 233/3/3
f 236/2/3 233/2/3 235/2/3
f 237/2/3 215/2/3 214/2/3
f 237/3/3 214/3/3 236/3/3
f 238/2/3 215/2/3 237/2/3
f 239/1/3 217/1/3 216/1/3
f 240/1/3 217/1/3 239/1/3
f 241/4/3 219/4/3 218/4/3
f 242/4/3 219/4/3 241/4/3
f 243/4/3 240/4/3 239/4/3
f 243/4/3 238/4/3 237/4/3
f 243/4/3 241/4/3 240/4/3
f 243/4/3 235/4/3 234/4/3
f 243/4/3 239/4/3 238/4/3
f 243/4/3 236/4/3 235/4/3
f 243/4/3 237/4/3 236/4/3
f 244/4/3 241/4/3 243/4/3
f 247/4/3 246/4/3 245/4/3
f 248/4/3 246/4/3 247/4/3
f 251/3/3 250/3/3 249/3/3
f 252/3/3 250/3/3 251/3/3
f 255/3/3 254/3/3 253/3/3
f 256/3/3 254/3/3 255/3/3
f 259/4/3 258/4/3 257/4/3
f 260/4/3 258/4/3 259/4/3
f 264/1/3 262/1/3 261/1/3
f 265/1/3 262/1/3 264/1/3
f 266/2/3 264/2/3 263/2/3
f 267/2/3 264/2/3 266/2/3
f 270/2/3 269/2/3 268/2/3
f 271/2/3 269/2/3 270/2/3
f 273/1/3 272/1/3 271/1/3
f 274/1/3 272/1/3 273/1/3
f 279/3/3 276/3/3 275/3/3
f 280/2/3 277/2/3 276/2/3
f 280/3/3 276/3/3 279/3/3
f 281/1/3 278/1/3 277/1/3
f 281/2/3 277/2/3 280/2/3
f 282/1/3 278/1/3 281/1/3
f 286/3/3 284/3/3 283/3/3
f 287/3/3 284/3/3 286/3/3
f 288/1/3 285/1/3 284/1/3
f 288/3/3 284/3/3 287/3/3
f 289/1/3 285/1/3 288/1/3
f 294/3/3 291/3/3 290/3/3
f 294/3/3 292/3/3 291/3/3
f 295/1/3 293/1/3 292/1/3
f 295/3/3 292/3/3 294/3/3
f 296/1/3 293/1/3 295/1/3
f 299/4/3 298/4/3 297/4/3
f 300/4/3 298/4/3 299/4/3
f 303/4/3 302/4/3 301/4/3
f 304/4/3 302/4/3 303/4/3
f 307/4/3 306/4/3 305/4/3
f 309/4/3 307/4/3 305/4/3
f 309/4/3 308/4/3 307/4/3
f 310/4/3 308/4/3 309/4/3
f 311/4/3 308/4/3 310/4/3
f 315/4/3 313/4/3 312/4/3
f 315/4/3 314/4/3 313/4/3
f 316/4/3 314/4/3 315/4/3
f 317/4/3 315/4/3 312/4/3
f 318/4/3 315/4/3 317/4/3
f 319/4/4 320/4/4 322/4/4
f 320/4/4 321/4/4 322/4/4
f 322/4/4 321/4/4 323/4/4
f 323/4/4 321/4/4 324/4/4
f 325/4/4 326/4/4 328/4/4
f 326/4/4 327/4/4 328/4/4
f 328/4/4 327/4/4 329/4/4
f 329/4/4 327/4/4 330/4/4
f 331/3/4 332/3/4 333/3/4
f 333/3/4 332/3/4 334/3/4
f 335/4/4 336/4/4 337/4/4
f 337/4/4 336/4/4 338/4/4
f 339/4/4 340/4/4 341/4/4
f 341/4/4 340/4/4 342/4/4
f 343/1/4 344/1/4 346/1/4
f 345/1/4 346/1/4 347/1/4
f 346/1/4 344/1/4 348/1/4
f 347/1/4 346/1/4 348/1/4
f 349/1/4 350/1/4 351/1/4
f 351/1/4 350/1/4 352/1/4
f 352/1/4 350/1/4 353/1/4
f 353/1/4 350/1/4 354/1/4
f 355/3/4 356/3/4 359/3/4
f 357/1/4 358/1/4 360/1/4
f 359/3/4 356/3/4 360/3/4
f 356/1/4 357/1/4 360/1/4
f 360/1/4 358/1/4 361/1/4
f 361/1/4 358/1/4 362/1/4
f 363/3/4 364/3/4 367/3/4
f 365/1/4 366/1/4 368/1/4
f 367/3/4 364/3/4 368/3/4
f 364/1/4 365/1/4 368/1/4
f 368/1/4 366/1/4 369/1/4
f 369/1/4 366/1/4 370/1/4
f 371/4/4 372/4/4 373/4/4
f 373/4/4 372/4/4 374/4/4
f 375/4/4 376/4/4 377/4/4
f 377/4/4 376/4/4 378/4/4
f 380/3/4 381/3/4 382/3/4
f 382/3/4 381/3/4 383/3/4
f 378/4/4 379/4/4 385/4/4
f 385/4/4 379/4/4 386/4/4
f 384/4/4 385/4/4 389/4/4
f 389/4/4 385/4/4 390/4/4
f 387/4/4 388/4/4 391/4/4
f 391/4/4 388/4/4 392/4/4
f 393/4/4 394/4/4 395/4/4
f 393/4/4 395/4/4 397/4/4
f 395/4/4 396/4/4 397/4/4
f 397/4/4 396/4/4 398/4/4
f 393/4/4 397/4/4 399/4/4
f 398/4/4 396/4/4 400/4/4
f 400/4/4 396/4/4 401/4/4
f 399/4/4 400/4/4 401/4/4
f 401/4/4 396/4/4 402/4/4
f 393/4/4 399/4/4 403/4/4
f 399/4/4 401/4/4 403/4/4
f 403/4/4 401/4/4 404/4/4
f 405/4/4 406/4/4 407/4/4
f 407/4/4 406/4/4 408/4/4
f 413/4/5 410/4/5 409/4/5
f 414/4/5 410/4/5 413/4/5
f 415/4/5 412/4/5 411/4/5
f 416/4/5 412/4/5 415/4/5
f 420/3/5 418/3/5 417/3/5
f 421/3/5 418/3/5 420/3/5
f 423/3/5 420/3/5 419/3/5
f 423/3/5 422/3/5 421/3/5
f 423/3/5 421/3/5 420/3/5
f 424/3/5 422/3/5 423/3/5
f 425/3/5 422/3/5 424/3/5
f 426/3/5 422/3/5 425/3/5
f 427/3/5 425/3/5 424/3/5
f 428/3/5 425/3/5 427/3/5
f 433/4/5 430/4/5 429/4/5
f 434/4/5 430/4/5 433/4/5
f 435/4/5 432/4/5 431/4/5
f 436/4/5 432/4/5 435/4/5
f 439/3/5 438/3/5 437/3/5
f 440/3/5 438/3/5 439/3/5
f 445/4/5 442/4/5 441/4/5
f 446/4/5 442/4/5 445/4/5
f 449/4/5 444/4/5 443/4/5
f 450/4/5 444/4/5 449/4/5
f 451/4/5 448/4/5 447/4/5
f 451/4/5 449/4/5 448/4/5
f 451/4/5 447/4/5 446/4/5
f 452/4/5 449/4/5 451/4/5
f 458/3/5 454/3/5 453/3/5
f 459/3/5 454/3/5 458/3/5
f 460/3/5 456/3/5 455/3/5
f 461/3/5 456/3/5 460/3/5
f 463/2/5 458/2/5 457/2/5
f 464/1/5 459/1/5 458/1/5
f 464/2/5 458/2/5 463/2/5
f 464/1/5 460/1/5 459/1/5
f 464/1/5 461/1/5 460/1/5
f 465/1/5 461/1/5 464/1/5
f 466/1/5 461/1/5 465/1/5
f 467/2/5 462/2/5 461/2/5
f 467/1/5 461/1/5 466/1/5
f 468/2/5 462/2/5 467/2/5
f 469/1/5 464/1/5 463/1/5
f 469/1/5 465/1/5 464/1/5
f 470/1/5 465/1/5 469/1/5
f 471/1/5 468/1/5 467/1/5
f 471/1/5 467/1/5 466/1/5
f 472/1/5 468/1/5 471/1/5
f 473/1/5 469/1/5 463/1/5
f 474/1/5 469/1/5 473/1/5
f 475/1/5 468/1/5 472/1/5
f 476/1/5 468/1/5 475/1/5
f 481/4/5 478/4/5 477/4/5
f 482/4/5 478/4/5 481/4/5
f 483/4/5 480/4/5 479/4/5
f 484/4/5 480/4/5 483/4/5
f 487/4/5 486/4/5 485/4/5
f 488/4/5 486/4/5 487/4/5
f 494/3/5 490/3/5 489/3/5
f 495/3/5 490/3/5 494/3/5
f 496/3/5 492/3/5 491/3/5
f 497/3/5 492/3/5 496/3/5
f 499/1/5 494/1/5 493/1/5
f 500/1/5 498/1/5 497/1/5
f 501/1/5 499/1/5 493/1/5
f 502/1/5 499/1/5 501/1/5
f 503/1/5 498/1/5 500/1/5
f 504/1/5 498/1/5 503/1/5
f 510/2/5 506/2/5 505/2/5
f 511/2/5 506/2/5 510/2/5
f 512/2/5 508/2/5 507/2/5
f 513/2/5 508/2/5 512/2/5
f 515/1/5 510/1/5 509/1/5
f 516/1/5 510/1/5 515/1/5
f 517/1/5 514/1/5 513/1/5
f 518/1/5 514/1/5 517/1/5
f 523/1/5 520/1/5 519/1/5
f 524/1/5 520/1/5 523/1/5
f 527/1/5 522/1/5 521/1/5
f 528/1/5 522/1/5 527/1/5
f 529/4/5 525/4/5 524/4/5
f 530/4/5 525/4/5 529/4/5
f 531/4/5 527/4/5 526/4/5
f 532/4/5 527/4/5 531/4/5
f 535/3/5 534/3/5 533/3/5
f 536/3/5 534/3/5 535/3/5
f 539/4/5 538/4/5 537/4/5
f 540/4/5 538/4/5 539/4/5
f 541/3/6 542/3/6 543/3/6
f 543/3/6 542/3/6 544/3/6
f 545/4/6 546/4/6 549/4/6
f 549/4/6 546/4/6 550/4/6
f 547/4/6 548/4/6 551/4/6
f 551/4/6 548/4/6 552/4/6
f 553/4/6 554/4/6 557/4/6
f 557/4/6 554/4/6 558/4/6
f 555/4/6 556/4/6 561/4/6
f 561/4/6 556/4/6 562/4/6
f 559/4/6 560/4/6 563/4/6
f 563/4/6 560/4/6 564/4/6
f 565/4/6 566/4/6 568/4/6
f 568/4/6 566/4/6 569/4/6
f 567/4/6 568/4/6 571/4/6
f 571/4/6 568/4/6 572/4/6
f 569/4/6 570/4/6 573/4/6
f 573/4/6 570/4/6 574/4/6
f 572/4/6 573/4/6 575/4/6
f 575/4/6 573/4/6 576/4/6
f 577/4/6 578/4/6 579/4/6
f 579/4/6 578/4/6 580/4/6
