# MagicaVoxel @ Ephtracy

# group
o 

# material
mtllib Brune-7.mtl
usemtl palette

# normals
vn 1 0 0
vn -1 0 0
vn 0 0 1
vn 0 0 -1
vn 0 -1 0
vn 0 1 0

# texcoords
vt 0.474609 0.5
vt 0.478516 0.5
vt 0.482422 0.5
vt 0.486328 0.5
vt 0.880859 0.5
vt 0.884766 0.5

# verts
v 0.7 3.2 0.2
v 0.7 3.2 -0.1
v 0.7 3.3 0.2
v 0.7 3.3 -0.1
v 0.7 3.4 -0.1
v 0.7 3.4 -0.2
v 0.7 4.3 -0.1
v 0.7 4.3 -0.2
v 0.7 4.4 0
v 0.7 4.4 -0.1
v 0.7 4.4 -0.2
v 0.7 4.5 0.2
v 0.7 4.5 0
v 0.7 4.5 -0.1
v 0.7 4.5 -0.2
v 0.7 4.6 0.2
v 0.7 4.6 -0.1
v 0.7 4.7 0.2
v 0.7 4.7 -0.1
v 0.6 2.8 0.2
v 0.6 2.8 -0.1
v 0.6 2.9 0.3
v 0.6 2.9 0.2
v 0.6 3 0
v 0.6 3 -0.1
v 0.6 3.1 0.3
v 0.6 3.1 0
v 0.6 3.2 0.3
v 0.6 3.2 0.2
v 0.6 3.2 -0.1
v 0.6 3.2 -0.2
v 0.6 3.3 0.3
v 0.6 3.3 0.2
v 0.6 3.3 -0.1
v 0.6 3.3 -0.2
v 0.6 3.4 -0.1
v 0.6 3.4 -0.2
v 0.6 3.4 -0.3
v 0.6 4.3 -0.2
v 0.6 4.3 -0.3
v 0.6 4.4 -0.2
v 0.6 4.4 -0.3
v 0.6 4.5 0.3
v 0.6 4.5 0.2
v 0.6 4.5 -0.2
v 0.6 4.5 -0.3
v 0.6 4.6 0.3
v 0.6 4.6 0.2
v 0.6 4.7 0.3
v 0.6 4.7 0.2
v 0.5 2.9 -0.1
v 0.5 2.9 -0.2
v 0.5 3 -0.1
v 0.5 3.2 -0.1
v 0.5 3.2 -0.2
v 0.5 3.2 -0.3
v 0.5 3.3 -0.2
v 0.5 3.4 -0.2
v 0.5 3.4 -0.3
v 0.3 2.8 0.2
v 0.3 2.8 -0.1
v 0.3 2.9 0.3
v 0.3 2.9 0.2
v 0.3 2.9 -0.1
v 0.3 3 0.3
v 0.3 3 0.2
v 0.6 4.6 0
v 0.6 4.6 -0.1
v 0.6 4.7 0
v 0.6 4.7 -0.1
v 0.5 2.8 0.2
v 0.5 2.8 -0.1
v 0.5 2.9 0.3
v 0.5 2.9 0.2
v 0.5 2.9 -0.1
v 0.5 3 0.3
v 0.5 3 0.2
v 0.5 4.3 -0.2
v 0.5 4.3 -0.3
v 0.5 4.4 -0.1
v 0.5 4.4 -0.2
v 0.5 4.4 -0.3
v 0.5 4.5 0
v 0.5 4.5 -0.1
v 0.5 4.5 -0.2
v 0.5 4.5 -0.3
v 0.5 4.6 0.3
v 0.5 4.6 0.2
v 0.5 4.6 0
v 0.5 4.6 -0.1
v 0.5 4.7 0.3
v 0.5 4.7 0.2
v 0.5 4.7 0
v 0.3 2.9 -0.1
v 0.3 2.9 -0.2
v 0.3 3 -0.1
v 0.3 3 -0.2
v 0.3 4.5 0.3
v 0.3 4.5 0.2
v 0.3 4.5 0
v 0.3 4.6 0.3
v 0.3 4.6 0.2
v 0.3 4.6 0
v 0.2 2.8 0.2
v 0.2 2.8 -0.1
v 0.2 2.9 0.3
v 0.2 2.9 0.2
v 0.2 2.9 0
v 0.2 2.9 -0.1
v 0.2 3 0.1
v 0.2 3 0
v 0.2 3 -0.1
v 0.2 3 -0.2
v 0.2 3.1 0.3
v 0.2 3.1 0.1
v 0.2 3.2 0.3
v 0.2 3.2 0.2
v 0.2 3.2 0.1
v 0.2 3.2 -0.1
v 0.2 3.2 -0.2
v 0.2 3.2 -0.3
v 0.2 3.3 0.3
v 0.2 3.3 0.2
v 0.2 3.3 0.1
v 0.2 4.1 -0.2
v 0.2 4.2 0.1
v 0.2 4.2 -0.2
v 0.2 4.3 0.3
v 0.2 4.3 0.2
v 0.2 4.3 -0.1
v 0.2 4.3 -0.2
v 0.2 4.3 -0.3
v 0.2 4.4 0.3
v 0.2 4.4 0.2
v 0.2 4.4 0.1
v 0.2 4.4 0
v 0.2 4.4 -0.1
v 0.2 4.4 -0.2
v 0.2 4.5 0.3
v 0.2 4.5 0.1
v 0.2 4.5 0
v 0.2 4.5 -0.1
v 0.1 3 0.1
v 0.1 3 0
v 0.1 3 -0.1
v 0.1 3.1 0.1
v 0.1 3.1 0
v 0.1 3.2 0.1
v 0.1 3.2 0
v 0.1 3.2 -0.1
v 0.1 3.2 -0.2
v 0.1 3.3 0.1
v 0.1 3.3 0
v 0.1 4.1 0
v 0.1 4.1 -0.2
v 0.1 4.2 0.1
v 0.1 4.2 0
v 0.1 4.2 -0.1
v 0.1 4.2 -0.2
v 0.1 4.3 0
v 0.1 4.3 -0.1
v 0.1 4.3 -0.2
v 0.1 4.4 0.1
v 0.1 4.4 0
v 0.1 4.4 -0.1
v 0.1 4.5 0.1
v 0.1 4.5 0
v 0.6 2.9 0.3
v 0.6 3.1 0.3
v 0.6 3.2 0.3
v 0.6 3.3 0.3
v 0.6 4.5 0.3
v 0.6 4.6 0.3
v 0.6 4.7 0.3
v 0.5 2.9 0.3
v 0.5 3 0.3
v 0.5 3.5 0.3
v 0.5 3.7 0.3
v 0.5 3.8 0.3
v 0.5 3.9 0.3
v 0.5 4.4 0.3
v 0.5 4.5 0.3
v 0.5 4.6 0.3
v 0.5 4.7 0.3
v 0.4 3.2 0.3
v 0.4 3.3 0.3
v 0.4 3.5 0.3
v 0.4 3.7 0.3
v 0.4 3.8 0.3
v 0.4 3.9 0.3
v 0.3 2.9 0.3
v 0.3 3 0.3
v 0.3 3.2 0.3
v 0.3 3.3 0.3
v 0.3 4.3 0.3
v 0.3 4.4 0.3
v 0.3 4.5 0.3
v 0.3 4.6 0.3
v 0.2 2.9 0.3
v 0.2 3.1 0.3
v 0.2 3.2 0.3
v 0.2 3.3 0.3
v 0.2 4.3 0.3
v 0.2 4.4 0.3
v 0.2 4.5 0.3
v 0.7 3.2 0.2
v 0.7 3.3 0.2
v 0.7 4.5 0.2
v 0.7 4.6 0.2
v 0.7 4.7 0.2
v 0.6 2.8 0.2
v 0.6 2.9 0.2
v 0.6 3.2 0.2
v 0.6 3.3 0.2
v 0.6 4.5 0.2
v 0.6 4.6 0.2
v 0.6 4.7 0.2
v 0.5 2.8 0.2
v 0.5 2.9 0.2
v 0.5 3 0.2
v 0.3 2.8 0.2
v 0.3 2.9 0.2
v 0.3 3 0.2
v 0.2 2.8 0.2
v 0.2 2.9 0.2
v 0.2 3 0.1
v 0.2 3.1 0.1
v 0.2 3.2 0.1
v 0.2 3.3 0.1
v 0.2 4.2 0.1
v 0.2 4.4 0.1
v 0.2 4.5 0.1
v 0.1 3 0.1
v 0.1 3.1 0.1
v 0.1 3.2 0.1
v 0.1 3.3 0.1
v 0.1 4.2 0.1
v 0.1 4.4 0.1
v 0.1 4.5 0.1
v 0.6 4.6 0
v 0.6 4.7 0
v 0.5 4.5 0
v 0.5 4.6 0
v 0.5 4.7 0
v 0.3 4.5 0
v 0.3 4.6 0
v 0.2 4.4 0
v 0.2 4.5 0
v 0.1 4.4 0
v 0.1 4.5 0
v 0.7 3.2 -0.1
v 0.7 3.3 -0.1
v 0.7 3.4 -0.1
v 0.7 4.5 -0.1
v 0.7 4.6 -0.1
v 0.7 4.7 -0.1
v 0.6 2.8 -0.1
v 0.6 3 -0.1
v 0.6 3.2 -0.1
v 0.6 3.3 -0.1
v 0.6 3.4 -0.1
v 0.6 4.5 -0.1
v 0.6 4.6 -0.1
v 0.6 4.7 -0.1
v 0.5 2.8 -0.1
v 0.5 2.9 -0.1
v 0.5 3 -0.1
v 0.5 3.2 -0.1
v 0.5 4.4 -0.1
v 0.5 4.5 -0.1
v 0.5 4.6 -0.1
v 0.3 2.8 -0.1
v 0.3 2.9 -0.1
v 0.3 3 -0.1
v 0.2 2.8 -0.1
v 0.2 2.9 -0.1
v 0.2 3 -0.1
v 0.2 3.2 -0.1
v 0.2 4.3 -0.1
v 0.2 4.4 -0.1
v 0.2 4.5 -0.1
v 0.1 3 -0.1
v 0.1 3.2 -0.1
v 0.1 4.3 -0.1
v 0.1 4.4 -0.1
v 0.7 3.4 -0.2
v 0.7 4.3 -0.2
v 0.7 4.4 -0.2
v 0.7 4.5 -0.2
v 0.6 3.2 -0.2
v 0.6 3.3 -0.2
v 0.6 3.4 -0.2
v 0.6 4.3 -0.2
v 0.6 4.4 -0.2
v 0.6 4.5 -0.2
v 0.5 2.9 -0.2
v 0.5 3.2 -0.2
v 0.5 3.3 -0.2
v 0.5 3.4 -0.2
v 0.5 4.3 -0.2
v 0.5 4.4 -0.2
v 0.4 2.9 -0.2
v 0.4 3 -0.2
v 0.3 2.9 -0.2
v 0.3 3 -0.2
v 0.2 3 -0.2
v 0.2 3.2 -0.2
v 0.2 4.1 -0.2
v 0.2 4.2 -0.2
v 0.2 4.3 -0.2
v 0.2 4.4 -0.2
v 0.1 3.2 -0.2
v 0.1 4.1 -0.2
v 0.1 4.2 -0.2
v 0.1 4.3 -0.2
v 0.6 3.4 -0.3
v 0.6 4.3 -0.3
v 0.6 4.4 -0.3
v 0.6 4.5 -0.3
v 0.5 3.2 -0.3
v 0.5 3.4 -0.3
v 0.5 4.3 -0.3
v 0.5 4.4 -0.3
v 0.5 4.5 -0.3
v 0.2 3.2 -0.3
v 0.2 4.3 -0.3
v 0.6 2.8 0.2
v 0.5 2.8 0.2
v 0.3 2.8 0.2
v 0.2 2.8 0.2
v 0.6 2.8 -0.1
v 0.5 2.8 -0.1
v 0.3 2.8 -0.1
v 0.2 2.8 -0.1
v 0.6 2.9 0.3
v 0.5 2.9 0.3
v 0.3 2.9 0.3
v 0.2 2.9 0.3
v 0.6 2.9 0.2
v 0.5 2.9 0.2
v 0.3 2.9 0.2
v 0.2 2.9 0.2
v 0.5 2.9 -0.1
v 0.4 2.9 -0.1
v 0.3 2.9 -0.1
v 0.5 2.9 -0.2
v 0.4 2.9 -0.2
v 0.3 2.9 -0.2
v 0.5 3 0.3
v 0.3 3 0.3
v 0.5 3 0.2
v 0.3 3 0.2
v 0.2 3 0.1
v 0.1 3 0.1
v 0.2 3 0
v 0.1 3 0
v 0.3 3 -0.1
v 0.2 3 -0.1
v 0.1 3 -0.1
v 0.3 3 -0.2
v 0.2 3 -0.2
v 0.7 3.2 0.2
v 0.6 3.2 0.2
v 0.7 3.2 -0.1
v 0.6 3.2 -0.1
v 0.5 3.2 -0.1
v 0.2 3.2 -0.1
v 0.1 3.2 -0.1
v 0.6 3.2 -0.2
v 0.5 3.2 -0.2
v 0.2 3.2 -0.2
v 0.1 3.2 -0.2
v 0.5 3.2 -0.3
v 0.2 3.2 -0.3
v 0.7 3.4 -0.1
v 0.6 3.4 -0.1
v 0.7 3.4 -0.2
v 0.6 3.4 -0.2
v 0.5 3.4 -0.2
v 0.6 3.4 -0.3
v 0.5 3.4 -0.3
v 0.2 4.3 -0.1
v 0.1 4.3 -0.1
v 0.5 4.3 -0.2
v 0.2 4.3 -0.2
v 0.1 4.3 -0.2
v 0.5 4.3 -0.3
v 0.2 4.3 -0.3
v 0.2 4.4 0
v 0.1 4.4 0
v 0.5 4.4 -0.1
v 0.2 4.4 -0.1
v 0.1 4.4 -0.1
v 0.5 4.4 -0.2
v 0.2 4.4 -0.2
v 0.3 4.5 0.3
v 0.2 4.5 0.3
v 0.3 4.5 0.2
v 0.2 4.5 0.1
v 0.1 4.5 0.1
v 0.5 4.5 0
v 0.3 4.5 0
v 0.2 4.5 0
v 0.1 4.5 0
v 0.7 4.5 -0.1
v 0.6 4.5 -0.1
v 0.5 4.5 -0.1
v 0.2 4.5 -0.1
v 0.7 4.5 -0.2
v 0.6 4.5 -0.2
v 0.5 4.5 -0.2
v 0.6 4.5 -0.3
v 0.5 4.5 -0.3
v 0.5 4.6 0.3
v 0.3 4.6 0.3
v 0.5 4.6 0.2
v 0.3 4.6 0.2
v 0.6 4.6 0
v 0.5 4.6 0
v 0.3 4.6 0
v 0.6 4.6 -0.1
v 0.5 4.6 -0.1
v 0.6 4.7 0.3
v 0.5 4.7 0.3
v 0.7 4.7 0.2
v 0.6 4.7 0.2
v 0.5 4.7 0.2
v 0.6 4.7 0
v 0.5 4.7 0
v 0.7 4.7 -0.1
v 0.6 4.7 -0.1

# faces
f 1/4/1 2/4/1 3/4/1
f 3/4/1 2/4/1 4/4/1
f 3/3/1 4/3/1 5/3/1
f 3/3/1 5/3/1 7/3/1
f 5/3/1 6/3/1 7/3/1
f 7/3/1 6/3/1 8/3/1
f 3/3/1 7/3/1 9/3/1
f 7/2/1 8/2/1 10/2/1
f 9/3/1 7/3/1 10/3/1
f 10/2/1 8/2/1 11/2/1
f 3/3/1 9/3/1 12/3/1
f 9/2/1 10/2/1 13/2/1
f 12/3/1 9/3/1 13/3/1
f 10/1/1 11/1/1 14/1/1
f 13/2/1 10/2/1 14/2/1
f 14/1/1 11/1/1 15/1/1
f 12/2/1 13/2/1 16/2/1
f 13/2/1 14/2/1 16/2/1
f 16/2/1 14/2/1 17/2/1
f 16/1/1 17/1/1 18/1/1
f 18/1/1 17/1/1 19/1/1
f 20/6/1 21/6/1 23/6/1
f 23/6/1 21/6/1 24/6/1
f 22/6/1 23/6/1 24/6/1
f 24/6/1 21/6/1 25/6/1
f 22/6/1 24/6/1 26/6/1
f 24/5/1 25/5/1 27/5/1
f 26/6/1 24/6/1 27/6/1
f 26/5/1 27/5/1 28/5/1
f 28/5/1 27/5/1 29/5/1
f 27/5/1 25/5/1 30/5/1
f 29/5/1 27/5/1 30/5/1
f 28/4/1 29/4/1 32/4/1
f 32/4/1 29/4/1 33/4/1
f 30/4/1 31/4/1 34/4/1
f 34/4/1 31/4/1 35/4/1
f 34/3/1 35/3/1 36/3/1
f 36/3/1 35/3/1 37/3/1
f 37/3/1 38/3/1 39/3/1
f 39/3/1 38/3/1 40/3/1
f 39/2/1 40/2/1 41/2/1
f 41/2/1 40/2/1 42/2/1
f 32/3/1 33/3/1 43/3/1
f 43/3/1 33/3/1 44/3/1
f 41/1/1 42/1/1 45/1/1
f 45/1/1 42/1/1 46/1/1
f 43/2/1 44/2/1 47/2/1
f 47/2/1 44/2/1 48/2/1
f 47/1/1 48/1/1 49/1/1
f 49/1/1 48/1/1 50/1/1
f 51/5/1 52/5/1 53/5/1
f 53/5/1 52/5/1 54/5/1
f 54/5/1 52/5/1 55/5/1
f 55/3/1 56/3/1 57/3/1
f 57/3/1 56/3/1 58/3/1
f 58/3/1 56/3/1 59/3/1
f 60/6/1 61/6/1 63/6/1
f 63/6/1 61/6/1 64/6/1
f 62/6/1 63/6/1 65/6/1
f 65/6/1 63/6/1 66/6/1
f 69/1/2 68/1/2 67/1/2
f 70/1/2 68/1/2 69/1/2
f 74/6/2 72/6/2 71/6/2
f 75/6/2 72/6/2 74/6/2
f 76/6/2 74/6/2 73/6/2
f 77/6/2 74/6/2 76/6/2
f 81/2/2 79/2/2 78/2/2
f 82/2/2 79/2/2 81/2/2
f 84/3/2 81/3/2 80/3/2
f 85/1/2 82/1/2 81/1/2
f 85/3/2 81/3/2 84/3/2
f 86/1/2 82/1/2 85/1/2
f 89/3/2 84/3/2 83/3/2
f 90/3/2 84/3/2 89/3/2
f 91/1/2 88/1/2 87/1/2
f 92/3/2 89/3/2 88/3/2
f 92/1/2 88/1/2 91/1/2
f 93/3/2 89/3/2 92/3/2
f 96/6/2 95/6/2 94/6/2
f 97/6/2 95/6/2 96/6/2
f 101/1/2 99/1/2 98/1/2
f 102/3/2 100/3/2 99/3/2
f 102/1/2 99/1/2 101/1/2
f 103/3/2 100/3/2 102/3/2
f 107/6/2 105/6/2 104/6/2
f 108/6/2 105/6/2 107/6/2
f 109/6/2 105/6/2 108/6/2
f 110/6/2 107/6/2 106/6/2
f 110/6/2 108/6/2 107/6/2
f 111/5/2 109/5/2 108/5/2
f 111/6/2 108/6/2 110/6/2
f 112/5/2 109/5/2 111/5/2
f 114/6/2 110/6/2 106/6/2
f 115/6/2 110/6/2 114/6/2
f 116/5/2 115/5/2 114/5/2
f 117/5/2 115/5/2 116/5/2
f 118/5/2 115/5/2 117/5/2
f 119/5/2 113/5/2 112/5/2
f 120/5/2 113/5/2 119/5/2
f 122/4/2 117/4/2 116/4/2
f 123/3/2 118/3/2 117/3/2
f 123/4/2 117/4/2 122/4/2
f 124/3/2 118/3/2 123/3/2
f 125/3/2 121/3/2 120/3/2
f 126/3/2 124/3/2 123/3/2
f 126/3/2 123/3/2 122/3/2
f 127/3/2 121/3/2 125/3/2
f 128/3/2 126/3/2 122/3/2
f 129/3/2 126/3/2 128/3/2
f 131/3/2 121/3/2 127/3/2
f 132/3/2 121/3/2 131/3/2
f 133/2/2 129/2/2 128/2/2
f 134/3/2 126/3/2 129/3/2
f 134/2/2 129/2/2 133/2/2
f 135/3/2 126/3/2 134/3/2
f 137/1/2 131/1/2 130/1/2
f 138/1/2 131/1/2 137/1/2
f 139/1/2 135/1/2 134/1/2
f 139/1/2 134/1/2 133/1/2
f 140/1/2 135/1/2 139/1/2
f 141/3/2 137/3/2 136/3/2
f 142/3/2 137/3/2 141/3/2
f 146/6/2 144/6/2 143/6/2
f 147/5/2 145/5/2 144/5/2
f 147/6/2 144/6/2 146/6/2
f 148/5/2 147/5/2 146/5/2
f 149/5/2 145/5/2 147/5/2
f 149/5/2 147/5/2 148/5/2
f 150/5/2 145/5/2 149/5/2
f 152/4/2 149/4/2 148/4/2
f 153/3/2 151/3/2 150/3/2
f 153/4/2 149/4/2 152/4/2
f 153/3/2 150/3/2 149/3/2
f 154/3/2 153/3/2 152/3/2
f 154/3/2 151/3/2 153/3/2
f 155/3/2 151/3/2 154/3/2
f 156/3/2 154/3/2 152/3/2
f 157/2/2 155/2/2 154/2/2
f 157/3/2 154/3/2 156/3/2
f 158/2/2 155/2/2 157/2/2
f 159/2/2 155/2/2 158/2/2
f 160/2/2 157/2/2 156/2/2
f 160/2/2 158/2/2 157/2/2
f 161/1/2 159/1/2 158/1/2
f 161/2/2 158/2/2 160/2/2
f 162/1/2 159/1/2 161/1/2
f 163/2/2 160/2/2 156/2/2
f 164/1/2 161/1/2 160/1/2
f 164/2/2 160/2/2 163/2/2
f 165/1/2 161/1/2 164/1/2
f 166/1/2 164/1/2 163/1/2
f 167/1/2 164/1/2 166/1/2
f 168/6/3 169/6/3 175/6/3
f 175/6/3 169/6/3 176/6/3
f 171/3/3 172/3/3 177/3/3
f 177/3/3 172/3/3 178/3/3
f 178/3/3 172/3/3 179/3/3
f 179/3/3 172/3/3 180/3/3
f 180/3/3 172/3/3 181/3/3
f 172/2/3 173/2/3 182/2/3
f 181/3/3 172/3/3 182/3/3
f 173/1/3 174/1/3 183/1/3
f 182/2/3 173/2/3 183/2/3
f 183/1/3 174/1/3 184/1/3
f 169/5/3 170/5/3 185/5/3
f 170/4/3 171/4/3 185/4/3
f 171/3/3 177/3/3 186/3/3
f 185/4/3 171/4/3 186/4/3
f 177/4/3 178/4/3 187/4/3
f 186/3/3 177/3/3 187/3/3
f 178/3/3 179/3/3 188/3/3
f 187/4/3 178/4/3 188/4/3
f 179/4/3 180/4/3 189/4/3
f 188/3/3 179/3/3 189/3/3
f 180/3/3 181/3/3 190/3/3
f 189/4/3 180/4/3 190/4/3
f 176/6/3 169/6/3 192/6/3
f 188/3/3 189/3/3 193/3/3
f 187/3/3 188/3/3 193/3/3
f 169/5/3 185/5/3 193/5/3
f 185/3/3 186/3/3 193/3/3
f 189/3/3 190/3/3 193/3/3
f 186/3/3 187/3/3 193/3/3
f 193/3/3 190/3/3 194/3/3
f 190/3/3 181/3/3 195/3/3
f 194/3/3 190/3/3 195/3/3
f 181/2/3 182/2/3 196/2/3
f 195/3/3 181/3/3 196/3/3
f 182/1/3 183/1/3 197/1/3
f 196/2/3 182/2/3 197/2/3
f 197/1/3 183/1/3 198/1/3
f 191/6/3 192/6/3 199/6/3
f 192/6/3 169/6/3 200/6/3
f 199/6/3 192/6/3 200/6/3
f 169/5/3 193/5/3 200/5/3
f 193/4/3 194/4/3 201/4/3
f 200/5/3 193/5/3 201/5/3
f 194/3/3 195/3/3 202/3/3
f 201/4/3 194/4/3 202/4/3
f 195/2/3 196/2/3 203/2/3
f 202/3/3 195/3/3 203/3/3
f 196/1/3 197/1/3 204/1/3
f 203/2/3 196/2/3 204/2/3
f 204/1/3 197/1/3 205/1/3
f 206/4/3 207/4/3 213/4/3
f 207/3/3 208/3/3 214/3/3
f 213/4/3 207/4/3 214/4/3
f 208/2/3 209/2/3 215/2/3
f 214/3/3 208/3/3 215/3/3
f 209/1/3 210/1/3 216/1/3
f 215/2/3 209/2/3 216/2/3
f 216/1/3 210/1/3 217/1/3
f 211/6/3 212/6/3 218/6/3
f 218/6/3 212/6/3 219/6/3
f 219/5/3 220/5/3 222/5/3
f 222/5/3 220/5/3 223/5/3
f 221/6/3 222/6/3 224/6/3
f 224/6/3 222/6/3 225/6/3
f 226/6/3 227/6/3 233/6/3
f 227/5/3 228/5/3 234/5/3
f 233/6/3 227/6/3 234/6/3
f 228/4/3 229/4/3 235/4/3
f 234/5/3 228/5/3 235/5/3
f 229/3/3 230/3/3 236/3/3
f 235/4/3 229/4/3 236/4/3
f 230/2/3 231/2/3 237/2/3
f 236/3/3 230/3/3 237/3/3
f 231/1/3 232/1/3 238/1/3
f 237/2/3 231/2/3 238/2/3
f 238/1/3 232/1/3 239/1/3
f 243/3/4 241/3/4 240/3/4
f 244/3/4 241/3/4 243/3/4
f 245/3/4 243/3/4 242/3/4
f 246/3/4 243/3/4 245/3/4
f 249/1/4 248/1/4 247/1/4
f 250/1/4 248/1/4 249/1/4
f 259/4/4 252/4/4 251/4/4
f 260/3/4 253/3/4 252/3/4
f 260/4/4 252/4/4 259/4/4
f 261/3/4 253/3/4 260/3/4
f 262/2/4 255/2/4 254/2/4
f 263/1/4 256/1/4 255/1/4
f 263/2/4 255/2/4 262/2/4
f 264/1/4 256/1/4 263/1/4
f 265/6/4 258/6/4 257/6/4
f 266/6/4 258/6/4 265/6/4
f 267/5/4 259/5/4 258/5/4
f 267/6/4 258/6/4 266/6/4
f 268/5/4 259/5/4 267/5/4
f 270/3/4 263/3/4 262/3/4
f 271/3/4 263/3/4 270/3/4
f 275/6/4 273/6/4 272/6/4
f 276/5/4 274/5/4 273/5/4
f 276/6/4 273/6/4 275/6/4
f 277/5/4 274/5/4 276/5/4
f 280/3/4 270/3/4 269/3/4
f 281/3/4 270/3/4 280/3/4
f 282/5/4 278/5/4 277/5/4
f 283/5/4 278/5/4 282/5/4
f 284/1/4 280/1/4 279/1/4
f 285/1/4 280/1/4 284/1/4
f 292/3/4 287/3/4 286/3/4
f 293/2/4 288/2/4 287/2/4
f 293/3/4 287/3/4 292/3/4
f 294/1/4 289/1/4 288/1/4
f 294/2/4 288/2/4 293/2/4
f 295/1/4 289/1/4 294/1/4
f 297/4/4 291/4/4 290/4/4
f 298/3/4 292/3/4 291/3/4
f 298/4/4 291/4/4 297/4/4
f 299/3/4 292/3/4 298/3/4
f 302/5/4 297/5/4 296/5/4
f 303/5/4 297/5/4 302/5/4
f 304/6/4 303/6/4 302/6/4
f 305/5/4 297/5/4 303/5/4
f 305/6/4 303/6/4 304/6/4
f 306/5/4 297/5/4 305/5/4
f 307/5/4 297/5/4 306/5/4
f 310/1/4 301/1/4 300/1/4
f 311/1/4 301/1/4 310/1/4
f 312/3/4 308/3/4 307/3/4
f 313/2/4 309/2/4 308/2/4
f 313/3/4 308/3/4 312/3/4
f 314/1/4 310/1/4 309/1/4
f 314/2/4 309/2/4 313/2/4
f 315/1/4 310/1/4 314/1/4
f 321/3/4 317/3/4 316/3/4
f 322/2/4 318/2/4 317/2/4
f 322/3/4 317/3/4 321/3/4
f 323/1/4 319/1/4 318/1/4
f 323/2/4 318/2/4 322/2/4
f 324/1/4 319/1/4 323/1/4
f 325/3/4 322/3/4 321/3/4
f 325/3/4 321/3/4 320/3/4
f 326/3/4 322/3/4 325/3/4
f 327/6/5 328/6/5 331/6/5
f 331/6/5 328/6/5 332/6/5
f 329/6/5 330/6/5 333/6/5
f 333/6/5 330/6/5 334/6/5
f 335/6/5 336/6/5 339/6/5
f 339/6/5 336/6/5 340/6/5
f 337/6/5 338/6/5 341/6/5
f 341/6/5 338/6/5 342/6/5
f 340/5/5 341/5/5 343/5/5
f 343/5/5 341/5/5 344/5/5
f 344/5/5 341/5/5 345/5/5
f 343/5/5 344/5/5 346/5/5
f 344/6/5 345/6/5 347/6/5
f 346/5/5 344/5/5 347/5/5
f 347/6/5 345/6/5 348/6/5
f 349/6/5 350/6/5 351/6/5
f 351/6/5 350/6/5 352/6/5
f 353/6/5 354/6/5 355/6/5
f 355/6/5 354/6/5 356/6/5
f 355/5/5 356/5/5 358/5/5
f 358/5/5 356/5/5 359/5/5
f 357/5/5 358/5/5 360/5/5
f 360/5/5 358/5/5 361/5/5
f 362/4/5 363/4/5 364/4/5
f 364/4/5 363/4/5 365/4/5
f 365/4/5 366/4/5 369/4/5
f 369/4/5 366/4/5 370/4/5
f 367/3/5 368/3/5 371/3/5
f 371/3/5 368/3/5 372/3/5
f 370/3/5 371/3/5 373/3/5
f 373/3/5 371/3/5 374/3/5
f 375/3/5 376/3/5 377/3/5
f 377/3/5 376/3/5 378/3/5
f 378/3/5 379/3/5 380/3/5
f 380/3/5 379/3/5 381/3/5
f 385/1/6 383/1/6 382/1/6
f 386/1/6 383/1/6 385/1/6
f 387/3/6 385/3/6 384/3/6
f 388/3/6 385/3/6 387/3/6
f 392/1/6 390/1/6 389/1/6
f 393/1/6 390/1/6 392/1/6
f 394/1/6 392/1/6 391/1/6
f 395/1/6 392/1/6 394/1/6
f 398/1/6 397/1/6 396/1/6
f 399/1/6 397/1/6 398/1/6
f 402/1/6 399/1/6 398/1/6
f 402/1/6 400/1/6 399/1/6
f 403/1/6 400/1/6 402/1/6
f 404/1/6 400/1/6 403/1/6
f 407/3/6 402/3/6 401/3/6
f 407/3/6 403/3/6 402/3/6
f 408/3/6 403/3/6 407/3/6
f 409/1/6 406/1/6 405/1/6
f 410/3/6 407/3/6 406/3/6
f 410/1/6 406/1/6 409/1/6
f 411/3/6 407/3/6 410/3/6
f 412/1/6 411/1/6 410/1/6
f 413/1/6 411/1/6 412/1/6
f 416/1/6 415/1/6 414/1/6
f 417/1/6 415/1/6 416/1/6
f 419/3/6 417/3/6 416/3/6
f 420/3/6 417/3/6 419/3/6
f 421/3/6 419/3/6 418/3/6
f 422/3/6 419/3/6 421/3/6
f 426/1/6 424/1/6 423/1/6
f 427/1/6 424/1/6 426/1/6
f 428/1/6 426/1/6 425/1/6
f 428/3/6 427/3/6 426/3/6
f 429/3/6 427/3/6 428/3/6
f 430/1/6 428/1/6 425/1/6
f 431/1/6 428/1/6 430/1/6
