# MagicaVoxel @ Ephtracy

# group
o 

# material
mtllib Leg-7.mtl
usemtl palette

# normals
vn -1 0 0
vn 1 0 0
vn 0 0 1
vn 0 0 -1
vn 0 -1 0
vn 0 1 0

# texcoords
vt 0.693359 0.5
vt 0.705078 0.5
vt 0.712891 0.5

# verts
v -0.25 0 -0.05
v -0.25 0 -0.45
v -0.25 0 -0.55
v -0.25 0.2 -0.05
v -0.25 0.2 -0.45
v -0.25 0.2 -0.55
v -0.15 -0.1 0.55
v -0.15 -0.1 -0.05
v -0.15 0 -0.05
v -0.15 0.1 0.55
v -0.15 0.1 -0.05
v 0.05 -0.2 0.55
v 0.05 -0.2 0.45
v 0.05 -0.1 0.55
v 0.05 -0.1 0.45
v 0.15 -0.1 0.55
v 0.15 -0.1 0.45
v 0.15 0 0.55
v 0.15 0 0.45
v 0.15 0 0.35
v 0.15 0.1 0.45
v 0.15 0.1 0.35
v -0.15 0 -0.45
v -0.15 0 -0.55
v -0.15 0.2 -0.45
v -0.15 0.2 -0.55
v -0.05 0 -0.05
v -0.05 0 -0.45
v -0.05 0.1 -0.05
v -0.05 0.2 -0.05
v -0.05 0.2 -0.45
v 0.05 -0.1 0.55
v 0.05 -0.1 0.45
v 0.05 -0.1 -0.05
v 0.05 0 0.55
v 0.05 0 0.45
v 0.05 0 0.35
v 0.05 0 0.25
v 0.05 0.1 0.45
v 0.05 0.1 0.35
v 0.05 0.1 0.25
v 0.05 0.1 -0.05
v 0.25 -0.2 0.55
v 0.25 -0.2 0.45
v 0.25 0 0.55
v 0.25 0 0.45
v 0.25 0 0.25
v 0.25 0.1 0.55
v 0.25 0.1 0.45
v 0.25 0.1 0.25
v -0.15 -0.1 0.55
v -0.15 0.1 0.55
v 0.05 -0.2 0.55
v 0.05 -0.1 0.55
v 0.05 0 0.55
v 0.05 0.1 0.55
v 0.15 -0.1 0.55
v 0.15 0 0.55
v 0.15 0.1 0.55
v 0.25 -0.2 0.55
v 0.25 0 0.55
v 0.25 0.1 0.55
v 0.05 0 0.35
v 0.05 0.1 0.35
v 0.15 0 0.35
v 0.15 0.1 0.35
v -0.25 0 -0.05
v -0.25 0.2 -0.05
v -0.15 0 -0.05
v -0.15 0.1 -0.05
v -0.05 0.1 -0.05
v -0.05 0.2 -0.05
v 0.05 -0.2 0.45
v 0.05 -0.1 0.45
v 0.05 0 0.45
v 0.05 0.1 0.45
v 0.15 -0.1 0.45
v 0.15 0 0.45
v 0.15 0.1 0.45
v 0.25 -0.2 0.45
v 0.25 0 0.45
v 0.05 0 0.25
v 0.05 0.1 0.25
v 0.25 0 0.25
v 0.25 0.1 0.25
v -0.15 -0.1 -0.05
v -0.15 0 -0.05
v -0.05 0 -0.05
v -0.05 0.1 -0.05
v 0.05 -0.1 -0.05
v 0.05 0.1 -0.05
v -0.15 0 -0.45
v -0.15 0.2 -0.45
v -0.05 0 -0.45
v -0.05 0.2 -0.45
v -0.25 0 -0.55
v -0.25 0.2 -0.55
v -0.15 0 -0.55
v -0.15 0.2 -0.55
v 0.05 -0.2 0.55
v 0.25 -0.2 0.55
v 0.05 -0.2 0.45
v 0.25 -0.2 0.45
v -0.15 -0.1 0.55
v 0.05 -0.1 0.55
v 0.05 -0.1 0.45
v -0.15 -0.1 -0.05
v 0.05 -0.1 -0.05
v 0.05 0 0.55
v 0.15 0 0.55
v 0.05 0 0.45
v 0.15 0 0.45
v 0.25 0 0.45
v 0.05 0 0.35
v 0.15 0 0.35
v 0.05 0 0.25
v 0.25 0 0.25
v -0.25 0 -0.05
v -0.15 0 -0.05
v -0.05 0 -0.05
v -0.25 0 -0.45
v -0.15 0 -0.45
v -0.05 0 -0.45
v -0.25 0 -0.55
v -0.15 0 -0.55
v 0.05 -0.1 0.55
v 0.15 -0.1 0.55
v 0.05 -0.1 0.45
v 0.15 -0.1 0.45
v -0.15 0.1 0.55
v 0.05 0.1 0.55
v 0.15 0.1 0.55
v 0.25 0.1 0.55
v 0.05 0.1 0.45
v 0.15 0.1 0.45
v 0.25 0.1 0.45
v 0.05 0.1 0.35
v 0.15 0.1 0.35
v 0.05 0.1 0.25
v 0.25 0.1 0.25
v -0.15 0.1 -0.05
v -0.05 0.1 -0.05
v 0.05 0.1 -0.05
v -0.25 0.2 -0.05
v -0.05 0.2 -0.05
v -0.25 0.2 -0.45
v -0.15 0.2 -0.45
v -0.05 0.2 -0.45
v -0.25 0.2 -0.55
v -0.15 0.2 -0.55

# faces
f 4/1/1 2/1/1 1/1/1
f 5/2/1 3/2/1 2/2/1
f 5/1/1 2/1/1 4/1/1
f 6/2/1 3/2/1 5/2/1
f 9/1/1 8/1/1 7/1/1
f 10/1/1 9/1/1 7/1/1
f 11/1/1 9/1/1 10/1/1
f 14/3/1 13/3/1 12/3/1
f 15/3/1 13/3/1 14/3/1
f 18/3/1 17/3/1 16/3/1
f 19/3/1 17/3/1 18/3/1
f 21/3/1 20/3/1 19/3/1
f 22/3/1 20/3/1 21/3/1
f 23/2/2 24/2/2 25/2/2
f 25/2/2 24/2/2 26/2/2
f 27/1/2 28/1/2 29/1/2
f 29/1/2 28/1/2 30/1/2
f 30/1/2 28/1/2 31/1/2
f 32/1/2 33/1/2 35/1/2
f 33/1/2 34/1/2 35/1/2
f 35/1/2 34/1/2 36/1/2
f 36/1/2 34/1/2 37/1/2
f 37/1/2 34/1/2 38/1/2
f 36/1/2 37/1/2 39/1/2
f 39/1/2 37/1/2 40/1/2
f 38/1/2 34/1/2 41/1/2
f 41/1/2 34/1/2 42/1/2
f 43/3/2 44/3/2 45/3/2
f 45/3/2 44/3/2 46/3/2
f 45/2/2 46/2/2 48/2/2
f 46/3/2 47/3/2 49/3/2
f 48/2/2 46/2/2 49/2/2
f 49/3/2 47/3/2 50/3/2
f 54/1/3 52/1/3 51/1/3
f 55/1/3 52/1/3 54/1/3
f 56/1/3 52/1/3 55/1/3
f 57/3/3 54/3/3 53/3/3
f 58/3/3 56/3/3 55/3/3
f 59/3/3 56/3/3 58/3/3
f 60/3/3 57/3/3 53/3/3
f 60/3/3 58/3/3 57/3/3
f 61/2/3 59/2/3 58/2/3
f 61/3/3 58/3/3 60/3/3
f 62/2/3 59/2/3 61/2/3
f 65/3/3 64/3/3 63/3/3
f 66/3/3 64/3/3 65/3/3
f 69/1/3 68/1/3 67/1/3
f 70/1/3 68/1/3 69/1/3
f 71/1/3 68/1/3 70/1/3
f 72/1/3 68/1/3 71/1/3
f 73/3/4 74/3/4 77/3/4
f 75/3/4 76/3/4 78/3/4
f 78/3/4 76/3/4 79/3/4
f 73/3/4 77/3/4 80/3/4
f 77/3/4 78/3/4 80/3/4
f 80/3/4 78/3/4 81/3/4
f 82/3/4 83/3/4 84/3/4
f 84/3/4 83/3/4 85/3/4
f 86/1/4 87/1/4 88/1/4
f 86/1/4 88/1/4 90/1/4
f 88/1/4 89/1/4 90/1/4
f 90/1/4 89/1/4 91/1/4
f 92/1/4 93/1/4 94/1/4
f 94/1/4 93/1/4 95/1/4
f 96/2/4 97/2/4 98/2/4
f 98/2/4 97/2/4 99/2/4
f 102/3/5 101/3/5 100/3/5
f 103/3/5 101/3/5 102/3/5
f 106/1/5 105/1/5 104/1/5
f 107/1/5 106/1/5 104/1/5
f 108/1/5 106/1/5 107/1/5
f 111/3/5 110/3/5 109/3/5
f 112/3/5 110/3/5 111/3/5
f 115/3/5 113/3/5 112/3/5
f 116/3/5 115/3/5 114/3/5
f 117/3/5 113/3/5 115/3/5
f 117/3/5 115/3/5 116/3/5
f 121/1/5 119/1/5 118/1/5
f 121/1/5 120/1/5 119/1/5
f 122/1/5 120/1/5 121/1/5
f 123/1/5 120/1/5 122/1/5
f 124/2/5 122/2/5 121/2/5
f 125/2/5 122/2/5 124/2/5
f 126/3/6 127/3/6 128/3/6
f 128/3/6 127/3/6 129/3/6
f 130/1/6 131/1/6 134/1/6
f 131/3/6 132/3/6 134/3/6
f 132/2/6 133/2/6 135/2/6
f 134/3/6 132/3/6 135/3/6
f 135/2/6 133/2/6 136/2/6
f 130/1/6 134/1/6 137/1/6
f 135/3/6 136/3/6 138/3/6
f 130/1/6 137/1/6 139/1/6
f 137/3/6 138/3/6 139/3/6
f 138/3/6 136/3/6 140/3/6
f 139/3/6 138/3/6 140/3/6
f 130/1/6 139/1/6 141/1/6
f 141/1/6 139/1/6 142/1/6
f 142/1/6 139/1/6 143/1/6
f 144/1/6 145/1/6 146/1/6
f 146/1/6 145/1/6 147/1/6
f 147/1/6 145/1/6 148/1/6
f 146/2/6 147/2/6 149/2/6
f 149/2/6 147/2/6 150/2/6
