# MagicaVoxel @ Ephtracy

# group
o 

# material
mtllib Leg-36.mtl
usemtl palette

# normals
vn -1 0 0
vn 1 0 0
vn 0 0 1
vn 0 0 -1
vn 0 -1 0
vn 0 1 0

# texcoords
vt 0.705078 0.5
vt 0.982422 0.5

# verts
v -0.55 -0.3 0.1
v -0.55 -0.3 -0.1
v -0.55 -0.1 0.1
v -0.55 -0.1 -0.1
v -0.15 -0.1 0.2
v -0.15 -0.1 0.1
v -0.15 -0.1 -0.1
v -0.15 -0.1 -0.2
v -0.15 0 0.1
v -0.15 0 -0.1
v -0.15 0.1 0.2
v -0.15 0.1 -0.2
v -0.05 -0.1 0.1
v -0.05 -0.1 -0.1
v -0.05 0 0.3
v -0.05 0 0.2
v -0.05 0 0.1
v -0.05 0 -0.1
v -0.05 0 -0.2
v -0.05 0 -0.3
v -0.05 0.1 0.3
v -0.05 0.1 0.2
v -0.05 0.1 -0.2
v -0.05 0.1 -0.3
v 0.05 0.1 0.3
v 0.05 0.1 -0.3
v 0.05 0.2 0.3
v 0.05 0.2 0.2
v 0.05 0.2 -0.2
v 0.05 0.2 -0.3
v 0.05 0.3 0.2
v 0.05 0.3 -0.2
v 0.15 -0.1 0.1
v 0.15 -0.1 -0.1
v 0.15 0 0.1
v 0.15 0 -0.1
v -0.15 -0.3 0.1
v -0.15 -0.3 -0.1
v -0.15 -0.2 0.1
v -0.15 -0.2 -0.1
v 0.05 -0.2 0.1
v 0.05 -0.2 -0.1
v 0.05 -0.1 0.1
v 0.05 -0.1 -0.1
v 0.05 0 0.1
v 0.05 0 -0.1
v 0.25 -0.1 0.2
v 0.25 -0.1 0.1
v 0.25 -0.1 -0.1
v 0.25 -0.1 -0.2
v 0.25 0 0.3
v 0.25 0 0.2
v 0.25 0 -0.2
v 0.25 0 -0.3
v 0.25 0.1 0.1
v 0.25 0.1 -0.1
v 0.25 0.2 0.3
v 0.25 0.2 0.2
v 0.25 0.2 -0.2
v 0.25 0.2 -0.3
v 0.25 0.3 0.2
v 0.25 0.3 -0.2
v 0.55 -0.1 0.1
v 0.55 -0.1 -0.1
v 0.55 0.1 0.1
v 0.55 0.1 -0.1
v -0.05 0 0.3
v -0.05 0.1 0.3
v 0.05 0.1 0.3
v 0.05 0.2 0.3
v 0.25 0 0.3
v 0.25 0.2 0.3
v -0.15 -0.1 0.2
v -0.15 0.1 0.2
v -0.05 0 0.2
v -0.05 0.1 0.2
v 0.05 0.2 0.2
v 0.05 0.3 0.2
v 0.25 -0.1 0.2
v 0.25 0 0.2
v 0.25 0.2 0.2
v 0.25 0.3 0.2
v -0.55 -0.3 0.1
v -0.55 -0.1 0.1
v -0.15 -0.3 0.1
v -0.15 -0.2 0.1
v -0.15 -0.1 0.1
v 0.05 -0.2 0.1
v 0.05 -0.1 0.1
v 0.25 -0.1 0.1
v 0.25 0.1 0.1
v 0.55 -0.1 0.1
v 0.55 0.1 0.1
v -0.15 -0.1 -0.1
v -0.15 0 -0.1
v -0.05 -0.1 -0.1
v -0.05 0 -0.1
v 0.05 -0.1 -0.1
v 0.05 0 -0.1
v 0.15 -0.1 -0.1
v 0.15 0 -0.1
v -0.15 -0.1 0.1
v -0.15 0 0.1
v -0.05 -0.1 0.1
v -0.05 0 0.1
v 0.05 -0.1 0.1
v 0.05 0 0.1
v 0.15 -0.1 0.1
v 0.15 0 0.1
v -0.55 -0.3 -0.1
v -0.55 -0.1 -0.1
v -0.15 -0.3 -0.1
v -0.15 -0.2 -0.1
v -0.15 -0.1 -0.1
v 0.05 -0.2 -0.1
v 0.05 -0.1 -0.1
v 0.25 -0.1 -0.1
v 0.25 0.1 -0.1
v 0.55 -0.1 -0.1
v 0.55 0.1 -0.1
v -0.15 -0.1 -0.2
v -0.15 0.1 -0.2
v -0.05 0 -0.2
v -0.05 0.1 -0.2
v 0.05 0.2 -0.2
v 0.05 0.3 -0.2
v 0.25 -0.1 -0.2
v 0.25 0 -0.2
v 0.25 0.2 -0.2
v 0.25 0.3 -0.2
v -0.05 0 -0.3
v -0.05 0.1 -0.3
v 0.05 0.1 -0.3
v 0.05 0.2 -0.3
v 0.25 0 -0.3
v 0.25 0.2 -0.3
v -0.55 -0.3 0.1
v -0.15 -0.3 0.1
v -0.55 -0.3 -0.1
v -0.15 -0.3 -0.1
v -0.15 -0.2 0.1
v 0.05 -0.2 0.1
v -0.15 -0.2 -0.1
v 0.05 -0.2 -0.1
v -0.15 -0.1 0.2
v 0.25 -0.1 0.2
v -0.15 -0.1 0.1
v 0.05 -0.1 0.1
v 0.15 -0.1 0.1
v 0.25 -0.1 0.1
v 0.55 -0.1 0.1
v -0.15 -0.1 -0.1
v 0.05 -0.1 -0.1
v 0.15 -0.1 -0.1
v 0.25 -0.1 -0.1
v 0.55 -0.1 -0.1
v -0.15 -0.1 -0.2
v 0.25 -0.1 -0.2
v -0.05 0 0.3
v 0.25 0 0.3
v -0.05 0 0.2
v 0.25 0 0.2
v -0.15 0 0.1
v -0.05 0 0.1
v 0.05 0 0.1
v 0.15 0 0.1
v -0.15 0 -0.1
v -0.05 0 -0.1
v 0.05 0 -0.1
v 0.15 0 -0.1
v -0.05 0 -0.2
v 0.25 0 -0.2
v -0.05 0 -0.3
v 0.25 0 -0.3
v -0.55 -0.1 0.1
v -0.15 -0.1 0.1
v -0.05 -0.1 0.1
v -0.55 -0.1 -0.1
v -0.15 -0.1 -0.1
v -0.05 -0.1 -0.1
v -0.05 0.1 0.3
v 0.05 0.1 0.3
v -0.15 0.1 0.2
v -0.05 0.1 0.2
v 0.25 0.1 0.1
v 0.55 0.1 0.1
v 0.25 0.1 -0.1
v 0.55 0.1 -0.1
v -0.15 0.1 -0.2
v -0.05 0.1 -0.2
v -0.05 0.1 -0.3
v 0.05 0.1 -0.3
v 0.05 0.2 0.3
v 0.25 0.2 0.3
v 0.05 0.2 0.2
v 0.25 0.2 0.2
v 0.05 0.2 -0.2
v 0.25 0.2 -0.2
v 0.05 0.2 -0.3
v 0.25 0.2 -0.3
v 0.05 0.3 0.2
v 0.25 0.3 0.2
v 0.05 0.3 -0.2
v 0.25 0.3 -0.2

# faces
f 3/2/1 2/2/1 1/2/1
f 4/2/1 2/2/1 3/2/1
f 9/1/1 6/1/1 5/1/1
f 10/1/1 8/1/1 7/1/1
f 11/1/1 9/1/1 5/1/1
f 11/1/1 10/1/1 9/1/1
f 12/1/1 8/1/1 10/1/1
f 12/1/1 10/1/1 11/1/1
f 17/2/1 14/2/1 13/2/1
f 18/2/1 14/2/1 17/2/1
f 21/1/1 16/1/1 15/1/1
f 22/1/1 16/1/1 21/1/1
f 23/1/1 20/1/1 19/1/1
f 24/1/1 20/1/1 23/1/1
f 27/1/1 26/1/1 25/1/1
f 28/1/1 26/1/1 27/1/1
f 29/1/1 26/1/1 28/1/1
f 30/1/1 26/1/1 29/1/1
f 31/1/1 29/1/1 28/1/1
f 32/1/1 29/1/1 31/1/1
f 35/1/1 34/1/1 33/1/1
f 36/1/1 34/1/1 35/1/1
f 37/2/2 38/2/2 39/2/2
f 39/2/2 38/2/2 40/2/2
f 41/2/2 42/2/2 43/2/2
f 43/2/2 42/2/2 44/2/2
f 43/2/2 44/2/2 45/2/2
f 45/2/2 44/2/2 46/2/2
f 47/1/2 48/1/2 52/1/2
f 49/1/2 50/1/2 53/1/2
f 51/1/2 52/1/2 55/1/2
f 52/1/2 48/1/2 55/1/2
f 53/1/2 54/1/2 56/1/2
f 49/1/2 53/1/2 56/1/2
f 51/1/2 55/1/2 57/1/2
f 55/1/2 56/1/2 57/1/2
f 57/1/2 56/1/2 58/1/2
f 56/1/2 54/1/2 59/1/2
f 58/1/2 56/1/2 59/1/2
f 59/1/2 54/1/2 60/1/2
f 58/1/2 59/1/2 61/1/2
f 61/1/2 59/1/2 62/1/2
f 63/2/2 64/2/2 65/2/2
f 65/2/2 64/2/2 66/2/2
f 69/1/3 68/1/3 67/1/3
f 71/1/3 69/1/3 67/1/3
f 71/1/3 70/1/3 69/1/3
f 72/1/3 70/1/3 71/1/3
f 75/1/3 74/1/3 73/1/3
f 76/1/3 74/1/3 75/1/3
f 79/1/3 75/1/3 73/1/3
f 80/1/3 75/1/3 79/1/3
f 81/1/3 78/1/3 77/1/3
f 82/1/3 78/1/3 81/1/3
f 85/2/3 84/2/3 83/2/3
f 86/2/3 84/2/3 85/2/3
f 87/2/3 84/2/3 86/2/3
f 88/2/3 87/2/3 86/2/3
f 89/2/3 87/2/3 88/2/3
f 92/2/3 91/2/3 90/2/3
f 93/2/3 91/2/3 92/2/3
f 96/1/3 95/1/3 94/1/3
f 97/1/3 95/1/3 96/1/3
f 100/1/3 99/1/3 98/1/3
f 101/1/3 99/1/3 100/1/3
f 102/1/4 103/1/4 104/1/4
f 104/1/4 103/1/4 105/1/4
f 106/1/4 107/1/4 108/1/4
f 108/1/4 107/1/4 109/1/4
f 110/2/4 111/2/4 112/2/4
f 112/2/4 111/2/4 113/2/4
f 113/2/4 111/2/4 114/2/4
f 113/2/4 114/2/4 115/2/4
f 115/2/4 114/2/4 116/2/4
f 117/2/4 118/2/4 119/2/4
f 119/2/4 118/2/4 120/2/4
f 121/1/4 122/1/4 123/1/4
f 123/1/4 122/1/4 124/1/4
f 121/1/4 123/1/4 127/1/4
f 127/1/4 123/1/4 128/1/4
f 125/1/4 126/1/4 129/1/4
f 129/1/4 126/1/4 130/1/4
f 131/1/4 132/1/4 133/1/4
f 131/1/4 133/1/4 135/1/4
f 133/1/4 134/1/4 135/1/4
f 135/1/4 134/1/4 136/1/4
f 139/2/5 138/2/5 137/2/5
f 140/2/5 138/2/5 139/2/5
f 143/2/5 142/2/5 141/2/5
f 144/2/5 142/2/5 143/2/5
f 147/1/5 146/1/5 145/1/5
f 148/1/5 146/1/5 147/1/5
f 149/1/5 146/1/5 148/1/5
f 150/1/5 146/1/5 149/1/5
f 154/1/5 150/1/5 149/1/5
f 155/2/5 151/2/5 150/2/5
f 155/1/5 150/1/5 154/1/5
f 156/2/5 151/2/5 155/2/5
f 157/1/5 154/1/5 153/1/5
f 157/1/5 153/1/5 152/1/5
f 157/1/5 155/1/5 154/1/5
f 158/1/5 155/1/5 157/1/5
f 161/1/5 160/1/5 159/1/5
f 162/1/5 160/1/5 161/1/5
f 167/1/5 164/1/5 163/1/5
f 168/1/5 164/1/5 167/1/5
f 169/2/5 166/2/5 165/2/5
f 170/2/5 166/2/5 169/2/5
f 173/1/5 172/1/5 171/1/5
f 174/1/5 172/1/5 173/1/5
f 175/2/6 176/2/6 178/2/6
f 176/2/6 177/2/6 178/2/6
f 178/2/6 177/2/6 179/2/6
f 179/2/6 177/2/6 180/2/6
f 181/1/6 182/1/6 184/1/6
f 185/2/6 186/2/6 187/2/6
f 187/2/6 186/2/6 188/2/6
f 183/1/6 184/1/6 189/1/6
f 184/1/6 182/1/6 190/1/6
f 189/1/6 184/1/6 190/1/6
f 190/1/6 182/1/6 191/1/6
f 191/1/6 182/1/6 192/1/6
f 193/1/6 194/1/6 195/1/6
f 195/1/6 194/1/6 196/1/6
f 197/1/6 198/1/6 199/1/6
f 199/1/6 198/1/6 200/1/6
f 201/1/6 202/1/6 203/1/6
f 203/1/6 202/1/6 204/1/6
