# MagicaVoxel @ Ephtracy

# group
o 

# material
mtllib Leg-66.mtl
usemtl palette

# normals
vn -1 0 0
vn 1 0 0
vn 0 0 1
vn 0 0 -1
vn 0 -1 0
vn 0 1 0

# texcoords
vt 0.751953 0.5
vt 0.755859 0.5

# verts
v -0.25 -0.45 0.1
v -0.25 -0.45 -0.1
v -0.25 -0.25 0.1
v -0.25 -0.25 -0.1
v -0.25 0.35 0.2
v -0.25 0.35 0.1
v -0.25 0.45 0.2
v -0.25 0.45 -0.1
v -0.15 -0.45 -0.1
v -0.15 -0.45 -0.2
v -0.15 -0.25 -0.1
v -0.15 -0.25 -0.2
v -0.15 0.35 -0.1
v -0.15 0.35 -0.2
v 0.15 -0.45 0.1
v 0.15 -0.45 -0.1
v 0.15 -0.25 0.1
v 0.15 -0.25 -0.1
v 0.15 0.35 0.2
v 0.15 0.35 0.1
v 0.15 0.35 0
v 0.15 0.35 -0.1
v 0.15 0.45 0.2
v 0.15 0.45 0
v -0.15 -0.45 0.1
v -0.15 -0.45 -0.1
v -0.15 -0.25 0.1
v -0.15 -0.25 -0.1
v -0.15 0.35 0.2
v -0.15 0.35 0.1
v -0.15 0.35 0
v -0.15 0.35 -0.1
v -0.15 0.45 0.2
v -0.15 0.45 0
v 0.15 -0.45 -0.1
v 0.15 -0.45 -0.2
v 0.15 -0.25 -0.1
v 0.15 -0.25 -0.2
v 0.15 0.35 -0.1
v 0.15 0.35 -0.2
v 0.25 -0.45 0.1
v 0.25 -0.45 -0.1
v 0.25 -0.25 0.1
v 0.25 -0.25 -0.1
v 0.25 0.35 0.2
v 0.25 0.35 0.1
v 0.25 0.45 0.2
v 0.25 0.45 -0.1
v -0.25 0.35 0.2
v -0.25 0.45 0.2
v -0.15 0.35 0.2
v -0.15 0.45 0.2
v 0.15 0.35 0.2
v 0.15 0.45 0.2
v 0.25 0.35 0.2
v 0.25 0.45 0.2
v -0.25 -0.45 0.1
v -0.25 -0.25 0.1
v -0.25 0.35 0.1
v -0.15 -0.45 0.1
v -0.15 -0.25 0.1
v -0.15 0.35 0.1
v 0.15 -0.45 0.1
v 0.15 -0.25 0.1
v 0.15 0.35 0.1
v 0.25 -0.45 0.1
v 0.25 -0.25 0.1
v 0.25 0.35 0.1
v -0.15 0.35 0
v -0.15 0.45 0
v 0.15 0.35 0
v 0.15 0.45 0
v -0.15 -0.45 -0.1
v -0.15 -0.25 -0.1
v -0.15 0.35 -0.1
v 0.15 -0.45 -0.1
v 0.15 -0.25 -0.1
v 0.15 0.35 -0.1
v -0.25 -0.45 -0.1
v -0.25 -0.25 -0.1
v -0.25 0.45 -0.1
v -0.15 -0.45 -0.1
v -0.15 -0.25 -0.1
v -0.15 0.35 -0.1
v 0.15 -0.45 -0.1
v 0.15 -0.25 -0.1
v 0.15 0.35 -0.1
v 0.25 -0.45 -0.1
v 0.25 -0.25 -0.1
v 0.25 0.45 -0.1
v -0.15 -0.45 -0.2
v -0.15 -0.25 -0.2
v -0.15 0.35 -0.2
v 0.15 -0.45 -0.2
v 0.15 -0.25 -0.2
v 0.15 0.35 -0.2
v -0.25 -0.45 0.1
v -0.15 -0.45 0.1
v 0.15 -0.45 0.1
v 0.25 -0.45 0.1
v -0.25 -0.45 -0.1
v -0.15 -0.45 -0.1
v 0.15 -0.45 -0.1
v 0.25 -0.45 -0.1
v -0.15 -0.45 -0.2
v 0.15 -0.45 -0.2
v -0.25 0.35 0.2
v -0.15 0.35 0.2
v 0.15 0.35 0.2
v 0.25 0.35 0.2
v -0.25 0.35 0.1
v -0.15 0.35 0.1
v 0.15 0.35 0.1
v 0.25 0.35 0.1
v -0.15 0.35 0
v 0.15 0.35 0
v -0.15 0.35 -0.1
v 0.15 0.35 -0.1
v -0.15 0.35 -0.1
v 0.15 0.35 -0.1
v -0.15 0.35 -0.2
v 0.15 0.35 -0.2
v -0.25 0.45 0.2
v -0.15 0.45 0.2
v 0.15 0.45 0.2
v 0.25 0.45 0.2
v -0.15 0.45 0
v 0.15 0.45 0
v -0.25 0.45 -0.1
v 0.25 0.45 -0.1

# faces
f 3/2/1 2/2/1 1/2/1
f 4/2/1 2/2/1 3/2/1
f 6/1/1 4/1/1 3/1/1
f 7/1/1 6/1/1 5/1/1
f 8/1/1 4/1/1 6/1/1
f 8/1/1 6/1/1 7/1/1
f 11/2/1 10/2/1 9/2/1
f 12/2/1 10/2/1 11/2/1
f 13/1/1 12/1/1 11/1/1
f 14/1/1 12/1/1 13/1/1
f 17/2/1 16/2/1 15/2/1
f 18/2/1 16/2/1 17/2/1
f 20/1/1 18/1/1 17/1/1
f 21/1/1 18/1/1 20/1/1
f 22/1/1 18/1/1 21/1/1
f 23/1/1 20/1/1 19/1/1
f 23/1/1 21/1/1 20/1/1
f 24/1/1 21/1/1 23/1/1
f 25/2/2 26/2/2 27/2/2
f 27/2/2 26/2/2 28/2/2
f 27/1/2 28/1/2 30/1/2
f 30/1/2 28/1/2 31/1/2
f 31/1/2 28/1/2 32/1/2
f 29/1/2 30/1/2 33/1/2
f 30/1/2 31/1/2 33/1/2
f 33/1/2 31/1/2 34/1/2
f 35/2/2 36/2/2 37/2/2
f 37/2/2 36/2/2 38/2/2
f 37/1/2 38/1/2 39/1/2
f 39/1/2 38/1/2 40/1/2
f 41/2/2 42/2/2 43/2/2
f 43/2/2 42/2/2 44/2/2
f 43/1/2 44/1/2 46/1/2
f 45/1/2 46/1/2 47/1/2
f 46/1/2 44/1/2 48/1/2
f 47/1/2 46/1/2 48/1/2
f 51/1/3 50/1/3 49/1/3
f 52/1/3 50/1/3 51/1/3
f 55/1/3 54/1/3 53/1/3
f 56/1/3 54/1/3 55/1/3
f 60/2/3 58/2/3 57/2/3
f 61/1/3 59/1/3 58/1/3
f 61/2/3 58/2/3 60/2/3
f 62/1/3 59/1/3 61/1/3
f 66/2/3 64/2/3 63/2/3
f 67/1/3 65/1/3 64/1/3
f 67/2/3 64/2/3 66/2/3
f 68/1/3 65/1/3 67/1/3
f 71/1/3 70/1/3 69/1/3
f 72/1/3 70/1/3 71/1/3
f 76/2/3 74/2/3 73/2/3
f 77/1/3 75/1/3 74/1/3
f 77/2/3 74/2/3 76/2/3
f 78/1/3 75/1/3 77/1/3
f 79/2/4 80/2/4 82/2/4
f 80/1/4 81/1/4 83/1/4
f 82/2/4 80/2/4 83/2/4
f 83/1/4 81/1/4 84/1/4
f 84/1/4 81/1/4 87/1/4
f 85/2/4 86/2/4 88/2/4
f 86/1/4 87/1/4 89/1/4
f 88/2/4 86/2/4 89/2/4
f 87/1/4 81/1/4 90/1/4
f 89/1/4 87/1/4 90/1/4
f 91/2/4 92/2/4 94/2/4
f 92/1/4 93/1/4 95/1/4
f 94/2/4 92/2/4 95/2/4
f 95/1/4 93/1/4 96/1/4
f 101/2/5 98/2/5 97/2/5
f 102/2/5 98/2/5 101/2/5
f 103/2/5 100/2/5 99/2/5
f 104/2/5 100/2/5 103/2/5
f 105/2/5 103/2/5 102/2/5
f 106/2/5 103/2/5 105/2/5
f 111/1/5 108/1/5 107/1/5
f 112/1/5 108/1/5 111/1/5
f 113/1/5 110/1/5 109/1/5
f 114/1/5 110/1/5 113/1/5
f 117/1/5 116/1/5 115/1/5
f 118/1/5 116/1/5 117/1/5
f 119/1/6 120/1/6 121/1/6
f 121/1/6 120/1/6 122/1/6
f 123/1/6 124/1/6 127/1/6
f 125/1/6 126/1/6 128/1/6
f 123/1/6 127/1/6 129/1/6
f 127/1/6 128/1/6 129/1/6
f 128/1/6 126/1/6 130/1/6
f 129/1/6 128/1/6 130/1/6
