# MagicaVoxel @ Ephtracy

# group
o 

# material
mtllib Leg-64.mtl
usemtl palette

# normals
vn -1 0 0
vn 1 0 0
vn 0 0 1
vn 0 0 -1
vn 0 -1 0
vn 0 1 0

# texcoords
vt 0.712891 0.5
vt 0.775391 0.5
vt 0.783203 0.5
vt 0.798828 0.5

# verts
v -0.2 -0.5 0.15
v -0.2 -0.5 -0.05
v -0.2 0.5 0.15
v -0.2 0.5 -0.05
v -0.2 0.5 -0.25
v -0.2 0.6 -0.05
v -0.2 0.6 -0.25
v -0.1 -0.7 0.05
v -0.1 -0.7 -0.05
v -0.1 -0.6 0.15
v -0.1 -0.6 0.05
v -0.1 -0.5 0.15
v -0.1 -0.5 -0.05
v -0.1 -0.5 -0.15
v -0.1 -0.4 0.25
v -0.1 -0.4 0.15
v -0.1 -0.3 0.25
v -0.1 -0.3 0.15
v -0.1 -0.2 0.25
v -0.1 -0.2 0.15
v -0.1 -0.1 0.25
v -0.1 -0.1 0.15
v -0.1 0 0.25
v -0.1 0 0.15
v -0.1 0.5 0.15
v -0.1 0.5 0.05
v -0.1 0.5 -0.05
v -0.1 0.5 -0.15
v -0.1 0.6 0.05
v -0.1 0.6 -0.05
v -0.1 0.6 -0.15
v -0.1 0.7 0.25
v -0.1 0.7 -0.15
v 0 0.5 0.05
v 0 0.5 -0.05
v 0 0.6 0.05
v 0 0.6 -0.05
v 0.1 -0.7 0.05
v 0.1 -0.7 -0.05
v 0.1 -0.6 0.15
v 0.1 -0.6 0.05
v 0.1 -0.5 0.15
v 0.1 -0.5 -0.05
v 0.1 0.6 0.15
v 0.1 0.6 0.05
v 0.1 0.6 -0.05
v 0.1 0.7 0.15
v 0.1 0.7 -0.05
v 0 -0.7 0.05
v 0 -0.7 -0.05
v 0 -0.6 0.15
v 0 -0.6 0.05
v 0 -0.5 0.15
v 0 -0.5 -0.05
v 0 0.5 -0.15
v 0 0.5 -0.25
v 0 0.6 0.15
v 0 0.6 0.05
v 0 0.6 -0.05
v 0 0.6 -0.15
v 0 0.6 -0.25
v 0 0.7 0.15
v 0 0.7 -0.05
v 0.1 -0.5 -0.05
v 0.1 -0.5 -0.15
v 0.1 -0.4 0.25
v 0.1 -0.4 0.15
v 0.1 -0.3 0.25
v 0.1 -0.3 0.15
v 0.1 -0.2 0.25
v 0.1 -0.2 0.15
v 0.1 -0.1 0.25
v 0.1 -0.1 0.15
v 0.1 0 0.25
v 0.1 0 0.15
v 0.1 0.7 0.25
v 0.1 0.7 0.15
v 0.1 0.7 -0.05
v 0.1 0.7 -0.15
v 0.2 -0.7 0.05
v 0.2 -0.7 -0.05
v 0.2 -0.6 0.15
v 0.2 -0.6 0.05
v 0.2 0.7 0.15
v 0.2 0.7 -0.05
v -0.1 -0.4 0.25
v -0.1 -0.3 0.25
v -0.1 -0.2 0.25
v -0.1 -0.1 0.25
v -0.1 0 0.25
v -0.1 0.7 0.25
v 0.1 -0.4 0.25
v 0.1 -0.3 0.25
v 0.1 -0.2 0.25
v 0.1 -0.1 0.25
v 0.1 0 0.25
v 0.1 0.7 0.25
v -0.2 -0.5 0.15
v -0.2 0.5 0.15
v -0.1 -0.6 0.15
v -0.1 -0.5 0.15
v -0.1 -0.4 0.15
v -0.1 -0.3 0.15
v -0.1 -0.2 0.15
v -0.1 -0.1 0.15
v -0.1 0 0.15
v -0.1 0.5 0.15
v 0 -0.6 0.15
v 0 -0.5 0.15
v 0.1 -0.6 0.15
v 0.1 -0.5 0.15
v 0.1 -0.4 0.15
v 0.1 -0.3 0.15
v 0.1 -0.2 0.15
v 0.1 -0.1 0.15
v 0.1 0 0.15
v 0.1 0.7 0.15
v 0.2 -0.6 0.15
v 0.2 0.7 0.15
v -0.1 -0.7 0.05
v -0.1 -0.6 0.05
v 0 -0.7 0.05
v 0 -0.6 0.05
v 0.1 -0.7 0.05
v 0.1 -0.6 0.05
v 0.2 -0.7 0.05
v 0.2 -0.6 0.05
v -0.2 0.5 -0.05
v -0.2 0.6 -0.05
v -0.1 0.5 -0.05
v -0.1 0.6 -0.05
v 0 0.5 -0.05
v 0 0.6 -0.05
v 0 0.7 -0.05
v 0.1 0.6 -0.05
v 0.1 0.7 -0.05
v 0 0.6 0.15
v 0 0.7 0.15
v 0.1 0.6 0.15
v 0.1 0.7 0.15
v -0.1 0.5 0.05
v -0.1 0.6 0.05
v 0 0.5 0.05
v 0 0.6 0.05
v -0.2 -0.5 -0.05
v -0.2 0.5 -0.05
v -0.1 -0.7 -0.05
v -0.1 -0.5 -0.05
v -0.1 0.5 -0.05
v 0 -0.7 -0.05
v 0 -0.5 -0.05
v 0.1 -0.7 -0.05
v 0.1 -0.5 -0.05
v 0.1 0.7 -0.05
v 0.2 -0.7 -0.05
v 0.2 0.7 -0.05
v -0.1 -0.5 -0.15
v -0.1 0.5 -0.15
v -0.1 0.6 -0.15
v -0.1 0.7 -0.15
v 0 0.5 -0.15
v 0 0.6 -0.15
v 0.1 -0.5 -0.15
v 0.1 0.7 -0.15
v -0.2 0.5 -0.25
v -0.2 0.6 -0.25
v 0 0.5 -0.25
v 0 0.6 -0.25
v -0.1 -0.7 0.05
v 0 -0.7 0.05
v 0.1 -0.7 0.05
v 0.2 -0.7 0.05
v -0.1 -0.7 -0.05
v 0 -0.7 -0.05
v 0.1 -0.7 -0.05
v 0.2 -0.7 -0.05
v -0.1 -0.6 0.15
v 0 -0.6 0.15
v 0.1 -0.6 0.15
v 0.2 -0.6 0.15
v -0.1 -0.6 0.05
v 0 -0.6 0.05
v 0.1 -0.6 0.05
v 0.2 -0.6 0.05
v -0.2 -0.5 0.15
v -0.1 -0.5 0.15
v 0 -0.5 0.15
v 0.1 -0.5 0.15
v -0.2 -0.5 -0.05
v -0.1 -0.5 -0.05
v 0 -0.5 -0.05
v 0.1 -0.5 -0.05
v -0.1 -0.5 -0.15
v 0.1 -0.5 -0.15
v -0.1 -0.4 0.25
v 0.1 -0.4 0.25
v -0.1 -0.4 0.15
v 0.1 -0.4 0.15
v -0.1 -0.2 0.25
v 0.1 -0.2 0.25
v -0.1 -0.2 0.15
v 0.1 -0.2 0.15
v -0.1 0 0.25
v 0.1 0 0.25
v -0.1 0 0.15
v 0.1 0 0.15
v -0.2 0.5 -0.05
v -0.1 0.5 -0.05
v -0.1 0.5 -0.15
v 0 0.5 -0.15
v -0.2 0.5 -0.25
v 0 0.5 -0.25
v -0.1 0.6 0.05
v 0 0.6 0.05
v -0.1 0.6 -0.05
v 0 0.6 -0.05
v -0.1 -0.3 0.25
v 0.1 -0.3 0.25
v -0.1 -0.3 0.15
v 0.1 -0.3 0.15
v -0.1 -0.1 0.25
v 0.1 -0.1 0.25
v -0.1 -0.1 0.15
v 0.1 -0.1 0.15
v -0.2 0.5 0.15
v -0.1 0.5 0.15
v -0.1 0.5 0.05
v 0 0.5 0.05
v -0.2 0.5 -0.05
v -0.1 0.5 -0.05
v 0 0.5 -0.05
v 0 0.6 0.15
v 0.1 0.6 0.15
v 0 0.6 0.05
v 0.1 0.6 0.05
v -0.2 0.6 -0.05
v -0.1 0.6 -0.05
v 0 0.6 -0.05
v 0.1 0.6 -0.05
v -0.1 0.6 -0.15
v 0 0.6 -0.15
v -0.2 0.6 -0.25
v 0 0.6 -0.25
v -0.1 0.7 0.25
v 0.1 0.7 0.25
v 0 0.7 0.15
v 0.1 0.7 0.15
v 0.2 0.7 0.15
v 0 0.7 -0.05
v 0.1 0.7 -0.05
v 0.2 0.7 -0.05
v -0.1 0.7 -0.15
v 0.1 0.7 -0.15

# faces
f 3/3/1 2/3/1 1/3/1
f 4/3/1 2/3/1 3/3/1
f 6/4/1 5/4/1 4/4/1
f 7/4/1 5/4/1 6/4/1
f 11/3/1 9/3/1 8/3/1
f 12/3/1 11/3/1 10/3/1
f 13/3/1 9/3/1 11/3/1
f 13/3/1 11/3/1 12/3/1
f 17/3/1 16/3/1 15/3/1
f 18/3/1 16/3/1 17/3/1
f 21/3/1 20/3/1 19/3/1
f 22/3/1 20/3/1 21/3/1
f 25/3/1 24/3/1 23/3/1
f 27/3/1 14/3/1 13/3/1
f 28/3/1 14/3/1 27/3/1
f 29/3/1 26/3/1 25/3/1
f 32/3/1 25/3/1 23/3/1
f 32/3/1 31/3/1 30/3/1
f 32/3/1 30/3/1 29/3/1
f 32/3/1 29/3/1 25/3/1
f 33/3/1 31/3/1 32/3/1
f 36/2/1 35/2/1 34/2/1
f 37/2/1 35/2/1 36/2/1
f 41/3/1 39/3/1 38/3/1
f 42/3/1 41/3/1 40/3/1
f 43/3/1 39/3/1 41/3/1
f 43/3/1 41/3/1 42/3/1
f 47/3/1 45/3/1 44/3/1
f 47/3/1 46/3/1 45/3/1
f 48/3/1 46/3/1 47/3/1
f 49/3/2 50/3/2 52/3/2
f 51/3/2 52/3/2 53/3/2
f 52/3/2 50/3/2 54/3/2
f 53/3/2 52/3/2 54/3/2
f 55/4/2 56/4/2 60/4/2
f 60/4/2 56/4/2 61/4/2
f 58/3/2 59/3/2 62/3/2
f 57/3/2 58/3/2 62/3/2
f 62/3/2 59/3/2 63/3/2
f 66/3/2 67/3/2 68/3/2
f 68/3/2 67/3/2 69/3/2
f 70/3/2 71/3/2 72/3/2
f 72/3/2 71/3/2 73/3/2
f 74/3/2 75/3/2 76/3/2
f 76/3/2 75/3/2 77/3/2
f 64/3/2 65/3/2 78/3/2
f 78/3/2 65/3/2 79/3/2
f 80/3/2 81/3/2 83/3/2
f 82/3/2 83/3/2 84/3/2
f 83/3/2 81/3/2 85/3/2
f 84/3/2 83/3/2 85/3/2
f 92/3/3 87/3/3 86/3/3
f 93/3/3 87/3/3 92/3/3
f 94/3/3 89/3/3 88/3/3
f 95/3/3 89/3/3 94/3/3
f 96/3/3 91/3/3 90/3/3
f 97/3/3 91/3/3 96/3/3
f 101/3/3 99/3/3 98/3/3
f 102/3/3 99/3/3 101/3/3
f 103/3/3 99/3/3 102/3/3
f 104/3/3 99/3/3 103/3/3
f 105/3/3 99/3/3 104/3/3
f 106/3/3 99/3/3 105/3/3
f 107/3/3 99/3/3 106/3/3
f 108/3/3 101/3/3 100/3/3
f 108/3/3 102/3/3 101/3/3
f 109/3/3 102/3/3 108/3/3
f 111/3/3 102/3/3 109/3/3
f 112/3/3 102/3/3 111/3/3
f 113/3/3 104/3/3 103/3/3
f 114/3/3 104/3/3 113/3/3
f 115/3/3 106/3/3 105/3/3
f 116/3/3 106/3/3 115/3/3
f 118/3/3 116/3/3 115/3/3
f 118/3/3 117/3/3 116/3/3
f 118/3/3 115/3/3 114/3/3
f 118/3/3 114/3/3 113/3/3
f 118/3/3 113/3/3 112/3/3
f 118/3/3 112/3/3 111/3/3
f 118/3/3 111/3/3 110/3/3
f 119/3/3 117/3/3 118/3/3
f 122/3/3 121/3/3 120/3/3
f 123/3/3 121/3/3 122/3/3
f 126/3/3 125/3/3 124/3/3
f 127/3/3 125/3/3 126/3/3
f 130/4/3 129/4/3 128/4/3
f 131/4/3 129/4/3 130/4/3
f 132/3/3 131/3/3 130/3/3
f 133/3/3 131/3/3 132/3/3
f 135/3/3 134/3/3 133/3/3
f 136/3/3 134/3/3 135/3/3
f 137/3/4 138/3/4 139/3/4
f 139/3/4 138/3/4 140/3/4
f 141/3/4 142/3/4 143/3/4
f 143/3/4 142/3/4 144/3/4
f 145/3/4 146/3/4 148/3/4
f 148/3/4 146/3/4 149/3/4
f 147/3/4 148/3/4 150/3/4
f 150/3/4 148/3/4 151/3/4
f 152/3/4 153/3/4 155/3/4
f 153/3/4 154/3/4 155/3/4
f 155/3/4 154/3/4 156/3/4
f 157/3/4 158/3/4 161/3/4
f 159/3/4 160/3/4 162/3/4
f 157/3/4 161/3/4 163/3/4
f 161/3/4 162/3/4 163/3/4
f 162/3/4 160/3/4 164/3/4
f 163/3/4 162/3/4 164/3/4
f 165/4/4 166/4/4 167/4/4
f 167/4/4 166/4/4 168/4/4
f 173/3/5 170/3/5 169/3/5
f 174/3/5 170/3/5 173/3/5
f 175/3/5 172/3/5 171/3/5
f 176/3/5 172/3/5 175/3/5
f 181/3/5 178/3/5 177/3/5
f 182/3/5 178/3/5 181/3/5
f 183/3/5 180/3/5 179/3/5
f 184/3/5 180/3/5 183/3/5
f 189/3/5 186/3/5 185/3/5
f 190/3/5 186/3/5 189/3/5
f 191/3/5 188/3/5 187/3/5
f 192/3/5 188/3/5 191/3/5
f 193/3/5 191/3/5 190/3/5
f 193/3/5 192/3/5 191/3/5
f 194/3/5 192/3/5 193/3/5
f 197/3/5 196/3/5 195/3/5
f 198/3/5 196/3/5 197/3/5
f 201/3/5 200/3/5 199/3/5
f 202/3/5 200/3/5 201/3/5
f 205/3/5 204/3/5 203/3/5
f 206/3/5 204/3/5 205/3/5
f 209/4/5 208/4/5 207/4/5
f 211/4/5 209/4/5 207/4/5
f 211/4/5 210/4/5 209/4/5
f 212/4/5 210/4/5 211/4/5
f 215/3/5 214/3/5 213/3/5
f 216/3/5 214/3/5 215/3/5
f 217/3/6 218/3/6 219/3/6
f 219/3/6 218/3/6 220/3/6
f 221/3/6 222/3/6 223/3/6
f 223/3/6 222/3/6 224/3/6
f 225/3/6 226/3/6 227/3/6
f 225/3/6 227/3/6 229/3/6
f 227/3/6 228/3/6 229/3/6
f 229/3/6 228/3/6 230/3/6
f 230/3/6 228/3/6 231/3/6
f 232/1/6 233/1/6 234/1/6
f 234/1/6 233/1/6 235/1/6
f 234/2/6 235/2/6 238/2/6
f 238/2/6 235/2/6 239/2/6
f 236/4/6 237/4/6 240/4/6
f 236/4/6 240/4/6 242/4/6
f 240/4/6 241/4/6 242/4/6
f 242/4/6 241/4/6 243/4/6
f 244/3/6 245/3/6 246/3/6
f 246/3/6 245/3/6 247/3/6
f 244/3/6 246/3/6 249/3/6
f 247/3/6 248/3/6 250/3/6
f 250/3/6 248/3/6 251/3/6
f 244/3/6 249/3/6 252/3/6
f 249/3/6 250/3/6 252/3/6
f 252/3/6 250/3/6 253/3/6
