# MagicaVoxel @ Ephtracy

# group
o 

# material
mtllib Leg-40.mtl
usemtl palette

# normals
vn -1 0 0
vn 1 0 0
vn 0 0 1
vn 0 0 -1
vn 0 -1 0
vn 0 1 0

# texcoords
vt 0.705078 0.5
vt 0.708984 0.5
vt 0.876953 0.5
vt 0.880859 0.5

# verts
v -0.45 0.1 0
v -0.45 0.1 -0.1
v -0.45 0.2 0.1
v -0.45 0.2 0
v -0.45 0.2 -0.1
v -0.45 0.2 -0.2
v -0.45 0.3 0.1
v -0.45 0.3 0
v -0.45 0.3 -0.1
v -0.45 0.3 -0.2
v -0.45 0.4 0.1
v -0.45 0.4 0
v -0.45 0.4 -0.1
v -0.45 0.4 -0.2
v -0.45 0.5 0.1
v -0.45 0.5 0
v -0.45 0.5 -0.1
v -0.45 0.5 -0.2
v -0.45 0.7 0
v -0.45 0.7 -0.1
v -0.25 -0.3 0
v -0.25 -0.3 -0.1
v -0.25 0.1 0
v -0.25 0.1 -0.1
v -0.15 -0.5 0.1
v -0.15 -0.5 -0.2
v -0.15 -0.4 0.1
v -0.15 -0.4 -0.2
v -0.15 -0.3 0.1
v -0.15 -0.3 0
v -0.15 -0.3 -0.1
v -0.15 -0.3 -0.2
v -0.15 0.1 0.2
v -0.15 0.1 0.1
v -0.15 0.1 0
v -0.15 0.1 -0.1
v -0.15 0.1 -0.2
v -0.15 0.1 -0.3
v -0.15 0.2 0
v -0.15 0.2 -0.1
v -0.15 0.3 0
v -0.15 0.3 -0.1
v -0.15 0.4 0.1
v -0.15 0.4 0
v -0.15 0.4 -0.1
v -0.15 0.4 -0.2
v -0.15 0.5 0.2
v -0.15 0.5 0.1
v -0.15 0.6 -0.2
v -0.15 0.6 -0.3
v -0.05 -0.6 0.2
v -0.05 -0.6 -0.2
v -0.05 -0.5 0.1
v -0.05 -0.5 -0.2
v -0.05 -0.4 0.1
v -0.05 -0.4 -0.2
v -0.05 -0.3 0.1
v -0.05 -0.3 -0.2
v -0.05 0 -0.2
v -0.05 0 -0.3
v -0.05 0.1 0.2
v -0.05 0.1 0.1
v -0.05 0.1 0
v -0.05 0.1 -0.1
v -0.05 0.1 -0.2
v -0.05 0.1 -0.3
v -0.05 0.2 0
v -0.05 0.2 -0.1
v -0.05 0.3 0
v -0.05 0.3 -0.1
v -0.05 0.4 0.1
v -0.05 0.4 0
v -0.05 0.4 -0.1
v -0.05 0.4 -0.2
v -0.05 0.5 0.2
v -0.05 0.5 0.1
v -0.05 0.5 0
v -0.05 0.5 -0.1
v -0.05 0.6 0.2
v -0.05 0.6 -0.2
v 0.05 -1 0.2
v 0.05 -1 0
v 0.05 -1 -0.1
v 0.05 -1 -0.2
v 0.05 -0.9 -0.2
v 0.05 -0.9 -0.3
v 0.05 -0.7 0.2
v 0.05 -0.7 0.1
v 0.05 -0.7 -0.2
v 0.05 -0.7 -0.3
v 0.05 -0.6 0.1
v 0.05 -0.6 0
v 0.05 -0.6 -0.1
v 0.05 -0.6 -0.2
v 0.05 -0.2 0.3
v 0.05 -0.2 0.2
v 0.05 -0.1 0.4
v 0.05 -0.1 0.3
v 0.05 -0.1 0.2
v 0.05 0 -0.3
v 0.05 0 -0.4
v 0.05 0.6 -0.3
v 0.05 1 0.4
v 0.05 1 0.3
v 0.05 1 -0.3
v 0.05 1 -0.4
v 0.15 -1 0
v 0.15 -1 -0.1
v 0.15 -0.7 0.2
v 0.15 -0.7 0.1
v 0.15 -0.6 0.2
v 0.15 -0.6 0.1
v 0.15 -0.6 0
v 0.15 -0.6 -0.1
v 0.15 -0.2 0
v 0.15 -0.2 -0.1
v 0.15 -0.1 0.3
v 0.15 -0.1 0
v 0.15 -0.1 -0.1
v 0.15 -0.1 -0.3
v 0.15 0 -0.3
v 0.15 1 0.3
v 0.15 1 -0.3
v -0.35 0.1 0
v -0.35 0.1 -0.1
v -0.35 0.2 0.1
v -0.35 0.2 0
v -0.35 0.2 -0.1
v -0.35 0.2 -0.2
v -0.35 0.3 0.1
v -0.35 0.3 0
v -0.35 0.3 -0.1
v -0.35 0.3 -0.2
v -0.35 0.4 0.1
v -0.35 0.4 0
v -0.35 0.4 -0.1
v -0.35 0.4 -0.2
v -0.35 0.5 0.1
v -0.35 0.5 0
v -0.35 0.5 -0.1
v -0.35 0.5 -0.2
v -0.35 0.7 0
v -0.35 0.7 -0.1
v 0.05 -0.6 0
v 0.05 -0.6 -0.1
v 0.05 -0.6 -0.2
v 0.05 -0.2 0
v 0.05 -0.1 0.2
v 0.05 -0.1 0
v 0.05 0 -0.2
v 0.05 0 -0.3
v 0.05 0.6 0.2
v 0.05 0.6 -0.3
v 0.15 -0.6 0.2
v 0.15 -0.6 0
v 0.15 -0.2 0.2
v 0.15 -0.2 0
v 0.15 0.5 0.4
v 0.15 0.5 0.3
v 0.15 0.5 -0.3
v 0.15 0.5 -0.4
v 0.15 0.6 0.4
v 0.15 0.6 0.3
v 0.15 0.6 -0.3
v 0.15 0.6 -0.4
v 0.15 0.8 0.4
v 0.15 0.8 0.3
v 0.15 0.8 -0.3
v 0.15 0.8 -0.4
v 0.15 0.9 0.4
v 0.15 0.9 0.3
v 0.15 0.9 -0.3
v 0.15 0.9 -0.4
v 0.25 -1 0.2
v 0.25 -1 -0.2
v 0.25 -0.9 -0.2
v 0.25 -0.9 -0.3
v 0.25 -0.7 -0.2
v 0.25 -0.7 -0.3
v 0.25 -0.6 0.2
v 0.25 -0.6 -0.2
v 0.25 -0.2 0.3
v 0.25 -0.2 -0.1
v 0.25 -0.1 0.4
v 0.25 -0.1 0.3
v 0.25 -0.1 0
v 0.25 -0.1 -0.1
v 0.25 -0.1 -0.3
v 0.25 0 0
v 0.25 0 -0.3
v 0.25 0 -0.4
v 0.25 0.5 0.4
v 0.25 0.5 0.3
v 0.25 0.5 0.2
v 0.25 0.5 -0.2
v 0.25 0.5 -0.3
v 0.25 0.5 -0.4
v 0.25 0.6 0.4
v 0.25 0.6 0.3
v 0.25 0.6 -0.3
v 0.25 0.6 -0.4
v 0.25 0.8 0.4
v 0.25 0.8 0.3
v 0.25 0.8 -0.3
v 0.25 0.8 -0.4
v 0.25 0.9 0.4
v 0.25 0.9 0.3
v 0.25 0.9 0.2
v 0.25 0.9 -0.2
v 0.25 0.9 -0.3
v 0.25 0.9 -0.4
v 0.25 1 0.4
v 0.25 1 -0.4
v 0.35 -0.1 0.3
v 0.35 -0.1 0
v 0.35 0 0
v 0.35 0 -0.3
v 0.35 0.3 0.2
v 0.35 0.3 -0.1
v 0.35 0.4 0.2
v 0.35 0.4 0.1
v 0.35 0.4 -0.1
v 0.35 0.4 -0.2
v 0.35 0.5 0.3
v 0.35 0.5 0.2
v 0.35 0.5 0.1
v 0.35 0.5 -0.2
v 0.35 0.5 -0.3
v 0.35 0.9 0.2
v 0.35 0.9 -0.2
v 0.45 0.3 0.2
v 0.45 0.3 -0.1
v 0.45 0.4 0.2
v 0.45 0.4 0.1
v 0.45 0.4 -0.1
v 0.45 0.4 -0.2
v 0.45 0.5 0.1
v 0.45 0.5 -0.2
v 0.05 -0.1 0.4
v 0.05 1 0.4
v 0.15 0.5 0.4
v 0.15 0.6 0.4
v 0.15 0.8 0.4
v 0.15 0.9 0.4
v 0.25 -0.1 0.4
v 0.25 0.5 0.4
v 0.25 0.6 0.4
v 0.25 0.8 0.4
v 0.25 0.9 0.4
v 0.25 1 0.4
v 0.05 -0.2 0.3
v 0.05 -0.1 0.3
v 0.15 0.5 0.3
v 0.15 0.6 0.3
v 0.15 0.8 0.3
v 0.15 0.9 0.3
v 0.25 -0.2 0.3
v 0.25 -0.1 0.3
v 0.25 0.5 0.3
v 0.25 0.6 0.3
v 0.25 0.8 0.3
v 0.25 0.9 0.3
v 0.35 -0.1 0.3
v 0.35 0.5 0.3
v -0.15 0.1 0.2
v -0.15 0.5 0.2
v -0.05 -0.6 0.2
v -0.05 0.1 0.2
v -0.05 0.5 0.2
v -0.05 0.6 0.2
v 0.05 -1 0.2
v 0.05 -0.7 0.2
v 0.05 -0.2 0.2
v 0.05 -0.1 0.2
v 0.05 0.6 0.2
v 0.15 -0.7 0.2
v 0.15 -0.6 0.2
v 0.15 -0.2 0.2
v 0.25 -1 0.2
v 0.25 -0.6 0.2
v 0.25 0.5 0.2
v 0.25 0.9 0.2
v 0.35 0.3 0.2
v 0.35 0.4 0.2
v 0.35 0.5 0.2
v 0.35 0.9 0.2
v 0.45 0.3 0.2
v 0.45 0.4 0.2
v -0.45 0.2 0.1
v -0.45 0.3 0.1
v -0.45 0.4 0.1
v -0.45 0.5 0.1
v -0.35 0.2 0.1
v -0.35 0.3 0.1
v -0.35 0.4 0.1
v -0.35 0.5 0.1
v -0.15 -0.5 0.1
v -0.15 -0.4 0.1
v -0.15 -0.3 0.1
v -0.15 0.1 0.1
v -0.05 -0.5 0.1
v -0.05 -0.4 0.1
v -0.05 -0.3 0.1
v -0.05 0.1 0.1
v 0.05 -0.7 0.1
v 0.05 -0.6 0.1
v 0.15 -0.7 0.1
v 0.15 -0.6 0.1
v 0.35 0.4 0.1
v 0.35 0.5 0.1
v 0.45 0.4 0.1
v 0.45 0.5 0.1
v -0.45 0.1 0
v -0.45 0.2 0
v -0.45 0.3 0
v -0.45 0.4 0
v -0.45 0.5 0
v -0.45 0.7 0
v -0.35 0.1 0
v -0.35 0.2 0
v -0.35 0.3 0
v -0.35 0.4 0
v -0.35 0.5 0
v -0.35 0.7 0
v -0.25 -0.3 0
v -0.25 0.1 0
v -0.15 -0.3 0
v -0.15 0.1 0
v -0.15 0.2 0
v -0.15 0.3 0
v -0.15 0.4 0
v -0.05 0.4 0
v -0.05 0.5 0
v -0.15 0.1 -0.1
v -0.15 0.2 -0.1
v -0.15 0.3 -0.1
v -0.15 0.4 -0.1
v -0.05 0.1 -0.1
v -0.05 0.2 -0.1
v -0.05 0.3 -0.1
v -0.05 0.4 -0.1
v 0.05 -1 -0.1
v 0.05 -0.6 -0.1
v 0.15 -1 -0.1
v 0.15 -0.6 -0.1
v -0.15 0.4 -0.2
v -0.15 0.6 -0.2
v -0.05 0.4 -0.2
v -0.05 0.6 -0.2
v 0.05 0 -0.3
v 0.05 0.6 -0.3
v 0.05 1 -0.3
v 0.15 0 -0.3
v 0.15 1 -0.3
v 0.05 -0.1 0.3
v 0.05 1 0.3
v 0.15 -0.1 0.3
v 0.15 1 0.3
v -0.15 0.4 0.1
v -0.15 0.5 0.1
v -0.05 0.4 0.1
v -0.05 0.5 0.1
v -0.15 0.1 0
v -0.15 0.2 0
v -0.15 0.3 0
v -0.15 0.4 0
v -0.05 0.1 0
v -0.05 0.2 0
v -0.05 0.3 0
v -0.05 0.4 0
v 0.05 -1 0
v 0.05 -0.6 0
v 0.05 -0.2 0
v 0.05 -0.1 0
v 0.15 -1 0
v 0.15 -0.6 0
v 0.15 -0.2 0
v 0.15 -0.1 0
v 0.25 -0.1 0
v 0.25 0 0
v 0.35 -0.1 0
v 0.35 0 0
v -0.45 0.1 -0.1
v -0.45 0.2 -0.1
v -0.45 0.3 -0.1
v -0.45 0.4 -0.1
v -0.45 0.5 -0.1
v -0.45 0.7 -0.1
v -0.35 0.1 -0.1
v -0.35 0.2 -0.1
v -0.35 0.3 -0.1
v -0.35 0.4 -0.1
v -0.35 0.5 -0.1
v -0.35 0.7 -0.1
v -0.25 -0.3 -0.1
v -0.25 0.1 -0.1
v -0.15 -0.3 -0.1
v -0.15 0.1 -0.1
v -0.15 0.2 -0.1
v -0.15 0.3 -0.1
v -0.15 0.4 -0.1
v -0.05 0.4 -0.1
v -0.05 0.5 -0.1
v 0.15 -0.2 -0.1
v 0.15 -0.1 -0.1
v 0.25 -0.2 -0.1
v 0.25 -0.1 -0.1
v 0.35 0.3 -0.1
v 0.35 0.4 -0.1
v 0.45 0.3 -0.1
v 0.45 0.4 -0.1
v -0.45 0.2 -0.2
v -0.45 0.3 -0.2
v -0.45 0.4 -0.2
v -0.45 0.5 -0.2
v -0.35 0.2 -0.2
v -0.35 0.3 -0.2
v -0.35 0.4 -0.2
v -0.35 0.5 -0.2
v -0.15 -0.5 -0.2
v -0.15 -0.4 -0.2
v -0.15 -0.3 -0.2
v -0.15 0.1 -0.2
v -0.05 -0.6 -0.2
v -0.05 -0.5 -0.2
v -0.05 -0.4 -0.2
v -0.05 -0.3 -0.2
v -0.05 0 -0.2
v -0.05 0.1 -0.2
v 0.05 -1 -0.2
v 0.05 -0.9 -0.2
v 0.05 -0.7 -0.2
v 0.05 -0.6 -0.2
v 0.05 0 -0.2
v 0.25 -1 -0.2
v 0.25 -0.9 -0.2
v 0.25 -0.7 -0.2
v 0.25 -0.6 -0.2
v 0.25 0.5 -0.2
v 0.25 0.9 -0.2
v 0.35 0.4 -0.2
v 0.35 0.5 -0.2
v 0.35 0.9 -0.2
v 0.45 0.4 -0.2
v 0.45 0.5 -0.2
v -0.15 0.1 -0.3
v -0.15 0.6 -0.3
v -0.05 0 -0.3
v -0.05 0.1 -0.3
v 0.05 -0.9 -0.3
v 0.05 -0.7 -0.3
v 0.05 0 -0.3
v 0.05 0.6 -0.3
v 0.15 -0.1 -0.3
v 0.15 0 -0.3
v 0.15 0.5 -0.3
v 0.15 0.6 -0.3
v 0.15 0.8 -0.3
v 0.15 0.9 -0.3
v 0.25 -0.9 -0.3
v 0.25 -0.7 -0.3
v 0.25 -0.1 -0.3
v 0.25 0 -0.3
v 0.25 0.5 -0.3
v 0.25 0.6 -0.3
v 0.25 0.8 -0.3
v 0.25 0.9 -0.3
v 0.35 0 -0.3
v 0.35 0.5 -0.3
v 0.05 0 -0.4
v 0.05 1 -0.4
v 0.15 0.5 -0.4
v 0.15 0.6 -0.4
v 0.15 0.8 -0.4
v 0.15 0.9 -0.4
v 0.25 0 -0.4
v 0.25 0.5 -0.4
v 0.25 0.6 -0.4
v 0.25 0.8 -0.4
v 0.25 0.9 -0.4
v 0.25 1 -0.4
v 0.05 -1 0.2
v 0.25 -1 0.2
v 0.05 -1 0
v 0.15 -1 0
v 0.05 -1 -0.1
v 0.15 -1 -0.1
v 0.05 -1 -0.2
v 0.25 -1 -0.2
v 0.05 -0.9 -0.2
v 0.25 -0.9 -0.2
v 0.05 -0.9 -0.3
v 0.25 -0.9 -0.3
v -0.05 -0.6 0.2
v 0.15 -0.6 0.2
v 0.05 -0.6 0.1
v 0.15 -0.6 0.1
v 0.05 -0.6 0
v 0.05 -0.6 -0.1
v -0.05 -0.6 -0.2
v 0.05 -0.6 -0.2
v -0.15 -0.5 0.1
v -0.05 -0.5 0.1
v -0.15 -0.5 -0.2
v -0.05 -0.5 -0.2
v -0.15 -0.3 0.1
v -0.05 -0.3 0.1
v -0.25 -0.3 0
v -0.15 -0.3 0
v -0.25 -0.3 -0.1
v -0.15 -0.3 -0.1
v -0.15 -0.3 -0.2
v -0.05 -0.3 -0.2
v 0.05 -0.2 0.3
v 0.25 -0.2 0.3
v 0.05 -0.2 0.2
v 0.15 -0.2 0.2
v 0.15 -0.2 0
v 0.15 -0.2 -0.1
v 0.25 -0.2 -0.1
v 0.05 -0.1 0.4
v 0.25 -0.1 0.4
v 0.05 -0.1 0.3
v 0.25 -0.1 0.3
v 0.35 -0.1 0.3
v 0.25 -0.1 0
v 0.35 -0.1 0
v 0.15 -0.1 -0.1
v 0.25 -0.1 -0.1
v 0.15 -0.1 -0.3
v 0.25 -0.1 -0.3
v 0.25 0 0
v 0.35 0 0
v -0.05 0 -0.2
v 0.05 0 -0.2
v -0.05 0 -0.3
v 0.05 0 -0.3
v 0.15 0 -0.3
v 0.25 0 -0.3
v 0.35 0 -0.3
v 0.05 0 -0.4
v 0.25 0 -0.4
v -0.15 0.1 0.2
v -0.05 0.1 0.2
v -0.15 0.1 0.1
v -0.05 0.1 0.1
v -0.45 0.1 0
v -0.35 0.1 0
v -0.45 0.1 -0.1
v -0.35 0.1 -0.1
v -0.15 0.1 -0.2
v -0.05 0.1 -0.2
v -0.15 0.1 -0.3
v -0.05 0.1 -0.3
v -0.45 0.2 0.1
v -0.35 0.2 0.1
v -0.45 0.2 0
v -0.35 0.2 0
v -0.15 0.2 0
v -0.05 0.2 0
v -0.45 0.2 -0.1
v -0.35 0.2 -0.1
v -0.15 0.2 -0.1
v -0.05 0.2 -0.1
v -0.45 0.2 -0.2
v -0.35 0.2 -0.2
v 0.35 0.3 0.2
v 0.45 0.3 0.2
v 0.35 0.3 -0.1
v 0.45 0.3 -0.1
v -0.45 0.4 0.1
v -0.35 0.4 0.1
v -0.45 0.4 0
v -0.35 0.4 0
v -0.15 0.4 0
v -0.05 0.4 0
v -0.45 0.4 -0.1
v -0.35 0.4 -0.1
v -0.15 0.4 -0.1
v -0.05 0.4 -0.1
v 0.35 0.4 -0.1
v 0.45 0.4 -0.1
v -0.45 0.4 -0.2
v -0.35 0.4 -0.2
v 0.35 0.4 -0.2
v 0.45 0.4 -0.2
v 0.15 0.6 0.4
v 0.25 0.6 0.4
v 0.15 0.6 0.3
v 0.25 0.6 0.3
v 0.15 0.6 -0.3
v 0.25 0.6 -0.3
v 0.15 0.6 -0.4
v 0.25 0.6 -0.4
v 0.15 0.9 0.4
v 0.25 0.9 0.4
v 0.15 0.9 0.3
v 0.25 0.9 0.3
v 0.15 0.9 -0.3
v 0.25 0.9 -0.3
v 0.15 0.9 -0.4
v 0.25 0.9 -0.4
v 0.05 -0.7 0.2
v 0.15 -0.7 0.2
v 0.05 -0.7 0.1
v 0.15 -0.7 0.1
v 0.05 -0.7 -0.2
v 0.25 -0.7 -0.2
v 0.05 -0.7 -0.3
v 0.25 -0.7 -0.3
v 0.15 -0.6 0.2
v 0.25 -0.6 0.2
v 0.15 -0.6 0
v 0.05 -0.6 -0.1
v 0.15 -0.6 -0.1
v 0.05 -0.6 -0.2
v 0.25 -0.6 -0.2
v -0.15 -0.4 0.1
v -0.05 -0.4 0.1
v -0.15 -0.4 -0.2
v -0.05 -0.4 -0.2
v 0.05 -0.1 0.3
v 0.15 -0.1 0.3
v 0.05 -0.1 0.2
v 0.05 -0.1 0
v 0.15 -0.1 0
v -0.25 0.1 0
v -0.15 0.1 0
v -0.05 0.1 0
v -0.25 0.1 -0.1
v -0.15 0.1 -0.1
v -0.05 0.1 -0.1
v -0.45 0.3 0.1
v -0.35 0.3 0.1
v -0.45 0.3 0
v -0.35 0.3 0
v -0.15 0.3 0
v -0.05 0.3 0
v -0.45 0.3 -0.1
v -0.35 0.3 -0.1
v -0.15 0.3 -0.1
v -0.05 0.3 -0.1
v -0.45 0.3 -0.2
v -0.35 0.3 -0.2
v 0.35 0.4 0.2
v 0.45 0.4 0.2
v -0.15 0.4 0.1
v -0.05 0.4 0.1
v 0.35 0.4 0.1
v 0.45 0.4 0.1
v -0.15 0.4 0
v -0.05 0.4 0
v -0.15 0.4 -0.1
v -0.05 0.4 -0.1
v -0.15 0.4 -0.2
v -0.05 0.4 -0.2
v 0.15 0.5 0.4
v 0.25 0.5 0.4
v 0.15 0.5 0.3
v 0.25 0.5 0.3
v 0.35 0.5 0.3
v -0.15 0.5 0.2
v -0.05 0.5 0.2
v 0.25 0.5 0.2
v 0.35 0.5 0.2
v -0.45 0.5 0.1
v -0.35 0.5 0.1
v -0.15 0.5 0.1
v -0.05 0.5 0.1
v 0.35 0.5 0.1
v 0.45 0.5 0.1
v -0.45 0.5 0
v -0.35 0.5 0
v -0.05 0.5 0
v -0.45 0.5 -0.1
v -0.35 0.5 -0.1
v -0.05 0.5 -0.1
v -0.45 0.5 -0.2
v -0.35 0.5 -0.2
v 0.25 0.5 -0.2
v 0.35 0.5 -0.2
v 0.45 0.5 -0.2
v 0.15 0.5 -0.3
v 0.25 0.5 -0.3
v 0.35 0.5 -0.3
v 0.15 0.5 -0.4
v 0.25 0.5 -0.4
v -0.05 0.6 0.2
v 0.05 0.6 0.2
v -0.15 0.6 -0.2
v -0.05 0.6 -0.2
v -0.15 0.6 -0.3
v 0.05 0.6 -0.3
v -0.45 0.7 0
v -0.35 0.7 0
v -0.45 0.7 -0.1
v -0.35 0.7 -0.1
v 0.15 0.8 0.4
v 0.25 0.8 0.4
v 0.15 0.8 0.3
v 0.25 0.8 0.3
v 0.15 0.8 -0.3
v 0.25 0.8 -0.3
v 0.15 0.8 -0.4
v 0.25 0.8 -0.4
v 0.25 0.9 0.2
v 0.35 0.9 0.2
v 0.25 0.9 -0.2
v 0.35 0.9 -0.2
v 0.05 1 0.4
v 0.25 1 0.4
v 0.05 1 0.3
v 0.15 1 0.3
v 0.05 1 -0.3
v 0.15 1 -0.3
v 0.05 1 -0.4
v 0.25 1 -0.4

# faces
f 4/1/1 2/1/1 1/1/1
f 5/1/1 2/1/1 4/1/1
f 7/1/1 4/1/1 3/1/1
f 7/1/1 6/1/1 5/1/1
f 7/1/1 5/1/1 4/1/1
f 8/1/1 6/1/1 7/1/1
f 9/1/1 6/1/1 8/1/1
f 10/1/1 6/1/1 9/1/1
f 12/1/1 9/1/1 8/1/1
f 13/1/1 9/1/1 12/1/1
f 15/1/1 12/1/1 11/1/1
f 15/1/1 14/1/1 13/1/1
f 15/1/1 13/1/1 12/1/1
f 16/1/1 14/1/1 15/1/1
f 17/1/1 14/1/1 16/1/1
f 18/1/1 14/1/1 17/1/1
f 19/1/1 17/1/1 16/1/1
f 20/1/1 17/1/1 19/1/1
f 23/1/1 22/1/1 21/1/1
f 24/1/1 22/1/1 23/1/1
f 27/2/1 26/2/1 25/2/1
f 28/2/1 26/2/1 27/2/1
f 34/2/1 30/2/1 29/2/1
f 35/2/1 30/2/1 34/2/1
f 36/2/1 32/2/1 31/2/1
f 37/2/1 32/2/1 36/2/1
f 39/2/1 35/2/1 34/2/1
f 39/2/1 34/2/1 33/2/1
f 40/2/1 37/2/1 36/2/1
f 40/2/1 38/2/1 37/2/1
f 41/2/1 39/2/1 33/2/1
f 42/2/1 38/2/1 40/2/1
f 43/2/1 41/2/1 33/2/1
f 44/2/1 41/2/1 43/2/1
f 45/2/1 38/2/1 42/2/1
f 46/2/1 38/2/1 45/2/1
f 47/2/1 43/2/1 33/2/1
f 48/2/1 43/2/1 47/2/1
f 49/2/1 38/2/1 46/2/1
f 50/2/1 38/2/1 49/2/1
f 53/2/1 52/2/1 51/2/1
f 54/2/1 52/2/1 53/2/1
f 55/2/1 53/2/1 51/2/1
f 57/2/1 55/2/1 51/2/1
f 57/2/1 56/2/1 55/2/1
f 58/2/1 56/2/1 57/2/1
f 61/2/1 57/2/1 51/2/1
f 62/2/1 57/2/1 61/2/1
f 65/2/1 60/2/1 59/2/1
f 66/2/1 60/2/1 65/2/1
f 67/2/1 64/2/1 63/2/1
f 68/2/1 64/2/1 67/2/1
f 72/2/1 70/2/1 69/2/1
f 73/2/1 70/2/1 72/2/1
f 76/2/1 72/2/1 71/2/1
f 77/2/1 72/2/1 76/2/1
f 78/2/1 74/2/1 73/2/1
f 79/2/1 77/2/1 76/2/1
f 79/2/1 78/2/1 77/2/1
f 79/2/1 76/2/1 75/2/1
f 80/2/1 74/2/1 78/2/1
f 80/2/1 78/2/1 79/2/1
f 85/2/1 84/2/1 83/2/1
f 87/2/1 82/2/1 81/2/1
f 88/2/1 82/2/1 87/2/1
f 89/1/1 86/1/1 85/1/1
f 89/2/1 85/2/1 83/2/1
f 90/1/1 86/1/1 89/1/1
f 91/2/1 82/2/1 88/2/1
f 92/2/1 82/2/1 91/2/1
f 93/2/1 89/2/1 83/2/1
f 94/2/1 89/2/1 93/2/1
f 98/3/1 96/3/1 95/3/1
f 99/3/1 96/3/1 98/3/1
f 102/3/1 101/3/1 100/3/1
f 103/3/1 98/3/1 97/3/1
f 104/3/1 98/3/1 103/3/1
f 105/3/1 101/3/1 102/3/1
f 106/3/1 101/3/1 105/3/1
f 111/2/1 110/2/1 109/2/1
f 112/2/1 110/2/1 111/2/1
f 113/2/1 108/2/1 107/2/1
f 114/2/1 108/2/1 113/2/1
f 118/3/1 116/3/1 115/3/1
f 119/3/1 116/3/1 118/3/1
f 121/3/1 119/3/1 118/3/1
f 121/3/1 120/3/1 119/3/1
f 121/3/1 118/3/1 117/3/1
f 122/3/1 121/3/1 117/3/1
f 123/3/1 121/3/1 122/3/1
f 124/1/2 125/1/2 127/1/2
f 127/1/2 125/1/2 128/1/2
f 126/1/2 127/1/2 130/1/2
f 130/1/2 127/1/2 131/1/2
f 128/1/2 129/1/2 132/1/2
f 132/1/2 129/1/2 133/1/2
f 131/1/2 132/1/2 135/1/2
f 135/1/2 132/1/2 136/1/2
f 134/1/2 135/1/2 138/1/2
f 138/1/2 135/1/2 139/1/2
f 136/1/2 137/1/2 140/1/2
f 140/1/2 137/1/2 141/1/2
f 139/1/2 140/1/2 142/1/2
f 142/1/2 140/1/2 143/1/2
f 144/2/2 145/2/2 147/2/2
f 145/2/2 146/2/2 147/2/2
f 147/2/2 146/2/2 149/2/2
f 149/2/2 146/2/2 150/2/2
f 148/2/2 149/2/2 150/2/2
f 148/2/2 150/2/2 152/2/2
f 150/2/2 151/2/2 152/2/2
f 152/2/2 151/2/2 153/2/2
f 154/2/2 155/2/2 156/2/2
f 156/2/2 155/2/2 157/2/2
f 158/3/2 159/3/2 162/3/2
f 162/3/2 159/3/2 163/3/2
f 160/3/2 161/3/2 164/3/2
f 164/3/2 161/3/2 165/3/2
f 166/3/2 167/3/2 170/3/2
f 170/3/2 167/3/2 171/3/2
f 168/3/2 169/3/2 172/3/2
f 172/3/2 169/3/2 173/3/2
f 174/2/2 175/2/2 176/2/2
f 174/2/2 176/2/2 178/2/2
f 176/1/2 177/1/2 178/1/2
f 178/1/2 177/1/2 179/1/2
f 174/2/2 178/2/2 180/2/2
f 180/2/2 178/2/2 181/2/2
f 182/3/2 183/3/2 185/3/2
f 185/3/2 183/3/2 186/3/2
f 186/3/2 183/3/2 187/3/2
f 186/3/2 187/3/2 189/3/2
f 187/3/2 188/3/2 189/3/2
f 189/3/2 188/3/2 190/3/2
f 184/3/2 185/3/2 192/3/2
f 192/3/2 185/3/2 193/3/2
f 190/3/2 191/3/2 196/3/2
f 196/3/2 191/3/2 197/3/2
f 193/3/2 194/3/2 199/3/2
f 195/3/2 196/3/2 200/3/2
f 198/3/2 199/3/2 202/3/2
f 199/3/2 194/3/2 203/3/2
f 202/3/2 199/3/2 203/3/2
f 200/3/2 201/3/2 204/3/2
f 195/3/2 200/3/2 204/3/2
f 204/3/2 201/3/2 205/3/2
f 203/3/2 194/3/2 207/3/2
f 207/3/2 194/3/2 208/3/2
f 195/3/2 204/3/2 209/3/2
f 209/3/2 204/3/2 210/3/2
f 207/3/2 208/3/2 212/3/2
f 210/3/2 211/3/2 212/3/2
f 209/3/2 210/3/2 212/3/2
f 208/3/2 209/3/2 212/3/2
f 206/3/2 207/3/2 212/3/2
f 212/3/2 211/3/2 213/3/2
f 214/3/2 215/3/2 216/3/2
f 214/3/2 216/3/2 218/3/2
f 216/3/2 217/3/2 218/3/2
f 218/3/2 217/3/2 219/3/2
f 214/3/2 218/3/2 220/3/2
f 219/3/2 217/3/2 222/3/2
f 222/3/2 217/3/2 223/3/2
f 220/3/2 221/3/2 224/3/2
f 214/3/2 220/3/2 224/3/2
f 224/3/2 221/3/2 225/3/2
f 225/3/2 221/3/2 226/3/2
f 223/3/2 217/3/2 227/3/2
f 227/3/2 217/3/2 228/3/2
f 225/3/2 226/3/2 229/3/2
f 226/3/2 227/3/2 229/3/2
f 229/3/2 227/3/2 230/3/2
f 231/4/2 232/4/2 233/4/2
f 233/4/2 232/4/2 234/4/2
f 234/4/2 232/4/2 235/4/2
f 235/4/2 236/4/2 237/4/2
f 234/4/2 235/4/2 237/4/2
f 237/4/2 236/4/2 238/4/2
f 241/3/3 240/3/3 239/3/3
f 242/3/3 240/3/3 241/3/3
f 243/3/3 240/3/3 242/3/3
f 244/3/3 240/3/3 243/3/3
f 245/3/3 241/3/3 239/3/3
f 246/3/3 241/3/3 245/3/3
f 247/3/3 243/3/3 242/3/3
f 248/3/3 243/3/3 247/3/3
f 249/3/3 240/3/3 244/3/3
f 250/3/3 240/3/3 249/3/3
f 257/3/3 252/3/3 251/3/3
f 258/3/3 252/3/3 257/3/3
f 259/3/3 254/3/3 253/3/3
f 260/3/3 254/3/3 259/3/3
f 261/3/3 256/3/3 255/3/3
f 262/3/3 256/3/3 261/3/3
f 263/3/3 259/3/3 258/3/3
f 264/3/3 259/3/3 263/3/3
f 268/2/3 266/2/3 265/2/3
f 269/2/3 266/2/3 268/2/3
f 273/2/3 268/2/3 267/2/3
f 273/2/3 269/2/3 268/2/3
f 273/2/3 270/2/3 269/2/3
f 274/2/3 270/2/3 273/2/3
f 275/2/3 270/2/3 274/2/3
f 276/2/3 272/2/3 271/2/3
f 277/2/3 273/2/3 267/2/3
f 278/2/3 273/2/3 277/2/3
f 279/2/3 276/2/3 271/2/3
f 279/2/3 277/2/3 276/2/3
f 280/2/3 277/2/3 279/2/3
f 285/3/3 282/3/3 281/3/3
f 286/3/3 282/3/3 285/3/3
f 287/4/3 284/4/3 283/4/3
f 288/4/3 284/4/3 287/4/3
f 293/1/3 290/1/3 289/1/3
f 294/1/3 290/1/3 293/1/3
f 295/1/3 292/1/3 291/1/3
f 296/1/3 292/1/3 295/1/3
f 301/2/3 298/2/3 297/2/3
f 302/2/3 298/2/3 301/2/3
f 303/2/3 300/2/3 299/2/3
f 304/2/3 300/2/3 303/2/3
f 307/2/3 306/2/3 305/2/3
f 308/2/3 306/2/3 307/2/3
f 311/4/3 310/4/3 309/4/3
f 312/4/3 310/4/3 311/4/3
f 319/1/3 314/1/3 313/1/3
f 320/1/3 314/1/3 319/1/3
f 321/1/3 316/1/3 315/1/3
f 322/1/3 316/1/3 321/1/3
f 323/1/3 318/1/3 317/1/3
f 324/1/3 318/1/3 323/1/3
f 327/1/3 326/1/3 325/1/3
f 328/1/3 326/1/3 327/1/3
f 329/1/3 321/1/3 320/1/3
f 330/1/3 321/1/3 329/1/3
f 331/1/3 323/1/3 322/1/3
f 332/1/3 323/1/3 331/1/3
f 333/1/3 323/1/3 332/1/3
f 338/2/3 335/2/3 334/2/3
f 339/2/3 335/2/3 338/2/3
f 340/2/3 337/2/3 336/2/3
f 341/2/3 337/2/3 340/2/3
f 344/2/3 343/2/3 342/2/3
f 345/2/3 343/2/3 344/2/3
f 348/2/3 347/2/3 346/2/3
f 349/2/3 347/2/3 348/2/3
f 353/3/3 351/3/3 350/3/3
f 353/3/3 352/3/3 351/3/3
f 354/3/3 352/3/3 353/3/3
f 355/3/4 356/3/4 357/3/4
f 357/3/4 356/3/4 358/3/4
f 359/2/4 360/2/4 361/2/4
f 361/2/4 360/2/4 362/2/4
f 363/2/4 364/2/4 367/2/4
f 367/2/4 364/2/4 368/2/4
f 365/2/4 366/2/4 369/2/4
f 369/2/4 366/2/4 370/2/4
f 371/2/4 372/2/4 375/2/4
f 372/2/4 373/2/4 375/2/4
f 375/2/4 373/2/4 376/2/4
f 373/3/4 374/3/4 377/3/4
f 376/2/4 373/2/4 377/2/4
f 377/3/4 374/3/4 378/3/4
f 379/3/4 380/3/4 381/3/4
f 381/3/4 380/3/4 382/3/4
f 383/1/4 384/1/4 389/1/4
f 389/1/4 384/1/4 390/1/4
f 385/1/4 386/1/4 391/1/4
f 391/1/4 386/1/4 392/1/4
f 387/1/4 388/1/4 393/1/4
f 393/1/4 388/1/4 394/1/4
f 395/1/4 396/1/4 397/1/4
f 397/1/4 396/1/4 398/1/4
f 390/1/4 391/1/4 399/1/4
f 399/1/4 391/1/4 400/1/4
f 392/1/4 393/1/4 401/1/4
f 401/1/4 393/1/4 402/1/4
f 402/1/4 393/1/4 403/1/4
f 404/3/4 405/3/4 406/3/4
f 406/3/4 405/3/4 407/3/4
f 408/4/4 409/4/4 410/4/4
f 410/4/4 409/4/4 411/4/4
f 412/1/4 413/1/4 416/1/4
f 416/1/4 413/1/4 417/1/4
f 414/1/4 415/1/4 418/1/4
f 418/1/4 415/1/4 419/1/4
f 420/2/4 421/2/4 425/2/4
f 425/2/4 421/2/4 426/2/4
f 422/2/4 423/2/4 427/2/4
f 427/2/4 423/2/4 428/2/4
f 428/2/4 423/2/4 429/2/4
f 425/2/4 426/2/4 433/2/4
f 424/2/4 425/2/4 433/2/4
f 426/2/4 427/2/4 433/2/4
f 427/2/4 428/2/4 433/2/4
f 433/2/4 428/2/4 434/2/4
f 430/2/4 431/2/4 435/2/4
f 435/2/4 431/2/4 436/2/4
f 432/2/4 433/2/4 437/2/4
f 437/2/4 433/2/4 438/2/4
f 439/3/4 440/3/4 442/3/4
f 442/3/4 440/3/4 443/3/4
f 441/4/4 442/4/4 444/4/4
f 444/4/4 442/4/4 445/4/4
f 446/2/4 447/2/4 449/2/4
f 448/2/4 449/2/4 452/2/4
f 449/2/4 447/2/4 453/2/4
f 452/2/4 449/2/4 453/2/4
f 450/1/4 451/1/4 460/1/4
f 460/1/4 451/1/4 461/1/4
f 454/3/4 455/3/4 462/3/4
f 462/3/4 455/3/4 463/3/4
f 456/3/4 457/3/4 464/3/4
f 464/3/4 457/3/4 465/3/4
f 458/3/4 459/3/4 466/3/4
f 466/3/4 459/3/4 467/3/4
f 463/3/4 464/3/4 468/3/4
f 468/3/4 464/3/4 469/3/4
f 470/3/4 471/3/4 472/3/4
f 472/3/4 471/3/4 473/3/4
f 473/3/4 471/3/4 474/3/4
f 474/3/4 471/3/4 475/3/4
f 470/3/4 472/3/4 476/3/4
f 476/3/4 472/3/4 477/3/4
f 473/3/4 474/3/4 478/3/4
f 478/3/4 474/3/4 479/3/4
f 475/3/4 471/3/4 480/3/4
f 480/3/4 471/3/4 481/3/4
f 484/2/5 483/2/5 482/2/5
f 485/2/5 483/2/5 484/2/5
f 487/2/5 483/2/5 485/2/5
f 488/2/5 487/2/5 486/2/5
f 489/2/5 483/2/5 487/2/5
f 489/2/5 487/2/5 488/2/5
f 492/1/5 491/1/5 490/1/5
f 493/1/5 491/1/5 492/1/5
f 496/2/5 495/2/5 494/2/5
f 497/2/5 495/2/5 496/2/5
f 498/2/5 496/2/5 494/2/5
f 499/2/5 498/2/5 494/2/5
f 500/2/5 499/2/5 494/2/5
f 501/2/5 499/2/5 500/2/5
f 504/2/5 503/2/5 502/2/5
f 505/2/5 503/2/5 504/2/5
f 509/2/5 507/2/5 506/2/5
f 510/1/5 509/1/5 508/1/5
f 511/2/5 507/2/5 509/2/5
f 511/1/5 509/1/5 510/1/5
f 512/2/5 507/2/5 511/2/5
f 513/2/5 507/2/5 512/2/5
f 516/3/5 515/3/5 514/3/5
f 517/3/5 515/3/5 516/3/5
f 518/3/5 515/3/5 517/3/5
f 519/3/5 515/3/5 518/3/5
f 520/3/5 515/3/5 519/3/5
f 523/3/5 522/3/5 521/3/5
f 524/3/5 522/3/5 523/3/5
f 526/3/5 525/3/5 524/3/5
f 527/3/5 525/3/5 526/3/5
f 530/3/5 529/3/5 528/3/5
f 531/3/5 529/3/5 530/3/5
f 536/2/5 535/2/5 534/2/5
f 537/2/5 535/2/5 536/2/5
f 539/3/5 533/3/5 532/3/5
f 540/3/5 533/3/5 539/3/5
f 541/3/5 538/3/5 537/3/5
f 541/3/5 539/3/5 538/3/5
f 542/3/5 539/3/5 541/3/5
f 545/2/5 544/2/5 543/2/5
f 546/2/5 544/2/5 545/2/5
f 549/1/5 548/1/5 547/1/5
f 550/1/5 548/1/5 549/1/5
f 553/2/5 552/2/5 551/2/5
f 554/2/5 552/2/5 553/2/5
f 557/1/5 556/1/5 555/1/5
f 558/1/5 556/1/5 557/1/5
f 562/1/5 560/1/5 559/1/5
f 562/1/5 559/1/5 558/1/5
f 563/1/5 560/1/5 562/1/5
f 564/1/5 560/1/5 563/1/5
f 565/1/5 562/1/5 561/1/5
f 566/1/5 562/1/5 565/1/5
f 569/4/5 568/4/5 567/4/5
f 570/4/5 568/4/5 569/4/5
f 573/1/5 572/1/5 571/1/5
f 574/1/5 572/1/5 573/1/5
f 578/1/5 576/1/5 575/1/5
f 578/1/5 575/1/5 574/1/5
f 579/1/5 576/1/5 578/1/5
f 580/1/5 576/1/5 579/1/5
f 583/1/5 578/1/5 577/1/5
f 584/1/5 578/1/5 583/1/5
f 585/4/5 582/4/5 581/4/5
f 586/4/5 582/4/5 585/4/5
f 589/3/5 588/3/5 587/3/5
f 590/3/5 588/3/5 589/3/5
f 593/3/5 592/3/5 591/3/5
f 594/3/5 592/3/5 593/3/5
f 597/3/5 596/3/5 595/3/5
f 598/3/5 596/3/5 597/3/5
f 601/3/5 600/3/5 599/3/5
f 602/3/5 600/3/5 601/3/5
f 603/2/6 604/2/6 605/2/6
f 605/2/6 604/2/6 606/2/6
f 607/1/6 608/1/6 609/1/6
f 609/1/6 608/1/6 610/1/6
f 611/2/6 612/2/6 613/2/6
f 613/2/6 612/2/6 615/2/6
f 614/2/6 615/2/6 616/2/6
f 615/2/6 612/2/6 617/2/6
f 616/2/6 615/2/6 617/2/6
f 618/2/6 619/2/6 620/2/6
f 620/2/6 619/2/6 621/2/6
f 622/3/6 623/3/6 624/3/6
f 624/3/6 623/3/6 625/3/6
f 625/3/6 623/3/6 626/3/6
f 627/1/6 628/1/6 630/1/6
f 628/2/6 629/2/6 631/2/6
f 630/1/6 628/1/6 631/1/6
f 631/2/6 629/2/6 632/2/6
f 633/1/6 634/1/6 635/1/6
f 635/1/6 634/1/6 636/1/6
f 637/1/6 638/1/6 640/1/6
f 636/1/6 637/1/6 640/1/6
f 640/1/6 638/1/6 641/1/6
f 641/1/6 638/1/6 642/1/6
f 639/1/6 640/1/6 643/1/6
f 643/1/6 640/1/6 644/1/6
f 645/4/6 646/4/6 649/4/6
f 649/4/6 646/4/6 650/4/6
f 647/2/6 648/2/6 651/2/6
f 651/2/6 648/2/6 652/2/6
f 653/2/6 654/2/6 655/2/6
f 655/2/6 654/2/6 656/2/6
f 657/3/6 658/3/6 659/3/6
f 659/3/6 658/3/6 660/3/6
f 660/3/6 661/3/6 664/3/6
f 664/3/6 661/3/6 665/3/6
f 662/2/6 663/2/6 668/2/6
f 668/2/6 663/2/6 669/2/6
f 666/1/6 667/1/6 672/1/6
f 672/1/6 667/1/6 673/1/6
f 673/1/6 674/1/6 676/1/6
f 676/1/6 674/1/6 677/1/6
f 675/1/6 676/1/6 678/1/6
f 678/1/6 676/1/6 679/1/6
f 670/4/6 671/4/6 681/4/6
f 681/4/6 671/4/6 682/4/6
f 680/3/6 681/3/6 684/3/6
f 684/3/6 681/3/6 685/3/6
f 683/3/6 684/3/6 686/3/6
f 686/3/6 684/3/6 687/3/6
f 688/2/6 689/2/6 691/2/6
f 690/2/6 691/2/6 692/2/6
f 691/2/6 689/2/6 693/2/6
f 692/2/6 691/2/6 693/2/6
f 694/1/6 695/1/6 696/1/6
f 696/1/6 695/1/6 697/1/6
f 698/3/6 699/3/6 700/3/6
f 700/3/6 699/3/6 701/3/6
f 702/3/6 703/3/6 704/3/6
f 704/3/6 703/3/6 705/3/6
f 706/3/6 707/3/6 708/3/6
f 708/3/6 707/3/6 709/3/6
f 710/3/6 711/3/6 712/3/6
f 712/3/6 711/3/6 713/3/6
f 713/3/6 711/3/6 715/3/6
f 714/3/6 715/3/6 716/3/6
f 715/3/6 711/3/6 717/3/6
f 716/3/6 715/3/6 717/3/6
