# MagicaVoxel @ Ephtracy

# group
o 

# material
mtllib Leg-67.mtl
usemtl palette

# normals
vn -1 0 0
vn 1 0 0
vn 0 0 1
vn 0 0 -1
vn 0 -1 0
vn 0 1 0

# texcoords
vt 0.705078 0.5
vt 0.712891 0.5
vt 0.751953 0.5
vt 0.755859 0.5

# verts
v -0.3 -0.25 0.6
v -0.3 -0.25 0.3
v -0.3 -0.15 0.7
v -0.3 -0.15 0.6
v -0.3 -0.15 0.3
v -0.3 -0.15 0.2
v -0.3 -0.05 0.1
v -0.3 -0.05 -0.1
v -0.3 -0.05 -0.2
v -0.3 -0.05 -0.4
v -0.3 0.05 -0.1
v -0.3 0.05 -0.2
v -0.3 0.15 0.7
v -0.3 0.15 0.6
v -0.3 0.15 0.3
v -0.3 0.15 0.2
v -0.3 0.15 0.1
v -0.3 0.15 -0.4
v -0.3 0.25 0.6
v -0.3 0.25 0.3
v -0.2 -0.15 0.6
v -0.2 -0.15 0.3
v -0.2 -0.15 0.1
v -0.2 -0.15 -0.4
v -0.2 -0.15 -0.5
v -0.2 -0.15 -0.6
v -0.2 -0.05 0.2
v -0.2 -0.05 0.1
v -0.2 -0.05 -0.1
v -0.2 -0.05 -0.2
v -0.2 -0.05 -0.4
v -0.2 -0.05 -0.5
v -0.2 -0.05 -0.6
v -0.2 -0.05 -0.7
v -0.2 0.05 -0.1
v -0.2 0.05 -0.2
v -0.2 0.15 0.6
v -0.2 0.15 0.3
v -0.2 0.15 0.2
v -0.2 0.15 0.1
v -0.2 0.15 -0.2
v -0.2 0.15 -0.4
v -0.2 0.15 -0.5
v -0.2 0.15 -0.6
v -0.2 0.15 -0.7
v -0.2 0.25 0.1
v -0.2 0.25 -0.2
v -0.2 0.25 -0.5
v -0.2 0.25 -0.6
v 0.1 -0.05 0.7
v 0.1 -0.05 0.5
v 0.1 0.05 0.6
v 0.1 0.05 0.5
v 0.1 0.15 0.7
v 0.1 0.15 0.6
v -0.1 -0.15 0.6
v -0.1 -0.15 0.3
v -0.1 -0.15 0.1
v -0.1 -0.15 -0.4
v -0.1 -0.15 -0.5
v -0.1 -0.15 -0.6
v -0.1 -0.05 0.5
v -0.1 -0.05 0.4
v -0.1 -0.05 0.2
v -0.1 -0.05 0.1
v -0.1 -0.05 -0.4
v -0.1 -0.05 -0.5
v -0.1 -0.05 -0.6
v -0.1 -0.05 -0.7
v -0.1 0.05 0.5
v -0.1 0.05 0.4
v -0.1 0.15 0.6
v -0.1 0.15 0.3
v -0.1 0.15 0.2
v -0.1 0.15 0.1
v -0.1 0.15 -0.2
v -0.1 0.15 -0.5
v -0.1 0.15 -0.6
v -0.1 0.15 -0.7
v -0.1 0.25 0.1
v -0.1 0.25 -0.2
v -0.1 0.25 -0.5
v -0.1 0.25 -0.6
v 0 -0.25 0.6
v 0 -0.25 0.3
v 0 -0.15 0.7
v 0 -0.15 0.6
v 0 -0.15 0.3
v 0 -0.15 0.2
v 0 -0.05 0.1
v 0 -0.05 -0.5
v 0 0.15 0.7
v 0 0.15 0.6
v 0 0.15 0.3
v 0 0.15 0.2
v 0 0.15 0.1
v 0 0.15 -0.5
v 0 0.25 0.6
v 0 0.25 0.3
v 0.2 -0.05 0.6
v 0.2 -0.05 0.4
v 0.2 0.05 0.6
v 0.2 0.05 0.4
v 0.3 -0.05 0.7
v 0.3 -0.05 0.6
v 0.3 0.15 0.7
v 0.3 0.15 0.6
v -0.3 -0.15 0.7
v -0.3 0.15 0.7
v -0.2 -0.15 0.7
v -0.2 0.15 0.7
v -0.1 -0.15 0.7
v -0.1 0.15 0.7
v 0 -0.15 0.7
v 0 0.15 0.7
v 0.1 -0.05 0.7
v 0.1 0.15 0.7
v 0.3 -0.05 0.7
v 0.3 0.15 0.7
v -0.3 -0.25 0.6
v -0.3 -0.15 0.6
v -0.3 0.15 0.6
v -0.3 0.25 0.6
v -0.2 -0.25 0.6
v -0.2 -0.15 0.6
v -0.2 0.15 0.6
v -0.2 0.25 0.6
v -0.1 -0.25 0.6
v -0.1 -0.15 0.6
v -0.1 0.15 0.6
v -0.1 0.25 0.6
v 0 -0.25 0.6
v 0 -0.15 0.6
v 0 0.15 0.6
v 0 0.25 0.6
v -0.1 -0.05 0.5
v -0.1 0.05 0.5
v 0.1 -0.05 0.5
v 0.1 0.05 0.5
v -0.3 -0.15 0.3
v -0.3 0.15 0.3
v -0.2 -0.15 0.3
v -0.2 0.15 0.3
v -0.1 -0.15 0.3
v -0.1 0.15 0.3
v 0 -0.15 0.3
v 0 0.15 0.3
v -0.3 -0.05 0.1
v -0.3 0.15 0.1
v -0.2 -0.15 0.1
v -0.2 -0.05 0.1
v -0.2 0.15 0.1
v -0.2 0.25 0.1
v -0.1 -0.15 0.1
v -0.1 -0.05 0.1
v -0.1 0.15 0.1
v -0.1 0.25 0.1
v 0 -0.05 0.1
v 0 0.15 0.1
v -0.3 -0.05 -0.2
v -0.3 0.05 -0.2
v -0.2 -0.05 -0.2
v -0.2 0.05 -0.2
v -0.2 -0.15 -0.5
v -0.2 -0.05 -0.5
v -0.2 0.15 -0.5
v -0.2 0.25 -0.5
v -0.1 -0.15 -0.5
v -0.1 -0.05 -0.5
v -0.1 0.15 -0.5
v -0.1 0.25 -0.5
v -0.3 -0.15 0.6
v -0.3 0.15 0.6
v -0.2 -0.15 0.6
v -0.2 0.15 0.6
v -0.1 -0.15 0.6
v -0.1 0.15 0.6
v 0 -0.15 0.6
v 0 0.15 0.6
v 0.1 0.05 0.6
v 0.1 0.15 0.6
v 0.2 -0.05 0.6
v 0.2 0.05 0.6
v 0.3 -0.05 0.6
v 0.3 0.15 0.6
v -0.1 -0.05 0.4
v -0.1 0.05 0.4
v 0.2 -0.05 0.4
v 0.2 0.05 0.4
v -0.3 -0.25 0.3
v -0.3 -0.15 0.3
v -0.3 0.15 0.3
v -0.3 0.25 0.3
v -0.2 -0.25 0.3
v -0.2 -0.15 0.3
v -0.2 0.15 0.3
v -0.2 0.25 0.3
v -0.1 -0.25 0.3
v -0.1 -0.15 0.3
v -0.1 0.15 0.3
v -0.1 0.25 0.3
v 0 -0.25 0.3
v 0 -0.15 0.3
v 0 0.15 0.3
v 0 0.25 0.3
v -0.3 -0.15 0.2
v -0.3 0.15 0.2
v -0.2 -0.15 0.2
v -0.2 -0.05 0.2
v -0.2 0.15 0.2
v -0.1 -0.15 0.2
v -0.1 -0.05 0.2
v -0.1 0.15 0.2
v 0 -0.15 0.2
v 0 0.15 0.2
v -0.3 -0.05 -0.1
v -0.3 0.05 -0.1
v -0.2 -0.05 -0.1
v -0.2 0.05 -0.1
v -0.2 0.15 -0.2
v -0.2 0.25 -0.2
v -0.1 0.15 -0.2
v -0.1 0.25 -0.2
v -0.3 -0.05 -0.4
v -0.3 0.15 -0.4
v -0.2 -0.15 -0.4
v -0.2 -0.05 -0.4
v -0.2 0.15 -0.4
v -0.1 -0.15 -0.4
v -0.1 -0.05 -0.4
v -0.1 -0.05 -0.5
v -0.1 0.15 -0.5
v 0 -0.05 -0.5
v 0 0.15 -0.5
v -0.2 -0.15 -0.6
v -0.2 -0.05 -0.6
v -0.2 0.15 -0.6
v -0.2 0.25 -0.6
v -0.1 -0.15 -0.6
v -0.1 -0.05 -0.6
v -0.1 0.15 -0.6
v -0.1 0.25 -0.6
v -0.2 -0.05 -0.7
v -0.2 0.15 -0.7
v -0.1 -0.05 -0.7
v -0.1 0.15 -0.7
v -0.3 -0.25 0.6
v -0.2 -0.25 0.6
v -0.1 -0.25 0.6
v 0 -0.25 0.6
v -0.3 -0.25 0.3
v -0.2 -0.25 0.3
v -0.1 -0.25 0.3
v 0 -0.25 0.3
v -0.3 -0.15 0.7
v -0.2 -0.15 0.7
v -0.1 -0.15 0.7
v 0 -0.15 0.7
v -0.3 -0.15 0.6
v -0.2 -0.15 0.6
v -0.1 -0.15 0.6
v 0 -0.15 0.6
v -0.3 -0.15 0.3
v -0.2 -0.15 0.3
v -0.1 -0.15 0.3
v 0 -0.15 0.3
v -0.3 -0.15 0.2
v -0.2 -0.15 0.2
v -0.1 -0.15 0.2
v 0 -0.15 0.2
v -0.2 -0.15 0.1
v -0.1 -0.15 0.1
v -0.2 -0.15 -0.4
v -0.1 -0.15 -0.4
v -0.2 -0.15 -0.5
v -0.1 -0.15 -0.5
v -0.2 -0.15 -0.6
v -0.1 -0.15 -0.6
v 0.1 -0.05 0.7
v 0.3 -0.05 0.7
v 0.2 -0.05 0.6
v 0.3 -0.05 0.6
v -0.1 -0.05 0.5
v 0.1 -0.05 0.5
v -0.1 -0.05 0.4
v 0.2 -0.05 0.4
v -0.2 -0.05 0.2
v -0.1 -0.05 0.2
v -0.3 -0.05 0.1
v -0.2 -0.05 0.1
v -0.1 -0.05 0.1
v 0 -0.05 0.1
v -0.3 -0.05 -0.1
v -0.2 -0.05 -0.1
v -0.3 -0.05 -0.2
v -0.2 -0.05 -0.2
v -0.3 -0.05 -0.4
v -0.2 -0.05 -0.4
v -0.1 -0.05 -0.4
v -0.2 -0.05 -0.5
v -0.1 -0.05 -0.5
v 0 -0.05 -0.5
v -0.2 -0.05 -0.6
v -0.1 -0.05 -0.6
v -0.2 -0.05 -0.7
v -0.1 -0.05 -0.7
v -0.3 0.05 -0.1
v -0.2 0.05 -0.1
v -0.3 0.05 -0.2
v -0.2 0.05 -0.2
v -0.3 0.15 0.6
v -0.2 0.15 0.6
v -0.1 0.15 0.6
v 0 0.15 0.6
v -0.3 0.15 0.3
v -0.2 0.15 0.3
v -0.1 0.15 0.3
v 0 0.15 0.3
v -0.3 -0.15 0.6
v -0.2 -0.15 0.6
v -0.1 -0.15 0.6
v 0 -0.15 0.6
v -0.3 -0.15 0.3
v -0.2 -0.15 0.3
v -0.1 -0.15 0.3
v 0 -0.15 0.3
v 0.1 0.05 0.6
v 0.2 0.05 0.6
v -0.1 0.05 0.5
v 0.1 0.05 0.5
v -0.1 0.05 0.4
v 0.2 0.05 0.4
v -0.3 0.15 0.7
v -0.2 0.15 0.7
v -0.1 0.15 0.7
v 0 0.15 0.7
v 0.1 0.15 0.7
v 0.3 0.15 0.7
v -0.3 0.15 0.6
v -0.2 0.15 0.6
v -0.1 0.15 0.6
v 0 0.15 0.6
v 0.1 0.15 0.6
v 0.3 0.15 0.6
v -0.3 0.15 0.3
v -0.2 0.15 0.3
v -0.1 0.15 0.3
v 0 0.15 0.3
v -0.3 0.15 0.2
v -0.2 0.15 0.2
v -0.1 0.15 0.2
v 0 0.15 0.2
v -0.3 0.15 0.1
v -0.2 0.15 0.1
v -0.1 0.15 0.1
v 0 0.15 0.1
v -0.2 0.15 -0.2
v -0.1 0.15 -0.2
v -0.3 0.15 -0.4
v -0.2 0.15 -0.4
v -0.1 0.15 -0.4
v -0.2 0.15 -0.5
v -0.1 0.15 -0.5
v 0 0.15 -0.5
v -0.2 0.15 -0.6
v -0.1 0.15 -0.6
v -0.2 0.15 -0.7
v -0.1 0.15 -0.7
v -0.3 0.25 0.6
v -0.2 0.25 0.6
v -0.1 0.25 0.6
v 0 0.25 0.6
v -0.3 0.25 0.3
v -0.2 0.25 0.3
v -0.1 0.25 0.3
v 0 0.25 0.3
v -0.2 0.25 0.1
v -0.1 0.25 0.1
v -0.2 0.25 -0.2
v -0.1 0.25 -0.2
v -0.2 0.25 -0.5
v -0.1 0.25 -0.5
v -0.2 0.25 -0.6
v -0.1 0.25 -0.6

# faces
f 4/4/1 2/4/1 1/4/1
f 5/4/1 2/4/1 4/4/1
f 11/4/1 8/4/1 7/4/1
f 12/4/1 10/4/1 9/4/1
f 13/4/1 4/4/1 3/4/1
f 14/4/1 4/4/1 13/4/1
f 15/4/1 6/4/1 5/4/1
f 16/4/1 6/4/1 15/4/1
f 17/4/1 12/4/1 11/4/1
f 17/4/1 11/4/1 7/4/1
f 18/4/1 10/4/1 12/4/1
f 18/4/1 12/4/1 17/4/1
f 19/4/1 15/4/1 14/4/1
f 20/4/1 15/4/1 19/4/1
f 28/4/1 24/4/1 23/4/1
f 29/4/1 24/4/1 28/4/1
f 30/4/1 24/4/1 29/4/1
f 31/4/1 24/4/1 30/4/1
f 32/1/1 26/1/1 25/1/1
f 33/1/1 26/1/1 32/1/1
f 35/2/1 30/2/1 29/2/1
f 36/2/1 30/2/1 35/2/1
f 37/1/1 22/1/1 21/1/1
f 38/1/1 22/1/1 37/1/1
f 39/1/1 28/1/1 27/1/1
f 40/1/1 28/1/1 39/1/1
f 42/1/1 34/1/1 33/1/1
f 42/1/1 33/1/1 32/1/1
f 42/1/1 32/1/1 31/1/1
f 43/1/1 34/1/1 42/1/1
f 44/1/1 34/1/1 43/1/1
f 45/1/1 34/1/1 44/1/1
f 46/4/1 41/4/1 40/4/1
f 47/4/1 41/4/1 46/4/1
f 48/1/1 44/1/1 43/1/1
f 49/1/1 44/1/1 48/1/1
f 52/1/1 51/1/1 50/1/1
f 53/1/1 51/1/1 52/1/1
f 54/1/1 52/1/1 50/1/1
f 55/1/1 52/1/1 54/1/1
f 56/1/2 57/1/2 62/1/2
f 62/1/2 57/1/2 63/1/2
f 58/4/2 59/4/2 65/4/2
f 65/4/2 59/4/2 66/4/2
f 60/1/2 61/1/2 67/1/2
f 67/1/2 61/1/2 68/1/2
f 56/1/2 62/1/2 70/1/2
f 63/1/2 57/1/2 71/1/2
f 56/1/2 70/1/2 72/1/2
f 70/1/2 71/1/2 72/1/2
f 71/1/2 57/1/2 73/1/2
f 72/1/2 71/1/2 73/1/2
f 64/1/2 65/1/2 74/1/2
f 74/1/2 65/1/2 75/1/2
f 68/1/2 69/1/2 77/1/2
f 67/1/2 68/1/2 77/1/2
f 77/1/2 69/1/2 78/1/2
f 78/1/2 69/1/2 79/1/2
f 75/4/2 76/4/2 80/4/2
f 80/4/2 76/4/2 81/4/2
f 77/1/2 78/1/2 82/1/2
f 82/1/2 78/1/2 83/1/2
f 84/4/2 85/4/2 87/4/2
f 87/4/2 85/4/2 88/4/2
f 86/4/2 87/4/2 92/4/2
f 92/4/2 87/4/2 93/4/2
f 88/4/2 89/4/2 94/4/2
f 94/4/2 89/4/2 95/4/2
f 90/4/2 91/4/2 96/4/2
f 96/4/2 91/4/2 97/4/2
f 93/4/2 94/4/2 98/4/2
f 98/4/2 94/4/2 99/4/2
f 100/1/2 101/1/2 102/1/2
f 102/1/2 101/1/2 103/1/2
f 104/1/2 105/1/2 106/1/2
f 106/1/2 105/1/2 107/1/2
f 110/4/3 109/4/3 108/4/3
f 111/4/3 109/4/3 110/4/3
f 112/3/3 111/3/3 110/3/3
f 113/3/3 111/3/3 112/3/3
f 114/4/3 113/4/3 112/4/3
f 115/4/3 113/4/3 114/4/3
f 118/1/3 117/1/3 116/1/3
f 119/1/3 117/1/3 118/1/3
f 124/4/3 121/4/3 120/4/3
f 125/4/3 121/4/3 124/4/3
f 126/4/3 123/4/3 122/4/3
f 127/4/3 123/4/3 126/4/3
f 128/3/3 125/3/3 124/3/3
f 129/3/3 125/3/3 128/3/3
f 130/3/3 127/3/3 126/3/3
f 131/3/3 127/3/3 130/3/3
f 132/4/3 129/4/3 128/4/3
f 133/4/3 129/4/3 132/4/3
f 134/4/3 131/4/3 130/4/3
f 135/4/3 131/4/3 134/4/3
f 138/1/3 137/1/3 136/1/3
f 139/1/3 137/1/3 138/1/3
f 142/4/3 141/4/3 140/4/3
f 143/4/3 141/4/3 142/4/3
f 146/4/3 145/4/3 144/4/3
f 147/4/3 145/4/3 146/4/3
f 151/4/3 149/4/3 148/4/3
f 152/4/3 149/4/3 151/4/3
f 154/4/3 151/4/3 150/4/3
f 155/4/3 151/4/3 154/4/3
f 156/4/3 153/4/3 152/4/3
f 157/4/3 153/4/3 156/4/3
f 158/4/3 156/4/3 155/4/3
f 159/4/3 156/4/3 158/4/3
f 162/4/3 161/4/3 160/4/3
f 163/4/3 161/4/3 162/4/3
f 168/1/3 165/1/3 164/1/3
f 169/1/3 165/1/3 168/1/3
f 170/1/3 167/1/3 166/1/3
f 171/1/3 167/1/3 170/1/3
f 172/4/4 173/4/4 174/4/4
f 174/4/4 173/4/4 175/4/4
f 176/4/4 177/4/4 178/4/4
f 178/4/4 177/4/4 179/4/4
f 180/1/4 181/1/4 183/1/4
f 182/1/4 183/1/4 184/1/4
f 183/1/4 181/1/4 185/1/4
f 184/1/4 183/1/4 185/1/4
f 186/1/4 187/1/4 188/1/4
f 188/1/4 187/1/4 189/1/4
f 190/4/4 191/4/4 194/4/4
f 194/4/4 191/4/4 195/4/4
f 192/4/4 193/4/4 196/4/4
f 196/4/4 193/4/4 197/4/4
f 194/3/4 195/3/4 198/3/4
f 198/3/4 195/3/4 199/3/4
f 196/3/4 197/3/4 200/3/4
f 200/3/4 197/3/4 201/3/4
f 198/4/4 199/4/4 202/4/4
f 202/4/4 199/4/4 203/4/4
f 200/4/4 201/4/4 204/4/4
f 204/4/4 201/4/4 205/4/4
f 206/4/4 207/4/4 208/4/4
f 208/4/4 207/4/4 209/4/4
f 209/4/4 207/4/4 210/4/4
f 208/3/4 209/3/4 211/3/4
f 211/3/4 209/3/4 212/3/4
f 211/4/4 212/4/4 214/4/4
f 212/4/4 213/4/4 214/4/4
f 214/4/4 213/4/4 215/4/4
f 216/4/4 217/4/4 218/4/4
f 218/4/4 217/4/4 219/4/4
f 220/4/4 221/4/4 222/4/4
f 222/4/4 221/4/4 223/4/4
f 224/4/4 225/4/4 227/4/4
f 227/4/4 225/4/4 228/4/4
f 226/4/4 227/4/4 229/4/4
f 229/4/4 227/4/4 230/4/4
f 231/4/4 232/4/4 233/4/4
f 233/4/4 232/4/4 234/4/4
f 235/1/4 236/1/4 239/1/4
f 239/1/4 236/1/4 240/1/4
f 237/1/4 238/1/4 241/1/4
f 241/1/4 238/1/4 242/1/4
f 243/1/4 244/1/4 245/1/4
f 245/1/4 244/1/4 246/1/4
f 251/4/5 248/4/5 247/4/5
f 252/3/5 249/3/5 248/3/5
f 252/4/5 248/4/5 251/4/5
f 253/4/5 250/4/5 249/4/5
f 253/3/5 249/3/5 252/3/5
f 254/4/5 250/4/5 253/4/5
f 259/4/5 256/4/5 255/4/5
f 260/3/5 257/3/5 256/3/5
f 260/4/5 256/4/5 259/4/5
f 261/4/5 258/4/5 257/4/5
f 261/3/5 257/3/5 260/3/5
f 262/4/5 258/4/5 261/4/5
f 267/4/5 264/4/5 263/4/5
f 268/3/5 265/3/5 264/3/5
f 268/4/5 264/4/5 267/4/5
f 269/4/5 266/4/5 265/4/5
f 269/3/5 265/3/5 268/3/5
f 270/4/5 266/4/5 269/4/5
f 273/4/5 272/4/5 271/4/5
f 274/4/5 272/4/5 273/4/5
f 277/1/5 276/1/5 275/1/5
f 278/1/5 276/1/5 277/1/5
f 281/1/5 280/1/5 279/1/5
f 282/1/5 280/1/5 281/1/5
f 284/1/5 281/1/5 279/1/5
f 285/1/5 284/1/5 283/1/5
f 286/1/5 281/1/5 284/1/5
f 286/1/5 284/1/5 285/1/5
f 290/1/5 288/1/5 287/1/5
f 291/1/5 288/1/5 290/1/5
f 293/4/5 290/4/5 289/4/5
f 294/4/5 290/4/5 293/4/5
f 297/4/5 296/4/5 295/4/5
f 298/4/5 296/4/5 297/4/5
f 299/4/5 292/4/5 291/4/5
f 300/1/5 299/1/5 298/1/5
f 301/4/5 292/4/5 299/4/5
f 301/1/5 299/1/5 300/1/5
f 302/4/5 292/4/5 301/4/5
f 305/1/5 304/1/5 303/1/5
f 306/1/5 304/1/5 305/1/5
f 309/4/5 308/4/5 307/4/5
f 310/4/5 308/4/5 309/4/5
f 315/4/5 312/4/5 311/4/5
f 316/4/5 312/4/5 315/4/5
f 317/4/5 314/4/5 313/4/5
f 318/4/5 314/4/5 317/4/5
f 319/4/6 320/4/6 323/4/6
f 323/4/6 320/4/6 324/4/6
f 321/4/6 322/4/6 325/4/6
f 325/4/6 322/4/6 326/4/6
f 327/1/6 328/1/6 330/1/6
f 329/1/6 330/1/6 331/1/6
f 330/1/6 328/1/6 332/1/6
f 331/1/6 330/1/6 332/1/6
f 333/4/6 334/4/6 339/4/6
f 334/3/6 335/3/6 340/3/6
f 339/4/6 334/4/6 340/4/6
f 335/4/6 336/4/6 341/4/6
f 340/3/6 335/3/6 341/3/6
f 341/4/6 336/4/6 342/4/6
f 337/1/6 338/1/6 343/1/6
f 343/1/6 338/1/6 344/1/6
f 345/4/6 346/4/6 349/4/6
f 346/3/6 347/3/6 350/3/6
f 349/4/6 346/4/6 350/4/6
f 347/4/6 348/4/6 351/4/6
f 350/3/6 347/3/6 351/3/6
f 351/4/6 348/4/6 352/4/6
f 350/1/6 351/1/6 354/1/6
f 354/1/6 351/1/6 355/1/6
f 353/4/6 354/4/6 357/4/6
f 355/4/6 356/4/6 358/4/6
f 353/4/6 357/4/6 359/4/6
f 357/4/6 358/4/6 359/4/6
f 359/4/6 358/4/6 360/4/6
f 358/4/6 356/4/6 361/4/6
f 360/4/6 358/4/6 361/4/6
f 360/1/6 361/1/6 362/1/6
f 361/4/6 356/4/6 363/4/6
f 362/1/6 361/1/6 363/1/6
f 363/4/6 356/4/6 364/4/6
f 365/1/6 366/1/6 367/1/6
f 367/1/6 366/1/6 368/1/6
f 369/4/6 370/4/6 373/4/6
f 370/3/6 371/3/6 374/3/6
f 373/4/6 370/4/6 374/4/6
f 371/4/6 372/4/6 375/4/6
f 374/3/6 371/3/6 375/3/6
f 375/4/6 372/4/6 376/4/6
f 377/4/6 378/4/6 379/4/6
f 379/4/6 378/4/6 380/4/6
f 381/1/6 382/1/6 383/1/6
f 383/1/6 382/1/6 384/1/6
