# MagicaVoxel @ Ephtracy

# group
o 

# material
mtllib Leg-63.mtl
usemtl palette

# normals
vn -1 0 0
vn 1 0 0
vn 0 0 1
vn 0 0 -1
vn 0 -1 0
vn 0 1 0

# texcoords
vt 0.705078 0.5
vt 0.787109 0.5

# verts
v -0.15 0.55 0.1
v -0.15 0.55 -0.2
v -0.15 0.75 0.1
v -0.15 0.75 -0.2
v -0.05 -0.75 0
v -0.05 -0.75 -0.1
v -0.05 -0.55 0.1
v -0.05 -0.55 0
v -0.05 0.45 0.2
v -0.05 0.45 0.1
v -0.05 0.45 -0.1
v -0.05 0.45 -0.2
v -0.05 0.55 0.1
v -0.05 0.55 -0.2
v -0.05 0.65 0.2
v -0.05 0.65 0.1
v 0.05 -0.75 0
v 0.05 -0.75 -0.1
v 0.05 -0.55 0.1
v 0.05 -0.55 0
v 0.05 0.45 0.1
v 0.05 0.45 -0.1
v 0.05 0.65 0.1
v 0.05 0.65 -0.2
v 0.05 0.75 0.1
v 0.05 0.75 -0.2
v 0.15 0.45 0.2
v 0.15 0.45 -0.2
v 0.15 0.65 0.2
v 0.15 0.65 -0.2
v -0.05 0.45 0.2
v -0.05 0.65 0.2
v 0.15 0.45 0.2
v 0.15 0.65 0.2
v -0.15 0.55 0.1
v -0.15 0.75 0.1
v -0.05 -0.55 0.1
v -0.05 0.45 0.1
v -0.05 0.55 0.1
v -0.05 0.65 0.1
v 0.05 -0.55 0.1
v 0.05 0.45 0.1
v 0.05 0.65 0.1
v 0.05 0.75 0.1
v -0.05 -0.75 0
v -0.05 -0.55 0
v 0.05 -0.75 0
v 0.05 -0.55 0
v -0.05 -0.75 -0.1
v -0.05 0.45 -0.1
v 0.05 -0.75 -0.1
v 0.05 0.45 -0.1
v -0.15 0.55 -0.2
v -0.15 0.75 -0.2
v -0.05 0.45 -0.2
v -0.05 0.55 -0.2
v 0.05 0.65 -0.2
v 0.05 0.75 -0.2
v 0.15 0.45 -0.2
v 0.15 0.65 -0.2
v -0.05 -0.75 0
v 0.05 -0.75 0
v -0.05 -0.75 -0.1
v 0.05 -0.75 -0.1
v -0.05 -0.55 0.1
v 0.05 -0.55 0.1
v -0.05 -0.55 0
v 0.05 -0.55 0
v -0.05 0.45 0.2
v 0.15 0.45 0.2
v -0.05 0.45 0.1
v 0.05 0.45 0.1
v -0.05 0.45 -0.1
v 0.05 0.45 -0.1
v -0.05 0.45 -0.2
v 0.15 0.45 -0.2
v -0.15 0.55 0.1
v -0.05 0.55 0.1
v -0.15 0.55 -0.2
v -0.05 0.55 -0.2
v -0.05 0.65 0.2
v 0.15 0.65 0.2
v -0.05 0.65 0.1
v 0.05 0.65 0.1
v 0.05 0.65 -0.2
v 0.15 0.65 -0.2
v -0.15 0.75 0.1
v 0.05 0.75 0.1
v -0.15 0.75 -0.2
v 0.05 0.75 -0.2

# faces
f 3/2/1 2/2/1 1/2/1
f 4/2/1 2/2/1 3/2/1
f 8/1/1 6/1/1 5/1/1
f 10/1/1 8/1/1 7/1/1
f 11/1/1 6/1/1 8/1/1
f 11/1/1 8/1/1 10/1/1
f 13/2/1 10/2/1 9/2/1
f 13/2/1 12/2/1 11/2/1
f 13/2/1 11/2/1 10/2/1
f 14/2/1 12/2/1 13/2/1
f 15/2/1 13/2/1 9/2/1
f 16/2/1 13/2/1 15/2/1
f 17/1/2 18/1/2 20/1/2
f 19/1/2 20/1/2 21/1/2
f 20/1/2 18/1/2 22/1/2
f 21/1/2 20/1/2 22/1/2
f 23/2/2 24/2/2 25/2/2
f 25/2/2 24/2/2 26/2/2
f 27/2/2 28/2/2 29/2/2
f 29/2/2 28/2/2 30/2/2
f 33/2/3 32/2/3 31/2/3
f 34/2/3 32/2/3 33/2/3
f 39/2/3 36/2/3 35/2/3
f 40/2/3 36/2/3 39/2/3
f 41/1/3 38/1/3 37/1/3
f 42/1/3 38/1/3 41/1/3
f 43/2/3 36/2/3 40/2/3
f 44/2/3 36/2/3 43/2/3
f 47/1/3 46/1/3 45/1/3
f 48/1/3 46/1/3 47/1/3
f 49/1/4 50/1/4 51/1/4
f 51/1/4 50/1/4 52/1/4
f 53/2/4 54/2/4 56/2/4
f 56/2/4 54/2/4 57/2/4
f 55/2/4 56/2/4 57/2/4
f 57/2/4 54/2/4 58/2/4
f 55/2/4 57/2/4 59/2/4
f 59/2/4 57/2/4 60/2/4
f 63/1/5 62/1/5 61/1/5
f 64/1/5 62/1/5 63/1/5
f 67/1/5 66/1/5 65/1/5
f 68/1/5 66/1/5 67/1/5
f 71/2/5 70/2/5 69/2/5
f 72/2/5 70/2/5 71/2/5
f 74/2/5 70/2/5 72/2/5
f 75/2/5 74/2/5 73/2/5
f 76/2/5 70/2/5 74/2/5
f 76/2/5 74/2/5 75/2/5
f 79/2/5 78/2/5 77/2/5
f 80/2/5 78/2/5 79/2/5
f 81/2/6 82/2/6 83/2/6
f 83/2/6 82/2/6 84/2/6
f 84/2/6 82/2/6 85/2/6
f 85/2/6 82/2/6 86/2/6
f 87/2/6 88/2/6 89/2/6
f 89/2/6 88/2/6 90/2/6
