# MagicaVoxel @ Ephtracy

# group
o 

# material
mtllib Leg-41.mtl
usemtl palette

# normals
vn -1 0 0
vn 1 0 0
vn 0 0 1
vn 0 0 -1
vn 0 -1 0
vn 0 1 0

# texcoords
vt 0.705078 0.5
vt 0.708984 0.5
vt 0.876953 0.5
vt 0.880859 0.5

# verts
v -0.45 0.3 0.2
v -0.45 0.3 -0.1
v -0.45 0.4 0.2
v -0.45 0.4 0.1
v -0.45 0.4 -0.1
v -0.45 0.4 -0.2
v -0.45 0.5 0.1
v -0.45 0.5 -0.2
v -0.35 -0.1 0.3
v -0.35 -0.1 0
v -0.35 0 0
v -0.35 0 -0.3
v -0.35 0.3 0.2
v -0.35 0.3 -0.1
v -0.35 0.4 0.2
v -0.35 0.4 0.1
v -0.35 0.4 -0.1
v -0.35 0.4 -0.2
v -0.35 0.5 0.3
v -0.35 0.5 0.2
v -0.35 0.5 0.1
v -0.35 0.5 -0.2
v -0.35 0.5 -0.3
v -0.35 0.9 0.2
v -0.35 0.9 -0.2
v -0.25 -1 0.2
v -0.25 -1 -0.2
v -0.25 -0.9 -0.2
v -0.25 -0.9 -0.3
v -0.25 -0.7 -0.2
v -0.25 -0.7 -0.3
v -0.25 -0.6 0.2
v -0.25 -0.6 -0.2
v -0.25 -0.2 0.3
v -0.25 -0.2 -0.1
v -0.25 -0.1 0.4
v -0.25 -0.1 0.3
v -0.25 -0.1 0
v -0.25 -0.1 -0.1
v -0.25 -0.1 -0.3
v -0.25 0 0
v -0.25 0 -0.3
v -0.25 0 -0.4
v -0.25 0.5 0.4
v -0.25 0.5 0.3
v -0.25 0.5 0.2
v -0.25 0.5 -0.2
v -0.25 0.5 -0.3
v -0.25 0.5 -0.4
v -0.25 0.6 0.4
v -0.25 0.6 0.3
v -0.25 0.6 -0.3
v -0.25 0.6 -0.4
v -0.25 0.8 0.4
v -0.25 0.8 0.3
v -0.25 0.8 -0.3
v -0.25 0.8 -0.4
v -0.25 0.9 0.4
v -0.25 0.9 0.3
v -0.25 0.9 0.2
v -0.25 0.9 -0.2
v -0.25 0.9 -0.3
v -0.25 0.9 -0.4
v -0.25 1 0.4
v -0.25 1 -0.4
v -0.15 -0.6 0.2
v -0.15 -0.6 0
v -0.15 -0.2 0.2
v -0.15 -0.2 0
v -0.15 0.5 0.4
v -0.15 0.5 0.3
v -0.15 0.5 -0.3
v -0.15 0.5 -0.4
v -0.15 0.6 0.4
v -0.15 0.6 0.3
v -0.15 0.6 -0.3
v -0.15 0.6 -0.4
v -0.15 0.8 0.4
v -0.15 0.8 0.3
v -0.15 0.8 -0.3
v -0.15 0.8 -0.4
v -0.15 0.9 0.4
v -0.15 0.9 0.3
v -0.15 0.9 -0.3
v -0.15 0.9 -0.4
v -0.05 -0.6 0
v -0.05 -0.6 -0.1
v -0.05 -0.6 -0.2
v -0.05 -0.2 0
v -0.05 -0.1 0.2
v -0.05 -0.1 0
v -0.05 0 -0.2
v -0.05 0 -0.3
v -0.05 0.6 0.2
v -0.05 0.6 -0.3
v 0.35 0.1 0
v 0.35 0.1 -0.1
v 0.35 0.2 0.1
v 0.35 0.2 0
v 0.35 0.2 -0.1
v 0.35 0.2 -0.2
v 0.35 0.3 0.1
v 0.35 0.3 0
v 0.35 0.3 -0.1
v 0.35 0.3 -0.2
v 0.35 0.4 0.1
v 0.35 0.4 0
v 0.35 0.4 -0.1
v 0.35 0.4 -0.2
v 0.35 0.5 0.1
v 0.35 0.5 0
v 0.35 0.5 -0.1
v 0.35 0.5 -0.2
v 0.35 0.7 0
v 0.35 0.7 -0.1
v -0.15 -1 0
v -0.15 -1 -0.1
v -0.15 -0.7 0.2
v -0.15 -0.7 0.1
v -0.15 -0.6 0.2
v -0.15 -0.6 0.1
v -0.15 -0.6 0
v -0.15 -0.6 -0.1
v -0.15 -0.2 0
v -0.15 -0.2 -0.1
v -0.15 -0.1 0.3
v -0.15 -0.1 0
v -0.15 -0.1 -0.1
v -0.15 -0.1 -0.3
v -0.15 0 -0.3
v -0.15 1 0.3
v -0.15 1 -0.3
v -0.05 -1 0.2
v -0.05 -1 0
v -0.05 -1 -0.1
v -0.05 -1 -0.2
v -0.05 -0.9 -0.2
v -0.05 -0.9 -0.3
v -0.05 -0.7 0.2
v -0.05 -0.7 0.1
v -0.05 -0.7 -0.2
v -0.05 -0.7 -0.3
v -0.05 -0.6 0.1
v -0.05 -0.6 0
v -0.05 -0.6 -0.1
v -0.05 -0.6 -0.2
v -0.05 -0.2 0.3
v -0.05 -0.2 0.2
v -0.05 -0.1 0.4
v -0.05 -0.1 0.3
v -0.05 -0.1 0.2
v -0.05 0 -0.3
v -0.05 0 -0.4
v -0.05 0.6 -0.3
v -0.05 1 0.4
v -0.05 1 0.3
v -0.05 1 -0.3
v -0.05 1 -0.4
v 0.05 -0.6 0.2
v 0.05 -0.6 -0.2
v 0.05 -0.5 0.1
v 0.05 -0.5 -0.2
v 0.05 -0.4 0.1
v 0.05 -0.4 -0.2
v 0.05 -0.3 0.1
v 0.05 -0.3 -0.2
v 0.05 0 -0.2
v 0.05 0 -0.3
v 0.05 0.1 0.2
v 0.05 0.1 0.1
v 0.05 0.1 0
v 0.05 0.1 -0.1
v 0.05 0.1 -0.2
v 0.05 0.1 -0.3
v 0.05 0.2 0
v 0.05 0.2 -0.1
v 0.05 0.3 0
v 0.05 0.3 -0.1
v 0.05 0.4 0.1
v 0.05 0.4 0
v 0.05 0.4 -0.1
v 0.05 0.4 -0.2
v 0.05 0.5 0.2
v 0.05 0.5 0.1
v 0.05 0.5 0
v 0.05 0.5 -0.1
v 0.05 0.6 0.2
v 0.05 0.6 -0.2
v 0.15 -0.5 0.1
v 0.15 -0.5 -0.2
v 0.15 -0.4 0.1
v 0.15 -0.4 -0.2
v 0.15 -0.3 0.1
v 0.15 -0.3 0
v 0.15 -0.3 -0.1
v 0.15 -0.3 -0.2
v 0.15 0.1 0.2
v 0.15 0.1 0.1
v 0.15 0.1 0
v 0.15 0.1 -0.1
v 0.15 0.1 -0.2
v 0.15 0.1 -0.3
v 0.15 0.2 0
v 0.15 0.2 -0.1
v 0.15 0.3 0
v 0.15 0.3 -0.1
v 0.15 0.4 0.1
v 0.15 0.4 0
v 0.15 0.4 -0.1
v 0.15 0.4 -0.2
v 0.15 0.5 0.2
v 0.15 0.5 0.1
v 0.15 0.6 -0.2
v 0.15 0.6 -0.3
v 0.25 -0.3 0
v 0.25 -0.3 -0.1
v 0.25 0.1 0
v 0.25 0.1 -0.1
v 0.45 0.1 0
v 0.45 0.1 -0.1
v 0.45 0.2 0.1
v 0.45 0.2 0
v 0.45 0.2 -0.1
v 0.45 0.2 -0.2
v 0.45 0.3 0.1
v 0.45 0.3 0
v 0.45 0.3 -0.1
v 0.45 0.3 -0.2
v 0.45 0.4 0.1
v 0.45 0.4 0
v 0.45 0.4 -0.1
v 0.45 0.4 -0.2
v 0.45 0.5 0.1
v 0.45 0.5 0
v 0.45 0.5 -0.1
v 0.45 0.5 -0.2
v 0.45 0.7 0
v 0.45 0.7 -0.1
v -0.25 -0.1 0.4
v -0.25 0.5 0.4
v -0.25 0.6 0.4
v -0.25 0.8 0.4
v -0.25 0.9 0.4
v -0.25 1 0.4
v -0.15 0.5 0.4
v -0.15 0.6 0.4
v -0.15 0.8 0.4
v -0.15 0.9 0.4
v -0.05 -0.1 0.4
v -0.05 1 0.4
v -0.35 -0.1 0.3
v -0.35 0.5 0.3
v -0.25 -0.2 0.3
v -0.25 -0.1 0.3
v -0.25 0.5 0.3
v -0.25 0.6 0.3
v -0.25 0.8 0.3
v -0.25 0.9 0.3
v -0.15 0.5 0.3
v -0.15 0.6 0.3
v -0.15 0.8 0.3
v -0.15 0.9 0.3
v -0.05 -0.2 0.3
v -0.05 -0.1 0.3
v -0.45 0.3 0.2
v -0.45 0.4 0.2
v -0.35 0.3 0.2
v -0.35 0.4 0.2
v -0.35 0.5 0.2
v -0.35 0.9 0.2
v -0.25 -1 0.2
v -0.25 -0.6 0.2
v -0.25 0.5 0.2
v -0.25 0.9 0.2
v -0.15 -0.7 0.2
v -0.15 -0.6 0.2
v -0.15 -0.2 0.2
v -0.05 -1 0.2
v -0.05 -0.7 0.2
v -0.05 -0.2 0.2
v -0.05 -0.1 0.2
v -0.05 0.6 0.2
v 0.05 -0.6 0.2
v 0.05 0.1 0.2
v 0.05 0.5 0.2
v 0.05 0.6 0.2
v 0.15 0.1 0.2
v 0.15 0.5 0.2
v -0.45 0.4 0.1
v -0.45 0.5 0.1
v -0.35 0.4 0.1
v -0.35 0.5 0.1
v -0.15 -0.7 0.1
v -0.15 -0.6 0.1
v -0.05 -0.7 0.1
v -0.05 -0.6 0.1
v 0.05 -0.5 0.1
v 0.05 -0.4 0.1
v 0.05 -0.3 0.1
v 0.05 0.1 0.1
v 0.15 -0.5 0.1
v 0.15 -0.4 0.1
v 0.15 -0.3 0.1
v 0.15 0.1 0.1
v 0.35 0.2 0.1
v 0.35 0.3 0.1
v 0.35 0.4 0.1
v 0.35 0.5 0.1
v 0.45 0.2 0.1
v 0.45 0.3 0.1
v 0.45 0.4 0.1
v 0.45 0.5 0.1
v 0.05 0.4 0
v 0.05 0.5 0
v 0.15 -0.3 0
v 0.15 0.1 0
v 0.15 0.2 0
v 0.15 0.3 0
v 0.15 0.4 0
v 0.25 -0.3 0
v 0.25 0.1 0
v 0.35 0.1 0
v 0.35 0.2 0
v 0.35 0.3 0
v 0.35 0.4 0
v 0.35 0.5 0
v 0.35 0.7 0
v 0.45 0.1 0
v 0.45 0.2 0
v 0.45 0.3 0
v 0.45 0.4 0
v 0.45 0.5 0
v 0.45 0.7 0
v -0.15 -1 -0.1
v -0.15 -0.6 -0.1
v -0.05 -1 -0.1
v -0.05 -0.6 -0.1
v 0.05 0.1 -0.1
v 0.05 0.2 -0.1
v 0.05 0.3 -0.1
v 0.05 0.4 -0.1
v 0.15 0.1 -0.1
v 0.15 0.2 -0.1
v 0.15 0.3 -0.1
v 0.15 0.4 -0.1
v 0.05 0.4 -0.2
v 0.05 0.6 -0.2
v 0.15 0.4 -0.2
v 0.15 0.6 -0.2
v -0.15 0 -0.3
v -0.15 1 -0.3
v -0.05 0 -0.3
v -0.05 0.6 -0.3
v -0.05 1 -0.3
v -0.15 -0.1 0.3
v -0.15 1 0.3
v -0.05 -0.1 0.3
v -0.05 1 0.3
v 0.05 0.4 0.1
v 0.05 0.5 0.1
v 0.15 0.4 0.1
v 0.15 0.5 0.1
v -0.35 -0.1 0
v -0.35 0 0
v -0.25 -0.1 0
v -0.25 0 0
v -0.15 -1 0
v -0.15 -0.6 0
v -0.15 -0.2 0
v -0.15 -0.1 0
v -0.05 -1 0
v -0.05 -0.6 0
v -0.05 -0.2 0
v -0.05 -0.1 0
v 0.05 0.1 0
v 0.05 0.2 0
v 0.05 0.3 0
v 0.05 0.4 0
v 0.15 0.1 0
v 0.15 0.2 0
v 0.15 0.3 0
v 0.15 0.4 0
v -0.45 0.3 -0.1
v -0.45 0.4 -0.1
v -0.35 0.3 -0.1
v -0.35 0.4 -0.1
v -0.25 -0.2 -0.1
v -0.25 -0.1 -0.1
v -0.15 -0.2 -0.1
v -0.15 -0.1 -0.1
v 0.05 0.4 -0.1
v 0.05 0.5 -0.1
v 0.15 -0.3 -0.1
v 0.15 0.1 -0.1
v 0.15 0.2 -0.1
v 0.15 0.3 -0.1
v 0.15 0.4 -0.1
v 0.25 -0.3 -0.1
v 0.25 0.1 -0.1
v 0.35 0.1 -0.1
v 0.35 0.2 -0.1
v 0.35 0.3 -0.1
v 0.35 0.4 -0.1
v 0.35 0.5 -0.1
v 0.35 0.7 -0.1
v 0.45 0.1 -0.1
v 0.45 0.2 -0.1
v 0.45 0.3 -0.1
v 0.45 0.4 -0.1
v 0.45 0.5 -0.1
v 0.45 0.7 -0.1
v -0.45 0.4 -0.2
v -0.45 0.5 -0.2
v -0.35 0.4 -0.2
v -0.35 0.5 -0.2
v -0.35 0.9 -0.2
v -0.25 -1 -0.2
v -0.25 -0.9 -0.2
v -0.25 -0.7 -0.2
v -0.25 -0.6 -0.2
v -0.25 0.5 -0.2
v -0.25 0.9 -0.2
v -0.05 -1 -0.2
v -0.05 -0.9 -0.2
v -0.05 -0.7 -0.2
v -0.05 -0.6 -0.2
v -0.05 0 -0.2
v 0.05 -0.6 -0.2
v 0.05 -0.5 -0.2
v 0.05 -0.4 -0.2
v 0.05 -0.3 -0.2
v 0.05 0 -0.2
v 0.05 0.1 -0.2
v 0.15 -0.5 -0.2
v 0.15 -0.4 -0.2
v 0.15 -0.3 -0.2
v 0.15 0.1 -0.2
v 0.35 0.2 -0.2
v 0.35 0.3 -0.2
v 0.35 0.4 -0.2
v 0.35 0.5 -0.2
v 0.45 0.2 -0.2
v 0.45 0.3 -0.2
v 0.45 0.4 -0.2
v 0.45 0.5 -0.2
v -0.35 0 -0.3
v -0.35 0.5 -0.3
v -0.25 -0.9 -0.3
v -0.25 -0.7 -0.3
v -0.25 -0.1 -0.3
v -0.25 0 -0.3
v -0.25 0.5 -0.3
v -0.25 0.6 -0.3
v -0.25 0.8 -0.3
v -0.25 0.9 -0.3
v -0.15 -0.1 -0.3
v -0.15 0 -0.3
v -0.15 0.5 -0.3
v -0.15 0.6 -0.3
v -0.15 0.8 -0.3
v -0.15 0.9 -0.3
v -0.05 -0.9 -0.3
v -0.05 -0.7 -0.3
v -0.05 0 -0.3
v -0.05 0.6 -0.3
v 0.05 0 -0.3
v 0.05 0.1 -0.3
v 0.15 0.1 -0.3
v 0.15 0.6 -0.3
v -0.25 0 -0.4
v -0.25 0.5 -0.4
v -0.25 0.6 -0.4
v -0.25 0.8 -0.4
v -0.25 0.9 -0.4
v -0.25 1 -0.4
v -0.15 0.5 -0.4
v -0.15 0.6 -0.4
v -0.15 0.8 -0.4
v -0.15 0.9 -0.4
v -0.05 0 -0.4
v -0.05 1 -0.4
v -0.25 -1 0.2
v -0.05 -1 0.2
v -0.15 -1 0
v -0.05 -1 0
v -0.15 -1 -0.1
v -0.05 -1 -0.1
v -0.25 -1 -0.2
v -0.05 -1 -0.2
v -0.25 -0.9 -0.2
v -0.05 -0.9 -0.2
v -0.25 -0.9 -0.3
v -0.05 -0.9 -0.3
v -0.15 -0.6 0.2
v 0.05 -0.6 0.2
v -0.15 -0.6 0.1
v -0.05 -0.6 0.1
v -0.05 -0.6 0
v -0.05 -0.6 -0.1
v -0.05 -0.6 -0.2
v 0.05 -0.6 -0.2
v 0.05 -0.5 0.1
v 0.15 -0.5 0.1
v 0.05 -0.5 -0.2
v 0.15 -0.5 -0.2
v 0.05 -0.3 0.1
v 0.15 -0.3 0.1
v 0.15 -0.3 0
v 0.25 -0.3 0
v 0.15 -0.3 -0.1
v 0.25 -0.3 -0.1
v 0.05 -0.3 -0.2
v 0.15 -0.3 -0.2
v -0.25 -0.2 0.3
v -0.05 -0.2 0.3
v -0.15 -0.2 0.2
v -0.05 -0.2 0.2
v -0.15 -0.2 0
v -0.25 -0.2 -0.1
v -0.15 -0.2 -0.1
v -0.25 -0.1 0.4
v -0.05 -0.1 0.4
v -0.35 -0.1 0.3
v -0.25 -0.1 0.3
v -0.05 -0.1 0.3
v -0.35 -0.1 0
v -0.25 -0.1 0
v -0.25 -0.1 -0.1
v -0.15 -0.1 -0.1
v -0.25 -0.1 -0.3
v -0.15 -0.1 -0.3
v -0.35 0 0
v -0.25 0 0
v -0.05 0 -0.2
v 0.05 0 -0.2
v -0.35 0 -0.3
v -0.25 0 -0.3
v -0.15 0 -0.3
v -0.05 0 -0.3
v 0.05 0 -0.3
v -0.25 0 -0.4
v -0.05 0 -0.4
v 0.05 0.1 0.2
v 0.15 0.1 0.2
v 0.05 0.1 0.1
v 0.15 0.1 0.1
v 0.35 0.1 0
v 0.45 0.1 0
v 0.35 0.1 -0.1
v 0.45 0.1 -0.1
v 0.05 0.1 -0.2
v 0.15 0.1 -0.2
v 0.05 0.1 -0.3
v 0.15 0.1 -0.3
v 0.35 0.2 0.1
v 0.45 0.2 0.1
v 0.05 0.2 0
v 0.15 0.2 0
v 0.35 0.2 0
v 0.45 0.2 0
v 0.05 0.2 -0.1
v 0.15 0.2 -0.1
v 0.35 0.2 -0.1
v 0.45 0.2 -0.1
v 0.35 0.2 -0.2
v 0.45 0.2 -0.2
v -0.45 0.3 0.2
v -0.35 0.3 0.2
v -0.45 0.3 -0.1
v -0.35 0.3 -0.1
v 0.35 0.4 0.1
v 0.45 0.4 0.1
v 0.05 0.4 0
v 0.15 0.4 0
v 0.35 0.4 0
v 0.45 0.4 0
v -0.45 0.4 -0.1
v -0.35 0.4 -0.1
v 0.05 0.4 -0.1
v 0.15 0.4 -0.1
v 0.35 0.4 -0.1
v 0.45 0.4 -0.1
v -0.45 0.4 -0.2
v -0.35 0.4 -0.2
v 0.35 0.4 -0.2
v 0.45 0.4 -0.2
v -0.25 0.6 0.4
v -0.15 0.6 0.4
v -0.25 0.6 0.3
v -0.15 0.6 0.3
v -0.25 0.6 -0.3
v -0.15 0.6 -0.3
v -0.25 0.6 -0.4
v -0.15 0.6 -0.4
v -0.25 0.9 0.4
v -0.15 0.9 0.4
v -0.25 0.9 0.3
v -0.15 0.9 0.3
v -0.25 0.9 -0.3
v -0.15 0.9 -0.3
v -0.25 0.9 -0.4
v -0.15 0.9 -0.4
v -0.15 -0.7 0.2
v -0.05 -0.7 0.2
v -0.15 -0.7 0.1
v -0.05 -0.7 0.1
v -0.25 -0.7 -0.2
v -0.05 -0.7 -0.2
v -0.25 -0.7 -0.3
v -0.05 -0.7 -0.3
v -0.25 -0.6 0.2
v -0.15 -0.6 0.2
v -0.15 -0.6 0
v -0.15 -0.6 -0.1
v -0.05 -0.6 -0.1
v -0.25 -0.6 -0.2
v -0.05 -0.6 -0.2
v 0.05 -0.4 0.1
v 0.15 -0.4 0.1
v 0.05 -0.4 -0.2
v 0.15 -0.4 -0.2
v -0.15 -0.1 0.3
v -0.05 -0.1 0.3
v -0.05 -0.1 0.2
v -0.15 -0.1 0
v -0.05 -0.1 0
v 0.05 0.1 0
v 0.15 0.1 0
v 0.25 0.1 0
v 0.05 0.1 -0.1
v 0.15 0.1 -0.1
v 0.25 0.1 -0.1
v 0.35 0.3 0.1
v 0.45 0.3 0.1
v 0.05 0.3 0
v 0.15 0.3 0
v 0.35 0.3 0
v 0.45 0.3 0
v 0.05 0.3 -0.1
v 0.15 0.3 -0.1
v 0.35 0.3 -0.1
v 0.45 0.3 -0.1
v 0.35 0.3 -0.2
v 0.45 0.3 -0.2
v -0.45 0.4 0.2
v -0.35 0.4 0.2
v -0.45 0.4 0.1
v -0.35 0.4 0.1
v 0.05 0.4 0.1
v 0.15 0.4 0.1
v 0.05 0.4 0
v 0.15 0.4 0
v 0.05 0.4 -0.1
v 0.15 0.4 -0.1
v 0.05 0.4 -0.2
v 0.15 0.4 -0.2
v -0.25 0.5 0.4
v -0.15 0.5 0.4
v -0.35 0.5 0.3
v -0.25 0.5 0.3
v -0.15 0.5 0.3
v -0.35 0.5 0.2
v -0.25 0.5 0.2
v 0.05 0.5 0.2
v 0.15 0.5 0.2
v -0.45 0.5 0.1
v -0.35 0.5 0.1
v 0.05 0.5 0.1
v 0.15 0.5 0.1
v 0.35 0.5 0.1
v 0.45 0.5 0.1
v 0.05 0.5 0
v 0.35 0.5 0
v 0.45 0.5 0
v 0.05 0.5 -0.1
v 0.35 0.5 -0.1
v 0.45 0.5 -0.1
v -0.45 0.5 -0.2
v -0.35 0.5 -0.2
v -0.25 0.5 -0.2
v 0.35 0.5 -0.2
v 0.45 0.5 -0.2
v -0.35 0.5 -0.3
v -0.25 0.5 -0.3
v -0.15 0.5 -0.3
v -0.25 0.5 -0.4
v -0.15 0.5 -0.4
v -0.05 0.6 0.2
v 0.05 0.6 0.2
v 0.05 0.6 -0.2
v 0.15 0.6 -0.2
v -0.05 0.6 -0.3
v 0.15 0.6 -0.3
v 0.35 0.7 0
v 0.45 0.7 0
v 0.35 0.7 -0.1
v 0.45 0.7 -0.1
v -0.25 0.8 0.4
v -0.15 0.8 0.4
v -0.25 0.8 0.3
v -0.15 0.8 0.3
v -0.25 0.8 -0.3
v -0.15 0.8 -0.3
v -0.25 0.8 -0.4
v -0.15 0.8 -0.4
v -0.35 0.9 0.2
v -0.25 0.9 0.2
v -0.35 0.9 -0.2
v -0.25 0.9 -0.2
v -0.25 1 0.4
v -0.05 1 0.4
v -0.15 1 0.3
v -0.05 1 0.3
v -0.15 1 -0.3
v -0.05 1 -0.3
v -0.25 1 -0.4
v -0.05 1 -0.4

# faces
f 3/4/1 2/4/1 1/4/1
f 4/4/1 2/4/1 3/4/1
f 5/4/1 2/4/1 4/4/1
f 7/4/1 6/4/1 5/4/1
f 7/4/1 5/4/1 4/4/1
f 8/4/1 6/4/1 7/4/1
f 11/3/1 10/3/1 9/3/1
f 13/3/1 11/3/1 9/3/1
f 13/3/1 12/3/1 11/3/1
f 14/3/1 12/3/1 13/3/1
f 15/3/1 13/3/1 9/3/1
f 17/3/1 12/3/1 14/3/1
f 18/3/1 12/3/1 17/3/1
f 19/3/1 16/3/1 15/3/1
f 19/3/1 15/3/1 9/3/1
f 20/3/1 16/3/1 19/3/1
f 21/3/1 16/3/1 20/3/1
f 22/3/1 12/3/1 18/3/1
f 23/3/1 12/3/1 22/3/1
f 24/3/1 21/3/1 20/3/1
f 24/3/1 22/3/1 21/3/1
f 25/3/1 22/3/1 24/3/1
f 28/2/1 27/2/1 26/2/1
f 30/2/1 28/2/1 26/2/1
f 30/1/1 29/1/1 28/1/1
f 31/1/1 29/1/1 30/1/1
f 32/2/1 30/2/1 26/2/1
f 33/2/1 30/2/1 32/2/1
f 37/3/1 35/3/1 34/3/1
f 38/3/1 35/3/1 37/3/1
f 39/3/1 35/3/1 38/3/1
f 41/3/1 39/3/1 38/3/1
f 41/3/1 40/3/1 39/3/1
f 42/3/1 40/3/1 41/3/1
f 44/3/1 37/3/1 36/3/1
f 45/3/1 37/3/1 44/3/1
f 48/3/1 43/3/1 42/3/1
f 49/3/1 43/3/1 48/3/1
f 51/3/1 46/3/1 45/3/1
f 52/3/1 48/3/1 47/3/1
f 54/3/1 51/3/1 50/3/1
f 55/3/1 46/3/1 51/3/1
f 55/3/1 51/3/1 54/3/1
f 56/3/1 53/3/1 52/3/1
f 56/3/1 52/3/1 47/3/1
f 57/3/1 53/3/1 56/3/1
f 59/3/1 46/3/1 55/3/1
f 60/3/1 46/3/1 59/3/1
f 61/3/1 56/3/1 47/3/1
f 62/3/1 56/3/1 61/3/1
f 64/3/1 60/3/1 59/3/1
f 64/3/1 63/3/1 62/3/1
f 64/3/1 62/3/1 61/3/1
f 64/3/1 61/3/1 60/3/1
f 64/3/1 59/3/1 58/3/1
f 65/3/1 63/3/1 64/3/1
f 68/2/1 67/2/1 66/2/1
f 69/2/1 67/2/1 68/2/1
f 74/3/1 71/3/1 70/3/1
f 75/3/1 71/3/1 74/3/1
f 76/3/1 73/3/1 72/3/1
f 77/3/1 73/3/1 76/3/1
f 82/3/1 79/3/1 78/3/1
f 83/3/1 79/3/1 82/3/1
f 84/3/1 81/3/1 80/3/1
f 85/3/1 81/3/1 84/3/1
f 89/2/1 87/2/1 86/2/1
f 89/2/1 88/2/1 87/2/1
f 91/2/1 88/2/1 89/2/1
f 92/2/1 88/2/1 91/2/1
f 92/2/1 91/2/1 90/2/1
f 94/2/1 92/2/1 90/2/1
f 94/2/1 93/2/1 92/2/1
f 95/2/1 93/2/1 94/2/1
f 99/1/1 97/1/1 96/1/1
f 100/1/1 97/1/1 99/1/1
f 102/1/1 99/1/1 98/1/1
f 103/1/1 99/1/1 102/1/1
f 104/1/1 101/1/1 100/1/1
f 105/1/1 101/1/1 104/1/1
f 107/1/1 104/1/1 103/1/1
f 108/1/1 104/1/1 107/1/1
f 110/1/1 107/1/1 106/1/1
f 111/1/1 107/1/1 110/1/1
f 112/1/1 109/1/1 108/1/1
f 113/1/1 109/1/1 112/1/1
f 114/1/1 112/1/1 111/1/1
f 115/1/1 112/1/1 114/1/1
f 118/2/2 119/2/2 120/2/2
f 120/2/2 119/2/2 121/2/2
f 116/2/2 117/2/2 122/2/2
f 122/2/2 117/2/2 123/2/2
f 124/3/2 125/3/2 127/3/2
f 127/3/2 125/3/2 128/3/2
f 127/3/2 128/3/2 130/3/2
f 128/3/2 129/3/2 130/3/2
f 126/3/2 127/3/2 130/3/2
f 126/3/2 130/3/2 131/3/2
f 131/3/2 130/3/2 132/3/2
f 135/2/2 136/2/2 137/2/2
f 133/2/2 134/2/2 139/2/2
f 139/2/2 134/2/2 140/2/2
f 137/1/2 138/1/2 141/1/2
f 135/2/2 137/2/2 141/2/2
f 141/1/2 138/1/2 142/1/2
f 140/2/2 134/2/2 143/2/2
f 143/2/2 134/2/2 144/2/2
f 135/2/2 141/2/2 145/2/2
f 145/2/2 141/2/2 146/2/2
f 147/3/2 148/3/2 150/3/2
f 150/3/2 148/3/2 151/3/2
f 152/3/2 153/3/2 154/3/2
f 149/3/2 150/3/2 155/3/2
f 155/3/2 150/3/2 156/3/2
f 154/3/2 153/3/2 157/3/2
f 157/3/2 153/3/2 158/3/2
f 159/2/2 160/2/2 161/2/2
f 161/2/2 160/2/2 162/2/2
f 159/2/2 161/2/2 163/2/2
f 159/2/2 163/2/2 165/2/2
f 163/2/2 164/2/2 165/2/2
f 165/2/2 164/2/2 166/2/2
f 159/2/2 165/2/2 169/2/2
f 169/2/2 165/2/2 170/2/2
f 167/2/2 168/2/2 173/2/2
f 173/2/2 168/2/2 174/2/2
f 171/2/2 172/2/2 175/2/2
f 175/2/2 172/2/2 176/2/2
f 177/2/2 178/2/2 180/2/2
f 180/2/2 178/2/2 181/2/2
f 179/2/2 180/2/2 184/2/2
f 184/2/2 180/2/2 185/2/2
f 181/2/2 182/2/2 186/2/2
f 184/2/2 185/2/2 187/2/2
f 185/2/2 186/2/2 187/2/2
f 183/2/2 184/2/2 187/2/2
f 186/2/2 182/2/2 188/2/2
f 187/2/2 186/2/2 188/2/2
f 189/2/2 190/2/2 191/2/2
f 191/2/2 190/2/2 192/2/2
f 193/2/2 194/2/2 198/2/2
f 198/2/2 194/2/2 199/2/2
f 195/2/2 196/2/2 200/2/2
f 200/2/2 196/2/2 201/2/2
f 198/2/2 199/2/2 203/2/2
f 197/2/2 198/2/2 203/2/2
f 200/2/2 201/2/2 204/2/2
f 201/2/2 202/2/2 204/2/2
f 197/2/2 203/2/2 205/2/2
f 204/2/2 202/2/2 206/2/2
f 197/2/2 205/2/2 207/2/2
f 207/2/2 205/2/2 208/2/2
f 206/2/2 202/2/2 209/2/2
f 209/2/2 202/2/2 210/2/2
f 197/2/2 207/2/2 211/2/2
f 211/2/2 207/2/2 212/2/2
f 210/2/2 202/2/2 213/2/2
f 213/2/2 202/2/2 214/2/2
f 215/1/2 216/1/2 217/1/2
f 217/1/2 216/1/2 218/1/2
f 219/1/2 220/1/2 222/1/2
f 222/1/2 220/1/2 223/1/2
f 221/1/2 222/1/2 225/1/2
f 223/1/2 224/1/2 225/1/2
f 222/1/2 223/1/2 225/1/2
f 225/1/2 224/1/2 226/1/2
f 226/1/2 224/1/2 227/1/2
f 227/1/2 224/1/2 228/1/2
f 226/1/2 227/1/2 230/1/2
f 230/1/2 227/1/2 231/1/2
f 229/1/2 230/1/2 233/1/2
f 231/1/2 232/1/2 233/1/2
f 230/1/2 231/1/2 233/1/2
f 233/1/2 232/1/2 234/1/2
f 234/1/2 232/1/2 235/1/2
f 235/1/2 232/1/2 236/1/2
f 234/1/2 235/1/2 237/1/2
f 237/1/2 235/1/2 238/1/2
f 245/3/3 240/3/3 239/3/3
f 246/3/3 242/3/3 241/3/3
f 247/3/3 242/3/3 246/3/3
f 248/3/3 244/3/3 243/3/3
f 249/3/3 247/3/3 246/3/3
f 249/3/3 248/3/3 247/3/3
f 249/3/3 245/3/3 239/3/3
f 249/3/3 246/3/3 245/3/3
f 250/3/3 244/3/3 248/3/3
f 250/3/3 248/3/3 249/3/3
f 254/3/3 252/3/3 251/3/3
f 255/3/3 252/3/3 254/3/3
f 259/3/3 256/3/3 255/3/3
f 260/3/3 256/3/3 259/3/3
f 261/3/3 258/3/3 257/3/3
f 262/3/3 258/3/3 261/3/3
f 263/3/3 254/3/3 253/3/3
f 264/3/3 254/3/3 263/3/3
f 267/4/3 266/4/3 265/4/3
f 268/4/3 266/4/3 267/4/3
f 273/3/3 270/3/3 269/3/3
f 274/3/3 270/3/3 273/3/3
f 275/2/3 272/2/3 271/2/3
f 276/2/3 272/2/3 275/2/3
f 278/2/3 275/2/3 271/2/3
f 279/2/3 275/2/3 278/2/3
f 280/2/3 277/2/3 276/2/3
f 283/2/3 282/2/3 281/2/3
f 283/2/3 281/2/3 280/2/3
f 283/2/3 280/2/3 276/2/3
f 284/2/3 282/2/3 283/2/3
f 285/2/3 282/2/3 284/2/3
f 286/2/3 282/2/3 285/2/3
f 287/2/3 285/2/3 284/2/3
f 288/2/3 285/2/3 287/2/3
f 291/4/3 290/4/3 289/4/3
f 292/4/3 290/4/3 291/4/3
f 295/2/3 294/2/3 293/2/3
f 296/2/3 294/2/3 295/2/3
f 301/2/3 298/2/3 297/2/3
f 302/2/3 298/2/3 301/2/3
f 303/2/3 300/2/3 299/2/3
f 304/2/3 300/2/3 303/2/3
f 309/1/3 306/1/3 305/1/3
f 310/1/3 306/1/3 309/1/3
f 311/1/3 308/1/3 307/1/3
f 312/1/3 308/1/3 311/1/3
f 319/1/3 314/1/3 313/1/3
f 320/1/3 316/1/3 315/1/3
f 321/1/3 316/1/3 320/1/3
f 323/1/3 318/1/3 317/1/3
f 324/1/3 318/1/3 323/1/3
f 325/1/3 314/1/3 319/1/3
f 326/1/3 314/1/3 325/1/3
f 328/1/3 323/1/3 322/1/3
f 329/1/3 323/1/3 328/1/3
f 330/1/3 325/1/3 324/1/3
f 331/1/3 325/1/3 330/1/3
f 332/1/3 327/1/3 326/1/3
f 333/1/3 327/1/3 332/1/3
f 336/2/3 335/2/3 334/2/3
f 337/2/3 335/2/3 336/2/3
f 342/2/3 339/2/3 338/2/3
f 343/2/3 339/2/3 342/2/3
f 344/2/3 341/2/3 340/2/3
f 345/2/3 341/2/3 344/2/3
f 348/2/3 347/2/3 346/2/3
f 349/2/3 347/2/3 348/2/3
f 352/3/3 351/3/3 350/3/3
f 353/3/3 351/3/3 352/3/3
f 354/3/3 351/3/3 353/3/3
f 355/3/4 356/3/4 357/3/4
f 357/3/4 356/3/4 358/3/4
f 359/2/4 360/2/4 361/2/4
f 361/2/4 360/2/4 362/2/4
f 363/3/4 364/3/4 365/3/4
f 365/3/4 364/3/4 366/3/4
f 367/2/4 368/2/4 371/2/4
f 368/2/4 369/2/4 371/2/4
f 371/2/4 369/2/4 372/2/4
f 369/3/4 370/3/4 373/3/4
f 372/2/4 369/2/4 373/2/4
f 373/3/4 370/3/4 374/3/4
f 375/2/4 376/2/4 379/2/4
f 379/2/4 376/2/4 380/2/4
f 377/2/4 378/2/4 381/2/4
f 381/2/4 378/2/4 382/2/4
f 383/4/4 384/4/4 385/4/4
f 385/4/4 384/4/4 386/4/4
f 387/3/4 388/3/4 389/3/4
f 389/3/4 388/3/4 390/3/4
f 391/1/4 392/1/4 397/1/4
f 393/1/4 394/1/4 398/1/4
f 398/1/4 394/1/4 399/1/4
f 395/1/4 396/1/4 401/1/4
f 401/1/4 396/1/4 402/1/4
f 397/1/4 392/1/4 403/1/4
f 403/1/4 392/1/4 404/1/4
f 400/1/4 401/1/4 406/1/4
f 406/1/4 401/1/4 407/1/4
f 402/1/4 403/1/4 408/1/4
f 408/1/4 403/1/4 409/1/4
f 404/1/4 405/1/4 410/1/4
f 410/1/4 405/1/4 411/1/4
f 412/4/4 413/4/4 414/4/4
f 414/4/4 413/4/4 415/4/4
f 415/3/4 416/3/4 421/3/4
f 421/3/4 416/3/4 422/3/4
f 417/2/4 418/2/4 423/2/4
f 423/2/4 418/2/4 424/2/4
f 419/2/4 420/2/4 425/2/4
f 425/2/4 420/2/4 426/2/4
f 426/2/4 427/2/4 428/2/4
f 428/2/4 427/2/4 429/2/4
f 429/2/4 427/2/4 430/2/4
f 430/2/4 427/2/4 431/2/4
f 431/2/4 427/2/4 432/2/4
f 429/2/4 430/2/4 434/2/4
f 434/2/4 430/2/4 435/2/4
f 432/2/4 433/2/4 436/2/4
f 431/2/4 432/2/4 436/2/4
f 436/2/4 433/2/4 437/2/4
f 438/1/4 439/1/4 442/1/4
f 442/1/4 439/1/4 443/1/4
f 440/1/4 441/1/4 444/1/4
f 444/1/4 441/1/4 445/1/4
f 446/3/4 447/3/4 451/3/4
f 451/3/4 447/3/4 452/3/4
f 450/3/4 451/3/4 456/3/4
f 456/3/4 451/3/4 457/3/4
f 452/3/4 453/3/4 458/3/4
f 458/3/4 453/3/4 459/3/4
f 454/3/4 455/3/4 460/3/4
f 460/3/4 455/3/4 461/3/4
f 448/1/4 449/1/4 462/1/4
f 462/1/4 449/1/4 463/1/4
f 464/2/4 465/2/4 466/2/4
f 466/2/4 465/2/4 467/2/4
f 467/2/4 465/2/4 468/2/4
f 468/2/4 465/2/4 469/2/4
f 470/3/4 471/3/4 476/3/4
f 472/3/4 473/3/4 477/3/4
f 477/3/4 473/3/4 478/3/4
f 474/3/4 475/3/4 479/3/4
f 477/3/4 478/3/4 480/3/4
f 478/3/4 479/3/4 480/3/4
f 470/3/4 476/3/4 480/3/4
f 476/3/4 477/3/4 480/3/4
f 479/3/4 475/3/4 481/3/4
f 480/3/4 479/3/4 481/3/4
f 484/2/5 483/2/5 482/2/5
f 485/2/5 483/2/5 484/2/5
f 486/2/5 484/2/5 482/2/5
f 488/2/5 486/2/5 482/2/5
f 488/2/5 487/2/5 486/2/5
f 489/2/5 487/2/5 488/2/5
f 492/1/5 491/1/5 490/1/5
f 493/1/5 491/1/5 492/1/5
f 496/2/5 495/2/5 494/2/5
f 497/2/5 495/2/5 496/2/5
f 498/2/5 495/2/5 497/2/5
f 499/2/5 495/2/5 498/2/5
f 500/2/5 495/2/5 499/2/5
f 501/2/5 495/2/5 500/2/5
f 504/2/5 503/2/5 502/2/5
f 505/2/5 503/2/5 504/2/5
f 508/2/5 507/2/5 506/2/5
f 510/2/5 508/2/5 506/2/5
f 510/1/5 509/1/5 508/1/5
f 511/1/5 509/1/5 510/1/5
f 512/2/5 510/2/5 506/2/5
f 513/2/5 510/2/5 512/2/5
f 516/3/5 515/3/5 514/3/5
f 517/3/5 515/3/5 516/3/5
f 518/3/5 516/3/5 514/3/5
f 519/3/5 518/3/5 514/3/5
f 520/3/5 518/3/5 519/3/5
f 524/3/5 522/3/5 521/3/5
f 525/3/5 522/3/5 524/3/5
f 526/3/5 524/3/5 523/3/5
f 527/3/5 524/3/5 526/3/5
f 530/3/5 529/3/5 528/3/5
f 531/3/5 529/3/5 530/3/5
f 536/3/5 533/3/5 532/3/5
f 537/3/5 533/3/5 536/3/5
f 539/2/5 535/2/5 534/2/5
f 540/2/5 535/2/5 539/2/5
f 541/3/5 538/3/5 537/3/5
f 541/3/5 539/3/5 538/3/5
f 542/3/5 539/3/5 541/3/5
f 545/2/5 544/2/5 543/2/5
f 546/2/5 544/2/5 545/2/5
f 549/1/5 548/1/5 547/1/5
f 550/1/5 548/1/5 549/1/5
f 553/2/5 552/2/5 551/2/5
f 554/2/5 552/2/5 553/2/5
f 559/1/5 556/1/5 555/1/5
f 560/1/5 556/1/5 559/1/5
f 561/1/5 558/1/5 557/1/5
f 561/1/5 559/1/5 558/1/5
f 562/1/5 559/1/5 561/1/5
f 563/1/5 559/1/5 562/1/5
f 565/1/5 564/1/5 563/1/5
f 566/1/5 564/1/5 565/1/5
f 569/4/5 568/4/5 567/4/5
f 570/4/5 568/4/5 569/4/5
f 575/1/5 572/1/5 571/1/5
f 576/1/5 572/1/5 575/1/5
f 579/1/5 574/1/5 573/1/5
f 579/1/5 575/1/5 574/1/5
f 580/1/5 575/1/5 579/1/5
f 581/1/5 575/1/5 580/1/5
f 583/4/5 578/4/5 577/4/5
f 584/4/5 578/4/5 583/4/5
f 585/1/5 582/1/5 581/1/5
f 586/1/5 582/1/5 585/1/5
f 589/3/5 588/3/5 587/3/5
f 590/3/5 588/3/5 589/3/5
f 593/3/5 592/3/5 591/3/5
f 594/3/5 592/3/5 593/3/5
f 597/3/5 596/3/5 595/3/5
f 598/3/5 596/3/5 597/3/5
f 601/3/5 600/3/5 599/3/5
f 602/3/5 600/3/5 601/3/5
f 603/2/6 604/2/6 605/2/6
f 605/2/6 604/2/6 606/2/6
f 607/1/6 608/1/6 609/1/6
f 609/1/6 608/1/6 610/1/6
f 611/2/6 612/2/6 613/2/6
f 611/2/6 613/2/6 614/2/6
f 611/2/6 614/2/6 616/2/6
f 614/2/6 615/2/6 616/2/6
f 616/2/6 615/2/6 617/2/6
f 618/2/6 619/2/6 620/2/6
f 620/2/6 619/2/6 621/2/6
f 622/3/6 623/3/6 624/3/6
f 622/3/6 624/3/6 625/3/6
f 625/3/6 624/3/6 626/3/6
f 627/2/6 628/2/6 630/2/6
f 628/1/6 629/1/6 631/1/6
f 630/2/6 628/2/6 631/2/6
f 631/1/6 629/1/6 632/1/6
f 633/1/6 634/1/6 637/1/6
f 637/1/6 634/1/6 638/1/6
f 635/1/6 636/1/6 639/1/6
f 636/1/6 637/1/6 639/1/6
f 639/1/6 637/1/6 640/1/6
f 640/1/6 637/1/6 641/1/6
f 641/1/6 642/1/6 643/1/6
f 643/1/6 642/1/6 644/1/6
f 645/4/6 646/4/6 647/4/6
f 647/4/6 646/4/6 648/4/6
f 649/2/6 650/2/6 651/2/6
f 651/2/6 650/2/6 652/2/6
f 653/2/6 654/2/6 655/2/6
f 655/2/6 654/2/6 656/2/6
f 657/3/6 658/3/6 660/3/6
f 660/3/6 658/3/6 661/3/6
f 659/3/6 660/3/6 662/3/6
f 662/3/6 660/3/6 663/3/6
f 664/2/6 665/2/6 668/2/6
f 668/2/6 665/2/6 669/2/6
f 670/1/6 671/1/6 673/1/6
f 673/1/6 671/1/6 674/1/6
f 672/1/6 673/1/6 675/1/6
f 675/1/6 673/1/6 676/1/6
f 666/4/6 667/4/6 678/4/6
f 678/4/6 667/4/6 679/4/6
f 676/1/6 677/1/6 681/1/6
f 681/1/6 677/1/6 682/1/6
f 679/3/6 680/3/6 683/3/6
f 683/3/6 680/3/6 684/3/6
f 684/3/6 685/3/6 686/3/6
f 686/3/6 685/3/6 687/3/6
f 688/2/6 689/2/6 690/2/6
f 688/2/6 690/2/6 692/2/6
f 690/2/6 691/2/6 692/2/6
f 692/2/6 691/2/6 693/2/6
f 694/1/6 695/1/6 696/1/6
f 696/1/6 695/1/6 697/1/6
f 698/3/6 699/3/6 700/3/6
f 700/3/6 699/3/6 701/3/6
f 702/3/6 703/3/6 704/3/6
f 704/3/6 703/3/6 705/3/6
f 706/3/6 707/3/6 708/3/6
f 708/3/6 707/3/6 709/3/6
f 710/3/6 711/3/6 712/3/6
f 712/3/6 711/3/6 713/3/6
f 710/3/6 712/3/6 714/3/6
f 710/3/6 714/3/6 716/3/6
f 714/3/6 715/3/6 716/3/6
f 716/3/6 715/3/6 717/3/6
