# MagicaVoxel @ Ephtracy

# group
o 

# material
mtllib Leg-47.mtl
usemtl palette

# normals
vn -1 0 0
vn 1 0 0
vn 0 0 1
vn 0 0 -1
vn 0 -1 0
vn 0 1 0

# texcoords
vt 0.845703 0.5
vt 0.853516 0.5

# verts
v -0.3 -0.45 0.45
v -0.3 -0.45 0.35
v -0.3 0.45 0.45
v -0.3 0.45 0.35
v -0.2 -0.55 0.45
v -0.2 -0.55 0.35
v -0.2 -0.45 0.45
v -0.2 -0.45 0.35
v -0.2 0.15 0.05
v -0.2 0.15 -0.05
v -0.2 0.15 -0.15
v -0.2 0.15 -0.25
v -0.2 0.35 -0.25
v -0.2 0.35 -0.45
v -0.2 0.45 -0.25
v -0.2 0.45 -0.45
v -0.2 0.55 0.05
v -0.2 0.55 -0.05
v -0.2 0.55 -0.15
v -0.2 0.55 -0.25
v -0.1 -0.35 0.35
v -0.1 -0.35 -0.15
v -0.1 -0.15 0.35
v -0.1 -0.15 -0.15
v -0.1 0.05 0.35
v -0.1 0.05 0.25
v -0.1 0.25 0.25
v -0.1 0.25 0.05
v -0.1 0.25 -0.05
v -0.1 0.25 -0.15
v -0.1 0.45 0.35
v -0.1 0.45 0.15
v -0.1 0.45 0.05
v -0.1 0.45 -0.05
v -0.1 0.45 -0.15
v -0.1 0.55 0.35
v -0.1 0.55 0.15
v 0.1 0.25 -0.15
v 0.1 0.25 -0.25
v 0.1 0.35 -0.25
v 0.1 0.35 -0.35
v 0.1 0.45 -0.15
v 0.1 0.45 -0.25
v 0.1 0.45 -0.35
v 0.1 0.55 -0.15
v 0.1 0.55 -0.25
v -0.1 0.25 -0.15
v -0.1 0.25 -0.25
v -0.1 0.35 -0.25
v -0.1 0.35 -0.35
v -0.1 0.45 -0.15
v -0.1 0.45 -0.25
v -0.1 0.45 -0.35
v -0.1 0.55 -0.15
v -0.1 0.55 -0.25
v 0.1 -0.35 0.35
v 0.1 -0.35 -0.15
v 0.1 -0.15 0.35
v 0.1 -0.15 -0.15
v 0.1 0.05 0.35
v 0.1 0.05 0.25
v 0.1 0.25 0.25
v 0.1 0.25 0.05
v 0.1 0.25 -0.05
v 0.1 0.25 -0.15
v 0.1 0.45 0.35
v 0.1 0.45 0.15
v 0.1 0.45 0.05
v 0.1 0.45 -0.05
v 0.1 0.45 -0.15
v 0.1 0.55 0.35
v 0.1 0.55 0.15
v 0.2 -0.55 0.45
v 0.2 -0.55 0.35
v 0.2 -0.45 0.45
v 0.2 -0.45 0.35
v 0.2 0.15 0.05
v 0.2 0.15 -0.05
v 0.2 0.15 -0.15
v 0.2 0.15 -0.25
v 0.2 0.35 -0.25
v 0.2 0.35 -0.45
v 0.2 0.45 -0.25
v 0.2 0.45 -0.45
v 0.2 0.55 0.05
v 0.2 0.55 -0.05
v 0.2 0.55 -0.15
v 0.2 0.55 -0.25
v 0.3 -0.45 0.45
v 0.3 -0.45 0.35
v 0.3 0.45 0.45
v 0.3 0.45 0.35
v -0.3 -0.45 0.45
v -0.3 0.45 0.45
v -0.2 -0.55 0.45
v -0.2 -0.45 0.45
v 0.2 -0.55 0.45
v 0.2 -0.45 0.45
v 0.3 -0.45 0.45
v 0.3 0.45 0.45
v -0.1 0.45 0.35
v -0.1 0.55 0.35
v 0.1 0.45 0.35
v 0.1 0.55 0.35
v -0.2 0.15 0.05
v -0.2 0.55 0.05
v -0.1 0.25 0.05
v -0.1 0.45 0.05
v 0.1 0.25 0.05
v 0.1 0.45 0.05
v 0.2 0.15 0.05
v 0.2 0.55 0.05
v -0.2 0.15 -0.15
v -0.2 0.55 -0.15
v -0.1 0.25 -0.15
v -0.1 0.45 -0.15
v -0.1 0.55 -0.15
v 0.1 0.25 -0.15
v 0.1 0.45 -0.15
v 0.1 0.55 -0.15
v 0.2 0.15 -0.15
v 0.2 0.55 -0.15
v -0.1 0.35 -0.35
v -0.1 0.45 -0.35
v 0.1 0.35 -0.35
v 0.1 0.45 -0.35
v -0.3 -0.45 0.35
v -0.3 0.45 0.35
v -0.2 -0.55 0.35
v -0.2 -0.45 0.35
v -0.1 -0.35 0.35
v -0.1 -0.15 0.35
v -0.1 0.05 0.35
v -0.1 0.45 0.35
v 0.1 -0.35 0.35
v 0.1 -0.15 0.35
v 0.1 0.05 0.35
v 0.1 0.45 0.35
v 0.2 -0.55 0.35
v 0.2 -0.45 0.35
v 0.3 -0.45 0.35
v 0.3 0.45 0.35
v -0.1 0.05 0.25
v -0.1 0.25 0.25
v 0.1 0.05 0.25
v 0.1 0.25 0.25
v -0.1 0.45 0.15
v -0.1 0.55 0.15
v 0.1 0.45 0.15
v 0.1 0.55 0.15
v -0.2 0.15 -0.05
v -0.2 0.55 -0.05
v -0.1 0.25 -0.05
v -0.1 0.45 -0.05
v 0.1 0.25 -0.05
v 0.1 0.45 -0.05
v 0.2 0.15 -0.05
v 0.2 0.55 -0.05
v -0.1 -0.35 -0.15
v -0.1 -0.15 -0.15
v -0.1 0.25 -0.15
v -0.1 0.45 -0.15
v 0.1 -0.35 -0.15
v 0.1 -0.15 -0.15
v 0.1 0.25 -0.15
v 0.1 0.45 -0.15
v -0.2 0.15 -0.25
v -0.2 0.35 -0.25
v -0.2 0.45 -0.25
v -0.2 0.55 -0.25
v -0.1 0.25 -0.25
v -0.1 0.35 -0.25
v -0.1 0.45 -0.25
v -0.1 0.55 -0.25
v 0.1 0.25 -0.25
v 0.1 0.35 -0.25
v 0.1 0.45 -0.25
v 0.1 0.55 -0.25
v 0.2 0.15 -0.25
v 0.2 0.35 -0.25
v 0.2 0.45 -0.25
v 0.2 0.55 -0.25
v -0.2 0.35 -0.45
v -0.2 0.45 -0.45
v 0.2 0.35 -0.45
v 0.2 0.45 -0.45
v -0.2 -0.55 0.45
v 0.2 -0.55 0.45
v -0.2 -0.55 0.35
v 0.2 -0.55 0.35
v -0.3 -0.45 0.45
v -0.2 -0.45 0.45
v 0.2 -0.45 0.45
v 0.3 -0.45 0.45
v -0.3 -0.45 0.35
v -0.2 -0.45 0.35
v 0.2 -0.45 0.35
v 0.3 -0.45 0.35
v -0.1 -0.35 0.35
v 0.1 -0.35 0.35
v -0.1 -0.35 -0.15
v 0.1 -0.35 -0.15
v -0.1 0.05 0.35
v 0.1 0.05 0.35
v -0.1 0.05 0.25
v 0.1 0.05 0.25
v -0.2 0.15 0.05
v 0.2 0.15 0.05
v -0.2 0.15 -0.05
v 0.2 0.15 -0.05
v -0.2 0.15 -0.15
v 0.2 0.15 -0.15
v -0.2 0.15 -0.25
v 0.2 0.15 -0.25
v -0.1 0.25 0.25
v 0.1 0.25 0.25
v -0.1 0.25 0.05
v 0.1 0.25 0.05
v -0.1 0.25 -0.05
v 0.1 0.25 -0.05
v -0.1 0.25 -0.15
v 0.1 0.25 -0.15
v -0.2 0.35 -0.25
v -0.1 0.35 -0.25
v 0.1 0.35 -0.25
v 0.2 0.35 -0.25
v -0.1 0.35 -0.35
v 0.1 0.35 -0.35
v -0.2 0.35 -0.45
v 0.2 0.35 -0.45
v -0.1 -0.15 0.35
v 0.1 -0.15 0.35
v -0.1 -0.15 -0.15
v 0.1 -0.15 -0.15
v -0.1 0.25 -0.15
v 0.1 0.25 -0.15
v -0.1 0.25 -0.25
v 0.1 0.25 -0.25
v -0.3 0.45 0.45
v 0.3 0.45 0.45
v -0.3 0.45 0.35
v -0.1 0.45 0.35
v 0.1 0.45 0.35
v 0.3 0.45 0.35
v -0.1 0.45 0.15
v 0.1 0.45 0.15
v -0.1 0.45 0.05
v 0.1 0.45 0.05
v -0.1 0.45 -0.05
v 0.1 0.45 -0.05
v -0.1 0.45 -0.15
v 0.1 0.45 -0.15
v -0.2 0.45 -0.25
v -0.1 0.45 -0.25
v 0.1 0.45 -0.25
v 0.2 0.45 -0.25
v -0.1 0.45 -0.35
v 0.1 0.45 -0.35
v -0.2 0.45 -0.45
v 0.2 0.45 -0.45
v -0.1 0.55 0.35
v 0.1 0.55 0.35
v -0.1 0.55 0.15
v 0.1 0.55 0.15
v -0.2 0.55 0.05
v 0.2 0.55 0.05
v -0.2 0.55 -0.05
v 0.2 0.55 -0.05
v -0.2 0.55 -0.15
v -0.1 0.55 -0.15
v 0.1 0.55 -0.15
v 0.2 0.55 -0.15
v -0.2 0.55 -0.25
v -0.1 0.55 -0.25
v 0.1 0.55 -0.25
v 0.2 0.55 -0.25

# faces
f 3/1/1 2/1/1 1/1/1
f 4/1/1 2/1/1 3/1/1
f 7/1/1 6/1/1 5/1/1
f 8/1/1 6/1/1 7/1/1
f 13/2/1 12/2/1 11/2/1
f 15/2/1 13/2/1 11/2/1
f 15/2/1 14/2/1 13/2/1
f 16/2/1 14/2/1 15/2/1
f 17/2/1 10/2/1 9/2/1
f 18/2/1 10/2/1 17/2/1
f 19/2/1 15/2/1 11/2/1
f 20/2/1 15/2/1 19/2/1
f 23/2/1 22/2/1 21/2/1
f 24/2/1 22/2/1 23/2/1
f 27/2/1 26/2/1 25/2/1
f 31/2/1 27/2/1 25/2/1
f 31/2/1 28/2/1 27/2/1
f 32/2/1 28/2/1 31/2/1
f 33/2/1 28/2/1 32/2/1
f 34/2/1 30/2/1 29/2/1
f 35/2/1 30/2/1 34/2/1
f 36/2/1 32/2/1 31/2/1
f 37/2/1 32/2/1 36/2/1
f 40/2/1 39/2/1 38/2/1
f 42/2/1 40/2/1 38/2/1
f 42/2/1 41/2/1 40/2/1
f 43/2/1 41/2/1 42/2/1
f 44/2/1 41/2/1 43/2/1
f 45/2/1 43/2/1 42/2/1
f 46/2/1 43/2/1 45/2/1
f 47/2/2 48/2/2 49/2/2
f 47/2/2 49/2/2 51/2/2
f 49/2/2 50/2/2 51/2/2
f 51/2/2 50/2/2 52/2/2
f 52/2/2 50/2/2 53/2/2
f 51/2/2 52/2/2 54/2/2
f 54/2/2 52/2/2 55/2/2
f 56/2/2 57/2/2 58/2/2
f 58/2/2 57/2/2 59/2/2
f 60/2/2 61/2/2 62/2/2
f 60/2/2 62/2/2 66/2/2
f 62/2/2 63/2/2 66/2/2
f 66/2/2 63/2/2 67/2/2
f 67/2/2 63/2/2 68/2/2
f 64/2/2 65/2/2 69/2/2
f 69/2/2 65/2/2 70/2/2
f 66/2/2 67/2/2 71/2/2
f 71/2/2 67/2/2 72/2/2
f 73/1/2 74/1/2 75/1/2
f 75/1/2 74/1/2 76/1/2
f 79/2/2 80/2/2 81/2/2
f 79/2/2 81/2/2 83/2/2
f 81/2/2 82/2/2 83/2/2
f 83/2/2 82/2/2 84/2/2
f 77/2/2 78/2/2 85/2/2
f 85/2/2 78/2/2 86/2/2
f 79/2/2 83/2/2 87/2/2
f 87/2/2 83/2/2 88/2/2
f 89/1/2 90/1/2 91/1/2
f 91/1/2 90/1/2 92/1/2
f 96/1/3 94/1/3 93/1/3
f 97/1/3 96/1/3 95/1/3
f 98/1/3 94/1/3 96/1/3
f 98/1/3 96/1/3 97/1/3
f 99/1/3 94/1/3 98/1/3
f 100/1/3 94/1/3 99/1/3
f 103/2/3 102/2/3 101/2/3
f 104/2/3 102/2/3 103/2/3
f 107/2/3 106/2/3 105/2/3
f 108/2/3 106/2/3 107/2/3
f 109/2/3 107/2/3 105/2/3
f 110/2/3 106/2/3 108/2/3
f 111/2/3 109/2/3 105/2/3
f 111/2/3 110/2/3 109/2/3
f 112/2/3 106/2/3 110/2/3
f 112/2/3 110/2/3 111/2/3
f 115/2/3 114/2/3 113/2/3
f 116/2/3 114/2/3 115/2/3
f 117/2/3 114/2/3 116/2/3
f 118/2/3 115/2/3 113/2/3
f 121/2/3 118/2/3 113/2/3
f 121/2/3 120/2/3 119/2/3
f 121/2/3 119/2/3 118/2/3
f 122/2/3 120/2/3 121/2/3
f 125/2/3 124/2/3 123/2/3
f 126/2/3 124/2/3 125/2/3
f 127/1/4 128/1/4 130/1/4
f 130/1/4 128/1/4 131/1/4
f 129/1/4 130/1/4 131/1/4
f 131/1/4 128/1/4 132/1/4
f 132/1/4 128/1/4 133/1/4
f 133/1/4 128/1/4 134/1/4
f 129/1/4 131/1/4 135/1/4
f 132/1/4 133/1/4 136/1/4
f 136/1/4 133/1/4 137/1/4
f 129/1/4 135/1/4 139/1/4
f 137/1/4 138/1/4 139/1/4
f 136/1/4 137/1/4 139/1/4
f 135/1/4 136/1/4 139/1/4
f 139/1/4 138/1/4 140/1/4
f 140/1/4 138/1/4 141/1/4
f 141/1/4 138/1/4 142/1/4
f 143/2/4 144/2/4 145/2/4
f 145/2/4 144/2/4 146/2/4
f 147/2/4 148/2/4 149/2/4
f 149/2/4 148/2/4 150/2/4
f 151/2/4 152/2/4 153/2/4
f 153/2/4 152/2/4 154/2/4
f 151/2/4 153/2/4 155/2/4
f 154/2/4 152/2/4 156/2/4
f 151/2/4 155/2/4 157/2/4
f 155/2/4 156/2/4 157/2/4
f 156/2/4 152/2/4 158/2/4
f 157/2/4 156/2/4 158/2/4
f 159/2/4 160/2/4 163/2/4
f 163/2/4 160/2/4 164/2/4
f 161/2/4 162/2/4 165/2/4
f 165/2/4 162/2/4 166/2/4
f 167/2/4 168/2/4 171/2/4
f 171/2/4 168/2/4 172/2/4
f 169/2/4 170/2/4 173/2/4
f 173/2/4 170/2/4 174/2/4
f 167/2/4 171/2/4 175/2/4
f 167/2/4 175/2/4 179/2/4
f 175/2/4 176/2/4 179/2/4
f 179/2/4 176/2/4 180/2/4
f 177/2/4 178/2/4 181/2/4
f 181/2/4 178/2/4 182/2/4
f 183/2/4 184/2/4 185/2/4
f 185/2/4 184/2/4 186/2/4
f 189/1/5 188/1/5 187/1/5
f 190/1/5 188/1/5 189/1/5
f 195/1/5 192/1/5 191/1/5
f 196/1/5 192/1/5 195/1/5
f 197/1/5 194/1/5 193/1/5
f 198/1/5 194/1/5 197/1/5
f 201/2/5 200/2/5 199/2/5
f 202/2/5 200/2/5 201/2/5
f 205/2/5 204/2/5 203/2/5
f 206/2/5 204/2/5 205/2/5
f 209/2/5 208/2/5 207/2/5
f 210/2/5 208/2/5 209/2/5
f 213/2/5 212/2/5 211/2/5
f 214/2/5 212/2/5 213/2/5
f 217/2/5 216/2/5 215/2/5
f 218/2/5 216/2/5 217/2/5
f 221/2/5 220/2/5 219/2/5
f 222/2/5 220/2/5 221/2/5
f 227/2/5 224/2/5 223/2/5
f 228/2/5 226/2/5 225/2/5
f 229/2/5 227/2/5 223/2/5
f 229/2/5 228/2/5 227/2/5
f 230/2/5 226/2/5 228/2/5
f 230/2/5 228/2/5 229/2/5
f 231/2/6 232/2/6 233/2/6
f 233/2/6 232/2/6 234/2/6
f 235/2/6 236/2/6 237/2/6
f 237/2/6 236/2/6 238/2/6
f 239/1/6 240/1/6 241/1/6
f 241/1/6 240/1/6 242/1/6
f 242/1/6 240/1/6 243/1/6
f 243/1/6 240/1/6 244/1/6
f 245/2/6 246/2/6 247/2/6
f 247/2/6 246/2/6 248/2/6
f 249/2/6 250/2/6 251/2/6
f 251/2/6 250/2/6 252/2/6
f 253/2/6 254/2/6 257/2/6
f 255/2/6 256/2/6 258/2/6
f 253/2/6 257/2/6 259/2/6
f 257/2/6 258/2/6 259/2/6
f 258/2/6 256/2/6 260/2/6
f 259/2/6 258/2/6 260/2/6
f 261/2/6 262/2/6 263/2/6
f 263/2/6 262/2/6 264/2/6
f 265/2/6 266/2/6 267/2/6
f 267/2/6 266/2/6 268/2/6
f 269/2/6 270/2/6 273/2/6
f 273/2/6 270/2/6 274/2/6
f 271/2/6 272/2/6 275/2/6
f 275/2/6 272/2/6 276/2/6
