# MagicaVoxel @ Ephtracy

# group
o 

# material
mtllib Leg-2.mtl
usemtl palette

# normals
vn -1 0 0
vn 1 0 0
vn 0 0 1
vn 0 0 -1
vn 0 -1 0
vn 0 1 0

# texcoords
vt 0.693359 0.5
vt 0.705078 0.5
vt 0.712891 0.5

# verts
v -0.25 0 0.55
v -0.25 0 0.45
v -0.25 0 0.05
v -0.25 0.2 0.55
v -0.25 0.2 0.45
v -0.25 0.2 0.05
v -0.15 -0.1 0.05
v -0.15 -0.1 -0.55
v -0.15 0 0.05
v -0.15 0.1 0.05
v -0.15 0.1 -0.55
v 0.05 -0.2 -0.45
v 0.05 -0.2 -0.55
v 0.05 -0.1 -0.45
v 0.05 -0.1 -0.55
v 0.15 -0.1 -0.45
v 0.15 -0.1 -0.55
v 0.15 0 -0.35
v 0.15 0 -0.45
v 0.15 0 -0.55
v 0.15 0.1 -0.35
v 0.15 0.1 -0.45
v -0.15 0 0.55
v -0.15 0 0.45
v -0.15 0.2 0.55
v -0.15 0.2 0.45
v -0.05 0 0.45
v -0.05 0 0.05
v -0.05 0.1 0.05
v -0.05 0.2 0.45
v -0.05 0.2 0.05
v 0.05 -0.1 0.05
v 0.05 -0.1 -0.45
v 0.05 -0.1 -0.55
v 0.05 0 -0.25
v 0.05 0 -0.35
v 0.05 0 -0.45
v 0.05 0 -0.55
v 0.05 0.1 0.05
v 0.05 0.1 -0.25
v 0.05 0.1 -0.35
v 0.05 0.1 -0.45
v 0.25 -0.2 -0.45
v 0.25 -0.2 -0.55
v 0.25 0 -0.25
v 0.25 0 -0.45
v 0.25 0 -0.55
v 0.25 0.1 -0.25
v 0.25 0.1 -0.45
v 0.25 0.1 -0.55
v -0.25 0 0.55
v -0.25 0.2 0.55
v -0.15 0 0.55
v -0.15 0.2 0.55
v -0.15 0 0.45
v -0.15 0.2 0.45
v -0.05 0 0.45
v -0.05 0.2 0.45
v -0.15 -0.1 0.05
v -0.15 0 0.05
v -0.05 0 0.05
v -0.05 0.1 0.05
v 0.05 -0.1 0.05
v 0.05 0.1 0.05
v 0.05 0 -0.25
v 0.05 0.1 -0.25
v 0.25 0 -0.25
v 0.25 0.1 -0.25
v 0.05 -0.2 -0.45
v 0.05 -0.1 -0.45
v 0.05 0 -0.45
v 0.05 0.1 -0.45
v 0.15 -0.1 -0.45
v 0.15 0 -0.45
v 0.15 0.1 -0.45
v 0.25 -0.2 -0.45
v 0.25 0 -0.45
v -0.25 0 0.05
v -0.25 0.2 0.05
v -0.15 0 0.05
v -0.15 0.1 0.05
v -0.05 0.1 0.05
v -0.05 0.2 0.05
v 0.05 0 -0.35
v 0.05 0.1 -0.35
v 0.15 0 -0.35
v 0.15 0.1 -0.35
v -0.15 -0.1 -0.55
v -0.15 0.1 -0.55
v 0.05 -0.2 -0.55
v 0.05 -0.1 -0.55
v 0.05 0 -0.55
v 0.05 0.1 -0.55
v 0.15 -0.1 -0.55
v 0.15 0 -0.55
v 0.15 0.1 -0.55
v 0.25 -0.2 -0.55
v 0.25 0 -0.55
v 0.25 0.1 -0.55
v 0.05 -0.2 -0.45
v 0.25 -0.2 -0.45
v 0.05 -0.2 -0.55
v 0.25 -0.2 -0.55
v -0.15 -0.1 0.05
v 0.05 -0.1 0.05
v 0.05 -0.1 -0.45
v -0.15 -0.1 -0.55
v 0.05 -0.1 -0.55
v -0.25 0 0.55
v -0.15 0 0.55
v -0.25 0 0.45
v -0.15 0 0.45
v -0.05 0 0.45
v -0.25 0 0.05
v -0.15 0 0.05
v -0.05 0 0.05
v 0.05 0 -0.25
v 0.25 0 -0.25
v 0.05 0 -0.35
v 0.15 0 -0.35
v 0.05 0 -0.45
v 0.15 0 -0.45
v 0.25 0 -0.45
v 0.05 0 -0.55
v 0.15 0 -0.55
v 0.05 -0.1 -0.45
v 0.15 -0.1 -0.45
v 0.05 -0.1 -0.55
v 0.15 -0.1 -0.55
v -0.15 0.1 0.05
v -0.05 0.1 0.05
v 0.05 0.1 0.05
v 0.05 0.1 -0.25
v 0.25 0.1 -0.25
v 0.05 0.1 -0.35
v 0.15 0.1 -0.35
v 0.05 0.1 -0.45
v 0.15 0.1 -0.45
v 0.25 0.1 -0.45
v -0.15 0.1 -0.55
v 0.05 0.1 -0.55
v 0.15 0.1 -0.55
v 0.25 0.1 -0.55
v -0.25 0.2 0.55
v -0.15 0.2 0.55
v -0.25 0.2 0.45
v -0.15 0.2 0.45
v -0.05 0.2 0.45
v -0.25 0.2 0.05
v -0.05 0.2 0.05

# faces
f 4/2/1 2/2/1 1/2/1
f 5/1/1 3/1/1 2/1/1
f 5/2/1 2/2/1 4/2/1
f 6/1/1 3/1/1 5/1/1
f 9/1/1 8/1/1 7/1/1
f 10/1/1 8/1/1 9/1/1
f 11/1/1 8/1/1 10/1/1
f 14/3/1 13/3/1 12/3/1
f 15/3/1 13/3/1 14/3/1
f 19/3/1 17/3/1 16/3/1
f 20/3/1 17/3/1 19/3/1
f 21/3/1 19/3/1 18/3/1
f 22/3/1 19/3/1 21/3/1
f 23/2/2 24/2/2 25/2/2
f 25/2/2 24/2/2 26/2/2
f 27/1/2 28/1/2 29/1/2
f 27/1/2 29/1/2 30/1/2
f 30/1/2 29/1/2 31/1/2
f 32/1/2 33/1/2 35/1/2
f 33/1/2 34/1/2 35/1/2
f 35/1/2 34/1/2 36/1/2
f 36/1/2 34/1/2 37/1/2
f 37/1/2 34/1/2 38/1/2
f 32/1/2 35/1/2 39/1/2
f 39/1/2 35/1/2 40/1/2
f 36/1/2 37/1/2 41/1/2
f 41/1/2 37/1/2 42/1/2
f 43/3/2 44/3/2 46/3/2
f 46/3/2 44/3/2 47/3/2
f 45/3/2 46/3/2 48/3/2
f 46/2/2 47/2/2 49/2/2
f 48/3/2 46/3/2 49/3/2
f 49/2/2 47/2/2 50/2/2
f 53/2/3 52/2/3 51/2/3
f 54/2/3 52/2/3 53/2/3
f 57/1/3 56/1/3 55/1/3
f 58/1/3 56/1/3 57/1/3
f 61/1/3 60/1/3 59/1/3
f 63/1/3 61/1/3 59/1/3
f 63/1/3 62/1/3 61/1/3
f 64/1/3 62/1/3 63/1/3
f 67/3/3 66/3/3 65/3/3
f 68/3/3 66/3/3 67/3/3
f 73/3/3 70/3/3 69/3/3
f 74/3/3 72/3/3 71/3/3
f 75/3/3 72/3/3 74/3/3
f 76/3/3 73/3/3 69/3/3
f 76/3/3 74/3/3 73/3/3
f 77/3/3 74/3/3 76/3/3
f 78/1/4 79/1/4 80/1/4
f 80/1/4 79/1/4 81/1/4
f 81/1/4 79/1/4 82/1/4
f 82/1/4 79/1/4 83/1/4
f 84/3/4 85/3/4 86/3/4
f 86/3/4 85/3/4 87/3/4
f 88/1/4 89/1/4 91/1/4
f 91/1/4 89/1/4 92/1/4
f 92/1/4 89/1/4 93/1/4
f 90/3/4 91/3/4 94/3/4
f 92/3/4 93/3/4 95/3/4
f 95/3/4 93/3/4 96/3/4
f 90/3/4 94/3/4 97/3/4
f 94/3/4 95/3/4 97/3/4
f 95/2/4 96/2/4 98/2/4
f 97/3/4 95/3/4 98/3/4
f 98/2/4 96/2/4 99/2/4
f 102/3/5 101/3/5 100/3/5
f 103/3/5 101/3/5 102/3/5
f 106/1/5 105/1/5 104/1/5
f 107/1/5 106/1/5 104/1/5
f 108/1/5 106/1/5 107/1/5
f 111/2/5 110/2/5 109/2/5
f 112/2/5 110/2/5 111/2/5
f 114/1/5 112/1/5 111/1/5
f 114/1/5 113/1/5 112/1/5
f 115/1/5 113/1/5 114/1/5
f 116/1/5 113/1/5 115/1/5
f 119/3/5 118/3/5 117/3/5
f 120/3/5 118/3/5 119/3/5
f 122/3/5 118/3/5 120/3/5
f 123/3/5 118/3/5 122/3/5
f 124/3/5 122/3/5 121/3/5
f 125/3/5 122/3/5 124/3/5
f 126/3/6 127/3/6 128/3/6
f 128/3/6 127/3/6 129/3/6
f 130/1/6 131/1/6 133/1/6
f 131/1/6 132/1/6 133/1/6
f 130/1/6 133/1/6 135/1/6
f 133/3/6 134/3/6 135/3/6
f 135/3/6 134/3/6 136/3/6
f 130/1/6 135/1/6 137/1/6
f 136/3/6 134/3/6 138/3/6
f 138/3/6 134/3/6 139/3/6
f 130/1/6 137/1/6 140/1/6
f 137/3/6 138/3/6 141/3/6
f 140/1/6 137/1/6 141/1/6
f 138/2/6 139/2/6 142/2/6
f 141/3/6 138/3/6 142/3/6
f 142/2/6 139/2/6 143/2/6
f 144/2/6 145/2/6 146/2/6
f 146/2/6 145/2/6 147/2/6
f 146/1/6 147/1/6 149/1/6
f 147/1/6 148/1/6 149/1/6
f 149/1/6 148/1/6 150/1/6
