# MagicaVoxel @ Ephtracy

# group
o 

# material
mtllib Leg-31.mtl
usemtl palette

# normals
vn -1 0 0
vn 1 0 0
vn 0 0 1
vn 0 0 -1
vn 0 -1 0
vn 0 1 0

# texcoords
vt 0.705078 0.5
vt 0.857422 0.5
vt 0.908203 0.5
vt 0.912109 0.5
vt 0.982422 0.5

# verts
v -0.25 -0.5 0.25
v -0.25 -0.5 0.15
v -0.25 -0.5 -0.15
v -0.25 -0.4 0.35
v -0.25 -0.4 0.25
v -0.25 -0.4 0.15
v -0.25 -0.4 0.05
v -0.25 -0.4 -0.05
v -0.25 -0.4 -0.15
v -0.25 -0.4 -0.25
v -0.25 -0.3 0.25
v -0.25 -0.3 0.15
v -0.25 -0.3 0.05
v -0.25 -0.3 -0.05
v -0.25 -0.2 0.05
v -0.25 -0.2 -0.05
v -0.25 -0.1 0.25
v -0.25 -0.1 0.15
v -0.25 -0.1 -0.05
v -0.25 -0.1 -0.15
v -0.25 -0.1 -0.25
v -0.25 0 0.15
v -0.25 0 0.05
v -0.25 0 -0.05
v -0.25 0 -0.15
v -0.25 0.1 0.25
v -0.25 0.1 0.15
v -0.25 0.1 0.05
v -0.25 0.1 -0.05
v -0.25 0.1 -0.15
v -0.25 0.1 -0.25
v -0.25 0.2 0.25
v -0.25 0.2 -0.05
v -0.25 0.3 0.35
v -0.25 0.3 0.15
v -0.25 0.3 0.05
v -0.25 0.3 -0.15
v -0.25 0.3 -0.25
v -0.25 0.4 0.35
v -0.25 0.4 0.15
v -0.25 0.4 0.05
v -0.25 0.4 -0.05
v -0.25 0.4 -0.15
v -0.25 0.4 -0.25
v -0.25 0.5 0.35
v -0.25 0.5 0.15
v -0.25 0.5 -0.05
v -0.25 0.5 -0.15
v -0.25 0.5 -0.25
v -0.15 -0.1 -0.25
v -0.15 -0.1 -0.35
v -0.15 0 -0.25
v -0.15 0 -0.35
v -0.15 0.1 -0.25
v -0.15 0.1 -0.35
v -0.15 0.2 -0.25
v -0.15 0.2 -0.35
v -0.15 0.3 -0.25
v -0.15 0.4 -0.25
v -0.15 0.5 0.35
v -0.15 0.5 0.25
v -0.15 0.5 0.15
v -0.15 0.5 0.05
v -0.15 0.5 -0.05
v -0.15 0.5 -0.15
v -0.15 0.5 -0.25
v -0.15 0.5 -0.35
v -0.15 0.6 0.35
v -0.15 0.6 0.25
v -0.15 0.6 0.15
v -0.15 0.6 -0.05
v -0.15 0.6 -0.15
v -0.15 0.7 0.35
v -0.15 0.7 0.25
v -0.15 0.7 0.05
v -0.15 0.7 -0.15
v -0.15 0.7 -0.25
v 0.05 -0.7 0.15
v 0.05 -0.7 -0.05
v 0.05 -0.3 0.15
v 0.05 -0.3 -0.05
v -0.15 -0.5 0.25
v -0.15 -0.5 0.15
v -0.15 -0.5 -0.15
v -0.15 -0.4 0.35
v -0.15 -0.4 0.25
v -0.15 -0.4 0.15
v -0.15 -0.4 0.05
v -0.15 -0.4 -0.05
v -0.15 -0.4 -0.15
v -0.15 -0.4 -0.25
v -0.15 -0.3 0.25
v -0.15 -0.3 0.15
v -0.15 -0.3 0.05
v -0.15 -0.3 -0.05
v -0.15 -0.1 0.35
v -0.15 -0.1 0.25
v -0.15 -0.1 0.15
v -0.15 -0.1 -0.05
v -0.15 -0.1 -0.15
v -0.15 -0.1 -0.25
v -0.15 0 0.15
v -0.15 0 0.05
v -0.15 0 -0.05
v -0.15 0.1 0.15
v -0.15 0.1 0.05
v -0.15 0.1 -0.05
v -0.05 -0.1 0.25
v -0.05 -0.1 0.15
v -0.05 -0.1 -0.05
v -0.05 -0.1 -0.25
v -0.05 0 0.15
v -0.05 0 -0.05
v -0.05 0 -0.25
v -0.05 0.1 0.25
v -0.05 0.1 0.15
v -0.05 0.1 -0.05
v -0.05 0.2 0.15
v -0.05 0.2 -0.05
v -0.05 0.2 -0.25
v -0.05 0.3 0.35
v -0.05 0.3 0.25
v -0.05 0.3 -0.25
v -0.05 0.4 0.35
v -0.05 0.4 0.25
v -0.05 0.5 0.35
v -0.05 0.5 0.25
v -0.05 0.5 0.15
v -0.05 0.5 0.05
v -0.05 0.5 -0.05
v -0.05 0.5 -0.25
v -0.05 0.6 0.35
v -0.05 0.6 0.25
v -0.05 0.6 0.15
v -0.05 0.6 0.05
v -0.05 0.6 -0.05
v -0.05 0.6 -0.25
v 0.05 -0.1 0.35
v 0.05 -0.1 0.25
v 0.05 -0.1 -0.25
v 0.05 -0.1 -0.35
v 0.05 0 -0.25
v 0.05 0 -0.35
v 0.05 0.1 0.35
v 0.05 0.1 0.25
v 0.05 0.2 -0.25
v 0.05 0.2 -0.35
v 0.05 0.3 0.35
v 0.05 0.3 0.25
v 0.05 0.3 -0.25
v 0.05 0.3 -0.35
v 0.05 0.5 -0.25
v 0.05 0.5 -0.35
v 0.05 0.6 0.35
v 0.05 0.6 -0.25
v 0.05 0.7 0.35
v 0.05 0.7 -0.25
v 0.25 -0.7 0.15
v 0.25 -0.7 -0.05
v 0.25 -0.1 0.15
v 0.25 -0.1 -0.05
v -0.25 -0.4 0.35
v -0.25 0.3 0.35
v -0.25 0.4 0.35
v -0.25 0.5 0.35
v -0.15 -0.4 0.35
v -0.15 -0.1 0.35
v -0.15 0 0.35
v -0.15 0.1 0.35
v -0.15 0.5 0.35
v -0.15 0.6 0.35
v -0.15 0.7 0.35
v -0.05 -0.1 0.35
v -0.05 0 0.35
v -0.05 0.3 0.35
v -0.05 0.4 0.35
v -0.05 0.5 0.35
v -0.05 0.6 0.35
v -0.05 0.7 0.35
v 0.05 -0.1 0.35
v 0.05 0.1 0.35
v 0.05 0.3 0.35
v 0.05 0.6 0.35
v 0.05 0.7 0.35
v -0.25 -0.5 0.25
v -0.25 -0.4 0.25
v -0.15 -0.5 0.25
v -0.15 -0.4 0.25
v -0.15 -0.3 0.15
v -0.15 -0.1 0.15
v -0.05 -0.1 0.15
v 0.05 -0.7 0.15
v 0.05 -0.3 0.15
v 0.25 -0.7 0.15
v 0.25 -0.1 0.15
v -0.15 0 -0.05
v -0.15 0.1 -0.05
v -0.05 0 -0.05
v -0.05 0.1 -0.05
v -0.05 -0.1 -0.25
v -0.05 0 -0.25
v -0.05 0.2 -0.25
v -0.05 0.3 -0.25
v -0.05 0.5 -0.25
v 0.05 -0.1 -0.25
v 0.05 0 -0.25
v 0.05 0.2 -0.25
v 0.05 0.3 -0.25
v 0.05 0.5 -0.25
v -0.05 -0.1 0.25
v -0.05 0.1 0.25
v -0.05 0.3 0.25
v 0.05 -0.1 0.25
v 0.05 0.1 0.25
v 0.05 0.3 0.25
v -0.15 0 0.15
v -0.15 0.1 0.15
v -0.05 0 0.15
v -0.05 0.1 0.15
v -0.15 -0.3 -0.05
v -0.15 -0.1 -0.05
v -0.05 -0.1 -0.05
v 0.05 -0.7 -0.05
v 0.05 -0.3 -0.05
v 0.25 -0.7 -0.05
v 0.25 -0.1 -0.05
v -0.25 -0.5 -0.15
v -0.25 -0.4 -0.15
v -0.15 -0.5 -0.15
v -0.15 -0.4 -0.15
v -0.25 -0.4 -0.25
v -0.25 -0.1 -0.25
v -0.25 0.1 -0.25
v -0.25 0.3 -0.25
v -0.25 0.4 -0.25
v -0.25 0.5 -0.25
v -0.15 -0.4 -0.25
v -0.15 -0.1 -0.25
v -0.15 0 -0.25
v -0.15 0.1 -0.25
v -0.15 0.2 -0.25
v -0.15 0.3 -0.25
v -0.15 0.4 -0.25
v -0.15 0.5 -0.25
v -0.15 0.7 -0.25
v -0.05 0.5 -0.25
v -0.05 0.6 -0.25
v 0.05 0.6 -0.25
v 0.05 0.7 -0.25
v -0.15 -0.1 -0.35
v -0.15 0 -0.35
v -0.15 0.1 -0.35
v -0.15 0.2 -0.35
v -0.15 0.5 -0.35
v -0.05 0.1 -0.35
v -0.05 0.2 -0.35
v -0.05 0.3 -0.35
v 0.05 -0.1 -0.35
v 0.05 0 -0.35
v 0.05 0.2 -0.35
v 0.05 0.3 -0.35
v 0.05 0.5 -0.35
v 0.05 -0.7 0.15
v 0.25 -0.7 0.15
v 0.05 -0.7 -0.05
v 0.25 -0.7 -0.05
v -0.25 -0.5 0.25
v -0.15 -0.5 0.25
v -0.25 -0.5 0.15
v -0.15 -0.5 0.15
v -0.25 -0.5 -0.15
v -0.15 -0.5 -0.15
v -0.25 -0.4 0.35
v -0.15 -0.4 0.35
v -0.25 -0.4 0.25
v -0.15 -0.4 0.25
v -0.25 -0.4 -0.15
v -0.15 -0.4 -0.15
v -0.25 -0.4 -0.25
v -0.15 -0.4 -0.25
v -0.15 -0.3 0.15
v 0.05 -0.3 0.15
v -0.15 -0.3 0.05
v -0.15 -0.3 -0.05
v 0.05 -0.3 -0.05
v -0.15 -0.1 0.35
v -0.05 -0.1 0.35
v 0.05 -0.1 0.35
v -0.15 -0.1 0.25
v -0.05 -0.1 0.25
v 0.05 -0.1 0.25
v -0.15 -0.1 0.15
v -0.05 -0.1 0.15
v -0.15 -0.1 -0.05
v -0.05 -0.1 -0.05
v -0.15 -0.1 -0.15
v -0.15 -0.1 -0.25
v -0.05 -0.1 -0.25
v 0.05 -0.1 -0.25
v -0.15 -0.1 -0.35
v 0.05 -0.1 -0.35
v -0.15 0.1 0.15
v -0.05 0.1 0.15
v -0.15 0.1 0.05
v -0.15 0.1 -0.05
v -0.05 0.1 -0.05
v -0.05 0.6 0.35
v 0.05 0.6 0.35
v -0.05 0.6 0.25
v -0.05 0.6 0.15
v -0.05 0.6 0.05
v -0.05 0.6 -0.05
v -0.05 0.6 -0.25
v 0.05 0.6 -0.25
v -0.05 -0.1 0.15
v 0.25 -0.1 0.15
v -0.05 -0.1 -0.05
v 0.25 -0.1 -0.05
v -0.15 0 0.15
v -0.05 0 0.15
v -0.15 0 0.05
v -0.15 0 -0.05
v -0.05 0 -0.05
v -0.05 0.3 0.35
v 0.05 0.3 0.35
v -0.05 0.3 0.25
v 0.05 0.3 0.25
v -0.25 0.5 0.35
v -0.15 0.5 0.35
v -0.15 0.5 0.25
v -0.25 0.5 0.15
v -0.15 0.5 0.15
v -0.15 0.5 0.05
v -0.25 0.5 -0.05
v -0.15 0.5 -0.05
v -0.25 0.5 -0.15
v -0.15 0.5 -0.15
v -0.25 0.5 -0.25
v -0.15 0.5 -0.25
v -0.05 0.5 -0.25
v 0.05 0.5 -0.25
v -0.15 0.5 -0.35
v 0.05 0.5 -0.35
v -0.15 0.7 0.35
v -0.05 0.7 0.35
v 0.05 0.7 0.35
v -0.15 0.7 0.25
v -0.05 0.7 0.25
v -0.15 0.7 0.05
v -0.05 0.7 0.05
v -0.15 0.7 -0.15
v -0.05 0.7 -0.15
v -0.15 0.7 -0.25
v 0.05 0.7 -0.25

# faces
f 5/3/1 2/3/1 1/3/1
f 6/4/1 3/4/1 2/4/1
f 6/3/1 2/3/1 5/3/1
f 7/4/1 3/4/1 6/4/1
f 8/4/1 3/4/1 7/4/1
f 9/4/1 3/4/1 8/4/1
f 11/4/1 5/4/1 4/4/1
f 11/4/1 6/4/1 5/4/1
f 11/4/1 7/4/1 6/4/1
f 12/4/1 7/4/1 11/4/1
f 13/3/1 8/3/1 7/3/1
f 13/4/1 7/4/1 12/4/1
f 14/4/1 9/4/1 8/4/1
f 14/3/1 8/3/1 13/3/1
f 15/4/1 13/4/1 12/4/1
f 15/4/1 14/4/1 13/4/1
f 16/4/1 9/4/1 14/4/1
f 16/4/1 14/4/1 15/4/1
f 17/3/1 12/3/1 11/3/1
f 17/4/1 11/4/1 4/4/1
f 18/4/1 15/4/1 12/4/1
f 18/3/1 12/3/1 17/3/1
f 19/4/1 9/4/1 16/4/1
f 19/3/1 16/3/1 15/3/1
f 20/3/1 10/3/1 9/3/1
f 20/4/1 9/4/1 19/4/1
f 21/3/1 10/3/1 20/3/1
f 22/4/1 15/4/1 18/4/1
f 22/4/1 18/4/1 17/4/1
f 23/3/1 19/3/1 15/3/1
f 23/4/1 15/4/1 22/4/1
f 23/3/1 20/3/1 19/3/1
f 24/3/1 20/3/1 23/3/1
f 25/4/1 21/4/1 20/4/1
f 25/3/1 20/3/1 24/3/1
f 26/4/1 22/4/1 17/4/1
f 26/4/1 17/4/1 4/4/1
f 27/3/1 23/3/1 22/3/1
f 27/4/1 22/4/1 26/4/1
f 28/2/1 24/2/1 23/2/1
f 28/3/1 23/3/1 27/3/1
f 29/4/1 25/4/1 24/4/1
f 29/2/1 24/2/1 28/2/1
f 30/4/1 21/4/1 25/4/1
f 30/4/1 25/4/1 29/4/1
f 31/4/1 21/4/1 30/4/1
f 32/3/1 29/3/1 28/3/1
f 32/3/1 28/3/1 27/3/1
f 32/3/1 27/3/1 26/3/1
f 32/4/1 26/4/1 4/4/1
f 33/4/1 30/4/1 29/4/1
f 33/3/1 29/3/1 32/3/1
f 34/4/1 32/4/1 4/4/1
f 34/4/1 33/4/1 32/4/1
f 35/4/1 33/4/1 34/4/1
f 36/4/1 33/4/1 35/4/1
f 37/3/1 31/3/1 30/3/1
f 37/4/1 33/4/1 36/4/1
f 37/4/1 30/4/1 33/4/1
f 38/3/1 31/3/1 37/3/1
f 39/3/1 35/3/1 34/3/1
f 40/4/1 36/4/1 35/4/1
f 40/3/1 35/3/1 39/3/1
f 41/3/1 37/3/1 36/3/1
f 41/4/1 36/4/1 40/4/1
f 42/3/1 37/3/1 41/3/1
f 43/4/1 38/4/1 37/4/1
f 43/3/1 37/3/1 42/3/1
f 44/4/1 38/4/1 43/4/1
f 45/4/1 40/4/1 39/4/1
f 46/3/1 42/3/1 41/3/1
f 46/4/1 40/4/1 45/4/1
f 46/3/1 41/3/1 40/3/1
f 47/4/1 43/4/1 42/4/1
f 47/3/1 42/3/1 46/3/1
f 48/3/1 44/3/1 43/3/1
f 48/4/1 43/4/1 47/4/1
f 49/3/1 44/3/1 48/3/1
f 52/3/1 51/3/1 50/3/1
f 53/3/1 51/3/1 52/3/1
f 54/4/1 53/4/1 52/4/1
f 55/4/1 53/4/1 54/4/1
f 56/3/1 55/3/1 54/3/1
f 57/3/1 55/3/1 56/3/1
f 58/4/1 57/4/1 56/4/1
f 59/4/1 57/4/1 58/4/1
f 66/4/1 57/4/1 59/4/1
f 67/4/1 57/4/1 66/4/1
f 68/3/1 61/3/1 60/3/1
f 69/4/1 62/4/1 61/4/1
f 69/3/1 61/3/1 68/3/1
f 70/3/1 63/3/1 62/3/1
f 70/4/1 62/4/1 69/4/1
f 71/3/1 65/3/1 64/3/1
f 71/4/1 64/4/1 63/4/1
f 71/3/1 66/3/1 65/3/1
f 72/3/1 66/3/1 71/3/1
f 73/4/1 69/4/1 68/4/1
f 74/3/1 70/3/1 69/3/1
f 74/4/1 69/4/1 73/4/1
f 75/3/1 63/3/1 70/3/1
f 75/3/1 70/3/1 74/3/1
f 75/4/1 71/4/1 63/4/1
f 75/4/1 72/4/1 71/4/1
f 76/3/1 66/3/1 72/3/1
f 76/4/1 72/4/1 75/4/1
f 77/3/1 66/3/1 76/3/1
f 80/1/1 79/1/1 78/1/1
f 81/1/1 79/1/1 80/1/1
f 82/3/2 83/3/2 86/3/2
f 83/4/2 84/4/2 87/4/2
f 86/3/2 83/3/2 87/3/2
f 87/4/2 84/4/2 88/4/2
f 88/4/2 84/4/2 89/4/2
f 89/4/2 84/4/2 90/4/2
f 85/4/2 86/4/2 92/4/2
f 86/4/2 87/4/2 92/4/2
f 87/4/2 88/4/2 92/4/2
f 92/4/2 88/4/2 93/4/2
f 88/3/2 89/3/2 94/3/2
f 93/4/2 88/4/2 94/4/2
f 89/4/2 90/4/2 95/4/2
f 94/3/2 89/3/2 95/3/2
f 85/4/2 92/4/2 96/4/2
f 92/3/2 93/3/2 97/3/2
f 96/4/2 92/4/2 97/4/2
f 97/3/2 93/3/2 98/3/2
f 95/4/2 90/4/2 99/4/2
f 90/3/2 91/3/2 100/3/2
f 99/4/2 90/4/2 100/4/2
f 100/3/2 91/3/2 101/3/2
f 102/3/2 103/3/2 105/3/2
f 103/2/2 104/2/2 106/2/2
f 105/3/2 103/3/2 106/3/2
f 106/2/2 104/2/2 107/2/2
f 108/1/2 109/1/2 112/1/2
f 110/1/2 111/1/2 112/1/2
f 109/1/2 110/1/2 112/1/2
f 112/1/2 111/1/2 113/1/2
f 113/1/2 111/1/2 114/1/2
f 108/1/2 112/1/2 115/1/2
f 115/1/2 112/1/2 116/1/2
f 113/1/2 114/1/2 117/1/2
f 115/1/2 116/1/2 118/1/2
f 116/5/2 117/5/2 118/5/2
f 117/1/2 114/1/2 119/1/2
f 118/5/2 117/5/2 119/5/2
f 119/1/2 114/1/2 120/1/2
f 115/1/2 118/1/2 122/1/2
f 118/1/2 119/1/2 122/1/2
f 119/1/2 120/1/2 122/1/2
f 122/1/2 120/1/2 123/1/2
f 121/3/2 122/3/2 124/3/2
f 122/1/2 123/1/2 125/1/2
f 124/3/2 122/3/2 125/3/2
f 124/4/2 125/4/2 126/4/2
f 125/1/2 123/1/2 127/1/2
f 126/4/2 125/4/2 127/4/2
f 127/1/2 123/1/2 128/1/2
f 128/1/2 123/1/2 129/1/2
f 129/1/2 123/1/2 130/1/2
f 130/1/2 123/1/2 131/1/2
f 126/3/2 127/3/2 132/3/2
f 127/4/2 128/4/2 133/4/2
f 132/3/2 127/3/2 133/3/2
f 128/3/2 129/3/2 134/3/2
f 133/4/2 128/4/2 134/4/2
f 129/4/2 130/4/2 135/4/2
f 134/3/2 129/3/2 135/3/2
f 130/3/2 131/3/2 136/3/2
f 135/4/2 130/4/2 136/4/2
f 136/3/2 131/3/2 137/3/2
f 140/3/2 141/3/2 142/3/2
f 142/3/2 141/3/2 143/3/2
f 138/3/2 139/3/2 144/3/2
f 144/3/2 139/3/2 145/3/2
f 142/4/2 143/4/2 146/4/2
f 146/4/2 143/4/2 147/4/2
f 144/4/2 145/4/2 148/4/2
f 148/4/2 145/4/2 149/4/2
f 146/3/2 147/3/2 150/3/2
f 150/3/2 147/3/2 151/3/2
f 150/4/2 151/4/2 152/4/2
f 152/4/2 151/4/2 153/4/2
f 154/3/2 155/3/2 156/3/2
f 156/3/2 155/3/2 157/3/2
f 158/1/2 159/1/2 160/1/2
f 160/1/2 159/1/2 161/1/2
f 166/4/3 163/4/3 162/4/3
f 167/4/3 163/4/3 166/4/3
f 168/4/3 163/4/3 167/4/3
f 169/4/3 163/4/3 168/4/3
f 170/4/3 165/4/3 164/4/3
f 173/4/3 168/4/3 167/4/3
f 174/3/3 169/3/3 168/3/3
f 174/4/3 168/4/3 173/4/3
f 175/4/3 163/4/3 169/4/3
f 175/3/3 164/3/3 163/3/3
f 176/4/3 170/4/3 164/4/3
f 176/3/3 164/3/3 175/3/3
f 177/3/3 171/3/3 170/3/3
f 177/4/3 170/4/3 176/4/3
f 178/4/3 172/4/3 171/4/3
f 178/3/3 171/3/3 177/3/3
f 179/4/3 172/4/3 178/4/3
f 180/3/3 174/3/3 173/3/3
f 181/3/3 169/3/3 174/3/3
f 181/3/3 174/3/3 180/3/3
f 181/4/3 175/4/3 169/4/3
f 182/4/3 175/4/3 181/4/3
f 183/3/3 179/3/3 178/3/3
f 184/3/3 179/3/3 183/3/3
f 187/3/3 186/3/3 185/3/3
f 188/3/3 186/3/3 187/3/3
f 191/1/3 190/1/3 189/1/3
f 193/1/3 191/1/3 189/1/3
f 194/1/3 193/1/3 192/1/3
f 195/1/3 191/1/3 193/1/3
f 195/1/3 193/1/3 194/1/3
f 198/1/3 197/1/3 196/1/3
f 199/1/3 197/1/3 198/1/3
f 205/3/3 201/3/3 200/3/3
f 206/4/3 202/4/3 201/4/3
f 206/3/3 201/3/3 205/3/3
f 207/3/3 203/3/3 202/3/3
f 207/4/3 202/4/3 206/4/3
f 208/4/3 204/4/3 203/4/3
f 208/3/3 203/3/3 207/3/3
f 209/4/3 204/4/3 208/4/3
f 210/3/4 211/3/4 213/3/4
f 211/4/4 212/4/4 214/4/4
f 213/3/4 211/3/4 214/3/4
f 214/4/4 212/4/4 215/4/4
f 216/1/4 217/1/4 218/1/4
f 218/1/4 217/1/4 219/1/4
f 220/1/4 221/1/4 222/1/4
f 220/1/4 222/1/4 224/1/4
f 223/1/4 224/1/4 225/1/4
f 224/1/4 222/1/4 226/1/4
f 225/1/4 224/1/4 226/1/4
f 227/4/4 228/4/4 229/4/4
f 229/4/4 228/4/4 230/4/4
f 231/3/4 232/3/4 237/3/4
f 232/4/4 233/4/4 238/4/4
f 237/3/4 232/3/4 238/3/4
f 238/4/4 233/4/4 239/4/4
f 233/3/4 234/3/4 240/3/4
f 239/4/4 233/4/4 240/4/4
f 240/3/4 234/3/4 241/3/4
f 234/4/4 235/4/4 242/4/4
f 241/3/4 234/3/4 242/3/4
f 235/3/4 236/3/4 243/3/4
f 242/4/4 235/4/4 243/4/4
f 243/3/4 236/3/4 244/3/4
f 244/3/4 245/3/4 246/3/4
f 246/3/4 245/3/4 247/3/4
f 247/3/4 245/3/4 248/3/4
f 248/3/4 245/3/4 249/3/4
f 251/4/4 252/4/4 255/4/4
f 252/3/4 253/3/4 255/3/4
f 253/4/4 254/4/4 256/4/4
f 255/3/4 253/3/4 256/3/4
f 256/4/4 254/4/4 257/4/4
f 250/3/4 251/3/4 258/3/4
f 251/4/4 255/4/4 259/4/4
f 258/3/4 251/3/4 259/3/4
f 255/4/4 256/4/4 259/4/4
f 256/3/4 257/3/4 260/3/4
f 259/4/4 256/4/4 260/4/4
f 257/4/4 254/4/4 261/4/4
f 260/3/4 257/3/4 261/3/4
f 261/4/4 254/4/4 262/4/4
f 265/1/5 264/1/5 263/1/5
f 266/1/5 264/1/5 265/1/5
f 269/3/5 268/3/5 267/3/5
f 270/3/5 268/3/5 269/3/5
f 271/4/5 270/4/5 269/4/5
f 272/4/5 270/4/5 271/4/5
f 275/4/5 274/4/5 273/4/5
f 276/4/5 274/4/5 275/4/5
f 279/3/5 278/3/5 277/3/5
f 280/3/5 278/3/5 279/3/5
f 283/1/5 282/1/5 281/1/5
f 284/1/5 282/1/5 283/1/5
f 285/1/5 282/1/5 284/1/5
f 289/4/5 287/4/5 286/4/5
f 290/3/5 288/3/5 287/3/5
f 290/4/5 287/4/5 289/4/5
f 291/3/5 288/3/5 290/3/5
f 292/1/5 290/1/5 289/1/5
f 293/1/5 290/1/5 292/1/5
f 296/1/5 295/1/5 294/1/5
f 297/1/5 295/1/5 296/1/5
f 298/1/5 295/1/5 297/1/5
f 300/3/5 298/3/5 297/3/5
f 300/3/5 299/3/5 298/3/5
f 301/3/5 299/3/5 300/3/5
f 304/5/5 303/5/5 302/5/5
f 305/5/5 303/5/5 304/5/5
f 306/5/5 303/5/5 305/5/5
f 309/3/5 308/3/5 307/3/5
f 310/3/5 308/3/5 309/3/5
f 311/3/5 308/3/5 310/3/5
f 312/3/5 308/3/5 311/3/5
f 313/3/5 308/3/5 312/3/5
f 314/3/5 308/3/5 313/3/5
f 315/1/6 316/1/6 317/1/6
f 317/1/6 316/1/6 318/1/6
f 319/1/6 320/1/6 321/1/6
f 321/1/6 320/1/6 322/1/6
f 322/1/6 320/1/6 323/1/6
f 324/4/6 325/4/6 326/4/6
f 326/4/6 325/4/6 327/4/6
f 328/4/6 329/4/6 330/4/6
f 328/4/6 330/4/6 331/4/6
f 331/4/6 330/4/6 332/4/6
f 331/3/6 332/3/6 333/3/6
f 331/3/6 333/3/6 334/3/6
f 334/3/6 333/3/6 335/3/6
f 334/4/6 335/4/6 336/4/6
f 336/4/6 335/4/6 337/4/6
f 336/3/6 337/3/6 338/3/6
f 338/3/6 337/3/6 339/3/6
f 340/4/6 341/4/6 342/4/6
f 339/4/6 340/4/6 342/4/6
f 342/4/6 341/4/6 343/4/6
f 344/4/6 345/4/6 347/4/6
f 345/3/6 346/3/6 348/3/6
f 347/4/6 345/4/6 348/4/6
f 347/3/6 348/3/6 349/3/6
f 348/3/6 346/3/6 350/3/6
f 349/3/6 348/3/6 350/3/6
f 349/4/6 350/4/6 351/4/6
f 350/3/6 346/3/6 352/3/6
f 351/4/6 350/4/6 352/4/6
f 351/3/6 352/3/6 353/3/6
f 352/3/6 346/3/6 354/3/6
f 353/3/6 352/3/6 354/3/6
