# MagicaVoxel @ Ephtracy

# group
o 

# material
mtllib Leg-6.mtl
usemtl palette

# normals
vn -1 0 0
vn 1 0 0
vn 0 0 1
vn 0 0 -1
vn 0 -1 0
vn 0 1 0

# texcoords
vt 0.693359 0.5
vt 0.705078 0.5
vt 0.712891 0.5

# verts
v -0.25 -0.2 0.55
v -0.25 -0.2 0.45
v -0.25 0 0.55
v -0.25 0 0.45
v -0.25 0 0.25
v -0.25 0.1 0.55
v -0.25 0.1 0.45
v -0.25 0.1 0.25
v -0.05 -0.1 0.55
v -0.05 -0.1 0.45
v -0.05 -0.1 -0.05
v -0.05 0 0.55
v -0.05 0 0.45
v -0.05 0 0.35
v -0.05 0 0.25
v -0.05 0.1 0.45
v -0.05 0.1 0.35
v -0.05 0.1 0.25
v -0.05 0.1 -0.05
v 0.05 0 -0.05
v 0.05 0 -0.45
v 0.05 0.1 -0.05
v 0.05 0.2 -0.05
v 0.05 0.2 -0.45
v 0.15 0 -0.45
v 0.15 0 -0.55
v 0.15 0.2 -0.45
v 0.15 0.2 -0.55
v -0.15 -0.1 0.55
v -0.15 -0.1 0.45
v -0.15 0 0.55
v -0.15 0 0.45
v -0.15 0 0.35
v -0.15 0.1 0.45
v -0.15 0.1 0.35
v -0.05 -0.2 0.55
v -0.05 -0.2 0.45
v -0.05 -0.1 0.55
v -0.05 -0.1 0.45
v 0.15 -0.1 0.55
v 0.15 -0.1 -0.05
v 0.15 0 -0.05
v 0.15 0.1 0.55
v 0.15 0.1 -0.05
v 0.25 0 -0.05
v 0.25 0 -0.45
v 0.25 0 -0.55
v 0.25 0.2 -0.05
v 0.25 0.2 -0.45
v 0.25 0.2 -0.55
v -0.25 -0.2 0.55
v -0.25 0 0.55
v -0.25 0.1 0.55
v -0.15 -0.1 0.55
v -0.15 0 0.55
v -0.15 0.1 0.55
v -0.05 -0.2 0.55
v -0.05 -0.1 0.55
v -0.05 0 0.55
v -0.05 0.1 0.55
v 0.15 -0.1 0.55
v 0.15 0.1 0.55
v -0.15 0 0.35
v -0.15 0.1 0.35
v -0.05 0 0.35
v -0.05 0.1 0.35
v 0.05 0.1 -0.05
v 0.05 0.2 -0.05
v 0.15 0 -0.05
v 0.15 0.1 -0.05
v 0.25 0 -0.05
v 0.25 0.2 -0.05
v -0.25 -0.2 0.45
v -0.25 0 0.45
v -0.15 -0.1 0.45
v -0.15 0 0.45
v -0.15 0.1 0.45
v -0.05 -0.2 0.45
v -0.05 -0.1 0.45
v -0.05 0 0.45
v -0.05 0.1 0.45
v -0.25 0 0.25
v -0.25 0.1 0.25
v -0.05 0 0.25
v -0.05 0.1 0.25
v -0.05 -0.1 -0.05
v -0.05 0.1 -0.05
v 0.05 0 -0.05
v 0.05 0.1 -0.05
v 0.15 -0.1 -0.05
v 0.15 0 -0.05
v 0.05 0 -0.45
v 0.05 0.2 -0.45
v 0.15 0 -0.45
v 0.15 0.2 -0.45
v 0.15 0 -0.55
v 0.15 0.2 -0.55
v 0.25 0 -0.55
v 0.25 0.2 -0.55
v -0.25 -0.2 0.55
v -0.05 -0.2 0.55
v -0.25 -0.2 0.45
v -0.05 -0.2 0.45
v -0.05 -0.1 0.55
v 0.15 -0.1 0.55
v -0.05 -0.1 0.45
v -0.05 -0.1 -0.05
v 0.15 -0.1 -0.05
v -0.15 0 0.55
v -0.05 0 0.55
v -0.25 0 0.45
v -0.15 0 0.45
v -0.05 0 0.45
v -0.15 0 0.35
v -0.05 0 0.35
v -0.25 0 0.25
v -0.05 0 0.25
v 0.05 0 -0.05
v 0.15 0 -0.05
v 0.25 0 -0.05
v 0.05 0 -0.45
v 0.15 0 -0.45
v 0.25 0 -0.45
v 0.15 0 -0.55
v 0.25 0 -0.55
v -0.15 -0.1 0.55
v -0.05 -0.1 0.55
v -0.15 -0.1 0.45
v -0.05 -0.1 0.45
v -0.25 0.1 0.55
v -0.15 0.1 0.55
v -0.05 0.1 0.55
v 0.15 0.1 0.55
v -0.25 0.1 0.45
v -0.15 0.1 0.45
v -0.05 0.1 0.45
v -0.15 0.1 0.35
v -0.05 0.1 0.35
v -0.25 0.1 0.25
v -0.05 0.1 0.25
v -0.05 0.1 -0.05
v 0.05 0.1 -0.05
v 0.15 0.1 -0.05
v 0.05 0.2 -0.05
v 0.25 0.2 -0.05
v 0.05 0.2 -0.45
v 0.15 0.2 -0.45
v 0.25 0.2 -0.45
v 0.15 0.2 -0.55
v 0.25 0.2 -0.55

# faces
f 3/3/1 2/3/1 1/3/1
f 4/3/1 2/3/1 3/3/1
f 6/2/1 4/2/1 3/2/1
f 7/3/1 5/3/1 4/3/1
f 7/2/1 4/2/1 6/2/1
f 8/3/1 5/3/1 7/3/1
f 12/1/1 10/1/1 9/1/1
f 12/1/1 11/1/1 10/1/1
f 13/1/1 11/1/1 12/1/1
f 14/1/1 11/1/1 13/1/1
f 15/1/1 11/1/1 14/1/1
f 16/1/1 14/1/1 13/1/1
f 17/1/1 14/1/1 16/1/1
f 18/1/1 11/1/1 15/1/1
f 19/1/1 11/1/1 18/1/1
f 22/1/1 21/1/1 20/1/1
f 23/1/1 21/1/1 22/1/1
f 24/1/1 21/1/1 23/1/1
f 27/2/1 26/2/1 25/2/1
f 28/2/1 26/2/1 27/2/1
f 29/3/2 30/3/2 31/3/2
f 31/3/2 30/3/2 32/3/2
f 32/3/2 33/3/2 34/3/2
f 34/3/2 33/3/2 35/3/2
f 36/3/2 37/3/2 38/3/2
f 38/3/2 37/3/2 39/3/2
f 40/1/2 41/1/2 42/1/2
f 40/1/2 42/1/2 43/1/2
f 43/1/2 42/1/2 44/1/2
f 45/1/2 46/1/2 48/1/2
f 46/2/2 47/2/2 49/2/2
f 48/1/2 46/1/2 49/1/2
f 49/2/2 47/2/2 50/2/2
f 54/3/3 52/3/3 51/3/3
f 55/2/3 53/2/3 52/2/3
f 55/3/3 52/3/3 54/3/3
f 56/2/3 53/2/3 55/2/3
f 57/3/3 54/3/3 51/3/3
f 58/3/3 54/3/3 57/3/3
f 59/3/3 56/3/3 55/3/3
f 60/3/3 56/3/3 59/3/3
f 61/1/3 59/1/3 58/1/3
f 61/1/3 60/1/3 59/1/3
f 62/1/3 60/1/3 61/1/3
f 65/3/3 64/3/3 63/3/3
f 66/3/3 64/3/3 65/3/3
f 70/1/3 68/1/3 67/1/3
f 71/1/3 70/1/3 69/1/3
f 72/1/3 68/1/3 70/1/3
f 72/1/3 70/1/3 71/1/3
f 73/3/4 74/3/4 75/3/4
f 75/3/4 74/3/4 76/3/4
f 73/3/4 75/3/4 78/3/4
f 78/3/4 75/3/4 79/3/4
f 76/3/4 77/3/4 80/3/4
f 80/3/4 77/3/4 81/3/4
f 82/3/4 83/3/4 84/3/4
f 84/3/4 83/3/4 85/3/4
f 86/1/4 87/1/4 88/1/4
f 88/1/4 87/1/4 89/1/4
f 86/1/4 88/1/4 90/1/4
f 90/1/4 88/1/4 91/1/4
f 92/1/4 93/1/4 94/1/4
f 94/1/4 93/1/4 95/1/4
f 96/2/4 97/2/4 98/2/4
f 98/2/4 97/2/4 99/2/4
f 102/3/5 101/3/5 100/3/5
f 103/3/5 101/3/5 102/3/5
f 106/1/5 105/1/5 104/1/5
f 107/1/5 105/1/5 106/1/5
f 108/1/5 105/1/5 107/1/5
f 112/3/5 110/3/5 109/3/5
f 113/3/5 110/3/5 112/3/5
f 114/3/5 112/3/5 111/3/5
f 116/3/5 114/3/5 111/3/5
f 116/3/5 115/3/5 114/3/5
f 117/3/5 115/3/5 116/3/5
f 121/1/5 119/1/5 118/1/5
f 121/1/5 120/1/5 119/1/5
f 122/1/5 120/1/5 121/1/5
f 123/1/5 120/1/5 122/1/5
f 124/2/5 123/2/5 122/2/5
f 125/2/5 123/2/5 124/2/5
f 126/3/6 127/3/6 128/3/6
f 128/3/6 127/3/6 129/3/6
f 130/2/6 131/2/6 134/2/6
f 131/3/6 132/3/6 135/3/6
f 134/2/6 131/2/6 135/2/6
f 132/1/6 133/1/6 136/1/6
f 135/3/6 132/3/6 136/3/6
f 134/3/6 135/3/6 137/3/6
f 136/1/6 133/1/6 138/1/6
f 134/3/6 137/3/6 139/3/6
f 137/3/6 138/3/6 139/3/6
f 138/1/6 133/1/6 140/1/6
f 139/3/6 138/3/6 140/3/6
f 140/1/6 133/1/6 141/1/6
f 141/1/6 133/1/6 142/1/6
f 142/1/6 133/1/6 143/1/6
f 144/1/6 145/1/6 146/1/6
f 146/1/6 145/1/6 147/1/6
f 147/1/6 145/1/6 148/1/6
f 147/2/6 148/2/6 149/2/6
f 149/2/6 148/2/6 150/2/6
