# MagicaVoxel @ Ephtracy

# group
o 

# material
mtllib Bag-5.mtl
usemtl palette

# normals
vn -1 0 0
vn 1 0 0
vn 0 0 1
vn 0 0 -1
vn 0 -1 0
vn 0 1 0

# texcoords
vt 0.705078 0.5
vt 0.708984 0.5
vt 0.712891 0.5
vt 0.814453 0.5
vt 0.818359 0.5
vt 0.966797 0.5

# verts
v -0.75 0.6 0.3
v -0.75 0.6 0.1
v -0.75 0.6 -0.1
v -0.75 0.6 -0.3
v -0.75 0.8 0.3
v -0.75 0.8 0.1
v -0.75 0.8 -0.1
v -0.75 0.8 -0.3
v -0.65 -0.9 0.1
v -0.65 -0.9 -0.1
v -0.65 -0.8 0.7
v -0.65 -0.8 0.1
v -0.65 -0.8 -0.1
v -0.65 -0.8 -0.7
v -0.65 0.6 0.3
v -0.65 0.6 0.1
v -0.65 0.6 -0.1
v -0.65 0.6 -0.3
v -0.65 0.8 0.7
v -0.65 0.8 0.3
v -0.65 0.8 0.1
v -0.65 0.8 -0.1
v -0.65 0.8 -0.3
v -0.65 0.8 -0.7
v -0.65 0.9 0.3
v -0.65 0.9 0.1
v -0.65 0.9 -0.1
v -0.65 0.9 -0.3
v -0.55 -1 0.1
v -0.55 -1 -0.1
v -0.55 -0.9 0.7
v -0.55 -0.9 0.1
v -0.55 -0.9 -0.1
v -0.55 -0.9 -0.7
v -0.55 -0.8 0.8
v -0.55 -0.8 0.7
v -0.55 -0.8 0.1
v -0.55 -0.8 -0.1
v -0.55 -0.8 -0.7
v -0.55 -0.8 -0.8
v -0.55 0.7 0.8
v -0.55 0.7 0.7
v -0.55 0.7 -0.7
v -0.55 0.7 -0.8
v -0.55 0.8 0.7
v -0.55 0.8 0.3
v -0.55 0.8 0.1
v -0.55 0.8 -0.1
v -0.55 0.8 -0.3
v -0.55 0.8 -0.7
v -0.55 0.9 0.7
v -0.55 0.9 0.3
v -0.55 0.9 0.1
v -0.55 0.9 -0.1
v -0.55 0.9 -0.3
v -0.55 0.9 -0.7
v -0.55 1 0.3
v -0.55 1 0.1
v -0.55 1 -0.1
v -0.55 1 -0.3
v -0.35 0.2 0.9
v -0.35 0.2 0.8
v -0.35 0.2 -0.8
v -0.35 0.2 -0.9
v -0.35 0.3 0.9
v -0.35 0.3 0.8
v -0.35 0.3 -0.8
v -0.35 0.3 -0.9
v -0.35 0.4 0.9
v -0.35 0.4 0.8
v -0.35 0.4 -0.8
v -0.35 0.4 -0.9
v -0.25 0.1 0.9
v -0.25 0.1 0.8
v -0.25 0.1 -0.8
v -0.25 0.1 -0.9
v -0.25 0.2 0.9
v -0.25 0.2 0.8
v -0.25 0.2 -0.8
v -0.25 0.2 -0.9
v -0.25 0.4 0.9
v -0.25 0.4 0.8
v -0.25 0.4 -0.8
v -0.25 0.4 -0.9
v -0.25 0.5 0.9
v -0.25 0.5 0.8
v -0.25 0.5 -0.8
v -0.25 0.5 -0.9
v 0.45 -0.1 0.7
v 0.45 -0.1 0.6
v 0.45 -0.1 -0.6
v 0.45 -0.1 -0.7
v 0.45 0.8 0.7
v 0.45 0.8 0.6
v 0.45 0.8 -0.6
v 0.45 0.8 -0.7
v 0.55 -0.3 0.2
v 0.55 -0.3 0.1
v 0.55 -0.3 -0.1
v 0.55 -0.3 -0.2
v 0.55 -0.2 0.2
v 0.55 -0.2 0.1
v 0.55 -0.2 -0.1
v 0.55 -0.2 -0.2
v -0.55 0.7 0.7
v -0.55 0.7 0.6
v -0.55 0.7 -0.6
v -0.55 0.7 -0.7
v -0.55 0.8 0.7
v -0.55 0.8 0.6
v -0.55 0.8 -0.6
v -0.55 0.8 -0.7
v -0.05 0.1 0.9
v -0.05 0.1 0.8
v -0.05 0.1 -0.8
v -0.05 0.1 -0.9
v -0.05 0.2 0.9
v -0.05 0.2 0.8
v -0.05 0.2 -0.8
v -0.05 0.2 -0.9
v -0.05 0.4 0.9
v -0.05 0.4 0.8
v -0.05 0.4 -0.8
v -0.05 0.4 -0.9
v -0.05 0.5 0.9
v -0.05 0.5 0.8
v -0.05 0.5 -0.8
v -0.05 0.5 -0.9
v 0.05 0.2 0.9
v 0.05 0.2 0.8
v 0.05 0.2 -0.8
v 0.05 0.2 -0.9
v 0.05 0.4 0.9
v 0.05 0.4 0.8
v 0.05 0.4 -0.8
v 0.05 0.4 -0.9
v 0.35 -1 0.1
v 0.35 -1 -0.1
v 0.35 -0.9 0.7
v 0.35 -0.9 0.1
v 0.35 -0.9 -0.1
v 0.35 -0.9 -0.7
v 0.35 -0.8 0.8
v 0.35 -0.8 0.7
v 0.35 -0.8 0.1
v 0.35 -0.8 -0.1
v 0.35 -0.8 -0.7
v 0.35 -0.8 -0.8
v 0.35 -0.1 0.7
v 0.35 -0.1 0.6
v 0.35 -0.1 -0.6
v 0.35 -0.1 -0.7
v 0.35 0.7 0.8
v 0.35 0.7 0.6
v 0.35 0.7 -0.6
v 0.35 0.7 -0.8
v 0.45 -0.9 0.1
v 0.45 -0.9 -0.1
v 0.45 -0.8 0.7
v 0.45 -0.8 0.1
v 0.45 -0.8 -0.1
v 0.45 -0.8 -0.7
v 0.45 -0.2 0.2
v 0.45 -0.2 0.1
v 0.45 -0.2 -0.1
v 0.45 -0.2 -0.2
v 0.45 -0.1 0.7
v 0.45 -0.1 0.2
v 0.45 -0.1 -0.2
v 0.45 -0.1 -0.7
v 0.45 0.8 0.7
v 0.45 0.8 0.3
v 0.45 0.8 0.1
v 0.45 0.8 -0.1
v 0.45 0.8 -0.3
v 0.45 0.8 -0.7
v 0.45 0.9 0.7
v 0.45 0.9 0.3
v 0.45 0.9 0.1
v 0.45 0.9 -0.1
v 0.45 0.9 -0.3
v 0.45 0.9 -0.7
v 0.45 1 0.3
v 0.45 1 0.1
v 0.45 1 -0.1
v 0.45 1 -0.3
v 0.55 -0.8 0.1
v 0.55 -0.8 -0.1
v 0.55 -0.3 0.1
v 0.55 -0.3 -0.1
v 0.55 -0.1 0.7
v 0.55 -0.1 0.2
v 0.55 -0.1 -0.2
v 0.55 -0.1 -0.7
v 0.55 0 0.3
v 0.55 0 0.2
v 0.55 0 0.1
v 0.55 0 -0.1
v 0.55 0 -0.2
v 0.55 0 -0.3
v 0.55 0.8 0.7
v 0.55 0.8 0.3
v 0.55 0.8 0.1
v 0.55 0.8 -0.1
v 0.55 0.8 -0.3
v 0.55 0.8 -0.7
v 0.55 0.9 0.3
v 0.55 0.9 0.1
v 0.55 0.9 -0.1
v 0.55 0.9 -0.3
v 0.65 -0.3 0.2
v 0.65 -0.3 0.1
v 0.65 -0.3 -0.1
v 0.65 -0.3 -0.2
v 0.65 -0.2 0.1
v 0.65 -0.2 -0.1
v 0.65 -0.1 0.2
v 0.65 -0.1 0.1
v 0.65 -0.1 -0.1
v 0.65 -0.1 -0.2
v 0.65 0 0.3
v 0.65 0 0.2
v 0.65 0 0.1
v 0.65 0 -0.1
v 0.65 0 -0.2
v 0.65 0 -0.3
v 0.65 0.8 0.3
v 0.65 0.8 0.1
v 0.65 0.8 -0.1
v 0.65 0.8 -0.3
v 0.75 -0.3 0.1
v 0.75 -0.3 -0.1
v 0.75 -0.2 0.1
v 0.75 -0.2 -0.1
v 0.75 -0.1 0.2
v 0.75 -0.1 0.1
v 0.75 -0.1 -0.1
v 0.75 -0.1 -0.2
v 0.75 0 0.2
v 0.75 0 0.1
v 0.75 0 -0.1
v 0.75 0 -0.2
v -0.35 0.2 0.9
v -0.35 0.3 0.9
v -0.35 0.4 0.9
v -0.25 0.1 0.9
v -0.25 0.2 0.9
v -0.25 0.4 0.9
v -0.25 0.5 0.9
v -0.15 0.2 0.9
v -0.15 0.3 0.9
v -0.15 0.4 0.9
v -0.05 0.1 0.9
v -0.05 0.2 0.9
v -0.05 0.3 0.9
v -0.05 0.4 0.9
v -0.05 0.5 0.9
v 0.05 0.2 0.9
v 0.05 0.4 0.9
v -0.55 -0.8 0.8
v -0.55 0.7 0.8
v -0.35 0.2 0.8
v -0.35 0.3 0.8
v -0.35 0.4 0.8
v -0.25 0.1 0.8
v -0.25 0.2 0.8
v -0.25 0.4 0.8
v -0.25 0.5 0.8
v -0.05 0.1 0.8
v -0.05 0.2 0.8
v -0.05 0.4 0.8
v -0.05 0.5 0.8
v 0.05 0.2 0.8
v 0.05 0.4 0.8
v 0.35 -0.8 0.8
v 0.35 0.7 0.8
v -0.65 -0.8 0.7
v -0.65 0.8 0.7
v -0.55 -0.9 0.7
v -0.55 -0.8 0.7
v -0.55 0.7 0.7
v -0.55 0.8 0.7
v -0.55 0.9 0.7
v 0.35 -0.9 0.7
v 0.35 -0.8 0.7
v 0.35 -0.1 0.7
v 0.45 -0.8 0.7
v 0.45 -0.1 0.7
v 0.45 0.8 0.7
v 0.45 0.9 0.7
v 0.55 -0.1 0.7
v 0.55 0.8 0.7
v -0.55 0.7 0.6
v -0.55 0.8 0.6
v 0.35 -0.1 0.6
v 0.35 0.7 0.6
v 0.45 -0.1 0.6
v 0.45 0.8 0.6
v -0.75 0.6 0.3
v -0.75 0.8 0.3
v -0.65 0.6 0.3
v -0.65 0.8 0.3
v -0.65 0.9 0.3
v -0.55 0.8 0.3
v -0.55 0.9 0.3
v -0.55 1 0.3
v 0.45 0.8 0.3
v 0.45 0.9 0.3
v 0.45 1 0.3
v 0.55 0 0.3
v 0.55 0.8 0.3
v 0.55 0.9 0.3
v 0.65 0 0.3
v 0.65 0.8 0.3
v 0.45 -0.2 0.2
v 0.45 -0.1 0.2
v 0.55 -0.3 0.2
v 0.55 -0.2 0.2
v 0.55 -0.1 0.2
v 0.55 0 0.2
v 0.65 -0.3 0.2
v 0.65 -0.1 0.2
v 0.65 0 0.2
v 0.75 -0.1 0.2
v 0.75 0 0.2
v -0.65 -0.9 0.1
v -0.65 -0.8 0.1
v -0.55 -1 0.1
v -0.55 -0.9 0.1
v -0.55 -0.8 0.1
v 0.35 -1 0.1
v 0.35 -0.9 0.1
v 0.35 -0.8 0.1
v 0.45 -0.9 0.1
v 0.45 -0.8 0.1
v 0.45 -0.2 0.1
v 0.55 -0.8 0.1
v 0.55 -0.3 0.1
v 0.55 -0.2 0.1
v 0.65 -0.3 0.1
v 0.65 -0.2 0.1
v 0.75 -0.3 0.1
v 0.75 -0.2 0.1
v -0.75 0.6 -0.1
v -0.75 0.8 -0.1
v -0.65 0.6 -0.1
v -0.65 0.8 -0.1
v -0.65 0.9 -0.1
v -0.55 0.8 -0.1
v -0.55 0.9 -0.1
v -0.55 1 -0.1
v 0.45 0.8 -0.1
v 0.45 0.9 -0.1
v 0.45 1 -0.1
v 0.55 0 -0.1
v 0.55 0.8 -0.1
v 0.55 0.9 -0.1
v 0.65 -0.1 -0.1
v 0.65 0 -0.1
v 0.65 0.8 -0.1
v 0.75 -0.1 -0.1
v 0.75 0 -0.1
v -0.75 0.6 0.1
v -0.75 0.8 0.1
v -0.65 0.6 0.1
v -0.65 0.8 0.1
v -0.65 0.9 0.1
v -0.55 0.8 0.1
v -0.55 0.9 0.1
v -0.55 1 0.1
v 0.45 0.8 0.1
v 0.45 0.9 0.1
v 0.45 1 0.1
v 0.55 0 0.1
v 0.55 0.8 0.1
v 0.55 0.9 0.1
v 0.65 -0.1 0.1
v 0.65 0 0.1
v 0.65 0.8 0.1
v 0.75 -0.1 0.1
v 0.75 0 0.1
v -0.65 -0.9 -0.1
v -0.65 -0.8 -0.1
v -0.55 -1 -0.1
v -0.55 -0.9 -0.1
v -0.55 -0.8 -0.1
v 0.35 -1 -0.1
v 0.35 -0.9 -0.1
v 0.35 -0.8 -0.1
v 0.45 -0.9 -0.1
v 0.45 -0.8 -0.1
v 0.45 -0.2 -0.1
v 0.55 -0.8 -0.1
v 0.55 -0.3 -0.1
v 0.55 -0.2 -0.1
v 0.65 -0.3 -0.1
v 0.65 -0.2 -0.1
v 0.75 -0.3 -0.1
v 0.75 -0.2 -0.1
v 0.45 -0.2 -0.2
v 0.45 -0.1 -0.2
v 0.55 -0.3 -0.2
v 0.55 -0.2 -0.2
v 0.55 -0.1 -0.2
v 0.55 0 -0.2
v 0.65 -0.3 -0.2
v 0.65 -0.1 -0.2
v 0.65 0 -0.2
v 0.75 -0.1 -0.2
v 0.75 0 -0.2
v -0.75 0.6 -0.3
v -0.75 0.8 -0.3
v -0.65 0.6 -0.3
v -0.65 0.8 -0.3
v -0.65 0.9 -0.3
v -0.55 0.8 -0.3
v -0.55 0.9 -0.3
v -0.55 1 -0.3
v 0.45 0.8 -0.3
v 0.45 0.9 -0.3
v 0.45 1 -0.3
v 0.55 0 -0.3
v 0.55 0.8 -0.3
v 0.55 0.9 -0.3
v 0.65 0 -0.3
v 0.65 0.8 -0.3
v -0.55 0.7 -0.6
v -0.55 0.8 -0.6
v 0.35 -0.1 -0.6
v 0.35 0.7 -0.6
v 0.45 -0.1 -0.6
v 0.45 0.8 -0.6
v -0.65 -0.8 -0.7
v -0.65 0.8 -0.7
v -0.55 -0.9 -0.7
v -0.55 -0.8 -0.7
v -0.55 0.7 -0.7
v -0.55 0.8 -0.7
v -0.55 0.9 -0.7
v 0.35 -0.9 -0.7
v 0.35 -0.8 -0.7
v 0.35 -0.1 -0.7
v 0.45 -0.8 -0.7
v 0.45 -0.1 -0.7
v 0.45 0.8 -0.7
v 0.45 0.9 -0.7
v 0.55 -0.1 -0.7
v 0.55 0.8 -0.7
v -0.55 -0.8 -0.8
v -0.55 0.7 -0.8
v -0.35 0.2 -0.8
v -0.35 0.3 -0.8
v -0.35 0.4 -0.8
v -0.25 0.1 -0.8
v -0.25 0.2 -0.8
v -0.25 0.4 -0.8
v -0.25 0.5 -0.8
v -0.05 0.1 -0.8
v -0.05 0.2 -0.8
v -0.05 0.4 -0.8
v -0.05 0.5 -0.8
v 0.05 0.2 -0.8
v 0.05 0.4 -0.8
v 0.35 -0.8 -0.8
v 0.35 0.7 -0.8
v -0.35 0.2 -0.9
v -0.35 0.3 -0.9
v -0.35 0.4 -0.9
v -0.25 0.1 -0.9
v -0.25 0.2 -0.9
v -0.25 0.4 -0.9
v -0.25 0.5 -0.9
v -0.15 0.2 -0.9
v -0.15 0.3 -0.9
v -0.15 0.4 -0.9
v -0.05 0.1 -0.9
v -0.05 0.2 -0.9
v -0.05 0.3 -0.9
v -0.05 0.4 -0.9
v -0.05 0.5 -0.9
v 0.05 0.2 -0.9
v 0.05 0.4 -0.9
v -0.55 -1 0.1
v 0.35 -1 0.1
v -0.55 -1 -0.1
v 0.35 -1 -0.1
v -0.55 -0.9 0.7
v 0.35 -0.9 0.7
v -0.65 -0.9 0.1
v -0.55 -0.9 0.1
v 0.35 -0.9 0.1
v 0.45 -0.9 0.1
v -0.65 -0.9 -0.1
v -0.55 -0.9 -0.1
v 0.35 -0.9 -0.1
v 0.45 -0.9 -0.1
v -0.55 -0.9 -0.7
v 0.35 -0.9 -0.7
v -0.55 -0.8 0.8
v 0.35 -0.8 0.8
v -0.65 -0.8 0.7
v -0.55 -0.8 0.7
v 0.35 -0.8 0.7
v 0.45 -0.8 0.7
v -0.65 -0.8 0.1
v -0.55 -0.8 0.1
v 0.35 -0.8 0.1
v 0.45 -0.8 0.1
v 0.55 -0.8 0.1
v -0.65 -0.8 -0.1
v -0.55 -0.8 -0.1
v 0.35 -0.8 -0.1
v 0.45 -0.8 -0.1
v 0.55 -0.8 -0.1
v -0.65 -0.8 -0.7
v -0.55 -0.8 -0.7
v 0.35 -0.8 -0.7
v 0.45 -0.8 -0.7
v -0.55 -0.8 -0.8
v 0.35 -0.8 -0.8
v 0.55 -0.3 0.2
v 0.65 -0.3 0.2
v 0.55 -0.3 0.1
v 0.65 -0.3 0.1
v 0.75 -0.3 0.1
v 0.55 -0.3 -0.1
v 0.65 -0.3 -0.1
v 0.75 -0.3 -0.1
v 0.55 -0.3 -0.2
v 0.65 -0.3 -0.2
v 0.45 -0.2 0.2
v 0.55 -0.2 0.2
v 0.45 -0.2 0.1
v 0.55 -0.2 0.1
v 0.45 -0.2 -0.1
v 0.55 -0.2 -0.1
v 0.45 -0.2 -0.2
v 0.55 -0.2 -0.2
v 0.45 -0.1 0.7
v 0.55 -0.1 0.7
v 0.45 -0.1 0.2
v 0.55 -0.1 0.2
v 0.65 -0.1 0.2
v 0.75 -0.1 0.2
v 0.65 -0.1 0.1
v 0.75 -0.1 0.1
v 0.65 -0.1 -0.1
v 0.75 -0.1 -0.1
v 0.45 -0.1 -0.2
v 0.55 -0.1 -0.2
v 0.65 -0.1 -0.2
v 0.75 -0.1 -0.2
v 0.45 -0.1 -0.7
v 0.55 -0.1 -0.7
v 0.55 0 0.3
v 0.65 0 0.3
v 0.55 0 0.2
v 0.65 0 0.2
v 0.55 0 -0.2
v 0.65 0 -0.2
v 0.55 0 -0.3
v 0.65 0 -0.3
v -0.25 0.1 0.9
v -0.05 0.1 0.9
v -0.25 0.1 0.8
v -0.05 0.1 0.8
v -0.25 0.1 -0.8
v -0.05 0.1 -0.8
v -0.25 0.1 -0.9
v -0.05 0.1 -0.9
v -0.35 0.2 0.9
v -0.25 0.2 0.9
v -0.05 0.2 0.9
v 0.05 0.2 0.9
v -0.35 0.2 0.8
v -0.25 0.2 0.8
v -0.05 0.2 0.8
v 0.05 0.2 0.8
v -0.35 0.2 -0.8
v -0.25 0.2 -0.8
v -0.05 0.2 -0.8
v 0.05 0.2 -0.8
v -0.35 0.2 -0.9
v -0.25 0.2 -0.9
v -0.05 0.2 -0.9
v 0.05 0.2 -0.9
v -0.75 0.6 0.3
v -0.65 0.6 0.3
v -0.75 0.6 0.1
v -0.65 0.6 0.1
v -0.75 0.6 -0.1
v -0.65 0.6 -0.1
v -0.75 0.6 -0.3
v -0.65 0.6 -0.3
v -0.55 0.8 0.7
v 0.45 0.8 0.7
v -0.55 0.8 0.6
v 0.45 0.8 0.6
v -0.55 0.8 -0.6
v 0.45 0.8 -0.6
v -0.55 0.8 -0.7
v 0.45 0.8 -0.7
v 0.65 -0.2 0.1
v 0.75 -0.2 0.1
v 0.65 -0.2 -0.1
v 0.75 -0.2 -0.1
v 0.35 -0.1 0.7
v 0.45 -0.1 0.7
v 0.35 -0.1 0.6
v 0.45 -0.1 0.6
v 0.35 -0.1 -0.6
v 0.45 -0.1 -0.6
v 0.35 -0.1 -0.7
v 0.45 -0.1 -0.7
v 0.65 0 0.2
v 0.75 0 0.2
v 0.55 0 0.1
v 0.65 0 0.1
v 0.75 0 0.1
v 0.55 0 -0.1
v 0.65 0 -0.1
v 0.75 0 -0.1
v 0.65 0 -0.2
v 0.75 0 -0.2
v -0.35 0.4 0.9
v -0.25 0.4 0.9
v -0.05 0.4 0.9
v 0.05 0.4 0.9
v -0.35 0.4 0.8
v -0.25 0.4 0.8
v -0.05 0.4 0.8
v 0.05 0.4 0.8
v -0.35 0.4 -0.8
v -0.25 0.4 -0.8
v -0.05 0.4 -0.8
v 0.05 0.4 -0.8
v -0.35 0.4 -0.9
v -0.25 0.4 -0.9
v -0.05 0.4 -0.9
v 0.05 0.4 -0.9
v -0.25 0.5 0.9
v -0.05 0.5 0.9
v -0.25 0.5 0.8
v -0.05 0.5 0.8
v -0.25 0.5 -0.8
v -0.05 0.5 -0.8
v -0.25 0.5 -0.9
v -0.05 0.5 -0.9
v -0.55 0.7 0.8
v 0.35 0.7 0.8
v -0.55 0.7 0.7
v -0.55 0.7 0.6
v 0.35 0.7 0.6
v -0.55 0.7 -0.6
v 0.35 0.7 -0.6
v -0.55 0.7 -0.7
v -0.55 0.7 -0.8
v 0.35 0.7 -0.8
v -0.65 0.8 0.7
v -0.55 0.8 0.7
v 0.45 0.8 0.7
v 0.55 0.8 0.7
v -0.75 0.8 0.3
v -0.65 0.8 0.3
v -0.55 0.8 0.3
v 0.45 0.8 0.3
v 0.55 0.8 0.3
v 0.65 0.8 0.3
v -0.75 0.8 0.1
v -0.65 0.8 0.1
v -0.55 0.8 0.1
v 0.45 0.8 0.1
v 0.55 0.8 0.1
v 0.65 0.8 0.1
v -0.75 0.8 -0.1
v -0.65 0.8 -0.1
v -0.55 0.8 -0.1
v 0.45 0.8 -0.1
v 0.55 0.8 -0.1
v 0.65 0.8 -0.1
v -0.75 0.8 -0.3
v -0.65 0.8 -0.3
v -0.55 0.8 -0.3
v 0.45 0.8 -0.3
v 0.55 0.8 -0.3
v 0.65 0.8 -0.3
v -0.65 0.8 -0.7
v -0.55 0.8 -0.7
v 0.45 0.8 -0.7
v 0.55 0.8 -0.7
v -0.55 0.9 0.7
v 0.45 0.9 0.7
v -0.65 0.9 0.3
v -0.55 0.9 0.3
v 0.45 0.9 0.3
v 0.55 0.9 0.3
v -0.65 0.9 0.1
v -0.55 0.9 0.1
v 0.45 0.9 0.1
v 0.55 0.9 0.1
v -0.65 0.9 -0.1
v -0.55 0.9 -0.1
v 0.45 0.9 -0.1
v 0.55 0.9 -0.1
v -0.65 0.9 -0.3
v -0.55 0.9 -0.3
v 0.45 0.9 -0.3
v 0.55 0.9 -0.3
v -0.55 0.9 -0.7
v 0.45 0.9 -0.7
v -0.55 1 0.3
v 0.45 1 0.3
v -0.55 1 0.1
v 0.45 1 0.1
v -0.55 1 -0.1
v 0.45 1 -0.1
v -0.55 1 -0.3
v 0.45 1 -0.3

# faces
f 5/4/1 2/4/1 1/4/1
f 6/4/1 2/4/1 5/4/1
f 7/4/1 4/4/1 3/4/1
f 8/4/1 4/4/1 7/4/1
f 12/4/1 10/4/1 9/4/1
f 13/4/1 10/4/1 12/4/1
f 15/5/1 12/5/1 11/5/1
f 15/5/1 14/5/1 13/5/1
f 15/5/1 13/5/1 12/5/1
f 16/5/1 14/5/1 15/5/1
f 17/5/1 14/5/1 16/5/1
f 18/5/1 14/5/1 17/5/1
f 19/5/1 15/5/1 11/5/1
f 20/5/1 15/5/1 19/5/1
f 21/5/1 17/5/1 16/5/1
f 22/5/1 17/5/1 21/5/1
f 23/5/1 14/5/1 18/5/1
f 24/5/1 14/5/1 23/5/1
f 25/4/1 21/4/1 20/4/1
f 26/4/1 21/4/1 25/4/1
f 27/4/1 23/4/1 22/4/1
f 28/4/1 23/4/1 27/4/1
f 32/4/1 30/4/1 29/4/1
f 33/4/1 30/4/1 32/4/1
f 36/5/1 32/5/1 31/5/1
f 37/5/1 32/5/1 36/5/1
f 38/5/1 34/5/1 33/5/1
f 39/5/1 34/5/1 38/5/1
f 41/5/1 36/5/1 35/5/1
f 42/5/1 36/5/1 41/5/1
f 43/5/1 40/5/1 39/5/1
f 44/5/1 40/5/1 43/5/1
f 51/5/1 46/5/1 45/5/1
f 52/5/1 46/5/1 51/5/1
f 53/5/1 48/5/1 47/5/1
f 54/5/1 48/5/1 53/5/1
f 55/5/1 50/5/1 49/5/1
f 56/5/1 50/5/1 55/5/1
f 57/4/1 53/4/1 52/4/1
f 58/4/1 53/4/1 57/4/1
f 59/4/1 55/4/1 54/4/1
f 60/4/1 55/4/1 59/4/1
f 65/3/1 62/3/1 61/3/1
f 66/3/1 62/3/1 65/3/1
f 67/3/1 64/3/1 63/3/1
f 68/3/1 64/3/1 67/3/1
f 69/2/1 66/2/1 65/2/1
f 70/2/1 66/2/1 69/2/1
f 71/2/1 68/2/1 67/2/1
f 72/2/1 68/2/1 71/2/1
f 77/2/1 74/2/1 73/2/1
f 78/2/1 74/2/1 77/2/1
f 79/2/1 76/2/1 75/2/1
f 80/2/1 76/2/1 79/2/1
f 85/2/1 82/2/1 81/2/1
f 86/2/1 82/2/1 85/2/1
f 87/2/1 84/2/1 83/2/1
f 88/2/1 84/2/1 87/2/1
f 93/5/1 90/5/1 89/5/1
f 94/5/1 90/5/1 93/5/1
f 95/5/1 92/5/1 91/5/1
f 96/5/1 92/5/1 95/5/1
f 101/3/1 98/3/1 97/3/1
f 102/3/1 98/3/1 101/3/1
f 103/3/1 100/3/1 99/3/1
f 104/3/1 100/3/1 103/3/1
f 105/5/2 106/5/2 109/5/2
f 109/5/2 106/5/2 110/5/2
f 107/5/2 108/5/2 111/5/2
f 111/5/2 108/5/2 112/5/2
f 113/2/2 114/2/2 117/2/2
f 117/2/2 114/2/2 118/2/2
f 115/2/2 116/2/2 119/2/2
f 119/2/2 116/2/2 120/2/2
f 121/2/2 122/2/2 125/2/2
f 125/2/2 122/2/2 126/2/2
f 123/2/2 124/2/2 127/2/2
f 127/2/2 124/2/2 128/2/2
f 129/2/2 130/2/2 133/2/2
f 133/2/2 130/2/2 134/2/2
f 131/2/2 132/2/2 135/2/2
f 135/2/2 132/2/2 136/2/2
f 137/4/2 138/4/2 140/4/2
f 140/4/2 138/4/2 141/4/2
f 139/5/2 140/5/2 144/5/2
f 144/5/2 140/5/2 145/5/2
f 141/5/2 142/5/2 146/5/2
f 146/5/2 142/5/2 147/5/2
f 143/5/2 144/5/2 149/5/2
f 147/5/2 148/5/2 152/5/2
f 149/5/2 150/5/2 153/5/2
f 143/5/2 149/5/2 153/5/2
f 153/5/2 150/5/2 154/5/2
f 151/5/2 152/5/2 155/5/2
f 152/5/2 148/5/2 156/5/2
f 155/5/2 152/5/2 156/5/2
f 157/4/2 158/4/2 160/4/2
f 160/4/2 158/4/2 161/4/2
f 159/5/2 160/5/2 163/5/2
f 163/5/2 160/5/2 164/5/2
f 161/5/2 162/5/2 165/5/2
f 165/5/2 162/5/2 166/5/2
f 159/5/2 163/5/2 167/5/2
f 167/5/2 163/5/2 168/5/2
f 166/5/2 162/5/2 169/5/2
f 169/5/2 162/5/2 170/5/2
f 171/5/2 172/5/2 177/5/2
f 177/5/2 172/5/2 178/5/2
f 173/5/2 174/5/2 179/5/2
f 179/5/2 174/5/2 180/5/2
f 175/5/2 176/5/2 181/5/2
f 181/5/2 176/5/2 182/5/2
f 178/4/2 179/4/2 183/4/2
f 183/4/2 179/4/2 184/4/2
f 180/4/2 181/4/2 185/4/2
f 185/4/2 181/4/2 186/4/2
f 187/4/2 188/4/2 189/4/2
f 189/4/2 188/4/2 190/4/2
f 191/5/2 192/5/2 195/5/2
f 195/5/2 192/5/2 196/5/2
f 193/5/2 194/5/2 199/5/2
f 199/5/2 194/5/2 200/5/2
f 191/5/2 195/5/2 201/5/2
f 201/5/2 195/5/2 202/5/2
f 197/5/2 198/5/2 203/5/2
f 203/5/2 198/5/2 204/5/2
f 200/5/2 194/5/2 205/5/2
f 205/5/2 194/5/2 206/5/2
f 202/4/2 203/4/2 207/4/2
f 207/4/2 203/4/2 208/4/2
f 204/4/2 205/4/2 209/4/2
f 209/4/2 205/4/2 210/4/2
f 211/3/2 212/3/2 215/3/2
f 213/3/2 214/3/2 216/3/2
f 211/3/2 215/3/2 217/3/2
f 215/3/2 216/3/2 217/3/2
f 217/3/2 216/3/2 218/3/2
f 216/3/2 214/3/2 219/3/2
f 218/3/2 216/3/2 219/3/2
f 219/3/2 214/3/2 220/3/2
f 218/3/2 219/3/2 223/3/2
f 223/3/2 219/3/2 224/3/2
f 221/4/2 222/4/2 227/4/2
f 222/4/2 223/4/2 227/4/2
f 227/4/2 223/4/2 228/4/2
f 224/4/2 225/4/2 229/4/2
f 225/4/2 226/4/2 229/4/2
f 229/4/2 226/4/2 230/4/2
f 231/1/2 232/1/2 233/1/2
f 233/1/2 232/1/2 234/1/2
f 235/1/2 236/1/2 239/1/2
f 239/1/2 236/1/2 240/1/2
f 237/1/2 238/1/2 241/1/2
f 241/1/2 238/1/2 242/1/2
f 247/3/3 244/3/3 243/3/3
f 248/2/3 245/2/3 244/2/3
f 250/2/3 247/2/3 246/2/3
f 250/3/3 244/3/3 247/3/3
f 251/2/3 249/2/3 248/2/3
f 251/3/3 244/3/3 250/3/3
f 251/2/3 248/2/3 244/2/3
f 252/2/3 249/2/3 251/2/3
f 253/2/3 250/2/3 246/2/3
f 253/2/3 251/2/3 250/2/3
f 254/2/3 251/2/3 253/2/3
f 255/3/3 252/3/3 251/3/3
f 255/2/3 251/2/3 254/2/3
f 256/2/3 249/2/3 252/2/3
f 256/3/3 252/3/3 255/3/3
f 257/2/3 249/2/3 256/2/3
f 258/2/3 255/2/3 254/2/3
f 258/2/3 256/2/3 255/2/3
f 259/2/3 256/2/3 258/2/3
f 262/5/3 261/5/3 260/5/3
f 263/5/3 261/5/3 262/5/3
f 264/5/3 261/5/3 263/5/3
f 265/5/3 262/5/3 260/5/3
f 266/5/3 262/5/3 265/5/3
f 267/5/3 261/5/3 264/5/3
f 268/5/3 261/5/3 267/5/3
f 269/5/3 265/5/3 260/5/3
f 272/5/3 261/5/3 268/5/3
f 273/5/3 270/5/3 269/5/3
f 274/5/3 272/5/3 271/5/3
f 275/5/3 273/5/3 269/5/3
f 275/5/3 274/5/3 273/5/3
f 275/5/3 269/5/3 260/5/3
f 276/5/3 272/5/3 274/5/3
f 276/5/3 274/5/3 275/5/3
f 276/5/3 261/5/3 272/5/3
f 280/5/3 278/5/3 277/5/3
f 281/5/3 278/5/3 280/5/3
f 282/5/3 278/5/3 281/5/3
f 284/5/3 280/5/3 279/5/3
f 285/5/3 280/5/3 284/5/3
f 287/5/3 286/5/3 285/5/3
f 288/5/3 286/5/3 287/5/3
f 289/5/3 283/5/3 282/5/3
f 290/5/3 283/5/3 289/5/3
f 291/5/3 289/5/3 288/5/3
f 292/5/3 289/5/3 291/5/3
f 296/6/3 294/6/3 293/6/3
f 297/6/3 296/6/3 295/6/3
f 298/6/3 294/6/3 296/6/3
f 298/6/3 296/6/3 297/6/3
f 301/4/3 300/4/3 299/4/3
f 302/4/3 300/4/3 301/4/3
f 304/4/3 303/4/3 302/4/3
f 305/4/3 303/4/3 304/4/3
f 308/4/3 306/4/3 305/4/3
f 309/4/3 306/4/3 308/4/3
f 311/4/3 308/4/3 307/4/3
f 312/4/3 308/4/3 311/4/3
f 313/4/3 311/4/3 310/4/3
f 314/4/3 311/4/3 313/4/3
f 318/3/3 316/3/3 315/3/3
f 319/3/3 316/3/3 318/3/3
f 321/3/3 318/3/3 317/3/3
f 321/3/3 320/3/3 319/3/3
f 321/3/3 319/3/3 318/3/3
f 322/3/3 320/3/3 321/3/3
f 323/3/3 320/3/3 322/3/3
f 324/1/3 323/1/3 322/1/3
f 325/1/3 323/1/3 324/1/3
f 329/4/3 327/4/3 326/4/3
f 330/4/3 327/4/3 329/4/3
f 331/4/3 329/4/3 328/4/3
f 332/4/3 329/4/3 331/4/3
f 334/4/3 333/4/3 332/4/3
f 335/4/3 333/4/3 334/4/3
f 337/4/3 336/4/3 335/4/3
f 338/4/3 336/4/3 337/4/3
f 339/4/3 336/4/3 338/4/3
f 342/1/3 341/1/3 340/1/3
f 343/1/3 341/1/3 342/1/3
f 346/4/3 345/4/3 344/4/3
f 347/4/3 345/4/3 346/4/3
f 349/4/3 348/4/3 347/4/3
f 350/4/3 348/4/3 349/4/3
f 353/4/3 351/4/3 350/4/3
f 354/4/3 351/4/3 353/4/3
f 356/4/3 353/4/3 352/4/3
f 357/4/3 353/4/3 356/4/3
f 359/4/3 356/4/3 355/4/3
f 360/4/3 356/4/3 359/4/3
f 361/1/3 359/1/3 358/1/3
f 362/1/3 359/1/3 361/1/3
f 363/4/4 364/4/4 365/4/4
f 365/4/4 364/4/4 366/4/4
f 366/4/4 367/4/4 368/4/4
f 368/4/4 367/4/4 369/4/4
f 369/4/4 370/4/4 372/4/4
f 372/4/4 370/4/4 373/4/4
f 371/4/4 372/4/4 375/4/4
f 375/4/4 372/4/4 376/4/4
f 374/4/4 375/4/4 378/4/4
f 378/4/4 375/4/4 379/4/4
f 377/1/4 378/1/4 380/1/4
f 380/1/4 378/1/4 381/1/4
f 382/4/4 383/4/4 385/4/4
f 385/4/4 383/4/4 386/4/4
f 384/4/4 385/4/4 387/4/4
f 387/4/4 385/4/4 388/4/4
f 388/4/4 389/4/4 390/4/4
f 390/4/4 389/4/4 391/4/4
f 391/4/4 392/4/4 393/4/4
f 393/4/4 392/4/4 394/4/4
f 394/4/4 392/4/4 395/4/4
f 396/1/4 397/1/4 398/1/4
f 398/1/4 397/1/4 399/1/4
f 400/3/4 401/3/4 403/3/4
f 403/3/4 401/3/4 404/3/4
f 402/3/4 403/3/4 406/3/4
f 404/3/4 405/3/4 406/3/4
f 403/3/4 404/3/4 406/3/4
f 406/3/4 405/3/4 407/3/4
f 407/3/4 405/3/4 408/3/4
f 407/1/4 408/1/4 409/1/4
f 409/1/4 408/1/4 410/1/4
f 411/4/4 412/4/4 413/4/4
f 413/4/4 412/4/4 414/4/4
f 414/4/4 415/4/4 416/4/4
f 416/4/4 415/4/4 417/4/4
f 417/4/4 418/4/4 420/4/4
f 420/4/4 418/4/4 421/4/4
f 419/4/4 420/4/4 423/4/4
f 423/4/4 420/4/4 424/4/4
f 422/4/4 423/4/4 425/4/4
f 425/4/4 423/4/4 426/4/4
f 427/6/4 428/6/4 430/6/4
f 429/6/4 430/6/4 431/6/4
f 430/6/4 428/6/4 432/6/4
f 431/6/4 430/6/4 432/6/4
f 433/5/4 434/5/4 436/5/4
f 436/5/4 434/5/4 437/5/4
f 437/5/4 434/5/4 438/5/4
f 435/5/4 436/5/4 440/5/4
f 440/5/4 436/5/4 441/5/4
f 441/5/4 442/5/4 443/5/4
f 443/5/4 442/5/4 444/5/4
f 438/5/4 439/5/4 445/5/4
f 445/5/4 439/5/4 446/5/4
f 444/5/4 445/5/4 447/5/4
f 447/5/4 445/5/4 448/5/4
f 449/5/4 450/5/4 451/5/4
f 451/5/4 450/5/4 452/5/4
f 452/5/4 450/5/4 453/5/4
f 449/5/4 451/5/4 454/5/4
f 454/5/4 451/5/4 455/5/4
f 453/5/4 450/5/4 456/5/4
f 456/5/4 450/5/4 457/5/4
f 449/5/4 454/5/4 458/5/4
f 457/5/4 450/5/4 461/5/4
f 458/5/4 459/5/4 462/5/4
f 460/5/4 461/5/4 463/5/4
f 458/5/4 462/5/4 464/5/4
f 462/5/4 463/5/4 464/5/4
f 449/5/4 458/5/4 464/5/4
f 463/5/4 461/5/4 465/5/4
f 464/5/4 463/5/4 465/5/4
f 461/5/4 450/5/4 465/5/4
f 466/3/4 467/3/4 470/3/4
f 467/2/4 468/2/4 471/2/4
f 469/2/4 470/2/4 473/2/4
f 470/3/4 467/3/4 473/3/4
f 471/2/4 472/2/4 474/2/4
f 473/3/4 467/3/4 474/3/4
f 467/2/4 471/2/4 474/2/4
f 474/2/4 472/2/4 475/2/4
f 469/2/4 473/2/4 476/2/4
f 473/2/4 474/2/4 476/2/4
f 476/2/4 474/2/4 477/2/4
f 474/3/4 475/3/4 478/3/4
f 477/2/4 474/2/4 478/2/4
f 475/2/4 472/2/4 479/2/4
f 478/3/4 475/3/4 479/3/4
f 479/2/4 472/2/4 480/2/4
f 477/2/4 478/2/4 481/2/4
f 478/2/4 479/2/4 481/2/4
f 481/2/4 479/2/4 482/2/4
f 485/4/5 484/4/5 483/4/5
f 486/4/5 484/4/5 485/4/5
f 490/5/5 488/5/5 487/5/5
f 491/5/5 488/5/5 490/5/5
f 493/4/5 490/4/5 489/4/5
f 494/4/5 490/4/5 493/4/5
f 495/4/5 492/4/5 491/4/5
f 496/4/5 492/4/5 495/4/5
f 497/5/5 495/5/5 494/5/5
f 498/5/5 495/5/5 497/5/5
f 502/5/5 500/5/5 499/5/5
f 503/5/5 500/5/5 502/5/5
f 505/5/5 502/5/5 501/5/5
f 506/5/5 502/5/5 505/5/5
f 507/5/5 504/5/5 503/5/5
f 508/5/5 504/5/5 507/5/5
f 513/4/5 509/4/5 508/4/5
f 514/4/5 509/4/5 513/4/5
f 515/5/5 511/5/5 510/5/5
f 516/5/5 511/5/5 515/5/5
f 517/5/5 513/5/5 512/5/5
f 518/5/5 513/5/5 517/5/5
f 519/5/5 517/5/5 516/5/5
f 520/5/5 517/5/5 519/5/5
f 523/3/5 522/3/5 521/3/5
f 524/3/5 522/3/5 523/3/5
f 526/3/5 524/3/5 523/3/5
f 527/1/5 525/1/5 524/1/5
f 527/3/5 524/3/5 526/3/5
f 528/1/5 525/1/5 527/1/5
f 529/3/5 527/3/5 526/3/5
f 530/3/5 527/3/5 529/3/5
f 533/3/5 532/3/5 531/3/5
f 534/3/5 532/3/5 533/3/5
f 537/3/5 536/3/5 535/3/5
f 538/3/5 536/3/5 537/3/5
f 541/5/5 540/5/5 539/5/5
f 542/5/5 540/5/5 541/5/5
f 545/1/5 544/1/5 543/1/5
f 546/1/5 544/1/5 545/1/5
f 551/1/5 548/1/5 547/1/5
f 552/1/5 548/1/5 551/1/5
f 553/5/5 550/5/5 549/5/5
f 554/5/5 550/5/5 553/5/5
f 557/4/5 556/4/5 555/4/5
f 558/4/5 556/4/5 557/4/5
f 561/4/5 560/4/5 559/4/5
f 562/4/5 560/4/5 561/4/5
f 565/2/5 564/2/5 563/2/5
f 566/2/5 564/2/5 565/2/5
f 569/2/5 568/2/5 567/2/5
f 570/2/5 568/2/5 569/2/5
f 575/3/5 572/3/5 571/3/5
f 576/3/5 572/3/5 575/3/5
f 577/2/5 574/2/5 573/2/5
f 578/2/5 574/2/5 577/2/5
f 583/3/5 580/3/5 579/3/5
f 584/3/5 580/3/5 583/3/5
f 585/2/5 582/2/5 581/2/5
f 586/2/5 582/2/5 585/2/5
f 589/4/5 588/4/5 587/4/5
f 590/4/5 588/4/5 589/4/5
f 593/4/5 592/4/5 591/4/5
f 594/4/5 592/4/5 593/4/5
f 597/5/5 596/5/5 595/5/5
f 598/5/5 596/5/5 597/5/5
f 601/5/5 600/5/5 599/5/5
f 602/5/5 600/5/5 601/5/5
f 603/1/6 604/1/6 605/1/6
f 605/1/6 604/1/6 606/1/6
f 607/5/6 608/5/6 609/5/6
f 609/5/6 608/5/6 610/5/6
f 611/5/6 612/5/6 613/5/6
f 613/5/6 612/5/6 614/5/6
f 615/1/6 616/1/6 618/1/6
f 618/1/6 616/1/6 619/1/6
f 617/3/6 618/3/6 620/3/6
f 620/3/6 618/3/6 621/3/6
f 621/1/6 622/1/6 623/1/6
f 623/1/6 622/1/6 624/1/6
f 625/2/6 626/2/6 629/2/6
f 629/2/6 626/2/6 630/2/6
f 627/2/6 628/2/6 631/2/6
f 631/2/6 628/2/6 632/2/6
f 633/2/6 634/2/6 637/2/6
f 637/2/6 634/2/6 638/2/6
f 635/2/6 636/2/6 639/2/6
f 639/2/6 636/2/6 640/2/6
f 641/2/6 642/2/6 643/2/6
f 643/2/6 642/2/6 644/2/6
f 645/2/6 646/2/6 647/2/6
f 647/2/6 646/2/6 648/2/6
f 649/5/6 650/5/6 651/5/6
f 651/5/6 650/5/6 652/5/6
f 652/5/6 650/5/6 653/5/6
f 654/5/6 655/5/6 656/5/6
f 656/5/6 655/5/6 657/5/6
f 657/5/6 655/5/6 658/5/6
f 659/5/6 660/5/6 664/5/6
f 664/5/6 660/5/6 665/5/6
f 661/5/6 662/5/6 666/5/6
f 666/5/6 662/5/6 667/5/6
f 663/4/6 664/4/6 669/4/6
f 669/4/6 664/4/6 670/4/6
f 667/4/6 668/4/6 673/4/6
f 673/4/6 668/4/6 674/4/6
f 670/5/6 671/5/6 676/5/6
f 676/5/6 671/5/6 677/5/6
f 672/5/6 673/5/6 678/5/6
f 678/5/6 673/5/6 679/5/6
f 675/4/6 676/4/6 681/4/6
f 681/4/6 676/4/6 682/4/6
f 679/4/6 680/4/6 685/4/6
f 685/4/6 680/4/6 686/4/6
f 682/5/6 683/5/6 687/5/6
f 687/5/6 683/5/6 688/5/6
f 684/5/6 685/5/6 689/5/6
f 689/5/6 685/5/6 690/5/6
f 691/5/6 692/5/6 694/5/6
f 694/5/6 692/5/6 695/5/6
f 693/4/6 694/4/6 697/4/6
f 697/4/6 694/4/6 698/4/6
f 695/4/6 696/4/6 699/4/6
f 699/4/6 696/4/6 700/4/6
f 698/5/6 699/5/6 702/5/6
f 702/5/6 699/5/6 703/5/6
f 701/4/6 702/4/6 705/4/6
f 705/4/6 702/4/6 706/4/6
f 703/4/6 704/4/6 707/4/6
f 707/4/6 704/4/6 708/4/6
f 706/5/6 707/5/6 709/5/6
f 709/5/6 707/5/6 710/5/6
f 711/4/6 712/4/6 713/4/6
f 713/4/6 712/4/6 714/4/6
f 715/4/6 716/4/6 717/4/6
f 717/4/6 716/4/6 718/4/6
