# MagicaVoxel @ Ephtracy

# group
o 

# material
mtllib Blonde-7.mtl
usemtl palette

# normals
vn -1 0 0
vn 1 0 0
vn 0 0 1
vn 0 0 -1
vn 0 -1 0
vn 0 1 0

# texcoords
vt 0.880859 0.5
vt 0.884766 0.5
vt 0.888672 0.5

# verts
v 0.7 3.6 0.1
v 0.7 3.6 -0.2
v 0.7 3.8 0.1
v 0.7 3.8 0
v 0.7 3.8 -0.1
v 0.7 3.8 -0.2
v 0.7 3.9 0.1
v 0.7 3.9 0
v 0.7 3.9 -0.1
v 0.7 3.9 -0.3
v 0.7 4 0
v 0.7 4 -0.3
v 0.8 3.3 0
v 0.8 3.3 -0.2
v 0.8 3.4 -0.2
v 0.8 3.4 -0.3
v 0.8 3.5 0
v 0.8 3.5 -0.3
v 0.8 3.6 0
v 0.8 3.6 -0.2
v 0.8 3.6 -0.3
v 0.8 3.6 -0.4
v 0.8 3.8 -0.1
v 0.8 3.8 -0.2
v 0.8 3.9 -0.1
v 0.8 3.9 -0.3
v 0.8 3.9 -0.4
v 0.8 3.6 0.1
v 0.8 3.6 0
v 0.8 3.8 0.1
v 0.8 3.8 0
v 0.9 3.3 0
v 0.9 3.3 -0.2
v 0.9 3.4 -0.2
v 0.9 3.4 -0.3
v 0.9 3.5 0
v 0.9 3.5 -0.3
v 0.9 3.6 0
v 0.9 3.6 -0.3
v 0.9 3.6 -0.4
v 0.9 3.8 0.1
v 0.9 3.8 0
v 0.9 3.9 0.1
v 0.9 3.9 0
v 0.9 3.9 -0.3
v 0.9 3.9 -0.4
v 0.9 4 0
v 0.9 4 -0.3
v 0.7 3.6 0.1
v 0.7 3.8 0.1
v 0.7 3.9 0.1
v 0.8 3.6 0.1
v 0.8 3.8 0.1
v 0.9 3.8 0.1
v 0.9 3.9 0.1
v 0.7 3.9 0
v 0.7 4 0
v 0.8 3.3 0
v 0.8 3.5 0
v 0.8 3.6 0
v 0.8 3.8 0
v 0.9 3.3 0
v 0.9 3.5 0
v 0.9 3.6 0
v 0.9 3.8 0
v 0.9 3.9 0
v 0.9 4 0
v 0.7 3.8 -0.1
v 0.7 3.9 -0.1
v 0.8 3.8 -0.1
v 0.8 3.9 -0.1
v 0.7 3.6 -0.2
v 0.7 3.8 -0.2
v 0.8 3.3 -0.2
v 0.8 3.4 -0.2
v 0.8 3.6 -0.2
v 0.8 3.8 -0.2
v 0.9 3.3 -0.2
v 0.9 3.4 -0.2
v 0.7 3.9 -0.3
v 0.7 4 -0.3
v 0.8 3.4 -0.3
v 0.8 3.5 -0.3
v 0.8 3.6 -0.3
v 0.8 3.9 -0.3
v 0.9 3.4 -0.3
v 0.9 3.5 -0.3
v 0.9 3.6 -0.3
v 0.9 3.9 -0.3
v 0.9 4 -0.3
v 0.8 3.6 -0.4
v 0.8 3.9 -0.4
v 0.9 3.6 -0.4
v 0.9 3.9 -0.4
v 0.8 3.3 0
v 0.9 3.3 0
v 0.8 3.3 -0.2
v 0.9 3.3 -0.2
v 0.8 3.4 -0.2
v 0.9 3.4 -0.2
v 0.8 3.4 -0.3
v 0.9 3.4 -0.3
v 0.7 3.6 0.1
v 0.8 3.6 0.1
v 0.8 3.6 0
v 0.7 3.6 -0.2
v 0.8 3.6 -0.2
v 0.8 3.6 -0.3
v 0.9 3.6 -0.3
v 0.8 3.6 -0.4
v 0.9 3.6 -0.4
v 0.8 3.8 0.1
v 0.9 3.8 0.1
v 0.8 3.8 0
v 0.9 3.8 0
v 0.7 3.9 -0.1
v 0.8 3.9 -0.1
v 0.7 3.9 -0.3
v 0.8 3.9 -0.3
v 0.7 3.8 -0.1
v 0.8 3.8 -0.1
v 0.7 3.8 -0.2
v 0.8 3.8 -0.2
v 0.7 3.9 0.1
v 0.9 3.9 0.1
v 0.7 3.9 0
v 0.9 3.9 0
v 0.8 3.9 -0.3
v 0.9 3.9 -0.3
v 0.8 3.9 -0.4
v 0.9 3.9 -0.4
v 0.7 4 0
v 0.9 4 0
v 0.7 4 -0.3
v 0.9 4 -0.3

# faces
f 3/3/1 2/3/1 1/3/1
f 4/3/1 2/3/1 3/3/1
f 5/3/1 2/3/1 4/3/1
f 6/3/1 2/3/1 5/3/1
f 7/2/1 4/2/1 3/2/1
f 8/3/1 5/3/1 4/3/1
f 8/2/1 4/2/1 7/2/1
f 9/3/1 5/3/1 8/3/1
f 11/1/1 9/1/1 8/1/1
f 11/1/1 10/1/1 9/1/1
f 12/1/1 10/1/1 11/1/1
f 15/3/1 14/3/1 13/3/1
f 17/3/1 15/3/1 13/3/1
f 17/3/1 16/3/1 15/3/1
f 18/3/1 16/3/1 17/3/1
f 19/2/1 18/2/1 17/2/1
f 20/2/1 18/2/1 19/2/1
f 21/2/1 18/2/1 20/2/1
f 24/3/1 21/3/1 20/3/1
f 24/3/1 22/3/1 21/3/1
f 25/3/1 24/3/1 23/3/1
f 26/3/1 22/3/1 24/3/1
f 26/3/1 24/3/1 25/3/1
f 27/3/1 22/3/1 26/3/1
f 28/3/2 29/3/2 30/3/2
f 30/3/2 29/3/2 31/3/2
f 32/3/2 33/3/2 34/3/2
f 32/3/2 34/3/2 36/3/2
f 34/3/2 35/3/2 36/3/2
f 36/3/2 35/3/2 37/3/2
f 36/2/2 37/2/2 38/2/2
f 38/2/2 37/2/2 39/2/2
f 38/3/2 39/3/2 42/3/2
f 39/3/2 40/3/2 42/3/2
f 41/2/2 42/2/2 43/2/2
f 42/3/2 40/3/2 44/3/2
f 43/2/2 42/2/2 44/2/2
f 44/3/2 40/3/2 45/3/2
f 45/3/2 40/3/2 46/3/2
f 44/1/2 45/1/2 47/1/2
f 47/1/2 45/1/2 48/1/2
f 52/3/3 50/3/3 49/3/3
f 53/2/3 51/2/3 50/2/3
f 53/3/3 50/3/3 52/3/3
f 54/2/3 51/2/3 53/2/3
f 55/2/3 51/2/3 54/2/3
f 62/3/3 59/3/3 58/3/3
f 63/2/3 60/2/3 59/2/3
f 63/3/3 59/3/3 62/3/3
f 64/3/3 61/3/3 60/3/3
f 64/2/3 60/2/3 63/2/3
f 65/3/3 61/3/3 64/3/3
f 66/1/3 57/1/3 56/1/3
f 67/1/3 57/1/3 66/1/3
f 68/3/4 69/3/4 70/3/4
f 70/3/4 69/3/4 71/3/4
f 72/3/4 73/3/4 76/3/4
f 76/3/4 73/3/4 77/3/4
f 74/3/4 75/3/4 78/3/4
f 78/3/4 75/3/4 79/3/4
f 80/1/4 81/1/4 85/1/4
f 82/3/4 83/3/4 86/3/4
f 83/2/4 84/2/4 87/2/4
f 86/3/4 83/3/4 87/3/4
f 87/2/4 84/2/4 88/2/4
f 85/1/4 81/1/4 89/1/4
f 89/1/4 81/1/4 90/1/4
f 91/3/4 92/3/4 93/3/4
f 93/3/4 92/3/4 94/3/4
f 97/3/5 96/3/5 95/3/5
f 98/3/5 96/3/5 97/3/5
f 101/3/5 100/3/5 99/3/5
f 102/3/5 100/3/5 101/3/5
f 105/3/5 104/3/5 103/3/5
f 106/3/5 105/3/5 103/3/5
f 107/3/5 105/3/5 106/3/5
f 110/3/5 109/3/5 108/3/5
f 111/3/5 109/3/5 110/3/5
f 114/2/5 113/2/5 112/2/5
f 115/2/5 113/2/5 114/2/5
f 118/1/5 117/1/5 116/1/5
f 119/1/5 117/1/5 118/1/5
f 120/3/6 121/3/6 122/3/6
f 122/3/6 121/3/6 123/3/6
f 124/2/6 125/2/6 126/2/6
f 126/2/6 125/2/6 127/2/6
f 128/3/6 129/3/6 130/3/6
f 130/3/6 129/3/6 131/3/6
f 132/1/6 133/1/6 134/1/6
f 134/1/6 133/1/6 135/1/6
