# MagicaVoxel @ Ephtracy

# group
o 

# material
mtllib Leg-59.mtl
usemtl palette

# normals
vn -1 0 0
vn 1 0 0
vn 0 0 1
vn 0 0 -1
vn 0 -1 0
vn 0 1 0

# texcoords
vt 0.708984 0.5
vt 0.712891 0.5

# verts
v -0.2 -0.1 0.15
v -0.2 -0.1 0.05
v -0.2 -0.1 -0.05
v -0.2 -0.1 -0.15
v -0.2 0 0.05
v -0.2 0 -0.05
v -0.2 0.1 0.15
v -0.2 0.1 -0.15
v 0 0 0.15
v 0 0 0.05
v 0 0 -0.05
v 0 0 -0.15
v 0 0.1 0.15
v 0 0.1 -0.15
v -0.1 0 0.15
v -0.1 0 0.05
v -0.1 0 -0.05
v -0.1 0 -0.15
v -0.1 0.1 0.15
v -0.1 0.1 -0.15
v 0 -0.1 0.15
v 0 -0.1 0.05
v 0 -0.1 -0.05
v 0 -0.1 -0.15
v 0 0 0.15
v 0 0 0.05
v 0 0 -0.05
v 0 0 -0.15
v 0.1 0 0.15
v 0.1 0 0.05
v 0.1 0 -0.05
v 0.1 0 -0.15
v 0.1 0.1 0.15
v 0.1 0.1 0.05
v 0.1 0.1 -0.05
v 0.1 0.1 -0.15
v 0.2 0 0.05
v 0.2 0 -0.05
v 0.2 0.1 0.05
v 0.2 0.1 -0.05
v -0.2 -0.1 0.15
v -0.2 0.1 0.15
v -0.1 0 0.15
v -0.1 0.1 0.15
v 0 -0.1 0.15
v 0 0 0.15
v 0 0.1 0.15
v 0.1 0 0.15
v 0.1 0.1 0.15
v 0.1 0 0.05
v 0.1 0.1 0.05
v 0.2 0 0.05
v 0.2 0.1 0.05
v -0.2 -0.1 -0.05
v -0.2 0 -0.05
v -0.1 0 -0.05
v 0 -0.1 -0.05
v 0 0 -0.05
v -0.2 -0.1 0.05
v -0.2 0 0.05
v -0.1 0 0.05
v 0 -0.1 0.05
v 0 0 0.05
v 0.1 0 -0.05
v 0.1 0.1 -0.05
v 0.2 0 -0.05
v 0.2 0.1 -0.05
v -0.2 -0.1 -0.15
v -0.2 0.1 -0.15
v -0.1 0 -0.15
v -0.1 0.1 -0.15
v 0 -0.1 -0.15
v 0 0 -0.15
v 0 0.1 -0.15
v 0.1 0 -0.15
v 0.1 0.1 -0.15
v -0.2 -0.1 0.15
v 0 -0.1 0.15
v -0.2 -0.1 0.05
v 0 -0.1 0.05
v -0.2 -0.1 -0.05
v 0 -0.1 -0.05
v -0.2 -0.1 -0.15
v 0 -0.1 -0.15
v 0 0 0.15
v 0.1 0 0.15
v -0.2 0 0.05
v -0.1 0 0.05
v 0 0 0.05
v 0.1 0 0.05
v 0.2 0 0.05
v -0.2 0 -0.05
v -0.1 0 -0.05
v 0 0 -0.05
v 0.1 0 -0.05
v 0.2 0 -0.05
v 0 0 -0.15
v 0.1 0 -0.15
v -0.1 0 0.15
v 0 0 0.15
v -0.1 0 0.05
v 0 0 0.05
v -0.1 0 -0.05
v 0 0 -0.05
v -0.1 0 -0.15
v 0 0 -0.15
v -0.2 0.1 0.15
v -0.1 0.1 0.15
v 0 0.1 0.15
v 0.1 0.1 0.15
v 0.1 0.1 0.05
v 0.2 0.1 0.05
v 0.1 0.1 -0.05
v 0.2 0.1 -0.05
v -0.2 0.1 -0.15
v -0.1 0.1 -0.15
v 0 0.1 -0.15
v 0.1 0.1 -0.15

# faces
f 5/1/1 2/1/1 1/1/1
f 6/1/1 4/1/1 3/1/1
f 7/1/1 5/1/1 1/1/1
f 7/1/1 6/1/1 5/1/1
f 8/1/1 4/1/1 6/1/1
f 8/1/1 6/1/1 7/1/1
f 13/2/1 10/2/1 9/2/1
f 13/2/1 12/2/1 11/2/1
f 13/2/1 11/2/1 10/2/1
f 14/2/1 12/2/1 13/2/1
f 15/1/2 16/1/2 19/1/2
f 17/1/2 18/1/2 19/1/2
f 16/1/2 17/1/2 19/1/2
f 19/1/2 18/1/2 20/1/2
f 21/1/2 22/1/2 25/1/2
f 25/1/2 22/1/2 26/1/2
f 23/1/2 24/1/2 27/1/2
f 27/1/2 24/1/2 28/1/2
f 29/2/2 30/2/2 33/2/2
f 33/2/2 30/2/2 34/2/2
f 31/2/2 32/2/2 35/2/2
f 35/2/2 32/2/2 36/2/2
f 37/2/2 38/2/2 39/2/2
f 39/2/2 38/2/2 40/2/2
f 43/1/3 42/1/3 41/1/3
f 44/1/3 42/1/3 43/1/3
f 45/1/3 43/1/3 41/1/3
f 46/1/3 43/1/3 45/1/3
f 48/2/3 47/2/3 46/2/3
f 49/2/3 47/2/3 48/2/3
f 52/2/3 51/2/3 50/2/3
f 53/2/3 51/2/3 52/2/3
f 56/1/3 55/1/3 54/1/3
f 57/1/3 56/1/3 54/1/3
f 58/1/3 56/1/3 57/1/3
f 59/1/4 60/1/4 61/1/4
f 59/1/4 61/1/4 62/1/4
f 62/1/4 61/1/4 63/1/4
f 64/2/4 65/2/4 66/2/4
f 66/2/4 65/2/4 67/2/4
f 68/1/4 69/1/4 70/1/4
f 70/1/4 69/1/4 71/1/4
f 68/1/4 70/1/4 72/1/4
f 72/1/4 70/1/4 73/1/4
f 73/2/4 74/2/4 75/2/4
f 75/2/4 74/2/4 76/2/4
f 79/1/5 78/1/5 77/1/5
f 80/1/5 78/1/5 79/1/5
f 83/1/5 82/1/5 81/1/5
f 84/1/5 82/1/5 83/1/5
f 89/2/5 86/2/5 85/2/5
f 90/2/5 86/2/5 89/2/5
f 92/1/5 88/1/5 87/1/5
f 93/1/5 88/1/5 92/1/5
f 94/2/5 91/2/5 90/2/5
f 94/2/5 90/2/5 89/2/5
f 95/2/5 91/2/5 94/2/5
f 96/2/5 91/2/5 95/2/5
f 97/2/5 95/2/5 94/2/5
f 98/2/5 95/2/5 97/2/5
f 99/1/6 100/1/6 101/1/6
f 101/1/6 100/1/6 102/1/6
f 103/1/6 104/1/6 105/1/6
f 105/1/6 104/1/6 106/1/6
f 109/2/6 110/2/6 111/2/6
f 109/2/6 111/2/6 113/2/6
f 111/2/6 112/2/6 113/2/6
f 113/2/6 112/2/6 114/2/6
f 107/1/6 108/1/6 115/1/6
f 115/1/6 108/1/6 116/1/6
f 109/2/6 113/2/6 117/2/6
f 117/2/6 113/2/6 118/2/6
