# MagicaVoxel @ Ephtracy

# group
o 

# material
mtllib Leg-18.mtl
usemtl palette

# normals
vn -1 0 0
vn 1 0 0
vn 0 0 1
vn 0 0 -1
vn 0 -1 0
vn 0 1 0

# texcoords
vt 0.705078 0.5
vt 0.712891 0.5
vt 0.935547 0.5
vt 0.978516 0.5

# verts
v -0.3 -0.35 0.1
v -0.3 -0.35 -0.1
v -0.3 -0.25 0.1
v -0.3 -0.25 -0.1
v -0.3 -0.05 0.1
v -0.3 -0.05 -0.1
v -0.3 0.05 0.1
v -0.3 0.05 -0.1
v -0.3 0.15 0.1
v -0.3 0.15 -0.1
v -0.2 -0.05 0.1
v -0.2 -0.05 -0.1
v -0.2 0.05 0.1
v -0.2 0.05 -0.1
v -0.1 -0.25 0.3
v -0.1 -0.25 0.1
v -0.1 -0.25 -0.1
v -0.1 -0.25 -0.3
v -0.1 -0.15 -0.1
v -0.1 -0.15 -0.2
v -0.1 -0.15 -0.3
v -0.1 -0.05 0.1
v -0.1 -0.05 -0.1
v -0.1 -0.05 -0.2
v -0.1 -0.05 -0.3
v -0.1 0.05 -0.1
v -0.1 0.15 0.3
v -0.1 0.15 0.1
v -0.1 0.15 0
v -0.1 0.15 -0.1
v -0.1 0.15 -0.3
v -0.1 0.35 0.1
v -0.1 0.35 -0.1
v 0.2 0.05 0.1
v 0.2 0.05 0
v 0.2 0.15 0.1
v 0.2 0.15 0
v -0.1 -0.35 0.1
v -0.1 -0.35 -0.1
v -0.1 -0.25 0.1
v -0.1 -0.25 -0.1
v 0 -0.15 -0.1
v 0 -0.15 -0.2
v 0 -0.05 -0.1
v 0 -0.05 -0.2
v 0 0.05 0.2
v 0 0.05 0.1
v 0 0.15 0.2
v 0 0.15 0.1
v 0.1 -0.25 -0.1
v 0.1 -0.25 -0.3
v 0.1 -0.15 -0.1
v 0.1 -0.15 -0.3
v 0.1 -0.05 -0.1
v 0.1 -0.05 -0.3
v 0.1 0.05 0.1
v 0.1 0.05 0
v 0.1 0.15 0
v 0.1 0.15 -0.1
v 0.1 0.15 -0.3
v 0.1 0.35 0.1
v 0.1 0.35 -0.1
v 0.2 -0.15 0.1
v 0.2 -0.15 -0.1
v 0.2 -0.05 0.2
v 0.2 -0.05 0.1
v 0.2 -0.05 -0.1
v 0.2 0.05 0.2
v 0.2 0.05 0.1
v 0.3 -0.25 0.3
v 0.3 -0.25 -0.1
v 0.3 -0.15 0.1
v 0.3 -0.15 -0.1
v 0.3 -0.05 0.2
v 0.3 -0.05 0.1
v 0.3 -0.05 -0.1
v 0.3 0.15 0.3
v 0.3 0.15 0.2
v 0.3 0.15 0.1
v 0.3 0.15 -0.1
v -0.1 -0.25 0.3
v -0.1 0.15 0.3
v 0.3 -0.25 0.3
v 0.3 0.15 0.3
v -0.3 -0.35 0.1
v -0.3 -0.25 0.1
v -0.3 -0.05 0.1
v -0.3 0.05 0.1
v -0.3 0.15 0.1
v -0.2 -0.05 0.1
v -0.2 0.05 0.1
v -0.2 0.15 0.1
v -0.1 -0.35 0.1
v -0.1 -0.25 0.1
v -0.1 -0.05 0.1
v -0.1 0.15 0.1
v -0.1 0.35 0.1
v 0 0.05 0.1
v 0 0.15 0.1
v 0.1 0.05 0.1
v 0.1 0.35 0.1
v 0.2 -0.05 0.1
v 0.2 0.05 0.1
v 0.2 0.15 0.1
v 0.3 -0.05 0.1
v 0.3 0.15 0.1
v 0.1 0.05 0
v 0.1 0.15 0
v 0.2 0.05 0
v 0.2 0.15 0
v 0 0.05 0.2
v 0 0.15 0.2
v 0.2 -0.05 0.2
v 0.2 0.05 0.2
v 0.3 -0.05 0.2
v 0.3 0.15 0.2
v 0.2 -0.15 0.1
v 0.2 -0.05 0.1
v 0.3 -0.15 0.1
v 0.3 -0.05 0.1
v -0.3 -0.35 -0.1
v -0.3 -0.25 -0.1
v -0.3 -0.05 -0.1
v -0.3 0.05 -0.1
v -0.3 0.15 -0.1
v -0.2 -0.05 -0.1
v -0.2 0.05 -0.1
v -0.1 -0.35 -0.1
v -0.1 -0.25 -0.1
v -0.1 -0.15 -0.1
v -0.1 -0.05 -0.1
v -0.1 0.05 -0.1
v -0.1 0.15 -0.1
v -0.1 0.35 -0.1
v 0 -0.15 -0.1
v 0 -0.05 -0.1
v 0.1 -0.25 -0.1
v 0.1 -0.15 -0.1
v 0.1 -0.05 -0.1
v 0.1 0.15 -0.1
v 0.1 0.35 -0.1
v 0.2 -0.15 -0.1
v 0.2 -0.05 -0.1
v 0.3 -0.25 -0.1
v 0.3 -0.15 -0.1
v 0.3 -0.05 -0.1
v 0.3 0.15 -0.1
v -0.1 -0.15 -0.2
v -0.1 -0.05 -0.2
v 0 -0.15 -0.2
v 0 -0.05 -0.2
v -0.1 -0.25 -0.3
v -0.1 -0.15 -0.3
v -0.1 -0.05 -0.3
v -0.1 0.15 -0.3
v 0.1 -0.25 -0.3
v 0.1 -0.15 -0.3
v 0.1 -0.05 -0.3
v 0.1 0.15 -0.3
v -0.3 -0.35 0.1
v -0.1 -0.35 0.1
v -0.3 -0.35 -0.1
v -0.1 -0.35 -0.1
v -0.1 -0.25 0.3
v 0.3 -0.25 0.3
v -0.1 -0.25 0.1
v -0.1 -0.25 -0.1
v 0.1 -0.25 -0.1
v 0.3 -0.25 -0.1
v -0.1 -0.25 -0.3
v 0.1 -0.25 -0.3
v 0.2 -0.05 0.1
v 0.3 -0.05 0.1
v 0 -0.05 -0.1
v 0.1 -0.05 -0.1
v 0.2 -0.05 -0.1
v 0.3 -0.05 -0.1
v -0.1 -0.05 -0.2
v 0 -0.05 -0.2
v -0.1 -0.05 -0.3
v 0.1 -0.05 -0.3
v -0.3 0.05 0.1
v -0.2 0.05 0.1
v -0.3 0.05 -0.1
v -0.2 0.05 -0.1
v 0.2 -0.15 0.1
v 0.3 -0.15 0.1
v 0 -0.15 -0.1
v 0.1 -0.15 -0.1
v 0.2 -0.15 -0.1
v 0.3 -0.15 -0.1
v -0.1 -0.15 -0.2
v 0 -0.15 -0.2
v -0.1 -0.15 -0.3
v 0.1 -0.15 -0.3
v 0.2 -0.05 0.2
v 0.3 -0.05 0.2
v -0.3 -0.05 0.1
v -0.2 -0.05 0.1
v 0.2 -0.05 0.1
v 0.3 -0.05 0.1
v -0.3 -0.05 -0.1
v -0.2 -0.05 -0.1
v 0 0.05 0.2
v 0.2 0.05 0.2
v 0 0.05 0.1
v 0.1 0.05 0.1
v 0.2 0.05 0.1
v 0.1 0.05 0
v 0.2 0.05 0
v -0.1 0.15 0.3
v 0.3 0.15 0.3
v 0 0.15 0.2
v 0.3 0.15 0.2
v -0.3 0.15 0.1
v -0.2 0.15 0.1
v -0.1 0.15 0.1
v 0 0.15 0.1
v 0.2 0.15 0.1
v 0.3 0.15 0.1
v -0.2 0.15 0
v -0.1 0.15 0
v 0.1 0.15 0
v 0.2 0.15 0
v -0.3 0.15 -0.1
v -0.1 0.15 -0.1
v 0.1 0.15 -0.1
v 0.3 0.15 -0.1
v -0.1 0.15 -0.3
v 0.1 0.15 -0.3
v -0.1 0.35 0.1
v 0.1 0.35 0.1
v -0.1 0.35 -0.1
v 0.1 0.35 -0.1

# faces
f 3/4/1 2/4/1 1/4/1
f 4/4/1 2/4/1 3/4/1
f 5/2/1 4/2/1 3/2/1
f 6/2/1 4/2/1 5/2/1
f 9/2/1 8/2/1 7/2/1
f 10/2/1 8/2/1 9/2/1
f 13/1/1 12/1/1 11/1/1
f 14/1/1 12/1/1 13/1/1
f 19/3/1 18/3/1 17/3/1
f 20/3/1 18/3/1 19/3/1
f 21/3/1 18/3/1 20/3/1
f 22/3/1 16/3/1 15/3/1
f 23/1/1 20/1/1 19/1/1
f 24/1/1 20/1/1 23/1/1
f 26/2/1 24/2/1 23/2/1
f 26/2/1 25/2/1 24/2/1
f 27/3/1 22/3/1 15/3/1
f 28/3/1 22/3/1 27/3/1
f 30/2/1 25/2/1 26/2/1
f 31/2/1 25/2/1 30/2/1
f 32/4/1 29/4/1 28/4/1
f 32/4/1 30/4/1 29/4/1
f 33/4/1 30/4/1 32/4/1
f 36/2/1 35/2/1 34/2/1
f 37/2/1 35/2/1 36/2/1
f 38/4/2 39/4/2 40/4/2
f 40/4/2 39/4/2 41/4/2
f 42/1/2 43/1/2 44/1/2
f 44/1/2 43/1/2 45/1/2
f 46/3/2 47/3/2 48/3/2
f 48/3/2 47/3/2 49/3/2
f 50/3/2 51/3/2 52/3/2
f 52/3/2 51/3/2 53/3/2
f 56/4/2 57/4/2 58/4/2
f 54/2/2 55/2/2 59/2/2
f 59/2/2 55/2/2 60/2/2
f 56/4/2 58/4/2 61/4/2
f 58/4/2 59/4/2 61/4/2
f 61/4/2 59/4/2 62/4/2
f 63/1/2 64/1/2 66/1/2
f 66/1/2 64/1/2 67/1/2
f 65/4/2 66/4/2 68/4/2
f 68/4/2 66/4/2 69/4/2
f 70/3/2 71/3/2 72/3/2
f 72/3/2 71/3/2 73/3/2
f 70/3/2 72/3/2 74/3/2
f 74/3/2 72/3/2 75/3/2
f 70/3/2 74/3/2 77/3/2
f 77/3/2 74/3/2 78/3/2
f 75/2/2 76/2/2 79/2/2
f 79/2/2 76/2/2 80/2/2
f 83/3/3 82/3/3 81/3/3
f 84/3/3 82/3/3 83/3/3
f 90/2/3 87/2/3 86/2/3
f 91/2/3 89/2/3 88/2/3
f 92/2/3 89/2/3 91/2/3
f 93/4/3 86/4/3 85/4/3
f 94/2/3 90/2/3 86/2/3
f 94/4/3 86/4/3 93/4/3
f 95/1/3 91/1/3 90/1/3
f 95/2/3 90/2/3 94/2/3
f 95/1/3 92/1/3 91/1/3
f 96/1/3 92/1/3 95/1/3
f 99/4/3 97/4/3 96/4/3
f 100/4/3 99/4/3 98/4/3
f 101/4/3 97/4/3 99/4/3
f 101/4/3 99/4/3 100/4/3
f 105/2/3 103/2/3 102/2/3
f 105/2/3 104/2/3 103/2/3
f 106/2/3 104/2/3 105/2/3
f 109/2/3 108/2/3 107/2/3
f 110/2/3 108/2/3 109/2/3
f 111/3/4 112/3/4 114/3/4
f 113/3/4 114/3/4 115/3/4
f 114/3/4 112/3/4 116/3/4
f 115/3/4 114/3/4 116/3/4
f 117/3/4 118/3/4 119/3/4
f 119/3/4 118/3/4 120/3/4
f 122/2/4 123/2/4 126/2/4
f 124/2/4 125/2/4 127/2/4
f 121/4/4 122/4/4 128/4/4
f 122/2/4 126/2/4 129/2/4
f 128/4/4 122/4/4 129/4/4
f 129/2/4 126/2/4 130/2/4
f 126/1/4 127/1/4 131/1/4
f 130/2/4 126/2/4 131/2/4
f 127/2/4 125/2/4 132/2/4
f 131/1/4 127/1/4 132/1/4
f 132/2/4 125/2/4 133/2/4
f 135/1/4 136/1/4 138/1/4
f 138/1/4 136/1/4 139/1/4
f 133/4/4 134/4/4 140/4/4
f 140/4/4 134/4/4 141/4/4
f 138/1/4 139/1/4 142/1/4
f 137/3/4 138/3/4 142/3/4
f 139/2/4 140/2/4 143/2/4
f 142/1/4 139/1/4 143/1/4
f 137/3/4 142/3/4 144/3/4
f 144/3/4 142/3/4 145/3/4
f 143/2/4 140/2/4 146/2/4
f 146/2/4 140/2/4 147/2/4
f 148/1/4 149/1/4 150/1/4
f 150/1/4 149/1/4 151/1/4
f 152/3/4 153/3/4 156/3/4
f 156/3/4 153/3/4 157/3/4
f 154/2/4 155/2/4 158/2/4
f 158/2/4 155/2/4 159/2/4
f 162/4/5 161/4/5 160/4/5
f 163/4/5 161/4/5 162/4/5
f 166/3/5 165/3/5 164/3/5
f 167/3/5 165/3/5 166/3/5
f 168/3/5 165/3/5 167/3/5
f 169/3/5 165/3/5 168/3/5
f 170/3/5 168/3/5 167/3/5
f 171/3/5 168/3/5 170/3/5
f 176/2/5 173/2/5 172/2/5
f 177/2/5 173/2/5 176/2/5
f 179/2/5 175/2/5 174/2/5
f 180/2/5 179/2/5 178/2/5
f 181/2/5 175/2/5 179/2/5
f 181/2/5 179/2/5 180/2/5
f 184/2/5 183/2/5 182/2/5
f 185/2/5 183/2/5 184/2/5
f 186/3/6 187/3/6 190/3/6
f 190/3/6 187/3/6 191/3/6
f 188/3/6 189/3/6 193/3/6
f 192/3/6 193/3/6 194/3/6
f 193/3/6 189/3/6 195/3/6
f 194/3/6 193/3/6 195/3/6
f 196/3/6 197/3/6 200/3/6
f 200/3/6 197/3/6 201/3/6
f 198/2/6 199/2/6 202/2/6
f 202/2/6 199/2/6 203/2/6
f 204/4/6 205/4/6 206/4/6
f 206/4/6 205/4/6 207/4/6
f 207/4/6 205/4/6 208/4/6
f 207/4/6 208/4/6 209/4/6
f 209/4/6 208/4/6 210/4/6
f 211/3/6 212/3/6 213/3/6
f 213/3/6 212/3/6 214/3/6
f 211/3/6 213/3/6 217/3/6
f 217/3/6 213/3/6 218/3/6
f 215/2/6 216/2/6 221/2/6
f 216/1/6 217/1/6 221/1/6
f 221/1/6 217/1/6 222/1/6
f 219/2/6 220/2/6 224/2/6
f 221/2/6 222/2/6 225/2/6
f 215/2/6 221/2/6 225/2/6
f 225/2/6 222/2/6 226/2/6
f 223/2/6 224/2/6 227/2/6
f 224/2/6 220/2/6 228/2/6
f 227/2/6 224/2/6 228/2/6
f 226/2/6 227/2/6 229/2/6
f 229/2/6 227/2/6 230/2/6
f 231/4/6 232/4/6 233/4/6
f 233/4/6 232/4/6 234/4/6
