# MagicaVoxel @ Ephtracy

# group
o 

# material
mtllib Leg-29.mtl
usemtl palette

# normals
vn -1 0 0
vn 1 0 0
vn 0 0 1
vn 0 0 -1
vn 0 -1 0
vn 0 1 0

# texcoords
vt 0.705078 0.5
vt 0.857422 0.5
vt 0.908203 0.5
vt 0.912109 0.5
vt 0.982422 0.5

# verts
v -0.25 -0.7 0.1
v -0.25 -0.7 -0.1
v -0.25 -0.1 0.1
v -0.25 -0.1 -0.1
v -0.05 -0.1 0.3
v -0.05 -0.1 0.2
v -0.05 -0.1 -0.2
v -0.05 -0.1 -0.3
v -0.05 0 0.3
v -0.05 0 0.2
v -0.05 0.3 0.3
v -0.05 0.3 0.2
v -0.05 0.4 -0.2
v -0.05 0.4 -0.3
v -0.05 0.6 0.3
v -0.05 0.6 0.2
v -0.05 0.6 -0.3
v -0.05 0.7 0.3
v -0.05 0.7 0.2
v -0.05 0.7 -0.3
v 0.05 -0.1 0.2
v 0.05 -0.1 0.1
v 0.05 -0.1 -0.1
v 0.05 -0.1 -0.2
v 0.05 0 0.2
v 0.05 0 0.1
v 0.05 0 -0.1
v 0.05 0.1 0.1
v 0.05 0.1 -0.1
v 0.05 0.2 0.1
v 0.05 0.2 -0.1
v 0.05 0.3 0.3
v 0.05 0.3 0.2
v 0.05 0.4 -0.2
v 0.05 0.4 -0.3
v 0.05 0.5 0.3
v 0.05 0.5 0.2
v 0.05 0.5 0.1
v 0.05 0.5 -0.2
v 0.05 0.6 0.3
v 0.05 0.6 0.2
v 0.05 0.6 0.1
v 0.05 0.6 -0.3
v 0.15 -0.5 0.2
v 0.15 -0.5 0.1
v 0.15 -0.5 -0.2
v 0.15 -0.4 0.3
v 0.15 -0.4 0.2
v 0.15 -0.4 0.1
v 0.15 -0.4 -0.1
v 0.15 -0.4 -0.2
v 0.15 -0.4 -0.3
v 0.15 -0.3 0.3
v 0.15 -0.3 0.2
v 0.15 -0.3 0.1
v 0.15 -0.3 -0.1
v 0.15 -0.3 -0.2
v 0.15 -0.2 0.3
v 0.15 -0.2 0.2
v 0.15 -0.2 -0.2
v 0.15 -0.2 -0.3
v 0.15 -0.1 0.3
v 0.15 -0.1 0.2
v 0.15 -0.1 0.1
v 0.15 -0.1 -0.1
v 0.15 -0.1 -0.2
v 0.15 -0.1 -0.3
v 0.15 0 0.1
v 0.15 0 0
v 0.15 0 -0.1
v 0.15 0.1 0.1
v 0.15 0.1 0
v 0.15 0.1 -0.1
v -0.05 -0.7 0.1
v -0.05 -0.7 -0.1
v -0.05 -0.3 0.1
v -0.05 -0.3 -0.1
v 0.15 0.5 0.3
v 0.15 0.5 0.1
v 0.15 0.5 -0.1
v 0.15 0.5 -0.2
v 0.15 0.5 -0.3
v 0.15 0.6 0.3
v 0.15 0.6 0.2
v 0.15 0.6 -0.1
v 0.15 0.6 -0.3
v 0.15 0.7 0.3
v 0.15 0.7 0.2
v 0.15 0.7 0.1
v 0.15 0.7 -0.1
v 0.15 0.7 -0.3
v 0.25 -0.5 0.2
v 0.25 -0.5 0.1
v 0.25 -0.5 -0.2
v 0.25 -0.4 0.3
v 0.25 -0.4 0.2
v 0.25 -0.4 0.1
v 0.25 -0.4 -0.1
v 0.25 -0.4 -0.2
v 0.25 -0.4 -0.3
v 0.25 -0.3 0.3
v 0.25 -0.3 0.2
v 0.25 -0.3 0.1
v 0.25 -0.3 0
v 0.25 -0.3 -0.1
v 0.25 -0.3 -0.2
v 0.25 -0.2 0.3
v 0.25 -0.2 0.2
v 0.25 -0.2 0
v 0.25 -0.2 -0.1
v 0.25 -0.2 -0.2
v 0.25 -0.2 -0.3
v 0.25 -0.1 0.3
v 0.25 -0.1 0.2
v 0.25 -0.1 0.1
v 0.25 -0.1 -0.1
v 0.25 -0.1 -0.2
v 0.25 0 0.2
v 0.25 0 0.1
v 0.25 0 0
v 0.25 0 -0.1
v 0.25 0 -0.2
v 0.25 0.1 0.2
v 0.25 0.1 0.1
v 0.25 0.1 0
v 0.25 0.1 -0.1
v 0.25 0.1 -0.2
v 0.25 0.1 -0.3
v 0.25 0.3 0.2
v 0.25 0.3 0
v 0.25 0.3 -0.1
v 0.25 0.3 -0.2
v 0.25 0.3 -0.3
v 0.25 0.4 0.3
v 0.25 0.4 0.1
v 0.25 0.4 0
v 0.25 0.4 -0.1
v 0.25 0.4 -0.2
v 0.25 0.4 -0.3
v 0.25 0.5 0.3
v 0.25 0.5 0.1
v 0.25 0.5 -0.1
v 0.25 0.5 -0.2
v 0.25 0.5 -0.3
v -0.05 -0.1 0.3
v -0.05 0 0.3
v -0.05 0.3 0.3
v -0.05 0.6 0.3
v -0.05 0.7 0.3
v 0.05 0.1 0.3
v 0.05 0.2 0.3
v 0.05 0.3 0.3
v 0.05 0.5 0.3
v 0.05 0.6 0.3
v 0.05 0.7 0.3
v 0.15 -0.4 0.3
v 0.15 -0.3 0.3
v 0.15 -0.2 0.3
v 0.15 -0.1 0.3
v 0.15 0 0.3
v 0.15 0.1 0.3
v 0.15 0.2 0.3
v 0.15 0.3 0.3
v 0.15 0.4 0.3
v 0.15 0.5 0.3
v 0.15 0.6 0.3
v 0.15 0.7 0.3
v 0.25 -0.4 0.3
v 0.25 -0.3 0.3
v 0.25 -0.2 0.3
v 0.25 -0.1 0.3
v 0.25 0.4 0.3
v 0.25 0.5 0.3
v 0.15 -0.5 0.2
v 0.15 -0.4 0.2
v 0.25 -0.5 0.2
v 0.25 -0.4 0.2
v -0.25 -0.7 0.1
v -0.25 -0.1 0.1
v -0.05 -0.7 0.1
v -0.05 -0.3 0.1
v 0.05 -0.1 0.1
v 0.15 -0.3 0.1
v 0.15 -0.1 0.1
v 0.05 0 -0.1
v 0.05 0.1 -0.1
v 0.15 0 -0.1
v 0.15 0.1 -0.1
v -0.05 -0.1 -0.2
v -0.05 0.4 -0.2
v 0.05 -0.1 -0.2
v 0.05 0.4 -0.2
v -0.05 -0.1 0.2
v -0.05 0 0.2
v -0.05 0.3 0.2
v 0.05 -0.1 0.2
v 0.05 0 0.2
v 0.05 0.3 0.2
v 0.05 0 0.1
v 0.05 0.1 0.1
v 0.15 0 0.1
v 0.15 0.1 0.1
v -0.25 -0.7 -0.1
v -0.25 -0.1 -0.1
v -0.05 -0.7 -0.1
v -0.05 -0.3 -0.1
v 0.05 -0.1 -0.1
v 0.15 -0.3 -0.1
v 0.15 -0.1 -0.1
v 0.15 -0.5 -0.2
v 0.15 -0.4 -0.2
v 0.25 -0.5 -0.2
v 0.25 -0.4 -0.2
v -0.05 -0.1 -0.3
v -0.05 0.4 -0.3
v -0.05 0.6 -0.3
v -0.05 0.7 -0.3
v 0.05 0.4 -0.3
v 0.05 0.6 -0.3
v 0.05 0.7 -0.3
v 0.15 -0.4 -0.3
v 0.15 -0.2 -0.3
v 0.15 -0.1 -0.3
v 0.15 0.1 -0.3
v 0.15 0.3 -0.3
v 0.15 0.4 -0.3
v 0.15 0.5 -0.3
v 0.15 0.6 -0.3
v 0.15 0.7 -0.3
v 0.25 -0.4 -0.3
v 0.25 -0.2 -0.3
v 0.25 0.1 -0.3
v 0.25 0.3 -0.3
v 0.25 0.4 -0.3
v 0.25 0.5 -0.3
v -0.25 -0.7 0.1
v -0.05 -0.7 0.1
v -0.25 -0.7 -0.1
v -0.05 -0.7 -0.1
v 0.15 -0.5 0.2
v 0.25 -0.5 0.2
v 0.15 -0.5 0.1
v 0.25 -0.5 0.1
v 0.15 -0.5 -0.2
v 0.25 -0.5 -0.2
v 0.15 -0.4 0.3
v 0.25 -0.4 0.3
v 0.15 -0.4 0.2
v 0.25 -0.4 0.2
v 0.15 -0.4 -0.2
v 0.25 -0.4 -0.2
v 0.15 -0.4 -0.3
v 0.25 -0.4 -0.3
v -0.05 -0.3 0.1
v 0.15 -0.3 0.1
v -0.05 -0.3 -0.1
v 0.15 -0.3 -0.1
v -0.05 -0.1 0.3
v 0.15 -0.1 0.3
v -0.05 -0.1 0.2
v 0.05 -0.1 0.2
v 0.15 -0.1 0.2
v 0.05 -0.1 0.1
v 0.15 -0.1 0.1
v 0.05 -0.1 -0.1
v 0.15 -0.1 -0.1
v -0.05 -0.1 -0.2
v 0.05 -0.1 -0.2
v 0.15 -0.1 -0.2
v -0.05 -0.1 -0.3
v 0.15 -0.1 -0.3
v 0.05 0.1 0.1
v 0.15 0.1 0.1
v 0.15 0.1 0
v 0.05 0.1 -0.1
v 0.15 0.1 -0.1
v -0.05 0.6 0.3
v 0.05 0.6 0.3
v -0.05 0.6 0.2
v 0.05 0.6 0.2
v 0.05 0.6 0.1
v -0.05 0.6 -0.3
v 0.05 0.6 -0.3
v -0.25 -0.1 0.1
v 0.05 -0.1 0.1
v -0.25 -0.1 -0.1
v 0.05 -0.1 -0.1
v 0.05 0 0.1
v 0.15 0 0.1
v 0.15 0 0
v 0.05 0 -0.1
v 0.15 0 -0.1
v -0.05 0.3 0.3
v 0.05 0.3 0.3
v -0.05 0.3 0.2
v 0.05 0.3 0.2
v -0.05 0.4 -0.2
v 0.05 0.4 -0.2
v -0.05 0.4 -0.3
v 0.05 0.4 -0.3
v 0.15 0.5 0.3
v 0.25 0.5 0.3
v 0.15 0.5 0.1
v 0.25 0.5 0.1
v 0.15 0.5 -0.1
v 0.25 0.5 -0.1
v 0.15 0.5 -0.2
v 0.25 0.5 -0.2
v 0.15 0.5 -0.3
v 0.25 0.5 -0.3
v -0.05 0.7 0.3
v 0.05 0.7 0.3
v 0.15 0.7 0.3
v -0.05 0.7 0.2
v 0.05 0.7 0.2
v 0.15 0.7 0.2
v 0.05 0.7 0.1
v 0.15 0.7 0.1
v 0.05 0.7 -0.1
v 0.15 0.7 -0.1
v -0.05 0.7 -0.3
v 0.05 0.7 -0.3
v 0.15 0.7 -0.3

# faces
f 3/1/1 2/1/1 1/1/1
f 4/1/1 2/1/1 3/1/1
f 9/3/1 6/3/1 5/3/1
f 10/3/1 6/3/1 9/3/1
f 11/4/1 10/4/1 9/4/1
f 12/4/1 10/4/1 11/4/1
f 13/3/1 8/3/1 7/3/1
f 14/3/1 8/3/1 13/3/1
f 18/4/1 16/4/1 15/4/1
f 19/3/1 17/3/1 16/3/1
f 19/4/1 16/4/1 18/4/1
f 20/3/1 17/3/1 19/3/1
f 25/1/1 22/1/1 21/1/1
f 25/1/1 24/1/1 23/1/1
f 25/1/1 23/1/1 22/1/1
f 26/1/1 24/1/1 25/1/1
f 27/1/1 24/1/1 26/1/1
f 28/1/1 26/1/1 25/1/1
f 29/1/1 24/1/1 27/1/1
f 30/1/1 28/1/1 25/1/1
f 30/5/1 29/5/1 28/5/1
f 31/1/1 24/1/1 29/1/1
f 31/5/1 29/5/1 30/5/1
f 33/1/1 30/1/1 25/1/1
f 33/1/1 31/1/1 30/1/1
f 34/1/1 24/1/1 31/1/1
f 34/1/1 31/1/1 33/1/1
f 36/3/1 33/3/1 32/3/1
f 37/1/1 34/1/1 33/1/1
f 37/3/1 33/3/1 36/3/1
f 38/1/1 34/1/1 37/1/1
f 39/3/1 35/3/1 34/3/1
f 39/1/1 34/1/1 38/1/1
f 40/4/1 38/4/1 37/4/1
f 40/4/1 37/4/1 36/4/1
f 41/4/1 38/4/1 40/4/1
f 42/3/1 39/3/1 38/3/1
f 42/4/1 38/4/1 41/4/1
f 43/3/1 35/3/1 39/3/1
f 43/3/1 39/3/1 42/3/1
f 48/4/1 45/4/1 44/4/1
f 49/3/1 46/3/1 45/3/1
f 49/4/1 45/4/1 48/4/1
f 50/3/1 46/3/1 49/3/1
f 51/3/1 46/3/1 50/3/1
f 53/3/1 48/3/1 47/3/1
f 54/4/1 49/4/1 48/4/1
f 54/3/1 48/3/1 53/3/1
f 54/4/1 50/4/1 49/4/1
f 55/4/1 50/4/1 54/4/1
f 56/3/1 51/3/1 50/3/1
f 56/4/1 50/4/1 55/4/1
f 57/4/1 52/4/1 51/4/1
f 57/3/1 51/3/1 56/3/1
f 58/4/1 55/4/1 54/4/1
f 58/4/1 54/4/1 53/4/1
f 59/4/1 55/4/1 58/4/1
f 60/4/1 52/4/1 57/4/1
f 60/4/1 57/4/1 56/4/1
f 61/4/1 52/4/1 60/4/1
f 62/3/1 59/3/1 58/3/1
f 63/4/1 55/4/1 59/4/1
f 63/3/1 59/3/1 62/3/1
f 64/4/1 55/4/1 63/4/1
f 65/4/1 60/4/1 56/4/1
f 66/3/1 61/3/1 60/3/1
f 66/4/1 60/4/1 65/4/1
f 67/3/1 61/3/1 66/3/1
f 71/2/1 69/2/1 68/2/1
f 72/3/1 70/3/1 69/3/1
f 72/2/1 69/2/1 71/2/1
f 73/3/1 70/3/1 72/3/1
f 74/1/2 75/1/2 76/1/2
f 76/1/2 75/1/2 77/1/2
f 78/4/2 79/4/2 83/4/2
f 83/4/2 79/4/2 84/4/2
f 81/3/2 82/3/2 85/3/2
f 79/3/2 80/3/2 85/3/2
f 80/3/2 81/3/2 85/3/2
f 85/3/2 82/3/2 86/3/2
f 83/3/2 84/3/2 87/3/2
f 84/4/2 79/4/2 88/4/2
f 87/3/2 84/3/2 88/3/2
f 79/3/2 85/3/2 89/3/2
f 88/4/2 79/4/2 89/4/2
f 85/4/2 86/4/2 90/4/2
f 89/3/2 85/3/2 90/3/2
f 90/4/2 86/4/2 91/4/2
f 92/4/2 93/4/2 96/4/2
f 93/3/2 94/3/2 97/3/2
f 96/4/2 93/4/2 97/4/2
f 97/3/2 94/3/2 98/3/2
f 98/3/2 94/3/2 99/3/2
f 95/3/2 96/3/2 101/3/2
f 96/4/2 97/4/2 102/4/2
f 101/3/2 96/3/2 102/3/2
f 97/4/2 98/4/2 102/4/2
f 102/4/2 98/4/2 103/4/2
f 103/4/2 98/4/2 104/4/2
f 98/3/2 99/3/2 105/3/2
f 104/4/2 98/4/2 105/4/2
f 99/4/2 100/4/2 106/4/2
f 105/3/2 99/3/2 106/3/2
f 101/4/2 102/4/2 107/4/2
f 102/4/2 103/4/2 107/4/2
f 107/4/2 103/4/2 108/4/2
f 104/4/2 105/4/2 109/4/2
f 103/3/2 104/3/2 109/3/2
f 105/4/2 106/4/2 109/4/2
f 109/4/2 106/4/2 110/4/2
f 106/4/2 100/4/2 111/4/2
f 110/4/2 106/4/2 111/4/2
f 111/4/2 100/4/2 112/4/2
f 107/3/2 108/3/2 113/3/2
f 108/4/2 103/4/2 114/4/2
f 113/3/2 108/3/2 114/3/2
f 109/3/2 110/3/2 115/3/2
f 114/4/2 103/4/2 115/4/2
f 103/3/2 109/3/2 115/3/2
f 110/4/2 111/4/2 116/4/2
f 115/3/2 110/3/2 116/3/2
f 111/3/2 112/3/2 117/3/2
f 116/4/2 111/4/2 117/4/2
f 113/4/2 114/4/2 118/4/2
f 115/3/2 116/3/2 118/3/2
f 116/3/2 117/3/2 118/3/2
f 114/3/2 115/3/2 118/3/2
f 118/3/2 117/3/2 119/3/2
f 119/3/2 117/3/2 120/3/2
f 120/3/2 117/3/2 121/3/2
f 117/3/2 112/3/2 122/3/2
f 121/3/2 117/3/2 122/3/2
f 113/4/2 118/4/2 123/4/2
f 118/4/2 119/4/2 123/4/2
f 119/2/2 120/2/2 124/2/2
f 123/4/2 119/4/2 124/4/2
f 120/3/2 121/3/2 125/3/2
f 124/2/2 120/2/2 125/2/2
f 121/4/2 122/4/2 126/4/2
f 125/3/2 121/3/2 126/3/2
f 122/3/2 112/3/2 127/3/2
f 126/4/2 122/4/2 127/4/2
f 127/3/2 112/3/2 128/3/2
f 123/3/2 124/3/2 129/3/2
f 124/3/2 125/3/2 129/3/2
f 113/4/2 123/4/2 129/4/2
f 125/4/2 126/4/2 130/4/2
f 129/3/2 125/3/2 130/3/2
f 127/4/2 128/4/2 130/4/2
f 126/4/2 127/4/2 130/4/2
f 130/4/2 128/4/2 131/4/2
f 131/4/2 128/4/2 132/4/2
f 132/4/2 128/4/2 133/4/2
f 113/4/2 129/4/2 134/4/2
f 129/4/2 130/4/2 134/4/2
f 134/4/2 130/4/2 135/4/2
f 130/3/2 131/3/2 136/3/2
f 135/4/2 130/4/2 136/4/2
f 131/4/2 132/4/2 137/4/2
f 136/3/2 131/3/2 137/3/2
f 132/3/2 133/3/2 138/3/2
f 137/4/2 132/4/2 138/4/2
f 138/3/2 133/3/2 139/3/2
f 134/3/2 135/3/2 140/3/2
f 136/4/2 137/4/2 141/4/2
f 140/3/2 135/3/2 141/3/2
f 135/4/2 136/4/2 141/4/2
f 137/3/2 138/3/2 142/3/2
f 141/4/2 137/4/2 142/4/2
f 138/4/2 139/4/2 143/4/2
f 142/3/2 138/3/2 143/3/2
f 143/4/2 139/4/2 144/4/2
f 150/4/3 147/4/3 146/4/3
f 151/4/3 147/4/3 150/4/3
f 152/4/3 147/4/3 151/4/3
f 154/4/3 149/4/3 148/4/3
f 155/4/3 149/4/3 154/4/3
f 159/3/3 146/3/3 145/3/3
f 160/4/3 150/4/3 146/4/3
f 160/3/3 146/3/3 159/3/3
f 161/3/3 151/3/3 150/3/3
f 161/4/3 150/4/3 160/4/3
f 162/4/3 152/4/3 151/4/3
f 162/3/3 151/3/3 161/3/3
f 163/3/3 153/3/3 152/3/3
f 163/4/3 152/4/3 162/4/3
f 164/3/3 153/3/3 163/3/3
f 165/4/3 154/4/3 153/4/3
f 165/3/3 153/3/3 164/3/3
f 166/3/3 155/3/3 154/3/3
f 166/4/3 154/4/3 165/4/3
f 167/3/3 155/3/3 166/3/3
f 168/3/3 157/3/3 156/3/3
f 169/4/3 158/4/3 157/4/3
f 169/3/3 157/3/3 168/3/3
f 170/3/3 159/3/3 158/3/3
f 170/4/3 158/4/3 169/4/3
f 171/4/3 162/4/3 161/4/3
f 171/3/3 159/3/3 170/3/3
f 171/4/3 160/4/3 159/4/3
f 171/4/3 163/4/3 162/4/3
f 171/4/3 161/4/3 160/4/3
f 171/4/3 164/4/3 163/4/3
f 172/3/3 165/3/3 164/3/3
f 172/4/3 164/4/3 171/4/3
f 173/3/3 165/3/3 172/3/3
f 176/4/3 175/4/3 174/4/3
f 177/4/3 175/4/3 176/4/3
f 180/1/3 179/1/3 178/1/3
f 181/1/3 179/1/3 180/1/3
f 182/1/3 179/1/3 181/1/3
f 183/1/3 182/1/3 181/1/3
f 184/1/3 182/1/3 183/1/3
f 187/1/3 186/1/3 185/1/3
f 188/1/3 186/1/3 187/1/3
f 191/3/3 190/3/3 189/3/3
f 192/3/3 190/3/3 191/3/3
f 193/3/4 194/3/4 196/3/4
f 194/4/4 195/4/4 197/4/4
f 196/3/4 194/3/4 197/3/4
f 197/4/4 195/4/4 198/4/4
f 199/1/4 200/1/4 201/1/4
f 201/1/4 200/1/4 202/1/4
f 203/1/4 204/1/4 205/1/4
f 205/1/4 204/1/4 206/1/4
f 206/1/4 204/1/4 207/1/4
f 206/1/4 207/1/4 208/1/4
f 208/1/4 207/1/4 209/1/4
f 210/3/4 211/3/4 212/3/4
f 212/3/4 211/3/4 213/3/4
f 214/3/4 215/3/4 218/3/4
f 216/3/4 217/3/4 219/3/4
f 219/3/4 217/3/4 220/3/4
f 214/3/4 218/3/4 223/3/4
f 218/3/4 219/3/4 223/3/4
f 223/3/4 219/3/4 224/3/4
f 224/3/4 219/3/4 225/3/4
f 225/3/4 219/3/4 226/3/4
f 226/3/4 219/3/4 227/3/4
f 219/4/4 220/4/4 228/4/4
f 227/3/4 219/3/4 228/3/4
f 228/4/4 220/4/4 229/4/4
f 221/4/4 222/4/4 230/4/4
f 222/3/4 223/3/4 231/3/4
f 230/4/4 222/4/4 231/4/4
f 223/3/4 224/3/4 231/3/4
f 224/4/4 225/4/4 232/4/4
f 231/3/4 224/3/4 232/3/4
f 225/3/4 226/3/4 233/3/4
f 232/4/4 225/4/4 233/4/4
f 226/4/4 227/4/4 234/4/4
f 233/3/4 226/3/4 234/3/4
f 234/4/4 227/4/4 235/4/4
f 238/1/5 237/1/5 236/1/5
f 239/1/5 237/1/5 238/1/5
f 242/4/5 241/4/5 240/4/5
f 243/4/5 241/4/5 242/4/5
f 244/3/5 243/3/5 242/3/5
f 245/3/5 243/3/5 244/3/5
f 248/3/5 247/3/5 246/3/5
f 249/3/5 247/3/5 248/3/5
f 252/4/5 251/4/5 250/4/5
f 253/4/5 251/4/5 252/4/5
f 256/1/5 255/1/5 254/1/5
f 257/1/5 255/1/5 256/1/5
f 260/3/5 259/3/5 258/3/5
f 261/3/5 259/3/5 260/3/5
f 262/3/5 259/3/5 261/3/5
f 263/1/5 262/1/5 261/1/5
f 264/1/5 262/1/5 263/1/5
f 268/1/5 266/1/5 265/1/5
f 269/1/5 266/1/5 268/1/5
f 270/3/5 268/3/5 267/3/5
f 270/3/5 269/3/5 268/3/5
f 271/3/5 269/3/5 270/3/5
f 274/5/5 273/5/5 272/5/5
f 275/5/5 274/5/5 272/5/5
f 276/5/5 274/5/5 275/5/5
f 279/4/5 278/4/5 277/4/5
f 280/4/5 278/4/5 279/4/5
f 281/3/5 280/3/5 279/3/5
f 282/3/5 281/3/5 279/3/5
f 283/3/5 281/3/5 282/3/5
f 284/1/6 285/1/6 286/1/6
f 286/1/6 285/1/6 287/1/6
f 288/1/6 289/1/6 290/1/6
f 288/1/6 290/1/6 291/1/6
f 291/1/6 290/1/6 292/1/6
f 293/4/6 294/4/6 295/4/6
f 295/4/6 294/4/6 296/4/6
f 297/3/6 298/3/6 299/3/6
f 299/3/6 298/3/6 300/3/6
f 301/3/6 302/3/6 303/3/6
f 303/3/6 302/3/6 304/3/6
f 303/4/6 304/4/6 305/4/6
f 305/4/6 304/4/6 306/4/6
f 305/3/6 306/3/6 307/3/6
f 307/3/6 306/3/6 308/3/6
f 307/4/6 308/4/6 309/4/6
f 309/4/6 308/4/6 310/4/6
f 311/4/6 312/4/6 314/4/6
f 312/3/6 313/3/6 315/3/6
f 314/4/6 312/4/6 315/4/6
f 315/3/6 313/3/6 316/3/6
f 314/3/6 315/3/6 317/3/6
f 315/4/6 316/4/6 317/4/6
f 317/4/6 316/4/6 318/4/6
f 314/3/6 317/3/6 319/3/6
f 317/3/6 318/3/6 319/3/6
f 319/3/6 318/3/6 320/3/6
f 314/3/6 319/3/6 321/3/6
f 319/4/6 320/4/6 322/4/6
f 321/3/6 319/3/6 322/3/6
f 322/4/6 320/4/6 323/4/6
