# MagicaVoxel @ Ephtracy

# group
o 

# material
mtllib Leg-0.mtl
usemtl palette

# normals
vn -1 0 0
vn 1 0 0
vn 0 0 1
vn 0 0 -1
vn 0 -1 0
vn 0 1 0

# texcoords
vt 0.662109 0.5
vt 0.689453 0.5
vt 0.705078 0.5
vt 0.712891 0.5

# verts
v -0.2 -0.4 0.2
v -0.2 -0.4 0.1
v -0.2 -0.3 0.1
v -0.2 -0.3 0
v -0.2 -0.2 0.2
v -0.2 -0.2 0
v -0.1 -0.5 0.1
v -0.1 -0.5 -0.1
v -0.1 -0.4 0.1
v -0.1 -0.3 0.1
v -0.1 -0.3 0
v -0.1 -0.2 0.1
v -0.1 -0.2 0
v -0.1 0.4 0.1
v -0.1 0.4 -0.1
v 0 0.2 -0.1
v 0 0.2 -0.2
v 0 0.3 -0.1
v 0 0.3 -0.2
v 0 0.4 0
v 0 0.4 -0.1
v 0 0.4 -0.2
v 0 0.5 0
v 0 0.5 -0.1
v 0.1 -0.4 0.2
v 0.1 -0.4 0.1
v 0.1 -0.3 0.2
v 0.1 -0.3 0.1
v -0.1 -0.4 0.2
v -0.1 -0.4 0.1
v -0.1 -0.3 0.2
v -0.1 -0.3 0.1
v 0.1 -0.5 0.1
v 0.1 -0.5 -0.1
v 0.1 -0.4 0.1
v 0.1 -0.3 0.1
v 0.1 -0.3 0
v 0.1 -0.2 0.1
v 0.1 -0.2 0
v 0.1 0.2 0
v 0.1 0.2 -0.1
v 0.1 0.4 0.1
v 0.1 0.4 0
v 0.1 0.4 -0.1
v 0.1 0.5 0
v 0.1 0.5 -0.1
v 0.2 -0.4 0.2
v 0.2 -0.4 0.1
v 0.2 -0.3 0.1
v 0.2 -0.3 0
v 0.2 -0.2 0.2
v 0.2 -0.2 0
v 0.2 0.2 0
v 0.2 0.2 -0.2
v 0.2 0.4 0
v 0.2 0.4 -0.2
v -0.2 -0.4 0.2
v -0.2 -0.2 0.2
v -0.1 -0.4 0.2
v -0.1 -0.3 0.2
v 0.1 -0.4 0.2
v 0.1 -0.3 0.2
v 0.2 -0.4 0.2
v 0.2 -0.2 0.2
v -0.1 -0.5 0.1
v -0.1 -0.4 0.1
v -0.1 -0.3 0.1
v -0.1 -0.2 0.1
v -0.1 0.4 0.1
v 0.1 -0.5 0.1
v 0.1 -0.4 0.1
v 0.1 -0.3 0.1
v 0.1 -0.2 0.1
v 0.1 0.4 0.1
v 0 0.4 0
v 0 0.5 0
v 0.1 0.2 0
v 0.1 0.4 0
v 0.1 0.5 0
v 0.2 0.2 0
v 0.2 0.4 0
v -0.2 -0.4 0.1
v -0.2 -0.3 0.1
v -0.1 -0.4 0.1
v -0.1 -0.3 0.1
v 0.1 -0.4 0.1
v 0.1 -0.3 0.1
v 0.2 -0.4 0.1
v 0.2 -0.3 0.1
v -0.2 -0.3 0
v -0.2 -0.2 0
v -0.1 -0.3 0
v -0.1 -0.2 0
v 0.1 -0.3 0
v 0.1 -0.2 0
v 0.2 -0.3 0
v 0.2 -0.2 0
v -0.1 -0.5 -0.1
v -0.1 0.4 -0.1
v 0 0.2 -0.1
v 0 0.3 -0.1
v 0 0.4 -0.1
v 0 0.5 -0.1
v 0.1 -0.5 -0.1
v 0.1 0.2 -0.1
v 0.1 0.4 -0.1
v 0.1 0.5 -0.1
v 0 0.2 -0.2
v 0 0.3 -0.2
v 0 0.4 -0.2
v 0.1 0.3 -0.2
v 0.1 0.4 -0.2
v 0.2 0.2 -0.2
v 0.2 0.4 -0.2
v -0.1 -0.5 0.1
v 0.1 -0.5 0.1
v -0.1 -0.5 -0.1
v 0.1 -0.5 -0.1
v -0.2 -0.4 0.2
v -0.1 -0.4 0.2
v 0.1 -0.4 0.2
v 0.2 -0.4 0.2
v -0.2 -0.4 0.1
v -0.1 -0.4 0.1
v 0.1 -0.4 0.1
v 0.2 -0.4 0.1
v -0.1 -0.3 0.2
v 0.1 -0.3 0.2
v -0.2 -0.3 0.1
v -0.1 -0.3 0.1
v 0.1 -0.3 0.1
v 0.2 -0.3 0.1
v -0.2 -0.3 0
v -0.1 -0.3 0
v 0.1 -0.3 0
v 0.2 -0.3 0
v 0.1 0.2 0
v 0.2 0.2 0
v 0 0.2 -0.1
v 0.1 0.2 -0.1
v 0 0.2 -0.2
v 0.2 0.2 -0.2
v -0.2 -0.2 0.2
v 0.2 -0.2 0.2
v -0.1 -0.2 0.1
v 0.1 -0.2 0.1
v -0.2 -0.2 0
v -0.1 -0.2 0
v 0.1 -0.2 0
v 0.2 -0.2 0
v -0.1 0.4 0.1
v 0.1 0.4 0.1
v 0 0.4 0
v 0.1 0.4 0
v 0.2 0.4 0
v -0.1 0.4 -0.1
v 0 0.4 -0.1
v 0.1 0.4 -0.1
v 0 0.4 -0.2
v 0.1 0.4 -0.2
v 0.2 0.4 -0.2
v 0 0.5 0
v 0.1 0.5 0
v 0 0.5 -0.1
v 0.1 0.5 -0.1

# faces
f 3/4/1 2/4/1 1/4/1
f 5/4/1 3/4/1 1/4/1
f 5/4/1 4/4/1 3/4/1
f 6/4/1 4/4/1 5/4/1
f 9/2/1 8/2/1 7/2/1
f 10/2/1 8/2/1 9/2/1
f 11/2/1 8/2/1 10/2/1
f 13/2/1 8/2/1 11/2/1
f 14/2/1 13/2/1 12/2/1
f 15/2/1 8/2/1 13/2/1
f 15/2/1 13/2/1 14/2/1
f 18/3/1 17/3/1 16/3/1
f 19/3/1 17/3/1 18/3/1
f 21/1/1 19/1/1 18/1/1
f 22/1/1 19/1/1 21/1/1
f 23/3/1 21/3/1 20/3/1
f 24/3/1 21/3/1 23/3/1
f 27/4/1 26/4/1 25/4/1
f 28/4/1 26/4/1 27/4/1
f 29/4/2 30/4/2 31/4/2
f 31/4/2 30/4/2 32/4/2
f 33/2/2 34/2/2 35/2/2
f 35/2/2 34/2/2 36/2/2
f 36/2/2 34/2/2 37/2/2
f 37/2/2 34/2/2 39/2/2
f 39/2/2 34/2/2 40/2/2
f 38/2/2 39/2/2 40/2/2
f 40/2/2 34/2/2 41/2/2
f 38/2/2 40/2/2 42/2/2
f 42/2/2 40/2/2 43/2/2
f 43/3/2 44/3/2 45/3/2
f 45/3/2 44/3/2 46/3/2
f 47/4/2 48/4/2 49/4/2
f 47/4/2 49/4/2 51/4/2
f 49/4/2 50/4/2 51/4/2
f 51/4/2 50/4/2 52/4/2
f 53/3/2 54/3/2 55/3/2
f 55/3/2 54/3/2 56/3/2
f 59/4/3 58/4/3 57/4/3
f 60/4/3 58/4/3 59/4/3
f 62/4/3 58/4/3 60/4/3
f 63/4/3 62/4/3 61/4/3
f 64/4/3 58/4/3 62/4/3
f 64/4/3 62/4/3 63/4/3
f 70/2/3 66/2/3 65/2/3
f 70/2/3 67/2/3 66/2/3
f 71/2/3 67/2/3 70/2/3
f 72/2/3 67/2/3 71/2/3
f 73/2/3 69/2/3 68/2/3
f 74/2/3 69/2/3 73/2/3
f 78/3/3 76/3/3 75/3/3
f 79/3/3 76/3/3 78/3/3
f 80/3/3 78/3/3 77/3/3
f 81/3/3 78/3/3 80/3/3
f 82/4/4 83/4/4 84/4/4
f 84/4/4 83/4/4 85/4/4
f 86/4/4 87/4/4 88/4/4
f 88/4/4 87/4/4 89/4/4
f 90/4/4 91/4/4 92/4/4
f 92/4/4 91/4/4 93/4/4
f 94/4/4 95/4/4 96/4/4
f 96/4/4 95/4/4 97/4/4
f 98/2/4 99/2/4 100/2/4
f 100/2/4 99/2/4 101/2/4
f 101/2/4 99/2/4 102/2/4
f 98/2/4 100/2/4 104/2/4
f 104/2/4 100/2/4 105/2/4
f 102/3/4 103/3/4 106/3/4
f 106/3/4 103/3/4 107/3/4
f 108/3/4 109/3/4 111/3/4
f 109/1/4 110/1/4 111/1/4
f 111/1/4 110/1/4 112/1/4
f 108/3/4 111/3/4 113/3/4
f 111/3/4 112/3/4 113/3/4
f 113/3/4 112/3/4 114/3/4
f 117/2/5 116/2/5 115/2/5
f 118/2/5 116/2/5 117/2/5
f 123/4/5 120/4/5 119/4/5
f 124/4/5 120/4/5 123/4/5
f 125/4/5 122/4/5 121/4/5
f 126/4/5 122/4/5 125/4/5
f 130/4/5 128/4/5 127/4/5
f 131/4/5 128/4/5 130/4/5
f 133/4/5 130/4/5 129/4/5
f 134/4/5 130/4/5 133/4/5
f 135/4/5 132/4/5 131/4/5
f 136/4/5 132/4/5 135/4/5
f 140/3/5 138/3/5 137/3/5
f 141/3/5 140/3/5 139/3/5
f 142/3/5 138/3/5 140/3/5
f 142/3/5 140/3/5 141/3/5
f 143/4/6 144/4/6 145/4/6
f 145/4/6 144/4/6 146/4/6
f 143/4/6 145/4/6 147/4/6
f 147/4/6 145/4/6 148/4/6
f 146/4/6 144/4/6 149/4/6
f 149/4/6 144/4/6 150/4/6
f 151/2/6 152/2/6 153/2/6
f 153/2/6 152/2/6 154/2/6
f 151/2/6 153/2/6 156/2/6
f 156/2/6 153/2/6 157/2/6
f 154/3/6 155/3/6 158/3/6
f 157/1/6 158/1/6 159/1/6
f 158/3/6 155/3/6 160/3/6
f 159/1/6 158/1/6 160/1/6
f 160/3/6 155/3/6 161/3/6
f 162/3/6 163/3/6 164/3/6
f 164/3/6 163/3/6 165/3/6
