# MagicaVoxel @ Ephtracy

# group
o 

# material
mtllib Leg-68.mtl
usemtl palette

# normals
vn -1 0 0
vn 1 0 0
vn 0 0 1
vn 0 0 -1
vn 0 -1 0
vn 0 1 0

# texcoords
vt 0.705078 0.5
vt 0.712891 0.5
vt 0.751953 0.5
vt 0.755859 0.5

# verts
v -0.3 -0.05 0.7
v -0.3 -0.05 0.6
v -0.3 0.15 0.7
v -0.3 0.15 0.6
v -0.2 -0.05 0.6
v -0.2 -0.05 0.4
v -0.2 0.05 0.6
v -0.2 0.05 0.4
v 0 -0.25 0.6
v 0 -0.25 0.3
v 0 -0.15 0.7
v 0 -0.15 0.6
v 0 -0.15 0.3
v 0 -0.15 0.2
v 0 -0.05 0.1
v 0 -0.05 -0.5
v 0 0.15 0.7
v 0 0.15 0.6
v 0 0.15 0.3
v 0 0.15 0.2
v 0 0.15 0.1
v 0 0.15 -0.5
v 0 0.25 0.6
v 0 0.25 0.3
v 0.1 -0.15 0.6
v 0.1 -0.15 0.3
v 0.1 -0.15 0.1
v 0.1 -0.15 -0.4
v 0.1 -0.15 -0.5
v 0.1 -0.15 -0.6
v 0.1 -0.05 0.5
v 0.1 -0.05 0.4
v 0.1 -0.05 0.2
v 0.1 -0.05 0.1
v 0.1 -0.05 -0.4
v 0.1 -0.05 -0.5
v 0.1 -0.05 -0.6
v 0.1 -0.05 -0.7
v 0.1 0.05 0.5
v 0.1 0.05 0.4
v 0.1 0.15 0.6
v 0.1 0.15 0.3
v 0.1 0.15 0.2
v 0.1 0.15 0.1
v 0.1 0.15 -0.2
v 0.1 0.15 -0.5
v 0.1 0.15 -0.6
v 0.1 0.15 -0.7
v 0.1 0.25 0.1
v 0.1 0.25 -0.2
v 0.1 0.25 -0.5
v 0.1 0.25 -0.6
v -0.1 -0.05 0.7
v -0.1 -0.05 0.5
v -0.1 0.05 0.6
v -0.1 0.05 0.5
v -0.1 0.15 0.7
v -0.1 0.15 0.6
v 0.2 -0.15 0.6
v 0.2 -0.15 0.3
v 0.2 -0.15 0.1
v 0.2 -0.15 -0.4
v 0.2 -0.15 -0.5
v 0.2 -0.15 -0.6
v 0.2 -0.05 0.2
v 0.2 -0.05 0.1
v 0.2 -0.05 -0.4
v 0.2 -0.05 -0.5
v 0.2 -0.05 -0.6
v 0.2 -0.05 -0.7
v 0.2 0.15 0.6
v 0.2 0.15 0.3
v 0.2 0.15 0.2
v 0.2 0.15 0.1
v 0.2 0.15 -0.2
v 0.2 0.15 -0.4
v 0.2 0.15 -0.5
v 0.2 0.15 -0.6
v 0.2 0.15 -0.7
v 0.2 0.25 0.1
v 0.2 0.25 -0.2
v 0.2 0.25 -0.5
v 0.2 0.25 -0.6
v 0.3 -0.25 0.6
v 0.3 -0.25 0.3
v 0.3 -0.15 0.7
v 0.3 -0.15 0.6
v 0.3 -0.15 0.3
v 0.3 -0.15 0.2
v 0.3 -0.05 0.1
v 0.3 -0.05 -0.4
v 0.3 0.15 0.7
v 0.3 0.15 0.6
v 0.3 0.15 0.3
v 0.3 0.15 0.2
v 0.3 0.15 0.1
v 0.3 0.15 -0.4
v 0.3 0.25 0.6
v 0.3 0.25 0.3
v -0.3 -0.05 0.7
v -0.3 0.15 0.7
v -0.1 -0.05 0.7
v -0.1 0.15 0.7
v 0 -0.15 0.7
v 0 0.15 0.7
v 0.1 -0.15 0.7
v 0.1 0.15 0.7
v 0.2 -0.15 0.7
v 0.2 0.15 0.7
v 0.3 -0.15 0.7
v 0.3 0.15 0.7
v 0 -0.25 0.6
v 0 -0.15 0.6
v 0 0.15 0.6
v 0 0.25 0.6
v 0.1 -0.25 0.6
v 0.1 -0.15 0.6
v 0.1 0.15 0.6
v 0.1 0.25 0.6
v 0.2 -0.25 0.6
v 0.2 -0.15 0.6
v 0.2 0.15 0.6
v 0.2 0.25 0.6
v 0.3 -0.25 0.6
v 0.3 -0.15 0.6
v 0.3 0.15 0.6
v 0.3 0.25 0.6
v -0.1 -0.05 0.5
v -0.1 0.05 0.5
v 0.1 -0.05 0.5
v 0.1 0.05 0.5
v 0 -0.15 0.3
v 0 0.15 0.3
v 0.1 -0.15 0.3
v 0.1 0.15 0.3
v 0.2 -0.15 0.3
v 0.2 0.15 0.3
v 0.3 -0.15 0.3
v 0.3 0.15 0.3
v 0 -0.05 0.1
v 0 0.15 0.1
v 0.1 -0.15 0.1
v 0.1 -0.05 0.1
v 0.1 0.15 0.1
v 0.1 0.25 0.1
v 0.2 -0.15 0.1
v 0.2 -0.05 0.1
v 0.2 0.15 0.1
v 0.2 0.25 0.1
v 0.3 -0.05 0.1
v 0.3 0.15 0.1
v 0.1 -0.15 -0.5
v 0.1 -0.05 -0.5
v 0.1 0.15 -0.5
v 0.1 0.25 -0.5
v 0.2 -0.15 -0.5
v 0.2 -0.05 -0.5
v 0.2 0.15 -0.5
v 0.2 0.25 -0.5
v -0.3 -0.05 0.6
v -0.3 0.15 0.6
v -0.2 -0.05 0.6
v -0.2 0.05 0.6
v -0.1 0.05 0.6
v -0.1 0.15 0.6
v 0 -0.15 0.6
v 0 0.15 0.6
v 0.1 -0.15 0.6
v 0.1 0.15 0.6
v 0.2 -0.15 0.6
v 0.2 0.15 0.6
v 0.3 -0.15 0.6
v 0.3 0.15 0.6
v -0.2 -0.05 0.4
v -0.2 0.05 0.4
v 0.1 -0.05 0.4
v 0.1 0.05 0.4
v 0 -0.25 0.3
v 0 -0.15 0.3
v 0 0.15 0.3
v 0 0.25 0.3
v 0.1 -0.25 0.3
v 0.1 -0.15 0.3
v 0.1 0.15 0.3
v 0.1 0.25 0.3
v 0.2 -0.25 0.3
v 0.2 -0.15 0.3
v 0.2 0.15 0.3
v 0.2 0.25 0.3
v 0.3 -0.25 0.3
v 0.3 -0.15 0.3
v 0.3 0.15 0.3
v 0.3 0.25 0.3
v 0 -0.15 0.2
v 0 0.15 0.2
v 0.1 -0.15 0.2
v 0.1 -0.05 0.2
v 0.1 0.15 0.2
v 0.2 -0.15 0.2
v 0.2 -0.05 0.2
v 0.2 0.15 0.2
v 0.3 -0.15 0.2
v 0.3 0.15 0.2
v 0.1 0.15 -0.2
v 0.1 0.25 -0.2
v 0.2 0.15 -0.2
v 0.2 0.25 -0.2
v 0.1 -0.15 -0.4
v 0.1 -0.05 -0.4
v 0.2 -0.15 -0.4
v 0.2 -0.05 -0.4
v 0.2 0.15 -0.4
v 0.3 -0.05 -0.4
v 0.3 0.15 -0.4
v 0 -0.05 -0.5
v 0 0.15 -0.5
v 0.1 -0.05 -0.5
v 0.1 0.15 -0.5
v 0.1 -0.15 -0.6
v 0.1 -0.05 -0.6
v 0.1 0.15 -0.6
v 0.1 0.25 -0.6
v 0.2 -0.15 -0.6
v 0.2 -0.05 -0.6
v 0.2 0.15 -0.6
v 0.2 0.25 -0.6
v 0.1 -0.05 -0.7
v 0.1 0.15 -0.7
v 0.2 -0.05 -0.7
v 0.2 0.15 -0.7
v 0 -0.25 0.6
v 0.1 -0.25 0.6
v 0.2 -0.25 0.6
v 0.3 -0.25 0.6
v 0 -0.25 0.3
v 0.1 -0.25 0.3
v 0.2 -0.25 0.3
v 0.3 -0.25 0.3
v 0 -0.15 0.7
v 0.1 -0.15 0.7
v 0.2 -0.15 0.7
v 0.3 -0.15 0.7
v 0 -0.15 0.6
v 0.1 -0.15 0.6
v 0.2 -0.15 0.6
v 0.3 -0.15 0.6
v 0 -0.15 0.3
v 0.1 -0.15 0.3
v 0.2 -0.15 0.3
v 0.3 -0.15 0.3
v 0 -0.15 0.2
v 0.1 -0.15 0.2
v 0.2 -0.15 0.2
v 0.3 -0.15 0.2
v 0.1 -0.15 0.1
v 0.2 -0.15 0.1
v 0.1 -0.15 -0.4
v 0.2 -0.15 -0.4
v 0.1 -0.15 -0.5
v 0.2 -0.15 -0.5
v 0.1 -0.15 -0.6
v 0.2 -0.15 -0.6
v -0.3 -0.05 0.7
v -0.1 -0.05 0.7
v -0.3 -0.05 0.6
v -0.2 -0.05 0.6
v -0.1 -0.05 0.5
v 0.1 -0.05 0.5
v -0.2 -0.05 0.4
v 0.1 -0.05 0.4
v 0.1 -0.05 0.2
v 0.2 -0.05 0.2
v 0 -0.05 0.1
v 0.1 -0.05 0.1
v 0.2 -0.05 0.1
v 0.3 -0.05 0.1
v 0.1 -0.05 -0.4
v 0.2 -0.05 -0.4
v 0.3 -0.05 -0.4
v 0 -0.05 -0.5
v 0.1 -0.05 -0.5
v 0.2 -0.05 -0.5
v 0.1 -0.05 -0.6
v 0.2 -0.05 -0.6
v 0.1 -0.05 -0.7
v 0.2 -0.05 -0.7
v 0 0.15 0.6
v 0.1 0.15 0.6
v 0.2 0.15 0.6
v 0.3 0.15 0.6
v 0 0.15 0.3
v 0.1 0.15 0.3
v 0.2 0.15 0.3
v 0.3 0.15 0.3
v 0 -0.15 0.6
v 0.1 -0.15 0.6
v 0.2 -0.15 0.6
v 0.3 -0.15 0.6
v 0 -0.15 0.3
v 0.1 -0.15 0.3
v 0.2 -0.15 0.3
v 0.3 -0.15 0.3
v -0.2 0.05 0.6
v -0.1 0.05 0.6
v -0.1 0.05 0.5
v 0.1 0.05 0.5
v -0.2 0.05 0.4
v 0.1 0.05 0.4
v -0.3 0.15 0.7
v -0.1 0.15 0.7
v 0 0.15 0.7
v 0.1 0.15 0.7
v 0.2 0.15 0.7
v 0.3 0.15 0.7
v -0.3 0.15 0.6
v -0.1 0.15 0.6
v 0 0.15 0.6
v 0.1 0.15 0.6
v 0.2 0.15 0.6
v 0.3 0.15 0.6
v 0 0.15 0.3
v 0.1 0.15 0.3
v 0.2 0.15 0.3
v 0.3 0.15 0.3
v 0 0.15 0.2
v 0.1 0.15 0.2
v 0.2 0.15 0.2
v 0.3 0.15 0.2
v 0 0.15 0.1
v 0.1 0.15 0.1
v 0.2 0.15 0.1
v 0.3 0.15 0.1
v 0.1 0.15 -0.2
v 0.2 0.15 -0.2
v 0.1 0.15 -0.4
v 0.2 0.15 -0.4
v 0.3 0.15 -0.4
v 0 0.15 -0.5
v 0.1 0.15 -0.5
v 0.2 0.15 -0.5
v 0.1 0.15 -0.6
v 0.2 0.15 -0.6
v 0.1 0.15 -0.7
v 0.2 0.15 -0.7
v 0 0.25 0.6
v 0.1 0.25 0.6
v 0.2 0.25 0.6
v 0.3 0.25 0.6
v 0 0.25 0.3
v 0.1 0.25 0.3
v 0.2 0.25 0.3
v 0.3 0.25 0.3
v 0.1 0.25 0.1
v 0.2 0.25 0.1
v 0.1 0.25 -0.2
v 0.2 0.25 -0.2
v 0.1 0.25 -0.5
v 0.2 0.25 -0.5
v 0.1 0.25 -0.6
v 0.2 0.25 -0.6

# faces
f 3/1/1 2/1/1 1/1/1
f 4/1/1 2/1/1 3/1/1
f 7/1/1 6/1/1 5/1/1
f 8/1/1 6/1/1 7/1/1
f 12/4/1 10/4/1 9/4/1
f 13/4/1 10/4/1 12/4/1
f 17/4/1 12/4/1 11/4/1
f 18/4/1 12/4/1 17/4/1
f 19/4/1 14/4/1 13/4/1
f 20/4/1 14/4/1 19/4/1
f 21/4/1 16/4/1 15/4/1
f 22/4/1 16/4/1 21/4/1
f 23/4/1 19/4/1 18/4/1
f 24/4/1 19/4/1 23/4/1
f 31/1/1 26/1/1 25/1/1
f 32/1/1 26/1/1 31/1/1
f 34/4/1 28/4/1 27/4/1
f 35/4/1 28/4/1 34/4/1
f 36/1/1 30/1/1 29/1/1
f 37/1/1 30/1/1 36/1/1
f 39/1/1 31/1/1 25/1/1
f 40/1/1 26/1/1 32/1/1
f 41/1/1 39/1/1 25/1/1
f 41/1/1 40/1/1 39/1/1
f 42/1/1 26/1/1 40/1/1
f 42/1/1 40/1/1 41/1/1
f 43/1/1 34/1/1 33/1/1
f 44/1/1 34/1/1 43/1/1
f 46/1/1 38/1/1 37/1/1
f 46/1/1 37/1/1 36/1/1
f 47/1/1 38/1/1 46/1/1
f 48/1/1 38/1/1 47/1/1
f 49/4/1 45/4/1 44/4/1
f 50/4/1 45/4/1 49/4/1
f 51/1/1 47/1/1 46/1/1
f 52/1/1 47/1/1 51/1/1
f 53/1/2 54/1/2 55/1/2
f 55/1/2 54/1/2 56/1/2
f 53/1/2 55/1/2 57/1/2
f 57/1/2 55/1/2 58/1/2
f 61/4/2 62/4/2 66/4/2
f 66/4/2 62/4/2 67/4/2
f 63/1/2 64/1/2 68/1/2
f 68/1/2 64/1/2 69/1/2
f 59/1/2 60/1/2 71/1/2
f 71/1/2 60/1/2 72/1/2
f 65/1/2 66/1/2 73/1/2
f 73/1/2 66/1/2 74/1/2
f 69/1/2 70/1/2 76/1/2
f 68/1/2 69/1/2 76/1/2
f 67/1/2 68/1/2 76/1/2
f 76/1/2 70/1/2 77/1/2
f 77/1/2 70/1/2 78/1/2
f 78/1/2 70/1/2 79/1/2
f 74/4/2 75/4/2 80/4/2
f 80/4/2 75/4/2 81/4/2
f 77/1/2 78/1/2 82/1/2
f 82/1/2 78/1/2 83/1/2
f 84/4/2 85/4/2 87/4/2
f 87/4/2 85/4/2 88/4/2
f 86/4/2 87/4/2 92/4/2
f 92/4/2 87/4/2 93/4/2
f 88/4/2 89/4/2 94/4/2
f 94/4/2 89/4/2 95/4/2
f 90/4/2 91/4/2 96/4/2
f 96/4/2 91/4/2 97/4/2
f 93/4/2 94/4/2 98/4/2
f 98/4/2 94/4/2 99/4/2
f 102/1/3 101/1/3 100/1/3
f 103/1/3 101/1/3 102/1/3
f 106/4/3 105/4/3 104/4/3
f 107/4/3 105/4/3 106/4/3
f 108/3/3 107/3/3 106/3/3
f 109/3/3 107/3/3 108/3/3
f 110/4/3 109/4/3 108/4/3
f 111/4/3 109/4/3 110/4/3
f 116/4/3 113/4/3 112/4/3
f 117/4/3 113/4/3 116/4/3
f 118/4/3 115/4/3 114/4/3
f 119/4/3 115/4/3 118/4/3
f 120/3/3 117/3/3 116/3/3
f 121/3/3 117/3/3 120/3/3
f 122/3/3 119/3/3 118/3/3
f 123/3/3 119/3/3 122/3/3
f 124/4/3 121/4/3 120/4/3
f 125/4/3 121/4/3 124/4/3
f 126/4/3 123/4/3 122/4/3
f 127/4/3 123/4/3 126/4/3
f 130/1/3 129/1/3 128/1/3
f 131/1/3 129/1/3 130/1/3
f 134/4/3 133/4/3 132/4/3
f 135/4/3 133/4/3 134/4/3
f 138/4/3 137/4/3 136/4/3
f 139/4/3 137/4/3 138/4/3
f 143/4/3 141/4/3 140/4/3
f 144/4/3 141/4/3 143/4/3
f 146/4/3 143/4/3 142/4/3
f 147/4/3 143/4/3 146/4/3
f 148/4/3 145/4/3 144/4/3
f 149/4/3 145/4/3 148/4/3
f 150/4/3 148/4/3 147/4/3
f 151/4/3 148/4/3 150/4/3
f 156/1/3 153/1/3 152/1/3
f 157/1/3 153/1/3 156/1/3
f 158/1/3 155/1/3 154/1/3
f 159/1/3 155/1/3 158/1/3
f 160/1/4 161/1/4 162/1/4
f 162/1/4 161/1/4 163/1/4
f 163/1/4 161/1/4 164/1/4
f 164/1/4 161/1/4 165/1/4
f 166/4/4 167/4/4 168/4/4
f 168/4/4 167/4/4 169/4/4
f 170/4/4 171/4/4 172/4/4
f 172/4/4 171/4/4 173/4/4
f 174/1/4 175/1/4 176/1/4
f 176/1/4 175/1/4 177/1/4
f 178/4/4 179/4/4 182/4/4
f 182/4/4 179/4/4 183/4/4
f 180/4/4 181/4/4 184/4/4
f 184/4/4 181/4/4 185/4/4
f 182/3/4 183/3/4 186/3/4
f 186/3/4 183/3/4 187/3/4
f 184/3/4 185/3/4 188/3/4
f 188/3/4 185/3/4 189/3/4
f 186/4/4 187/4/4 190/4/4
f 190/4/4 187/4/4 191/4/4
f 188/4/4 189/4/4 192/4/4
f 192/4/4 189/4/4 193/4/4
f 194/4/4 195/4/4 196/4/4
f 196/4/4 195/4/4 197/4/4
f 197/4/4 195/4/4 198/4/4
f 196/3/4 197/3/4 199/3/4
f 199/3/4 197/3/4 200/3/4
f 199/4/4 200/4/4 202/4/4
f 200/4/4 201/4/4 202/4/4
f 202/4/4 201/4/4 203/4/4
f 204/4/4 205/4/4 206/4/4
f 206/4/4 205/4/4 207/4/4
f 208/4/4 209/4/4 210/4/4
f 210/4/4 209/4/4 211/4/4
f 211/4/4 212/4/4 213/4/4
f 213/4/4 212/4/4 214/4/4
f 215/4/4 216/4/4 217/4/4
f 217/4/4 216/4/4 218/4/4
f 219/1/4 220/1/4 223/1/4
f 223/1/4 220/1/4 224/1/4
f 221/1/4 222/1/4 225/1/4
f 225/1/4 222/1/4 226/1/4
f 227/1/4 228/1/4 229/1/4
f 229/1/4 228/1/4 230/1/4
f 235/4/5 232/4/5 231/4/5
f 236/3/5 233/3/5 232/3/5
f 236/4/5 232/4/5 235/4/5
f 237/4/5 234/4/5 233/4/5
f 237/3/5 233/3/5 236/3/5
f 238/4/5 234/4/5 237/4/5
f 243/4/5 240/4/5 239/4/5
f 244/3/5 241/3/5 240/3/5
f 244/4/5 240/4/5 243/4/5
f 245/4/5 242/4/5 241/4/5
f 245/3/5 241/3/5 244/3/5
f 246/4/5 242/4/5 245/4/5
f 251/4/5 248/4/5 247/4/5
f 252/3/5 249/3/5 248/3/5
f 252/4/5 248/4/5 251/4/5
f 253/4/5 250/4/5 249/4/5
f 253/3/5 249/3/5 252/3/5
f 254/4/5 250/4/5 253/4/5
f 257/4/5 256/4/5 255/4/5
f 258/4/5 256/4/5 257/4/5
f 261/1/5 260/1/5 259/1/5
f 262/1/5 260/1/5 261/1/5
f 265/1/5 264/1/5 263/1/5
f 266/1/5 264/1/5 265/1/5
f 267/1/5 264/1/5 266/1/5
f 269/1/5 267/1/5 266/1/5
f 269/1/5 268/1/5 267/1/5
f 270/1/5 268/1/5 269/1/5
f 274/1/5 272/1/5 271/1/5
f 275/1/5 272/1/5 274/1/5
f 277/4/5 274/4/5 273/4/5
f 278/4/5 276/4/5 275/4/5
f 279/4/5 276/4/5 278/4/5
f 280/4/5 277/4/5 273/4/5
f 281/1/5 278/1/5 277/1/5
f 281/4/5 277/4/5 280/4/5
f 282/1/5 278/1/5 281/1/5
f 285/1/5 284/1/5 283/1/5
f 286/1/5 284/1/5 285/1/5
f 291/4/5 288/4/5 287/4/5
f 292/4/5 288/4/5 291/4/5
f 293/4/5 290/4/5 289/4/5
f 294/4/5 290/4/5 293/4/5
f 295/4/6 296/4/6 299/4/6
f 299/4/6 296/4/6 300/4/6
f 297/4/6 298/4/6 301/4/6
f 301/4/6 298/4/6 302/4/6
f 303/1/6 304/1/6 305/1/6
f 303/1/6 305/1/6 307/1/6
f 305/1/6 306/1/6 307/1/6
f 307/1/6 306/1/6 308/1/6
f 309/1/6 310/1/6 315/1/6
f 315/1/6 310/1/6 316/1/6
f 311/4/6 312/4/6 317/4/6
f 312/3/6 313/3/6 318/3/6
f 317/4/6 312/4/6 318/4/6
f 313/4/6 314/4/6 319/4/6
f 318/3/6 313/3/6 319/3/6
f 319/4/6 314/4/6 320/4/6
f 321/4/6 322/4/6 325/4/6
f 322/3/6 323/3/6 326/3/6
f 325/4/6 322/4/6 326/4/6
f 323/4/6 324/4/6 327/4/6
f 326/3/6 323/3/6 327/3/6
f 327/4/6 324/4/6 328/4/6
f 326/1/6 327/1/6 330/1/6
f 330/1/6 327/1/6 331/1/6
f 329/4/6 330/4/6 333/4/6
f 331/4/6 332/4/6 334/4/6
f 329/4/6 333/4/6 335/4/6
f 333/4/6 334/4/6 335/4/6
f 334/4/6 332/4/6 336/4/6
f 335/4/6 334/4/6 336/4/6
f 336/4/6 332/4/6 337/4/6
f 329/4/6 335/4/6 338/4/6
f 335/1/6 336/1/6 339/1/6
f 338/4/6 335/4/6 339/4/6
f 339/1/6 336/1/6 340/1/6
f 341/1/6 342/1/6 343/1/6
f 343/1/6 342/1/6 344/1/6
f 345/4/6 346/4/6 349/4/6
f 346/3/6 347/3/6 350/3/6
f 349/4/6 346/4/6 350/4/6
f 347/4/6 348/4/6 351/4/6
f 350/3/6 347/3/6 351/3/6
f 351/4/6 348/4/6 352/4/6
f 353/4/6 354/4/6 355/4/6
f 355/4/6 354/4/6 356/4/6
f 357/1/6 358/1/6 359/1/6
f 359/1/6 358/1/6 360/1/6
