# MagicaVoxel @ Ephtracy

# group
o 

# material
mtllib Leg-57.mtl
usemtl palette

# normals
vn -1 0 0
vn 1 0 0
vn 0 0 1
vn 0 0 -1
vn 0 -1 0
vn 0 1 0

# texcoords
vt 0.708984 0.5
vt 0.712891 0.5
vt 0.833984 0.5
vt 0.841797 0.5

# verts
v -0.3 -0.5 0.15
v -0.3 -0.5 -0.15
v -0.3 -0.3 0.15
v -0.3 -0.3 0.05
v -0.3 0.1 0.05
v -0.3 0.1 -0.15
v -0.2 -0.7 0.15
v -0.2 -0.7 0.05
v -0.2 -0.7 -0.05
v -0.2 -0.7 -0.15
v -0.2 -0.6 0.25
v -0.2 -0.6 0.15
v -0.2 -0.6 -0.15
v -0.2 -0.6 -0.25
v -0.2 -0.5 0.15
v -0.2 -0.5 0.05
v -0.2 -0.5 -0.05
v -0.2 -0.5 -0.15
v -0.2 -0.3 0.25
v -0.2 -0.3 0.15
v -0.2 -0.3 0.05
v -0.2 -0.3 -0.15
v -0.2 -0.3 -0.25
v -0.2 0.1 0.05
v -0.2 0.1 -0.15
v -0.2 0.6 0.15
v -0.2 0.6 -0.15
v -0.1 0.6 0.05
v -0.1 0.6 -0.05
v -0.1 0.7 0.05
v -0.1 0.7 -0.05
v 0 -0.5 0.05
v 0 -0.5 -0.05
v 0 -0.4 0.05
v 0 -0.4 -0.05
v 0 0.1 0.15
v 0 0.1 0.05
v 0 0.1 -0.05
v 0 0.1 -0.15
v 0 0.2 0.15
v 0 0.2 0.05
v 0 0.2 -0.05
v 0 0.2 -0.15
v 0.1 0.5 0.05
v 0.1 0.5 -0.05
v 0.1 0.6 0.05
v 0.1 0.6 -0.05
v 0.2 0.4 0.15
v 0.2 0.4 0.05
v 0.2 0.4 -0.05
v 0.2 0.4 -0.15
v 0.2 0.6 0.15
v 0.2 0.6 0.05
v 0.2 0.6 -0.05
v 0.2 0.6 -0.15
v -0.2 -0.5 0.05
v -0.2 -0.5 -0.05
v -0.2 -0.4 0.05
v -0.2 -0.4 -0.05
v -0.1 0.1 0.15
v -0.1 0.1 0.05
v -0.1 0.1 -0.05
v -0.1 0.1 -0.15
v -0.1 0.2 0.15
v -0.1 0.2 0.05
v -0.1 0.2 -0.05
v -0.1 0.2 -0.15
v -0.1 0.4 0.15
v -0.1 0.4 0.05
v -0.1 0.4 -0.05
v -0.1 0.4 -0.15
v -0.1 0.6 0.15
v -0.1 0.6 0.05
v -0.1 0.6 -0.05
v -0.1 0.6 -0.15
v 0 -0.7 0.15
v 0 -0.7 0.05
v 0 -0.7 -0.05
v 0 -0.7 -0.15
v 0 -0.6 0.25
v 0 -0.6 0.15
v 0 -0.6 -0.15
v 0 -0.6 -0.25
v 0 -0.5 0.15
v 0 -0.5 0.05
v 0 -0.5 -0.05
v 0 -0.5 -0.15
v 0 -0.3 0.25
v 0 -0.3 0.15
v 0 -0.3 0.05
v 0 -0.3 -0.15
v 0 -0.3 -0.25
v 0 0 0.15
v 0 0 0.05
v 0 0.5 0.05
v 0 0.5 -0.05
v 0 0.6 0.05
v 0 0.6 -0.05
v 0.1 -0.5 0.15
v 0.1 -0.5 -0.15
v 0.1 -0.3 0.15
v 0.1 -0.3 0.05
v 0.1 0 0.15
v 0.1 0 0.05
v 0.1 0 -0.15
v 0.1 0.1 0.15
v 0.1 0.1 0.05
v 0.2 0 0.05
v 0.2 0 -0.15
v 0.2 0.1 0.15
v 0.2 0.1 0.05
v 0.2 0.1 -0.15
v 0.2 0.3 0.15
v 0.2 0.3 0.05
v 0.2 0.6 0.05
v 0.2 0.6 -0.05
v 0.2 0.7 0.05
v 0.2 0.7 -0.05
v 0.3 0.1 0.05
v 0.3 0.1 -0.15
v 0.3 0.3 0.15
v 0.3 0.3 0.05
v 0.3 0.6 0.15
v 0.3 0.6 -0.15
v -0.2 -0.6 0.25
v -0.2 -0.3 0.25
v 0 -0.6 0.25
v 0 -0.3 0.25
v -0.3 -0.5 0.15
v -0.3 -0.3 0.15
v -0.2 -0.7 0.15
v -0.2 -0.6 0.15
v -0.2 -0.5 0.15
v -0.2 -0.3 0.15
v -0.2 0.6 0.15
v -0.1 0.1 0.15
v -0.1 0.2 0.15
v -0.1 0.4 0.15
v -0.1 0.6 0.15
v 0 -0.7 0.15
v 0 -0.6 0.15
v 0 -0.5 0.15
v 0 -0.3 0.15
v 0 0 0.15
v 0 0.1 0.15
v 0 0.2 0.15
v 0.1 -0.5 0.15
v 0.1 -0.3 0.15
v 0.1 0 0.15
v 0.1 0.1 0.15
v 0.2 0.1 0.15
v 0.2 0.3 0.15
v 0.2 0.4 0.15
v 0.2 0.6 0.15
v 0.3 0.3 0.15
v 0.3 0.6 0.15
v -0.3 -0.3 0.05
v -0.3 0.1 0.05
v -0.2 -0.3 0.05
v -0.2 0.1 0.05
v -0.1 0.1 0.05
v -0.1 0.2 0.05
v -0.1 0.4 0.05
v -0.1 0.6 0.05
v -0.1 0.7 0.05
v 0 -0.3 0.05
v 0 0 0.05
v 0 0.1 0.05
v 0 0.2 0.05
v 0 0.5 0.05
v 0 0.6 0.05
v 0.1 -0.3 0.05
v 0.1 0 0.05
v 0.1 0.1 0.05
v 0.1 0.5 0.05
v 0.1 0.6 0.05
v 0.2 0 0.05
v 0.2 0.1 0.05
v 0.2 0.3 0.05
v 0.2 0.4 0.05
v 0.2 0.6 0.05
v 0.2 0.7 0.05
v 0.3 0.1 0.05
v 0.3 0.3 0.05
v -0.2 -0.7 -0.05
v -0.2 -0.5 -0.05
v -0.2 -0.4 -0.05
v 0 -0.7 -0.05
v 0 -0.5 -0.05
v 0 -0.4 -0.05
v -0.2 -0.7 0.05
v -0.2 -0.5 0.05
v -0.2 -0.4 0.05
v 0 -0.7 0.05
v 0 -0.5 0.05
v 0 -0.4 0.05
v -0.1 0.1 -0.05
v -0.1 0.2 -0.05
v -0.1 0.4 -0.05
v -0.1 0.6 -0.05
v -0.1 0.7 -0.05
v 0 0.1 -0.05
v 0 0.2 -0.05
v 0 0.5 -0.05
v 0 0.6 -0.05
v 0.1 0.5 -0.05
v 0.1 0.6 -0.05
v 0.2 0.4 -0.05
v 0.2 0.6 -0.05
v 0.2 0.7 -0.05
v -0.3 -0.5 -0.15
v -0.3 0.1 -0.15
v -0.2 -0.7 -0.15
v -0.2 -0.6 -0.15
v -0.2 -0.5 -0.15
v -0.2 -0.3 -0.15
v -0.2 0.1 -0.15
v -0.2 0.6 -0.15
v -0.1 0.1 -0.15
v -0.1 0.2 -0.15
v -0.1 0.4 -0.15
v -0.1 0.6 -0.15
v 0 -0.7 -0.15
v 0 -0.6 -0.15
v 0 -0.5 -0.15
v 0 -0.3 -0.15
v 0 0.1 -0.15
v 0 0.2 -0.15
v 0.1 -0.5 -0.15
v 0.1 0 -0.15
v 0.2 0 -0.15
v 0.2 0.1 -0.15
v 0.2 0.4 -0.15
v 0.2 0.6 -0.15
v 0.3 0.1 -0.15
v 0.3 0.6 -0.15
v -0.2 -0.6 -0.25
v -0.2 -0.3 -0.25
v 0 -0.6 -0.25
v 0 -0.3 -0.25
v -0.2 -0.7 0.15
v 0 -0.7 0.15
v -0.2 -0.7 0.05
v 0 -0.7 0.05
v -0.2 -0.7 -0.05
v 0 -0.7 -0.05
v -0.2 -0.7 -0.15
v 0 -0.7 -0.15
v -0.2 -0.6 0.25
v 0 -0.6 0.25
v -0.2 -0.6 0.15
v 0 -0.6 0.15
v -0.2 -0.6 -0.15
v 0 -0.6 -0.15
v -0.2 -0.6 -0.25
v 0 -0.6 -0.25
v -0.3 -0.5 0.15
v -0.2 -0.5 0.15
v 0 -0.5 0.15
v 0.1 -0.5 0.15
v -0.2 -0.5 0.05
v 0 -0.5 0.05
v -0.2 -0.5 -0.05
v 0 -0.5 -0.05
v -0.3 -0.5 -0.15
v -0.2 -0.5 -0.15
v 0 -0.5 -0.15
v 0.1 -0.5 -0.15
v -0.2 -0.4 0.05
v 0 -0.4 0.05
v -0.2 -0.4 -0.05
v 0 -0.4 -0.05
v 0 0 0.15
v 0.1 0 0.15
v 0 0 0.05
v 0.1 0 0.05
v 0.2 0 0.05
v 0.1 0 -0.15
v 0.2 0 -0.15
v 0.1 0.1 0.15
v 0.2 0.1 0.15
v 0.1 0.1 0.05
v 0.2 0.1 0.05
v 0.3 0.1 0.05
v 0.2 0.1 -0.15
v 0.3 0.1 -0.15
v -0.1 0.2 0.15
v 0 0.2 0.15
v -0.1 0.2 0.05
v 0 0.2 0.05
v -0.1 0.2 -0.05
v 0 0.2 -0.05
v -0.1 0.2 -0.15
v 0 0.2 -0.15
v 0.2 0.3 0.15
v 0.3 0.3 0.15
v 0.2 0.3 0.05
v 0.3 0.3 0.05
v 0 0.6 0.05
v 0.1 0.6 0.05
v 0 0.6 -0.05
v 0.1 0.6 -0.05
v -0.2 -0.3 0.25
v 0 -0.3 0.25
v -0.3 -0.3 0.15
v -0.2 -0.3 0.15
v 0 -0.3 0.15
v 0.1 -0.3 0.15
v -0.3 -0.3 0.05
v -0.2 -0.3 0.05
v 0 -0.3 0.05
v 0.1 -0.3 0.05
v -0.2 -0.3 -0.15
v 0 -0.3 -0.15
v -0.2 -0.3 -0.25
v 0 -0.3 -0.25
v -0.1 0.1 0.15
v 0 0.1 0.15
v -0.3 0.1 0.05
v -0.2 0.1 0.05
v -0.1 0.1 0.05
v 0 0.1 0.05
v -0.1 0.1 -0.05
v 0 0.1 -0.05
v -0.3 0.1 -0.15
v -0.2 0.1 -0.15
v -0.1 0.1 -0.15
v 0 0.1 -0.15
v -0.1 0.4 0.15
v 0.2 0.4 0.15
v -0.1 0.4 0.05
v 0.2 0.4 0.05
v -0.1 0.4 -0.05
v 0.2 0.4 -0.05
v -0.1 0.4 -0.15
v 0.2 0.4 -0.15
v 0 0.5 0.05
v 0.1 0.5 0.05
v 0 0.5 -0.05
v 0.1 0.5 -0.05
v -0.2 0.6 0.15
v -0.1 0.6 0.15
v 0.2 0.6 0.15
v 0.3 0.6 0.15
v -0.1 0.6 0.05
v 0.2 0.6 0.05
v -0.1 0.6 -0.05
v 0.2 0.6 -0.05
v -0.2 0.6 -0.15
v -0.1 0.6 -0.15
v 0.2 0.6 -0.15
v 0.3 0.6 -0.15
v -0.1 0.7 0.05
v 0.2 0.7 0.05
v -0.1 0.7 -0.05
v 0.2 0.7 -0.05

# faces
f 3/3/1 2/3/1 1/3/1
f 4/3/1 2/3/1 3/3/1
f 5/3/1 2/3/1 4/3/1
f 6/3/1 2/3/1 5/3/1
f 12/1/1 8/1/1 7/1/1
f 13/1/1 10/1/1 9/1/1
f 15/1/1 12/1/1 11/1/1
f 15/1/1 8/1/1 12/1/1
f 16/1/1 8/1/1 15/1/1
f 17/1/1 14/1/1 13/1/1
f 17/1/1 13/1/1 9/1/1
f 18/1/1 14/1/1 17/1/1
f 19/1/1 15/1/1 11/1/1
f 20/1/1 15/1/1 19/1/1
f 22/1/1 14/1/1 18/1/1
f 23/1/1 14/1/1 22/1/1
f 24/3/1 21/3/1 20/3/1
f 26/3/1 24/3/1 20/3/1
f 26/3/1 25/3/1 24/3/1
f 27/3/1 25/3/1 26/3/1
f 30/1/1 29/1/1 28/1/1
f 31/1/1 29/1/1 30/1/1
f 34/3/1 33/3/1 32/3/1
f 35/3/1 33/3/1 34/3/1
f 40/3/1 37/3/1 36/3/1
f 41/3/1 37/3/1 40/3/1
f 42/3/1 39/3/1 38/3/1
f 43/3/1 39/3/1 42/3/1
f 46/1/1 45/1/1 44/1/1
f 47/1/1 45/1/1 46/1/1
f 52/3/1 49/3/1 48/3/1
f 53/3/1 49/3/1 52/3/1
f 54/3/1 51/3/1 50/3/1
f 55/3/1 51/3/1 54/3/1
f 56/3/2 57/3/2 58/3/2
f 58/3/2 57/3/2 59/3/2
f 60/3/2 61/3/2 64/3/2
f 64/3/2 61/3/2 65/3/2
f 62/3/2 63/3/2 66/3/2
f 66/3/2 63/3/2 67/3/2
f 68/3/2 69/3/2 72/3/2
f 72/3/2 69/3/2 73/3/2
f 70/3/2 71/3/2 74/3/2
f 74/3/2 71/3/2 75/3/2
f 76/1/2 77/1/2 81/1/2
f 78/1/2 79/1/2 82/1/2
f 80/1/2 81/1/2 84/1/2
f 81/1/2 77/1/2 84/1/2
f 84/1/2 77/1/2 85/1/2
f 82/1/2 83/1/2 86/1/2
f 78/1/2 82/1/2 86/1/2
f 86/1/2 83/1/2 87/1/2
f 80/1/2 84/1/2 88/1/2
f 88/1/2 84/1/2 89/1/2
f 87/1/2 83/1/2 91/1/2
f 91/1/2 83/1/2 92/1/2
f 89/3/2 90/3/2 93/3/2
f 93/3/2 90/3/2 94/3/2
f 95/1/2 96/1/2 97/1/2
f 97/1/2 96/1/2 98/1/2
f 99/3/2 100/3/2 101/3/2
f 101/3/2 100/3/2 102/3/2
f 102/3/2 100/3/2 104/3/2
f 104/3/2 100/3/2 105/3/2
f 103/3/2 104/3/2 106/3/2
f 106/3/2 104/3/2 107/3/2
f 108/3/2 109/3/2 111/3/2
f 111/3/2 109/3/2 112/3/2
f 110/3/2 111/3/2 113/3/2
f 113/3/2 111/3/2 114/3/2
f 115/1/2 116/1/2 117/1/2
f 117/1/2 116/1/2 118/1/2
f 119/3/2 120/3/2 122/3/2
f 121/3/2 122/3/2 123/3/2
f 122/3/2 120/3/2 124/3/2
f 123/3/2 122/3/2 124/3/2
f 127/1/3 126/1/3 125/1/3
f 128/1/3 126/1/3 127/1/3
f 133/3/3 130/3/3 129/3/3
f 134/3/3 130/3/3 133/3/3
f 136/3/3 135/3/3 134/3/3
f 137/3/3 135/3/3 136/3/3
f 138/3/3 135/3/3 137/3/3
f 139/3/3 135/3/3 138/3/3
f 140/1/3 132/1/3 131/1/3
f 141/1/3 132/1/3 140/1/3
f 143/3/3 136/3/3 134/3/3
f 144/3/3 136/3/3 143/3/3
f 145/3/3 136/3/3 144/3/3
f 146/3/3 138/3/3 137/3/3
f 147/3/3 143/3/3 142/3/3
f 148/3/3 143/3/3 147/3/3
f 149/3/3 146/3/3 145/3/3
f 149/3/3 145/3/3 144/3/3
f 150/3/3 146/3/3 149/3/3
f 151/3/3 146/3/3 150/3/3
f 152/3/3 138/3/3 146/3/3
f 152/3/3 146/3/3 151/3/3
f 153/3/3 138/3/3 152/3/3
f 155/3/3 154/3/3 153/3/3
f 155/3/3 153/3/3 152/3/3
f 156/3/3 154/3/3 155/3/3
f 159/3/3 158/3/3 157/3/3
f 160/3/3 158/3/3 159/3/3
f 168/4/3 162/4/3 161/4/3
f 169/4/3 162/4/3 168/4/3
f 170/1/3 164/1/3 163/1/3
f 170/1/3 165/1/3 164/1/3
f 171/1/3 165/1/3 170/1/3
f 172/3/3 167/3/3 166/3/3
f 173/3/3 167/3/3 172/3/3
f 175/1/3 170/1/3 163/1/3
f 176/1/3 165/1/3 171/1/3
f 177/3/3 174/3/3 173/3/3
f 178/3/3 174/3/3 177/3/3
f 180/1/3 175/1/3 163/1/3
f 180/1/3 176/1/3 175/1/3
f 181/1/3 165/1/3 176/1/3
f 181/1/3 176/1/3 180/1/3
f 182/1/3 165/1/3 181/1/3
f 183/3/3 179/3/3 178/3/3
f 184/3/3 179/3/3 183/3/3
f 188/1/3 186/1/3 185/1/3
f 188/1/3 187/1/3 186/1/3
f 189/1/3 187/1/3 188/1/3
f 190/1/3 187/1/3 189/1/3
f 191/1/4 192/1/4 194/1/4
f 192/1/4 193/1/4 194/1/4
f 194/1/4 193/1/4 195/1/4
f 195/1/4 193/1/4 196/1/4
f 197/4/4 198/4/4 202/4/4
f 202/4/4 198/4/4 203/4/4
f 200/1/4 201/1/4 204/1/4
f 199/1/4 200/1/4 204/1/4
f 204/1/4 201/1/4 205/1/4
f 199/1/4 204/1/4 206/1/4
f 205/1/4 201/1/4 207/1/4
f 199/1/4 206/1/4 208/1/4
f 206/1/4 207/1/4 208/1/4
f 207/1/4 201/1/4 209/1/4
f 208/1/4 207/1/4 209/1/4
f 209/1/4 201/1/4 210/1/4
f 211/3/4 212/3/4 215/3/4
f 215/3/4 212/3/4 216/3/4
f 216/3/4 212/3/4 217/3/4
f 217/3/4 218/3/4 219/3/4
f 216/3/4 217/3/4 219/3/4
f 219/3/4 218/3/4 220/3/4
f 220/3/4 218/3/4 221/3/4
f 221/3/4 218/3/4 222/3/4
f 213/1/4 214/1/4 223/1/4
f 223/1/4 214/1/4 224/1/4
f 216/3/4 219/3/4 226/3/4
f 226/3/4 219/3/4 227/3/4
f 220/3/4 221/3/4 228/3/4
f 227/3/4 228/3/4 229/3/4
f 226/3/4 227/3/4 229/3/4
f 225/3/4 226/3/4 229/3/4
f 229/3/4 228/3/4 230/3/4
f 230/3/4 228/3/4 231/3/4
f 231/3/4 228/3/4 232/3/4
f 228/3/4 221/3/4 233/3/4
f 232/3/4 228/3/4 233/3/4
f 233/3/4 234/3/4 235/3/4
f 232/3/4 233/3/4 235/3/4
f 235/3/4 234/3/4 236/3/4
f 237/1/4 238/1/4 239/1/4
f 239/1/4 238/1/4 240/1/4
f 243/1/5 242/1/5 241/1/5
f 244/1/5 242/1/5 243/1/5
f 247/1/5 246/1/5 245/1/5
f 248/1/5 246/1/5 247/1/5
f 251/1/5 250/1/5 249/1/5
f 252/1/5 250/1/5 251/1/5
f 255/1/5 254/1/5 253/1/5
f 256/1/5 254/1/5 255/1/5
f 261/3/5 258/3/5 257/3/5
f 262/3/5 260/3/5 259/3/5
f 263/3/5 261/3/5 257/3/5
f 264/3/5 260/3/5 262/3/5
f 265/3/5 263/3/5 257/3/5
f 266/3/5 263/3/5 265/3/5
f 267/3/5 260/3/5 264/3/5
f 268/3/5 260/3/5 267/3/5
f 271/1/5 270/1/5 269/1/5
f 272/1/5 270/1/5 271/1/5
f 275/3/5 274/3/5 273/3/5
f 276/3/5 274/3/5 275/3/5
f 278/3/5 277/3/5 276/3/5
f 279/3/5 277/3/5 278/3/5
f 282/3/5 281/3/5 280/3/5
f 283/3/5 281/3/5 282/3/5
f 285/3/5 284/3/5 283/3/5
f 286/3/5 284/3/5 285/3/5
f 289/3/5 288/3/5 287/3/5
f 290/3/5 288/3/5 289/3/5
f 293/3/5 292/3/5 291/3/5
f 294/3/5 292/3/5 293/3/5
f 297/3/5 296/3/5 295/3/5
f 298/3/5 296/3/5 297/3/5
f 301/1/5 300/1/5 299/1/5
f 302/1/5 300/1/5 301/1/5
f 303/1/6 304/1/6 306/1/6
f 306/1/6 304/1/6 307/1/6
f 305/3/6 306/3/6 309/3/6
f 309/3/6 306/3/6 310/3/6
f 307/3/6 308/3/6 311/3/6
f 311/3/6 308/3/6 312/3/6
f 313/1/6 314/1/6 315/1/6
f 315/1/6 314/1/6 316/1/6
f 317/3/6 318/3/6 321/3/6
f 321/3/6 318/3/6 322/3/6
f 319/3/6 320/3/6 325/3/6
f 325/3/6 320/3/6 326/3/6
f 323/3/6 324/3/6 327/3/6
f 327/3/6 324/3/6 328/3/6
f 329/3/6 330/3/6 331/3/6
f 331/3/6 330/3/6 332/3/6
f 333/3/6 334/3/6 335/3/6
f 335/3/6 334/3/6 336/3/6
f 337/1/6 338/1/6 339/1/6
f 339/1/6 338/1/6 340/1/6
f 341/3/6 342/3/6 345/3/6
f 343/3/6 344/3/6 346/3/6
f 341/3/6 345/3/6 347/3/6
f 346/3/6 344/3/6 348/3/6
f 341/3/6 347/3/6 349/3/6
f 349/3/6 347/3/6 350/3/6
f 348/3/6 344/3/6 351/3/6
f 351/3/6 344/3/6 352/3/6
f 353/1/6 354/1/6 355/1/6
f 355/1/6 354/1/6 356/1/6
