# MagicaVoxel @ Ephtracy

# group
o 

# material
mtllib Leg-55.mtl
usemtl palette

# normals
vn -1 0 0
vn 1 0 0
vn 0 0 1
vn 0 0 -1
vn 0 -1 0
vn 0 1 0

# texcoords
vt 0.708984 0.5
vt 0.712891 0.5
vt 0.833984 0.5

# verts
v -0.35 -0.2 0.05
v -0.35 -0.2 -0.05
v -0.35 0.4 -0.05
v -0.35 0.4 -0.15
v -0.35 0.5 0.05
v -0.35 0.5 -0.15
v -0.25 -0.2 -0.05
v -0.25 -0.2 -0.15
v -0.25 -0.2 -0.25
v -0.25 -0.2 -0.35
v -0.25 -0.1 0.15
v -0.25 -0.1 0.05
v -0.25 0.1 -0.15
v -0.25 0.1 -0.25
v -0.25 0.3 0.15
v -0.25 0.3 0.05
v -0.25 0.3 -0.25
v -0.25 0.3 -0.35
v -0.25 0.4 -0.05
v -0.25 0.4 -0.15
v -0.25 0.4 -0.25
v -0.15 -0.4 0.05
v -0.15 -0.4 -0.05
v -0.15 -0.2 0.05
v -0.15 -0.2 -0.05
v -0.15 -0.2 -0.15
v -0.15 -0.2 -0.25
v -0.15 -0.1 -0.35
v -0.15 -0.1 -0.45
v -0.15 0 0.35
v -0.15 0 0.15
v -0.15 0 -0.35
v -0.15 0 -0.45
v -0.15 0.1 -0.15
v -0.15 0.1 -0.25
v -0.15 0.2 0.35
v -0.15 0.2 0.15
v -0.15 0.3 -0.25
v -0.15 0.3 -0.35
v -0.15 0.4 -0.25
v -0.15 0.4 -0.35
v -0.05 -0.5 -0.35
v -0.05 -0.5 -0.45
v -0.05 -0.3 -0.05
v -0.05 -0.3 -0.15
v -0.05 -0.3 -0.25
v -0.05 -0.3 -0.35
v -0.05 -0.2 -0.05
v -0.05 -0.2 -0.15
v -0.05 -0.2 -0.25
v -0.05 -0.2 -0.35
v -0.05 -0.1 -0.35
v -0.05 -0.1 -0.45
v -0.05 0 -0.25
v -0.05 0 -0.35
v -0.05 0.1 -0.25
v -0.05 0.1 -0.35
v 0.05 -0.5 -0.25
v 0.05 -0.5 -0.35
v 0.05 -0.4 -0.25
v 0.05 -0.4 -0.35
v 0.05 0.2 0.45
v 0.05 0.2 0.35
v 0.05 0.2 0.25
v 0.05 0.2 0.15
v 0.05 0.3 0.45
v 0.05 0.3 0.15
v 0.15 0.1 0.45
v 0.15 0.1 0.35
v 0.15 0.1 0.25
v 0.15 0.1 0.15
v 0.15 0.2 0.45
v 0.15 0.2 0.35
v 0.15 0.2 0.25
v 0.15 0.2 0.15
v 0.25 0.3 0.35
v 0.25 0.3 0.25
v 0.25 0.4 0.45
v 0.25 0.4 0.35
v 0.25 0.4 0.25
v 0.25 0.4 0.15
v 0.25 0.5 0.45
v 0.25 0.5 0.15
v -0.15 0 -0.25
v -0.15 0 -0.35
v -0.15 0.1 -0.25
v -0.15 0.1 -0.35
v -0.05 -0.2 -0.15
v -0.05 -0.2 -0.25
v -0.05 0 0.25
v -0.05 0 0.15
v -0.05 0.1 -0.15
v -0.05 0.1 -0.25
v -0.05 0.2 0.25
v -0.05 0.2 0.15
v -0.05 0.3 -0.25
v -0.05 0.3 -0.35
v -0.05 0.4 -0.25
v -0.05 0.4 -0.35
v 0.05 -0.4 -0.35
v 0.05 -0.4 -0.45
v 0.05 -0.3 -0.05
v 0.05 -0.3 -0.15
v 0.05 -0.3 -0.25
v 0.05 -0.3 -0.35
v 0.05 -0.1 0.15
v 0.05 -0.1 0.05
v 0.05 0 -0.35
v 0.05 0 -0.45
v 0.05 0.1 -0.15
v 0.05 0.1 -0.25
v 0.05 0.2 0.15
v 0.05 0.3 0.15
v 0.05 0.3 0.05
v 0.05 0.3 -0.25
v 0.05 0.3 -0.35
v 0.05 0.4 -0.05
v 0.05 0.4 -0.15
v 0.05 0.4 -0.25
v 0.15 -0.5 -0.25
v 0.15 -0.5 -0.45
v 0.15 -0.4 0.05
v 0.15 -0.4 -0.05
v 0.15 -0.4 -0.25
v 0.15 -0.4 -0.45
v 0.15 0.2 0.45
v 0.15 0.2 0.35
v 0.15 0.2 0.25
v 0.15 0.2 0.15
v 0.15 0.3 0.45
v 0.15 0.3 0.35
v 0.15 0.3 0.25
v 0.15 0.3 0.15
v 0.15 0.4 -0.05
v 0.15 0.4 -0.15
v 0.15 0.5 0.05
v 0.15 0.5 -0.15
v 0.25 0 0.35
v 0.25 0 0.25
v 0.25 0.1 0.45
v 0.25 0.1 0.35
v 0.25 0.1 0.25
v 0.25 0.1 0.15
v 0.25 0.2 0.45
v 0.25 0.2 0.35
v 0.25 0.2 0.25
v 0.25 0.2 0.15
v 0.35 0.1 0.35
v 0.35 0.1 0.25
v 0.35 0.4 0.45
v 0.35 0.4 0.35
v 0.35 0.4 0.25
v 0.35 0.4 0.15
v 0.35 0.5 0.45
v 0.35 0.5 0.15
v 0.05 0.2 0.45
v 0.05 0.3 0.45
v 0.15 0.1 0.45
v 0.15 0.2 0.45
v 0.15 0.3 0.45
v 0.25 0.1 0.45
v 0.25 0.2 0.45
v 0.25 0.4 0.45
v 0.25 0.5 0.45
v 0.35 0.4 0.45
v 0.35 0.5 0.45
v -0.15 0 0.35
v -0.15 0.2 0.35
v 0.05 0.2 0.35
v 0.15 0.1 0.35
v 0.15 0.2 0.35
v 0.15 0.3 0.35
v 0.25 0 0.35
v 0.25 0.1 0.35
v 0.25 0.2 0.35
v 0.25 0.3 0.35
v 0.25 0.4 0.35
v 0.35 0.1 0.35
v 0.35 0.4 0.35
v -0.25 -0.1 0.15
v -0.25 0.3 0.15
v -0.15 0 0.15
v -0.15 0.2 0.15
v -0.05 0 0.15
v -0.05 0.2 0.15
v 0.05 -0.1 0.15
v 0.05 0.2 0.15
v 0.05 0.3 0.15
v -0.35 -0.2 0.05
v -0.35 0.5 0.05
v -0.25 -0.1 0.05
v -0.25 0.3 0.05
v -0.15 -0.4 0.05
v -0.15 -0.2 0.05
v 0.05 -0.1 0.05
v 0.05 0.3 0.05
v 0.15 -0.4 0.05
v 0.15 0.5 0.05
v -0.25 -0.2 -0.25
v -0.25 0.1 -0.25
v -0.15 -0.2 -0.25
v -0.15 0.1 -0.25
v -0.05 -0.3 -0.25
v -0.05 -0.2 -0.25
v -0.05 0.1 -0.25
v 0.05 -0.5 -0.25
v 0.05 -0.4 -0.25
v 0.05 -0.3 -0.25
v 0.05 0.1 -0.25
v 0.15 -0.5 -0.25
v 0.15 -0.4 -0.25
v -0.05 -0.5 -0.35
v -0.05 -0.3 -0.35
v 0.05 -0.5 -0.35
v 0.05 -0.4 -0.35
v 0.05 -0.3 -0.35
v -0.05 0 0.25
v -0.05 0.2 0.25
v 0.05 0.2 0.25
v 0.15 0.1 0.25
v 0.15 0.2 0.25
v 0.15 0.3 0.25
v 0.25 0 0.25
v 0.25 0.1 0.25
v 0.25 0.2 0.25
v 0.25 0.3 0.25
v 0.25 0.4 0.25
v 0.35 0.1 0.25
v 0.35 0.4 0.25
v 0.05 0.2 0.15
v 0.05 0.3 0.15
v 0.15 0.1 0.15
v 0.15 0.2 0.15
v 0.15 0.3 0.15
v 0.25 0.1 0.15
v 0.25 0.2 0.15
v 0.25 0.4 0.15
v 0.25 0.5 0.15
v 0.35 0.4 0.15
v 0.35 0.5 0.15
v -0.35 -0.2 -0.05
v -0.35 0.4 -0.05
v -0.25 -0.2 -0.05
v -0.25 0.4 -0.05
v -0.15 -0.4 -0.05
v -0.15 -0.2 -0.05
v -0.05 -0.3 -0.05
v -0.05 -0.2 -0.05
v 0.05 -0.3 -0.05
v 0.05 0.4 -0.05
v 0.15 -0.4 -0.05
v 0.15 0.4 -0.05
v -0.35 0.4 -0.15
v -0.35 0.5 -0.15
v -0.25 -0.2 -0.15
v -0.25 0.1 -0.15
v -0.25 0.4 -0.15
v -0.15 -0.2 -0.15
v -0.15 0.1 -0.15
v -0.05 -0.3 -0.15
v -0.05 -0.2 -0.15
v -0.05 0.1 -0.15
v 0.05 -0.3 -0.15
v 0.05 0.1 -0.15
v 0.05 0.4 -0.15
v 0.15 0.4 -0.15
v 0.15 0.5 -0.15
v -0.25 0.3 -0.25
v -0.25 0.4 -0.25
v -0.15 0 -0.25
v -0.15 0.1 -0.25
v -0.15 0.3 -0.25
v -0.15 0.4 -0.25
v -0.05 0 -0.25
v -0.05 0.1 -0.25
v -0.05 0.3 -0.25
v -0.05 0.4 -0.25
v 0.05 0.3 -0.25
v 0.05 0.4 -0.25
v -0.25 -0.2 -0.35
v -0.25 0.3 -0.35
v -0.15 -0.1 -0.35
v -0.15 0 -0.35
v -0.15 0.1 -0.35
v -0.15 0.3 -0.35
v -0.15 0.4 -0.35
v -0.05 -0.2 -0.35
v -0.05 -0.1 -0.35
v -0.05 0 -0.35
v -0.05 0.1 -0.35
v -0.05 0.3 -0.35
v -0.05 0.4 -0.35
v 0.05 0 -0.35
v 0.05 0.3 -0.35
v -0.15 -0.1 -0.45
v -0.15 0 -0.45
v -0.05 -0.5 -0.45
v -0.05 -0.1 -0.45
v 0.05 -0.4 -0.45
v 0.05 0 -0.45
v 0.15 -0.5 -0.45
v 0.15 -0.4 -0.45
v 0.05 -0.5 -0.25
v 0.15 -0.5 -0.25
v -0.05 -0.5 -0.35
v 0.05 -0.5 -0.35
v -0.05 -0.5 -0.45
v 0.15 -0.5 -0.45
v -0.15 -0.4 0.05
v 0.15 -0.4 0.05
v -0.15 -0.4 -0.05
v 0.15 -0.4 -0.05
v -0.05 -0.3 -0.05
v 0.05 -0.3 -0.05
v -0.05 -0.3 -0.15
v 0.05 -0.3 -0.15
v -0.05 -0.3 -0.25
v 0.05 -0.3 -0.25
v -0.05 -0.3 -0.35
v 0.05 -0.3 -0.35
v -0.35 -0.2 0.05
v -0.15 -0.2 0.05
v -0.35 -0.2 -0.05
v -0.25 -0.2 -0.05
v -0.15 -0.2 -0.05
v -0.05 -0.2 -0.05
v -0.25 -0.2 -0.15
v -0.15 -0.2 -0.15
v -0.05 -0.2 -0.15
v -0.25 -0.2 -0.25
v -0.15 -0.2 -0.25
v -0.05 -0.2 -0.25
v -0.25 -0.2 -0.35
v -0.05 -0.2 -0.35
v -0.25 -0.1 0.15
v 0.05 -0.1 0.15
v -0.25 -0.1 0.05
v 0.05 -0.1 0.05
v -0.15 -0.1 -0.35
v -0.05 -0.1 -0.35
v -0.15 -0.1 -0.45
v -0.05 -0.1 -0.45
v -0.15 0 0.35
v 0.25 0 0.35
v -0.05 0 0.25
v 0.25 0 0.25
v -0.15 0 0.15
v -0.05 0 0.15
v 0.15 0.1 0.45
v 0.25 0.1 0.45
v 0.15 0.1 0.35
v 0.25 0.1 0.35
v 0.35 0.1 0.35
v 0.15 0.1 0.25
v 0.25 0.1 0.25
v 0.35 0.1 0.25
v 0.15 0.1 0.15
v 0.25 0.1 0.15
v -0.25 0.1 -0.15
v -0.15 0.1 -0.15
v -0.05 0.1 -0.15
v 0.05 0.1 -0.15
v -0.25 0.1 -0.25
v -0.15 0.1 -0.25
v -0.05 0.1 -0.25
v 0.05 0.1 -0.25
v -0.15 0.1 -0.35
v -0.05 0.1 -0.35
v 0.05 0.2 0.45
v 0.15 0.2 0.45
v 0.05 0.2 0.35
v 0.15 0.2 0.35
v 0.05 0.2 0.25
v 0.15 0.2 0.25
v 0.05 0.2 0.15
v 0.15 0.2 0.15
v 0.25 0.4 0.45
v 0.35 0.4 0.45
v 0.25 0.4 0.35
v 0.35 0.4 0.35
v 0.25 0.4 0.25
v 0.35 0.4 0.25
v 0.25 0.4 0.15
v 0.35 0.4 0.15
v -0.35 0.4 -0.05
v -0.25 0.4 -0.05
v 0.05 0.4 -0.05
v 0.15 0.4 -0.05
v -0.35 0.4 -0.15
v -0.25 0.4 -0.15
v 0.05 0.4 -0.15
v 0.15 0.4 -0.15
v 0.05 -0.4 -0.25
v 0.15 -0.4 -0.25
v 0.05 -0.4 -0.35
v 0.05 -0.4 -0.45
v 0.15 -0.4 -0.45
v -0.15 0 -0.25
v -0.05 0 -0.25
v -0.15 0 -0.35
v -0.05 0 -0.35
v 0.05 0 -0.35
v -0.15 0 -0.45
v 0.05 0 -0.45
v 0.15 0.2 0.45
v 0.25 0.2 0.45
v -0.15 0.2 0.35
v 0.05 0.2 0.35
v 0.15 0.2 0.35
v 0.25 0.2 0.35
v -0.05 0.2 0.25
v 0.05 0.2 0.25
v 0.15 0.2 0.25
v 0.25 0.2 0.25
v -0.15 0.2 0.15
v -0.05 0.2 0.15
v 0.15 0.2 0.15
v 0.25 0.2 0.15
v 0.05 0.3 0.45
v 0.15 0.3 0.45
v 0.15 0.3 0.35
v 0.25 0.3 0.35
v 0.15 0.3 0.25
v 0.25 0.3 0.25
v -0.25 0.3 0.15
v 0.05 0.3 0.15
v 0.15 0.3 0.15
v -0.25 0.3 0.05
v 0.05 0.3 0.05
v -0.25 0.3 -0.25
v -0.15 0.3 -0.25
v -0.05 0.3 -0.25
v 0.05 0.3 -0.25
v -0.25 0.3 -0.35
v -0.15 0.3 -0.35
v -0.05 0.3 -0.35
v 0.05 0.3 -0.35
v -0.25 0.4 -0.15
v 0.05 0.4 -0.15
v -0.25 0.4 -0.25
v -0.15 0.4 -0.25
v -0.05 0.4 -0.25
v 0.05 0.4 -0.25
v -0.15 0.4 -0.35
v -0.05 0.4 -0.35
v 0.25 0.5 0.45
v 0.35 0.5 0.45
v 0.25 0.5 0.15
v 0.35 0.5 0.15
v -0.35 0.5 0.05
v 0.15 0.5 0.05
v -0.35 0.5 -0.15
v 0.15 0.5 -0.15

# faces
f 3/3/1 2/3/1 1/3/1
f 5/3/1 3/3/1 1/3/1
f 5/3/1 4/3/1 3/3/1
f 6/3/1 4/3/1 5/3/1
f 13/1/1 8/1/1 7/1/1
f 14/1/1 10/1/1 9/1/1
f 15/1/1 12/1/1 11/1/1
f 16/1/1 12/1/1 15/1/1
f 17/1/1 14/1/1 13/1/1
f 17/1/1 10/1/1 14/1/1
f 18/1/1 10/1/1 17/1/1
f 19/1/1 13/1/1 7/1/1
f 19/1/1 17/1/1 13/1/1
f 20/1/1 17/1/1 19/1/1
f 21/1/1 17/1/1 20/1/1
f 24/3/1 23/3/1 22/3/1
f 25/3/1 23/3/1 24/3/1
f 32/2/1 29/2/1 28/2/1
f 33/2/1 29/2/1 32/2/1
f 34/1/1 27/1/1 26/1/1
f 35/1/1 27/1/1 34/1/1
f 36/2/1 31/2/1 30/2/1
f 37/2/1 31/2/1 36/2/1
f 40/1/1 39/1/1 38/1/1
f 41/1/1 39/1/1 40/1/1
f 47/2/1 43/2/1 42/2/1
f 48/1/1 45/1/1 44/1/1
f 49/1/1 45/1/1 48/1/1
f 50/1/1 47/1/1 46/1/1
f 51/2/1 43/2/1 47/2/1
f 51/1/1 47/1/1 50/1/1
f 52/2/1 43/2/1 51/2/1
f 53/2/1 43/2/1 52/2/1
f 56/1/1 55/1/1 54/1/1
f 57/1/1 55/1/1 56/1/1
f 60/2/1 59/2/1 58/2/1
f 61/2/1 59/2/1 60/2/1
f 66/1/1 63/1/1 62/1/1
f 66/1/1 65/1/1 64/1/1
f 66/1/1 64/1/1 63/1/1
f 67/1/1 65/1/1 66/1/1
f 72/1/1 69/1/1 68/1/1
f 73/1/1 69/1/1 72/1/1
f 74/1/1 71/1/1 70/1/1
f 75/1/1 71/1/1 74/1/1
f 79/2/1 77/2/1 76/2/1
f 80/2/1 77/2/1 79/2/1
f 82/2/1 79/2/1 78/2/1
f 82/2/1 81/2/1 80/2/1
f 82/2/1 80/2/1 79/2/1
f 83/2/1 81/2/1 82/2/1
f 84/1/2 85/1/2 86/1/2
f 86/1/2 85/1/2 87/1/2
f 88/1/2 89/1/2 92/1/2
f 92/1/2 89/1/2 93/1/2
f 90/2/2 91/2/2 94/2/2
f 94/2/2 91/2/2 95/2/2
f 96/1/2 97/1/2 98/1/2
f 98/1/2 97/1/2 99/1/2
f 100/2/2 101/2/2 105/2/2
f 105/2/2 101/2/2 108/2/2
f 104/1/2 105/1/2 108/1/2
f 108/2/2 101/2/2 109/2/2
f 102/1/2 103/1/2 110/1/2
f 104/1/2 108/1/2 111/1/2
f 106/1/2 107/1/2 112/1/2
f 112/1/2 107/1/2 113/1/2
f 113/1/2 107/1/2 114/1/2
f 110/1/2 111/1/2 115/1/2
f 111/1/2 108/1/2 115/1/2
f 115/1/2 108/1/2 116/1/2
f 102/1/2 110/1/2 117/1/2
f 110/1/2 115/1/2 117/1/2
f 117/1/2 115/1/2 118/1/2
f 118/1/2 115/1/2 119/1/2
f 120/2/2 121/2/2 124/2/2
f 124/2/2 121/2/2 125/2/2
f 126/1/2 127/1/2 130/1/2
f 130/1/2 127/1/2 131/1/2
f 128/1/2 129/1/2 132/1/2
f 132/1/2 129/1/2 133/1/2
f 122/3/2 123/3/2 134/3/2
f 122/3/2 134/3/2 136/3/2
f 134/3/2 135/3/2 136/3/2
f 136/3/2 135/3/2 137/3/2
f 138/2/2 139/2/2 141/2/2
f 141/2/2 139/2/2 142/2/2
f 140/1/2 141/1/2 144/1/2
f 144/1/2 141/1/2 145/1/2
f 142/1/2 143/1/2 146/1/2
f 146/1/2 143/1/2 147/1/2
f 148/2/2 149/2/2 151/2/2
f 151/2/2 149/2/2 152/2/2
f 150/2/2 151/2/2 154/2/2
f 152/2/2 153/2/2 154/2/2
f 151/2/2 152/2/2 154/2/2
f 154/2/2 153/2/2 155/2/2
f 159/1/3 157/1/3 156/1/3
f 160/1/3 157/1/3 159/1/3
f 161/1/3 159/1/3 158/1/3
f 162/1/3 159/1/3 161/1/3
f 165/2/3 164/2/3 163/2/3
f 166/2/3 164/2/3 165/2/3
f 169/2/3 168/2/3 167/2/3
f 170/2/3 169/2/3 167/2/3
f 171/2/3 169/2/3 170/2/3
f 173/2/3 170/2/3 167/2/3
f 174/2/3 170/2/3 173/2/3
f 175/2/3 172/2/3 171/2/3
f 176/2/3 172/2/3 175/2/3
f 178/2/3 177/2/3 176/2/3
f 178/2/3 176/2/3 175/2/3
f 178/2/3 175/2/3 174/2/3
f 179/2/3 177/2/3 178/2/3
f 182/1/3 181/1/3 180/1/3
f 183/1/3 181/1/3 182/1/3
f 184/1/3 182/1/3 180/1/3
f 185/1/3 181/1/3 183/1/3
f 186/1/3 184/1/3 180/1/3
f 186/1/3 185/1/3 184/1/3
f 187/1/3 181/1/3 185/1/3
f 187/1/3 185/1/3 186/1/3
f 188/1/3 181/1/3 187/1/3
f 191/3/3 190/3/3 189/3/3
f 192/3/3 190/3/3 191/3/3
f 194/3/3 191/3/3 189/3/3
f 195/3/3 191/3/3 194/3/3
f 195/3/3 194/3/3 193/3/3
f 196/3/3 190/3/3 192/3/3
f 197/3/3 195/3/3 193/3/3
f 197/3/3 196/3/3 195/3/3
f 198/3/3 190/3/3 196/3/3
f 198/3/3 196/3/3 197/3/3
f 201/1/3 200/1/3 199/1/3
f 202/1/3 200/1/3 201/1/3
f 208/1/3 204/1/3 203/1/3
f 208/1/3 205/1/3 204/1/3
f 209/1/3 205/1/3 208/1/3
f 210/2/3 207/2/3 206/2/3
f 211/2/3 207/2/3 210/2/3
f 214/2/3 213/2/3 212/2/3
f 215/2/3 213/2/3 214/2/3
f 216/2/3 213/2/3 215/2/3
f 217/2/4 218/2/4 219/2/4
f 217/2/4 219/2/4 220/2/4
f 220/2/4 219/2/4 221/2/4
f 217/2/4 220/2/4 223/2/4
f 223/2/4 220/2/4 224/2/4
f 221/2/4 222/2/4 225/2/4
f 225/2/4 222/2/4 226/2/4
f 226/2/4 227/2/4 228/2/4
f 225/2/4 226/2/4 228/2/4
f 224/2/4 225/2/4 228/2/4
f 228/2/4 227/2/4 229/2/4
f 230/1/4 231/1/4 233/1/4
f 233/1/4 231/1/4 234/1/4
f 232/1/4 233/1/4 235/1/4
f 235/1/4 233/1/4 236/1/4
f 237/2/4 238/2/4 239/2/4
f 239/2/4 238/2/4 240/2/4
f 241/3/4 242/3/4 243/3/4
f 243/3/4 242/3/4 244/3/4
f 245/3/4 246/3/4 247/3/4
f 247/3/4 246/3/4 248/3/4
f 245/3/4 247/3/4 249/3/4
f 245/3/4 249/3/4 251/3/4
f 249/3/4 250/3/4 251/3/4
f 251/3/4 250/3/4 252/3/4
f 253/3/4 254/3/4 257/3/4
f 255/1/4 256/1/4 258/1/4
f 258/1/4 256/1/4 259/1/4
f 260/1/4 261/1/4 263/1/4
f 261/1/4 262/1/4 263/1/4
f 263/1/4 262/1/4 264/1/4
f 257/3/4 254/3/4 265/3/4
f 265/3/4 254/3/4 266/3/4
f 266/3/4 254/3/4 267/3/4
f 268/1/4 269/1/4 272/1/4
f 272/1/4 269/1/4 273/1/4
f 270/1/4 271/1/4 274/1/4
f 274/1/4 271/1/4 275/1/4
f 276/1/4 277/1/4 278/1/4
f 278/1/4 277/1/4 279/1/4
f 280/1/4 281/1/4 282/1/4
f 282/1/4 281/1/4 283/1/4
f 283/1/4 281/1/4 284/1/4
f 284/1/4 281/1/4 285/1/4
f 280/1/4 282/1/4 287/1/4
f 287/1/4 282/1/4 288/1/4
f 285/1/4 286/1/4 290/1/4
f 284/1/4 285/1/4 290/1/4
f 290/1/4 286/1/4 291/1/4
f 291/1/4 286/1/4 292/1/4
f 289/1/4 290/1/4 293/1/4
f 290/1/4 291/1/4 293/1/4
f 293/1/4 291/1/4 294/1/4
f 295/2/4 296/2/4 298/2/4
f 297/2/4 298/2/4 299/2/4
f 298/2/4 296/2/4 300/2/4
f 299/2/4 298/2/4 300/2/4
f 297/2/4 299/2/4 301/2/4
f 301/2/4 299/2/4 302/2/4
f 306/2/5 304/2/5 303/2/5
f 307/2/5 306/2/5 305/2/5
f 308/2/5 304/2/5 306/2/5
f 308/2/5 306/2/5 307/2/5
f 311/3/5 310/3/5 309/3/5
f 312/3/5 310/3/5 311/3/5
f 315/1/5 314/1/5 313/1/5
f 316/1/5 314/1/5 315/1/5
f 319/1/5 318/1/5 317/1/5
f 320/1/5 318/1/5 319/1/5
f 323/3/5 322/3/5 321/3/5
f 324/3/5 322/3/5 323/3/5
f 325/3/5 322/3/5 324/3/5
f 327/1/5 326/1/5 325/1/5
f 327/1/5 325/1/5 324/1/5
f 328/1/5 326/1/5 327/1/5
f 329/1/5 326/1/5 328/1/5
f 331/1/5 329/1/5 328/1/5
f 332/1/5 329/1/5 331/1/5
f 333/1/5 331/1/5 330/1/5
f 333/1/5 332/1/5 331/1/5
f 334/1/5 332/1/5 333/1/5
f 337/1/5 336/1/5 335/1/5
f 338/1/5 336/1/5 337/1/5
f 341/2/5 340/2/5 339/2/5
f 342/2/5 340/2/5 341/2/5
f 345/2/5 344/2/5 343/2/5
f 346/2/5 344/2/5 345/2/5
f 347/2/5 345/2/5 343/2/5
f 348/2/5 345/2/5 347/2/5
f 351/1/5 350/1/5 349/1/5
f 352/1/5 350/1/5 351/1/5
f 355/2/5 353/2/5 352/2/5
f 356/2/5 353/2/5 355/2/5
f 357/1/5 355/1/5 354/1/5
f 358/1/5 355/1/5 357/1/5
f 363/1/5 360/1/5 359/1/5
f 364/1/5 360/1/5 363/1/5
f 365/1/5 362/1/5 361/1/5
f 366/1/5 362/1/5 365/1/5
f 367/1/5 365/1/5 364/1/5
f 368/1/5 365/1/5 367/1/5
f 371/1/5 370/1/5 369/1/5
f 372/1/5 370/1/5 371/1/5
f 375/1/5 374/1/5 373/1/5
f 376/1/5 374/1/5 375/1/5
f 379/2/5 378/2/5 377/2/5
f 380/2/5 378/2/5 379/2/5
f 383/2/5 382/2/5 381/2/5
f 384/2/5 382/2/5 383/2/5
f 389/3/5 386/3/5 385/3/5
f 390/3/5 386/3/5 389/3/5
f 391/3/5 388/3/5 387/3/5
f 392/3/5 388/3/5 391/3/5
f 393/2/6 394/2/6 395/2/6
f 395/2/6 394/2/6 396/2/6
f 396/2/6 394/2/6 397/2/6
f 398/2/6 399/2/6 400/2/6
f 400/2/6 399/2/6 401/2/6
f 400/2/6 401/2/6 403/2/6
f 401/2/6 402/2/6 403/2/6
f 403/2/6 402/2/6 404/2/6
f 405/1/6 406/1/6 409/1/6
f 409/1/6 406/1/6 410/1/6
f 407/2/6 408/2/6 411/2/6
f 411/2/6 408/2/6 412/2/6
f 407/2/6 411/2/6 415/2/6
f 415/2/6 411/2/6 416/2/6
f 413/1/6 414/1/6 417/1/6
f 417/1/6 414/1/6 418/1/6
f 419/1/6 420/1/6 421/1/6
f 419/1/6 421/1/6 423/1/6
f 421/2/6 422/2/6 423/2/6
f 423/2/6 422/2/6 424/2/6
f 419/1/6 423/1/6 426/1/6
f 426/1/6 423/1/6 427/1/6
f 425/1/6 426/1/6 428/1/6
f 428/1/6 426/1/6 429/1/6
f 430/1/6 431/1/6 434/1/6
f 434/1/6 431/1/6 435/1/6
f 432/1/6 433/1/6 436/1/6
f 436/1/6 433/1/6 437/1/6
f 438/1/6 439/1/6 440/1/6
f 440/1/6 439/1/6 441/1/6
f 441/1/6 439/1/6 442/1/6
f 442/1/6 439/1/6 443/1/6
f 441/1/6 442/1/6 444/1/6
f 444/1/6 442/1/6 445/1/6
f 446/2/6 447/2/6 448/2/6
f 448/2/6 447/2/6 449/2/6
f 450/3/6 451/3/6 452/3/6
f 452/3/6 451/3/6 453/3/6
