# MagicaVoxel @ Ephtracy

# group
o 

# material
mtllib Leg-34.mtl
usemtl palette

# normals
vn -1 0 0
vn 1 0 0
vn 0 0 1
vn 0 0 -1
vn 0 -1 0
vn 0 1 0

# texcoords
vt 0.705078 0.5
vt 0.908203 0.5
vt 0.912109 0.5
vt 0.982422 0.5

# verts
v -0.3 -0.3 0.5
v -0.3 -0.3 0.1
v -0.3 -0.3 -0.1
v -0.3 -0.3 -0.3
v -0.3 -0.2 0.5
v -0.3 -0.2 0.4
v -0.3 -0.2 0.3
v -0.3 -0.2 0.2
v -0.3 -0.2 0.1
v -0.3 -0.2 -0.1
v -0.3 -0.2 -0.3
v -0.3 -0.1 0.4
v -0.3 -0.1 0.3
v -0.3 -0.1 0.2
v -0.3 -0.1 0.1
v -0.3 0 0.3
v -0.3 0 -0.3
v -0.3 0.1 0
v -0.3 0.1 -0.3
v -0.3 0.2 0.3
v -0.3 0.2 0.2
v -0.3 0.2 -0.1
v -0.3 0.2 -0.3
v -0.3 0.3 0.3
v -0.3 0.3 0.2
v -0.3 0.3 0
v -0.3 0.3 -0.1
v -0.3 0.3 -0.3
v -0.2 -0.2 0.3
v -0.2 -0.2 0.2
v -0.2 -0.2 -0.1
v -0.2 -0.2 -0.3
v -0.2 -0.1 0.3
v -0.2 -0.1 0.2
v -0.2 -0.1 -0.1
v -0.2 -0.1 -0.3
v -0.2 0 0.4
v -0.2 0 0.3
v -0.2 0 -0.3
v -0.2 0 -0.4
v -0.2 0.1 0.4
v -0.2 0.1 0.3
v -0.2 0.1 -0.3
v -0.2 0.2 0.3
v -0.2 0.2 -0.3
v -0.2 0.3 0.4
v -0.2 0.3 0.3
v -0.2 0.3 -0.3
v -0.2 0.3 -0.4
v -0.1 -0.3 -0.3
v -0.1 -0.3 -0.5
v -0.1 -0.2 -0.3
v -0.1 -0.2 -0.4
v -0.1 -0.2 -0.5
v -0.1 -0.1 0.3
v -0.1 -0.1 0.1
v -0.1 -0.1 -0.1
v -0.1 -0.1 -0.3
v -0.1 -0.1 -0.4
v -0.1 0 0.3
v -0.1 0 0.1
v -0.1 0 -0.1
v -0.1 0 -0.3
v -0.1 0.1 0.3
v -0.1 0.1 -0.3
v -0.1 0.2 0.1
v -0.1 0.2 -0.1
v -0.1 0.3 0.1
v -0.1 0.3 -0.1
v 0.1 -0.3 0.5
v 0.1 -0.3 0.1
v 0.1 -0.3 -0.1
v 0.1 -0.3 -0.2
v 0.1 -0.3 -0.3
v 0.1 -0.2 0.5
v 0.1 -0.2 0.4
v 0.1 -0.2 0.3
v 0.1 -0.2 0.1
v 0.1 -0.2 -0.1
v 0.1 -0.2 -0.2
v 0.1 -0.2 -0.3
v 0.1 -0.1 0.4
v 0.1 -0.1 0.3
v 0.1 0.1 0.2
v 0.1 0.1 0.1
v 0.1 0.1 -0.1
v 0.1 0.1 -0.2
v 0.1 0.2 0.2
v 0.1 0.2 0.1
v 0.1 0.2 -0.1
v 0.1 0.2 -0.2
v -0.2 0 0.3
v -0.2 0 -0.3
v -0.2 0.1 0.3
v -0.2 0.1 -0.3
v -0.2 0.2 0.3
v -0.2 0.2 0.2
v -0.2 0.2 0
v -0.2 0.2 -0.1
v -0.2 0.2 -0.3
v -0.2 0.3 0.3
v -0.2 0.3 0.2
v -0.2 0.3 0
v -0.2 0.3 -0.1
v -0.2 0.3 -0.3
v -0.1 -0.3 0.5
v -0.1 -0.3 0.1
v -0.1 -0.3 -0.1
v -0.1 -0.3 -0.3
v -0.1 -0.2 0.5
v -0.1 -0.2 0.4
v -0.1 -0.2 0.3
v -0.1 -0.2 0.1
v -0.1 -0.2 -0.1
v -0.1 -0.2 -0.3
v -0.1 -0.1 0.4
v -0.1 -0.1 0.3
v -0.1 0.1 0.3
v -0.1 0.1 0.1
v -0.1 0.1 -0.1
v -0.1 0.1 -0.3
v -0.1 0.2 0.3
v -0.1 0.2 0.1
v -0.1 0.2 -0.1
v -0.1 0.2 -0.3
v 0 0 0.4
v 0 0 0.3
v 0 0 -0.3
v 0 0 -0.4
v 0 0.1 0.4
v 0 0.1 0.3
v 0 0.1 -0.3
v 0 0.3 0.4
v 0 0.3 0.3
v 0 0.3 -0.3
v 0 0.3 -0.4
v 0.1 -0.3 -0.3
v 0.1 -0.3 -0.5
v 0.1 -0.2 -0.3
v 0.1 -0.2 -0.4
v 0.1 -0.2 -0.5
v 0.1 -0.1 0.3
v 0.1 -0.1 0.1
v 0.1 -0.1 -0.1
v 0.1 -0.1 -0.3
v 0.1 -0.1 -0.4
v 0.1 0 0.2
v 0.1 0 0.1
v 0.1 0 -0.1
v 0.1 0 -0.2
v 0.1 0.1 0.3
v 0.1 0.1 0.2
v 0.1 0.1 -0.2
v 0.1 0.1 -0.3
v 0.1 0.2 0.1
v 0.1 0.2 0
v 0.1 0.2 -0.1
v 0.1 0.3 0.1
v 0.1 0.3 -0.1
v 0.2 -0.2 0.3
v 0.2 -0.2 0.2
v 0.2 -0.2 -0.1
v 0.2 -0.2 -0.3
v 0.2 -0.1 0.3
v 0.2 -0.1 0.2
v 0.2 -0.1 -0.1
v 0.2 -0.1 -0.3
v 0.2 0 0.2
v 0.2 0 0
v 0.2 0 -0.2
v 0.2 0.1 0.1
v 0.2 0.1 0
v 0.2 0.1 -0.2
v 0.2 0.2 0.2
v 0.2 0.2 0.1
v 0.2 0.2 0
v 0.2 0.2 -0.2
v 0.3 -0.3 0.5
v 0.3 -0.3 0.1
v 0.3 -0.3 -0.1
v 0.3 -0.3 -0.3
v 0.3 -0.2 0.5
v 0.3 -0.2 0.4
v 0.3 -0.2 0.3
v 0.3 -0.2 0.2
v 0.3 -0.2 0.1
v 0.3 -0.2 -0.1
v 0.3 -0.2 -0.3
v 0.3 -0.1 0.4
v 0.3 -0.1 0.3
v 0.3 -0.1 0.2
v 0.3 -0.1 0.1
v -0.3 -0.3 0.5
v -0.3 -0.2 0.5
v -0.1 -0.3 0.5
v -0.1 -0.2 0.5
v 0.1 -0.3 0.5
v 0.1 -0.2 0.5
v 0.3 -0.3 0.5
v 0.3 -0.2 0.5
v -0.3 -0.2 0.4
v -0.3 -0.1 0.4
v -0.2 0 0.4
v -0.2 0.1 0.4
v -0.2 0.3 0.4
v -0.1 -0.2 0.4
v -0.1 -0.1 0.4
v 0 0 0.4
v 0 0.1 0.4
v 0 0.3 0.4
v 0.1 -0.2 0.4
v 0.1 -0.1 0.4
v 0.3 -0.2 0.4
v 0.3 -0.1 0.4
v -0.3 0 0.3
v -0.3 0.2 0.3
v -0.3 0.3 0.3
v -0.2 0 0.3
v -0.2 0.1 0.3
v -0.2 0.2 0.3
v -0.2 0.3 0.3
v -0.1 -0.2 0.3
v -0.1 -0.1 0.3
v -0.1 0 0.3
v 0 0 0.3
v 0 0.1 0.3
v 0.1 -0.2 0.3
v 0.1 -0.1 0.3
v 0.1 0.1 0.3
v -0.3 -0.2 0.2
v -0.3 -0.1 0.2
v -0.2 -0.2 0.2
v -0.2 -0.1 0.2
v 0.1 0 0.2
v 0.1 0.1 0.2
v 0.1 0.2 0.2
v 0.2 -0.2 0.2
v 0.2 -0.1 0.2
v 0.2 0 0.2
v 0.2 0.2 0.2
v 0.3 -0.2 0.2
v 0.3 -0.1 0.2
v -0.1 0.1 0.1
v -0.1 0.2 0.1
v -0.1 0.3 0.1
v 0.1 0.1 0.1
v 0.1 0.2 0.1
v 0.1 0.3 0.1
v -0.3 -0.3 -0.1
v -0.3 -0.2 -0.1
v -0.2 -0.2 -0.1
v -0.2 -0.1 -0.1
v -0.1 -0.3 -0.1
v -0.1 -0.2 -0.1
v -0.1 -0.1 -0.1
v -0.1 0 -0.1
v 0.1 -0.3 -0.1
v 0.1 -0.2 -0.1
v 0.1 -0.1 -0.1
v 0.1 0 -0.1
v 0.2 -0.3 -0.1
v 0.2 -0.2 -0.1
v 0.2 -0.1 -0.1
v 0.3 -0.3 -0.1
v 0.3 -0.2 -0.1
v -0.2 0 -0.3
v -0.2 0.1 -0.3
v -0.2 0.2 -0.3
v -0.2 0.3 -0.3
v -0.1 -0.3 -0.3
v -0.1 -0.2 -0.3
v -0.1 0 -0.3
v -0.1 0.1 -0.3
v -0.1 0.2 -0.3
v 0 0.1 -0.3
v 0 0.3 -0.3
v 0.1 -0.3 -0.3
v 0.1 -0.2 -0.3
v -0.3 -0.2 0.3
v -0.3 -0.1 0.3
v -0.2 -0.2 0.3
v -0.2 -0.1 0.3
v -0.2 0 0.3
v -0.2 0.1 0.3
v -0.2 0.2 0.3
v -0.2 0.3 0.3
v -0.1 0 0.3
v -0.1 0.1 0.3
v -0.1 0.2 0.3
v 0 0.1 0.3
v 0 0.3 0.3
v 0.2 -0.2 0.3
v 0.2 -0.1 0.3
v 0.3 -0.2 0.3
v 0.3 -0.1 0.3
v -0.3 -0.3 0.1
v -0.3 -0.2 0.1
v -0.3 -0.1 0.1
v -0.1 -0.3 0.1
v -0.1 -0.2 0.1
v -0.1 -0.1 0.1
v -0.1 0 0.1
v 0.1 -0.3 0.1
v 0.1 -0.2 0.1
v 0.1 -0.1 0.1
v 0.1 0 0.1
v 0.3 -0.3 0.1
v 0.3 -0.2 0.1
v 0.3 -0.1 0.1
v -0.1 0.1 -0.1
v -0.1 0.2 -0.1
v -0.1 0.3 -0.1
v 0.1 0.1 -0.1
v 0.1 0.2 -0.1
v 0.1 0.3 -0.1
v 0.1 0 -0.2
v 0.1 0.1 -0.2
v 0.1 0.2 -0.2
v 0.2 0 -0.2
v 0.2 0.1 -0.2
v 0.2 0.2 -0.2
v -0.3 -0.3 -0.3
v -0.3 -0.2 -0.3
v -0.3 0 -0.3
v -0.3 0.1 -0.3
v -0.3 0.2 -0.3
v -0.3 0.3 -0.3
v -0.2 -0.2 -0.3
v -0.2 -0.1 -0.3
v -0.2 0 -0.3
v -0.2 0.1 -0.3
v -0.2 0.2 -0.3
v -0.2 0.3 -0.3
v -0.1 -0.3 -0.3
v -0.1 -0.2 -0.3
v -0.1 -0.1 -0.3
v -0.1 0 -0.3
v 0 0 -0.3
v 0 0.1 -0.3
v 0.1 -0.3 -0.3
v 0.1 -0.2 -0.3
v 0.1 -0.1 -0.3
v 0.1 0.1 -0.3
v 0.2 -0.2 -0.3
v 0.2 -0.1 -0.3
v 0.3 -0.3 -0.3
v 0.3 -0.2 -0.3
v -0.2 0 -0.4
v -0.2 0.3 -0.4
v -0.1 -0.2 -0.4
v -0.1 -0.1 -0.4
v 0 0 -0.4
v 0 0.3 -0.4
v 0.1 -0.2 -0.4
v 0.1 -0.1 -0.4
v -0.1 -0.3 -0.5
v -0.1 -0.2 -0.5
v 0.1 -0.3 -0.5
v 0.1 -0.2 -0.5
v -0.3 -0.3 0.5
v -0.1 -0.3 0.5
v 0.1 -0.3 0.5
v 0.3 -0.3 0.5
v -0.3 -0.3 0.1
v -0.1 -0.3 0.1
v 0.1 -0.3 0.1
v 0.3 -0.3 0.1
v -0.3 -0.3 -0.1
v -0.1 -0.3 -0.1
v 0.1 -0.3 -0.1
v 0.2 -0.3 -0.1
v 0.3 -0.3 -0.1
v 0.1 -0.3 -0.2
v 0.2 -0.3 -0.2
v -0.3 -0.3 -0.3
v -0.1 -0.3 -0.3
v 0.1 -0.3 -0.3
v 0.3 -0.3 -0.3
v -0.1 -0.3 -0.5
v 0.1 -0.3 -0.5
v -0.1 -0.2 0.3
v 0.1 -0.2 0.3
v -0.1 -0.2 0.1
v 0.1 -0.2 0.1
v -0.1 -0.2 -0.1
v 0.1 -0.2 -0.1
v 0.1 -0.2 -0.2
v -0.1 -0.2 -0.3
v 0.1 -0.2 -0.3
v -0.2 0 0.4
v 0 0 0.4
v -0.3 0 0.3
v -0.2 0 0.3
v -0.1 0 0.3
v 0 0 0.3
v 0.1 0 0.2
v 0.2 0 0.2
v -0.1 0 0.1
v 0.1 0 0.1
v 0.1 0 0
v 0.2 0 0
v -0.1 0 -0.1
v 0.1 0 -0.1
v 0.1 0 -0.2
v 0.2 0 -0.2
v -0.3 0 -0.3
v -0.2 0 -0.3
v -0.1 0 -0.3
v 0 0 -0.3
v -0.2 0 -0.4
v 0 0 -0.4
v -0.2 0.1 0.3
v -0.1 0.1 0.3
v -0.2 0.1 -0.3
v -0.1 0.1 -0.3
v -0.3 -0.2 0.5
v -0.1 -0.2 0.5
v 0.1 -0.2 0.5
v 0.3 -0.2 0.5
v -0.3 -0.2 0.4
v -0.1 -0.2 0.4
v 0.1 -0.2 0.4
v 0.3 -0.2 0.4
v -0.3 -0.2 0.3
v -0.2 -0.2 0.3
v 0.2 -0.2 0.3
v 0.3 -0.2 0.3
v -0.3 -0.2 0.2
v -0.2 -0.2 0.2
v 0.2 -0.2 0.2
v 0.3 -0.2 0.2
v -0.3 -0.2 -0.1
v -0.2 -0.2 -0.1
v 0.2 -0.2 -0.1
v 0.3 -0.2 -0.1
v -0.3 -0.2 -0.3
v -0.2 -0.2 -0.3
v 0.2 -0.2 -0.3
v 0.3 -0.2 -0.3
v -0.1 -0.2 -0.4
v 0.1 -0.2 -0.4
v -0.1 -0.2 -0.5
v 0.1 -0.2 -0.5
v -0.3 -0.1 0.4
v -0.1 -0.1 0.4
v 0.1 -0.1 0.4
v 0.3 -0.1 0.4
v -0.3 -0.1 0.3
v -0.2 -0.1 0.3
v -0.1 -0.1 0.3
v 0.1 -0.1 0.3
v 0.2 -0.1 0.3
v 0.3 -0.1 0.3
v -0.3 -0.1 0.2
v -0.2 -0.1 0.2
v 0.2 -0.1 0.2
v 0.3 -0.1 0.2
v -0.3 -0.1 0.1
v -0.1 -0.1 0.1
v 0.1 -0.1 0.1
v 0.3 -0.1 0.1
v -0.2 -0.1 -0.1
v -0.1 -0.1 -0.1
v 0.1 -0.1 -0.1
v 0.2 -0.1 -0.1
v -0.2 -0.1 -0.3
v -0.1 -0.1 -0.3
v 0.1 -0.1 -0.3
v 0.2 -0.1 -0.3
v -0.1 -0.1 -0.4
v 0.1 -0.1 -0.4
v -0.1 0.1 0.3
v 0 0.1 0.3
v 0.1 0.1 0.3
v 0.1 0.1 0.2
v -0.1 0.1 0.1
v 0.1 0.1 0.1
v -0.1 0.1 -0.1
v 0.1 0.1 -0.1
v 0.1 0.1 -0.2
v -0.1 0.1 -0.3
v 0 0.1 -0.3
v 0.1 0.1 -0.3
v -0.2 0.2 0.3
v -0.1 0.2 0.3
v -0.2 0.2 0.2
v 0.1 0.2 0.2
v 0.2 0.2 0.2
v -0.1 0.2 0.1
v 0.1 0.2 0.1
v 0.2 0.2 0.1
v -0.2 0.2 0
v 0.1 0.2 0
v 0.2 0.2 0
v -0.2 0.2 -0.1
v -0.1 0.2 -0.1
v 0.1 0.2 -0.1
v 0.1 0.2 -0.2
v 0.2 0.2 -0.2
v -0.2 0.2 -0.3
v -0.1 0.2 -0.3
v -0.2 0.3 0.4
v 0 0.3 0.4
v -0.3 0.3 0.3
v -0.2 0.3 0.3
v 0 0.3 0.3
v -0.3 0.3 0.2
v -0.2 0.3 0.2
v -0.1 0.3 0.1
v 0.1 0.3 0.1
v -0.3 0.3 0
v -0.2 0.3 0
v -0.3 0.3 -0.1
v -0.2 0.3 -0.1
v -0.1 0.3 -0.1
v 0.1 0.3 -0.1
v -0.3 0.3 -0.3
v -0.2 0.3 -0.3
v 0 0.3 -0.3
v -0.2 0.3 -0.4
v 0 0.3 -0.4

# faces
f 5/4/1 2/4/1 1/4/1
f 6/4/1 2/4/1 5/4/1
f 7/4/1 2/4/1 6/4/1
f 8/4/1 2/4/1 7/4/1
f 9/4/1 2/4/1 8/4/1
f 10/4/1 4/4/1 3/4/1
f 11/4/1 4/4/1 10/4/1
f 12/1/1 7/1/1 6/1/1
f 13/1/1 7/1/1 12/1/1
f 14/1/1 9/1/1 8/1/1
f 15/1/1 9/1/1 14/1/1
f 18/3/1 17/3/1 16/3/1
f 19/3/1 17/3/1 18/3/1
f 20/3/1 18/3/1 16/3/1
f 21/3/1 18/3/1 20/3/1
f 22/2/1 19/2/1 18/2/1
f 23/2/1 19/2/1 22/2/1
f 24/2/1 21/2/1 20/2/1
f 25/3/1 18/3/1 21/3/1
f 25/2/1 21/2/1 24/2/1
f 26/2/1 22/2/1 18/2/1
f 26/3/1 18/3/1 25/3/1
f 27/3/1 23/3/1 22/3/1
f 27/2/1 22/2/1 26/2/1
f 28/3/1 23/3/1 27/3/1
f 33/1/1 30/1/1 29/1/1
f 34/1/1 30/1/1 33/1/1
f 35/1/1 32/1/1 31/1/1
f 36/1/1 32/1/1 35/1/1
f 41/2/1 38/2/1 37/2/1
f 42/2/1 38/2/1 41/2/1
f 43/2/1 40/2/1 39/2/1
f 44/3/1 42/3/1 41/3/1
f 45/2/1 40/2/1 43/2/1
f 46/3/1 44/3/1 41/3/1
f 47/3/1 44/3/1 46/3/1
f 48/2/1 40/2/1 45/2/1
f 49/2/1 40/2/1 48/2/1
f 52/4/1 51/4/1 50/4/1
f 53/4/1 51/4/1 52/4/1
f 54/4/1 51/4/1 53/4/1
f 58/1/1 53/1/1 52/1/1
f 59/1/1 53/1/1 58/1/1
f 60/1/1 56/1/1 55/1/1
f 61/1/1 56/1/1 60/1/1
f 62/1/1 58/1/1 57/1/1
f 63/1/1 58/1/1 62/1/1
f 64/1/1 61/1/1 60/1/1
f 64/1/1 62/1/1 61/1/1
f 64/1/1 63/1/1 62/1/1
f 65/1/1 63/1/1 64/1/1
f 68/1/1 67/1/1 66/1/1
f 69/1/1 67/1/1 68/1/1
f 75/4/1 71/4/1 70/4/1
f 76/4/1 71/4/1 75/4/1
f 77/4/1 71/4/1 76/4/1
f 78/4/1 71/4/1 77/4/1
f 79/1/1 73/1/1 72/1/1
f 80/4/1 74/4/1 73/4/1
f 80/1/1 73/1/1 79/1/1
f 81/4/1 74/4/1 80/4/1
f 82/1/1 77/1/1 76/1/1
f 83/1/1 77/1/1 82/1/1
f 88/3/1 85/3/1 84/3/1
f 89/3/1 85/3/1 88/3/1
f 90/3/1 87/3/1 86/3/1
f 91/3/1 87/3/1 90/3/1
f 92/3/2 93/3/2 94/3/2
f 94/3/2 93/3/2 95/3/2
f 96/2/2 97/2/2 101/2/2
f 97/3/2 98/3/2 102/3/2
f 101/2/2 97/2/2 102/2/2
f 98/2/2 99/2/2 103/2/2
f 102/3/2 98/3/2 103/3/2
f 99/3/2 100/3/2 104/3/2
f 103/2/2 99/2/2 104/2/2
f 104/3/2 100/3/2 105/3/2
f 106/4/2 107/4/2 110/4/2
f 110/4/2 107/4/2 111/4/2
f 111/4/2 107/4/2 112/4/2
f 112/4/2 107/4/2 113/4/2
f 108/4/2 109/4/2 114/4/2
f 114/4/2 109/4/2 115/4/2
f 111/1/2 112/1/2 116/1/2
f 116/1/2 112/1/2 117/1/2
f 118/2/2 119/2/2 122/2/2
f 122/2/2 119/2/2 123/2/2
f 120/2/2 121/2/2 124/2/2
f 124/2/2 121/2/2 125/2/2
f 126/2/2 127/2/2 130/2/2
f 130/2/2 127/2/2 131/2/2
f 128/2/2 129/2/2 132/2/2
f 130/3/2 131/3/2 133/3/2
f 133/3/2 131/3/2 134/3/2
f 132/2/2 129/2/2 135/2/2
f 135/2/2 129/2/2 136/2/2
f 137/4/2 138/4/2 139/4/2
f 139/4/2 138/4/2 140/4/2
f 140/4/2 138/4/2 141/4/2
f 139/1/2 140/1/2 145/1/2
f 145/1/2 140/1/2 146/1/2
f 142/1/2 143/1/2 147/1/2
f 147/1/2 143/1/2 148/1/2
f 144/1/2 145/1/2 149/1/2
f 149/1/2 145/1/2 150/1/2
f 142/1/2 147/1/2 151/1/2
f 151/1/2 147/1/2 152/1/2
f 150/1/2 145/1/2 153/1/2
f 153/1/2 145/1/2 154/1/2
f 155/1/2 156/1/2 158/1/2
f 156/1/2 157/1/2 158/1/2
f 158/1/2 157/1/2 159/1/2
f 160/1/2 161/1/2 164/1/2
f 164/1/2 161/1/2 165/1/2
f 162/1/2 163/1/2 166/1/2
f 166/1/2 163/1/2 167/1/2
f 168/3/2 169/3/2 171/3/2
f 169/2/2 170/2/2 172/2/2
f 171/3/2 169/3/2 172/3/2
f 172/2/2 170/2/2 173/2/2
f 168/3/2 171/3/2 174/3/2
f 171/2/2 172/2/2 175/2/2
f 174/3/2 171/3/2 175/3/2
f 172/3/2 173/3/2 176/3/2
f 175/2/2 172/2/2 176/2/2
f 176/3/2 173/3/2 177/3/2
f 178/4/2 179/4/2 182/4/2
f 182/4/2 179/4/2 183/4/2
f 183/4/2 179/4/2 184/4/2
f 184/4/2 179/4/2 185/4/2
f 185/4/2 179/4/2 186/4/2
f 180/4/2 181/4/2 187/4/2
f 187/4/2 181/4/2 188/4/2
f 183/1/2 184/1/2 189/1/2
f 189/1/2 184/1/2 190/1/2
f 185/1/2 186/1/2 191/1/2
f 191/1/2 186/1/2 192/1/2
f 195/4/3 194/4/3 193/4/3
f 196/4/3 194/4/3 195/4/3
f 199/4/3 198/4/3 197/4/3
f 200/4/3 198/4/3 199/4/3
f 206/1/3 202/1/3 201/1/3
f 207/1/3 202/1/3 206/1/3
f 208/2/3 204/2/3 203/2/3
f 209/3/3 205/3/3 204/3/3
f 209/2/3 204/2/3 208/2/3
f 210/3/3 205/3/3 209/3/3
f 213/1/3 212/1/3 211/1/3
f 214/1/3 212/1/3 213/1/3
f 218/3/3 216/3/3 215/3/3
f 219/3/3 216/3/3 218/3/3
f 220/2/3 217/2/3 216/2/3
f 220/3/3 216/3/3 219/3/3
f 221/2/3 217/2/3 220/2/3
f 225/1/3 223/1/3 222/1/3
f 225/1/3 224/1/3 223/1/3
f 227/1/3 225/1/3 222/1/3
f 227/1/3 226/1/3 225/1/3
f 228/1/3 226/1/3 227/1/3
f 229/1/3 226/1/3 228/1/3
f 232/1/3 231/1/3 230/1/3
f 233/1/3 231/1/3 232/1/3
f 239/3/3 235/3/3 234/3/3
f 239/3/3 236/3/3 235/3/3
f 240/3/3 236/3/3 239/3/3
f 241/1/3 238/1/3 237/1/3
f 242/1/3 238/1/3 241/1/3
f 246/1/3 244/1/3 243/1/3
f 246/1/3 245/1/3 244/1/3
f 247/1/3 245/1/3 246/1/3
f 248/1/3 245/1/3 247/1/3
f 251/4/3 250/4/3 249/4/3
f 253/4/3 251/4/3 249/4/3
f 254/1/3 252/1/3 251/1/3
f 254/4/3 251/4/3 253/4/3
f 255/1/3 252/1/3 254/1/3
f 258/1/3 256/1/3 255/1/3
f 258/1/3 255/1/3 254/1/3
f 259/1/3 256/1/3 258/1/3
f 260/1/3 256/1/3 259/1/3
f 261/1/3 258/1/3 257/1/3
f 261/1/3 259/1/3 258/1/3
f 262/1/3 259/1/3 261/1/3
f 263/1/3 259/1/3 262/1/3
f 264/4/3 262/4/3 261/4/3
f 265/4/3 262/4/3 264/4/3
f 272/2/3 267/2/3 266/2/3
f 273/2/3 267/2/3 272/2/3
f 274/2/3 269/2/3 268/2/3
f 275/2/3 274/2/3 273/2/3
f 276/2/3 269/2/3 274/2/3
f 276/2/3 274/2/3 275/2/3
f 277/4/3 271/4/3 270/4/3
f 278/4/3 271/4/3 277/4/3
f 279/1/4 280/1/4 281/1/4
f 281/1/4 280/1/4 282/1/4
f 283/2/4 284/2/4 287/2/4
f 287/2/4 284/2/4 288/2/4
f 285/3/4 286/3/4 289/3/4
f 288/3/4 289/3/4 290/3/4
f 289/3/4 286/3/4 291/3/4
f 290/3/4 289/3/4 291/3/4
f 292/1/4 293/1/4 294/1/4
f 294/1/4 293/1/4 295/1/4
f 296/4/4 297/4/4 299/4/4
f 297/1/4 298/1/4 300/1/4
f 299/4/4 297/4/4 300/4/4
f 300/1/4 298/1/4 301/1/4
f 301/1/4 302/1/4 304/1/4
f 300/1/4 301/1/4 304/1/4
f 304/1/4 302/1/4 305/1/4
f 305/1/4 302/1/4 306/1/4
f 303/4/4 304/4/4 307/4/4
f 304/1/4 305/1/4 308/1/4
f 307/4/4 304/4/4 308/4/4
f 308/1/4 305/1/4 309/1/4
f 310/1/4 311/1/4 313/1/4
f 311/1/4 312/1/4 313/1/4
f 313/1/4 312/1/4 314/1/4
f 314/1/4 312/1/4 315/1/4
f 316/2/4 317/2/4 319/2/4
f 317/3/4 318/3/4 320/3/4
f 319/2/4 317/2/4 320/2/4
f 320/3/4 318/3/4 321/3/4
f 322/4/4 323/4/4 328/4/4
f 324/3/4 325/3/4 330/3/4
f 325/2/4 326/2/4 331/2/4
f 330/3/4 325/3/4 331/3/4
f 326/3/4 327/3/4 332/3/4
f 331/2/4 326/2/4 332/2/4
f 332/3/4 327/3/4 333/3/4
f 322/4/4 328/4/4 334/4/4
f 328/1/4 329/1/4 335/1/4
f 334/4/4 328/4/4 335/4/4
f 335/1/4 329/1/4 336/1/4
f 336/1/4 337/1/4 338/1/4
f 336/1/4 338/1/4 342/1/4
f 338/1/4 339/1/4 342/1/4
f 342/1/4 339/1/4 343/1/4
f 340/4/4 341/4/4 344/4/4
f 341/1/4 342/1/4 344/1/4
f 344/1/4 342/1/4 345/1/4
f 340/4/4 344/4/4 346/4/4
f 346/4/4 344/4/4 347/4/4
f 348/2/4 349/2/4 352/2/4
f 352/2/4 349/2/4 353/2/4
f 350/1/4 351/1/4 354/1/4
f 354/1/4 351/1/4 355/1/4
f 356/4/4 357/4/4 358/4/4
f 358/4/4 357/4/4 359/4/4
f 364/4/5 361/4/5 360/4/5
f 365/4/5 361/4/5 364/4/5
f 366/4/5 363/4/5 362/4/5
f 367/4/5 363/4/5 366/4/5
f 373/1/5 371/1/5 370/1/5
f 374/4/5 372/4/5 371/4/5
f 374/1/5 371/1/5 373/1/5
f 375/4/5 369/4/5 368/4/5
f 376/4/5 369/4/5 375/4/5
f 377/4/5 374/4/5 373/4/5
f 378/4/5 372/4/5 374/4/5
f 378/4/5 374/4/5 377/4/5
f 379/4/5 377/4/5 376/4/5
f 380/4/5 377/4/5 379/4/5
f 383/1/5 382/1/5 381/1/5
f 384/1/5 382/1/5 383/1/5
f 387/1/5 386/1/5 385/1/5
f 388/1/5 387/1/5 385/1/5
f 389/1/5 387/1/5 388/1/5
f 393/2/5 391/2/5 390/2/5
f 394/2/5 391/2/5 393/2/5
f 395/2/5 391/2/5 394/2/5
f 399/3/5 397/3/5 396/3/5
f 400/3/5 397/3/5 399/3/5
f 400/1/5 399/1/5 398/1/5
f 401/3/5 397/3/5 400/3/5
f 402/1/5 400/1/5 398/1/5
f 403/2/5 401/2/5 400/2/5
f 403/1/5 400/1/5 402/1/5
f 404/2/5 401/2/5 403/2/5
f 405/2/5 401/2/5 404/2/5
f 406/3/5 393/3/5 392/3/5
f 407/3/5 393/3/5 406/3/5
f 410/2/5 409/2/5 408/2/5
f 410/2/5 408/2/5 407/2/5
f 411/2/5 409/2/5 410/2/5
f 414/2/5 413/2/5 412/2/5
f 415/2/5 413/2/5 414/2/5
f 416/4/6 417/4/6 420/4/6
f 420/4/6 417/4/6 421/4/6
f 418/4/6 419/4/6 422/4/6
f 422/4/6 419/4/6 423/4/6
f 424/4/6 425/4/6 428/4/6
f 428/4/6 425/4/6 429/4/6
f 426/4/6 427/4/6 430/4/6
f 430/4/6 427/4/6 431/4/6
f 432/4/6 433/4/6 436/4/6
f 436/4/6 433/4/6 437/4/6
f 434/4/6 435/4/6 438/4/6
f 438/4/6 435/4/6 439/4/6
f 440/4/6 441/4/6 442/4/6
f 442/4/6 441/4/6 443/4/6
f 444/1/6 445/1/6 448/1/6
f 448/1/6 445/1/6 449/1/6
f 449/1/6 445/1/6 450/1/6
f 446/1/6 447/1/6 451/1/6
f 451/1/6 447/1/6 452/1/6
f 452/1/6 447/1/6 453/1/6
f 449/1/6 450/1/6 455/1/6
f 451/1/6 452/1/6 456/1/6
f 454/1/6 455/1/6 458/1/6
f 455/1/6 450/1/6 459/1/6
f 458/1/6 455/1/6 459/1/6
f 456/1/6 457/1/6 460/1/6
f 451/1/6 456/1/6 460/1/6
f 460/1/6 457/1/6 461/1/6
f 462/1/6 463/1/6 466/1/6
f 466/1/6 463/1/6 467/1/6
f 464/1/6 465/1/6 468/1/6
f 468/1/6 465/1/6 469/1/6
f 467/1/6 468/1/6 470/1/6
f 470/1/6 468/1/6 471/1/6
f 472/1/6 473/1/6 475/1/6
f 473/1/6 474/1/6 475/1/6
f 472/1/6 475/1/6 476/1/6
f 476/1/6 475/1/6 477/1/6
f 478/1/6 479/1/6 480/1/6
f 478/1/6 480/1/6 481/1/6
f 481/1/6 480/1/6 482/1/6
f 482/1/6 480/1/6 483/1/6
f 484/2/6 485/2/6 486/2/6
f 486/2/6 485/2/6 489/2/6
f 487/3/6 488/3/6 490/3/6
f 490/3/6 488/3/6 491/3/6
f 486/2/6 489/2/6 492/2/6
f 490/2/6 491/2/6 493/2/6
f 493/2/6 491/2/6 494/2/6
f 492/2/6 489/2/6 495/2/6
f 495/2/6 489/2/6 496/2/6
f 493/3/6 494/3/6 497/3/6
f 497/3/6 494/3/6 498/3/6
f 498/3/6 494/3/6 499/3/6
f 495/2/6 496/2/6 500/2/6
f 500/2/6 496/2/6 501/2/6
f 502/3/6 503/3/6 505/3/6
f 505/3/6 503/3/6 506/3/6
f 504/2/6 505/2/6 507/2/6
f 507/2/6 505/2/6 508/2/6
f 507/3/6 508/3/6 511/3/6
f 511/3/6 508/3/6 512/3/6
f 511/2/6 512/2/6 513/2/6
f 513/2/6 512/2/6 514/2/6
f 509/1/6 510/1/6 515/1/6
f 515/1/6 510/1/6 516/1/6
f 513/3/6 514/3/6 517/3/6
f 517/3/6 514/3/6 518/3/6
f 518/2/6 519/2/6 520/2/6
f 520/2/6 519/2/6 521/2/6
