# MagicaVoxel @ Ephtracy

# group
o 

# material
mtllib Leg-69.mtl
usemtl palette

# normals
vn -1 0 0
vn 1 0 0
vn 0 0 1
vn 0 0 -1
vn 0 -1 0
vn 0 1 0

# texcoords
vt 0.705078 0.5
vt 0.708984 0.5
vt 0.751953 0.5
vt 0.755859 0.5

# verts
v -0.25 -0.2 0.1
v -0.25 -0.2 -0.1
v -0.25 -0.1 0.1
v -0.25 -0.1 -0.1
v -0.25 0.2 0.1
v -0.25 0.2 -0.1
v -0.15 -0.2 -0.1
v -0.15 -0.2 -0.2
v -0.15 -0.1 0.2
v -0.15 -0.1 0.1
v -0.15 -0.1 -0.1
v -0.15 -0.1 -0.2
v -0.15 0 0.2
v -0.15 0 0.1
v -0.15 0.2 0
v -0.15 0.2 -0.1
v -0.15 0.2 -0.2
v -0.15 0.4 0
v -0.15 0.4 -0.1
v -0.05 -0.4 0.2
v -0.05 -0.4 0.1
v -0.05 -0.1 0.2
v -0.05 -0.1 0.1
v -0.05 -0.1 -0.1
v -0.05 0 0.2
v -0.05 0 0.1
v -0.05 0 -0.1
v -0.05 0.1 0.2
v -0.05 0.1 0.1
v 0.05 -0.1 0.2
v 0.05 -0.1 0.1
v 0.05 0 0.2
v 0.05 0 0.1
v 0.15 -0.2 0.1
v 0.15 -0.2 -0.1
v 0.15 -0.1 0.1
v 0.15 -0.1 -0.1
v 0.15 0 0.1
v 0.15 0.1 0
v 0.15 0.1 -0.1
v 0.15 0.2 0.1
v 0.15 0.2 0
v -0.15 -0.2 0.1
v -0.15 -0.2 -0.1
v -0.15 -0.1 0.1
v -0.15 -0.1 -0.1
v -0.15 0 0.1
v -0.15 0.1 0
v -0.15 0.1 -0.1
v -0.15 0.2 0.1
v -0.15 0.2 0
v -0.05 -0.1 0.2
v -0.05 -0.1 0.1
v -0.05 0 0.2
v -0.05 0 0.1
v 0.05 -0.4 0.2
v 0.05 -0.4 0.1
v 0.05 -0.1 0.2
v 0.05 -0.1 0.1
v 0.05 -0.1 -0.1
v 0.05 0 0.2
v 0.05 0 0.1
v 0.05 0 -0.1
v 0.05 0.1 0.2
v 0.05 0.1 0.1
v 0.15 -0.2 -0.1
v 0.15 -0.2 -0.2
v 0.15 -0.1 0.2
v 0.15 -0.1 0.1
v 0.15 -0.1 -0.1
v 0.15 -0.1 -0.2
v 0.15 0 0.2
v 0.15 0 0.1
v 0.15 0.2 0
v 0.15 0.2 -0.1
v 0.15 0.2 -0.2
v 0.15 0.4 0
v 0.15 0.4 -0.1
v 0.25 -0.2 0.1
v 0.25 -0.2 -0.1
v 0.25 -0.1 0.1
v 0.25 -0.1 -0.1
v 0.25 0.2 0.1
v 0.25 0.2 -0.1
v -0.15 -0.1 0.2
v -0.15 0 0.2
v -0.05 -0.4 0.2
v -0.05 -0.1 0.2
v -0.05 0 0.2
v -0.05 0.1 0.2
v 0.05 -0.4 0.2
v 0.05 -0.1 0.2
v 0.05 0 0.2
v 0.05 0.1 0.2
v 0.15 -0.1 0.2
v 0.15 0 0.2
v -0.25 -0.2 0.1
v -0.25 -0.1 0.1
v -0.25 0.2 0.1
v -0.15 -0.2 0.1
v -0.15 -0.1 0.1
v -0.15 0 0.1
v -0.15 0.2 0.1
v -0.05 -0.1 0.1
v -0.05 0 0.1
v 0.05 -0.1 0.1
v 0.05 0 0.1
v 0.15 -0.2 0.1
v 0.15 -0.1 0.1
v 0.15 0 0.1
v 0.15 0.2 0.1
v 0.25 -0.2 0.1
v 0.25 -0.1 0.1
v 0.25 0.2 0.1
v -0.15 0.1 0
v -0.15 0.2 0
v -0.15 0.4 0
v 0.15 0.1 0
v 0.15 0.2 0
v 0.15 0.4 0
v -0.15 -0.2 -0.1
v -0.15 -0.1 -0.1
v -0.15 0.1 -0.1
v -0.05 -0.1 -0.1
v -0.05 0 -0.1
v 0.05 -0.1 -0.1
v 0.05 0 -0.1
v 0.15 -0.2 -0.1
v 0.15 -0.1 -0.1
v 0.15 0.1 -0.1
v -0.15 -0.1 0.1
v -0.15 0 0.1
v -0.05 -0.4 0.1
v -0.05 -0.1 0.1
v -0.05 0 0.1
v -0.05 0.1 0.1
v 0.05 -0.4 0.1
v 0.05 -0.1 0.1
v 0.05 0 0.1
v 0.05 0.1 0.1
v 0.15 -0.1 0.1
v 0.15 0 0.1
v -0.25 -0.2 -0.1
v -0.25 -0.1 -0.1
v -0.25 0.2 -0.1
v -0.15 -0.2 -0.1
v -0.15 -0.1 -0.1
v -0.15 0.2 -0.1
v -0.15 0.4 -0.1
v 0.15 -0.2 -0.1
v 0.15 -0.1 -0.1
v 0.15 0.2 -0.1
v 0.15 0.4 -0.1
v 0.25 -0.2 -0.1
v 0.25 -0.1 -0.1
v 0.25 0.2 -0.1
v -0.15 -0.2 -0.2
v -0.15 -0.1 -0.2
v -0.15 0.2 -0.2
v 0.15 -0.2 -0.2
v 0.15 -0.1 -0.2
v 0.15 0.2 -0.2
v -0.05 -0.4 0.2
v 0.05 -0.4 0.2
v -0.05 -0.4 0.1
v 0.05 -0.4 0.1
v -0.25 -0.2 0.1
v -0.15 -0.2 0.1
v 0.15 -0.2 0.1
v 0.25 -0.2 0.1
v -0.25 -0.2 -0.1
v -0.15 -0.2 -0.1
v 0.15 -0.2 -0.1
v 0.25 -0.2 -0.1
v -0.15 -0.2 -0.2
v 0.15 -0.2 -0.2
v -0.15 -0.1 0.2
v -0.05 -0.1 0.2
v 0.05 -0.1 0.2
v 0.15 -0.1 0.2
v -0.15 -0.1 0.1
v -0.05 -0.1 0.1
v 0.05 -0.1 0.1
v 0.15 -0.1 0.1
v -0.05 -0.1 -0.1
v 0.05 -0.1 -0.1
v -0.05 0 0.2
v 0.05 0 0.2
v -0.05 0 0.1
v 0.05 0 0.1
v -0.15 0.1 0
v 0.15 0.1 0
v -0.15 0.1 -0.1
v 0.15 0.1 -0.1
v -0.05 -0.1 0.2
v 0.05 -0.1 0.2
v -0.05 -0.1 0.1
v 0.05 -0.1 0.1
v -0.15 0 0.2
v -0.05 0 0.2
v 0.05 0 0.2
v 0.15 0 0.2
v -0.15 0 0.1
v -0.05 0 0.1
v 0.05 0 0.1
v 0.15 0 0.1
v -0.05 0 -0.1
v 0.05 0 -0.1
v -0.05 0.1 0.2
v 0.05 0.1 0.2
v -0.05 0.1 0.1
v 0.05 0.1 0.1
v -0.25 0.2 0.1
v -0.15 0.2 0.1
v 0.15 0.2 0.1
v 0.25 0.2 0.1
v -0.15 0.2 0
v 0.15 0.2 0
v -0.25 0.2 -0.1
v -0.15 0.2 -0.1
v 0.15 0.2 -0.1
v 0.25 0.2 -0.1
v -0.15 0.2 -0.2
v 0.15 0.2 -0.2
v -0.15 0.4 0
v 0.15 0.4 0
v -0.15 0.4 -0.1
v 0.15 0.4 -0.1

# faces
f 3/4/1 2/4/1 1/4/1
f 4/4/1 2/4/1 3/4/1
f 5/3/1 4/3/1 3/3/1
f 6/3/1 4/3/1 5/3/1
f 11/4/1 8/4/1 7/4/1
f 12/4/1 8/4/1 11/4/1
f 13/2/1 10/2/1 9/2/1
f 14/2/1 10/2/1 13/2/1
f 16/3/1 12/3/1 11/3/1
f 17/3/1 12/3/1 16/3/1
f 18/1/1 16/1/1 15/1/1
f 19/1/1 16/1/1 18/1/1
f 22/2/1 21/2/1 20/2/1
f 23/2/1 21/2/1 22/2/1
f 26/2/1 24/2/1 23/2/1
f 27/2/1 24/2/1 26/2/1
f 28/2/1 26/2/1 25/2/1
f 29/2/1 26/2/1 28/2/1
f 32/2/1 31/2/1 30/2/1
f 33/2/1 31/2/1 32/2/1
f 36/4/1 35/4/1 34/4/1
f 37/4/1 35/4/1 36/4/1
f 38/3/1 37/3/1 36/3/1
f 39/3/1 37/3/1 38/3/1
f 40/3/1 37/3/1 39/3/1
f 41/3/1 39/3/1 38/3/1
f 42/3/1 39/3/1 41/3/1
f 43/4/2 44/4/2 45/4/2
f 45/4/2 44/4/2 46/4/2
f 45/3/2 46/3/2 47/3/2
f 47/3/2 46/3/2 48/3/2
f 48/3/2 46/3/2 49/3/2
f 47/3/2 48/3/2 50/3/2
f 50/3/2 48/3/2 51/3/2
f 52/2/2 53/2/2 54/2/2
f 54/2/2 53/2/2 55/2/2
f 56/2/2 57/2/2 58/2/2
f 58/2/2 57/2/2 59/2/2
f 59/2/2 60/2/2 62/2/2
f 62/2/2 60/2/2 63/2/2
f 61/2/2 62/2/2 64/2/2
f 64/2/2 62/2/2 65/2/2
f 66/4/2 67/4/2 70/4/2
f 70/4/2 67/4/2 71/4/2
f 68/2/2 69/2/2 72/2/2
f 72/2/2 69/2/2 73/2/2
f 70/3/2 71/3/2 75/3/2
f 75/3/2 71/3/2 76/3/2
f 74/1/2 75/1/2 77/1/2
f 77/1/2 75/1/2 78/1/2
f 79/4/2 80/4/2 81/4/2
f 81/4/2 80/4/2 82/4/2
f 81/3/2 82/3/2 83/3/2
f 83/3/2 82/3/2 84/3/2
f 88/2/3 86/2/3 85/2/3
f 89/2/3 86/2/3 88/2/3
f 91/2/3 88/2/3 87/2/3
f 92/2/3 88/2/3 91/2/3
f 93/2/3 90/2/3 89/2/3
f 94/2/3 90/2/3 93/2/3
f 95/2/3 93/2/3 92/2/3
f 96/2/3 93/2/3 95/2/3
f 100/4/3 98/4/3 97/4/3
f 101/3/3 99/3/3 98/3/3
f 101/4/3 98/4/3 100/4/3
f 102/3/3 99/3/3 101/3/3
f 103/3/3 99/3/3 102/3/3
f 106/2/3 105/2/3 104/2/3
f 107/2/3 105/2/3 106/2/3
f 112/4/3 109/4/3 108/4/3
f 113/3/3 110/3/3 109/3/3
f 113/4/3 109/4/3 112/4/3
f 113/3/3 111/3/3 110/3/3
f 114/3/3 111/3/3 113/3/3
f 118/1/3 116/1/3 115/1/3
f 118/1/3 117/1/3 116/1/3
f 119/1/3 117/1/3 118/1/3
f 120/1/3 117/1/3 119/1/3
f 124/4/3 122/4/3 121/4/3
f 124/3/3 123/3/3 122/3/3
f 125/3/3 123/3/3 124/3/3
f 126/4/3 124/4/3 121/4/3
f 127/3/3 123/3/3 125/3/3
f 128/4/3 126/4/3 121/4/3
f 129/3/3 127/3/3 126/3/3
f 129/4/3 126/4/3 128/4/3
f 130/3/3 123/3/3 127/3/3
f 130/3/3 127/3/3 129/3/3
f 131/2/4 132/2/4 134/2/4
f 134/2/4 132/2/4 135/2/4
f 133/2/4 134/2/4 137/2/4
f 137/2/4 134/2/4 138/2/4
f 135/2/4 136/2/4 139/2/4
f 139/2/4 136/2/4 140/2/4
f 138/2/4 139/2/4 141/2/4
f 141/2/4 139/2/4 142/2/4
f 143/4/4 144/4/4 146/4/4
f 144/3/4 145/3/4 147/3/4
f 146/4/4 144/4/4 147/4/4
f 147/3/4 145/3/4 148/3/4
f 148/1/4 149/1/4 152/1/4
f 152/1/4 149/1/4 153/1/4
f 150/4/4 151/4/4 154/4/4
f 151/3/4 152/3/4 155/3/4
f 154/4/4 151/4/4 155/4/4
f 155/3/4 152/3/4 156/3/4
f 157/4/4 158/4/4 160/4/4
f 158/3/4 159/3/4 161/3/4
f 160/4/4 158/4/4 161/4/4
f 161/3/4 159/3/4 162/3/4
f 165/2/5 164/2/5 163/2/5
f 166/2/5 164/2/5 165/2/5
f 171/4/5 168/4/5 167/4/5
f 172/4/5 168/4/5 171/4/5
f 173/4/5 170/4/5 169/4/5
f 174/4/5 170/4/5 173/4/5
f 175/4/5 173/4/5 172/4/5
f 176/4/5 173/4/5 175/4/5
f 181/2/5 178/2/5 177/2/5
f 182/2/5 178/2/5 181/2/5
f 183/2/5 180/2/5 179/2/5
f 184/2/5 180/2/5 183/2/5
f 185/2/5 183/2/5 182/2/5
f 186/2/5 183/2/5 185/2/5
f 189/2/5 188/2/5 187/2/5
f 190/2/5 188/2/5 189/2/5
f 193/1/5 192/1/5 191/1/5
f 194/1/5 192/1/5 193/1/5
f 195/2/6 196/2/6 197/2/6
f 197/2/6 196/2/6 198/2/6
f 199/2/6 200/2/6 203/2/6
f 203/2/6 200/2/6 204/2/6
f 201/2/6 202/2/6 205/2/6
f 205/2/6 202/2/6 206/2/6
f 204/2/6 205/2/6 207/2/6
f 207/2/6 205/2/6 208/2/6
f 209/2/6 210/2/6 211/2/6
f 211/2/6 210/2/6 212/2/6
f 213/3/6 214/3/6 217/3/6
f 215/3/6 216/3/6 218/3/6
f 213/3/6 217/3/6 219/3/6
f 219/3/6 217/3/6 220/3/6
f 218/3/6 216/3/6 221/3/6
f 221/3/6 216/3/6 222/3/6
f 220/3/6 221/3/6 223/3/6
f 223/3/6 221/3/6 224/3/6
f 225/1/6 226/1/6 227/1/6
f 227/1/6 226/1/6 228/1/6
