# MagicaVoxel @ Ephtracy

# group
o 

# material
mtllib Leg-33.mtl
usemtl palette

# normals
vn -1 0 0
vn 1 0 0
vn 0 0 1
vn 0 0 -1
vn 0 -1 0
vn 0 1 0

# texcoords
vt 0.705078 0.5
vt 0.908203 0.5
vt 0.912109 0.5
vt 0.982422 0.5

# verts
v -0.3 -0.3 0.3
v -0.3 -0.3 0.1
v -0.3 -0.3 -0.1
v -0.3 -0.3 -0.5
v -0.3 -0.2 0.3
v -0.3 -0.2 0.1
v -0.3 -0.2 -0.1
v -0.3 -0.2 -0.2
v -0.3 -0.2 -0.3
v -0.3 -0.2 -0.4
v -0.3 -0.2 -0.5
v -0.3 -0.1 -0.1
v -0.3 -0.1 -0.2
v -0.3 -0.1 -0.3
v -0.3 -0.1 -0.4
v -0.2 -0.2 0.3
v -0.2 -0.2 0.1
v -0.2 -0.2 -0.2
v -0.2 -0.2 -0.3
v -0.2 -0.1 0.3
v -0.2 -0.1 0.1
v -0.2 -0.1 -0.2
v -0.2 -0.1 -0.3
v -0.2 0 0.2
v -0.2 0 0
v -0.2 0 -0.1
v -0.2 0 -0.2
v -0.2 0.1 0.1
v -0.2 0.1 0
v -0.2 0.1 -0.1
v -0.2 0.2 0.2
v -0.2 0.2 0.1
v -0.2 0.2 0
v -0.2 0.2 -0.2
v -0.1 -0.3 0.5
v -0.1 -0.3 0.3
v -0.1 -0.2 0.5
v -0.1 -0.2 0.4
v -0.1 -0.2 0.3
v -0.1 -0.1 0.4
v -0.1 -0.1 0.3
v -0.1 -0.1 0.1
v -0.1 -0.1 -0.1
v -0.1 -0.1 -0.3
v -0.1 0 0.2
v -0.1 0 0.1
v -0.1 0 -0.1
v -0.1 0 -0.2
v -0.1 0.1 0.3
v -0.1 0.1 0.2
v -0.1 0.1 -0.2
v -0.1 0.1 -0.3
v -0.1 0.2 0.1
v -0.1 0.2 0
v -0.1 0.2 -0.1
v -0.1 0.3 0.1
v -0.1 0.3 -0.1
v 0 0 0.4
v 0 0 0.3
v 0 0 -0.3
v 0 0 -0.4
v 0 0.1 0.4
v 0 0.1 0.3
v 0 0.1 -0.3
v 0 0.1 -0.4
v 0 0.2 0.4
v 0 0.2 0.3
v 0 0.2 -0.3
v 0 0.2 -0.4
v 0 0.3 0.4
v 0 0.3 0.3
v 0 0.3 -0.3
v 0 0.3 -0.4
v 0.1 -0.3 0.3
v 0.1 -0.3 0.1
v 0.1 -0.3 -0.1
v 0.1 -0.3 -0.5
v 0.1 -0.2 0.3
v 0.1 -0.2 0.1
v 0.1 -0.2 -0.1
v 0.1 -0.2 -0.3
v 0.1 -0.2 -0.4
v 0.1 -0.2 -0.5
v 0.1 -0.1 -0.3
v 0.1 -0.1 -0.4
v 0.1 0.1 0.3
v 0.1 0.1 0.1
v 0.1 0.1 -0.1
v 0.1 0.1 -0.3
v 0.1 0.2 0.3
v 0.1 0.2 0.1
v 0.1 0.2 -0.1
v 0.1 0.2 -0.3
v 0.2 0 0.3
v 0.2 0 0.2
v 0.2 0 0
v 0.2 0 -0.1
v 0.2 0 -0.2
v 0.2 0 -0.3
v 0.2 0.1 0.3
v 0.2 0.1 0.2
v 0.2 0.1 0
v 0.2 0.1 -0.1
v 0.2 0.1 -0.2
v 0.2 0.1 -0.3
v 0.2 0.2 0.3
v 0.2 0.2 0.2
v 0.2 0.2 0.1
v 0.2 0.2 -0.1
v 0.2 0.2 -0.3
v 0.2 0.3 0.3
v 0.2 0.3 0.2
v 0.2 0.3 0.1
v 0.2 0.3 -0.1
v 0.2 0.3 -0.3
v -0.1 -0.3 0.3
v -0.1 -0.3 0.1
v -0.1 -0.3 -0.1
v -0.1 -0.3 -0.5
v -0.1 -0.2 0.3
v -0.1 -0.2 0.1
v -0.1 -0.2 -0.1
v -0.1 -0.2 -0.3
v -0.1 -0.2 -0.4
v -0.1 -0.2 -0.5
v -0.1 -0.1 -0.3
v -0.1 -0.1 -0.4
v -0.1 0.1 0.2
v -0.1 0.1 0.1
v -0.1 0.1 -0.1
v -0.1 0.1 -0.2
v -0.1 0.2 0.2
v -0.1 0.2 0.1
v -0.1 0.2 -0.1
v -0.1 0.2 -0.2
v 0.1 -0.3 0.5
v 0.1 -0.3 0.3
v 0.1 -0.2 0.5
v 0.1 -0.2 0.4
v 0.1 -0.2 0.3
v 0.1 -0.1 0.4
v 0.1 -0.1 0.3
v 0.1 -0.1 0.1
v 0.1 -0.1 -0.1
v 0.1 -0.1 -0.3
v 0.1 0 0.3
v 0.1 0 0.1
v 0.1 0 -0.1
v 0.1 0 -0.3
v 0.1 0.1 0.3
v 0.1 0.1 -0.3
v 0.1 0.2 0.1
v 0.1 0.2 -0.1
v 0.1 0.3 0.1
v 0.1 0.3 -0.1
v 0.2 -0.2 0.3
v 0.2 -0.2 0.1
v 0.2 -0.2 -0.2
v 0.2 -0.2 -0.3
v 0.2 -0.1 0.3
v 0.2 -0.1 0.1
v 0.2 -0.1 -0.2
v 0.2 -0.1 -0.3
v 0.2 0 0.4
v 0.2 0 0.3
v 0.2 0 -0.3
v 0.2 0 -0.4
v 0.2 0.1 0.4
v 0.2 0.1 0.3
v 0.2 0.2 0.4
v 0.2 0.2 0.3
v 0.2 0.2 -0.3
v 0.2 0.3 0.4
v 0.2 0.3 0.3
v 0.2 0.3 -0.3
v 0.2 0.3 -0.4
v 0.3 -0.3 0.3
v 0.3 -0.3 0.1
v 0.3 -0.3 -0.1
v 0.3 -0.3 -0.5
v 0.3 -0.2 0.3
v 0.3 -0.2 0.1
v 0.3 -0.2 -0.1
v 0.3 -0.2 -0.2
v 0.3 -0.2 -0.3
v 0.3 -0.2 -0.4
v 0.3 -0.2 -0.5
v 0.3 -0.1 -0.1
v 0.3 -0.1 -0.2
v 0.3 -0.1 -0.3
v 0.3 -0.1 -0.4
v 0.3 0 0.3
v 0.3 0 0.2
v 0.3 0 0
v 0.3 0 -0.1
v 0.3 0 -0.2
v 0.3 0 -0.3
v 0.3 0.1 0.3
v 0.3 0.1 0.2
v 0.3 0.1 0
v 0.3 0.1 -0.1
v 0.3 0.2 0.3
v 0.3 0.2 0.2
v 0.3 0.2 0.1
v 0.3 0.2 -0.1
v 0.3 0.2 -0.2
v 0.3 0.2 -0.3
v 0.3 0.3 0.3
v 0.3 0.3 0.2
v 0.3 0.3 0.1
v 0.3 0.3 -0.1
v 0.3 0.3 -0.3
v -0.1 -0.3 0.5
v -0.1 -0.2 0.5
v 0.1 -0.3 0.5
v 0.1 -0.2 0.5
v -0.1 -0.2 0.4
v -0.1 -0.1 0.4
v 0 0 0.4
v 0 0.1 0.4
v 0 0.2 0.4
v 0 0.3 0.4
v 0.1 -0.2 0.4
v 0.1 -0.1 0.4
v 0.1 0 0.4
v 0.1 0.1 0.4
v 0.1 0.2 0.4
v 0.1 0.3 0.4
v 0.2 0 0.4
v 0.2 0.1 0.4
v 0.2 0.2 0.4
v 0.2 0.3 0.4
v -0.3 -0.3 0.3
v -0.3 -0.2 0.3
v -0.2 -0.2 0.3
v -0.2 -0.1 0.3
v -0.1 -0.3 0.3
v -0.1 -0.2 0.3
v -0.1 -0.1 0.3
v -0.1 0.1 0.3
v 0 0 0.3
v 0 0.1 0.3
v 0.1 -0.3 0.3
v 0.1 -0.2 0.3
v 0.1 -0.1 0.3
v 0.1 0 0.3
v 0.2 -0.2 0.3
v 0.2 -0.1 0.3
v 0.2 0 0.3
v 0.2 0.1 0.3
v 0.2 0.2 0.3
v 0.2 0.3 0.3
v 0.3 -0.3 0.3
v 0.3 -0.2 0.3
v 0.3 0 0.3
v 0.3 0.1 0.3
v 0.3 0.2 0.3
v 0.3 0.3 0.3
v -0.2 0 0.2
v -0.2 0.2 0.2
v -0.1 0 0.2
v -0.1 0.1 0.2
v -0.1 0.2 0.2
v -0.1 0.1 0.1
v -0.1 0.2 0.1
v -0.1 0.3 0.1
v 0.1 0.1 0.1
v 0.1 0.2 0.1
v 0.1 0.3 0.1
v -0.3 -0.3 -0.1
v -0.3 -0.2 -0.1
v -0.3 -0.1 -0.1
v -0.1 -0.3 -0.1
v -0.1 -0.2 -0.1
v -0.1 -0.1 -0.1
v -0.1 0 -0.1
v 0.1 -0.3 -0.1
v 0.1 -0.2 -0.1
v 0.1 -0.1 -0.1
v 0.1 0 -0.1
v 0.3 -0.3 -0.1
v 0.3 -0.2 -0.1
v 0.3 -0.1 -0.1
v -0.3 -0.2 -0.3
v -0.3 -0.1 -0.3
v -0.2 -0.2 -0.3
v -0.2 -0.1 -0.3
v 0 0.1 -0.3
v 0 0.2 -0.3
v 0 0.3 -0.3
v 0.1 0 -0.3
v 0.1 0.1 -0.3
v 0.1 0.2 -0.3
v 0.2 -0.2 -0.3
v 0.2 -0.1 -0.3
v 0.2 0 -0.3
v 0.2 0.1 -0.3
v 0.2 0.2 -0.3
v 0.2 0.3 -0.3
v 0.3 -0.2 -0.3
v 0.3 -0.1 -0.3
v -0.1 -0.3 0.3
v -0.1 -0.2 0.3
v 0 0.1 0.3
v 0 0.2 0.3
v 0 0.3 0.3
v 0.1 -0.3 0.3
v 0.1 -0.2 0.3
v 0.1 0 0.3
v 0.1 0.1 0.3
v 0.1 0.2 0.3
v 0.1 0.3 0.3
v 0.2 0 0.3
v 0.2 0.1 0.3
v 0.2 0.2 0.3
v 0.2 0.3 0.3
v -0.3 -0.3 0.1
v -0.3 -0.2 0.1
v -0.2 -0.2 0.1
v -0.2 -0.1 0.1
v -0.1 -0.3 0.1
v -0.1 -0.2 0.1
v -0.1 -0.1 0.1
v -0.1 0 0.1
v 0.1 -0.3 0.1
v 0.1 -0.2 0.1
v 0.1 -0.1 0.1
v 0.1 0 0.1
v 0.2 -0.2 0.1
v 0.2 -0.1 0.1
v 0.3 -0.3 0.1
v 0.3 -0.2 0.1
v -0.1 0.1 -0.1
v -0.1 0.2 -0.1
v -0.1 0.3 -0.1
v 0.1 0.1 -0.1
v 0.1 0.2 -0.1
v 0.1 0.3 -0.1
v -0.3 -0.2 -0.2
v -0.3 -0.1 -0.2
v -0.2 -0.2 -0.2
v -0.2 -0.1 -0.2
v -0.2 0 -0.2
v -0.2 0.2 -0.2
v -0.1 0 -0.2
v -0.1 0.1 -0.2
v -0.1 0.2 -0.2
v 0.2 -0.2 -0.2
v 0.2 -0.1 -0.2
v 0.3 -0.2 -0.2
v 0.3 -0.1 -0.2
v -0.1 -0.2 -0.3
v -0.1 -0.1 -0.3
v -0.1 0.1 -0.3
v 0 0 -0.3
v 0 0.1 -0.3
v 0.1 -0.2 -0.3
v 0.1 -0.1 -0.3
v 0.1 0 -0.3
v 0.2 0 -0.3
v 0.2 0.2 -0.3
v 0.2 0.3 -0.3
v 0.3 0 -0.3
v 0.3 0.2 -0.3
v 0.3 0.3 -0.3
v -0.3 -0.2 -0.4
v -0.3 -0.1 -0.4
v -0.1 -0.2 -0.4
v -0.1 -0.1 -0.4
v 0 0 -0.4
v 0 0.1 -0.4
v 0 0.2 -0.4
v 0 0.3 -0.4
v 0.1 -0.2 -0.4
v 0.1 -0.1 -0.4
v 0.1 0.1 -0.4
v 0.1 0.2 -0.4
v 0.2 0 -0.4
v 0.2 0.3 -0.4
v 0.3 -0.2 -0.4
v 0.3 -0.1 -0.4
v -0.3 -0.3 -0.5
v -0.3 -0.2 -0.5
v -0.1 -0.3 -0.5
v -0.1 -0.2 -0.5
v 0.1 -0.3 -0.5
v 0.1 -0.2 -0.5
v 0.3 -0.3 -0.5
v 0.3 -0.2 -0.5
v -0.1 -0.3 0.5
v 0.1 -0.3 0.5
v -0.3 -0.3 0.3
v -0.1 -0.3 0.3
v 0.1 -0.3 0.3
v 0.3 -0.3 0.3
v -0.3 -0.3 0.1
v -0.1 -0.3 0.1
v 0.1 -0.3 0.1
v 0.3 -0.3 0.1
v -0.3 -0.3 -0.1
v -0.1 -0.3 -0.1
v 0.1 -0.3 -0.1
v 0.3 -0.3 -0.1
v -0.3 -0.3 -0.5
v -0.1 -0.3 -0.5
v 0.1 -0.3 -0.5
v 0.3 -0.3 -0.5
v -0.1 -0.2 0.3
v 0.1 -0.2 0.3
v -0.1 -0.2 0.1
v 0.1 -0.2 0.1
v -0.1 -0.2 -0.1
v 0.1 -0.2 -0.1
v -0.1 -0.2 -0.3
v 0.1 -0.2 -0.3
v 0 0 0.4
v 0.1 0 0.4
v 0.2 0 0.4
v 0 0 0.3
v 0.1 0 0.3
v 0.2 0 0.3
v 0.3 0 0.3
v -0.2 0 0.2
v -0.1 0 0.2
v 0.2 0 0.2
v 0.3 0 0.2
v -0.1 0 0.1
v 0.1 0 0.1
v -0.2 0 0
v -0.1 0 0
v 0.2 0 0
v 0.3 0 0
v -0.2 0 -0.1
v -0.1 0 -0.1
v 0.1 0 -0.1
v 0.2 0 -0.1
v 0.3 0 -0.1
v -0.2 0 -0.2
v -0.1 0 -0.2
v 0.2 0 -0.2
v 0.3 0 -0.2
v 0 0 -0.3
v 0.1 0 -0.3
v 0.2 0 -0.3
v 0.3 0 -0.3
v 0 0 -0.4
v 0.2 0 -0.4
v 0.1 0.1 0.3
v 0.2 0.1 0.3
v 0.2 0.1 0.2
v 0.2 0.1 0
v 0.2 0.1 -0.1
v 0.2 0.1 -0.2
v 0.1 0.1 -0.3
v 0.2 0.1 -0.3
v -0.1 -0.2 0.5
v 0.1 -0.2 0.5
v -0.1 -0.2 0.4
v 0.1 -0.2 0.4
v -0.3 -0.2 0.3
v -0.2 -0.2 0.3
v 0.2 -0.2 0.3
v 0.3 -0.2 0.3
v -0.3 -0.2 0.1
v -0.2 -0.2 0.1
v 0.2 -0.2 0.1
v 0.3 -0.2 0.1
v -0.3 -0.2 -0.2
v -0.2 -0.2 -0.2
v 0.2 -0.2 -0.2
v 0.3 -0.2 -0.2
v -0.3 -0.2 -0.3
v -0.2 -0.2 -0.3
v 0.2 -0.2 -0.3
v 0.3 -0.2 -0.3
v -0.3 -0.2 -0.4
v -0.1 -0.2 -0.4
v 0.1 -0.2 -0.4
v 0.3 -0.2 -0.4
v -0.3 -0.2 -0.5
v -0.1 -0.2 -0.5
v 0.1 -0.2 -0.5
v 0.3 -0.2 -0.5
v -0.1 -0.1 0.4
v 0.1 -0.1 0.4
v -0.2 -0.1 0.3
v -0.1 -0.1 0.3
v 0.1 -0.1 0.3
v 0.2 -0.1 0.3
v -0.2 -0.1 0.1
v -0.1 -0.1 0.1
v 0.1 -0.1 0.1
v 0.2 -0.1 0.1
v -0.3 -0.1 -0.1
v -0.1 -0.1 -0.1
v 0.1 -0.1 -0.1
v 0.3 -0.1 -0.1
v -0.3 -0.1 -0.2
v -0.2 -0.1 -0.2
v 0.2 -0.1 -0.2
v 0.3 -0.1 -0.2
v -0.3 -0.1 -0.3
v -0.2 -0.1 -0.3
v -0.1 -0.1 -0.3
v 0.1 -0.1 -0.3
v 0.2 -0.1 -0.3
v 0.3 -0.1 -0.3
v -0.3 -0.1 -0.4
v -0.1 -0.1 -0.4
v 0.1 -0.1 -0.4
v 0.3 -0.1 -0.4
v -0.1 0.1 0.3
v 0 0.1 0.3
v 0.1 0.1 0.3
v -0.1 0.1 0.2
v -0.1 0.1 0.1
v 0.1 0.1 0.1
v -0.1 0.1 -0.1
v 0.1 0.1 -0.1
v -0.1 0.1 -0.2
v -0.1 0.1 -0.3
v 0 0.1 -0.3
v 0.1 0.1 -0.3
v 0.1 0.2 0.3
v 0.2 0.2 0.3
v -0.2 0.2 0.2
v -0.1 0.2 0.2
v 0.2 0.2 0.2
v -0.2 0.2 0.1
v -0.1 0.2 0.1
v 0.1 0.2 0.1
v 0.2 0.2 0.1
v -0.2 0.2 0
v -0.1 0.2 0
v -0.1 0.2 -0.1
v 0.1 0.2 -0.1
v 0.2 0.2 -0.1
v -0.2 0.2 -0.2
v -0.1 0.2 -0.2
v 0.1 0.2 -0.3
v 0.2 0.2 -0.3
v 0 0.3 0.4
v 0.1 0.3 0.4
v 0.2 0.3 0.4
v 0 0.3 0.3
v 0.1 0.3 0.3
v 0.2 0.3 0.3
v 0.3 0.3 0.3
v 0.2 0.3 0.2
v 0.3 0.3 0.2
v -0.1 0.3 0.1
v 0.1 0.3 0.1
v 0.2 0.3 0.1
v 0.3 0.3 0.1
v -0.1 0.3 -0.1
v 0.1 0.3 -0.1
v 0.2 0.3 -0.1
v 0.3 0.3 -0.1
v 0 0.3 -0.3
v 0.2 0.3 -0.3
v 0.3 0.3 -0.3
v 0 0.3 -0.4
v 0.2 0.3 -0.4

# faces
f 5/4/1 2/4/1 1/4/1
f 6/4/1 2/4/1 5/4/1
f 7/4/1 4/4/1 3/4/1
f 8/4/1 4/4/1 7/4/1
f 9/4/1 4/4/1 8/4/1
f 10/4/1 4/4/1 9/4/1
f 11/4/1 4/4/1 10/4/1
f 12/1/1 8/1/1 7/1/1
f 13/1/1 8/1/1 12/1/1
f 14/1/1 10/1/1 9/1/1
f 15/1/1 10/1/1 14/1/1
f 20/1/1 17/1/1 16/1/1
f 21/1/1 17/1/1 20/1/1
f 22/1/1 19/1/1 18/1/1
f 23/1/1 19/1/1 22/1/1
f 28/2/1 25/2/1 24/2/1
f 29/3/1 26/3/1 25/3/1
f 29/2/1 25/2/1 28/2/1
f 30/2/1 27/2/1 26/2/1
f 30/3/1 26/3/1 29/3/1
f 31/2/1 28/2/1 24/2/1
f 32/3/1 29/3/1 28/3/1
f 32/2/1 28/2/1 31/2/1
f 33/2/1 30/2/1 29/2/1
f 33/3/1 29/3/1 32/3/1
f 34/2/1 27/2/1 30/2/1
f 34/2/1 30/2/1 33/2/1
f 37/4/1 36/4/1 35/4/1
f 38/4/1 36/4/1 37/4/1
f 39/4/1 36/4/1 38/4/1
f 40/1/1 39/1/1 38/1/1
f 41/1/1 39/1/1 40/1/1
f 45/1/1 42/1/1 41/1/1
f 46/1/1 42/1/1 45/1/1
f 47/1/1 44/1/1 43/1/1
f 48/1/1 44/1/1 47/1/1
f 49/1/1 45/1/1 41/1/1
f 50/1/1 45/1/1 49/1/1
f 51/1/1 44/1/1 48/1/1
f 52/1/1 44/1/1 51/1/1
f 56/1/1 54/1/1 53/1/1
f 56/1/1 55/1/1 54/1/1
f 57/1/1 55/1/1 56/1/1
f 62/2/1 59/2/1 58/2/1
f 63/2/1 59/2/1 62/2/1
f 64/3/1 61/3/1 60/3/1
f 65/3/1 61/3/1 64/3/1
f 66/3/1 63/3/1 62/3/1
f 67/3/1 63/3/1 66/3/1
f 68/2/1 65/2/1 64/2/1
f 69/2/1 65/2/1 68/2/1
f 70/2/1 67/2/1 66/2/1
f 71/2/1 67/2/1 70/2/1
f 72/3/1 69/3/1 68/3/1
f 73/3/1 69/3/1 72/3/1
f 78/4/1 75/4/1 74/4/1
f 79/4/1 75/4/1 78/4/1
f 80/4/1 77/4/1 76/4/1
f 81/4/1 77/4/1 80/4/1
f 82/4/1 77/4/1 81/4/1
f 83/4/1 77/4/1 82/4/1
f 84/1/1 82/1/1 81/1/1
f 85/1/1 82/1/1 84/1/1
f 90/2/1 87/2/1 86/2/1
f 91/2/1 87/2/1 90/2/1
f 92/2/1 89/2/1 88/2/1
f 93/2/1 89/2/1 92/2/1
f 100/2/1 95/2/1 94/2/1
f 101/3/1 96/3/1 95/3/1
f 101/2/1 95/2/1 100/2/1
f 102/2/1 97/2/1 96/2/1
f 102/3/1 96/3/1 101/3/1
f 103/3/1 98/3/1 97/3/1
f 103/2/1 97/2/1 102/2/1
f 104/2/1 99/2/1 98/2/1
f 104/3/1 98/3/1 103/3/1
f 105/2/1 99/2/1 104/2/1
f 111/2/1 107/2/1 106/2/1
f 112/3/1 108/3/1 107/3/1
f 112/2/1 107/2/1 111/2/1
f 113/2/1 109/2/1 108/2/1
f 113/3/1 108/3/1 112/3/1
f 114/3/1 110/3/1 109/3/1
f 114/2/1 109/2/1 113/2/1
f 115/3/1 110/3/1 114/3/1
f 116/4/2 117/4/2 120/4/2
f 120/4/2 117/4/2 121/4/2
f 118/4/2 119/4/2 122/4/2
f 122/4/2 119/4/2 123/4/2
f 123/4/2 119/4/2 124/4/2
f 124/4/2 119/4/2 125/4/2
f 123/1/2 124/1/2 126/1/2
f 126/1/2 124/1/2 127/1/2
f 128/2/2 129/2/2 132/2/2
f 132/2/2 129/2/2 133/2/2
f 130/2/2 131/2/2 134/2/2
f 134/2/2 131/2/2 135/2/2
f 136/4/2 137/4/2 138/4/2
f 138/4/2 137/4/2 139/4/2
f 139/4/2 137/4/2 140/4/2
f 139/1/2 140/1/2 141/1/2
f 141/1/2 140/1/2 142/1/2
f 142/1/2 143/1/2 146/1/2
f 146/1/2 143/1/2 147/1/2
f 144/1/2 145/1/2 148/1/2
f 148/1/2 145/1/2 149/1/2
f 146/1/2 147/1/2 150/1/2
f 147/1/2 148/1/2 150/1/2
f 148/1/2 149/1/2 150/1/2
f 150/1/2 149/1/2 151/1/2
f 152/1/2 153/1/2 154/1/2
f 154/1/2 153/1/2 155/1/2
f 156/1/2 157/1/2 160/1/2
f 160/1/2 157/1/2 161/1/2
f 158/1/2 159/1/2 162/1/2
f 162/1/2 159/1/2 163/1/2
f 164/3/2 165/3/2 168/3/2
f 168/3/2 165/3/2 169/3/2
f 168/2/2 169/2/2 170/2/2
f 170/2/2 169/2/2 171/2/2
f 166/3/2 167/3/2 172/3/2
f 170/3/2 171/3/2 173/3/2
f 173/3/2 171/3/2 174/3/2
f 172/3/2 167/3/2 175/3/2
f 175/3/2 167/3/2 176/3/2
f 177/4/2 178/4/2 181/4/2
f 181/4/2 178/4/2 182/4/2
f 179/4/2 180/4/2 183/4/2
f 183/4/2 180/4/2 184/4/2
f 184/4/2 180/4/2 185/4/2
f 185/4/2 180/4/2 186/4/2
f 186/4/2 180/4/2 187/4/2
f 183/1/2 184/1/2 188/1/2
f 188/1/2 184/1/2 189/1/2
f 185/1/2 186/1/2 190/1/2
f 190/1/2 186/1/2 191/1/2
f 192/2/2 193/2/2 198/2/2
f 193/3/2 194/3/2 199/3/2
f 198/2/2 193/2/2 199/2/2
f 194/2/2 195/2/2 200/2/2
f 199/3/2 194/3/2 200/3/2
f 195/3/2 196/3/2 201/3/2
f 200/2/2 195/2/2 201/2/2
f 198/3/2 199/3/2 202/3/2
f 199/3/2 200/3/2 202/3/2
f 200/3/2 201/3/2 202/3/2
f 202/3/2 201/3/2 203/3/2
f 203/3/2 201/3/2 204/3/2
f 201/3/2 196/3/2 205/3/2
f 204/3/2 201/3/2 205/3/2
f 196/2/2 197/2/2 206/2/2
f 205/3/2 196/3/2 206/3/2
f 206/2/2 197/2/2 207/2/2
f 202/2/2 203/2/2 208/2/2
f 203/3/2 204/3/2 209/3/2
f 208/2/2 203/2/2 209/2/2
f 204/2/2 205/2/2 210/2/2
f 209/3/2 204/3/2 210/3/2
f 205/3/2 206/3/2 211/3/2
f 210/2/2 205/2/2 211/2/2
f 206/3/2 207/3/2 211/3/2
f 211/3/2 207/3/2 212/3/2
f 215/4/3 214/4/3 213/4/3
f 216/4/3 214/4/3 215/4/3
f 223/1/3 218/1/3 217/1/3
f 224/1/3 218/1/3 223/1/3
f 225/2/3 220/2/3 219/2/3
f 226/3/3 221/3/3 220/3/3
f 226/2/3 220/2/3 225/2/3
f 227/2/3 222/2/3 221/2/3
f 227/3/3 221/3/3 226/3/3
f 228/2/3 222/2/3 227/2/3
f 229/3/3 226/3/3 225/3/3
f 230/2/3 227/2/3 226/2/3
f 230/3/3 226/3/3 229/3/3
f 231/3/3 228/3/3 227/3/3
f 231/2/3 227/2/3 230/2/3
f 232/3/3 228/3/3 231/3/3
f 235/4/3 234/4/3 233/4/3
f 237/4/3 235/4/3 233/4/3
f 238/1/3 236/1/3 235/1/3
f 238/4/3 235/4/3 237/4/3
f 239/1/3 236/1/3 238/1/3
f 241/1/3 240/1/3 239/1/3
f 242/1/3 240/1/3 241/1/3
f 245/1/3 241/1/3 239/1/3
f 246/1/3 241/1/3 245/1/3
f 247/4/3 244/4/3 243/4/3
f 247/1/3 245/1/3 244/1/3
f 248/1/3 245/1/3 247/1/3
f 253/4/3 247/4/3 243/4/3
f 254/4/3 247/4/3 253/4/3
f 255/2/3 250/2/3 249/2/3
f 256/3/3 251/3/3 250/3/3
f 256/2/3 250/2/3 255/2/3
f 257/2/3 252/2/3 251/2/3
f 257/3/3 251/3/3 256/3/3
f 258/2/3 252/2/3 257/2/3
f 261/2/3 260/2/3 259/2/3
f 262/2/3 260/2/3 261/2/3
f 263/2/3 260/2/3 262/2/3
f 267/1/3 265/1/3 264/1/3
f 267/1/3 266/1/3 265/1/3
f 268/1/3 266/1/3 267/1/3
f 269/1/3 266/1/3 268/1/3
f 273/4/3 271/4/3 270/4/3
f 274/1/3 272/1/3 271/1/3
f 274/4/3 271/4/3 273/4/3
f 275/1/3 272/1/3 274/1/3
f 278/1/3 276/1/3 275/1/3
f 278/1/3 275/1/3 274/1/3
f 279/1/3 276/1/3 278/1/3
f 280/1/3 276/1/3 279/1/3
f 281/4/3 278/4/3 277/4/3
f 282/1/3 279/1/3 278/1/3
f 282/4/3 278/4/3 281/4/3
f 283/1/3 279/1/3 282/1/3
f 286/1/3 285/1/3 284/1/3
f 287/1/3 285/1/3 286/1/3
f 292/2/3 289/2/3 288/2/3
f 293/3/3 290/3/3 289/3/3
f 293/2/3 289/2/3 292/2/3
f 296/3/3 292/3/3 291/3/3
f 297/3/3 292/3/3 296/3/3
f 298/3/3 290/3/3 293/3/3
f 299/3/3 290/3/3 298/3/3
f 300/1/3 295/1/3 294/1/3
f 301/1/3 295/1/3 300/1/3
f 302/4/4 303/4/4 307/4/4
f 307/4/4 303/4/4 308/4/4
f 304/3/4 305/3/4 310/3/4
f 305/2/4 306/2/4 311/2/4
f 310/3/4 305/3/4 311/3/4
f 311/2/4 306/2/4 312/2/4
f 309/3/4 310/3/4 313/3/4
f 313/3/4 310/3/4 314/3/4
f 311/3/4 312/3/4 315/3/4
f 315/3/4 312/3/4 316/3/4
f 317/4/4 318/4/4 319/4/4
f 317/4/4 319/4/4 321/4/4
f 319/1/4 320/1/4 322/1/4
f 321/4/4 319/4/4 322/4/4
f 322/1/4 320/1/4 323/1/4
f 323/1/4 324/1/4 326/1/4
f 322/1/4 323/1/4 326/1/4
f 326/1/4 324/1/4 327/1/4
f 327/1/4 324/1/4 328/1/4
f 325/4/4 326/4/4 329/4/4
f 326/1/4 327/1/4 329/1/4
f 329/1/4 327/1/4 330/1/4
f 325/4/4 329/4/4 331/4/4
f 331/4/4 329/4/4 332/4/4
f 333/1/4 334/1/4 336/1/4
f 334/1/4 335/1/4 336/1/4
f 336/1/4 335/1/4 337/1/4
f 337/1/4 335/1/4 338/1/4
f 339/1/4 340/1/4 341/1/4
f 341/1/4 340/1/4 342/1/4
f 343/2/4 344/2/4 345/2/4
f 345/2/4 344/2/4 346/2/4
f 346/2/4 344/2/4 347/2/4
f 348/1/4 349/1/4 350/1/4
f 350/1/4 349/1/4 351/1/4
f 352/1/4 353/1/4 355/1/4
f 353/1/4 354/1/4 355/1/4
f 355/1/4 354/1/4 356/1/4
f 352/1/4 355/1/4 357/1/4
f 357/1/4 355/1/4 358/1/4
f 358/1/4 355/1/4 359/1/4
f 360/2/4 361/2/4 363/2/4
f 361/3/4 362/3/4 364/3/4
f 363/2/4 361/2/4 364/2/4
f 364/3/4 362/3/4 365/3/4
f 366/1/4 367/1/4 368/1/4
f 368/1/4 367/1/4 369/1/4
f 370/3/4 371/3/4 376/3/4
f 371/2/4 372/2/4 376/2/4
f 372/3/4 373/3/4 377/3/4
f 376/2/4 372/2/4 377/2/4
f 370/3/4 376/3/4 378/3/4
f 376/3/4 377/3/4 378/3/4
f 377/3/4 373/3/4 379/3/4
f 378/3/4 377/3/4 379/3/4
f 374/1/4 375/1/4 380/1/4
f 380/1/4 375/1/4 381/1/4
f 382/4/4 383/4/4 384/4/4
f 384/4/4 383/4/4 385/4/4
f 386/4/4 387/4/4 388/4/4
f 388/4/4 387/4/4 389/4/4
f 393/4/5 391/4/5 390/4/5
f 394/4/5 391/4/5 393/4/5
f 396/4/5 393/4/5 392/4/5
f 397/4/5 393/4/5 396/4/5
f 398/4/5 395/4/5 394/4/5
f 399/4/5 395/4/5 398/4/5
f 404/4/5 401/4/5 400/4/5
f 405/4/5 401/4/5 404/4/5
f 406/4/5 403/4/5 402/4/5
f 407/4/5 403/4/5 406/4/5
f 410/1/5 409/1/5 408/1/5
f 411/1/5 409/1/5 410/1/5
f 414/1/5 413/1/5 412/1/5
f 415/1/5 413/1/5 414/1/5
f 419/2/5 417/2/5 416/2/5
f 420/3/5 418/3/5 417/3/5
f 420/2/5 417/2/5 419/2/5
f 421/3/5 418/3/5 420/3/5
f 425/2/5 422/2/5 421/2/5
f 426/2/5 422/2/5 425/2/5
f 427/2/5 424/2/5 423/2/5
f 429/2/5 427/2/5 423/2/5
f 430/1/5 428/1/5 427/1/5
f 430/2/5 427/2/5 429/2/5
f 431/3/5 426/3/5 425/3/5
f 432/3/5 426/3/5 431/3/5
f 433/3/5 430/3/5 429/3/5
f 434/1/5 428/1/5 430/1/5
f 434/3/5 430/3/5 433/3/5
f 435/1/5 428/1/5 434/1/5
f 436/2/5 432/2/5 431/2/5
f 437/2/5 432/2/5 436/2/5
f 438/2/5 434/2/5 433/2/5
f 439/2/5 434/2/5 438/2/5
f 440/3/5 437/3/5 436/3/5
f 441/3/5 437/3/5 440/3/5
f 444/2/5 441/2/5 440/2/5
f 445/2/5 441/2/5 444/2/5
f 446/3/5 443/3/5 442/3/5
f 446/3/5 444/3/5 443/3/5
f 447/3/5 444/3/5 446/3/5
f 450/2/5 449/2/5 448/2/5
f 451/2/5 450/2/5 448/2/5
f 452/2/5 451/2/5 448/2/5
f 453/2/5 452/2/5 448/2/5
f 454/2/5 453/2/5 448/2/5
f 455/2/5 453/2/5 454/2/5
f 456/4/6 457/4/6 458/4/6
f 458/4/6 457/4/6 459/4/6
f 460/4/6 461/4/6 464/4/6
f 464/4/6 461/4/6 465/4/6
f 462/4/6 463/4/6 466/4/6
f 466/4/6 463/4/6 467/4/6
f 468/4/6 469/4/6 472/4/6
f 472/4/6 469/4/6 473/4/6
f 470/4/6 471/4/6 474/4/6
f 474/4/6 471/4/6 475/4/6
f 476/4/6 477/4/6 480/4/6
f 480/4/6 477/4/6 481/4/6
f 478/4/6 479/4/6 482/4/6
f 482/4/6 479/4/6 483/4/6
f 484/1/6 485/1/6 487/1/6
f 487/1/6 485/1/6 488/1/6
f 486/1/6 487/1/6 490/1/6
f 490/1/6 487/1/6 491/1/6
f 488/1/6 489/1/6 492/1/6
f 492/1/6 489/1/6 493/1/6
f 494/1/6 495/1/6 498/1/6
f 498/1/6 495/1/6 499/1/6
f 496/1/6 497/1/6 500/1/6
f 500/1/6 497/1/6 501/1/6
f 499/1/6 495/1/6 503/1/6
f 503/1/6 495/1/6 504/1/6
f 496/1/6 500/1/6 505/1/6
f 505/1/6 500/1/6 506/1/6
f 503/1/6 504/1/6 508/1/6
f 502/1/6 503/1/6 508/1/6
f 508/1/6 504/1/6 509/1/6
f 506/1/6 507/1/6 510/1/6
f 505/1/6 506/1/6 510/1/6
f 510/1/6 507/1/6 511/1/6
f 512/1/6 513/1/6 515/1/6
f 513/1/6 514/1/6 515/1/6
f 515/1/6 514/1/6 516/1/6
f 516/1/6 514/1/6 517/1/6
f 518/1/6 519/1/6 520/1/6
f 520/1/6 519/1/6 521/1/6
f 521/1/6 519/1/6 522/1/6
f 522/1/6 519/1/6 523/1/6
f 524/2/6 525/2/6 528/2/6
f 526/2/6 527/2/6 529/2/6
f 529/2/6 527/2/6 530/2/6
f 524/2/6 528/2/6 531/2/6
f 531/2/6 528/2/6 532/2/6
f 529/3/6 530/3/6 533/3/6
f 533/3/6 530/3/6 534/3/6
f 533/2/6 534/2/6 535/2/6
f 531/2/6 532/2/6 536/2/6
f 536/2/6 532/2/6 537/2/6
f 533/2/6 535/2/6 538/2/6
f 538/2/6 535/2/6 539/2/6
f 536/2/6 537/2/6 540/2/6
f 540/2/6 537/2/6 541/2/6
f 542/2/6 543/2/6 545/2/6
f 543/3/6 544/3/6 546/3/6
f 545/2/6 543/2/6 546/2/6
f 546/3/6 544/3/6 547/3/6
f 547/2/6 548/2/6 549/2/6
f 549/2/6 548/2/6 550/2/6
f 549/3/6 550/3/6 553/3/6
f 553/3/6 550/3/6 554/3/6
f 551/1/6 552/1/6 555/1/6
f 555/1/6 552/1/6 556/1/6
f 553/2/6 554/2/6 557/2/6
f 557/2/6 554/2/6 558/2/6
f 557/3/6 558/3/6 560/3/6
f 560/3/6 558/3/6 561/3/6
f 559/3/6 560/3/6 562/3/6
f 562/3/6 560/3/6 563/3/6
