# MagicaVoxel @ Ephtracy

# group
o 

# material
mtllib Leg-1.mtl
usemtl palette

# normals
vn -1 0 0
vn 1 0 0
vn 0 0 1
vn 0 0 -1
vn 0 -1 0
vn 0 1 0

# texcoords
vt 0.693359 0.5
vt 0.697266 0.5
vt 0.705078 0.5
vt 0.712891 0.5

# verts
v -0.2 -0.45 0.15
v -0.2 -0.45 -0.05
v -0.2 -0.35 0.15
v -0.2 -0.35 -0.05
v -0.1 -0.55 0.05
v -0.1 -0.55 -0.15
v -0.1 -0.45 0.05
v -0.1 -0.45 -0.05
v -0.1 -0.35 0.05
v -0.1 -0.35 -0.05
v -0.1 0.35 0.15
v -0.1 0.35 0.05
v -0.1 0.35 -0.05
v -0.1 0.35 -0.15
v -0.1 0.45 0.15
v -0.1 0.45 0.05
v -0.1 0.45 -0.05
v -0.1 0.55 -0.05
v -0.1 0.55 -0.15
v 0 0.35 0.05
v 0 0.35 -0.05
v 0 0.35 -0.15
v 0 0.45 0.05
v 0 0.45 -0.05
v 0 0.55 -0.05
v 0 0.55 -0.15
v 0.1 -0.55 0.05
v 0.1 -0.55 -0.15
v 0.1 -0.45 0.05
v 0.1 -0.45 -0.05
v 0.1 -0.35 0.05
v 0.1 -0.35 -0.05
v 0.1 0.35 0.15
v 0.1 0.35 0.05
v 0.1 0.35 -0.15
v 0.1 0.45 0.15
v 0.1 0.45 0.05
v 0.2 -0.45 0.15
v 0.2 -0.45 -0.05
v 0.2 -0.35 0.15
v 0.2 -0.35 -0.05
v -0.2 -0.45 0.15
v -0.2 -0.35 0.15
v -0.1 0.35 0.15
v -0.1 0.45 0.15
v 0.1 0.35 0.15
v 0.1 0.45 0.15
v 0.2 -0.45 0.15
v 0.2 -0.35 0.15
v -0.1 -0.55 0.05
v -0.1 -0.45 0.05
v -0.1 -0.35 0.05
v -0.1 0.35 0.05
v 0.1 -0.55 0.05
v 0.1 -0.45 0.05
v 0.1 -0.35 0.05
v 0.1 0.35 0.05
v -0.1 0.45 -0.05
v -0.1 0.55 -0.05
v 0 0.45 -0.05
v 0 0.55 -0.05
v 0 0.35 0.05
v 0 0.45 0.05
v 0.1 0.35 0.05
v 0.1 0.45 0.05
v -0.2 -0.45 -0.05
v -0.2 -0.35 -0.05
v -0.1 -0.45 -0.05
v -0.1 -0.35 -0.05
v 0.1 -0.45 -0.05
v 0.1 -0.35 -0.05
v 0.2 -0.45 -0.05
v 0.2 -0.35 -0.05
v -0.1 -0.55 -0.15
v -0.1 0.35 -0.15
v -0.1 0.55 -0.15
v 0 0.35 -0.15
v 0 0.55 -0.15
v 0.1 -0.55 -0.15
v 0.1 0.35 -0.15
v -0.1 -0.55 0.05
v 0.1 -0.55 0.05
v -0.1 -0.55 -0.15
v 0.1 -0.55 -0.15
v -0.2 -0.45 0.15
v 0.2 -0.45 0.15
v -0.1 -0.45 0.05
v 0.1 -0.45 0.05
v -0.2 -0.45 -0.05
v -0.1 -0.45 -0.05
v 0.1 -0.45 -0.05
v 0.2 -0.45 -0.05
v -0.1 0.35 0.15
v 0.1 0.35 0.15
v -0.1 0.35 0.05
v 0.1 0.35 0.05
v -0.2 -0.35 0.15
v 0.2 -0.35 0.15
v -0.1 -0.35 0.05
v 0.1 -0.35 0.05
v -0.2 -0.35 -0.05
v -0.1 -0.35 -0.05
v 0.1 -0.35 -0.05
v 0.2 -0.35 -0.05
v 0 0.35 0.05
v 0.1 0.35 0.05
v 0 0.35 -0.05
v 0 0.35 -0.15
v 0.1 0.35 -0.15
v -0.1 0.45 0.15
v 0.1 0.45 0.15
v -0.1 0.45 0.05
v 0 0.45 0.05
v 0.1 0.45 0.05
v -0.1 0.45 -0.05
v 0 0.45 -0.05
v -0.1 0.55 -0.05
v 0 0.55 -0.05
v -0.1 0.55 -0.15
v 0 0.55 -0.15

# faces
f 3/4/1 2/4/1 1/4/1
f 4/4/1 2/4/1 3/4/1
f 7/1/1 6/1/1 5/1/1
f 8/1/1 6/1/1 7/1/1
f 10/1/1 6/1/1 8/1/1
f 12/1/1 10/1/1 9/1/1
f 13/1/1 6/1/1 10/1/1
f 13/1/1 10/1/1 12/1/1
f 14/1/1 6/1/1 13/1/1
f 15/3/1 12/3/1 11/3/1
f 16/2/1 13/2/1 12/2/1
f 16/3/1 12/3/1 15/3/1
f 17/3/1 14/3/1 13/3/1
f 17/2/1 13/2/1 16/2/1
f 18/3/1 14/3/1 17/3/1
f 19/3/1 14/3/1 18/3/1
f 20/2/2 21/2/2 23/2/2
f 21/3/2 22/3/2 24/3/2
f 23/2/2 21/2/2 24/2/2
f 24/3/2 22/3/2 25/3/2
f 25/3/2 22/3/2 26/3/2
f 27/1/2 28/1/2 29/1/2
f 29/1/2 28/1/2 30/1/2
f 30/1/2 28/1/2 32/1/2
f 31/1/2 32/1/2 34/1/2
f 32/1/2 28/1/2 35/1/2
f 34/1/2 32/1/2 35/1/2
f 33/3/2 34/3/2 36/3/2
f 36/3/2 34/3/2 37/3/2
f 38/4/2 39/4/2 40/4/2
f 40/4/2 39/4/2 41/4/2
f 46/3/3 45/3/3 44/3/3
f 47/3/3 45/3/3 46/3/3
f 48/4/3 43/4/3 42/4/3
f 49/4/3 43/4/3 48/4/3
f 54/1/3 51/1/3 50/1/3
f 55/1/3 51/1/3 54/1/3
f 56/1/3 53/1/3 52/1/3
f 57/1/3 53/1/3 56/1/3
f 60/3/3 59/3/3 58/3/3
f 61/3/3 59/3/3 60/3/3
f 62/3/4 63/3/4 64/3/4
f 64/3/4 63/3/4 65/3/4
f 66/4/4 67/4/4 68/4/4
f 68/4/4 67/4/4 69/4/4
f 70/4/4 71/4/4 72/4/4
f 72/4/4 71/4/4 73/4/4
f 74/1/4 75/1/4 77/1/4
f 75/3/4 76/3/4 77/3/4
f 77/3/4 76/3/4 78/3/4
f 74/1/4 77/1/4 79/1/4
f 79/1/4 77/1/4 80/1/4
f 83/1/5 82/1/5 81/1/5
f 84/1/5 82/1/5 83/1/5
f 87/4/5 86/4/5 85/4/5
f 88/4/5 86/4/5 87/4/5
f 89/4/5 87/4/5 85/4/5
f 90/4/5 87/4/5 89/4/5
f 91/4/5 86/4/5 88/4/5
f 92/4/5 86/4/5 91/4/5
f 95/3/5 94/3/5 93/3/5
f 96/3/5 94/3/5 95/3/5
f 97/4/6 98/4/6 99/4/6
f 99/4/6 98/4/6 100/4/6
f 97/4/6 99/4/6 101/4/6
f 101/4/6 99/4/6 102/4/6
f 100/4/6 98/4/6 103/4/6
f 103/4/6 98/4/6 104/4/6
f 105/1/6 106/1/6 107/1/6
f 107/1/6 106/1/6 108/1/6
f 108/1/6 106/1/6 109/1/6
f 110/3/6 111/3/6 112/3/6
f 112/3/6 111/3/6 113/3/6
f 113/3/6 111/3/6 114/3/6
f 112/2/6 113/2/6 115/2/6
f 115/2/6 113/2/6 116/2/6
f 117/3/6 118/3/6 119/3/6
f 119/3/6 118/3/6 120/3/6
