# MagicaVoxel @ Ephtracy

# group
o 

# material
mtllib Leg-21.mtl
usemtl palette

# normals
vn -1 0 0
vn 1 0 0
vn 0 0 1
vn 0 0 -1
vn 0 -1 0
vn 0 1 0

# texcoords
vt 0.705078 0.5
vt 0.939453 0.5
vt 0.943359 0.5

# verts
v -0.4 -0.25 0.5
v -0.4 -0.25 0.3
v -0.4 -0.25 -0.1
v -0.4 -0.15 0.5
v -0.4 -0.15 0.3
v -0.4 -0.15 -0.1
v -0.3 -0.25 0.6
v -0.3 -0.25 0.5
v -0.3 -0.25 -0.1
v -0.3 -0.25 -0.2
v -0.3 -0.15 0.6
v -0.3 -0.15 0.5
v -0.3 -0.15 0.3
v -0.3 -0.15 -0.1
v -0.3 -0.15 -0.2
v -0.3 -0.05 0.5
v -0.3 -0.05 0.3
v -0.3 -0.05 -0.1
v -0.2 -0.25 0.7
v -0.2 -0.25 0.6
v -0.2 -0.25 -0.2
v -0.2 -0.25 -0.7
v -0.2 -0.15 0.7
v -0.2 -0.15 0.6
v -0.2 -0.15 0.5
v -0.2 -0.15 -0.1
v -0.2 -0.15 -0.2
v -0.2 -0.05 0.6
v -0.2 -0.05 0.5
v -0.2 -0.05 -0.1
v -0.2 -0.05 -0.7
v -0.1 -0.05 0.1
v -0.1 -0.05 -0.4
v -0.1 0.05 0.1
v -0.1 0.05 0
v -0.1 0.05 -0.4
v -0.1 0.05 -0.5
v -0.1 0.15 -0.2
v -0.1 0.15 -0.5
v -0.1 0.25 0
v -0.1 0.25 -0.2
v 0.1 -0.05 0.1
v 0.1 -0.05 -0.4
v 0.1 0.05 0.1
v 0.1 0.05 0
v 0.1 0.05 -0.4
v 0.1 0.05 -0.5
v 0.1 0.15 -0.2
v 0.1 0.15 -0.5
v 0.1 0.25 0
v 0.1 0.25 -0.2
v 0.2 -0.25 0.7
v 0.2 -0.25 0.6
v 0.2 -0.25 -0.4
v 0.2 -0.25 -0.7
v 0.2 -0.15 0.7
v 0.2 -0.15 0.6
v 0.2 -0.15 0.5
v 0.2 -0.15 -0.3
v 0.2 -0.15 -0.4
v 0.2 -0.05 0.6
v 0.2 -0.05 0.5
v 0.2 -0.05 -0.3
v 0.2 -0.05 -0.7
v 0.3 -0.25 0.6
v 0.3 -0.25 0.5
v 0.3 -0.25 -0.3
v 0.3 -0.25 -0.4
v 0.3 -0.15 0.6
v 0.3 -0.15 0.5
v 0.3 -0.15 0.3
v 0.3 -0.15 -0.3
v 0.3 -0.15 -0.4
v 0.3 -0.05 0.5
v 0.3 -0.05 0.3
v 0.3 -0.05 -0.3
v 0.4 -0.25 0.5
v 0.4 -0.25 0.3
v 0.4 -0.25 -0.3
v 0.4 -0.15 0.5
v 0.4 -0.15 0.3
v 0.4 -0.15 -0.3
v -0.2 -0.25 0.7
v -0.2 -0.15 0.7
v 0.2 -0.25 0.7
v 0.2 -0.15 0.7
v -0.3 -0.25 0.6
v -0.3 -0.15 0.6
v -0.2 -0.25 0.6
v -0.2 -0.15 0.6
v -0.2 -0.05 0.6
v 0.2 -0.25 0.6
v 0.2 -0.15 0.6
v 0.2 -0.05 0.6
v 0.3 -0.25 0.6
v 0.3 -0.15 0.6
v -0.4 -0.25 0.5
v -0.4 -0.15 0.5
v -0.3 -0.25 0.5
v -0.3 -0.15 0.5
v -0.3 -0.05 0.5
v -0.2 -0.15 0.5
v -0.2 -0.05 0.5
v 0.2 -0.15 0.5
v 0.2 -0.05 0.5
v 0.3 -0.25 0.5
v 0.3 -0.15 0.5
v 0.3 -0.05 0.5
v 0.4 -0.25 0.5
v 0.4 -0.15 0.5
v -0.1 -0.05 0.1
v -0.1 0.05 0.1
v 0.1 -0.05 0.1
v 0.1 0.05 0.1
v -0.1 0.05 0
v -0.1 0.25 0
v 0.1 0.05 0
v 0.1 0.25 0
v -0.4 -0.25 -0.1
v -0.4 -0.15 -0.1
v -0.3 -0.25 -0.1
v -0.3 -0.15 -0.1
v -0.3 -0.05 -0.1
v -0.2 -0.15 -0.1
v -0.2 -0.05 -0.1
v -0.3 -0.25 -0.2
v -0.3 -0.15 -0.2
v -0.2 -0.25 -0.2
v -0.2 -0.15 -0.2
v -0.1 0.15 -0.2
v -0.1 0.25 -0.2
v 0.1 0.15 -0.2
v 0.1 0.25 -0.2
v 0.2 -0.15 -0.3
v 0.2 -0.05 -0.3
v 0.3 -0.25 -0.3
v 0.3 -0.15 -0.3
v 0.3 -0.05 -0.3
v 0.4 -0.25 -0.3
v 0.4 -0.15 -0.3
v -0.1 -0.05 -0.4
v -0.1 0.05 -0.4
v 0.1 -0.05 -0.4
v 0.1 0.05 -0.4
v 0.2 -0.25 -0.4
v 0.2 -0.15 -0.4
v 0.3 -0.25 -0.4
v 0.3 -0.15 -0.4
v -0.1 0.05 -0.5
v -0.1 0.15 -0.5
v 0.1 0.05 -0.5
v 0.1 0.15 -0.5
v -0.2 -0.25 -0.7
v -0.2 -0.05 -0.7
v 0.2 -0.25 -0.7
v 0.2 -0.05 -0.7
v -0.2 -0.25 0.7
v 0.2 -0.25 0.7
v -0.3 -0.25 0.6
v -0.2 -0.25 0.6
v 0.2 -0.25 0.6
v 0.3 -0.25 0.6
v -0.4 -0.25 0.5
v -0.3 -0.25 0.5
v -0.2 -0.25 0.5
v 0.2 -0.25 0.5
v 0.3 -0.25 0.5
v 0.4 -0.25 0.5
v -0.4 -0.25 0.3
v -0.3 -0.25 0.3
v 0.3 -0.25 0.3
v 0.4 -0.25 0.3
v -0.4 -0.25 -0.1
v -0.3 -0.25 -0.1
v -0.3 -0.25 -0.2
v -0.2 -0.25 -0.2
v 0.3 -0.25 -0.3
v 0.4 -0.25 -0.3
v 0.2 -0.25 -0.4
v 0.3 -0.25 -0.4
v -0.2 -0.25 -0.7
v 0.2 -0.25 -0.7
v -0.1 0.05 -0.4
v 0.1 0.05 -0.4
v -0.1 0.05 -0.5
v 0.1 0.05 -0.5
v -0.2 -0.15 0.7
v 0.2 -0.15 0.7
v -0.3 -0.15 0.6
v -0.2 -0.15 0.6
v 0.2 -0.15 0.6
v 0.3 -0.15 0.6
v -0.4 -0.15 0.5
v -0.3 -0.15 0.5
v -0.2 -0.15 0.5
v 0.2 -0.15 0.5
v 0.3 -0.15 0.5
v 0.4 -0.15 0.5
v -0.4 -0.15 0.3
v -0.3 -0.15 0.3
v 0.3 -0.15 0.3
v 0.4 -0.15 0.3
v -0.4 -0.15 -0.1
v -0.3 -0.15 -0.1
v -0.2 -0.15 -0.1
v -0.3 -0.15 -0.2
v -0.2 -0.15 -0.2
v 0.2 -0.15 -0.3
v 0.3 -0.15 -0.3
v 0.4 -0.15 -0.3
v 0.2 -0.15 -0.4
v 0.3 -0.15 -0.4
v -0.2 -0.05 0.6
v 0.2 -0.05 0.6
v -0.3 -0.05 0.5
v -0.2 -0.05 0.5
v 0.2 -0.05 0.5
v 0.3 -0.05 0.5
v -0.3 -0.05 0.3
v -0.2 -0.05 0.3
v 0.2 -0.05 0.3
v 0.3 -0.05 0.3
v -0.2 -0.05 0.2
v -0.1 -0.05 0.2
v 0.1 -0.05 0.2
v 0.2 -0.05 0.2
v -0.1 -0.05 0.1
v 0.1 -0.05 0.1
v -0.3 -0.05 -0.1
v -0.2 -0.05 -0.1
v 0.2 -0.05 -0.3
v 0.3 -0.05 -0.3
v -0.1 -0.05 -0.4
v 0.1 -0.05 -0.4
v -0.2 -0.05 -0.7
v 0.2 -0.05 -0.7
v -0.1 0.05 0.1
v 0.1 0.05 0.1
v -0.1 0.05 0
v 0.1 0.05 0
v -0.1 0.15 -0.2
v 0.1 0.15 -0.2
v -0.1 0.15 -0.5
v 0.1 0.15 -0.5
v -0.1 0.25 0
v 0.1 0.25 0
v -0.1 0.25 -0.2
v 0.1 0.25 -0.2

# faces
f 4/2/1 2/2/1 1/2/1
f 5/3/1 3/3/1 2/3/1
f 5/2/1 2/2/1 4/2/1
f 6/3/1 3/3/1 5/3/1
f 11/2/1 8/2/1 7/2/1
f 12/2/1 8/2/1 11/2/1
f 14/3/1 10/3/1 9/3/1
f 15/3/1 10/3/1 14/3/1
f 16/2/1 13/2/1 12/2/1
f 17/3/1 14/3/1 13/3/1
f 17/2/1 13/2/1 16/2/1
f 18/3/1 14/3/1 17/3/1
f 23/2/1 20/2/1 19/2/1
f 24/2/1 20/2/1 23/2/1
f 27/3/1 22/3/1 21/3/1
f 28/2/1 25/2/1 24/2/1
f 29/2/1 25/2/1 28/2/1
f 30/3/1 27/3/1 26/3/1
f 31/3/1 22/3/1 27/3/1
f 31/3/1 27/3/1 30/3/1
f 34/1/1 33/1/1 32/1/1
f 35/1/1 33/1/1 34/1/1
f 36/1/1 33/1/1 35/1/1
f 38/1/1 37/1/1 36/1/1
f 38/1/1 36/1/1 35/1/1
f 39/1/1 37/1/1 38/1/1
f 40/1/1 38/1/1 35/1/1
f 41/1/1 38/1/1 40/1/1
f 42/1/2 43/1/2 44/1/2
f 44/1/2 43/1/2 45/1/2
f 45/1/2 43/1/2 46/1/2
f 46/1/2 47/1/2 48/1/2
f 45/1/2 46/1/2 48/1/2
f 48/1/2 47/1/2 49/1/2
f 45/1/2 48/1/2 50/1/2
f 50/1/2 48/1/2 51/1/2
f 52/2/2 53/2/2 56/2/2
f 56/2/2 53/2/2 57/2/2
f 54/3/2 55/3/2 60/3/2
f 57/2/2 58/2/2 61/2/2
f 61/2/2 58/2/2 62/2/2
f 59/3/2 60/3/2 63/3/2
f 60/3/2 55/3/2 64/3/2
f 63/3/2 60/3/2 64/3/2
f 65/2/2 66/2/2 69/2/2
f 69/2/2 66/2/2 70/2/2
f 67/3/2 68/3/2 72/3/2
f 72/3/2 68/3/2 73/3/2
f 70/2/2 71/2/2 74/2/2
f 71/3/2 72/3/2 75/3/2
f 74/2/2 71/2/2 75/2/2
f 75/3/2 72/3/2 76/3/2
f 77/2/2 78/2/2 80/2/2
f 78/3/2 79/3/2 81/3/2
f 80/2/2 78/2/2 81/2/2
f 81/3/2 79/3/2 82/3/2
f 85/2/3 84/2/3 83/2/3
f 86/2/3 84/2/3 85/2/3
f 89/2/3 88/2/3 87/2/3
f 90/2/3 88/2/3 89/2/3
f 93/2/3 91/2/3 90/2/3
f 94/2/3 91/2/3 93/2/3
f 95/2/3 93/2/3 92/2/3
f 96/2/3 93/2/3 95/2/3
f 99/2/3 98/2/3 97/2/3
f 100/2/3 98/2/3 99/2/3
f 102/2/3 101/2/3 100/2/3
f 103/2/3 101/2/3 102/2/3
f 107/2/3 105/2/3 104/2/3
f 108/2/3 105/2/3 107/2/3
f 109/2/3 107/2/3 106/2/3
f 110/2/3 107/2/3 109/2/3
f 113/1/3 112/1/3 111/1/3
f 114/1/3 112/1/3 113/1/3
f 117/1/3 116/1/3 115/1/3
f 118/1/3 116/1/3 117/1/3
f 119/3/4 120/3/4 121/3/4
f 121/3/4 120/3/4 122/3/4
f 122/3/4 123/3/4 124/3/4
f 124/3/4 123/3/4 125/3/4
f 126/3/4 127/3/4 128/3/4
f 128/3/4 127/3/4 129/3/4
f 130/1/4 131/1/4 132/1/4
f 132/1/4 131/1/4 133/1/4
f 134/3/4 135/3/4 137/3/4
f 137/3/4 135/3/4 138/3/4
f 136/3/4 137/3/4 139/3/4
f 139/3/4 137/3/4 140/3/4
f 141/1/4 142/1/4 143/1/4
f 143/1/4 142/1/4 144/1/4
f 145/3/4 146/3/4 147/3/4
f 147/3/4 146/3/4 148/3/4
f 149/1/4 150/1/4 151/1/4
f 151/1/4 150/1/4 152/1/4
f 153/3/4 154/3/4 155/3/4
f 155/3/4 154/3/4 156/3/4
f 160/2/5 158/2/5 157/2/5
f 161/2/5 158/2/5 160/2/5
f 164/2/5 160/2/5 159/2/5
f 165/3/5 161/3/5 160/3/5
f 165/2/5 160/2/5 164/2/5
f 166/2/5 162/2/5 161/2/5
f 166/3/5 161/3/5 165/3/5
f 167/2/5 162/2/5 166/2/5
f 169/2/5 164/2/5 163/2/5
f 170/3/5 165/3/5 164/3/5
f 170/2/5 164/2/5 169/2/5
f 170/3/5 166/3/5 165/3/5
f 170/3/5 167/3/5 166/3/5
f 171/2/5 168/2/5 167/2/5
f 171/3/5 167/3/5 170/3/5
f 172/2/5 168/2/5 171/2/5
f 173/3/5 170/3/5 169/3/5
f 173/3/5 171/3/5 170/3/5
f 173/3/5 172/3/5 171/3/5
f 174/3/5 172/3/5 173/3/5
f 175/3/5 172/3/5 174/3/5
f 176/3/5 172/3/5 175/3/5
f 177/3/5 172/3/5 176/3/5
f 178/3/5 172/3/5 177/3/5
f 179/3/5 177/3/5 176/3/5
f 180/3/5 177/3/5 179/3/5
f 181/3/5 179/3/5 176/3/5
f 182/3/5 179/3/5 181/3/5
f 185/1/5 184/1/5 183/1/5
f 186/1/5 184/1/5 185/1/5
f 187/2/6 188/2/6 190/2/6
f 190/2/6 188/2/6 191/2/6
f 189/2/6 190/2/6 194/2/6
f 194/2/6 190/2/6 195/2/6
f 191/2/6 192/2/6 196/2/6
f 196/2/6 192/2/6 197/2/6
f 193/2/6 194/2/6 199/2/6
f 199/2/6 194/2/6 200/2/6
f 197/2/6 198/2/6 201/2/6
f 201/2/6 198/2/6 202/2/6
f 199/3/6 200/3/6 203/3/6
f 203/3/6 200/3/6 204/3/6
f 204/3/6 205/3/6 206/3/6
f 206/3/6 205/3/6 207/3/6
f 201/3/6 202/3/6 209/3/6
f 209/3/6 202/3/6 210/3/6
f 208/3/6 209/3/6 211/3/6
f 211/3/6 209/3/6 212/3/6
f 213/2/6 214/2/6 216/2/6
f 216/2/6 214/2/6 217/2/6
f 215/2/6 216/2/6 219/2/6
f 217/2/6 218/2/6 219/2/6
f 216/2/6 217/2/6 219/2/6
f 219/2/6 218/2/6 220/2/6
f 220/2/6 218/2/6 221/2/6
f 221/2/6 218/2/6 222/2/6
f 219/3/6 220/3/6 223/3/6
f 220/2/6 221/2/6 223/2/6
f 223/2/6 221/2/6 224/2/6
f 224/2/6 221/2/6 225/2/6
f 221/3/6 222/3/6 226/3/6
f 225/2/6 221/2/6 226/2/6
f 224/2/6 225/2/6 227/2/6
f 223/3/6 224/3/6 227/3/6
f 225/3/6 226/3/6 228/3/6
f 227/2/6 225/2/6 228/2/6
f 219/3/6 223/3/6 229/3/6
f 223/3/6 227/3/6 229/3/6
f 229/3/6 227/3/6 230/3/6
f 226/3/6 222/3/6 231/3/6
f 228/3/6 226/3/6 231/3/6
f 231/3/6 222/3/6 232/3/6
f 230/3/6 227/3/6 233/3/6
f 228/3/6 231/3/6 234/3/6
f 230/3/6 233/3/6 235/3/6
f 233/3/6 234/3/6 235/3/6
f 234/3/6 231/3/6 236/3/6
f 235/3/6 234/3/6 236/3/6
f 237/1/6 238/1/6 239/1/6
f 239/1/6 238/1/6 240/1/6
f 241/1/6 242/1/6 243/1/6
f 243/1/6 242/1/6 244/1/6
f 245/1/6 246/1/6 247/1/6
f 247/1/6 246/1/6 248/1/6
