# MagicaVoxel @ Ephtracy

# group
o 

# material
mtllib Other-8.mtl
usemtl palette

# normals
vn -1 0 0
vn 1 0 0
vn 0 0 1
vn 0 0 -1
vn 0 -1 0
vn 0 1 0

# texcoords
vt 0.705078 0.5
vt 0.712891 0.5
vt 0.919922 0.5
vt 0.935547 0.5

# verts
v -0.4 -0.3 0.3
v -0.4 -0.3 -0.2
v -0.4 -0.2 0.3
v -0.4 -0.2 -0.2
v -0.4 -0.2 -0.3
v -0.4 0.4 -0.2
v -0.4 0.4 -0.3
v -0.3 -0.3 0.4
v -0.3 -0.3 0.3
v -0.3 -0.2 0.4
v -0.3 -0.2 0.3
v -0.3 -0.2 -0.2
v -0.3 -0.1 0.3
v -0.3 -0.1 -0.2
v -0.2 -0.5 0
v -0.2 -0.5 -0.1
v -0.2 -0.4 -0.1
v -0.2 -0.4 -0.2
v -0.2 -0.3 0
v -0.2 -0.3 -0.2
v -0.2 -0.3 -0.3
v -0.2 -0.2 -0.2
v -0.2 -0.2 -0.3
v -0.2 -0.2 -0.4
v -0.2 -0.1 -0.3
v -0.2 -0.1 -0.4
v -0.2 0.4 -0.2
v -0.2 0.4 -0.3
v -0.2 0.5 -0.2
v -0.2 0.5 -0.3
v -0.1 -0.5 0.3
v -0.1 -0.5 0
v -0.1 -0.4 0.3
v -0.1 -0.4 0
v 0.1 -0.3 -0.2
v 0.1 -0.3 -0.3
v 0.1 -0.2 -0.2
v 0.1 -0.2 -0.3
v 0.1 -0.2 -0.4
v 0.1 -0.1 -0.3
v 0.1 -0.1 -0.4
v 0.3 0 -0.2
v 0.3 0 -0.3
v 0.3 0.1 -0.2
v 0.3 0.1 -0.3
v 0.3 0.2 -0.2
v 0.3 0.2 -0.3
v 0.3 0.3 -0.2
v 0.3 0.3 -0.3
v -0.3 0 -0.2
v -0.3 0 -0.3
v -0.3 0.1 -0.2
v -0.3 0.1 -0.3
v -0.3 0.2 -0.2
v -0.3 0.2 -0.3
v -0.3 0.3 -0.2
v -0.3 0.3 -0.3
v -0.1 -0.3 -0.2
v -0.1 -0.3 -0.3
v -0.1 -0.2 -0.2
v -0.1 -0.2 -0.3
v -0.1 -0.2 -0.4
v -0.1 -0.1 -0.3
v -0.1 -0.1 -0.4
v 0.1 -0.5 0.3
v 0.1 -0.5 0
v 0.1 -0.4 0.3
v 0.1 -0.4 0
v 0.2 -0.5 0
v 0.2 -0.5 -0.1
v 0.2 -0.4 -0.1
v 0.2 -0.4 -0.2
v 0.2 -0.3 0
v 0.2 -0.3 -0.2
v 0.2 -0.3 -0.3
v 0.2 -0.2 -0.2
v 0.2 -0.2 -0.3
v 0.2 -0.2 -0.4
v 0.2 -0.1 -0.3
v 0.2 -0.1 -0.4
v 0.2 0.4 -0.2
v 0.2 0.4 -0.3
v 0.2 0.5 -0.2
v 0.2 0.5 -0.3
v 0.3 -0.3 0.4
v 0.3 -0.3 0.3
v 0.3 -0.2 0.4
v 0.3 -0.2 0.3
v 0.3 -0.2 -0.2
v 0.3 -0.1 0.3
v 0.3 -0.1 -0.2
v 0.4 -0.3 0.3
v 0.4 -0.3 -0.2
v 0.4 -0.2 0.3
v 0.4 -0.2 -0.2
v 0.4 -0.2 -0.3
v 0.4 0.4 -0.2
v 0.4 0.4 -0.3
v -0.3 -0.3 0.4
v -0.3 -0.2 0.4
v 0.3 -0.3 0.4
v 0.3 -0.2 0.4
v -0.4 -0.3 0.3
v -0.4 -0.2 0.3
v -0.3 -0.3 0.3
v -0.3 -0.2 0.3
v -0.3 -0.1 0.3
v -0.1 -0.5 0.3
v -0.1 -0.4 0.3
v 0.1 -0.5 0.3
v 0.1 -0.4 0.3
v 0.3 -0.3 0.3
v 0.3 -0.2 0.3
v 0.3 -0.1 0.3
v 0.4 -0.3 0.3
v 0.4 -0.2 0.3
v -0.2 -0.5 0
v -0.2 -0.3 0
v -0.1 -0.5 0
v -0.1 -0.4 0
v 0.1 -0.5 0
v 0.1 -0.4 0
v 0.2 -0.5 0
v 0.2 -0.3 0
v -0.4 -0.2 -0.2
v -0.4 0.4 -0.2
v -0.3 -0.2 -0.2
v -0.3 -0.1 -0.2
v -0.3 0 -0.2
v -0.3 0.1 -0.2
v -0.3 0.2 -0.2
v -0.3 0.3 -0.2
v -0.2 0.4 -0.2
v -0.2 0.5 -0.2
v 0.2 0.4 -0.2
v 0.2 0.5 -0.2
v 0.3 -0.2 -0.2
v 0.3 -0.1 -0.2
v 0.3 0 -0.2
v 0.3 0.1 -0.2
v 0.3 0.2 -0.2
v 0.3 0.3 -0.2
v 0.4 -0.2 -0.2
v 0.4 0.4 -0.2
v -0.2 -0.5 -0.1
v -0.2 -0.4 -0.1
v 0.2 -0.5 -0.1
v 0.2 -0.4 -0.1
v -0.4 -0.3 -0.2
v -0.4 -0.2 -0.2
v -0.2 -0.4 -0.2
v -0.2 -0.3 -0.2
v -0.2 -0.2 -0.2
v -0.1 -0.3 -0.2
v -0.1 -0.2 -0.2
v 0.1 -0.3 -0.2
v 0.1 -0.2 -0.2
v 0.2 -0.4 -0.2
v 0.2 -0.3 -0.2
v 0.2 -0.2 -0.2
v 0.4 -0.3 -0.2
v 0.4 -0.2 -0.2
v -0.4 -0.2 -0.3
v -0.4 0.4 -0.3
v -0.3 0 -0.3
v -0.3 0.1 -0.3
v -0.3 0.2 -0.3
v -0.3 0.3 -0.3
v -0.2 -0.3 -0.3
v -0.2 -0.2 -0.3
v -0.2 -0.1 -0.3
v -0.2 0.4 -0.3
v -0.2 0.5 -0.3
v -0.1 -0.3 -0.3
v -0.1 -0.2 -0.3
v -0.1 -0.1 -0.3
v 0.1 -0.3 -0.3
v 0.1 -0.2 -0.3
v 0.1 -0.1 -0.3
v 0.2 -0.3 -0.3
v 0.2 -0.2 -0.3
v 0.2 -0.1 -0.3
v 0.2 0.4 -0.3
v 0.2 0.5 -0.3
v 0.3 0 -0.3
v 0.3 0.1 -0.3
v 0.3 0.2 -0.3
v 0.3 0.3 -0.3
v 0.4 -0.2 -0.3
v 0.4 0.4 -0.3
v -0.2 -0.2 -0.4
v -0.2 -0.1 -0.4
v -0.1 -0.2 -0.4
v -0.1 -0.1 -0.4
v 0.1 -0.2 -0.4
v 0.1 -0.1 -0.4
v 0.2 -0.2 -0.4
v 0.2 -0.1 -0.4
v -0.1 -0.5 0.3
v 0.1 -0.5 0.3
v -0.2 -0.5 0
v -0.1 -0.5 0
v 0.1 -0.5 0
v 0.2 -0.5 0
v -0.2 -0.5 -0.1
v 0.2 -0.5 -0.1
v -0.2 -0.4 -0.1
v 0.2 -0.4 -0.1
v -0.2 -0.4 -0.2
v 0.2 -0.4 -0.2
v -0.3 -0.3 0.4
v 0.3 -0.3 0.4
v -0.4 -0.3 0.3
v -0.3 -0.3 0.3
v 0.3 -0.3 0.3
v 0.4 -0.3 0.3
v -0.2 -0.3 0
v 0.2 -0.3 0
v -0.4 -0.3 -0.2
v -0.2 -0.3 -0.2
v -0.1 -0.3 -0.2
v 0.1 -0.3 -0.2
v 0.2 -0.3 -0.2
v 0.4 -0.3 -0.2
v -0.2 -0.3 -0.3
v -0.1 -0.3 -0.3
v 0.1 -0.3 -0.3
v 0.2 -0.3 -0.3
v -0.4 -0.2 -0.2
v -0.2 -0.2 -0.2
v -0.1 -0.2 -0.2
v 0.1 -0.2 -0.2
v 0.2 -0.2 -0.2
v 0.4 -0.2 -0.2
v -0.4 -0.2 -0.3
v -0.2 -0.2 -0.3
v -0.1 -0.2 -0.3
v 0.1 -0.2 -0.3
v 0.2 -0.2 -0.3
v 0.4 -0.2 -0.3
v -0.2 -0.2 -0.4
v -0.1 -0.2 -0.4
v 0.1 -0.2 -0.4
v 0.2 -0.2 -0.4
v -0.3 0.1 -0.2
v 0.3 0.1 -0.2
v -0.3 0.1 -0.3
v 0.3 0.1 -0.3
v -0.3 0.3 -0.2
v 0.3 0.3 -0.2
v -0.3 0.3 -0.3
v 0.3 0.3 -0.3
v -0.1 -0.4 0.3
v 0.1 -0.4 0.3
v -0.1 -0.4 0
v 0.1 -0.4 0
v -0.3 -0.2 0.4
v 0.3 -0.2 0.4
v -0.4 -0.2 0.3
v -0.3 -0.2 0.3
v 0.3 -0.2 0.3
v 0.4 -0.2 0.3
v -0.4 -0.2 -0.2
v -0.3 -0.2 -0.2
v 0.3 -0.2 -0.2
v 0.4 -0.2 -0.2
v -0.3 -0.1 0.3
v 0.3 -0.1 0.3
v -0.3 -0.1 -0.2
v 0.3 -0.1 -0.2
v -0.2 -0.1 -0.3
v -0.1 -0.1 -0.3
v 0.1 -0.1 -0.3
v 0.2 -0.1 -0.3
v -0.2 -0.1 -0.4
v -0.1 -0.1 -0.4
v 0.1 -0.1 -0.4
v 0.2 -0.1 -0.4
v -0.3 0 -0.2
v 0.3 0 -0.2
v -0.3 0 -0.3
v 0.3 0 -0.3
v -0.3 0.2 -0.2
v 0.3 0.2 -0.2
v -0.3 0.2 -0.3
v 0.3 0.2 -0.3
v -0.4 0.4 -0.2
v -0.2 0.4 -0.2
v 0.2 0.4 -0.2
v 0.4 0.4 -0.2
v -0.4 0.4 -0.3
v -0.2 0.4 -0.3
v 0.2 0.4 -0.3
v 0.4 0.4 -0.3
v -0.2 0.5 -0.2
v 0.2 0.5 -0.2
v -0.2 0.5 -0.3
v 0.2 0.5 -0.3

# faces
f 3/3/1 2/3/1 1/3/1
f 4/3/1 2/3/1 3/3/1
f 6/3/1 5/3/1 4/3/1
f 7/3/1 5/3/1 6/3/1
f 10/3/1 9/3/1 8/3/1
f 11/3/1 9/3/1 10/3/1
f 13/4/1 12/4/1 11/4/1
f 14/4/1 12/4/1 13/4/1
f 17/1/1 16/1/1 15/1/1
f 19/1/1 17/1/1 15/1/1
f 19/1/1 18/1/1 17/1/1
f 20/1/1 18/1/1 19/1/1
f 22/2/1 21/2/1 20/2/1
f 23/2/1 21/2/1 22/2/1
f 25/2/1 24/2/1 23/2/1
f 26/2/1 24/2/1 25/2/1
f 29/3/1 28/3/1 27/3/1
f 30/3/1 28/3/1 29/3/1
f 33/1/1 32/1/1 31/1/1
f 34/1/1 32/1/1 33/1/1
f 37/2/1 36/2/1 35/2/1
f 38/2/1 36/2/1 37/2/1
f 40/2/1 39/2/1 38/2/1
f 41/2/1 39/2/1 40/2/1
f 44/3/1 43/3/1 42/3/1
f 45/3/1 43/3/1 44/3/1
f 48/3/1 47/3/1 46/3/1
f 49/3/1 47/3/1 48/3/1
f 50/3/2 51/3/2 52/3/2
f 52/3/2 51/3/2 53/3/2
f 54/3/2 55/3/2 56/3/2
f 56/3/2 55/3/2 57/3/2
f 58/2/2 59/2/2 60/2/2
f 60/2/2 59/2/2 61/2/2
f 61/2/2 62/2/2 63/2/2
f 63/2/2 62/2/2 64/2/2
f 65/1/2 66/1/2 67/1/2
f 67/1/2 66/1/2 68/1/2
f 69/1/2 70/1/2 71/1/2
f 69/1/2 71/1/2 73/1/2
f 71/1/2 72/1/2 73/1/2
f 73/1/2 72/1/2 74/1/2
f 74/2/2 75/2/2 76/2/2
f 76/2/2 75/2/2 77/2/2
f 77/2/2 78/2/2 79/2/2
f 79/2/2 78/2/2 80/2/2
f 81/3/2 82/3/2 83/3/2
f 83/3/2 82/3/2 84/3/2
f 85/3/2 86/3/2 87/3/2
f 87/3/2 86/3/2 88/3/2
f 88/4/2 89/4/2 90/4/2
f 90/4/2 89/4/2 91/4/2
f 92/3/2 93/3/2 94/3/2
f 94/3/2 93/3/2 95/3/2
f 95/3/2 96/3/2 97/3/2
f 97/3/2 96/3/2 98/3/2
f 101/3/3 100/3/3 99/3/3
f 102/3/3 100/3/3 101/3/3
f 105/3/3 104/3/3 103/3/3
f 106/3/3 104/3/3 105/3/3
f 110/1/3 109/1/3 108/1/3
f 111/1/3 109/1/3 110/1/3
f 113/4/3 107/4/3 106/4/3
f 114/4/3 107/4/3 113/4/3
f 115/3/3 113/3/3 112/3/3
f 116/3/3 113/3/3 115/3/3
f 119/1/3 118/1/3 117/1/3
f 120/1/3 118/1/3 119/1/3
f 122/1/3 118/1/3 120/1/3
f 123/1/3 122/1/3 121/1/3
f 124/1/3 118/1/3 122/1/3
f 124/1/3 122/1/3 123/1/3
f 127/3/3 126/3/3 125/3/3
f 128/3/3 126/3/3 127/3/3
f 129/3/3 126/3/3 128/3/3
f 130/3/3 126/3/3 129/3/3
f 131/3/3 126/3/3 130/3/3
f 132/3/3 126/3/3 131/3/3
f 133/3/3 126/3/3 132/3/3
f 135/3/3 133/3/3 132/3/3
f 135/3/3 134/3/3 133/3/3
f 136/3/3 134/3/3 135/3/3
f 138/3/3 129/3/3 128/3/3
f 139/3/3 129/3/3 138/3/3
f 140/3/3 131/3/3 130/3/3
f 141/3/3 131/3/3 140/3/3
f 142/3/3 135/3/3 132/3/3
f 143/3/3 139/3/3 138/3/3
f 143/3/3 142/3/3 141/3/3
f 143/3/3 141/3/3 140/3/3
f 143/3/3 138/3/3 137/3/3
f 143/3/3 140/3/3 139/3/3
f 144/3/3 135/3/3 142/3/3
f 144/3/3 142/3/3 143/3/3
f 145/1/4 146/1/4 147/1/4
f 147/1/4 146/1/4 148/1/4
f 149/3/4 150/3/4 152/3/4
f 152/3/4 150/3/4 153/3/4
f 151/1/4 152/1/4 154/1/4
f 151/1/4 154/1/4 156/1/4
f 154/1/4 155/1/4 156/1/4
f 156/1/4 155/1/4 157/1/4
f 151/1/4 156/1/4 158/1/4
f 158/1/4 156/1/4 159/1/4
f 159/3/4 160/3/4 161/3/4
f 161/3/4 160/3/4 162/3/4
f 163/3/4 164/3/4 165/3/4
f 165/3/4 164/3/4 166/3/4
f 166/3/4 164/3/4 167/3/4
f 167/3/4 164/3/4 168/3/4
f 163/3/4 165/3/4 170/3/4
f 170/3/4 165/3/4 171/3/4
f 168/3/4 164/3/4 172/3/4
f 169/2/4 170/2/4 174/2/4
f 174/2/4 170/2/4 175/2/4
f 171/3/4 165/3/4 176/3/4
f 175/3/4 176/3/4 178/3/4
f 176/3/4 165/3/4 179/3/4
f 178/3/4 176/3/4 179/3/4
f 177/2/4 178/2/4 180/2/4
f 180/2/4 178/2/4 181/2/4
f 179/3/4 165/3/4 182/3/4
f 172/3/4 173/3/4 183/3/4
f 168/3/4 172/3/4 183/3/4
f 183/3/4 173/3/4 184/3/4
f 181/3/4 182/3/4 185/3/4
f 182/3/4 165/3/4 185/3/4
f 166/3/4 167/3/4 186/3/4
f 186/3/4 167/3/4 187/3/4
f 168/3/4 183/3/4 188/3/4
f 181/3/4 185/3/4 189/3/4
f 187/3/4 188/3/4 189/3/4
f 186/3/4 187/3/4 189/3/4
f 185/3/4 186/3/4 189/3/4
f 188/3/4 183/3/4 190/3/4
f 189/3/4 188/3/4 190/3/4
f 191/2/4 192/2/4 193/2/4
f 193/2/4 192/2/4 194/2/4
f 195/2/4 196/2/4 197/2/4
f 197/2/4 196/2/4 198/2/4
f 202/1/5 200/1/5 199/1/5
f 203/1/5 200/1/5 202/1/5
f 205/1/5 202/1/5 201/1/5
f 205/1/5 204/1/5 203/1/5
f 205/1/5 203/1/5 202/1/5
f 206/1/5 204/1/5 205/1/5
f 209/1/5 208/1/5 207/1/5
f 210/1/5 208/1/5 209/1/5
f 214/3/5 212/3/5 211/3/5
f 215/3/5 212/3/5 214/3/5
f 217/3/5 214/3/5 213/3/5
f 217/3/5 216/3/5 215/3/5
f 217/3/5 215/3/5 214/3/5
f 218/3/5 216/3/5 217/3/5
f 219/3/5 217/3/5 213/3/5
f 220/3/5 217/3/5 219/3/5
f 223/3/5 216/3/5 218/3/5
f 224/3/5 216/3/5 223/3/5
f 225/2/5 221/2/5 220/2/5
f 226/2/5 221/2/5 225/2/5
f 227/2/5 223/2/5 222/2/5
f 228/2/5 223/2/5 227/2/5
f 235/3/5 230/3/5 229/3/5
f 236/3/5 230/3/5 235/3/5
f 237/3/5 232/3/5 231/3/5
f 238/3/5 232/3/5 237/3/5
f 239/3/5 234/3/5 233/3/5
f 240/3/5 234/3/5 239/3/5
f 241/2/5 237/2/5 236/2/5
f 242/2/5 237/2/5 241/2/5
f 243/2/5 239/2/5 238/2/5
f 244/2/5 239/2/5 243/2/5
f 247/3/5 246/3/5 245/3/5
f 248/3/5 246/3/5 247/3/5
f 251/3/5 250/3/5 249/3/5
f 252/3/5 250/3/5 251/3/5
f 253/1/6 254/1/6 255/1/6
f 255/1/6 254/1/6 256/1/6
f 257/3/6 258/3/6 260/3/6
f 260/3/6 258/3/6 261/3/6
f 259/3/6 260/3/6 263/3/6
f 263/3/6 260/3/6 264/3/6
f 261/3/6 262/3/6 265/3/6
f 265/3/6 262/3/6 266/3/6
f 267/4/6 268/4/6 269/4/6
f 269/4/6 268/4/6 270/4/6
f 271/2/6 272/2/6 275/2/6
f 275/2/6 272/2/6 276/2/6
f 273/2/6 274/2/6 277/2/6
f 277/2/6 274/2/6 278/2/6
f 279/3/6 280/3/6 281/3/6
f 281/3/6 280/3/6 282/3/6
f 283/3/6 284/3/6 285/3/6
f 285/3/6 284/3/6 286/3/6
f 287/3/6 288/3/6 291/3/6
f 291/3/6 288/3/6 292/3/6
f 289/3/6 290/3/6 293/3/6
f 293/3/6 290/3/6 294/3/6
f 295/3/6 296/3/6 297/3/6
f 297/3/6 296/3/6 298/3/6
