# MagicaVoxel @ Ephtracy

# group
o 

# material
mtllib Other-11.mtl
usemtl palette

# normals
vn -1 0 0
vn 1 0 0
vn 0 0 1
vn 0 0 -1
vn 0 -1 0
vn 0 1 0

# texcoords
vt 0.876953 0.5
vt 0.880859 0.5
vt 0.892578 0.5

# verts
v -0.2 -0.25 0.5
v -0.2 -0.25 0.2
v -0.2 -0.25 0
v -0.2 -0.25 -0.1
v -0.2 -0.15 0.5
v -0.2 -0.15 0.2
v -0.2 -0.15 0
v -0.2 -0.15 -0.1
v -0.1 -0.15 0.4
v -0.1 -0.15 0.2
v -0.1 -0.15 0.1
v -0.1 -0.15 0
v -0.1 -0.15 -0.1
v -0.1 -0.15 -0.2
v -0.1 -0.05 0.4
v -0.1 -0.05 0.1
v -0.1 -0.05 -0.1
v -0.1 -0.05 -0.2
v 0 -0.05 0.3
v 0 -0.05 0.1
v 0 -0.05 0
v 0 -0.05 -0.1
v 0 -0.05 -0.2
v 0 -0.05 -0.3
v 0 0.05 0.3
v 0 0.05 0
v 0 0.05 -0.2
v 0 0.05 -0.3
v 0.1 0.05 0.2
v 0.1 0.05 0
v 0.1 0.05 -0.1
v 0.1 0.05 -0.2
v 0.1 0.05 -0.3
v 0.1 0.05 -0.4
v 0.1 0.15 0.2
v 0.1 0.15 0.1
v 0.1 0.15 -0.1
v 0.1 0.15 -0.2
v 0.1 0.15 -0.3
v 0.1 0.15 -0.4
v 0.1 0.15 -0.5
v 0.1 0.25 0.1
v 0.1 0.25 -0.2
v 0.1 0.25 -0.4
v 0.1 0.25 -0.5
v -0.1 -0.25 0.5
v -0.1 -0.25 0.2
v -0.1 -0.25 0
v -0.1 -0.25 -0.1
v -0.1 -0.15 0.5
v -0.1 -0.15 0.4
v -0.1 -0.15 0.2
v -0.1 -0.15 0.1
v -0.1 -0.15 0
v -0.1 -0.15 -0.1
v 0 -0.15 0.4
v 0 -0.15 0.1
v 0 -0.15 -0.1
v 0 -0.15 -0.2
v 0 -0.05 0.4
v 0 -0.05 0.3
v 0 -0.05 0.1
v 0 -0.05 0
v 0 -0.05 -0.1
v 0 -0.05 -0.2
v 0.1 -0.05 0.3
v 0.1 -0.05 0
v 0.1 -0.05 -0.2
v 0.1 -0.05 -0.3
v 0.1 0.05 0.3
v 0.1 0.05 0.2
v 0.1 0.05 0
v 0.1 0.05 -0.1
v 0.1 0.05 -0.2
v 0.1 0.05 -0.3
v 0.2 0.05 0.2
v 0.2 0.05 -0.1
v 0.2 0.05 -0.3
v 0.2 0.05 -0.4
v 0.2 0.15 0.2
v 0.2 0.15 0.1
v 0.2 0.15 -0.1
v 0.2 0.15 -0.2
v 0.2 0.15 -0.3
v 0.2 0.15 -0.4
v 0.2 0.15 -0.5
v 0.2 0.25 0.1
v 0.2 0.25 -0.2
v 0.2 0.25 -0.4
v 0.2 0.25 -0.5
v -0.2 -0.25 0.5
v -0.2 -0.15 0.5
v -0.1 -0.25 0.5
v -0.1 -0.15 0.5
v -0.1 -0.15 0.4
v -0.1 -0.05 0.4
v 0 -0.15 0.4
v 0 -0.05 0.4
v 0 -0.05 0.3
v 0 0.05 0.3
v 0.1 -0.05 0.3
v 0.1 0.05 0.3
v 0.1 0.05 0.2
v 0.1 0.15 0.2
v 0.2 0.05 0.2
v 0.2 0.15 0.2
v 0.1 0.15 0.1
v 0.1 0.25 0.1
v 0.2 0.15 0.1
v 0.2 0.25 0.1
v -0.2 -0.25 -0.1
v -0.2 -0.15 -0.1
v -0.1 -0.25 -0.1
v -0.1 -0.15 -0.1
v -0.1 -0.15 -0.2
v -0.1 -0.05 -0.2
v 0 -0.15 -0.2
v 0 -0.05 -0.2
v 0 -0.05 -0.3
v 0 0.05 -0.3
v 0.1 -0.05 -0.3
v 0.1 0.05 -0.3
v 0.1 0.05 -0.4
v 0.1 0.15 -0.4
v 0.2 0.05 -0.4
v 0.2 0.15 -0.4
v 0.1 0.15 -0.5
v 0.1 0.25 -0.5
v 0.2 0.15 -0.5
v 0.2 0.25 -0.5
v -0.2 -0.25 0.5
v -0.1 -0.25 0.5
v -0.2 -0.25 0.2
v -0.1 -0.25 0.2
v -0.2 -0.25 0
v -0.1 -0.25 0
v -0.2 -0.25 -0.1
v -0.1 -0.25 -0.1
v -0.1 -0.15 0.4
v 0 -0.15 0.4
v -0.1 -0.15 0.2
v -0.1 -0.15 0.1
v 0 -0.15 0.1
v -0.1 -0.15 0
v -0.1 -0.15 -0.1
v 0 -0.15 -0.1
v -0.1 -0.15 -0.2
v 0 -0.15 -0.2
v 0 -0.05 0.3
v 0.1 -0.05 0.3
v 0 -0.05 0.1
v 0 -0.05 0
v 0.1 -0.05 0
v 0 -0.05 -0.1
v 0 -0.05 -0.2
v 0.1 -0.05 -0.2
v 0 -0.05 -0.3
v 0.1 -0.05 -0.3
v 0.1 0.05 0.2
v 0.2 0.05 0.2
v 0.1 0.05 0
v 0.1 0.05 -0.1
v 0.2 0.05 -0.1
v 0.1 0.05 -0.2
v 0.1 0.05 -0.3
v 0.2 0.05 -0.3
v 0.1 0.05 -0.4
v 0.2 0.05 -0.4
v 0.1 0.15 -0.4
v 0.2 0.15 -0.4
v 0.1 0.15 -0.5
v 0.2 0.15 -0.5
v -0.2 -0.15 0.5
v -0.1 -0.15 0.5
v -0.1 -0.15 0.4
v -0.2 -0.15 0.2
v -0.1 -0.15 0.2
v -0.1 -0.15 0.1
v -0.2 -0.15 0
v -0.1 -0.15 0
v -0.2 -0.15 -0.1
v -0.1 -0.15 -0.1
v -0.1 -0.05 0.4
v 0 -0.05 0.4
v 0 -0.05 0.3
v -0.1 -0.05 0.1
v 0 -0.05 0.1
v 0 -0.05 0
v -0.1 -0.05 -0.1
v 0 -0.05 -0.1
v -0.1 -0.05 -0.2
v 0 -0.05 -0.2
v 0 0.05 0.3
v 0.1 0.05 0.3
v 0.1 0.05 0.2
v 0 0.05 0
v 0.1 0.05 0
v 0.1 0.05 -0.1
v 0 0.05 -0.2
v 0.1 0.05 -0.2
v 0 0.05 -0.3
v 0.1 0.05 -0.3
v 0.1 0.15 0.2
v 0.2 0.15 0.2
v 0.1 0.15 0.1
v 0.2 0.15 0.1
v 0.1 0.25 0.1
v 0.2 0.25 0.1
v 0.1 0.25 -0.2
v 0.2 0.25 -0.2
v 0.1 0.25 -0.4
v 0.2 0.25 -0.4
v 0.1 0.25 -0.5
v 0.2 0.25 -0.5

# faces
f 5/2/1 2/2/1 1/2/1
f 6/1/1 3/1/1 2/1/1
f 6/2/1 2/2/1 5/2/1
f 7/2/1 4/2/1 3/2/1
f 7/1/1 3/1/1 6/1/1
f 8/2/1 4/2/1 7/2/1
f 15/2/1 10/2/1 9/2/1
f 15/2/1 11/2/1 10/2/1
f 16/1/1 13/1/1 12/1/1
f 16/2/1 11/2/1 15/2/1
f 16/1/1 12/1/1 11/1/1
f 17/2/1 14/2/1 13/2/1
f 17/1/1 13/1/1 16/1/1
f 18/2/1 14/2/1 17/2/1
f 25/2/1 20/2/1 19/2/1
f 25/2/1 21/2/1 20/2/1
f 26/1/1 23/1/1 22/1/1
f 26/2/1 21/2/1 25/2/1
f 26/1/1 22/1/1 21/1/1
f 27/2/1 24/2/1 23/2/1
f 27/1/1 23/1/1 26/1/1
f 28/2/1 24/2/1 27/2/1
f 35/2/1 30/2/1 29/2/1
f 35/2/1 31/2/1 30/2/1
f 36/2/1 31/2/1 35/2/1
f 37/1/1 33/1/1 32/1/1
f 37/2/1 31/2/1 36/2/1
f 37/1/1 32/1/1 31/1/1
f 38/1/1 33/1/1 37/1/1
f 39/2/1 34/2/1 33/2/1
f 39/1/1 33/1/1 38/1/1
f 40/2/1 34/2/1 39/2/1
f 42/2/1 38/2/1 37/2/1
f 42/2/1 37/2/1 36/2/1
f 43/3/1 40/3/1 39/3/1
f 43/2/1 38/2/1 42/2/1
f 43/3/1 39/3/1 38/3/1
f 44/2/1 41/2/1 40/2/1
f 44/3/1 40/3/1 43/3/1
f 45/2/1 41/2/1 44/2/1
f 46/2/2 47/2/2 50/2/2
f 50/2/2 47/2/2 51/2/2
f 47/1/2 48/1/2 52/1/2
f 51/2/2 47/2/2 52/2/2
f 52/1/2 48/1/2 53/1/2
f 48/2/2 49/2/2 54/2/2
f 53/1/2 48/1/2 54/1/2
f 54/2/2 49/2/2 55/2/2
f 56/2/2 57/2/2 60/2/2
f 60/2/2 57/2/2 61/2/2
f 57/1/2 58/1/2 62/1/2
f 61/2/2 57/2/2 62/2/2
f 62/1/2 58/1/2 63/1/2
f 58/2/2 59/2/2 64/2/2
f 63/1/2 58/1/2 64/1/2
f 64/2/2 59/2/2 65/2/2
f 66/2/2 67/2/2 70/2/2
f 70/2/2 67/2/2 71/2/2
f 67/1/2 68/1/2 72/1/2
f 71/2/2 67/2/2 72/2/2
f 72/1/2 68/1/2 73/1/2
f 68/2/2 69/2/2 74/2/2
f 73/1/2 68/1/2 74/1/2
f 74/2/2 69/2/2 75/2/2
f 76/2/2 77/2/2 80/2/2
f 80/2/2 77/2/2 81/2/2
f 77/1/2 78/1/2 82/1/2
f 81/2/2 77/2/2 82/2/2
f 82/1/2 78/1/2 83/1/2
f 78/2/2 79/2/2 84/2/2
f 83/1/2 78/1/2 84/1/2
f 84/2/2 79/2/2 85/2/2
f 82/2/2 83/2/2 87/2/2
f 81/2/2 82/2/2 87/2/2
f 84/3/2 85/3/2 88/3/2
f 87/2/2 83/2/2 88/2/2
f 83/3/2 84/3/2 88/3/2
f 85/2/2 86/2/2 89/2/2
f 88/3/2 85/3/2 89/3/2
f 89/2/2 86/2/2 90/2/2
f 93/2/3 92/2/3 91/2/3
f 94/2/3 92/2/3 93/2/3
f 97/2/3 96/2/3 95/2/3
f 98/2/3 96/2/3 97/2/3
f 101/2/3 100/2/3 99/2/3
f 102/2/3 100/2/3 101/2/3
f 105/2/3 104/2/3 103/2/3
f 106/2/3 104/2/3 105/2/3
f 109/2/3 108/2/3 107/2/3
f 110/2/3 108/2/3 109/2/3
f 111/2/4 112/2/4 113/2/4
f 113/2/4 112/2/4 114/2/4
f 115/2/4 116/2/4 117/2/4
f 117/2/4 116/2/4 118/2/4
f 119/2/4 120/2/4 121/2/4
f 121/2/4 120/2/4 122/2/4
f 123/2/4 124/2/4 125/2/4
f 125/2/4 124/2/4 126/2/4
f 127/2/4 128/2/4 129/2/4
f 129/2/4 128/2/4 130/2/4
f 133/2/5 132/2/5 131/2/5
f 134/2/5 132/2/5 133/2/5
f 135/1/5 134/1/5 133/1/5
f 136/1/5 134/1/5 135/1/5
f 137/2/5 136/2/5 135/2/5
f 138/2/5 136/2/5 137/2/5
f 141/2/5 140/2/5 139/2/5
f 142/2/5 140/2/5 141/2/5
f 143/2/5 140/2/5 142/2/5
f 144/1/5 143/1/5 142/1/5
f 145/1/5 143/1/5 144/1/5
f 146/1/5 143/1/5 145/1/5
f 147/2/5 146/2/5 145/2/5
f 148/2/5 146/2/5 147/2/5
f 151/2/5 150/2/5 149/2/5
f 152/2/5 150/2/5 151/2/5
f 153/2/5 150/2/5 152/2/5
f 154/1/5 153/1/5 152/1/5
f 155/1/5 153/1/5 154/1/5
f 156/1/5 153/1/5 155/1/5
f 157/2/5 156/2/5 155/2/5
f 158/2/5 156/2/5 157/2/5
f 161/2/5 160/2/5 159/2/5
f 162/2/5 160/2/5 161/2/5
f 163/2/5 160/2/5 162/2/5
f 164/1/5 163/1/5 162/1/5
f 165/1/5 163/1/5 164/1/5
f 166/1/5 163/1/5 165/1/5
f 167/2/5 166/2/5 165/2/5
f 168/2/5 166/2/5 167/2/5
f 171/2/5 170/2/5 169/2/5
f 172/2/5 170/2/5 171/2/5
f 173/2/6 174/2/6 175/2/6
f 173/2/6 175/2/6 176/2/6
f 176/2/6 175/2/6 177/2/6
f 176/1/6 177/1/6 178/1/6
f 176/1/6 178/1/6 179/1/6
f 179/1/6 178/1/6 180/1/6
f 179/2/6 180/2/6 181/2/6
f 181/2/6 180/2/6 182/2/6
f 183/2/6 184/2/6 185/2/6
f 183/2/6 185/2/6 186/2/6
f 186/2/6 185/2/6 187/2/6
f 186/1/6 187/1/6 188/1/6
f 186/1/6 188/1/6 189/1/6
f 189/1/6 188/1/6 190/1/6
f 189/2/6 190/2/6 191/2/6
f 191/2/6 190/2/6 192/2/6
f 193/2/6 194/2/6 195/2/6
f 193/2/6 195/2/6 196/2/6
f 196/2/6 195/2/6 197/2/6
f 196/1/6 197/1/6 198/1/6
f 196/1/6 198/1/6 199/1/6
f 199/1/6 198/1/6 200/1/6
f 199/2/6 200/2/6 201/2/6
f 201/2/6 200/2/6 202/2/6
f 203/2/6 204/2/6 205/2/6
f 205/2/6 204/2/6 206/2/6
f 207/2/6 208/2/6 209/2/6
f 209/2/6 208/2/6 210/2/6
f 209/3/6 210/3/6 211/3/6
f 211/3/6 210/3/6 212/3/6
f 211/2/6 212/2/6 213/2/6
f 213/2/6 212/2/6 214/2/6
