# MagicaVoxel @ Ephtracy

# group
o 

# material
mtllib Redhead_Ponytail-2.mtl
usemtl palette

# normals
vn 1 0 0
vn -1 0 0
vn 0 0 1
vn 0 0 -1
vn 0 -1 0
vn 0 1 0

# texcoords
vt 0.482422 0.5
vt 0.486328 0.5
vt 0.943359 0.5
vt 0.947266 0.5

# verts
v 0.5 0 0.8
v 0.5 0 0.4
v 0.5 0 0
v 0.5 0 -0.1
v 0.5 0.1 0.8
v 0.5 0.1 0.4
v 0.5 0.1 0.3
v 0.5 0.2 0.8
v 0.5 0.2 0.7
v 0.5 0.2 0.6
v 0.5 0.2 0.5
v 0.5 0.3 0.7
v 0.5 0.3 0.6
v 0.5 0.3 0.5
v 0.5 0.3 0.4
v 0.5 0.3 0.3
v 0.5 0.3 0.2
v 0.5 0.4 0.5
v 0.5 0.4 0.4
v 0.5 0.4 0.3
v 0.5 0.4 0.2
v 0.5 0.4 0
v 0.5 0.4 -0.1
v 0.5 0.5 0.4
v 0.5 0.5 0.3
v 0.5 0.5 0.2
v 0.5 0.5 0
v 0.5 0.6 0.3
v 0.5 0.6 0.2
v 0.5 0.6 -0.1
v 0.3 0 0.8
v 0.3 0 0.4
v 0.3 0 0
v 0.3 0 -0.1
v 0.3 0.1 0.8
v 0.3 0.1 0.4
v 0.3 0.1 0.3
v 0.3 0.2 0.8
v 0.3 0.2 0.7
v 0.3 0.2 0.6
v 0.3 0.2 0.5
v 0.3 0.3 0.7
v 0.3 0.3 0.6
v 0.3 0.3 0.5
v 0.3 0.3 0.4
v 0.3 0.3 0.3
v 0.3 0.3 0.2
v 0.3 0.4 0.5
v 0.3 0.4 0.4
v 0.3 0.4 0.3
v 0.3 0.4 0.2
v 0.3 0.4 0
v 0.3 0.5 0.4
v 0.3 0.5 0.3
v 0.3 0.5 0.2
v 0.3 0.5 -0.1
v 0.3 0.6 0.3
v 0.3 0.6 0.2
v 0.3 0.6 -0.1
v 0.5 0 0.8
v 0.5 0.1 0.8
v 0.5 0.2 0.8
v 0.3 0 0.8
v 0.3 0.1 0.8
v 0.3 0.2 0.8
v 0.5 0.2 0.7
v 0.5 0.3 0.7
v 0.3 0.2 0.7
v 0.3 0.3 0.7
v 0.5 0.3 0.5
v 0.5 0.4 0.5
v 0.4 0.3 0.5
v 0.4 0.4 0.5
v 0.3 0.3 0.5
v 0.3 0.4 0.5
v 0.5 0.4 0.4
v 0.5 0.5 0.4
v 0.4 0.4 0.4
v 0.4 0.5 0.4
v 0.3 0.4 0.4
v 0.3 0.5 0.4
v 0.5 0.5 0.3
v 0.5 0.6 0.3
v 0.4 0.5 0.3
v 0.3 0.5 0.3
v 0.3 0.6 0.3
v 0.5 0 0
v 0.5 0.4 0
v 0.3 0 0
v 0.3 0.4 0
v 0.5 0 0.4
v 0.5 0.1 0.4
v 0.3 0 0.4
v 0.3 0.1 0.4
v 0.5 0.1 0.3
v 0.5 0.3 0.3
v 0.3 0.1 0.3
v 0.3 0.3 0.3
v 0.5 0.3 0.2
v 0.5 0.4 0.2
v 0.3 0.3 0.2
v 0.3 0.4 0.2
v 0.5 0 -0.1
v 0.5 0.4 -0.1
v 0.5 0.6 -0.1
v 0.4 0.4 -0.1
v 0.4 0.5 -0.1
v 0.3 0 -0.1
v 0.3 0.5 -0.1
v 0.3 0.6 -0.1
v 0.5 0 0.8
v 0.3 0 0.8
v 0.5 0 0.4
v 0.3 0 0.4
v 0.5 0 0
v 0.3 0 0
v 0.5 0 -0.1
v 0.3 0 -0.1
v 0.5 0.1 0.4
v 0.3 0.1 0.4
v 0.5 0.1 0.3
v 0.3 0.1 0.3
v 0.5 0.3 0.3
v 0.3 0.3 0.3
v 0.5 0.3 0.2
v 0.3 0.3 0.2
v 0.5 0.4 0.2
v 0.3 0.4 0.2
v 0.5 0.4 0
v 0.3 0.4 0
v 0.5 0.2 0.8
v 0.3 0.2 0.8
v 0.5 0.2 0.7
v 0.3 0.2 0.7
v 0.5 0.3 0.7
v 0.3 0.3 0.7
v 0.5 0.3 0.6
v 0.3 0.3 0.6
v 0.5 0.3 0.5
v 0.4 0.3 0.5
v 0.3 0.3 0.5
v 0.5 0.4 0.5
v 0.4 0.4 0.5
v 0.3 0.4 0.5
v 0.5 0.4 0.4
v 0.4 0.4 0.4
v 0.3 0.4 0.4
v 0.5 0.5 0.4
v 0.4 0.5 0.4
v 0.3 0.5 0.4
v 0.5 0.5 0.3
v 0.4 0.5 0.3
v 0.3 0.5 0.3
v 0.5 0.6 0.3
v 0.3 0.6 0.3
v 0.5 0.6 0.2
v 0.3 0.6 0.2
v 0.5 0.6 -0.1
v 0.3 0.6 -0.1

# faces
f 1/3/1 2/3/1 5/3/1
f 5/3/1 2/3/1 6/3/1
f 5/4/1 6/4/1 8/4/1
f 8/4/1 6/4/1 9/4/1
f 9/4/1 6/4/1 10/4/1
f 10/4/1 6/4/1 11/4/1
f 9/4/1 10/4/1 12/4/1
f 10/1/1 11/1/1 13/1/1
f 12/4/1 10/4/1 13/4/1
f 11/4/1 6/4/1 14/4/1
f 13/1/1 11/1/1 14/1/1
f 6/3/1 7/3/1 15/3/1
f 14/4/1 6/4/1 15/4/1
f 15/3/1 7/3/1 16/3/1
f 14/2/1 15/2/1 18/2/1
f 15/4/1 16/4/1 19/4/1
f 18/2/1 15/2/1 19/2/1
f 16/3/1 17/3/1 20/3/1
f 19/4/1 16/4/1 20/4/1
f 20/3/1 17/3/1 21/3/1
f 3/3/1 4/3/1 22/3/1
f 22/3/1 4/3/1 23/3/1
f 19/2/1 20/2/1 24/2/1
f 20/4/1 21/4/1 25/4/1
f 24/2/1 20/2/1 25/2/1
f 21/3/1 22/3/1 26/3/1
f 25/4/1 21/4/1 26/4/1
f 22/4/1 23/4/1 27/4/1
f 26/3/1 22/3/1 27/3/1
f 25/1/1 26/1/1 28/1/1
f 26/4/1 27/4/1 29/4/1
f 28/1/1 26/1/1 29/1/1
f 27/4/1 23/4/1 30/4/1
f 29/4/1 27/4/1 30/4/1
f 35/3/2 32/3/2 31/3/2
f 36/3/2 32/3/2 35/3/2
f 38/4/2 36/4/2 35/4/2
f 39/4/2 36/4/2 38/4/2
f 40/4/2 36/4/2 39/4/2
f 41/4/2 36/4/2 40/4/2
f 42/4/2 40/4/2 39/4/2
f 43/1/2 41/1/2 40/1/2
f 43/4/2 40/4/2 42/4/2
f 44/4/2 36/4/2 41/4/2
f 44/1/2 41/1/2 43/1/2
f 45/3/2 37/3/2 36/3/2
f 45/4/2 36/4/2 44/4/2
f 46/3/2 37/3/2 45/3/2
f 48/1/2 45/1/2 44/1/2
f 49/4/2 46/4/2 45/4/2
f 49/1/2 45/1/2 48/1/2
f 50/3/2 47/3/2 46/3/2
f 50/4/2 46/4/2 49/4/2
f 51/3/2 47/3/2 50/3/2
f 52/3/2 34/3/2 33/3/2
f 53/1/2 50/1/2 49/1/2
f 54/4/2 51/4/2 50/4/2
f 54/1/2 50/1/2 53/1/2
f 55/3/2 52/3/2 51/3/2
f 55/4/2 51/4/2 54/4/2
f 56/3/2 34/3/2 52/3/2
f 56/3/2 52/3/2 55/3/2
f 57/1/2 55/1/2 54/1/2
f 58/4/2 56/4/2 55/4/2
f 58/1/2 55/1/2 57/1/2
f 59/4/2 56/4/2 58/4/2
f 60/3/3 61/3/3 63/3/3
f 61/4/3 62/4/3 64/4/3
f 63/3/3 61/3/3 64/3/3
f 64/4/3 62/4/3 65/4/3
f 66/4/3 67/4/3 68/4/3
f 68/4/3 67/4/3 69/4/3
f 70/2/3 71/2/3 72/2/3
f 72/2/3 71/2/3 73/2/3
f 72/1/3 73/1/3 74/1/3
f 74/1/3 73/1/3 75/1/3
f 76/2/3 77/2/3 78/2/3
f 78/2/3 77/2/3 79/2/3
f 78/1/3 79/1/3 80/1/3
f 80/1/3 79/1/3 81/1/3
f 82/1/3 83/1/3 84/1/3
f 84/1/3 83/1/3 85/1/3
f 85/1/3 83/1/3 86/1/3
f 87/3/3 88/3/3 89/3/3
f 89/3/3 88/3/3 90/3/3
f 93/3/4 92/3/4 91/3/4
f 94/3/4 92/3/4 93/3/4
f 97/3/4 96/3/4 95/3/4
f 98/3/4 96/3/4 97/3/4
f 101/3/4 100/3/4 99/3/4
f 102/3/4 100/3/4 101/3/4
f 106/3/4 104/3/4 103/3/4
f 106/4/4 105/4/4 104/4/4
f 107/4/4 105/4/4 106/4/4
f 108/3/4 106/3/4 103/3/4
f 108/3/4 107/3/4 106/3/4
f 109/4/4 105/4/4 107/4/4
f 109/3/4 107/3/4 108/3/4
f 110/4/4 105/4/4 109/4/4
f 111/3/5 112/3/5 113/3/5
f 113/3/5 112/3/5 114/3/5
f 115/3/5 116/3/5 117/3/5
f 117/3/5 116/3/5 118/3/5
f 119/3/5 120/3/5 121/3/5
f 121/3/5 120/3/5 122/3/5
f 123/3/5 124/3/5 125/3/5
f 125/3/5 124/3/5 126/3/5
f 127/3/5 128/3/5 129/3/5
f 129/3/5 128/3/5 130/3/5
f 133/4/6 132/4/6 131/4/6
f 134/4/6 132/4/6 133/4/6
f 137/4/6 136/4/6 135/4/6
f 138/4/6 136/4/6 137/4/6
f 139/1/6 138/1/6 137/1/6
f 140/1/6 138/1/6 139/1/6
f 141/1/6 138/1/6 140/1/6
f 145/2/6 143/2/6 142/2/6
f 146/1/6 144/1/6 143/1/6
f 146/2/6 143/2/6 145/2/6
f 147/1/6 144/1/6 146/1/6
f 151/2/6 149/2/6 148/2/6
f 152/1/6 150/1/6 149/1/6
f 152/2/6 149/2/6 151/2/6
f 153/1/6 150/1/6 152/1/6
f 156/1/6 155/1/6 154/1/6
f 157/1/6 155/1/6 156/1/6
f 158/4/6 157/4/6 156/4/6
f 159/4/6 157/4/6 158/4/6
