# MagicaVoxel @ Ephtracy

# group
o 

# material
mtllib Blonde-11.mtl
usemtl palette

# normals
vn 1 0 0
vn -1 0 0
vn 0 0 1
vn 0 0 -1
vn 0 -1 0
vn 0 1 0

# texcoords
vt 0.876953 0.5
vt 0.884766 0.5
vt 0.888672 0.5

# verts
v 0.5 0 0.8
v 0.5 0 0.4
v 0.5 0 0
v 0.5 0 -0.1
v 0.5 0.1 0.8
v 0.5 0.1 0.4
v 0.5 0.1 0.3
v 0.5 0.2 0.8
v 0.5 0.2 0.7
v 0.5 0.3 0.7
v 0.5 0.3 0.5
v 0.5 0.3 0.4
v 0.5 0.3 0.3
v 0.5 0.3 0.2
v 0.5 0.4 0.5
v 0.5 0.4 0.4
v 0.5 0.4 0.3
v 0.5 0.4 0.2
v 0.5 0.4 0
v 0.5 0.4 -0.1
v 0.5 0.5 0.4
v 0.5 0.5 0.3
v 0.5 0.5 0.2
v 0.5 0.5 0
v 0.5 0.6 0.3
v 0.5 0.6 -0.1
v 0.3 0 0.8
v 0.3 0 0.4
v 0.3 0 0
v 0.3 0 -0.1
v 0.3 0.1 0.8
v 0.3 0.1 0.4
v 0.3 0.1 0.3
v 0.3 0.2 0.8
v 0.3 0.2 0.7
v 0.3 0.3 0.7
v 0.3 0.3 0.5
v 0.3 0.3 0.4
v 0.3 0.3 0.3
v 0.3 0.3 0.2
v 0.3 0.4 0.5
v 0.3 0.4 0.4
v 0.3 0.4 0.3
v 0.3 0.4 0.2
v 0.3 0.4 0
v 0.3 0.5 0.4
v 0.3 0.5 0.3
v 0.3 0.5 0.2
v 0.3 0.5 -0.1
v 0.3 0.6 0.3
v 0.3 0.6 -0.1
v 0.5 0 0.8
v 0.5 0.1 0.8
v 0.5 0.2 0.8
v 0.3 0 0.8
v 0.3 0.1 0.8
v 0.3 0.2 0.8
v 0.5 0.2 0.7
v 0.5 0.3 0.7
v 0.3 0.2 0.7
v 0.3 0.3 0.7
v 0.5 0.3 0.5
v 0.5 0.4 0.5
v 0.4 0.3 0.5
v 0.4 0.4 0.5
v 0.3 0.3 0.5
v 0.3 0.4 0.5
v 0.5 0.4 0.4
v 0.5 0.5 0.4
v 0.4 0.4 0.4
v 0.4 0.5 0.4
v 0.3 0.4 0.4
v 0.3 0.5 0.4
v 0.5 0.5 0.3
v 0.5 0.6 0.3
v 0.4 0.5 0.3
v 0.3 0.5 0.3
v 0.3 0.6 0.3
v 0.5 0 0
v 0.5 0.4 0
v 0.3 0 0
v 0.3 0.4 0
v 0.5 0 0.4
v 0.5 0.1 0.4
v 0.3 0 0.4
v 0.3 0.1 0.4
v 0.5 0.1 0.3
v 0.5 0.3 0.3
v 0.3 0.1 0.3
v 0.3 0.3 0.3
v 0.5 0.3 0.2
v 0.5 0.4 0.2
v 0.3 0.3 0.2
v 0.3 0.4 0.2
v 0.5 0 -0.1
v 0.5 0.4 -0.1
v 0.5 0.6 -0.1
v 0.4 0.4 -0.1
v 0.4 0.5 -0.1
v 0.3 0 -0.1
v 0.3 0.5 -0.1
v 0.3 0.6 -0.1
v 0.5 0 0.8
v 0.3 0 0.8
v 0.5 0 0.4
v 0.3 0 0.4
v 0.5 0 0
v 0.3 0 0
v 0.5 0 -0.1
v 0.3 0 -0.1
v 0.5 0.1 0.4
v 0.3 0.1 0.4
v 0.5 0.1 0.3
v 0.3 0.1 0.3
v 0.5 0.3 0.3
v 0.3 0.3 0.3
v 0.5 0.3 0.2
v 0.3 0.3 0.2
v 0.5 0.4 0.2
v 0.3 0.4 0.2
v 0.5 0.4 0
v 0.3 0.4 0
v 0.5 0.2 0.8
v 0.3 0.2 0.8
v 0.5 0.2 0.7
v 0.3 0.2 0.7
v 0.5 0.3 0.7
v 0.3 0.3 0.7
v 0.5 0.3 0.5
v 0.4 0.3 0.5
v 0.3 0.3 0.5
v 0.5 0.4 0.5
v 0.4 0.4 0.5
v 0.3 0.4 0.5
v 0.5 0.4 0.4
v 0.4 0.4 0.4
v 0.3 0.4 0.4
v 0.5 0.5 0.4
v 0.4 0.5 0.4
v 0.3 0.5 0.4
v 0.5 0.5 0.3
v 0.4 0.5 0.3
v 0.3 0.5 0.3
v 0.5 0.6 0.3
v 0.3 0.6 0.3
v 0.5 0.6 -0.1
v 0.3 0.6 -0.1

# faces
f 1/1/1 2/1/1 5/1/1
f 5/1/1 2/1/1 6/1/1
f 5/2/1 6/2/1 8/2/1
f 8/2/1 6/2/1 9/2/1
f 9/2/1 6/2/1 10/2/1
f 10/2/1 6/2/1 11/2/1
f 6/1/1 7/1/1 12/1/1
f 11/2/1 6/2/1 12/2/1
f 12/1/1 7/1/1 13/1/1
f 11/2/1 12/2/1 15/2/1
f 12/2/1 13/2/1 15/2/1
f 15/2/1 13/2/1 16/2/1
f 13/1/1 14/1/1 17/1/1
f 16/2/1 13/2/1 17/2/1
f 17/1/1 14/1/1 18/1/1
f 3/1/1 4/1/1 19/1/1
f 19/1/1 4/1/1 20/1/1
f 16/3/1 17/3/1 21/3/1
f 17/2/1 18/2/1 22/2/1
f 21/3/1 17/3/1 22/3/1
f 18/1/1 19/1/1 23/1/1
f 22/2/1 18/2/1 23/2/1
f 19/2/1 20/2/1 24/2/1
f 23/1/1 19/1/1 24/1/1
f 22/2/1 23/2/1 25/2/1
f 23/2/1 24/2/1 25/2/1
f 24/2/1 20/2/1 26/2/1
f 25/2/1 24/2/1 26/2/1
f 31/1/2 28/1/2 27/1/2
f 32/1/2 28/1/2 31/1/2
f 34/2/2 32/2/2 31/2/2
f 35/2/2 32/2/2 34/2/2
f 36/2/2 32/2/2 35/2/2
f 37/2/2 32/2/2 36/2/2
f 38/1/2 33/1/2 32/1/2
f 38/2/2 32/2/2 37/2/2
f 39/1/2 33/1/2 38/1/2
f 41/3/2 38/3/2 37/3/2
f 42/2/2 39/2/2 38/2/2
f 42/3/2 38/3/2 41/3/2
f 43/1/2 40/1/2 39/1/2
f 43/2/2 39/2/2 42/2/2
f 44/1/2 40/1/2 43/1/2
f 45/1/2 30/1/2 29/1/2
f 46/2/2 44/2/2 43/2/2
f 46/2/2 43/2/2 42/2/2
f 47/2/2 44/2/2 46/2/2
f 48/1/2 45/1/2 44/1/2
f 48/2/2 44/2/2 47/2/2
f 49/1/2 30/1/2 45/1/2
f 49/1/2 45/1/2 48/1/2
f 50/2/2 48/2/2 47/2/2
f 50/2/2 49/2/2 48/2/2
f 51/2/2 49/2/2 50/2/2
f 52/1/3 53/1/3 55/1/3
f 53/2/3 54/2/3 56/2/3
f 55/1/3 53/1/3 56/1/3
f 56/2/3 54/2/3 57/2/3
f 58/2/3 59/2/3 60/2/3
f 60/2/3 59/2/3 61/2/3
f 62/2/3 63/2/3 64/2/3
f 64/2/3 63/2/3 65/2/3
f 64/3/3 65/3/3 66/3/3
f 66/3/3 65/3/3 67/3/3
f 68/3/3 69/3/3 70/3/3
f 70/3/3 69/3/3 71/3/3
f 70/2/3 71/2/3 72/2/3
f 72/2/3 71/2/3 73/2/3
f 74/2/3 75/2/3 76/2/3
f 76/2/3 75/2/3 77/2/3
f 77/2/3 75/2/3 78/2/3
f 79/1/3 80/1/3 81/1/3
f 81/1/3 80/1/3 82/1/3
f 85/1/4 84/1/4 83/1/4
f 86/1/4 84/1/4 85/1/4
f 89/1/4 88/1/4 87/1/4
f 90/1/4 88/1/4 89/1/4
f 93/1/4 92/1/4 91/1/4
f 94/1/4 92/1/4 93/1/4
f 98/1/4 96/1/4 95/1/4
f 98/2/4 97/2/4 96/2/4
f 99/2/4 97/2/4 98/2/4
f 100/1/4 98/1/4 95/1/4
f 100/1/4 99/1/4 98/1/4
f 101/2/4 97/2/4 99/2/4
f 101/1/4 99/1/4 100/1/4
f 102/2/4 97/2/4 101/2/4
f 103/1/5 104/1/5 105/1/5
f 105/1/5 104/1/5 106/1/5
f 107/1/5 108/1/5 109/1/5
f 109/1/5 108/1/5 110/1/5
f 111/1/5 112/1/5 113/1/5
f 113/1/5 112/1/5 114/1/5
f 115/1/5 116/1/5 117/1/5
f 117/1/5 116/1/5 118/1/5
f 119/1/5 120/1/5 121/1/5
f 121/1/5 120/1/5 122/1/5
f 125/2/6 124/2/6 123/2/6
f 126/2/6 124/2/6 125/2/6
f 129/2/6 128/2/6 127/2/6
f 130/2/6 128/2/6 129/2/6
f 131/2/6 128/2/6 130/2/6
f 135/2/6 133/2/6 132/2/6
f 136/3/6 134/3/6 133/3/6
f 136/2/6 133/2/6 135/2/6
f 137/3/6 134/3/6 136/3/6
f 141/3/6 139/3/6 138/3/6
f 142/2/6 140/2/6 139/2/6
f 142/3/6 139/3/6 141/3/6
f 143/2/6 140/2/6 142/2/6
f 146/2/6 145/2/6 144/2/6
f 147/2/6 145/2/6 146/2/6
