# MagicaVoxel @ Ephtracy

# group
o 

# material
mtllib Redhead-11.mtl
usemtl palette

# normals
vn 1 0 0
vn -1 0 0
vn 0 0 1
vn 0 0 -1
vn 0 -1 0
vn 0 1 0

# texcoords
vt 0.482422 0.5
vt 0.814453 0.5
vt 0.818359 0.5
vt 0.822266 0.5
vt 0.826172 0.5
vt 0.876953 0.5
vt 0.880859 0.5
vt 0.884766 0.5
vt 0.888672 0.5

# verts
v 6.2 3.2 0.2
v 6.2 3.2 0.1
v 6.2 3.2 -0.1
v 6.2 3.4 -0.1
v 6.2 3.4 -0.2
v 6.2 3.5 0.1
v 6.2 3.5 0
v 6.2 3.6 0.2
v 6.2 3.6 0.1
v 6.2 4.3 0.1
v 6.2 4.3 0
v 6.2 4.4 0.2
v 6.2 4.4 0.1
v 6.2 4.4 0
v 6.2 4.4 -0.2
v 6.2 4.5 0.2
v 6.2 4.5 0.1
v 6.2 4.5 0
v 6.2 4.5 -0.1
v 6.2 4.5 -0.2
v 6.2 4.6 0.2
v 6.2 4.6 0.1
v 6.2 4.6 0
v 6.2 4.7 0.2
v 6.2 4.7 0.1
v 6.2 4.7 0
v 6.2 4.7 -0.1
v 6.1 2.8 0.2
v 6.1 2.8 -0.1
v 6.1 2.9 0.3
v 6.1 2.9 0.2
v 6.1 3 0.3
v 6.1 3 0.2
v 6.1 3 0
v 6.1 3 -0.1
v 6.1 3.2 0.2
v 6.1 3.2 0.1
v 6.1 3.2 0
v 6.1 3.2 -0.1
v 6.1 3.2 -0.2
v 6.1 3.3 0.3
v 6.1 3.3 0.2
v 6.1 3.4 -0.1
v 6.1 3.4 -0.2
v 6.1 3.4 -0.3
v 6.1 3.6 0.2
v 6.1 4.3 -0.2
v 6.1 4.3 -0.3
v 6.1 4.4 0.2
v 6.1 4.4 -0.2
v 6.1 4.5 0.3
v 6.1 4.5 0.2
v 6.1 4.5 -0.2
v 6.1 4.5 -0.3
v 6.1 4.6 0.3
v 6.1 4.6 0.2
v 6.1 4.7 0.3
v 6.1 4.7 0.2
v 6 2.9 -0.1
v 6 2.9 -0.2
v 6 3 -0.1
v 6 3.2 -0.1
v 6 3.2 -0.2
v 6 3.2 -0.3
v 6 3.3 -0.2
v 6 3.3 -0.3
v 6 3.4 -0.2
v 6 3.4 -0.3
v 5.8 2.8 0.2
v 5.8 2.8 -0.1
v 5.8 2.9 0.3
v 5.8 2.9 0.2
v 5.8 2.9 -0.1
v 5.8 3 0.3
v 5.8 3 0.2
v 6.1 4.6 0
v 6.1 4.6 -0.1
v 6.1 4.7 0
v 6.1 4.7 -0.1
v 6 2.8 0.2
v 6 2.8 -0.1
v 6 2.9 0.3
v 6 2.9 0.2
v 6 2.9 0.1
v 6 2.9 -0.1
v 6 3 0.3
v 6 3 0.2
v 6 4.3 -0.2
v 6 4.3 -0.3
v 6 4.4 -0.1
v 6 4.4 -0.2
v 6 4.5 0
v 6 4.5 -0.1
v 6 4.5 -0.2
v 6 4.5 -0.3
v 6 4.6 0.3
v 6 4.6 0.2
v 6 4.6 0
v 6 4.6 -0.1
v 6 4.7 0.3
v 6 4.7 0.2
v 6 4.7 0
v 5.8 2.9 -0.1
v 5.8 2.9 -0.2
v 5.8 3 -0.1
v 5.8 3 -0.2
v 5.8 4.5 0.3
v 5.8 4.5 0.2
v 5.8 4.5 0
v 5.8 4.6 0.3
v 5.8 4.6 0
v 5.7 2.8 0.2
v 5.7 2.8 -0.1
v 5.7 2.9 0.3
v 5.7 2.9 0.2
v 5.7 2.9 0
v 5.7 2.9 -0.1
v 5.7 3 0.1
v 5.7 3 0
v 5.7 3 -0.1
v 5.7 3 -0.2
v 5.7 3.2 0.1
v 5.7 3.2 -0.1
v 5.7 3.2 -0.2
v 5.7 3.2 -0.3
v 5.7 3.3 0.1
v 5.7 4.2 0.1
v 5.7 4.2 -0.2
v 5.7 4.2 -0.3
v 5.7 4.3 -0.1
v 5.7 4.3 -0.2
v 5.7 4.3 -0.3
v 5.7 4.4 0.2
v 5.7 4.4 0.1
v 5.7 4.4 0
v 5.7 4.4 -0.1
v 5.7 4.4 -0.2
v 5.7 4.5 0.3
v 5.7 4.5 0.2
v 5.7 4.5 0.1
v 5.7 4.5 0
v 5.7 4.5 -0.1
v 5.6 3 0.1
v 5.6 3 0
v 5.6 3 -0.1
v 5.6 3.2 0.1
v 5.6 3.2 0
v 5.6 3.2 -0.1
v 5.6 3.2 -0.2
v 5.6 3.3 0.1
v 5.6 3.3 0
v 5.6 4.2 0.1
v 5.6 4.2 -0.1
v 5.6 4.2 -0.2
v 5.6 4.3 0
v 5.6 4.3 -0.1
v 5.6 4.3 -0.2
v 5.6 4.4 0.1
v 5.6 4.4 0
v 5.6 4.4 -0.1
v 5.6 4.5 0.1
v 5.6 4.5 0
v 6.1 2.9 0.3
v 6.1 3 0.3
v 6.1 3.3 0.3
v 6.1 4.5 0.3
v 6.1 4.6 0.3
v 6.1 4.7 0.3
v 6 2.9 0.3
v 6 3 0.3
v 6 3.3 0.3
v 6 3.5 0.3
v 6 3.8 0.3
v 6 3.9 0.3
v 6 4 0.3
v 6 4.5 0.3
v 6 4.6 0.3
v 6 4.7 0.3
v 5.9 3.5 0.3
v 5.9 3.8 0.3
v 5.9 3.9 0.3
v 5.9 4 0.3
v 5.8 2.9 0.3
v 5.8 3 0.3
v 5.8 4.5 0.3
v 5.8 4.6 0.3
v 5.7 2.9 0.3
v 5.7 4.5 0.3
v 6.2 3.2 0.2
v 6.2 3.6 0.2
v 6.2 4.4 0.2
v 6.2 4.5 0.2
v 6.2 4.6 0.2
v 6.2 4.7 0.2
v 6.1 2.8 0.2
v 6.1 2.9 0.2
v 6.1 3.2 0.2
v 6.1 3.3 0.2
v 6.1 3.6 0.2
v 6.1 4.4 0.2
v 6.1 4.5 0.2
v 6.1 4.6 0.2
v 6.1 4.7 0.2
v 6 2.8 0.2
v 6 2.9 0.2
v 6 3 0.2
v 5.9 2.9 0.2
v 5.9 3 0.2
v 5.8 2.8 0.2
v 5.8 2.9 0.2
v 5.8 3 0.2
v 5.7 2.8 0.2
v 5.7 2.9 0.2
v 5.7 3 0.1
v 5.7 3.2 0.1
v 5.7 3.3 0.1
v 5.7 4.2 0.1
v 5.7 4.4 0.1
v 5.7 4.5 0.1
v 5.6 3 0.1
v 5.6 3.2 0.1
v 5.6 3.3 0.1
v 5.6 4.2 0.1
v 5.6 4.4 0.1
v 5.6 4.5 0.1
v 6.1 4.6 0
v 6.1 4.7 0
v 6 4.5 0
v 6 4.6 0
v 6 4.7 0
v 5.8 4.5 0
v 5.8 4.6 0
v 5.7 4.4 0
v 5.7 4.5 0
v 5.6 4.4 0
v 5.6 4.5 0
v 6.2 3.2 -0.1
v 6.2 3.4 -0.1
v 6.2 4.5 -0.1
v 6.2 4.7 -0.1
v 6.1 2.8 -0.1
v 6.1 3 -0.1
v 6.1 3.2 -0.1
v 6.1 3.4 -0.1
v 6.1 4.5 -0.1
v 6.1 4.6 -0.1
v 6.1 4.7 -0.1
v 6 2.8 -0.1
v 6 2.9 -0.1
v 6 3 -0.1
v 6 3.2 -0.1
v 6 4.4 -0.1
v 6 4.5 -0.1
v 6 4.6 -0.1
v 5.8 2.8 -0.1
v 5.8 2.9 -0.1
v 5.8 3 -0.1
v 5.7 2.8 -0.1
v 5.7 2.9 -0.1
v 5.7 3 -0.1
v 5.7 3.2 -0.1
v 5.7 4.3 -0.1
v 5.7 4.4 -0.1
v 5.7 4.5 -0.1
v 5.6 3 -0.1
v 5.6 3.2 -0.1
v 5.6 4.3 -0.1
v 5.6 4.4 -0.1
v 6.2 3.4 -0.2
v 6.2 4.4 -0.2
v 6.2 4.5 -0.2
v 6.1 3.2 -0.2
v 6.1 3.4 -0.2
v 6.1 4.3 -0.2
v 6.1 4.4 -0.2
v 6.1 4.5 -0.2
v 6 2.9 -0.2
v 6 3.2 -0.2
v 6 3.3 -0.2
v 6 3.4 -0.2
v 6 4.3 -0.2
v 6 4.4 -0.2
v 5.9 2.9 -0.2
v 5.9 3 -0.2
v 5.8 2.9 -0.2
v 5.8 3 -0.2
v 5.8 3.2 -0.2
v 5.7 3 -0.2
v 5.7 3.2 -0.2
v 5.7 4.2 -0.2
v 5.7 4.3 -0.2
v 5.7 4.4 -0.2
v 5.6 3.2 -0.2
v 5.6 4.2 -0.2
v 5.6 4.3 -0.2
v 6.1 3.4 -0.3
v 6.1 4.3 -0.3
v 6.1 4.5 -0.3
v 6 3.2 -0.3
v 6 3.3 -0.3
v 6 3.4 -0.3
v 6 4.2 -0.3
v 6 4.3 -0.3
v 6 4.5 -0.3
v 5.8 3.2 -0.3
v 5.8 3.3 -0.3
v 5.7 3.2 -0.3
v 5.7 4.2 -0.3
v 5.7 4.3 -0.3
v 6.1 2.8 0.2
v 6 2.8 0.2
v 5.8 2.8 0.2
v 5.7 2.8 0.2
v 6.1 2.8 -0.1
v 6 2.8 -0.1
v 5.8 2.8 -0.1
v 5.7 2.8 -0.1
v 6.1 2.9 0.3
v 6 2.9 0.3
v 5.8 2.9 0.3
v 5.7 2.9 0.3
v 6.1 2.9 0.2
v 6 2.9 0.2
v 5.9 2.9 0.2
v 5.8 2.9 0.2
v 5.7 2.9 0.2
v 6 2.9 0.1
v 5.9 2.9 0.1
v 6 2.9 -0.1
v 5.9 2.9 -0.1
v 5.8 2.9 -0.1
v 6 2.9 -0.2
v 5.9 2.9 -0.2
v 5.8 2.9 -0.2
v 6 3 0.3
v 5.8 3 0.3
v 6 3 0.2
v 5.9 3 0.2
v 5.8 3 0.2
v 5.7 3 0.1
v 5.6 3 0.1
v 5.7 3 0
v 5.6 3 0
v 5.8 3 -0.1
v 5.7 3 -0.1
v 5.6 3 -0.1
v 5.8 3 -0.2
v 5.7 3 -0.2
v 6.2 3.2 0.2
v 6.1 3.2 0.2
v 6.2 3.2 0.1
v 6.1 3.2 0.1
v 6.1 3.2 0
v 6.2 3.2 -0.1
v 6.1 3.2 -0.1
v 6 3.2 -0.1
v 5.7 3.2 -0.1
v 5.6 3.2 -0.1
v 6.1 3.2 -0.2
v 6 3.2 -0.2
v 5.8 3.2 -0.2
v 5.7 3.2 -0.2
v 5.6 3.2 -0.2
v 6 3.2 -0.3
v 5.8 3.2 -0.3
v 5.7 3.2 -0.3
v 6.2 3.4 -0.1
v 6.1 3.4 -0.1
v 6.2 3.4 -0.2
v 6.1 3.4 -0.2
v 6 3.4 -0.2
v 6.1 3.4 -0.3
v 6 3.4 -0.3
v 5.7 4.3 -0.1
v 5.6 4.3 -0.1
v 6 4.3 -0.2
v 5.7 4.3 -0.2
v 5.6 4.3 -0.2
v 6 4.3 -0.3
v 5.7 4.3 -0.3
v 5.7 4.4 0
v 5.6 4.4 0
v 6 4.4 -0.1
v 5.7 4.4 -0.1
v 5.6 4.4 -0.1
v 6 4.4 -0.2
v 5.7 4.4 -0.2
v 5.8 4.5 0.3
v 5.7 4.5 0.3
v 5.8 4.5 0.2
v 5.7 4.5 0.2
v 5.7 4.5 0.1
v 5.6 4.5 0.1
v 6 4.5 0
v 5.8 4.5 0
v 5.7 4.5 0
v 5.6 4.5 0
v 6.2 4.5 -0.1
v 6.1 4.5 -0.1
v 6 4.5 -0.1
v 5.7 4.5 -0.1
v 6.2 4.5 -0.2
v 6.1 4.5 -0.2
v 6 4.5 -0.2
v 6.1 4.5 -0.3
v 6 4.5 -0.3
v 6 4.6 0.3
v 5.8 4.6 0.3
v 6 4.6 0.2
v 6.1 4.6 0
v 6 4.6 0
v 5.8 4.6 0
v 6.1 4.6 -0.1
v 6 4.6 -0.1
v 6.1 4.7 0.3
v 6 4.7 0.3
v 6.2 4.7 0.2
v 6.1 4.7 0.2
v 6 4.7 0.2
v 6.2 4.7 0.1
v 6.1 4.7 0.1
v 6.2 4.7 0
v 6.1 4.7 0
v 6 4.7 0
v 6.2 4.7 -0.1
v 6.1 4.7 -0.1

# faces
f 2/8/1 3/8/1 4/8/1
f 1/5/1 2/5/1 6/5/1
f 4/8/1 5/8/1 6/8/1
f 2/8/1 4/8/1 6/8/1
f 6/8/1 5/8/1 7/8/1
f 1/5/1 6/5/1 8/5/1
f 6/5/1 7/5/1 8/5/1
f 8/5/1 7/5/1 9/5/1
f 8/8/1 9/8/1 10/8/1
f 9/5/1 7/5/1 10/5/1
f 7/8/1 5/8/1 11/8/1
f 10/5/1 7/5/1 11/5/1
f 8/8/1 10/8/1 12/8/1
f 10/4/1 11/4/1 13/4/1
f 12/8/1 10/8/1 13/8/1
f 11/8/1 5/8/1 14/8/1
f 13/4/1 11/4/1 14/4/1
f 14/8/1 5/8/1 15/8/1
f 12/7/1 13/7/1 16/7/1
f 13/3/1 14/3/1 17/3/1
f 16/7/1 13/7/1 17/7/1
f 14/7/1 15/7/1 18/7/1
f 17/3/1 14/3/1 18/3/1
f 18/7/1 15/7/1 19/7/1
f 19/7/1 15/7/1 20/7/1
f 16/6/1 17/6/1 21/6/1
f 17/2/1 18/2/1 22/2/1
f 21/6/1 17/6/1 22/6/1
f 18/6/1 19/6/1 23/6/1
f 22/2/1 18/2/1 23/2/1
f 21/8/1 22/8/1 24/8/1
f 22/3/1 23/3/1 25/3/1
f 24/8/1 22/8/1 25/8/1
f 23/6/1 19/6/1 26/6/1
f 25/3/1 23/3/1 26/3/1
f 26/6/1 19/6/1 27/6/1
f 28/8/1 29/8/1 31/8/1
f 30/8/1 31/8/1 32/8/1
f 31/8/1 29/8/1 33/8/1
f 32/8/1 31/8/1 33/8/1
f 33/8/1 29/8/1 34/8/1
f 34/8/1 29/8/1 35/8/1
f 32/5/1 33/5/1 36/5/1
f 33/8/1 34/8/1 36/8/1
f 36/8/1 34/8/1 37/8/1
f 34/7/1 35/7/1 38/7/1
f 37/8/1 34/8/1 38/8/1
f 38/7/1 35/7/1 39/7/1
f 32/5/1 36/5/1 41/5/1
f 41/5/1 36/5/1 42/5/1
f 39/8/1 40/8/1 43/8/1
f 43/8/1 40/8/1 44/8/1
f 41/8/1 42/8/1 46/8/1
f 44/8/1 45/8/1 47/8/1
f 47/8/1 45/8/1 48/8/1
f 41/8/1 46/8/1 49/8/1
f 47/7/1 48/7/1 50/7/1
f 41/8/1 49/8/1 51/8/1
f 51/8/1 49/8/1 52/8/1
f 50/7/1 48/7/1 53/7/1
f 53/7/1 48/7/1 54/7/1
f 51/7/1 52/7/1 55/7/1
f 55/7/1 52/7/1 56/7/1
f 55/6/1 56/6/1 57/6/1
f 57/6/1 56/6/1 58/6/1
f 59/7/1 60/7/1 61/7/1
f 61/7/1 60/7/1 62/7/1
f 62/7/1 60/7/1 63/7/1
f 63/7/1 64/7/1 65/7/1
f 65/7/1 64/7/1 66/7/1
f 65/8/1 66/8/1 67/8/1
f 67/8/1 66/8/1 68/8/1
f 69/8/1 70/8/1 72/8/1
f 72/8/1 70/8/1 73/8/1
f 71/8/1 72/8/1 74/8/1
f 74/8/1 72/8/1 75/8/1
f 78/6/2 77/6/2 76/6/2
f 79/6/2 77/6/2 78/6/2
f 83/8/2 81/8/2 80/8/2
f 84/8/2 81/8/2 83/8/2
f 85/8/2 81/8/2 84/8/2
f 86/8/2 83/8/2 82/8/2
f 87/8/2 83/8/2 86/8/2
f 91/7/2 89/7/2 88/7/2
f 93/8/2 91/8/2 90/8/2
f 94/7/2 89/7/2 91/7/2
f 94/8/2 91/8/2 93/8/2
f 95/7/2 89/7/2 94/7/2
f 98/8/2 93/8/2 92/8/2
f 99/8/2 93/8/2 98/8/2
f 100/6/2 97/6/2 96/6/2
f 101/8/2 98/8/2 97/8/2
f 101/6/2 97/6/2 100/6/2
f 102/8/2 98/8/2 101/8/2
f 105/6/2 104/6/2 103/6/2
f 106/6/2 104/6/2 105/6/2
f 110/8/2 108/8/2 107/8/2
f 110/8/2 109/8/2 108/8/2
f 111/8/2 109/8/2 110/8/2
f 115/8/2 113/8/2 112/8/2
f 116/8/2 113/8/2 115/8/2
f 117/8/2 113/8/2 116/8/2
f 118/8/2 115/8/2 114/8/2
f 118/8/2 116/8/2 115/8/2
f 119/7/2 117/7/2 116/7/2
f 119/8/2 116/8/2 118/8/2
f 120/7/2 117/7/2 119/7/2
f 122/8/2 118/8/2 114/8/2
f 123/7/2 121/7/2 120/7/2
f 124/7/2 121/7/2 123/7/2
f 126/8/2 122/8/2 114/8/2
f 127/8/2 126/8/2 114/8/2
f 128/8/2 125/8/2 124/8/2
f 129/8/2 125/8/2 128/8/2
f 131/7/2 129/7/2 128/7/2
f 132/7/2 129/7/2 131/7/2
f 133/8/2 127/8/2 114/8/2
f 134/8/2 127/8/2 133/8/2
f 136/6/2 131/6/2 130/6/2
f 137/6/2 131/6/2 136/6/2
f 138/8/2 133/8/2 114/8/2
f 139/6/2 134/6/2 133/6/2
f 139/8/2 133/8/2 138/8/2
f 140/6/2 134/6/2 139/6/2
f 141/8/2 136/8/2 135/8/2
f 142/8/2 136/8/2 141/8/2
f 146/8/2 144/8/2 143/8/2
f 147/7/2 145/7/2 144/7/2
f 147/8/2 144/8/2 146/8/2
f 148/7/2 145/7/2 147/7/2
f 150/9/2 147/9/2 146/9/2
f 151/8/2 149/8/2 148/8/2
f 151/9/2 147/9/2 150/9/2
f 151/8/2 148/8/2 147/8/2
f 152/8/2 151/8/2 150/8/2
f 153/8/2 149/8/2 151/8/2
f 153/8/2 151/8/2 152/8/2
f 154/8/2 149/8/2 153/8/2
f 155/7/2 153/7/2 152/7/2
f 156/6/2 154/6/2 153/6/2
f 156/7/2 153/7/2 155/7/2
f 157/6/2 154/6/2 156/6/2
f 158/7/2 155/7/2 152/7/2
f 159/6/2 156/6/2 155/6/2
f 159/7/2 155/7/2 158/7/2
f 160/6/2 156/6/2 159/6/2
f 161/6/2 159/6/2 158/6/2
f 162/6/2 159/6/2 161/6/2
f 163/8/3 164/8/3 169/8/3
f 164/5/3 165/5/3 170/5/3
f 169/8/3 164/8/3 170/8/3
f 165/8/3 166/8/3 171/8/3
f 170/5/3 165/5/3 171/5/3
f 171/8/3 166/8/3 172/8/3
f 172/8/3 166/8/3 173/8/3
f 173/8/3 166/8/3 174/8/3
f 174/8/3 166/8/3 175/8/3
f 166/7/3 167/7/3 176/7/3
f 175/8/3 166/8/3 176/8/3
f 167/6/3 168/6/3 177/6/3
f 176/7/3 167/7/3 177/7/3
f 177/6/3 168/6/3 178/6/3
f 170/8/3 171/8/3 179/8/3
f 171/8/3 172/8/3 179/8/3
f 172/9/3 173/9/3 179/9/3
f 173/8/3 174/8/3 180/8/3
f 179/9/3 173/9/3 180/9/3
f 174/9/3 175/9/3 181/9/3
f 180/8/3 174/8/3 181/8/3
f 175/8/3 176/8/3 182/8/3
f 181/9/3 175/9/3 182/9/3
f 176/8/3 177/8/3 182/8/3
f 180/8/3 181/8/3 184/8/3
f 179/8/3 180/8/3 184/8/3
f 181/8/3 182/8/3 184/8/3
f 170/8/3 179/8/3 184/8/3
f 182/8/3 177/8/3 185/8/3
f 184/8/3 182/8/3 185/8/3
f 185/8/3 177/8/3 186/8/3
f 183/8/3 184/8/3 187/8/3
f 184/8/3 185/8/3 187/8/3
f 187/8/3 185/8/3 188/8/3
f 189/5/3 190/5/3 197/5/3
f 197/5/3 190/5/3 198/5/3
f 190/8/3 191/8/3 199/8/3
f 198/5/3 190/5/3 199/5/3
f 191/7/3 192/7/3 200/7/3
f 199/8/3 191/8/3 200/8/3
f 192/6/3 193/6/3 201/6/3
f 200/7/3 192/7/3 201/7/3
f 193/8/3 194/8/3 202/8/3
f 201/6/3 193/6/3 202/6/3
f 202/8/3 194/8/3 203/8/3
f 195/8/3 196/8/3 204/8/3
f 204/8/3 196/8/3 205/8/3
f 205/3/3 206/3/3 207/3/3
f 207/3/3 206/3/3 208/3/3
f 207/7/3 208/7/3 210/7/3
f 210/7/3 208/7/3 211/7/3
f 209/8/3 210/8/3 212/8/3
f 212/8/3 210/8/3 213/8/3
f 214/8/3 215/8/3 220/8/3
f 215/9/3 216/9/3 221/9/3
f 220/8/3 215/8/3 221/8/3
f 216/8/3 217/8/3 222/8/3
f 221/9/3 216/9/3 222/9/3
f 217/7/3 218/7/3 223/7/3
f 222/8/3 217/8/3 223/8/3
f 218/6/3 219/6/3 224/6/3
f 223/7/3 218/7/3 224/7/3
f 224/6/3 219/6/3 225/6/3
f 229/8/4 227/8/4 226/8/4
f 230/8/4 227/8/4 229/8/4
f 231/8/4 229/8/4 228/8/4
f 232/8/4 229/8/4 231/8/4
f 235/6/4 234/6/4 233/6/4
f 236/6/4 234/6/4 235/6/4
f 243/8/4 238/8/4 237/8/4
f 244/8/4 238/8/4 243/8/4
f 245/6/4 240/6/4 239/6/4
f 246/6/4 240/6/4 245/6/4
f 247/6/4 240/6/4 246/6/4
f 248/8/4 242/8/4 241/8/4
f 249/8/4 242/8/4 248/8/4
f 250/7/4 243/7/4 242/7/4
f 250/8/4 242/8/4 249/8/4
f 251/7/4 243/7/4 250/7/4
f 253/8/4 246/8/4 245/8/4
f 254/8/4 246/8/4 253/8/4
f 258/8/4 256/8/4 255/8/4
f 259/7/4 257/7/4 256/7/4
f 259/8/4 256/8/4 258/8/4
f 260/7/4 257/7/4 259/7/4
f 263/8/4 253/8/4 252/8/4
f 264/8/4 253/8/4 263/8/4
f 265/7/4 261/7/4 260/7/4
f 266/7/4 261/7/4 265/7/4
f 267/6/4 263/6/4 262/6/4
f 268/6/4 263/6/4 267/6/4
f 273/8/4 270/8/4 269/8/4
f 274/8/4 270/8/4 273/8/4
f 275/7/4 271/7/4 270/7/4
f 275/8/4 270/8/4 274/8/4
f 276/7/4 271/7/4 275/7/4
f 278/8/4 273/8/4 272/8/4
f 279/8/4 273/8/4 278/8/4
f 280/8/4 273/8/4 279/8/4
f 283/7/4 278/7/4 277/7/4
f 284/7/4 278/7/4 283/7/4
f 285/6/4 284/6/4 283/6/4
f 286/7/4 278/7/4 284/7/4
f 286/6/4 284/6/4 285/6/4
f 287/7/4 278/7/4 286/7/4
f 288/7/4 287/7/4 286/7/4
f 289/7/4 287/7/4 288/7/4
f 291/6/4 282/6/4 281/6/4
f 292/6/4 282/6/4 291/6/4
f 293/8/4 290/8/4 289/8/4
f 294/6/4 291/6/4 290/6/4
f 294/8/4 290/8/4 293/8/4
f 295/6/4 291/6/4 294/6/4
f 301/8/4 297/8/4 296/8/4
f 302/8/4 297/8/4 301/8/4
f 303/7/4 298/7/4 297/7/4
f 303/8/4 297/8/4 302/8/4
f 304/7/4 298/7/4 303/7/4
f 305/7/4 300/7/4 299/7/4
f 306/8/4 302/8/4 301/8/4
f 306/7/4 300/7/4 305/7/4
f 306/8/4 301/8/4 300/8/4
f 307/8/4 306/8/4 305/8/4
f 308/7/4 303/7/4 302/7/4
f 308/8/4 306/8/4 307/8/4
f 308/8/4 302/8/4 306/8/4
f 309/7/4 303/7/4 308/7/4
f 310/8/5 311/8/5 314/8/5
f 314/8/5 311/8/5 315/8/5
f 312/8/5 313/8/5 316/8/5
f 316/8/5 313/8/5 317/8/5
f 318/8/5 319/8/5 322/8/5
f 322/8/5 319/8/5 323/8/5
f 320/8/5 321/8/5 325/8/5
f 325/8/5 321/8/5 326/8/5
f 323/3/5 324/3/5 327/3/5
f 324/7/5 325/7/5 328/7/5
f 327/3/5 324/3/5 328/3/5
f 327/7/5 328/7/5 329/7/5
f 328/7/5 325/7/5 330/7/5
f 329/7/5 328/7/5 330/7/5
f 330/7/5 325/7/5 331/7/5
f 329/7/5 330/7/5 332/7/5
f 330/6/5 331/6/5 333/6/5
f 332/7/5 330/7/5 333/7/5
f 333/6/5 331/6/5 334/6/5
f 335/8/5 336/8/5 337/8/5
f 337/8/5 336/8/5 338/8/5
f 338/8/5 336/8/5 339/8/5
f 340/8/5 341/8/5 342/8/5
f 342/8/5 341/8/5 343/8/5
f 342/7/5 343/7/5 345/7/5
f 345/7/5 343/7/5 346/7/5
f 344/7/5 345/7/5 347/7/5
f 347/7/5 345/7/5 348/7/5
f 349/5/5 350/5/5 351/5/5
f 351/5/5 350/5/5 352/5/5
f 351/8/5 352/8/5 353/8/5
f 351/8/5 353/8/5 354/8/5
f 354/8/5 353/8/5 355/8/5
f 355/8/5 356/8/5 359/8/5
f 359/8/5 356/8/5 360/8/5
f 357/8/5 358/8/5 362/8/5
f 362/8/5 358/8/5 363/8/5
f 360/7/5 361/7/5 364/7/5
f 361/8/5 362/8/5 365/8/5
f 364/7/5 361/7/5 365/7/5
f 365/8/5 362/8/5 366/8/5
f 367/8/5 368/8/5 369/8/5
f 369/8/5 368/8/5 370/8/5
f 370/8/5 371/8/5 372/8/5
f 372/8/5 371/8/5 373/8/5
f 377/6/6 375/6/6 374/6/6
f 378/6/6 375/6/6 377/6/6
f 379/7/6 377/7/6 376/7/6
f 380/7/6 377/7/6 379/7/6
f 384/6/6 382/6/6 381/6/6
f 385/6/6 382/6/6 384/6/6
f 386/6/6 384/6/6 383/6/6
f 387/6/6 384/6/6 386/6/6
f 390/8/6 389/8/6 388/8/6
f 391/8/6 389/8/6 390/8/6
f 392/6/6 391/6/6 390/6/6
f 395/6/6 392/6/6 390/6/6
f 395/6/6 393/6/6 392/6/6
f 396/6/6 393/6/6 395/6/6
f 397/6/6 393/6/6 396/6/6
f 400/8/6 395/8/6 394/8/6
f 400/8/6 396/8/6 395/8/6
f 401/8/6 396/8/6 400/8/6
f 402/7/6 399/7/6 398/7/6
f 403/8/6 400/8/6 399/8/6
f 403/7/6 399/7/6 402/7/6
f 404/8/6 400/8/6 403/8/6
f 405/7/6 404/7/6 403/7/6
f 406/7/6 404/7/6 405/7/6
f 409/8/6 408/8/6 407/8/6
f 411/8/6 408/8/6 409/8/6
f 412/8/6 408/8/6 411/8/6
f 413/8/6 411/8/6 410/8/6
f 414/8/6 411/8/6 413/8/6
f 418/6/6 416/6/6 415/6/6
f 419/6/6 416/6/6 418/6/6
f 420/8/6 418/8/6 417/8/6
f 420/8/6 419/8/6 418/8/6
f 421/8/6 419/8/6 420/8/6
f 422/3/6 421/3/6 420/3/6
f 423/8/6 419/8/6 421/8/6
f 423/3/6 421/3/6 422/3/6
f 424/8/6 419/8/6 423/8/6
f 425/6/6 423/6/6 422/6/6
f 426/6/6 423/6/6 425/6/6
