# MagicaVoxel @ Ephtracy

# group
o 

# material
mtllib Redhead-2.mtl
usemtl palette

# normals
vn -1 0 0
vn 1 0 0
vn 0 0 1
vn 0 0 -1
vn 0 -1 0
vn 0 1 0

# texcoords
vt 0.880859 0.5
vt 0.884766 0.5

# verts
v 6.2 4 -0.1
v 6.2 4 -0.3
v 6.2 4.1 -0.2
v 6.2 4.1 -0.3
v 6.2 4.2 -0.1
v 6.2 4.2 -0.2
v 6.2 5.1 -0.1
v 6.2 5.1 -0.3
v 6.4 4 -0.1
v 6.4 4 -0.3
v 6.4 4.1 -0.1
v 6.4 4.1 -0.3
v 6.4 4.6 -0.2
v 6.4 4.6 -0.3
v 6.4 5.1 -0.1
v 6.4 5.1 -0.2
v 6.4 5.1 -0.3
v 6.2 4 -0.1
v 6.2 4.2 -0.1
v 6.2 5.1 -0.1
v 6.3 4.1 -0.1
v 6.3 4.2 -0.1
v 6.4 4 -0.1
v 6.4 4.1 -0.1
v 6.4 5.1 -0.1
v 6.2 4 -0.3
v 6.2 4.1 -0.3
v 6.2 5.1 -0.3
v 6.3 4.6 -0.3
v 6.3 5.1 -0.3
v 6.4 4 -0.3
v 6.4 4.1 -0.3
v 6.4 4.6 -0.3
v 6.4 5.1 -0.3
v 6.2 4 -0.1
v 6.4 4 -0.1
v 6.2 4 -0.3
v 6.4 4 -0.3
v 6.2 5.1 -0.1
v 6.4 5.1 -0.1
v 6.3 5.1 -0.2
v 6.4 5.1 -0.2
v 6.2 5.1 -0.3
v 6.3 5.1 -0.3
v 6.4 5.1 -0.3

# faces
f 3/1/1 2/1/1 1/1/1
f 4/1/1 2/1/1 3/1/1
f 5/1/1 3/1/1 1/1/1
f 6/2/1 4/2/1 3/2/1
f 6/1/1 3/1/1 5/1/1
f 7/2/1 6/2/1 5/2/1
f 8/2/1 4/2/1 6/2/1
f 8/2/1 6/2/1 7/2/1
f 9/1/2 10/1/2 11/1/2
f 11/1/2 10/1/2 12/1/2
f 11/2/2 12/2/2 13/2/2
f 13/2/2 12/2/2 14/2/2
f 11/2/2 13/2/2 15/2/2
f 13/1/2 14/1/2 16/1/2
f 15/2/2 13/2/2 16/2/2
f 16/1/2 14/1/2 17/1/2
f 21/1/3 19/1/3 18/1/3
f 22/2/3 20/2/3 19/2/3
f 22/1/3 19/1/3 21/1/3
f 23/1/3 21/1/3 18/1/3
f 24/2/3 22/2/3 21/2/3
f 24/1/3 21/1/3 23/1/3
f 25/2/3 20/2/3 22/2/3
f 25/2/3 22/2/3 24/2/3
f 27/2/4 28/2/4 29/2/4
f 29/2/4 28/2/4 30/2/4
f 26/1/4 27/1/4 31/1/4
f 27/2/4 29/2/4 32/2/4
f 31/1/4 27/1/4 32/1/4
f 29/1/4 30/1/4 33/1/4
f 32/2/4 29/2/4 33/2/4
f 33/1/4 30/1/4 34/1/4
f 37/1/5 36/1/5 35/1/5
f 38/1/5 36/1/5 37/1/5
f 39/2/6 40/2/6 41/2/6
f 41/2/6 40/2/6 42/2/6
f 39/2/6 41/2/6 43/2/6
f 41/1/6 42/1/6 44/1/6
f 43/2/6 41/2/6 44/2/6
f 44/1/6 42/1/6 45/1/6
