# MagicaVoxel @ Ephtracy

# group
o Hand_05

# material
mtllib Body-33-Hand_05.mtl
usemtl palette

# normals
vn 1 0 0
vn -1 0 0
vn 0 0 1
vn 0 0 -1
vn 0 -1 0
vn 0 1 0

# texcoords
vt 0.478516 0.5
vt 0.482422 0.5

# verts
v -0.7 3.6 0.1
v -0.7 3.6 -0.1
v -0.7 3.6 -0.2
v -0.7 3.7 0
v -0.7 3.7 -0.1
v -0.7 3.8 0.1
v -0.7 3.8 0
v -0.7 3.8 -0.1
v -0.7 3.8 -0.2
v -0.7 3.9 0.1
v -0.7 3.9 0
v -0.7 3.9 -0.1
v -0.7 3.9 -0.3
v -0.7 4 0
v -0.7 4 -0.3
v -0.8 3.3 0
v -0.8 3.3 -0.2
v -0.8 3.4 -0.2
v -0.8 3.4 -0.3
v -0.8 3.5 0
v -0.8 3.5 -0.3
v -0.8 3.6 0
v -0.8 3.6 -0.1
v -0.8 3.6 -0.2
v -0.8 3.6 -0.3
v -0.8 3.6 -0.4
v -0.8 3.8 -0.1
v -0.8 3.8 -0.2
v -0.8 3.9 -0.1
v -0.8 3.9 -0.3
v -0.8 3.9 -0.4
v -0.8 3.6 0.1
v -0.8 3.6 0
v -0.8 3.8 0.1
v -0.8 3.8 0
v -0.9 3.3 0
v -0.9 3.3 -0.2
v -0.9 3.4 -0.2
v -0.9 3.4 -0.3
v -0.9 3.5 0
v -0.9 3.5 -0.3
v -0.9 3.6 0
v -0.9 3.6 -0.3
v -0.9 3.6 -0.4
v -0.9 3.8 0.1
v -0.9 3.8 0
v -0.9 3.9 0.1
v -0.9 3.9 0
v -0.9 3.9 -0.3
v -0.9 3.9 -0.4
v -0.9 4 0
v -0.9 4 -0.3
v -0.7 3.6 0.1
v -0.7 3.8 0.1
v -0.7 3.9 0.1
v -0.8 3.6 0.1
v -0.8 3.8 0.1
v -0.9 3.8 0.1
v -0.9 3.9 0.1
v -0.7 3.9 0
v -0.7 4 0
v -0.8 3.3 0
v -0.8 3.5 0
v -0.8 3.6 0
v -0.8 3.8 0
v -0.9 3.3 0
v -0.9 3.5 0
v -0.9 3.6 0
v -0.9 3.8 0
v -0.9 3.9 0
v -0.9 4 0
v -0.7 3.8 -0.1
v -0.7 3.9 -0.1
v -0.8 3.8 -0.1
v -0.8 3.9 -0.1
v -0.7 3.6 -0.2
v -0.7 3.8 -0.2
v -0.8 3.3 -0.2
v -0.8 3.4 -0.2
v -0.8 3.6 -0.2
v -0.8 3.8 -0.2
v -0.9 3.3 -0.2
v -0.9 3.4 -0.2
v -0.7 3.9 -0.3
v -0.7 4 -0.3
v -0.8 3.4 -0.3
v -0.8 3.5 -0.3
v -0.8 3.6 -0.3
v -0.8 3.9 -0.3
v -0.9 3.4 -0.3
v -0.9 3.5 -0.3
v -0.9 3.6 -0.3
v -0.9 3.9 -0.3
v -0.9 4 -0.3
v -0.8 3.6 -0.4
v -0.8 3.9 -0.4
v -0.9 3.6 -0.4
v -0.9 3.9 -0.4
v -0.8 3.3 0
v -0.9 3.3 0
v -0.8 3.3 -0.2
v -0.9 3.3 -0.2
v -0.8 3.4 -0.2
v -0.9 3.4 -0.2
v -0.8 3.4 -0.3
v -0.9 3.4 -0.3
v -0.7 3.6 0.1
v -0.8 3.6 0.1
v -0.8 3.6 0
v -0.7 3.6 -0.1
v -0.8 3.6 -0.1
v -0.7 3.6 -0.2
v -0.8 3.6 -0.2
v -0.8 3.6 -0.3
v -0.9 3.6 -0.3
v -0.8 3.6 -0.4
v -0.9 3.6 -0.4
v -0.8 3.8 0.1
v -0.9 3.8 0.1
v -0.8 3.8 0
v -0.9 3.8 0
v -0.7 3.9 -0.1
v -0.8 3.9 -0.1
v -0.7 3.9 -0.3
v -0.8 3.9 -0.3
v -0.7 3.8 -0.1
v -0.8 3.8 -0.1
v -0.7 3.8 -0.2
v -0.8 3.8 -0.2
v -0.7 3.9 0.1
v -0.9 3.9 0.1
v -0.7 3.9 0
v -0.9 3.9 0
v -0.8 3.9 -0.3
v -0.9 3.9 -0.3
v -0.8 3.9 -0.4
v -0.9 3.9 -0.4
v -0.7 4 0
v -0.9 4 0
v -0.7 4 -0.3
v -0.9 4 -0.3

# faces
f 1/2/1 2/2/1 4/2/1
f 2/1/1 3/1/1 5/1/1
f 4/2/1 2/2/1 5/2/1
f 1/2/1 4/2/1 6/2/1
f 4/1/1 5/1/1 7/1/1
f 6/2/1 4/2/1 7/2/1
f 5/1/1 3/1/1 8/1/1
f 7/1/1 5/1/1 8/1/1
f 8/1/1 3/1/1 9/1/1
f 6/1/1 7/1/1 10/1/1
f 7/1/1 8/1/1 10/1/1
f 10/1/1 8/1/1 11/1/1
f 11/1/1 8/1/1 12/1/1
f 11/2/1 12/2/1 14/2/1
f 12/2/1 13/2/1 14/2/1
f 14/2/1 13/2/1 15/2/1
f 16/2/1 17/2/1 18/2/1
f 16/2/1 18/2/1 20/2/1
f 18/2/1 19/2/1 20/2/1
f 20/2/1 19/2/1 21/2/1
f 20/1/1 21/1/1 22/1/1
f 22/1/1 21/1/1 23/1/1
f 23/1/1 21/1/1 24/1/1
f 24/1/1 21/1/1 25/1/1
f 24/2/1 25/2/1 28/2/1
f 27/2/1 28/2/1 29/2/1
f 25/1/1 26/1/1 30/1/1
f 29/2/1 28/2/1 30/2/1
f 28/2/1 25/2/1 30/2/1
f 30/1/1 26/1/1 31/1/1
f 34/2/2 33/2/2 32/2/2
f 35/2/2 33/2/2 34/2/2
f 38/2/2 37/2/2 36/2/2
f 40/2/2 38/2/2 36/2/2
f 40/2/2 39/2/2 38/2/2
f 41/2/2 39/2/2 40/2/2
f 42/1/2 41/1/2 40/1/2
f 43/1/2 41/1/2 42/1/2
f 46/2/2 43/2/2 42/2/2
f 47/1/2 46/1/2 45/1/2
f 48/2/2 43/2/2 46/2/2
f 48/1/2 46/1/2 47/1/2
f 49/1/2 44/1/2 43/1/2
f 49/2/2 43/2/2 48/2/2
f 50/1/2 44/1/2 49/1/2
f 51/2/2 49/2/2 48/2/2
f 52/2/2 49/2/2 51/2/2
f 53/2/3 54/2/3 56/2/3
f 54/1/3 55/1/3 57/1/3
f 56/2/3 54/2/3 57/2/3
f 57/1/3 55/1/3 58/1/3
f 58/1/3 55/1/3 59/1/3
f 62/2/3 63/2/3 66/2/3
f 63/1/3 64/1/3 67/1/3
f 66/2/3 63/2/3 67/2/3
f 64/2/3 65/2/3 68/2/3
f 67/1/3 64/1/3 68/1/3
f 68/2/3 65/2/3 69/2/3
f 60/2/3 61/2/3 70/2/3
f 70/2/3 61/2/3 71/2/3
f 74/1/4 73/1/4 72/1/4
f 75/1/4 73/1/4 74/1/4
f 80/1/4 77/1/4 76/1/4
f 81/1/4 77/1/4 80/1/4
f 82/2/4 79/2/4 78/2/4
f 83/2/4 79/2/4 82/2/4
f 89/2/4 85/2/4 84/2/4
f 90/2/4 87/2/4 86/2/4
f 91/1/4 88/1/4 87/1/4
f 91/2/4 87/2/4 90/2/4
f 92/1/4 88/1/4 91/1/4
f 93/2/4 85/2/4 89/2/4
f 94/2/4 85/2/4 93/2/4
f 97/1/4 96/1/4 95/1/4
f 98/1/4 96/1/4 97/1/4
f 99/2/5 100/2/5 101/2/5
f 101/2/5 100/2/5 102/2/5
f 103/2/5 104/2/5 105/2/5
f 105/2/5 104/2/5 106/2/5
f 107/2/5 108/2/5 109/2/5
f 107/2/5 109/2/5 110/2/5
f 110/2/5 109/2/5 111/2/5
f 110/1/5 111/1/5 112/1/5
f 112/1/5 111/1/5 113/1/5
f 114/1/5 115/1/5 116/1/5
f 116/1/5 115/1/5 117/1/5
f 118/1/5 119/1/5 120/1/5
f 120/1/5 119/1/5 121/1/5
f 122/2/5 123/2/5 124/2/5
f 124/2/5 123/2/5 125/2/5
f 128/1/6 127/1/6 126/1/6
f 129/1/6 127/1/6 128/1/6
f 132/1/6 131/1/6 130/1/6
f 133/1/6 131/1/6 132/1/6
f 136/1/6 135/1/6 134/1/6
f 137/1/6 135/1/6 136/1/6
f 140/2/6 139/2/6 138/2/6
f 141/2/6 139/2/6 140/2/6
