# MagicaVoxel @ Ephtracy

# group
o 

# material
mtllib Arm-22.mtl
usemtl palette

# normals
vn -1 0 0
vn 1 0 0
vn 0 0 1
vn 0 0 -1
vn 0 -1 0
vn 0 1 0

# texcoords
vt 0.876953 0.5
vt 0.880859 0.5

# verts
v -0.2 -0.35 0.2
v -0.2 -0.35 0.1
v -0.2 -0.35 -0.1
v -0.2 -0.35 -0.2
v -0.2 0.75 0.2
v -0.2 0.75 0.1
v -0.2 0.75 -0.1
v -0.2 0.75 -0.2
v -0.1 -0.75 0.2
v -0.1 -0.75 -0.2
v -0.1 -0.55 0.3
v -0.1 -0.55 0.2
v -0.1 -0.55 -0.2
v -0.1 -0.55 -0.3
v -0.1 -0.45 0.2
v -0.1 -0.45 0.1
v -0.1 -0.45 -0.1
v -0.1 -0.45 -0.2
v -0.1 -0.35 0.2
v -0.1 -0.35 0.1
v -0.1 -0.35 -0.1
v -0.1 -0.35 -0.2
v -0.1 0.65 0.3
v -0.1 0.65 0.2
v -0.1 0.65 0.1
v -0.1 0.65 -0.1
v -0.1 0.65 -0.2
v -0.1 0.65 -0.3
v 0 -0.55 0.4
v 0 -0.55 0.3
v 0 -0.55 -0.3
v 0 -0.55 -0.4
v 0 0.15 0.4
v 0 0.15 0.3
v 0 0.25 -0.3
v 0 0.25 -0.4
v 0 0.55 0.4
v 0 0.55 0.3
v 0 0.55 -0.3
v 0 0.55 -0.4
v 0 0.65 0.4
v 0 0.65 0.3
v 0 0.65 -0.3
v 0 0.65 -0.4
v 0.1 0.15 0.4
v 0.1 0.15 0.3
v 0.1 0.25 -0.3
v 0.1 0.25 -0.4
v 0.1 0.55 0.4
v 0.1 0.55 0.3
v 0.1 0.55 -0.3
v 0.1 0.55 -0.4
v -0.1 0.65 0.2
v -0.1 0.65 0.1
v -0.1 0.65 -0.1
v -0.1 0.65 -0.2
v -0.1 0.75 0.2
v -0.1 0.75 0.1
v -0.1 0.75 -0.1
v -0.1 0.75 -0.2
v 0 -0.75 0.2
v 0 -0.75 0.1
v 0 -0.75 -0.1
v 0 -0.75 -0.2
v 0 -0.65 0.1
v 0 -0.65 -0.1
v 0 -0.55 0.3
v 0 -0.55 0.2
v 0 -0.55 -0.2
v 0 -0.55 -0.3
v 0 -0.45 0.2
v 0 -0.45 0.1
v 0 -0.45 -0.1
v 0 -0.45 -0.2
v 0 -0.35 0.2
v 0 -0.35 0.1
v 0 -0.35 -0.1
v 0 -0.35 -0.2
v 0 0.15 0.3
v 0 0.25 -0.3
v 0 0.55 0.3
v 0 0.55 -0.3
v 0 0.65 0.3
v 0 0.65 -0.3
v 0.1 -0.75 0.1
v 0.1 -0.75 -0.1
v 0.1 -0.65 0.1
v 0.1 -0.65 -0.1
v 0.1 -0.55 0.4
v 0.1 -0.55 0.3
v 0.1 -0.55 -0.3
v 0.1 -0.55 -0.4
v 0.1 0.05 0.4
v 0.1 0.05 0.3
v 0.1 0.15 -0.3
v 0.1 0.15 -0.4
v 0.2 0.05 0.4
v 0.2 0.05 0.3
v 0.2 0.15 -0.3
v 0.2 0.15 -0.4
v 0.2 0.65 0.4
v 0.2 0.65 0.3
v 0.2 0.65 -0.3
v 0.2 0.65 -0.4
v 0 -0.55 0.4
v 0 0.15 0.4
v 0 0.55 0.4
v 0 0.65 0.4
v 0.1 -0.55 0.4
v 0.1 0.05 0.4
v 0.1 0.15 0.4
v 0.1 0.55 0.4
v 0.2 0.05 0.4
v 0.2 0.65 0.4
v -0.1 -0.55 0.3
v -0.1 0.65 0.3
v 0 -0.55 0.3
v 0 0.15 0.3
v 0 0.55 0.3
v 0 0.65 0.3
v -0.2 -0.35 0.2
v -0.2 0.75 0.2
v -0.1 -0.75 0.2
v -0.1 -0.55 0.2
v -0.1 -0.35 0.2
v -0.1 0.65 0.2
v -0.1 0.75 0.2
v 0 -0.75 0.2
v 0 -0.55 0.2
v -0.1 -0.45 0.1
v -0.1 -0.35 0.1
v 0 -0.75 0.1
v 0 -0.65 0.1
v 0 -0.45 0.1
v 0 -0.35 0.1
v 0.1 -0.75 0.1
v 0.1 -0.65 0.1
v -0.2 -0.35 -0.1
v -0.2 0.75 -0.1
v -0.1 -0.35 -0.1
v -0.1 0.65 -0.1
v -0.1 0.75 -0.1
v -0.1 -0.45 -0.2
v -0.1 -0.35 -0.2
v 0 -0.45 -0.2
v 0 -0.35 -0.2
v 0 -0.55 -0.3
v 0 0.25 -0.3
v 0 0.55 -0.3
v 0 0.65 -0.3
v 0.1 -0.55 -0.3
v 0.1 0.15 -0.3
v 0.1 0.25 -0.3
v 0.1 0.55 -0.3
v 0.2 0.15 -0.3
v 0.2 0.65 -0.3
v 0 -0.55 0.3
v 0 0.15 0.3
v 0 0.55 0.3
v 0 0.65 0.3
v 0.1 -0.55 0.3
v 0.1 0.05 0.3
v 0.1 0.15 0.3
v 0.1 0.55 0.3
v 0.2 0.05 0.3
v 0.2 0.65 0.3
v -0.1 -0.45 0.2
v -0.1 -0.35 0.2
v 0 -0.45 0.2
v 0 -0.35 0.2
v -0.2 -0.35 0.1
v -0.2 0.75 0.1
v -0.1 -0.35 0.1
v -0.1 0.65 0.1
v -0.1 0.75 0.1
v -0.1 -0.45 -0.1
v -0.1 -0.35 -0.1
v 0 -0.75 -0.1
v 0 -0.65 -0.1
v 0 -0.45 -0.1
v 0 -0.35 -0.1
v 0.1 -0.75 -0.1
v 0.1 -0.65 -0.1
v -0.2 -0.35 -0.2
v -0.2 0.75 -0.2
v -0.1 -0.75 -0.2
v -0.1 -0.55 -0.2
v -0.1 -0.35 -0.2
v -0.1 0.65 -0.2
v -0.1 0.75 -0.2
v 0 -0.75 -0.2
v 0 -0.55 -0.2
v -0.1 -0.55 -0.3
v -0.1 0.65 -0.3
v 0 -0.55 -0.3
v 0 0.25 -0.3
v 0 0.55 -0.3
v 0 0.65 -0.3
v 0 -0.55 -0.4
v 0 0.25 -0.4
v 0 0.55 -0.4
v 0 0.65 -0.4
v 0.1 -0.55 -0.4
v 0.1 0.15 -0.4
v 0.1 0.25 -0.4
v 0.1 0.55 -0.4
v 0.2 0.15 -0.4
v 0.2 0.65 -0.4
v -0.1 -0.75 0.2
v 0 -0.75 0.2
v 0 -0.75 0.1
v 0.1 -0.75 0.1
v 0 -0.75 -0.1
v 0.1 -0.75 -0.1
v -0.1 -0.75 -0.2
v 0 -0.75 -0.2
v 0 -0.55 0.4
v 0.1 -0.55 0.4
v -0.1 -0.55 0.3
v 0 -0.55 0.3
v 0.1 -0.55 0.3
v -0.1 -0.55 0.2
v 0 -0.55 0.2
v -0.1 -0.55 -0.2
v 0 -0.55 -0.2
v -0.1 -0.55 -0.3
v 0 -0.55 -0.3
v 0.1 -0.55 -0.3
v 0 -0.55 -0.4
v 0.1 -0.55 -0.4
v -0.2 -0.35 0.2
v -0.1 -0.35 0.2
v 0 -0.35 0.2
v -0.2 -0.35 0.1
v -0.1 -0.35 0.1
v 0 -0.35 0.1
v -0.2 -0.35 -0.1
v -0.1 -0.35 -0.1
v 0 -0.35 -0.1
v -0.2 -0.35 -0.2
v -0.1 -0.35 -0.2
v 0 -0.35 -0.2
v 0.1 0.05 0.4
v 0.2 0.05 0.4
v 0.1 0.05 0.3
v 0.2 0.05 0.3
v 0.1 0.15 -0.3
v 0.2 0.15 -0.3
v 0.1 0.15 -0.4
v 0.2 0.15 -0.4
v 0 0.55 0.4
v 0.1 0.55 0.4
v 0 0.55 0.3
v 0.1 0.55 0.3
v 0 0.55 -0.3
v 0.1 0.55 -0.3
v 0 0.55 -0.4
v 0.1 0.55 -0.4
v 0 -0.65 0.1
v 0.1 -0.65 0.1
v 0 -0.65 -0.1
v 0.1 -0.65 -0.1
v -0.1 -0.45 0.2
v 0 -0.45 0.2
v -0.1 -0.45 0.1
v 0 -0.45 0.1
v -0.1 -0.45 -0.1
v 0 -0.45 -0.1
v -0.1 -0.45 -0.2
v 0 -0.45 -0.2
v 0 0.15 0.4
v 0.1 0.15 0.4
v 0 0.15 0.3
v 0.1 0.15 0.3
v 0 0.25 -0.3
v 0.1 0.25 -0.3
v 0 0.25 -0.4
v 0.1 0.25 -0.4
v 0 0.65 0.4
v 0.2 0.65 0.4
v -0.1 0.65 0.3
v 0 0.65 0.3
v 0.2 0.65 0.3
v -0.1 0.65 0.2
v -0.1 0.65 0.1
v -0.1 0.65 -0.1
v -0.1 0.65 -0.2
v -0.1 0.65 -0.3
v 0 0.65 -0.3
v 0.2 0.65 -0.3
v 0 0.65 -0.4
v 0.2 0.65 -0.4
v -0.2 0.75 0.2
v -0.1 0.75 0.2
v -0.2 0.75 0.1
v -0.1 0.75 0.1
v -0.2 0.75 -0.1
v -0.1 0.75 -0.1
v -0.2 0.75 -0.2
v -0.1 0.75 -0.2

# faces
f 5/2/1 2/2/1 1/2/1
f 6/2/1 2/2/1 5/2/1
f 7/2/1 4/2/1 3/2/1
f 8/2/1 4/2/1 7/2/1
f 12/1/1 10/1/1 9/1/1
f 13/1/1 10/1/1 12/1/1
f 15/1/1 12/1/1 11/1/1
f 15/1/1 14/1/1 13/1/1
f 15/1/1 13/1/1 12/1/1
f 16/1/1 14/1/1 15/1/1
f 17/1/1 14/1/1 16/1/1
f 18/1/1 14/1/1 17/1/1
f 19/1/1 15/1/1 11/1/1
f 20/1/1 17/1/1 16/1/1
f 21/1/1 17/1/1 20/1/1
f 22/1/1 14/1/1 18/1/1
f 23/1/1 19/1/1 11/1/1
f 24/1/1 19/1/1 23/1/1
f 25/1/1 21/1/1 20/1/1
f 26/1/1 21/1/1 25/1/1
f 27/1/1 14/1/1 22/1/1
f 28/1/1 14/1/1 27/1/1
f 33/1/1 30/1/1 29/1/1
f 34/1/1 30/1/1 33/1/1
f 35/1/1 32/1/1 31/1/1
f 36/1/1 32/1/1 35/1/1
f 41/1/1 38/1/1 37/1/1
f 42/1/1 38/1/1 41/1/1
f 43/1/1 40/1/1 39/1/1
f 44/1/1 40/1/1 43/1/1
f 49/1/1 46/1/1 45/1/1
f 50/1/1 46/1/1 49/1/1
f 51/1/1 48/1/1 47/1/1
f 52/1/1 48/1/1 51/1/1
f 53/2/2 54/2/2 57/2/2
f 57/2/2 54/2/2 58/2/2
f 55/2/2 56/2/2 59/2/2
f 59/2/2 56/2/2 60/2/2
f 61/1/2 62/1/2 65/1/2
f 63/1/2 64/1/2 66/1/2
f 61/1/2 65/1/2 68/1/2
f 65/1/2 66/1/2 68/1/2
f 66/1/2 64/1/2 69/1/2
f 68/1/2 66/1/2 69/1/2
f 67/1/2 68/1/2 71/1/2
f 69/1/2 70/1/2 71/1/2
f 68/1/2 69/1/2 71/1/2
f 71/1/2 70/1/2 72/1/2
f 72/1/2 70/1/2 73/1/2
f 73/1/2 70/1/2 74/1/2
f 67/1/2 71/1/2 75/1/2
f 72/1/2 73/1/2 76/1/2
f 76/1/2 73/1/2 77/1/2
f 74/1/2 70/1/2 78/1/2
f 76/1/2 77/1/2 79/1/2
f 77/1/2 78/1/2 79/1/2
f 67/1/2 75/1/2 79/1/2
f 75/1/2 76/1/2 79/1/2
f 78/1/2 70/1/2 80/1/2
f 79/1/2 78/1/2 80/1/2
f 79/1/2 80/1/2 81/1/2
f 81/1/2 80/1/2 82/1/2
f 81/1/2 82/1/2 83/1/2
f 83/1/2 82/1/2 84/1/2
f 85/1/2 86/1/2 87/1/2
f 87/1/2 86/1/2 88/1/2
f 89/1/2 90/1/2 93/1/2
f 93/1/2 90/1/2 94/1/2
f 91/1/2 92/1/2 95/1/2
f 95/1/2 92/1/2 96/1/2
f 97/1/2 98/1/2 101/1/2
f 101/1/2 98/1/2 102/1/2
f 99/1/2 100/1/2 103/1/2
f 103/1/2 100/1/2 104/1/2
f 109/1/3 106/1/3 105/1/3
f 110/1/3 106/1/3 109/1/3
f 111/1/3 106/1/3 110/1/3
f 112/1/3 108/1/3 107/1/3
f 113/1/3 111/1/3 110/1/3
f 113/1/3 112/1/3 111/1/3
f 114/1/3 108/1/3 112/1/3
f 114/1/3 112/1/3 113/1/3
f 117/1/3 116/1/3 115/1/3
f 118/1/3 116/1/3 117/1/3
f 119/1/3 116/1/3 118/1/3
f 120/1/3 116/1/3 119/1/3
f 125/2/3 122/2/3 121/2/3
f 126/2/3 122/2/3 125/2/3
f 127/2/3 122/2/3 126/2/3
f 128/1/3 124/1/3 123/1/3
f 129/1/3 124/1/3 128/1/3
f 134/1/3 131/1/3 130/1/3
f 135/1/3 131/1/3 134/1/3
f 136/1/3 133/1/3 132/1/3
f 137/1/3 133/1/3 136/1/3
f 140/2/3 139/2/3 138/2/3
f 141/2/3 139/2/3 140/2/3
f 142/2/3 139/2/3 141/2/3
f 145/1/3 144/1/3 143/1/3
f 146/1/3 144/1/3 145/1/3
f 151/1/3 148/1/3 147/1/3
f 152/1/3 148/1/3 151/1/3
f 153/1/3 148/1/3 152/1/3
f 154/1/3 150/1/3 149/1/3
f 155/1/3 153/1/3 152/1/3
f 155/1/3 154/1/3 153/1/3
f 156/1/3 150/1/3 154/1/3
f 156/1/3 154/1/3 155/1/3
f 157/1/4 158/1/4 161/1/4
f 161/1/4 158/1/4 162/1/4
f 162/1/4 158/1/4 163/1/4
f 159/1/4 160/1/4 164/1/4
f 162/1/4 163/1/4 165/1/4
f 163/1/4 164/1/4 165/1/4
f 164/1/4 160/1/4 166/1/4
f 165/1/4 164/1/4 166/1/4
f 167/1/4 168/1/4 169/1/4
f 169/1/4 168/1/4 170/1/4
f 171/2/4 172/2/4 173/2/4
f 173/2/4 172/2/4 174/2/4
f 174/2/4 172/2/4 175/2/4
f 176/1/4 177/1/4 180/1/4
f 180/1/4 177/1/4 181/1/4
f 178/1/4 179/1/4 182/1/4
f 182/1/4 179/1/4 183/1/4
f 184/2/4 185/2/4 188/2/4
f 188/2/4 185/2/4 189/2/4
f 189/2/4 185/2/4 190/2/4
f 186/1/4 187/1/4 191/1/4
f 191/1/4 187/1/4 192/1/4
f 193/1/4 194/1/4 195/1/4
f 195/1/4 194/1/4 196/1/4
f 196/1/4 194/1/4 197/1/4
f 197/1/4 194/1/4 198/1/4
f 199/1/4 200/1/4 203/1/4
f 203/1/4 200/1/4 204/1/4
f 204/1/4 200/1/4 205/1/4
f 201/1/4 202/1/4 206/1/4
f 204/1/4 205/1/4 207/1/4
f 205/1/4 206/1/4 207/1/4
f 206/1/4 202/1/4 208/1/4
f 207/1/4 206/1/4 208/1/4
f 211/1/5 210/1/5 209/1/5
f 213/1/5 211/1/5 209/1/5
f 213/1/5 212/1/5 211/1/5
f 214/1/5 212/1/5 213/1/5
f 215/1/5 213/1/5 209/1/5
f 216/1/5 213/1/5 215/1/5
f 220/1/5 218/1/5 217/1/5
f 221/1/5 218/1/5 220/1/5
f 222/1/5 220/1/5 219/1/5
f 223/1/5 220/1/5 222/1/5
f 226/1/5 225/1/5 224/1/5
f 227/1/5 225/1/5 226/1/5
f 229/1/5 228/1/5 227/1/5
f 230/1/5 228/1/5 229/1/5
f 234/2/5 232/2/5 231/2/5
f 235/1/5 233/1/5 232/1/5
f 235/2/5 232/2/5 234/2/5
f 236/1/5 233/1/5 235/1/5
f 240/2/5 238/2/5 237/2/5
f 241/1/5 239/1/5 238/1/5
f 241/2/5 238/2/5 240/2/5
f 242/1/5 239/1/5 241/1/5
f 245/1/5 244/1/5 243/1/5
f 246/1/5 244/1/5 245/1/5
f 249/1/5 248/1/5 247/1/5
f 250/1/5 248/1/5 249/1/5
f 253/1/5 252/1/5 251/1/5
f 254/1/5 252/1/5 253/1/5
f 257/1/5 256/1/5 255/1/5
f 258/1/5 256/1/5 257/1/5
f 259/1/6 260/1/6 261/1/6
f 261/1/6 260/1/6 262/1/6
f 263/1/6 264/1/6 265/1/6
f 265/1/6 264/1/6 266/1/6
f 267/1/6 268/1/6 269/1/6
f 269/1/6 268/1/6 270/1/6
f 271/1/6 272/1/6 273/1/6
f 273/1/6 272/1/6 274/1/6
f 275/1/6 276/1/6 277/1/6
f 277/1/6 276/1/6 278/1/6
f 279/1/6 280/1/6 282/1/6
f 282/1/6 280/1/6 283/1/6
f 281/1/6 282/1/6 284/1/6
f 284/1/6 282/1/6 285/1/6
f 285/1/6 282/1/6 286/1/6
f 286/1/6 282/1/6 287/1/6
f 287/1/6 282/1/6 288/1/6
f 288/1/6 282/1/6 289/1/6
f 289/1/6 290/1/6 291/1/6
f 291/1/6 290/1/6 292/1/6
f 293/2/6 294/2/6 295/2/6
f 295/2/6 294/2/6 296/2/6
f 297/2/6 298/2/6 299/2/6
f 299/2/6 298/2/6 300/2/6
