# MagicaVoxel @ Ephtracy

# group
o 

# material
mtllib Arm-30.mtl
usemtl palette

# normals
vn -1 0 0
vn 1 0 0
vn 0 0 1
vn 0 0 -1
vn 0 -1 0
vn 0 1 0

# texcoords
vt 0.712891 0.5
vt 0.775391 0.5
vt 0.783203 0.5
vt 0.798828 0.5
vt 0.802734 0.5
vt 0.931641 0.5

# verts
v -0.3 -0.55 0.05
v -0.3 -0.55 -0.15
v -0.3 -0.45 0.05
v -0.3 -0.45 -0.15
v -0.3 -0.35 0.05
v -0.3 -0.35 -0.15
v -0.3 0.55 0.05
v -0.3 0.55 -0.15
v -0.2 -0.45 0.15
v -0.2 -0.45 0.05
v -0.2 -0.45 -0.15
v -0.2 -0.45 -0.25
v -0.2 -0.35 0.05
v -0.2 -0.35 -0.15
v -0.2 0.55 0.15
v -0.2 0.55 0.05
v -0.2 0.55 -0.15
v -0.2 0.55 -0.25
v -0.1 -0.25 0.25
v -0.1 -0.25 0.15
v -0.1 0.25 0.25
v -0.1 0.25 0.15
v -0.1 -0.55 0.05
v -0.1 -0.55 -0.15
v -0.1 -0.45 0.05
v -0.1 -0.45 -0.15
v -0.1 0.35 0.05
v -0.1 0.35 -0.05
v -0.1 0.45 0.05
v -0.1 0.45 -0.05
v 0 -0.45 0.15
v 0 -0.45 -0.25
v 0 -0.35 0.15
v 0 -0.35 -0.25
v 0 -0.25 0.25
v 0 -0.25 0.15
v 0 -0.15 0.15
v 0 -0.05 0.15
v 0 0.05 0.15
v 0 0.15 0.15
v 0 0.25 0.25
v 0 0.25 0.15
v 0 0.35 0.15
v 0 0.35 0.05
v 0 0.35 -0.15
v 0 0.35 -0.25
v 0 0.45 0.05
v 0 0.45 -0.05
v 0 0.45 -0.15
v 0 0.55 0.15
v 0 0.55 -0.25
v 0.1 -0.35 0.15
v 0.1 -0.35 -0.25
v 0.1 -0.25 0.15
v 0.1 -0.25 0.05
v 0.1 -0.25 -0.05
v 0.1 -0.25 -0.15
v 0.1 -0.15 0.15
v 0.1 -0.15 0.05
v 0.1 -0.05 0.15
v 0.1 -0.05 0.05
v 0.1 0.05 0.15
v 0.1 0.05 0.05
v 0.1 0.15 0.15
v 0.1 0.15 0.05
v 0.1 0.25 0.15
v 0.1 0.25 0.05
v 0.1 0.25 -0.05
v 0.1 0.25 -0.15
v 0.1 0.35 0.15
v 0.1 0.35 -0.05
v 0.1 0.35 -0.15
v 0.1 0.35 -0.25
v 0.2 0.25 -0.05
v 0.2 0.25 -0.15
v 0.2 0.45 -0.05
v 0.2 0.45 -0.15
v 0.3 -0.25 -0.05
v 0.3 -0.25 -0.15
v 0.3 0.25 -0.05
v 0.3 0.25 -0.15
v -0.1 -0.25 0.25
v -0.1 0.25 0.25
v 0 -0.25 0.25
v 0 0.25 0.25
v -0.2 -0.45 0.15
v -0.2 0.55 0.15
v -0.1 -0.25 0.15
v -0.1 0.25 0.15
v 0 -0.45 0.15
v 0 -0.35 0.15
v 0 -0.25 0.15
v 0 -0.15 0.15
v 0 -0.05 0.15
v 0 0.05 0.15
v 0 0.15 0.15
v 0 0.25 0.15
v 0 0.35 0.15
v 0 0.55 0.15
v 0.1 -0.35 0.15
v 0.1 -0.25 0.15
v 0.1 -0.15 0.15
v 0.1 -0.05 0.15
v 0.1 0.05 0.15
v 0.1 0.15 0.15
v 0.1 0.25 0.15
v 0.1 0.35 0.15
v -0.3 -0.55 0.05
v -0.3 -0.45 0.05
v -0.3 -0.35 0.05
v -0.3 0.55 0.05
v -0.2 -0.45 0.05
v -0.2 -0.35 0.05
v -0.2 0.55 0.05
v -0.1 -0.55 0.05
v -0.1 -0.45 0.05
v -0.1 0.35 -0.05
v -0.1 0.45 -0.05
v 0 0.45 -0.05
v 0.1 -0.25 -0.05
v 0.1 0.25 -0.05
v 0.1 0.35 -0.05
v 0.2 0.25 -0.05
v 0.2 0.45 -0.05
v 0.3 -0.25 -0.05
v 0.3 0.25 -0.05
v -0.1 0.35 0.05
v -0.1 0.45 0.05
v 0 0.35 0.05
v 0 0.45 0.05
v -0.3 -0.55 -0.15
v -0.3 -0.45 -0.15
v -0.3 -0.35 -0.15
v -0.3 0.55 -0.15
v -0.2 -0.45 -0.15
v -0.2 -0.35 -0.15
v -0.2 0.55 -0.15
v -0.1 -0.55 -0.15
v -0.1 -0.45 -0.15
v 0 0.35 -0.15
v 0 0.45 -0.15
v 0.1 -0.25 -0.15
v 0.1 0.25 -0.15
v 0.1 0.35 -0.15
v 0.2 0.25 -0.15
v 0.2 0.45 -0.15
v 0.3 -0.25 -0.15
v 0.3 0.25 -0.15
v -0.2 -0.45 -0.25
v -0.2 0.55 -0.25
v 0 -0.45 -0.25
v 0 -0.35 -0.25
v 0 0.35 -0.25
v 0 0.55 -0.25
v 0.1 -0.35 -0.25
v 0.1 0.35 -0.25
v -0.3 -0.55 0.05
v -0.1 -0.55 0.05
v -0.3 -0.55 -0.15
v -0.1 -0.55 -0.15
v -0.2 -0.45 0.15
v 0 -0.45 0.15
v -0.2 -0.45 0.05
v -0.1 -0.45 0.05
v -0.2 -0.45 -0.15
v -0.1 -0.45 -0.15
v -0.2 -0.45 -0.25
v 0 -0.45 -0.25
v 0 -0.35 0.15
v 0.1 -0.35 0.15
v -0.3 -0.35 0.05
v -0.2 -0.35 0.05
v -0.3 -0.35 -0.15
v -0.2 -0.35 -0.15
v 0 -0.35 -0.25
v 0.1 -0.35 -0.25
v -0.1 -0.25 0.25
v 0 -0.25 0.25
v -0.1 -0.25 0.15
v 0 -0.25 0.15
v 0.1 -0.25 -0.05
v 0.3 -0.25 -0.05
v 0.1 -0.25 -0.15
v 0.3 -0.25 -0.15
v -0.1 0.45 0.05
v 0 0.45 0.05
v -0.1 0.45 -0.05
v 0 0.45 -0.05
v -0.3 -0.45 0.05
v -0.2 -0.45 0.05
v -0.3 -0.45 -0.15
v -0.2 -0.45 -0.15
v -0.1 0.25 0.25
v 0 0.25 0.25
v -0.1 0.25 0.15
v 0 0.25 0.15
v 0.2 0.25 -0.05
v 0.3 0.25 -0.05
v 0.2 0.25 -0.15
v 0.3 0.25 -0.15
v 0 0.35 0.15
v 0.1 0.35 0.15
v -0.1 0.35 0.05
v 0 0.35 0.05
v -0.1 0.35 -0.05
v 0.1 0.35 -0.05
v 0 0.35 -0.15
v 0.1 0.35 -0.15
v 0 0.35 -0.25
v 0.1 0.35 -0.25
v 0 0.45 -0.05
v 0.2 0.45 -0.05
v 0 0.45 -0.15
v 0.2 0.45 -0.15
v -0.2 0.55 0.15
v 0 0.55 0.15
v -0.3 0.55 0.05
v -0.2 0.55 0.05
v -0.1 0.55 0.05
v -0.3 0.55 -0.15
v -0.2 0.55 -0.15
v -0.1 0.55 -0.15
v -0.2 0.55 -0.25
v 0 0.55 -0.25

# faces
f 3/3/1 2/3/1 1/3/1
f 4/3/1 2/3/1 3/3/1
f 7/3/1 6/3/1 5/3/1
f 8/3/1 6/3/1 7/3/1
f 13/3/1 10/3/1 9/3/1
f 13/3/1 12/3/1 11/3/1
f 13/3/1 11/3/1 10/3/1
f 14/3/1 12/3/1 13/3/1
f 15/3/1 13/3/1 9/3/1
f 16/3/1 13/3/1 15/3/1
f 17/3/1 12/3/1 14/3/1
f 18/3/1 12/3/1 17/3/1
f 21/3/1 20/3/1 19/3/1
f 22/3/1 20/3/1 21/3/1
f 23/3/2 24/3/2 25/3/2
f 25/3/2 24/3/2 26/3/2
f 27/3/2 28/3/2 29/3/2
f 29/3/2 28/3/2 30/3/2
f 31/3/2 32/3/2 33/3/2
f 33/3/2 32/3/2 34/3/2
f 35/3/2 36/3/2 37/3/2
f 35/3/2 37/3/2 38/3/2
f 35/3/2 38/3/2 39/3/2
f 35/3/2 39/3/2 40/3/2
f 35/3/2 40/3/2 41/3/2
f 41/3/2 40/3/2 42/3/2
f 43/3/2 44/3/2 47/3/2
f 45/3/2 46/3/2 49/3/2
f 47/3/2 48/3/2 50/3/2
f 48/3/2 49/3/2 50/3/2
f 43/3/2 47/3/2 50/3/2
f 49/3/2 46/3/2 51/3/2
f 50/3/2 49/3/2 51/3/2
f 52/3/2 53/3/2 54/3/2
f 54/3/2 53/3/2 55/3/2
f 55/3/2 53/3/2 56/3/2
f 56/3/2 53/3/2 57/3/2
f 54/2/2 55/2/2 58/2/2
f 55/3/2 56/3/2 59/3/2
f 58/2/2 55/2/2 59/2/2
f 58/3/2 59/3/2 60/3/2
f 59/3/2 56/3/2 61/3/2
f 60/3/2 59/3/2 61/3/2
f 60/2/2 61/2/2 62/2/2
f 61/3/2 56/3/2 63/3/2
f 62/2/2 61/2/2 63/2/2
f 62/3/2 63/3/2 64/3/2
f 63/3/2 56/3/2 65/3/2
f 64/3/2 63/3/2 65/3/2
f 64/2/2 65/2/2 66/2/2
f 65/3/2 56/3/2 67/3/2
f 66/2/2 65/2/2 67/2/2
f 67/3/2 56/3/2 68/3/2
f 57/3/2 53/3/2 69/3/2
f 67/3/2 68/3/2 70/3/2
f 66/3/2 67/3/2 70/3/2
f 70/3/2 68/3/2 71/3/2
f 69/3/2 53/3/2 72/3/2
f 72/3/2 53/3/2 73/3/2
f 74/4/2 75/4/2 76/4/2
f 76/4/2 75/4/2 77/4/2
f 78/5/2 79/5/2 80/5/2
f 80/5/2 79/5/2 81/5/2
f 84/3/3 83/3/3 82/3/3
f 85/3/3 83/3/3 84/3/3
f 88/3/3 87/3/3 86/3/3
f 89/3/3 87/3/3 88/3/3
f 90/3/3 88/3/3 86/3/3
f 91/3/3 88/3/3 90/3/3
f 92/3/3 88/3/3 91/3/3
f 97/3/3 87/3/3 89/3/3
f 98/3/3 87/3/3 97/3/3
f 99/3/3 87/3/3 98/3/3
f 100/3/3 92/3/3 91/3/3
f 101/2/3 93/2/3 92/2/3
f 101/3/3 92/3/3 100/3/3
f 102/3/3 94/3/3 93/3/3
f 102/2/3 93/2/3 101/2/3
f 103/2/3 95/2/3 94/2/3
f 103/3/3 94/3/3 102/3/3
f 104/3/3 96/3/3 95/3/3
f 104/2/3 95/2/3 103/2/3
f 105/2/3 97/2/3 96/2/3
f 105/3/3 96/3/3 104/3/3
f 106/3/3 98/3/3 97/3/3
f 106/2/3 97/2/3 105/2/3
f 107/3/3 98/3/3 106/3/3
f 112/3/3 109/3/3 108/3/3
f 113/3/3 111/3/3 110/3/3
f 114/3/3 111/3/3 113/3/3
f 115/3/3 112/3/3 108/3/3
f 116/3/3 112/3/3 115/3/3
f 119/4/3 118/4/3 117/4/3
f 122/4/3 119/4/3 117/4/3
f 123/5/3 121/5/3 120/5/3
f 123/4/3 122/4/3 121/4/3
f 124/4/3 119/4/3 122/4/3
f 124/4/3 122/4/3 123/4/3
f 125/5/3 123/5/3 120/5/3
f 126/5/3 123/5/3 125/5/3
f 127/3/4 128/3/4 129/3/4
f 129/3/4 128/3/4 130/3/4
f 131/3/4 132/3/4 135/3/4
f 133/3/4 134/3/4 136/3/4
f 136/3/4 134/3/4 137/3/4
f 131/3/4 135/3/4 138/3/4
f 138/3/4 135/3/4 139/3/4
f 140/4/4 141/4/4 144/4/4
f 142/5/4 143/5/4 145/5/4
f 143/4/4 144/4/4 145/4/4
f 144/4/4 141/4/4 146/4/4
f 145/4/4 144/4/4 146/4/4
f 142/5/4 145/5/4 147/5/4
f 147/5/4 145/5/4 148/5/4
f 149/3/4 150/3/4 151/3/4
f 151/3/4 150/3/4 152/3/4
f 152/3/4 150/3/4 153/3/4
f 153/3/4 150/3/4 154/3/4
f 152/3/4 153/3/4 155/3/4
f 155/3/4 153/3/4 156/3/4
f 159/3/5 158/3/5 157/3/5
f 160/3/5 158/3/5 159/3/5
f 163/3/5 162/3/5 161/3/5
f 164/3/5 162/3/5 163/3/5
f 166/3/5 162/3/5 164/3/5
f 167/3/5 166/3/5 165/3/5
f 168/3/5 162/3/5 166/3/5
f 168/3/5 166/3/5 167/3/5
f 173/3/5 172/3/5 171/3/5
f 174/3/5 172/3/5 173/3/5
f 175/3/5 170/3/5 169/3/5
f 176/3/5 170/3/5 175/3/5
f 179/3/5 178/3/5 177/3/5
f 180/3/5 178/3/5 179/3/5
f 183/5/5 182/5/5 181/5/5
f 184/5/5 182/5/5 183/5/5
f 187/3/5 186/3/5 185/3/5
f 188/3/5 186/3/5 187/3/5
f 189/3/6 190/3/6 191/3/6
f 191/3/6 190/3/6 192/3/6
f 193/3/6 194/3/6 195/3/6
f 195/3/6 194/3/6 196/3/6
f 197/5/6 198/5/6 199/5/6
f 199/5/6 198/5/6 200/5/6
f 201/3/6 202/3/6 204/3/6
f 203/3/6 204/3/6 205/3/6
f 204/3/6 202/3/6 206/3/6
f 205/3/6 204/3/6 206/3/6
f 207/3/6 208/3/6 209/3/6
f 209/3/6 208/3/6 210/3/6
f 211/4/6 212/4/6 213/4/6
f 213/4/6 212/4/6 214/4/6
f 215/3/6 216/3/6 218/3/6
f 218/3/6 216/3/6 219/3/6
f 217/3/6 218/3/6 220/3/6
f 218/1/6 219/1/6 221/1/6
f 220/3/6 218/3/6 221/3/6
f 219/3/6 216/3/6 222/3/6
f 221/1/6 219/1/6 222/1/6
f 221/3/6 222/3/6 223/3/6
f 222/3/6 216/3/6 224/3/6
f 223/3/6 222/3/6 224/3/6
