# MagicaVoxel @ Ephtracy

# group
o 

# material
mtllib Arm-5.mtl
usemtl palette

# normals
vn -1 0 0
vn 1 0 0
vn 0 0 1
vn 0 0 -1
vn 0 -1 0
vn 0 1 0

# texcoords
vt 0.705078 0.5
vt 0.712891 0.5
vt 0.935547 0.5
vt 0.978516 0.5

# verts
v -0.25 -0.35 0.05
v -0.25 -0.35 -0.15
v -0.25 -0.05 0.05
v -0.25 -0.05 -0.15
v -0.25 0.05 0.05
v -0.25 0.05 -0.15
v -0.25 0.25 -0.15
v -0.25 0.25 -0.25
v -0.25 0.45 0.05
v -0.25 0.45 -0.25
v -0.15 -0.45 0.05
v -0.15 -0.45 -0.15
v -0.15 -0.35 0.25
v -0.15 -0.35 0.15
v -0.15 -0.35 0.05
v -0.15 -0.35 -0.15
v -0.15 -0.35 -0.25
v -0.15 -0.05 0.25
v -0.15 -0.05 0.15
v -0.15 -0.05 0.05
v -0.15 -0.05 -0.15
v -0.15 -0.05 -0.25
v -0.15 0.05 0.25
v -0.15 0.05 0.05
v -0.15 0.05 -0.15
v -0.15 0.05 -0.25
v -0.15 0.25 -0.15
v -0.15 0.25 -0.25
v -0.15 0.45 0.25
v -0.15 0.45 0.05
v -0.05 -0.35 0.15
v -0.05 -0.35 0.05
v -0.05 -0.05 0.25
v -0.05 -0.05 0.15
v -0.05 -0.05 0.05
v -0.05 0.05 0.25
v -0.05 0.05 0.05
v 0.05 0.05 0.25
v 0.05 0.05 0.15
v 0.05 0.15 0.25
v 0.05 0.15 0.15
v 0.15 0.35 -0.05
v 0.15 0.35 -0.15
v 0.15 0.45 -0.05
v 0.15 0.45 -0.15
v -0.05 0.05 0.25
v -0.05 0.05 0.15
v -0.05 0.15 0.25
v -0.05 0.15 0.15
v 0.05 -0.45 0.05
v 0.05 -0.45 -0.15
v 0.05 -0.35 0.05
v 0.05 -0.35 -0.15
v 0.05 -0.35 -0.25
v 0.05 -0.05 -0.15
v 0.05 -0.05 -0.25
v 0.05 0.05 -0.15
v 0.05 0.05 -0.25
v 0.05 0.15 0.25
v 0.05 0.15 0.15
v 0.05 0.25 0.25
v 0.05 0.25 0.15
v 0.05 0.25 -0.15
v 0.05 0.25 -0.25
v 0.05 0.35 0.05
v 0.05 0.35 -0.15
v 0.05 0.45 0.05
v 0.05 0.45 -0.15
v 0.15 -0.05 -0.05
v 0.15 -0.05 -0.15
v 0.15 0.05 0.05
v 0.15 0.05 -0.05
v 0.15 0.05 -0.15
v 0.15 0.15 0.15
v 0.15 0.15 0.05
v 0.15 0.25 0.15
v 0.15 0.25 0.05
v 0.15 0.25 -0.05
v 0.15 0.25 -0.15
v 0.15 0.25 -0.25
v 0.15 0.35 0.05
v 0.15 0.35 -0.05
v 0.15 0.45 -0.15
v 0.15 0.45 -0.25
v 0.25 -0.35 0.25
v 0.25 -0.35 -0.15
v 0.25 -0.05 -0.05
v 0.25 -0.05 -0.15
v 0.25 0.05 0.05
v 0.25 0.05 -0.05
v 0.25 0.05 -0.15
v 0.25 0.15 0.25
v 0.25 0.15 0.05
v 0.25 0.25 0.25
v 0.25 0.25 0.15
v 0.25 0.25 0.05
v 0.25 0.45 0.25
v 0.25 0.45 0.15
v 0.25 0.45 0.05
v 0.25 0.45 -0.05
v 0.25 0.45 -0.15
v -0.15 -0.35 0.25
v -0.15 -0.05 0.25
v -0.15 0.05 0.25
v -0.15 0.45 0.25
v -0.05 -0.05 0.25
v -0.05 0.05 0.25
v -0.05 0.15 0.25
v 0.05 -0.05 0.25
v 0.05 0.05 0.25
v 0.05 0.15 0.25
v 0.05 0.25 0.25
v 0.25 -0.35 0.25
v 0.25 0.15 0.25
v 0.25 0.25 0.25
v 0.25 0.45 0.25
v -0.05 0.05 0.15
v -0.05 0.15 0.15
v 0.05 0.05 0.15
v 0.05 0.15 0.15
v 0.05 0.25 0.15
v 0.15 0.15 0.15
v 0.15 0.25 0.15
v -0.25 -0.35 0.05
v -0.25 -0.05 0.05
v -0.25 0.05 0.05
v -0.25 0.45 0.05
v -0.15 -0.45 0.05
v -0.15 -0.35 0.05
v -0.15 -0.05 0.05
v -0.15 0.05 0.05
v -0.15 0.45 0.05
v -0.05 -0.35 0.05
v -0.05 -0.05 0.05
v -0.05 0.05 0.05
v 0.05 -0.45 0.05
v 0.05 -0.35 0.05
v 0.15 0.05 -0.05
v 0.15 0.25 -0.05
v 0.15 0.35 -0.05
v 0.15 0.45 -0.05
v 0.25 0.05 -0.05
v 0.25 0.45 -0.05
v 0.05 0.35 -0.15
v 0.05 0.45 -0.15
v 0.15 0.35 -0.15
v 0.15 0.45 -0.15
v -0.15 -0.35 0.15
v -0.15 -0.05 0.15
v -0.05 -0.35 0.15
v -0.05 -0.05 0.15
v 0.05 0.35 0.05
v 0.05 0.45 0.05
v 0.15 0.05 0.05
v 0.15 0.15 0.05
v 0.15 0.25 0.05
v 0.15 0.35 0.05
v 0.25 0.05 0.05
v 0.25 0.15 0.05
v 0.25 0.25 0.05
v 0.25 0.45 0.05
v 0.15 -0.05 -0.05
v 0.15 0.05 -0.05
v 0.25 -0.05 -0.05
v 0.25 0.05 -0.05
v -0.25 -0.35 -0.15
v -0.25 -0.05 -0.15
v -0.25 0.05 -0.15
v -0.25 0.25 -0.15
v -0.15 -0.45 -0.15
v -0.15 -0.35 -0.15
v -0.15 -0.05 -0.15
v -0.15 0.05 -0.15
v -0.15 0.25 -0.15
v 0.05 -0.45 -0.15
v 0.05 -0.35 -0.15
v 0.05 -0.05 -0.15
v 0.05 0.05 -0.15
v 0.05 0.25 -0.15
v 0.15 -0.05 -0.15
v 0.15 0.05 -0.15
v 0.15 0.25 -0.15
v 0.15 0.45 -0.15
v 0.25 -0.35 -0.15
v 0.25 -0.05 -0.15
v 0.25 0.05 -0.15
v 0.25 0.45 -0.15
v -0.25 0.25 -0.25
v -0.25 0.45 -0.25
v -0.15 -0.35 -0.25
v -0.15 -0.05 -0.25
v -0.15 0.05 -0.25
v -0.15 0.25 -0.25
v -0.15 0.45 -0.25
v 0.05 -0.35 -0.25
v 0.05 -0.05 -0.25
v 0.05 0.05 -0.25
v 0.05 0.25 -0.25
v 0.15 0.25 -0.25
v 0.15 0.45 -0.25
v -0.15 -0.45 0.05
v 0.05 -0.45 0.05
v -0.15 -0.45 -0.15
v 0.05 -0.45 -0.15
v -0.15 -0.35 0.25
v 0.25 -0.35 0.25
v -0.15 -0.35 0.15
v -0.05 -0.35 0.15
v 0.05 -0.35 0.15
v -0.25 -0.35 0.05
v -0.15 -0.35 0.05
v -0.05 -0.35 0.05
v 0.05 -0.35 0.05
v -0.25 -0.35 -0.15
v -0.15 -0.35 -0.15
v 0.05 -0.35 -0.15
v 0.25 -0.35 -0.15
v -0.15 -0.35 -0.25
v 0.05 -0.35 -0.25
v -0.15 0.05 0.25
v -0.05 0.05 0.25
v -0.25 0.05 0.05
v -0.15 0.05 0.05
v -0.05 0.05 0.05
v 0.15 0.05 -0.05
v 0.25 0.05 -0.05
v -0.25 0.05 -0.15
v -0.15 0.05 -0.15
v 0.05 0.05 -0.15
v 0.15 0.05 -0.15
v 0.25 0.05 -0.15
v -0.15 0.05 -0.25
v 0.05 0.05 -0.25
v -0.05 0.15 0.25
v 0.05 0.15 0.25
v -0.05 0.15 0.15
v 0.05 0.15 0.15
v 0.05 0.25 0.25
v 0.25 0.25 0.25
v 0.05 0.25 0.15
v 0.15 0.25 0.15
v 0.25 0.25 0.15
v 0.15 0.25 0.05
v 0.25 0.25 0.05
v -0.25 0.25 -0.15
v -0.15 0.25 -0.15
v 0.05 0.25 -0.15
v 0.15 0.25 -0.15
v -0.25 0.25 -0.25
v -0.15 0.25 -0.25
v 0.05 0.25 -0.25
v 0.15 0.25 -0.25
v -0.15 -0.05 0.25
v -0.05 -0.05 0.25
v -0.15 -0.05 0.15
v -0.05 -0.05 0.15
v -0.25 -0.05 0.05
v -0.15 -0.05 0.05
v 0.15 -0.05 -0.05
v 0.25 -0.05 -0.05
v -0.25 -0.05 -0.15
v -0.15 -0.05 -0.15
v 0.05 -0.05 -0.15
v 0.15 -0.05 -0.15
v 0.25 -0.05 -0.15
v -0.15 -0.05 -0.25
v 0.05 -0.05 -0.25
v -0.05 0.05 0.25
v 0.05 0.05 0.25
v -0.05 0.05 0.15
v 0.05 0.05 0.15
v 0.15 0.05 0.05
v 0.25 0.05 0.05
v 0.15 0.05 -0.05
v 0.25 0.05 -0.05
v 0.05 0.15 0.25
v 0.25 0.15 0.25
v 0.05 0.15 0.15
v 0.15 0.15 0.15
v 0.15 0.15 0.05
v 0.25 0.15 0.05
v 0.05 0.35 0.05
v 0.15 0.35 0.05
v 0.15 0.35 -0.05
v 0.05 0.35 -0.15
v 0.15 0.35 -0.15
v -0.15 0.45 0.25
v 0.25 0.45 0.25
v -0.05 0.45 0.15
v 0.25 0.45 0.15
v -0.25 0.45 0.05
v -0.15 0.45 0.05
v -0.05 0.45 0.05
v 0.05 0.45 0.05
v 0.25 0.45 0.05
v 0.15 0.45 -0.05
v 0.25 0.45 -0.05
v -0.05 0.45 -0.15
v 0.05 0.45 -0.15
v 0.15 0.45 -0.15
v 0.25 0.45 -0.15
v -0.25 0.45 -0.25
v -0.15 0.45 -0.25
v 0.15 0.45 -0.25

# faces
f 3/2/1 2/2/1 1/2/1
f 4/2/1 2/2/1 3/2/1
f 7/3/1 6/3/1 5/3/1
f 9/3/1 7/3/1 5/3/1
f 9/3/1 8/3/1 7/3/1
f 10/3/1 8/3/1 9/3/1
f 15/4/1 12/4/1 11/4/1
f 16/4/1 12/4/1 15/4/1
f 18/2/1 14/2/1 13/2/1
f 19/2/1 14/2/1 18/2/1
f 21/2/1 17/2/1 16/2/1
f 22/2/1 17/2/1 21/2/1
f 24/1/1 21/1/1 20/1/1
f 25/1/1 21/1/1 24/1/1
f 27/2/1 26/2/1 25/2/1
f 28/2/1 26/2/1 27/2/1
f 29/3/1 24/3/1 23/3/1
f 30/3/1 24/3/1 29/3/1
f 34/1/1 32/1/1 31/1/1
f 35/1/1 32/1/1 34/1/1
f 36/1/1 34/1/1 33/1/1
f 36/1/1 35/1/1 34/1/1
f 37/1/1 35/1/1 36/1/1
f 40/2/1 39/2/1 38/2/1
f 41/2/1 39/2/1 40/2/1
f 44/2/1 43/2/1 42/2/1
f 45/2/1 43/2/1 44/2/1
f 46/3/2 47/3/2 48/3/2
f 48/3/2 47/3/2 49/3/2
f 50/4/2 51/4/2 52/4/2
f 52/4/2 51/4/2 53/4/2
f 53/2/2 54/2/2 55/2/2
f 55/2/2 54/2/2 56/2/2
f 59/3/2 60/3/2 61/3/2
f 61/3/2 60/3/2 62/3/2
f 57/2/2 58/2/2 63/2/2
f 63/2/2 58/2/2 64/2/2
f 65/4/2 66/4/2 67/4/2
f 67/4/2 66/4/2 68/4/2
f 69/1/2 70/1/2 72/1/2
f 72/1/2 70/1/2 73/1/2
f 71/1/2 72/1/2 75/1/2
f 74/1/2 75/1/2 76/1/2
f 75/1/2 72/1/2 77/1/2
f 76/1/2 75/1/2 77/1/2
f 77/1/2 72/1/2 78/1/2
f 77/4/2 78/4/2 81/4/2
f 81/4/2 78/4/2 82/4/2
f 79/2/2 80/2/2 83/2/2
f 83/2/2 80/2/2 84/2/2
f 85/2/2 86/2/2 87/2/2
f 87/2/2 86/2/2 88/2/2
f 85/2/2 87/2/2 89/2/2
f 89/2/2 87/2/2 90/2/2
f 85/2/2 89/2/2 92/2/2
f 92/2/2 89/2/2 93/2/2
f 94/3/2 95/3/2 97/3/2
f 95/2/2 96/2/2 98/2/2
f 97/3/2 95/3/2 98/3/2
f 98/2/2 96/2/2 99/2/2
f 90/2/2 91/2/2 100/2/2
f 100/2/2 91/2/2 101/2/2
f 106/2/3 103/2/3 102/2/3
f 107/3/3 105/3/3 104/3/3
f 108/3/3 105/3/3 107/3/3
f 109/2/3 106/2/3 102/2/3
f 109/1/3 107/1/3 106/1/3
f 110/1/3 107/1/3 109/1/3
f 111/3/3 105/3/3 108/3/3
f 112/3/3 105/3/3 111/3/3
f 113/2/3 110/2/3 109/2/3
f 113/2/3 109/2/3 102/2/3
f 113/2/3 111/2/3 110/2/3
f 114/2/3 111/2/3 113/2/3
f 115/3/3 105/3/3 112/3/3
f 116/3/3 105/3/3 115/3/3
f 119/1/3 118/1/3 117/1/3
f 120/1/3 118/1/3 119/1/3
f 122/1/3 121/1/3 120/1/3
f 123/1/3 121/1/3 122/1/3
f 129/2/3 125/2/3 124/2/3
f 130/2/3 125/2/3 129/2/3
f 131/3/3 127/3/3 126/3/3
f 132/3/3 127/3/3 131/3/3
f 133/2/3 130/2/3 129/2/3
f 133/4/3 129/4/3 128/4/3
f 134/1/3 131/1/3 130/1/3
f 134/2/3 130/2/3 133/2/3
f 135/1/3 131/1/3 134/1/3
f 136/4/3 133/4/3 128/4/3
f 137/4/3 133/4/3 136/4/3
f 142/2/3 139/2/3 138/2/3
f 142/2/3 141/2/3 140/2/3
f 142/2/3 140/2/3 139/2/3
f 143/2/3 141/2/3 142/2/3
f 146/2/3 145/2/3 144/2/3
f 147/2/3 145/2/3 146/2/3
f 148/2/4 149/2/4 150/2/4
f 150/2/4 149/2/4 151/2/4
f 152/2/4 153/2/4 157/2/4
f 154/2/4 155/2/4 158/2/4
f 158/2/4 155/2/4 159/2/4
f 156/2/4 157/2/4 160/2/4
f 157/2/4 153/2/4 161/2/4
f 160/2/4 157/2/4 161/2/4
f 162/2/4 163/2/4 164/2/4
f 164/2/4 163/2/4 165/2/4
f 166/2/4 167/2/4 171/2/4
f 171/2/4 167/2/4 172/2/4
f 168/3/4 169/3/4 173/3/4
f 173/3/4 169/3/4 174/3/4
f 170/4/4 171/4/4 175/4/4
f 175/4/4 171/4/4 176/4/4
f 172/1/4 173/1/4 177/1/4
f 177/1/4 173/1/4 178/1/4
f 176/2/4 177/2/4 180/2/4
f 177/1/4 178/1/4 180/1/4
f 178/2/4 179/2/4 181/2/4
f 180/1/4 178/1/4 181/1/4
f 181/2/4 179/2/4 182/2/4
f 176/2/4 180/2/4 184/2/4
f 184/2/4 180/2/4 185/2/4
f 181/2/4 182/2/4 186/2/4
f 182/2/4 183/2/4 186/2/4
f 186/2/4 183/2/4 187/2/4
f 188/3/4 189/3/4 193/3/4
f 193/3/4 189/3/4 194/3/4
f 190/2/4 191/2/4 195/2/4
f 195/2/4 191/2/4 196/2/4
f 192/2/4 193/2/4 197/2/4
f 193/2/4 194/2/4 197/2/4
f 197/2/4 194/2/4 198/2/4
f 198/2/4 194/2/4 199/2/4
f 199/2/4 194/2/4 200/2/4
f 203/4/5 202/4/5 201/4/5
f 204/4/5 202/4/5 203/4/5
f 207/2/5 206/2/5 205/2/5
f 208/2/5 206/2/5 207/2/5
f 209/2/5 206/2/5 208/2/5
f 212/1/5 209/1/5 208/1/5
f 213/2/5 206/2/5 209/2/5
f 213/1/5 209/1/5 212/1/5
f 214/2/5 211/2/5 210/2/5
f 215/2/5 211/2/5 214/2/5
f 216/2/5 206/2/5 213/2/5
f 217/2/5 206/2/5 216/2/5
f 218/2/5 216/2/5 215/2/5
f 219/2/5 216/2/5 218/2/5
f 223/3/5 221/3/5 220/3/5
f 224/3/5 221/3/5 223/3/5
f 227/3/5 223/3/5 222/3/5
f 228/3/5 223/3/5 227/3/5
f 230/2/5 226/2/5 225/2/5
f 231/2/5 226/2/5 230/2/5
f 232/2/5 229/2/5 228/2/5
f 233/2/5 229/2/5 232/2/5
f 236/3/5 235/3/5 234/3/5
f 237/3/5 235/3/5 236/3/5
f 240/3/5 239/3/5 238/3/5
f 241/3/5 239/3/5 240/3/5
f 242/3/5 239/3/5 241/3/5
f 243/2/5 242/2/5 241/2/5
f 244/2/5 242/2/5 243/2/5
f 249/3/5 246/3/5 245/3/5
f 250/3/5 246/3/5 249/3/5
f 251/2/5 248/2/5 247/2/5
f 252/2/5 248/2/5 251/2/5
f 253/2/6 254/2/6 255/2/6
f 255/2/6 254/2/6 256/2/6
f 257/2/6 258/2/6 261/2/6
f 261/2/6 258/2/6 262/2/6
f 259/2/6 260/2/6 264/2/6
f 264/2/6 260/2/6 265/2/6
f 262/2/6 263/2/6 266/2/6
f 266/2/6 263/2/6 267/2/6
f 268/1/6 269/1/6 270/1/6
f 270/1/6 269/1/6 271/1/6
f 272/2/6 273/2/6 274/2/6
f 274/2/6 273/2/6 275/2/6
f 276/2/6 277/2/6 278/2/6
f 278/2/6 277/2/6 279/2/6
f 279/2/6 277/2/6 280/2/6
f 280/2/6 277/2/6 281/2/6
f 282/4/6 283/4/6 284/4/6
f 282/4/6 284/4/6 285/4/6
f 285/4/6 284/4/6 286/4/6
f 287/3/6 288/3/6 289/3/6
f 289/3/6 288/3/6 290/3/6
f 287/3/6 289/3/6 292/3/6
f 289/2/6 290/2/6 293/2/6
f 292/3/6 289/3/6 293/3/6
f 293/2/6 290/2/6 294/2/6
f 294/2/6 290/2/6 295/2/6
f 292/2/6 293/2/6 298/2/6
f 293/4/6 294/4/6 298/4/6
f 298/4/6 294/4/6 299/4/6
f 296/2/6 297/2/6 300/2/6
f 300/2/6 297/2/6 301/2/6
f 291/3/6 292/3/6 302/3/6
f 298/2/6 299/2/6 303/2/6
f 302/3/6 292/3/6 303/3/6
f 292/2/6 298/2/6 303/2/6
f 299/2/6 300/2/6 303/2/6
f 303/2/6 300/2/6 304/2/6
