# MagicaVoxel @ Ephtracy

# group
o 

# material
mtllib Arm-25.mtl
usemtl palette

# normals
vn -1 0 0
vn 1 0 0
vn 0 0 1
vn 0 0 -1
vn 0 -1 0
vn 0 1 0

# texcoords
vt 0.705078 0.5
vt 0.708984 0.5

# verts
v -0.35 0.4 0.25
v -0.35 0.4 0.15
v -0.35 0.4 0.05
v -0.35 0.4 -0.05
v -0.35 0.7 0.25
v -0.35 0.7 0.15
v -0.35 0.7 0.05
v -0.35 0.7 -0.05
v -0.25 -0.7 0.25
v -0.25 -0.7 0.05
v -0.25 -0.1 0.35
v -0.25 -0.1 0.25
v -0.25 -0.1 0.05
v -0.25 -0.1 -0.05
v -0.25 0 -0.05
v -0.25 0 -0.15
v -0.25 0.1 0.15
v -0.25 0.1 0.05
v -0.25 0.4 0.25
v -0.25 0.4 0.15
v -0.25 0.4 0.05
v -0.25 0.4 -0.05
v -0.25 0.5 -0.15
v -0.25 0.5 -0.35
v -0.25 0.6 0.35
v -0.25 0.6 0.25
v -0.25 0.6 0.15
v -0.25 0.6 0.05
v -0.25 0.6 -0.05
v -0.25 0.6 -0.35
v -0.15 0.2 0.15
v -0.15 0.2 0.05
v -0.15 0.3 0.15
v -0.15 0.3 0.05
v 0.05 0.3 0.15
v 0.05 0.3 0.05
v 0.05 0.4 0.15
v 0.05 0.4 0.05
v 0.25 0.5 0.15
v 0.25 0.5 0.05
v 0.25 0.6 0.15
v 0.25 0.6 0.05
v -0.15 0 0.35
v -0.15 0 0.25
v -0.15 0.5 0.35
v -0.15 0.5 0.25
v -0.15 0.5 0.15
v -0.15 0.5 0.05
v -0.15 0.6 0.15
v -0.15 0.6 0.05
v -0.05 -0.7 0.25
v -0.05 -0.7 0.05
v -0.05 -0.1 0.35
v -0.05 -0.1 0.25
v -0.05 -0.1 0.05
v -0.05 -0.1 -0.05
v -0.05 0 0.35
v -0.05 0 0.25
v -0.05 0 -0.05
v -0.05 0 -0.15
v -0.05 0.1 0.15
v -0.05 0.1 0.05
v -0.05 0.2 0.15
v -0.05 0.2 0.05
v -0.05 0.3 0.15
v -0.05 0.3 0.05
v -0.05 0.4 0.15
v -0.05 0.4 0.05
v -0.05 0.5 0.35
v -0.05 0.5 0.25
v -0.05 0.5 0.15
v -0.05 0.5 0.05
v -0.05 0.5 -0.05
v -0.05 0.5 -0.15
v -0.05 0.5 -0.35
v -0.05 0.6 0.35
v -0.05 0.6 0.25
v -0.05 0.6 0.15
v -0.05 0.6 -0.05
v -0.05 0.6 -0.35
v -0.05 0.7 0.25
v -0.05 0.7 0.15
v -0.05 0.7 0.05
v -0.05 0.7 -0.05
v 0.15 0.2 0.15
v 0.15 0.2 0.05
v 0.15 0.4 0.15
v 0.15 0.4 0.05
v 0.35 0.4 0.15
v 0.35 0.4 0.05
v 0.35 0.6 0.15
v 0.35 0.6 0.05
v -0.25 -0.1 0.35
v -0.25 0.6 0.35
v -0.15 0 0.35
v -0.15 0.5 0.35
v -0.05 -0.1 0.35
v -0.05 0 0.35
v -0.05 0.5 0.35
v -0.05 0.6 0.35
v -0.35 0.4 0.25
v -0.35 0.7 0.25
v -0.25 -0.7 0.25
v -0.25 -0.1 0.25
v -0.25 0.4 0.25
v -0.25 0.6 0.25
v -0.15 0 0.25
v -0.15 0.5 0.25
v -0.05 -0.7 0.25
v -0.05 -0.1 0.25
v -0.05 0 0.25
v -0.05 0.5 0.25
v -0.05 0.6 0.25
v -0.05 0.7 0.25
v -0.05 0.2 0.15
v -0.05 0.3 0.15
v -0.05 0.4 0.15
v -0.05 0.5 0.15
v 0.05 0.3 0.15
v 0.05 0.4 0.15
v 0.15 0.2 0.15
v 0.15 0.4 0.15
v 0.25 0.5 0.15
v 0.25 0.6 0.15
v 0.35 0.4 0.15
v 0.35 0.6 0.15
v -0.35 0.4 0.05
v -0.35 0.7 0.05
v -0.25 0.1 0.05
v -0.25 0.4 0.05
v -0.25 0.6 0.05
v -0.15 0.2 0.05
v -0.15 0.3 0.05
v -0.15 0.4 0.05
v -0.15 0.5 0.05
v -0.15 0.6 0.05
v -0.05 0.1 0.05
v -0.05 0.2 0.05
v -0.05 0.3 0.05
v -0.05 0.4 0.05
v -0.05 0.5 0.05
v -0.05 0.7 0.05
v -0.35 0.4 0.15
v -0.35 0.7 0.15
v -0.25 0.1 0.15
v -0.25 0.4 0.15
v -0.25 0.6 0.15
v -0.15 0.2 0.15
v -0.15 0.3 0.15
v -0.15 0.4 0.15
v -0.15 0.5 0.15
v -0.15 0.6 0.15
v -0.05 0.1 0.15
v -0.05 0.2 0.15
v -0.05 0.3 0.15
v -0.05 0.4 0.15
v -0.05 0.5 0.15
v -0.05 0.6 0.15
v -0.05 0.7 0.15
v -0.25 -0.7 0.05
v -0.25 -0.1 0.05
v -0.05 -0.7 0.05
v -0.05 -0.1 0.05
v -0.05 0.2 0.05
v -0.05 0.3 0.05
v -0.05 0.4 0.05
v -0.05 0.5 0.05
v 0.05 0.3 0.05
v 0.05 0.4 0.05
v 0.15 0.2 0.05
v 0.15 0.4 0.05
v 0.25 0.5 0.05
v 0.25 0.6 0.05
v 0.35 0.4 0.05
v 0.35 0.6 0.05
v -0.35 0.4 -0.05
v -0.35 0.7 -0.05
v -0.25 -0.1 -0.05
v -0.25 0 -0.05
v -0.25 0.4 -0.05
v -0.25 0.6 -0.05
v -0.05 -0.1 -0.05
v -0.05 0 -0.05
v -0.05 0.6 -0.05
v -0.05 0.7 -0.05
v -0.25 0 -0.15
v -0.25 0.5 -0.15
v -0.05 0 -0.15
v -0.05 0.5 -0.15
v -0.25 0.5 -0.35
v -0.25 0.6 -0.35
v -0.05 0.5 -0.35
v -0.05 0.6 -0.35
v -0.25 -0.7 0.25
v -0.05 -0.7 0.25
v -0.25 -0.7 0.05
v -0.05 -0.7 0.05
v -0.25 -0.1 0.35
v -0.05 -0.1 0.35
v -0.25 -0.1 0.25
v -0.05 -0.1 0.25
v -0.25 -0.1 0.05
v -0.05 -0.1 0.05
v -0.25 -0.1 -0.05
v -0.05 -0.1 -0.05
v -0.25 0 -0.05
v -0.05 0 -0.05
v -0.25 0 -0.15
v -0.05 0 -0.15
v -0.15 0.2 0.15
v -0.05 0.2 0.15
v 0.15 0.2 0.15
v -0.15 0.2 0.05
v -0.05 0.2 0.05
v 0.15 0.2 0.05
v -0.35 0.4 0.25
v -0.25 0.4 0.25
v -0.35 0.4 0.15
v -0.25 0.4 0.15
v -0.15 0.4 0.15
v -0.05 0.4 0.15
v 0.05 0.4 0.15
v 0.15 0.4 0.15
v 0.35 0.4 0.15
v -0.35 0.4 0.05
v -0.25 0.4 0.05
v -0.15 0.4 0.05
v -0.05 0.4 0.05
v 0.05 0.4 0.05
v 0.15 0.4 0.05
v 0.35 0.4 0.05
v -0.35 0.4 -0.05
v -0.25 0.4 -0.05
v -0.15 0.5 0.35
v -0.05 0.5 0.35
v -0.15 0.5 0.25
v -0.05 0.5 0.25
v -0.25 0.5 -0.15
v -0.05 0.5 -0.15
v -0.25 0.5 -0.35
v -0.05 0.5 -0.35
v -0.15 0 0.35
v -0.05 0 0.35
v -0.15 0 0.25
v -0.05 0 0.25
v -0.25 0.1 0.15
v -0.05 0.1 0.15
v -0.25 0.1 0.05
v -0.05 0.1 0.05
v -0.15 0.3 0.15
v -0.05 0.3 0.15
v 0.05 0.3 0.15
v -0.15 0.3 0.05
v -0.05 0.3 0.05
v 0.05 0.3 0.05
v -0.15 0.5 0.15
v -0.05 0.5 0.15
v 0.25 0.5 0.15
v -0.15 0.5 0.05
v -0.05 0.5 0.05
v 0.25 0.5 0.05
v -0.25 0.6 0.35
v -0.05 0.6 0.35
v -0.25 0.6 0.25
v -0.05 0.6 0.25
v -0.25 0.6 0.15
v -0.15 0.6 0.15
v 0.25 0.6 0.15
v 0.35 0.6 0.15
v -0.25 0.6 0.05
v -0.15 0.6 0.05
v 0.25 0.6 0.05
v 0.35 0.6 0.05
v -0.25 0.6 -0.05
v -0.05 0.6 -0.05
v -0.25 0.6 -0.35
v -0.05 0.6 -0.35
v -0.35 0.7 0.25
v -0.05 0.7 0.25
v -0.35 0.7 0.15
v -0.05 0.7 0.15
v -0.35 0.7 0.05
v -0.05 0.7 0.05
v -0.35 0.7 -0.05
v -0.05 0.7 -0.05

# faces
f 5/1/1 2/1/1 1/1/1
f 6/1/1 2/1/1 5/1/1
f 7/1/1 4/1/1 3/1/1
f 8/1/1 4/1/1 7/1/1
f 12/2/1 10/2/1 9/2/1
f 13/2/1 10/2/1 12/2/1
f 15/2/1 12/2/1 11/2/1
f 15/2/1 14/2/1 13/2/1
f 15/2/1 13/2/1 12/2/1
f 17/2/1 15/2/1 11/2/1
f 17/2/1 16/2/1 15/2/1
f 18/2/1 16/2/1 17/2/1
f 19/2/1 17/2/1 11/2/1
f 20/2/1 17/2/1 19/2/1
f 21/2/1 16/2/1 18/2/1
f 22/2/1 16/2/1 21/2/1
f 23/2/1 16/2/1 22/2/1
f 25/2/1 19/2/1 11/2/1
f 26/2/1 19/2/1 25/2/1
f 27/2/1 21/2/1 20/2/1
f 28/2/1 21/2/1 27/2/1
f 29/2/1 24/2/1 23/2/1
f 29/2/1 23/2/1 22/2/1
f 30/2/1 24/2/1 29/2/1
f 33/1/1 32/1/1 31/1/1
f 34/1/1 32/1/1 33/1/1
f 37/1/1 36/1/1 35/1/1
f 38/1/1 36/1/1 37/1/1
f 41/1/1 40/1/1 39/1/1
f 42/1/1 40/1/1 41/1/1
f 43/2/2 44/2/2 45/2/2
f 45/2/2 44/2/2 46/2/2
f 47/2/2 48/2/2 49/2/2
f 49/2/2 48/2/2 50/2/2
f 51/2/2 52/2/2 54/2/2
f 54/2/2 52/2/2 55/2/2
f 53/2/2 54/2/2 57/2/2
f 55/2/2 56/2/2 57/2/2
f 54/2/2 55/2/2 57/2/2
f 57/2/2 56/2/2 58/2/2
f 58/2/2 56/2/2 59/2/2
f 59/2/2 60/2/2 61/2/2
f 58/2/2 59/2/2 61/2/2
f 61/2/2 60/2/2 62/2/2
f 58/2/2 61/2/2 63/2/2
f 62/2/2 60/2/2 64/2/2
f 58/2/2 63/2/2 65/2/2
f 64/2/2 60/2/2 66/2/2
f 58/2/2 65/2/2 67/2/2
f 66/2/2 60/2/2 68/2/2
f 58/2/2 67/2/2 70/2/2
f 70/2/2 67/2/2 71/2/2
f 68/2/2 60/2/2 72/2/2
f 72/2/2 60/2/2 73/2/2
f 73/2/2 60/2/2 74/2/2
f 70/2/2 71/2/2 76/2/2
f 69/2/2 70/2/2 76/2/2
f 76/2/2 71/2/2 77/2/2
f 77/2/2 71/2/2 78/2/2
f 74/2/2 75/2/2 79/2/2
f 73/2/2 74/2/2 79/2/2
f 72/1/2 73/1/2 79/1/2
f 79/2/2 75/2/2 80/2/2
f 77/1/2 78/1/2 81/1/2
f 81/1/2 78/1/2 82/1/2
f 72/1/2 79/1/2 83/1/2
f 83/1/2 79/1/2 84/1/2
f 85/1/2 86/1/2 87/1/2
f 87/1/2 86/1/2 88/1/2
f 89/1/2 90/1/2 91/1/2
f 91/1/2 90/1/2 92/1/2
f 95/2/3 94/2/3 93/2/3
f 96/2/3 94/2/3 95/2/3
f 97/2/3 95/2/3 93/2/3
f 98/2/3 95/2/3 97/2/3
f 99/2/3 94/2/3 96/2/3
f 100/2/3 94/2/3 99/2/3
f 105/1/3 102/1/3 101/1/3
f 106/1/3 102/1/3 105/1/3
f 109/2/3 104/2/3 103/2/3
f 110/2/3 104/2/3 109/2/3
f 111/2/3 108/2/3 107/2/3
f 112/2/3 108/2/3 111/2/3
f 113/1/3 102/1/3 106/1/3
f 114/1/3 102/1/3 113/1/3
f 119/1/3 116/1/3 115/1/3
f 120/1/3 118/1/3 117/1/3
f 121/1/3 119/1/3 115/1/3
f 121/1/3 120/1/3 119/1/3
f 122/1/3 118/1/3 120/1/3
f 122/1/3 120/1/3 121/1/3
f 123/1/3 118/1/3 122/1/3
f 125/1/3 123/1/3 122/1/3
f 125/1/3 124/1/3 123/1/3
f 126/1/3 124/1/3 125/1/3
f 130/1/3 128/1/3 127/1/3
f 131/1/3 128/1/3 130/1/3
f 132/2/3 130/2/3 129/2/3
f 133/2/3 130/2/3 132/2/3
f 134/2/3 130/2/3 133/2/3
f 136/1/3 128/1/3 131/1/3
f 137/2/3 132/2/3 129/2/3
f 138/2/3 132/2/3 137/2/3
f 139/2/3 134/2/3 133/2/3
f 140/2/3 134/2/3 139/2/3
f 141/1/3 136/1/3 135/1/3
f 142/1/3 128/1/3 136/1/3
f 142/1/3 136/1/3 141/1/3
f 143/1/4 144/1/4 146/1/4
f 146/1/4 144/1/4 147/1/4
f 145/2/4 146/2/4 148/2/4
f 148/2/4 146/2/4 149/2/4
f 149/2/4 146/2/4 150/2/4
f 147/1/4 144/1/4 152/1/4
f 145/2/4 148/2/4 153/2/4
f 153/2/4 148/2/4 154/2/4
f 149/2/4 150/2/4 155/2/4
f 155/2/4 150/2/4 156/2/4
f 151/2/4 152/2/4 157/2/4
f 152/1/4 144/1/4 158/1/4
f 157/2/4 152/2/4 158/2/4
f 158/1/4 144/1/4 159/1/4
f 160/2/4 161/2/4 162/2/4
f 162/2/4 161/2/4 163/2/4
f 164/1/4 165/1/4 168/1/4
f 166/1/4 167/1/4 169/1/4
f 164/1/4 168/1/4 170/1/4
f 168/1/4 169/1/4 170/1/4
f 169/1/4 167/1/4 171/1/4
f 170/1/4 169/1/4 171/1/4
f 171/1/4 167/1/4 172/1/4
f 171/1/4 172/1/4 174/1/4
f 172/1/4 173/1/4 174/1/4
f 174/1/4 173/1/4 175/1/4
f 176/1/4 177/1/4 180/1/4
f 180/1/4 177/1/4 181/1/4
f 178/2/4 179/2/4 182/2/4
f 182/2/4 179/2/4 183/2/4
f 181/1/4 177/1/4 184/1/4
f 184/1/4 177/1/4 185/1/4
f 186/2/4 187/2/4 188/2/4
f 188/2/4 187/2/4 189/2/4
f 190/2/4 191/2/4 192/2/4
f 192/2/4 191/2/4 193/2/4
f 196/2/5 195/2/5 194/2/5
f 197/2/5 195/2/5 196/2/5
f 200/2/5 199/2/5 198/2/5
f 201/2/5 199/2/5 200/2/5
f 204/2/5 203/2/5 202/2/5
f 205/2/5 203/2/5 204/2/5
f 208/2/5 207/2/5 206/2/5
f 209/2/5 207/2/5 208/2/5
f 213/1/5 211/1/5 210/1/5
f 213/1/5 212/1/5 211/1/5
f 214/1/5 212/1/5 213/1/5
f 215/1/5 212/1/5 214/1/5
f 218/1/5 217/1/5 216/1/5
f 219/1/5 217/1/5 218/1/5
f 226/2/5 220/2/5 219/2/5
f 227/1/5 222/1/5 221/1/5
f 227/1/5 221/1/5 220/1/5
f 227/2/5 220/2/5 226/2/5
f 228/1/5 222/1/5 227/1/5
f 229/1/5 222/1/5 228/1/5
f 230/1/5 224/1/5 223/1/5
f 231/1/5 224/1/5 230/1/5
f 232/1/5 226/1/5 225/1/5
f 233/1/5 226/1/5 232/1/5
f 236/2/5 235/2/5 234/2/5
f 237/2/5 235/2/5 236/2/5
f 240/2/5 239/2/5 238/2/5
f 241/2/5 239/2/5 240/2/5
f 242/2/6 243/2/6 244/2/6
f 244/2/6 243/2/6 245/2/6
f 246/2/6 247/2/6 248/2/6
f 248/2/6 247/2/6 249/2/6
f 250/1/6 251/1/6 253/1/6
f 251/1/6 252/1/6 253/1/6
f 253/1/6 252/1/6 254/1/6
f 254/1/6 252/1/6 255/1/6
f 256/1/6 257/1/6 259/1/6
f 257/1/6 258/1/6 259/1/6
f 259/1/6 258/1/6 260/1/6
f 260/1/6 258/1/6 261/1/6
f 262/2/6 263/2/6 264/2/6
f 264/2/6 263/2/6 265/2/6
f 266/2/6 267/2/6 270/2/6
f 270/2/6 267/2/6 271/2/6
f 268/1/6 269/1/6 272/1/6
f 272/1/6 269/1/6 273/1/6
f 274/2/6 275/2/6 276/2/6
f 276/2/6 275/2/6 277/2/6
f 278/1/6 279/1/6 280/1/6
f 280/1/6 279/1/6 281/1/6
f 282/1/6 283/1/6 284/1/6
f 284/1/6 283/1/6 285/1/6
