# MagicaVoxel @ Ephtracy

# group
o 

# material
mtllib Brunette-11.mtl
usemtl palette

# normals
vn 1 0 0
vn -1 0 0
vn 0 0 1
vn 0 0 -1
vn 0 -1 0
vn 0 1 0

# texcoords
vt 0.939453 0.5
vt 0.943359 0.5
vt 0.947266 0.5

# verts
v -0.6 4.9 -0.1
v -0.6 4.9 -0.2
v -0.6 4.9 -0.3
v -0.6 5 -0.1
v -0.6 5 -0.2
v -0.6 5.1 -0.1
v -0.6 5.1 -0.3
v -0.7 4.8 -0.3
v -0.7 4.8 -0.4
v -0.7 4.9 0
v -0.7 4.9 -0.1
v -0.7 4.9 -0.3
v -0.7 4.9 -0.4
v -0.7 5 0
v -0.7 5 -0.1
v -0.7 5 -0.3
v -0.7 5 -0.4
v -0.7 5.1 0
v -0.7 5.1 -0.1
v -0.7 5.1 -0.3
v -0.7 5.1 -0.4
v -0.7 5.5 -0.3
v -0.7 5.5 -0.4
v -0.7 6 -0.1
v -0.7 6 -0.3
v -0.7 6.1 0
v -0.7 6.1 -0.1
v -0.7 6.1 -0.3
v -0.7 6.1 -0.4
v -0.7 6.2 -0.1
v -0.7 6.2 -0.3
v -0.7 6.2 -0.4
v -0.7 6.5 0
v -0.7 6.5 -0.4
v -0.8 4.8 -0.2
v -0.8 4.8 -0.3
v -0.8 4.9 -0.2
v -0.8 4.9 -0.3
v -0.8 6.1 0
v -0.8 6.1 -0.1
v -0.8 6.2 -0.3
v -0.8 6.2 -0.4
v -0.8 6.4 -0.1
v -0.8 6.4 -0.3
v -0.8 6.5 0
v -0.8 6.5 -0.1
v -0.8 6.5 -0.3
v -0.8 6.5 -0.4
v -0.9 4.8 -0.2
v -0.9 4.8 -0.4
v -0.9 4.9 0
v -0.9 4.9 -0.1
v -0.9 4.9 -0.2
v -0.9 4.9 -0.3
v -0.9 4.9 -0.4
v -0.9 5 0
v -0.9 5 -0.1
v -0.9 5 -0.3
v -0.9 5 -0.4
v -0.9 5.1 0
v -0.9 5.1 -0.1
v -0.9 5.1 -0.3
v -0.9 5.1 -0.4
v -0.9 5.3 -0.1
v -0.9 5.3 -0.3
v -0.9 5.5 -0.1
v -0.9 5.5 -0.2
v -0.9 5.5 -0.3
v -0.9 5.5 -0.4
v -0.9 6 -0.2
v -0.9 6 -0.3
v -0.9 6.1 -0.2
v -0.9 6.1 -0.3
v -0.9 6.1 -0.4
v -0.9 6.4 -0.1
v -0.9 6.4 -0.3
v -0.9 6.5 -0.1
v -0.9 6.5 -0.3
v -1 4.9 -0.1
v -1 4.9 -0.3
v -1 5 -0.1
v -1 5 -0.3
v -1 5.1 -0.1
v -1 5.1 -0.3
v -1 5.5 -0.2
v -1 5.5 -0.3
v -1 6 -0.2
v -1 6 -0.3
v -1 6.1 -0.2
v -1 6.1 -0.3
v -0.7 4.9 0
v -0.7 5 0
v -0.7 5.1 0
v -0.7 6.1 0
v -0.7 6.5 0
v -0.8 6.1 0
v -0.8 6.5 0
v -0.9 4.9 0
v -0.9 5 0
v -0.9 5.1 0
v -0.6 4.9 -0.1
v -0.6 5 -0.1
v -0.6 5.1 -0.1
v -0.7 4.9 -0.1
v -0.7 5 -0.1
v -0.7 5.1 -0.1
v -0.7 6 -0.1
v -0.7 6.1 -0.1
v -0.8 5.3 -0.1
v -0.8 5.5 -0.1
v -0.8 6 -0.1
v -0.8 6.1 -0.1
v -0.8 6.4 -0.1
v -0.8 6.5 -0.1
v -0.9 4.9 -0.1
v -0.9 5 -0.1
v -0.9 5.1 -0.1
v -0.9 5.3 -0.1
v -0.9 5.5 -0.1
v -0.9 6.4 -0.1
v -0.9 6.5 -0.1
v -1 4.9 -0.1
v -1 5 -0.1
v -1 5.1 -0.1
v -0.8 4.8 -0.2
v -0.8 4.9 -0.2
v -0.9 4.8 -0.2
v -0.9 4.9 -0.2
v -0.9 5.5 -0.2
v -0.9 6 -0.2
v -0.9 6.1 -0.2
v -1 5.5 -0.2
v -1 6 -0.2
v -1 6.1 -0.2
v -0.7 4.8 -0.3
v -0.7 4.9 -0.3
v -0.8 4.8 -0.3
v -0.8 4.9 -0.3
v -0.6 4.9 -0.3
v -0.6 5.1 -0.3
v -0.7 4.9 -0.3
v -0.7 5 -0.3
v -0.7 5.1 -0.3
v -0.7 5.5 -0.3
v -0.7 6.1 -0.3
v -0.7 6.2 -0.3
v -0.8 5.3 -0.3
v -0.8 5.5 -0.3
v -0.8 6.1 -0.3
v -0.8 6.2 -0.3
v -0.8 6.4 -0.3
v -0.8 6.5 -0.3
v -0.9 4.9 -0.3
v -0.9 5 -0.3
v -0.9 5.1 -0.3
v -0.9 5.3 -0.3
v -0.9 5.5 -0.3
v -0.9 6 -0.3
v -0.9 6.1 -0.3
v -0.9 6.4 -0.3
v -0.9 6.5 -0.3
v -1 4.9 -0.3
v -1 5 -0.3
v -1 5.1 -0.3
v -1 5.5 -0.3
v -1 6 -0.3
v -1 6.1 -0.3
v -0.7 4.8 -0.4
v -0.7 4.9 -0.4
v -0.7 5 -0.4
v -0.7 5.1 -0.4
v -0.7 5.5 -0.4
v -0.7 6.1 -0.4
v -0.7 6.2 -0.4
v -0.7 6.5 -0.4
v -0.8 4.8 -0.4
v -0.8 4.9 -0.4
v -0.8 5 -0.4
v -0.8 6.2 -0.4
v -0.8 6.5 -0.4
v -0.9 4.8 -0.4
v -0.9 4.9 -0.4
v -0.9 5 -0.4
v -0.9 5.1 -0.4
v -0.9 5.5 -0.4
v -0.9 6.1 -0.4
v -0.8 4.8 -0.2
v -0.9 4.8 -0.2
v -0.7 4.8 -0.3
v -0.8 4.8 -0.3
v -0.7 4.8 -0.4
v -0.8 4.8 -0.4
v -0.9 4.8 -0.4
v -0.7 4.9 0
v -0.9 4.9 0
v -0.6 4.9 -0.1
v -0.7 4.9 -0.1
v -0.9 4.9 -0.1
v -1 4.9 -0.1
v -0.6 4.9 -0.2
v -0.8 4.9 -0.2
v -0.9 4.9 -0.2
v -0.6 4.9 -0.3
v -0.7 4.9 -0.3
v -0.8 4.9 -0.3
v -0.9 4.9 -0.3
v -1 4.9 -0.3
v -0.9 5.5 -0.2
v -1 5.5 -0.2
v -0.7 5.5 -0.3
v -0.8 5.5 -0.3
v -0.9 5.5 -0.3
v -1 5.5 -0.3
v -0.7 5.5 -0.4
v -0.9 5.5 -0.4
v -0.7 6.1 0
v -0.8 6.1 0
v -0.7 6.1 -0.1
v -0.8 6.1 -0.1
v -0.7 6.2 -0.3
v -0.8 6.2 -0.3
v -0.7 6.2 -0.4
v -0.8 6.2 -0.4
v -0.7 5.1 0
v -0.9 5.1 0
v -0.6 5.1 -0.1
v -0.7 5.1 -0.1
v -0.9 5.1 -0.1
v -1 5.1 -0.1
v -0.6 5.1 -0.3
v -0.7 5.1 -0.3
v -0.9 5.1 -0.3
v -1 5.1 -0.3
v -0.7 5.1 -0.4
v -0.9 5.1 -0.4
v -0.9 6.1 -0.2
v -1 6.1 -0.2
v -0.7 6.1 -0.3
v -0.8 6.1 -0.3
v -0.9 6.1 -0.3
v -1 6.1 -0.3
v -0.7 6.1 -0.4
v -0.9 6.1 -0.4
v -0.7 6.5 0
v -0.8 6.5 0
v -0.8 6.5 -0.1
v -0.9 6.5 -0.1
v -0.8 6.5 -0.3
v -0.9 6.5 -0.3
v -0.7 6.5 -0.4
v -0.8 6.5 -0.4

# faces
f 1/1/1 2/1/1 4/1/1
f 2/2/1 3/2/1 5/2/1
f 4/1/1 2/1/1 5/1/1
f 4/2/1 5/2/1 6/2/1
f 5/2/1 3/2/1 7/2/1
f 6/2/1 5/2/1 7/2/1
f 8/2/1 9/2/1 12/2/1
f 12/2/1 9/2/1 13/2/1
f 10/1/1 11/1/1 14/1/1
f 14/1/1 11/1/1 15/1/1
f 12/1/1 13/1/1 16/1/1
f 16/1/1 13/1/1 17/1/1
f 14/2/1 15/2/1 18/2/1
f 18/2/1 15/2/1 19/2/1
f 16/2/1 17/2/1 20/2/1
f 20/2/1 17/2/1 21/2/1
f 19/3/1 20/3/1 22/3/1
f 19/3/1 22/3/1 24/3/1
f 22/3/1 23/3/1 24/3/1
f 24/3/1 23/3/1 25/3/1
f 24/2/1 25/2/1 27/2/1
f 25/3/1 23/3/1 28/3/1
f 27/2/1 25/2/1 28/2/1
f 28/3/1 23/3/1 29/3/1
f 26/3/1 27/3/1 30/3/1
f 27/2/1 28/2/1 30/2/1
f 30/2/1 28/2/1 31/2/1
f 26/3/1 30/3/1 33/3/1
f 31/3/1 32/3/1 33/3/1
f 30/3/1 31/3/1 33/3/1
f 33/3/1 32/3/1 34/3/1
f 35/1/1 36/1/1 37/1/1
f 37/1/1 36/1/1 38/1/1
f 43/3/2 40/3/2 39/3/2
f 44/3/2 42/3/2 41/3/2
f 45/3/2 43/3/2 39/3/2
f 46/3/2 43/3/2 45/3/2
f 47/3/2 42/3/2 44/3/2
f 48/3/2 42/3/2 47/3/2
f 53/1/2 50/1/2 49/1/2
f 54/1/2 50/1/2 53/1/2
f 55/1/2 50/1/2 54/1/2
f 56/1/2 52/1/2 51/1/2
f 57/1/2 52/1/2 56/1/2
f 58/3/2 55/3/2 54/3/2
f 59/3/2 55/3/2 58/3/2
f 60/2/2 57/2/2 56/2/2
f 61/2/2 57/2/2 60/2/2
f 62/2/2 59/2/2 58/2/2
f 63/2/2 59/2/2 62/2/2
f 64/3/2 62/3/2 61/3/2
f 65/3/2 62/3/2 64/3/2
f 66/2/2 65/2/2 64/2/2
f 67/2/2 65/2/2 66/2/2
f 68/2/2 65/2/2 67/2/2
f 70/3/2 67/3/2 66/3/2
f 71/3/2 69/3/2 68/3/2
f 72/3/2 70/3/2 66/3/2
f 73/3/2 69/3/2 71/3/2
f 74/3/2 69/3/2 73/3/2
f 75/3/2 72/3/2 66/3/2
f 75/3/2 73/3/2 72/3/2
f 76/3/2 73/3/2 75/3/2
f 77/1/2 76/1/2 75/1/2
f 78/1/2 76/1/2 77/1/2
f 81/1/2 80/1/2 79/1/2
f 82/1/2 80/1/2 81/1/2
f 83/2/2 82/2/2 81/2/2
f 84/2/2 82/2/2 83/2/2
f 87/3/2 86/3/2 85/3/2
f 88/3/2 86/3/2 87/3/2
f 89/2/2 88/2/2 87/2/2
f 90/2/2 88/2/2 89/2/2
f 94/3/3 95/3/3 96/3/3
f 96/3/3 95/3/3 97/3/3
f 91/1/3 92/1/3 98/1/3
f 92/2/3 93/2/3 99/2/3
f 98/1/3 92/1/3 99/1/3
f 99/2/3 93/2/3 100/2/3
f 101/1/3 102/1/3 104/1/3
f 102/2/3 103/2/3 105/2/3
f 104/1/3 102/1/3 105/1/3
f 105/2/3 103/2/3 106/2/3
f 106/3/3 107/3/3 109/3/3
f 109/3/3 107/3/3 110/3/3
f 107/2/3 108/2/3 111/2/3
f 110/3/3 107/3/3 111/3/3
f 111/2/3 108/2/3 112/2/3
f 106/3/3 109/3/3 117/3/3
f 109/2/3 110/2/3 118/2/3
f 117/3/3 109/3/3 118/3/3
f 110/3/3 111/3/3 119/3/3
f 118/2/3 110/2/3 119/2/3
f 111/3/3 112/3/3 119/3/3
f 112/3/3 113/3/3 119/3/3
f 113/1/3 114/1/3 120/1/3
f 119/3/3 113/3/3 120/3/3
f 120/1/3 114/1/3 121/1/3
f 115/1/3 116/1/3 122/1/3
f 116/2/3 117/2/3 123/2/3
f 122/1/3 116/1/3 123/1/3
f 123/2/3 117/2/3 124/2/3
f 125/1/3 126/1/3 127/1/3
f 127/1/3 126/1/3 128/1/3
f 129/3/3 130/3/3 132/3/3
f 130/2/3 131/2/3 133/2/3
f 132/3/3 130/3/3 133/3/3
f 133/2/3 131/2/3 134/2/3
f 135/2/3 136/2/3 137/2/3
f 137/2/3 136/2/3 138/2/3
f 141/2/4 140/2/4 139/2/4
f 142/2/4 140/2/4 141/2/4
f 143/2/4 140/2/4 142/2/4
f 147/3/4 144/3/4 143/3/4
f 148/3/4 144/3/4 147/3/4
f 149/2/4 146/2/4 145/2/4
f 150/2/4 146/2/4 149/2/4
f 155/3/4 147/3/4 143/3/4
f 156/2/4 148/2/4 147/2/4
f 156/3/4 147/3/4 155/3/4
f 157/2/4 148/2/4 156/2/4
f 159/3/4 150/3/4 149/3/4
f 159/3/4 151/3/4 150/3/4
f 160/1/4 152/1/4 151/1/4
f 160/3/4 151/3/4 159/3/4
f 161/1/4 152/1/4 160/1/4
f 162/1/4 154/1/4 153/1/4
f 163/2/4 155/2/4 154/2/4
f 163/1/4 154/1/4 162/1/4
f 164/2/4 155/2/4 163/2/4
f 165/3/4 158/3/4 157/3/4
f 166/2/4 159/2/4 158/2/4
f 166/3/4 158/3/4 165/3/4
f 167/2/4 159/2/4 166/2/4
f 176/2/4 169/2/4 168/2/4
f 177/1/4 170/1/4 169/1/4
f 177/2/4 169/2/4 176/2/4
f 178/2/4 171/2/4 170/2/4
f 178/1/4 170/1/4 177/1/4
f 179/3/4 175/3/4 174/3/4
f 180/3/4 175/3/4 179/3/4
f 181/1/4 177/1/4 176/1/4
f 182/3/4 178/3/4 177/3/4
f 182/1/4 177/1/4 181/1/4
f 183/2/4 171/2/4 178/2/4
f 183/3/4 178/3/4 182/3/4
f 184/2/4 171/2/4 183/2/4
f 185/3/4 173/3/4 172/3/4
f 186/3/4 173/3/4 185/3/4
f 187/1/5 188/1/5 190/1/5
f 189/2/5 190/2/5 191/2/5
f 190/1/5 188/1/5 192/1/5
f 191/2/5 190/2/5 192/2/5
f 192/1/5 188/1/5 193/1/5
f 194/1/5 195/1/5 197/1/5
f 197/1/5 195/1/5 198/1/5
f 196/1/5 197/1/5 200/1/5
f 198/1/5 199/1/5 200/1/5
f 197/1/5 198/1/5 200/1/5
f 200/1/5 199/1/5 201/1/5
f 201/1/5 199/1/5 202/1/5
f 200/2/5 201/2/5 203/2/5
f 203/2/5 201/2/5 204/2/5
f 204/2/5 201/2/5 205/2/5
f 202/1/5 199/1/5 206/1/5
f 206/1/5 199/1/5 207/1/5
f 208/3/5 209/3/5 212/3/5
f 212/3/5 209/3/5 213/3/5
f 210/3/5 211/3/5 214/3/5
f 211/3/5 212/3/5 214/3/5
f 214/3/5 212/3/5 215/3/5
f 216/3/5 217/3/5 218/3/5
f 218/3/5 217/3/5 219/3/5
f 220/3/5 221/3/5 222/3/5
f 222/3/5 221/3/5 223/3/5
f 227/2/6 225/2/6 224/2/6
f 228/2/6 225/2/6 227/2/6
f 230/2/6 227/2/6 226/2/6
f 231/2/6 227/2/6 230/2/6
f 232/2/6 229/2/6 228/2/6
f 233/2/6 229/2/6 232/2/6
f 234/2/6 232/2/6 231/2/6
f 235/2/6 232/2/6 234/2/6
f 240/2/6 237/2/6 236/2/6
f 241/2/6 237/2/6 240/2/6
f 242/3/6 239/3/6 238/3/6
f 242/3/6 240/3/6 239/3/6
f 243/3/6 240/3/6 242/3/6
f 246/3/6 245/3/6 244/3/6
f 248/3/6 246/3/6 244/3/6
f 248/1/6 247/1/6 246/1/6
f 249/1/6 247/1/6 248/1/6
f 250/3/6 248/3/6 244/3/6
f 251/3/6 248/3/6 250/3/6
