# MagicaVoxel @ Ephtracy

# group
o Tibia_04_L

# material
mtllib Body-26-Tibia_04_L.mtl
usemtl palette

# normals
vn 1 0 0
vn -1 0 0
vn 0 0 1
vn 0 0 -1
vn 0 -1 0
vn 0 1 0

# texcoords
vt 0.783203 0.5
vt 0.787109 0.5
vt 0.791016 0.5

# verts
v 0.6 1.4 0.1
v 0.6 1.4 -0.1
v 0.6 1.6 -0.1
v 0.6 1.6 -0.2
v 0.6 2.3 -0.1
v 0.6 2.3 -0.2
v 0.6 2.5 -0.1
v 0.6 2.5 -0.2
v 0.6 2.6 0.1
v 0.6 2.6 -0.1
v 0.5 0.6 0.3
v 0.5 0.6 -0.1
v 0.5 0.7 0.3
v 0.5 0.7 0.2
v 0.5 1.2 0.1
v 0.5 1.2 0
v 0.5 1.3 0
v 0.5 1.3 -0.1
v 0.5 1.4 0.1
v 0.5 1.4 -0.1
v 0.5 1.4 -0.2
v 0.5 1.5 -0.1
v 0.5 1.5 -0.2
v 0.5 1.6 -0.1
v 0.5 1.6 -0.2
v 0.5 1.6 -0.3
v 0.5 2.3 -0.2
v 0.5 2.4 -0.2
v 0.5 2.4 -0.3
v 0.5 2.5 -0.1
v 0.5 2.5 -0.2
v 0.5 2.5 -0.3
v 0.5 2.6 0.3
v 0.5 2.6 0.2
v 0.5 2.6 0.1
v 0.5 2.6 -0.1
v 0.5 2.6 -0.2
v 0.5 2.7 0.1
v 0.5 2.7 0
v 0.5 2.8 0.3
v 0.5 2.8 0.2
v 0.5 2.8 0
v 0.5 2.8 -0.1
v 0.5 2.8 -0.2
v 0.5 2.9 0.3
v 0.5 2.9 0.2
v 0.5 2.9 -0.1
v 0.5 2.9 -0.2
v 0.3 0.6 0.3
v 0.3 0.6 0.2
v 0.3 0.6 -0.1
v 0.3 0.7 0.3
v 0.3 0.7 0.2
v 0.3 1.2 0.1
v 0.3 1.2 0
v 0.3 1.3 0
v 0.3 1.3 -0.1
v 0.3 1.4 0.1
v 0.3 1.4 -0.1
v 0.3 1.4 -0.2
v 0.3 1.5 -0.1
v 0.3 1.5 -0.2
v 0.3 1.6 -0.1
v 0.3 1.6 -0.2
v 0.3 1.6 -0.3
v 0.3 2.1 0.2
v 0.3 2.1 0.1
v 0.3 2.3 -0.2
v 0.3 2.4 -0.2
v 0.3 2.4 -0.3
v 0.3 2.5 0.2
v 0.3 2.5 0.1
v 0.3 2.5 -0.1
v 0.3 2.5 -0.2
v 0.3 2.5 -0.3
v 0.3 2.6 0.3
v 0.3 2.6 0.2
v 0.3 2.6 0.1
v 0.3 2.6 -0.1
v 0.3 2.6 -0.2
v 0.3 2.8 0.3
v 0.3 2.8 0.2
v 0.3 2.8 0.1
v 0.3 2.8 -0.1
v 0.3 2.8 -0.2
v 0.3 2.9 0.3
v 0.3 2.9 0.2
v 0.3 2.9 -0.1
v 0.3 2.9 -0.2
v 0.2 1.4 0.1
v 0.2 1.4 -0.1
v 0.2 1.6 -0.1
v 0.2 1.6 -0.2
v 0.2 2.3 -0.1
v 0.2 2.3 -0.2
v 0.2 2.5 -0.1
v 0.2 2.5 -0.2
v 0.2 2.6 0.2
v 0.2 2.6 0.1
v 0.2 2.6 -0.1
v 0.2 2.8 0.2
v 0.2 2.8 0.1
v 0.5 0.6 0.3
v 0.5 0.7 0.3
v 0.5 2.6 0.3
v 0.5 2.8 0.3
v 0.5 2.9 0.3
v 0.4 0.6 0.3
v 0.4 0.7 0.3
v 0.3 0.6 0.3
v 0.3 0.7 0.3
v 0.3 2.6 0.3
v 0.3 2.8 0.3
v 0.3 2.9 0.3
v 0.5 0.7 0.2
v 0.5 2.6 0.2
v 0.4 0.7 0.2
v 0.4 2.1 0.2
v 0.4 2.5 0.2
v 0.3 0.7 0.2
v 0.3 2.1 0.2
v 0.3 2.5 0.2
v 0.3 2.6 0.2
v 0.3 2.8 0.2
v 0.2 2.6 0.2
v 0.2 2.8 0.2
v 0.6 1.4 0.1
v 0.6 2.6 0.1
v 0.5 1.4 0.1
v 0.5 2.6 0.1
v 0.3 1.4 0.1
v 0.3 2.1 0.1
v 0.3 2.5 0.1
v 0.3 2.6 0.1
v 0.2 1.4 0.1
v 0.2 2.6 0.1
v 0.3 2.6 0.1
v 0.3 2.8 0.1
v 0.2 2.6 0.1
v 0.2 2.8 0.1
v 0.6 1.4 -0.1
v 0.6 1.6 -0.1
v 0.6 2.5 -0.1
v 0.6 2.6 -0.1
v 0.5 0.6 -0.1
v 0.5 1.3 -0.1
v 0.5 1.4 -0.1
v 0.5 1.5 -0.1
v 0.5 1.6 -0.1
v 0.5 2.5 -0.1
v 0.5 2.6 -0.1
v 0.5 2.8 -0.1
v 0.3 0.6 -0.1
v 0.3 1.3 -0.1
v 0.3 1.4 -0.1
v 0.3 1.5 -0.1
v 0.3 1.6 -0.1
v 0.3 2.5 -0.1
v 0.3 2.6 -0.1
v 0.3 2.8 -0.1
v 0.2 1.4 -0.1
v 0.2 1.6 -0.1
v 0.2 2.5 -0.1
v 0.2 2.6 -0.1
v 0.6 1.6 -0.2
v 0.6 2.3 -0.2
v 0.6 2.5 -0.2
v 0.5 1.4 -0.2
v 0.5 1.5 -0.2
v 0.5 1.6 -0.2
v 0.5 2.3 -0.2
v 0.5 2.4 -0.2
v 0.5 2.5 -0.2
v 0.5 2.6 -0.2
v 0.5 2.8 -0.2
v 0.5 2.9 -0.2
v 0.3 1.4 -0.2
v 0.3 1.5 -0.2
v 0.3 1.6 -0.2
v 0.3 2.3 -0.2
v 0.3 2.4 -0.2
v 0.3 2.5 -0.2
v 0.3 2.6 -0.2
v 0.3 2.8 -0.2
v 0.3 2.9 -0.2
v 0.2 1.6 -0.2
v 0.2 2.3 -0.2
v 0.2 2.5 -0.2
v 0.5 1.6 -0.3
v 0.5 2.4 -0.3
v 0.5 2.5 -0.3
v 0.3 1.6 -0.3
v 0.3 2.4 -0.3
v 0.3 2.5 -0.3
v 0.5 0.6 0.3
v 0.4 0.6 0.3
v 0.3 0.6 0.3
v 0.4 0.6 0.2
v 0.3 0.6 0.2
v 0.5 0.6 -0.1
v 0.3 0.6 -0.1
v 0.6 1.4 0.1
v 0.5 1.4 0.1
v 0.3 1.4 0.1
v 0.2 1.4 0.1
v 0.6 1.4 -0.1
v 0.5 1.4 -0.1
v 0.3 1.4 -0.1
v 0.2 1.4 -0.1
v 0.5 1.4 -0.2
v 0.3 1.4 -0.2
v 0.6 1.6 -0.1
v 0.5 1.6 -0.1
v 0.3 1.6 -0.1
v 0.2 1.6 -0.1
v 0.6 1.6 -0.2
v 0.5 1.6 -0.2
v 0.3 1.6 -0.2
v 0.2 1.6 -0.2
v 0.5 1.6 -0.3
v 0.3 1.6 -0.3
v 0.5 2.6 0.3
v 0.3 2.6 0.3
v 0.5 2.6 0.2
v 0.3 2.6 0.2
v 0.2 2.6 0.2
v 0.3 2.6 0.1
v 0.2 2.6 0.1
v 0.5 2.8 -0.1
v 0.3 2.8 -0.1
v 0.5 2.8 -0.2
v 0.3 2.8 -0.2
v 0.5 0.7 0.3
v 0.4 0.7 0.3
v 0.3 0.7 0.3
v 0.5 0.7 0.2
v 0.4 0.7 0.2
v 0.3 0.7 0.2
v 0.6 2.5 -0.1
v 0.5 2.5 -0.1
v 0.3 2.5 -0.1
v 0.2 2.5 -0.1
v 0.6 2.5 -0.2
v 0.5 2.5 -0.2
v 0.3 2.5 -0.2
v 0.2 2.5 -0.2
v 0.5 2.5 -0.3
v 0.3 2.5 -0.3
v 0.6 2.6 0.1
v 0.5 2.6 0.1
v 0.3 2.6 0.1
v 0.2 2.6 0.1
v 0.6 2.6 -0.1
v 0.5 2.6 -0.1
v 0.3 2.6 -0.1
v 0.2 2.6 -0.1
v 0.5 2.6 -0.2
v 0.3 2.6 -0.2
v 0.3 2.8 0.2
v 0.2 2.8 0.2
v 0.3 2.8 0.1
v 0.2 2.8 0.1
v 0.5 2.9 0.3
v 0.3 2.9 0.3
v 0.5 2.9 0.2
v 0.3 2.9 0.2
v 0.5 2.9 -0.1
v 0.3 2.9 -0.1
v 0.5 2.9 -0.2
v 0.3 2.9 -0.2

# faces
f 1/3/1 2/3/1 3/3/1
f 1/3/1 3/3/1 5/3/1
f 3/3/1 4/3/1 5/3/1
f 5/3/1 4/3/1 6/3/1
f 1/3/1 5/3/1 7/3/1
f 5/2/1 6/2/1 7/2/1
f 7/2/1 6/2/1 8/2/1
f 1/3/1 7/3/1 9/3/1
f 9/3/1 7/3/1 10/3/1
f 11/3/1 12/3/1 13/3/1
f 13/3/1 12/3/1 14/3/1
f 14/3/1 12/3/1 15/3/1
f 15/3/1 12/3/1 16/3/1
f 15/1/1 16/1/1 17/1/1
f 16/3/1 12/3/1 17/3/1
f 17/3/1 12/3/1 18/3/1
f 14/3/1 15/3/1 19/3/1
f 15/1/1 17/1/1 19/1/1
f 17/1/1 18/1/1 19/1/1
f 19/1/1 18/1/1 20/1/1
f 20/3/1 21/3/1 22/3/1
f 22/3/1 21/3/1 23/3/1
f 22/1/1 23/1/1 24/1/1
f 24/1/1 23/1/1 25/1/1
f 25/3/1 26/3/1 27/3/1
f 27/3/1 26/3/1 28/3/1
f 28/3/1 26/3/1 29/3/1
f 28/2/1 29/2/1 31/2/1
f 31/2/1 29/2/1 32/2/1
f 14/3/1 19/3/1 34/3/1
f 34/3/1 19/3/1 35/3/1
f 30/1/1 31/1/1 36/1/1
f 36/1/1 31/1/1 37/1/1
f 34/3/1 35/3/1 38/3/1
f 33/3/1 34/3/1 38/3/1
f 35/1/1 36/1/1 38/1/1
f 38/1/1 36/1/1 39/1/1
f 33/3/1 38/3/1 40/3/1
f 38/3/1 39/3/1 40/3/1
f 40/3/1 39/3/1 41/3/1
f 39/1/1 36/1/1 42/1/1
f 41/3/1 39/3/1 42/3/1
f 42/1/1 36/1/1 43/1/1
f 40/2/1 41/2/1 45/2/1
f 41/3/1 42/3/1 46/3/1
f 45/2/1 41/2/1 46/2/1
f 42/3/1 43/3/1 46/3/1
f 43/2/1 44/2/1 47/2/1
f 46/3/1 43/3/1 47/3/1
f 47/2/1 44/2/1 48/2/1
f 52/2/2 50/2/2 49/2/2
f 53/3/2 51/3/2 50/3/2
f 53/2/2 50/2/2 52/2/2
f 54/3/2 51/3/2 53/3/2
f 55/3/2 51/3/2 54/3/2
f 56/1/2 55/1/2 54/1/2
f 56/3/2 51/3/2 55/3/2
f 57/3/2 51/3/2 56/3/2
f 58/3/2 54/3/2 53/3/2
f 58/1/2 56/1/2 54/1/2
f 58/1/2 57/1/2 56/1/2
f 59/1/2 57/1/2 58/1/2
f 61/3/2 60/3/2 59/3/2
f 62/3/2 60/3/2 61/3/2
f 63/1/2 62/1/2 61/1/2
f 64/1/2 62/1/2 63/1/2
f 66/3/2 58/3/2 53/3/2
f 67/3/2 58/3/2 66/3/2
f 68/3/2 65/3/2 64/3/2
f 69/3/2 65/3/2 68/3/2
f 70/3/2 65/3/2 69/3/2
f 71/2/2 67/2/2 66/2/2
f 72/2/2 67/2/2 71/2/2
f 74/2/2 70/2/2 69/2/2
f 75/2/2 70/2/2 74/2/2
f 77/3/2 72/3/2 71/3/2
f 78/3/2 72/3/2 77/3/2
f 79/1/2 74/1/2 73/1/2
f 80/1/2 74/1/2 79/1/2
f 81/3/2 77/3/2 76/3/2
f 82/3/2 77/3/2 81/3/2
f 83/1/2 79/1/2 78/1/2
f 84/1/2 79/1/2 83/1/2
f 86/2/2 82/2/2 81/2/2
f 87/3/2 83/3/2 82/3/2
f 87/2/2 82/2/2 86/2/2
f 87/3/2 84/3/2 83/3/2
f 88/2/2 85/2/2 84/2/2
f 88/3/2 84/3/2 87/3/2
f 89/2/2 85/2/2 88/2/2
f 92/3/2 91/3/2 90/3/2
f 94/3/2 92/3/2 90/3/2
f 94/3/2 93/3/2 92/3/2
f 95/3/2 93/3/2 94/3/2
f 96/3/2 94/3/2 90/3/2
f 96/2/2 95/2/2 94/2/2
f 97/2/2 95/2/2 96/2/2
f 99/3/2 96/3/2 90/3/2
f 100/3/2 96/3/2 99/3/2
f 101/3/2 99/3/2 98/3/2
f 102/3/2 99/3/2 101/3/2
f 103/3/3 104/3/3 108/3/3
f 108/3/3 104/3/3 109/3/3
f 108/2/3 109/2/3 110/2/3
f 110/2/3 109/2/3 111/2/3
f 105/3/3 106/3/3 112/3/3
f 106/2/3 107/2/3 113/2/3
f 112/3/3 106/3/3 113/3/3
f 113/2/3 107/2/3 114/2/3
f 115/3/3 116/3/3 117/3/3
f 117/3/3 116/3/3 118/3/3
f 118/3/3 116/3/3 119/3/3
f 117/3/3 118/3/3 120/3/3
f 118/2/3 119/2/3 121/2/3
f 120/3/3 118/3/3 121/3/3
f 119/3/3 116/3/3 122/3/3
f 121/2/3 119/2/3 122/2/3
f 122/3/3 116/3/3 123/3/3
f 123/3/3 124/3/3 125/3/3
f 125/3/3 124/3/3 126/3/3
f 127/3/3 128/3/3 129/3/3
f 129/3/3 128/3/3 130/3/3
f 131/3/3 132/3/3 135/3/3
f 133/3/3 134/3/3 135/3/3
f 132/3/3 133/3/3 135/3/3
f 135/3/3 134/3/3 136/3/3
f 139/3/4 138/3/4 137/3/4
f 140/3/4 138/3/4 139/3/4
f 147/3/4 142/3/4 141/3/4
f 148/3/4 142/3/4 147/3/4
f 149/3/4 142/3/4 148/3/4
f 150/3/4 144/3/4 143/3/4
f 151/3/4 144/3/4 150/3/4
f 153/3/4 146/3/4 145/3/4
f 154/1/4 147/1/4 146/1/4
f 154/3/4 146/3/4 153/3/4
f 155/1/4 147/1/4 154/1/4
f 159/1/4 152/1/4 151/1/4
f 160/1/4 152/1/4 159/1/4
f 161/3/4 157/3/4 156/3/4
f 161/3/4 156/3/4 155/3/4
f 162/3/4 157/3/4 161/3/4
f 163/3/4 159/3/4 158/3/4
f 164/3/4 159/3/4 163/3/4
f 170/3/4 166/3/4 165/3/4
f 171/2/4 167/2/4 166/2/4
f 171/3/4 166/3/4 170/3/4
f 172/2/4 167/2/4 171/2/4
f 173/2/4 167/2/4 172/2/4
f 177/3/4 169/3/4 168/3/4
f 178/1/4 170/1/4 169/1/4
f 178/3/4 169/3/4 177/3/4
f 179/1/4 170/1/4 178/1/4
f 182/1/4 174/1/4 173/1/4
f 183/1/4 174/1/4 182/1/4
f 184/2/4 176/2/4 175/2/4
f 185/2/4 176/2/4 184/2/4
f 186/3/4 180/3/4 179/3/4
f 187/2/4 181/2/4 180/2/4
f 187/3/4 180/3/4 186/3/4
f 187/2/4 182/2/4 181/2/4
f 188/2/4 182/2/4 187/2/4
f 192/3/4 190/3/4 189/3/4
f 193/2/4 191/2/4 190/2/4
f 193/3/4 190/3/4 192/3/4
f 194/2/4 191/2/4 193/2/4
f 195/3/5 196/3/5 198/3/5
f 196/2/5 197/2/5 198/2/5
f 198/2/5 197/2/5 199/2/5
f 195/3/5 198/3/5 200/3/5
f 198/3/5 199/3/5 200/3/5
f 200/3/5 199/3/5 201/3/5
f 202/3/5 203/3/5 206/3/5
f 206/3/5 203/3/5 207/3/5
f 204/3/5 205/3/5 208/3/5
f 208/3/5 205/3/5 209/3/5
f 207/3/5 208/3/5 210/3/5
f 210/3/5 208/3/5 211/3/5
f 212/3/5 213/3/5 216/3/5
f 216/3/5 213/3/5 217/3/5
f 214/3/5 215/3/5 218/3/5
f 218/3/5 215/3/5 219/3/5
f 217/3/5 218/3/5 220/3/5
f 220/3/5 218/3/5 221/3/5
f 222/3/5 223/3/5 224/3/5
f 224/3/5 223/3/5 225/3/5
f 225/3/5 226/3/5 227/3/5
f 227/3/5 226/3/5 228/3/5
f 229/2/5 230/2/5 231/2/5
f 231/2/5 230/2/5 232/2/5
f 236/3/6 234/3/6 233/3/6
f 237/2/6 235/2/6 234/2/6
f 237/3/6 234/3/6 236/3/6
f 238/2/6 235/2/6 237/2/6
f 243/2/6 240/2/6 239/2/6
f 244/2/6 240/2/6 243/2/6
f 245/2/6 242/2/6 241/2/6
f 246/2/6 242/2/6 245/2/6
f 247/2/6 245/2/6 244/2/6
f 248/2/6 245/2/6 247/2/6
f 253/3/6 250/3/6 249/3/6
f 254/3/6 250/3/6 253/3/6
f 255/3/6 252/3/6 251/3/6
f 256/3/6 252/3/6 255/3/6
f 257/1/6 255/1/6 254/1/6
f 258/1/6 255/1/6 257/1/6
f 261/3/6 260/3/6 259/3/6
f 262/3/6 260/3/6 261/3/6
f 265/2/6 264/2/6 263/2/6
f 266/2/6 264/2/6 265/2/6
f 267/3/6 266/3/6 265/3/6
f 268/3/6 266/3/6 267/3/6
f 269/2/6 268/2/6 267/2/6
f 270/2/6 268/2/6 269/2/6
