# MagicaVoxel @ Ephtracy

# group
o 

# material
mtllib Redhead_Ponytail-6.mtl
usemtl palette

# normals
vn 1 0 0
vn -1 0 0
vn 0 0 1
vn 0 0 -1
vn 0 -1 0
vn 0 1 0

# texcoords
vt 0.478516 0.5
vt 0.482422 0.5
vt 0.884766 0.5

# verts
v -0.7 4 -0.1
v -0.7 4 -0.3
v -0.7 4.1 -0.2
v -0.7 4.1 -0.3
v -0.7 4.2 -0.1
v -0.7 4.2 -0.2
v -0.7 5 -0.1
v -0.7 5 -0.3
v -0.7 5.1 -0.1
v -0.7 5.1 -0.3
v -0.9 4 -0.1
v -0.9 4 -0.3
v -0.9 4.1 -0.1
v -0.9 4.1 -0.3
v -0.9 4.6 -0.2
v -0.9 4.6 -0.3
v -0.9 5 -0.1
v -0.9 5 -0.2
v -0.9 5 -0.3
v -0.9 5.1 -0.1
v -0.9 5.1 -0.3
v -0.7 4 -0.1
v -0.7 4.2 -0.1
v -0.7 5 -0.1
v -0.7 5.1 -0.1
v -0.8 4.1 -0.1
v -0.8 4.2 -0.1
v -0.9 4 -0.1
v -0.9 4.1 -0.1
v -0.9 5 -0.1
v -0.9 5.1 -0.1
v -0.7 4 -0.3
v -0.7 4.1 -0.3
v -0.7 5 -0.3
v -0.7 5.1 -0.3
v -0.8 4.6 -0.3
v -0.8 5 -0.3
v -0.9 4 -0.3
v -0.9 4.1 -0.3
v -0.9 4.6 -0.3
v -0.9 5 -0.3
v -0.9 5.1 -0.3
v -0.7 4 -0.1
v -0.9 4 -0.1
v -0.7 4 -0.3
v -0.9 4 -0.3
v -0.7 5.1 -0.1
v -0.9 5.1 -0.1
v -0.7 5.1 -0.3
v -0.9 5.1 -0.3

# faces
f 1/1/1 2/1/1 3/1/1
f 3/1/1 2/1/1 4/1/1
f 1/1/1 3/1/1 5/1/1
f 3/2/1 4/2/1 6/2/1
f 5/1/1 3/1/1 6/1/1
f 5/2/1 6/2/1 7/2/1
f 6/2/1 4/2/1 8/2/1
f 7/2/1 6/2/1 8/2/1
f 7/3/1 8/3/1 9/3/1
f 9/3/1 8/3/1 10/3/1
f 13/1/2 12/1/2 11/1/2
f 14/1/2 12/1/2 13/1/2
f 15/2/2 14/2/2 13/2/2
f 16/2/2 14/2/2 15/2/2
f 17/2/2 15/2/2 13/2/2
f 18/1/2 16/1/2 15/1/2
f 18/2/2 15/2/2 17/2/2
f 19/1/2 16/1/2 18/1/2
f 20/3/2 18/3/2 17/3/2
f 20/3/2 19/3/2 18/3/2
f 21/3/2 19/3/2 20/3/2
f 22/1/3 23/1/3 26/1/3
f 23/2/3 24/2/3 27/2/3
f 26/1/3 23/1/3 27/1/3
f 22/1/3 26/1/3 28/1/3
f 26/2/3 27/2/3 29/2/3
f 28/1/3 26/1/3 29/1/3
f 24/3/3 25/3/3 30/3/3
f 29/2/3 27/2/3 30/2/3
f 27/2/3 24/2/3 30/2/3
f 30/3/3 25/3/3 31/3/3
f 36/2/4 34/2/4 33/2/4
f 37/3/4 35/3/4 34/3/4
f 37/2/4 34/2/4 36/2/4
f 38/1/4 33/1/4 32/1/4
f 39/2/4 36/2/4 33/2/4
f 39/1/4 33/1/4 38/1/4
f 40/1/4 37/1/4 36/1/4
f 40/2/4 36/2/4 39/2/4
f 41/3/4 35/3/4 37/3/4
f 41/1/4 37/1/4 40/1/4
f 42/3/4 35/3/4 41/3/4
f 43/1/5 44/1/5 45/1/5
f 45/1/5 44/1/5 46/1/5
f 49/3/6 48/3/6 47/3/6
f 50/3/6 48/3/6 49/3/6
