# MagicaVoxel @ Ephtracy

# group
o 

# material
mtllib Redhead_Ponytail-8.mtl
usemtl palette

# normals
vn -1 0 0
vn 1 0 0
vn 0 0 1
vn 0 0 -1
vn 0 -1 0
vn 0 1 0

# texcoords
vt 0.283203 0.5
vt 0.287109 0.5

# verts
v -0.5 8 0.2
v -0.5 8 -0.1
v -0.5 8.1 0.2
v -0.5 8.1 -0.1
v -0.4 7.9 0.4
v -0.4 7.9 0.3
v -0.4 8 0.3
v -0.4 8 0.2
v -0.4 8.1 0.4
v -0.4 8.1 0.3
v -0.4 8.1 0.2
v 0.1 7.9 0.4
v 0.1 7.9 0.3
v 0.1 8 0.4
v 0.1 8 0.3
v 0.3 8 0.3
v 0.3 8 0.2
v 0.3 8.1 0.3
v 0.3 8.1 0.2
v 0.4 8 0.2
v 0.4 8 -0.1
v 0.4 8.1 0.2
v 0.4 8.1 -0.1
v -0.4 8 0.2
v -0.4 8 -0.1
v -0.4 8.1 0.2
v -0.4 8.1 -0.1
v -0.3 8 0.3
v -0.3 8 0.2
v -0.3 8.1 0.3
v -0.3 8.1 0.2
v -0.1 7.9 0.4
v -0.1 7.9 0.3
v -0.1 8 0.4
v -0.1 8 0.3
v 0.4 7.9 0.4
v 0.4 7.9 0.3
v 0.4 8 0.3
v 0.4 8 0.2
v 0.4 8.1 0.4
v 0.4 8.1 0.3
v 0.4 8.1 0.2
v 0.5 8 0.2
v 0.5 8 -0.1
v 0.5 8.1 0.2
v 0.5 8.1 -0.1
v -0.4 7.9 0.4
v -0.4 8.1 0.4
v -0.1 7.9 0.4
v -0.1 8 0.4
v 0.1 7.9 0.4
v 0.1 8 0.4
v 0.4 7.9 0.4
v 0.4 8.1 0.4
v -0.5 8 0.2
v -0.5 8.1 0.2
v -0.4 8 0.2
v -0.4 8.1 0.2
v 0.4 8 0.2
v 0.4 8.1 0.2
v 0.5 8 0.2
v 0.5 8.1 0.2
v -0.4 7.9 0.3
v -0.4 8 0.3
v -0.3 8 0.3
v -0.3 8.1 0.3
v -0.1 7.9 0.3
v -0.1 8 0.3
v 0.1 7.9 0.3
v 0.1 8 0.3
v 0.3 8 0.3
v 0.3 8.1 0.3
v 0.4 7.9 0.3
v 0.4 8 0.3
v -0.4 8 0.2
v -0.4 8.1 0.2
v -0.3 8 0.2
v -0.3 8.1 0.2
v 0.3 8 0.2
v 0.3 8.1 0.2
v 0.4 8 0.2
v 0.4 8.1 0.2
v -0.5 8 -0.1
v -0.5 8.1 -0.1
v -0.4 8 -0.1
v -0.4 8.1 -0.1
v 0.4 8 -0.1
v 0.4 8.1 -0.1
v 0.5 8 -0.1
v 0.5 8.1 -0.1
v -0.4 7.9 0.4
v -0.1 7.9 0.4
v 0.1 7.9 0.4
v 0.4 7.9 0.4
v -0.4 7.9 0.3
v -0.1 7.9 0.3
v 0.1 7.9 0.3
v 0.4 7.9 0.3
v -0.1 8 0.4
v 0.1 8 0.4
v -0.4 8 0.3
v -0.3 8 0.3
v -0.1 8 0.3
v 0.1 8 0.3
v 0.3 8 0.3
v 0.4 8 0.3
v -0.5 8 0.2
v -0.4 8 0.2
v -0.3 8 0.2
v 0.3 8 0.2
v 0.4 8 0.2
v 0.5 8 0.2
v -0.5 8 -0.1
v -0.4 8 -0.1
v 0.4 8 -0.1
v 0.5 8 -0.1
v -0.4 8.1 0.4
v 0.4 8.1 0.4
v -0.4 8.1 0.3
v -0.3 8.1 0.3
v 0.3 8.1 0.3
v 0.4 8.1 0.3
v -0.5 8.1 0.2
v -0.4 8.1 0.2
v -0.3 8.1 0.2
v 0.3 8.1 0.2
v 0.4 8.1 0.2
v 0.5 8.1 0.2
v -0.5 8.1 -0.1
v -0.4 8.1 -0.1
v 0.4 8.1 -0.1
v 0.5 8.1 -0.1

# faces
f 3/2/1 2/2/1 1/2/1
f 4/2/1 2/2/1 3/2/1
f 7/1/1 6/1/1 5/1/1
f 9/1/1 7/1/1 5/1/1
f 10/2/1 8/2/1 7/2/1
f 10/1/1 7/1/1 9/1/1
f 11/2/1 8/2/1 10/2/1
f 14/1/1 13/1/1 12/1/1
f 15/1/1 13/1/1 14/1/1
f 18/2/1 17/2/1 16/2/1
f 19/2/1 17/2/1 18/2/1
f 22/2/1 21/2/1 20/2/1
f 23/2/1 21/2/1 22/2/1
f 24/2/2 25/2/2 26/2/2
f 26/2/2 25/2/2 27/2/2
f 28/2/2 29/2/2 30/2/2
f 30/2/2 29/2/2 31/2/2
f 32/1/2 33/1/2 34/1/2
f 34/1/2 33/1/2 35/1/2
f 36/1/2 37/1/2 38/1/2
f 36/1/2 38/1/2 40/1/2
f 38/2/2 39/2/2 41/2/2
f 40/1/2 38/1/2 41/1/2
f 41/2/2 39/2/2 42/2/2
f 43/2/2 44/2/2 45/2/2
f 45/2/2 44/2/2 46/2/2
f 49/1/3 48/1/3 47/1/3
f 50/1/3 48/1/3 49/1/3
f 52/1/3 48/1/3 50/1/3
f 53/1/3 52/1/3 51/1/3
f 54/1/3 48/1/3 52/1/3
f 54/1/3 52/1/3 53/1/3
f 57/2/3 56/2/3 55/2/3
f 58/2/3 56/2/3 57/2/3
f 61/2/3 60/2/3 59/2/3
f 62/2/3 60/2/3 61/2/3
f 63/1/4 64/1/4 65/1/4
f 63/1/4 65/1/4 67/1/4
f 65/1/4 66/1/4 67/1/4
f 67/1/4 66/1/4 68/1/4
f 68/1/4 66/1/4 70/1/4
f 70/1/4 66/1/4 71/1/4
f 69/1/4 70/1/4 71/1/4
f 71/1/4 66/1/4 72/1/4
f 69/1/4 71/1/4 73/1/4
f 73/1/4 71/1/4 74/1/4
f 75/2/4 76/2/4 77/2/4
f 77/2/4 76/2/4 78/2/4
f 79/2/4 80/2/4 81/2/4
f 81/2/4 80/2/4 82/2/4
f 83/2/4 84/2/4 85/2/4
f 85/2/4 84/2/4 86/2/4
f 87/2/4 88/2/4 89/2/4
f 89/2/4 88/2/4 90/2/4
f 95/1/5 92/1/5 91/1/5
f 96/1/5 92/1/5 95/1/5
f 97/1/5 94/1/5 93/1/5
f 98/1/5 94/1/5 97/1/5
f 103/1/5 100/1/5 99/1/5
f 104/1/5 100/1/5 103/1/5
f 108/2/5 102/2/5 101/2/5
f 109/2/5 102/2/5 108/2/5
f 110/2/5 106/2/5 105/2/5
f 111/2/5 106/2/5 110/2/5
f 113/2/5 108/2/5 107/2/5
f 114/2/5 108/2/5 113/2/5
f 115/2/5 112/2/5 111/2/5
f 116/2/5 112/2/5 115/2/5
f 117/1/6 118/1/6 119/1/6
f 119/1/6 118/1/6 120/1/6
f 120/1/6 118/1/6 121/1/6
f 121/1/6 118/1/6 122/1/6
f 119/2/6 120/2/6 124/2/6
f 124/2/6 120/2/6 125/2/6
f 121/2/6 122/2/6 126/2/6
f 126/2/6 122/2/6 127/2/6
f 123/2/6 124/2/6 129/2/6
f 129/2/6 124/2/6 130/2/6
f 127/2/6 128/2/6 131/2/6
f 131/2/6 128/2/6 132/2/6
