# MagicaVoxel @ Ephtracy

# group
o 

# material
mtllib Redhead_Ponytail-3.mtl
usemtl palette

# normals
vn -1 0 0
vn 1 0 0
vn 0 0 1
vn 0 0 -1
vn 0 -1 0
vn 0 1 0

# texcoords
vt 0.474609 0.5
vt 0.478516 0.5
vt 0.482422 0.5

# verts
v 0.2 1.4 0.1
v 0.2 1.4 -0.1
v 0.2 1.6 -0.1
v 0.2 1.6 -0.2
v 0.2 2.3 -0.1
v 0.2 2.3 -0.2
v 0.2 2.5 -0.1
v 0.2 2.5 -0.2
v 0.2 2.6 0.1
v 0.2 2.6 -0.1
v 0.3 0.6 0.3
v 0.3 0.6 -0.1
v 0.3 0.7 0.3
v 0.3 0.7 0.2
v 0.3 1.2 0.1
v 0.3 1.2 0
v 0.3 1.3 0
v 0.3 1.3 -0.1
v 0.3 1.4 0.1
v 0.3 1.4 -0.1
v 0.3 1.4 -0.2
v 0.3 1.5 -0.1
v 0.3 1.5 -0.2
v 0.3 1.6 -0.1
v 0.3 1.6 -0.2
v 0.3 1.6 -0.3
v 0.3 2.3 -0.2
v 0.3 2.4 -0.2
v 0.3 2.4 -0.3
v 0.3 2.5 -0.1
v 0.3 2.5 -0.2
v 0.3 2.5 -0.3
v 0.3 2.6 0.3
v 0.3 2.6 0.2
v 0.3 2.6 0.1
v 0.3 2.6 -0.1
v 0.3 2.6 -0.2
v 0.3 2.7 0.1
v 0.3 2.7 0
v 0.3 2.8 0.3
v 0.3 2.8 0.2
v 0.3 2.8 0
v 0.3 2.8 -0.1
v 0.3 2.8 -0.2
v 0.3 2.9 0.3
v 0.3 2.9 0.2
v 0.3 2.9 -0.2
v 0.5 0.6 0.3
v 0.5 0.6 0.2
v 0.5 0.6 -0.1
v 0.5 0.7 0.3
v 0.5 0.7 0.2
v 0.5 1.2 0.1
v 0.5 1.2 0
v 0.5 1.3 0
v 0.5 1.3 -0.1
v 0.5 1.4 0.1
v 0.5 1.4 -0.1
v 0.5 1.4 -0.2
v 0.5 1.5 -0.1
v 0.5 1.5 -0.2
v 0.5 1.6 -0.1
v 0.5 1.6 -0.2
v 0.5 1.6 -0.3
v 0.5 2.1 0.2
v 0.5 2.1 0.1
v 0.5 2.3 -0.2
v 0.5 2.4 -0.2
v 0.5 2.4 -0.3
v 0.5 2.5 0.2
v 0.5 2.5 0.1
v 0.5 2.5 -0.1
v 0.5 2.5 -0.2
v 0.5 2.5 -0.3
v 0.5 2.6 0.3
v 0.5 2.6 0.2
v 0.5 2.6 0.1
v 0.5 2.6 -0.1
v 0.5 2.6 -0.2
v 0.5 2.8 0.3
v 0.5 2.8 0.2
v 0.5 2.8 0.1
v 0.5 2.8 -0.1
v 0.5 2.8 -0.2
v 0.5 2.9 0.3
v 0.5 2.9 0.2
v 0.5 2.9 -0.2
v 0.6 1.4 0.1
v 0.6 1.4 -0.1
v 0.6 1.6 -0.1
v 0.6 1.6 -0.2
v 0.6 2.3 -0.1
v 0.6 2.3 -0.2
v 0.6 2.5 -0.1
v 0.6 2.5 -0.2
v 0.6 2.6 0.2
v 0.6 2.6 0.1
v 0.6 2.6 -0.1
v 0.6 2.8 0.2
v 0.6 2.8 0.1
v 0.3 0.6 0.3
v 0.3 0.7 0.3
v 0.3 2.6 0.3
v 0.3 2.8 0.3
v 0.3 2.9 0.3
v 0.4 0.6 0.3
v 0.4 0.7 0.3
v 0.5 0.6 0.3
v 0.5 0.7 0.3
v 0.5 2.6 0.3
v 0.5 2.8 0.3
v 0.5 2.9 0.3
v 0.3 0.7 0.2
v 0.3 2.6 0.2
v 0.4 0.7 0.2
v 0.4 2.1 0.2
v 0.4 2.5 0.2
v 0.5 0.7 0.2
v 0.5 2.1 0.2
v 0.5 2.5 0.2
v 0.5 2.6 0.2
v 0.5 2.8 0.2
v 0.6 2.6 0.2
v 0.6 2.8 0.2
v 0.2 1.4 0.1
v 0.2 2.6 0.1
v 0.3 1.4 0.1
v 0.3 2.6 0.1
v 0.5 1.4 0.1
v 0.5 2.1 0.1
v 0.5 2.5 0.1
v 0.5 2.6 0.1
v 0.6 1.4 0.1
v 0.6 2.6 0.1
v 0.5 2.6 0.1
v 0.5 2.8 0.1
v 0.6 2.6 0.1
v 0.6 2.8 0.1
v 0.2 1.4 -0.1
v 0.2 1.6 -0.1
v 0.2 2.5 -0.1
v 0.2 2.6 -0.1
v 0.3 0.6 -0.1
v 0.3 1.3 -0.1
v 0.3 1.4 -0.1
v 0.3 1.5 -0.1
v 0.3 1.6 -0.1
v 0.3 2.5 -0.1
v 0.3 2.6 -0.1
v 0.3 2.8 -0.1
v 0.5 0.6 -0.1
v 0.5 1.3 -0.1
v 0.5 1.4 -0.1
v 0.5 1.5 -0.1
v 0.5 1.6 -0.1
v 0.5 2.5 -0.1
v 0.5 2.6 -0.1
v 0.5 2.8 -0.1
v 0.6 1.4 -0.1
v 0.6 1.6 -0.1
v 0.6 2.5 -0.1
v 0.6 2.6 -0.1
v 0.2 1.6 -0.2
v 0.2 2.3 -0.2
v 0.2 2.5 -0.2
v 0.3 1.4 -0.2
v 0.3 1.5 -0.2
v 0.3 1.6 -0.2
v 0.3 2.3 -0.2
v 0.3 2.4 -0.2
v 0.3 2.5 -0.2
v 0.3 2.6 -0.2
v 0.3 2.8 -0.2
v 0.3 2.9 -0.2
v 0.5 1.4 -0.2
v 0.5 1.5 -0.2
v 0.5 1.6 -0.2
v 0.5 2.3 -0.2
v 0.5 2.4 -0.2
v 0.5 2.5 -0.2
v 0.5 2.6 -0.2
v 0.5 2.8 -0.2
v 0.5 2.9 -0.2
v 0.6 1.6 -0.2
v 0.6 2.3 -0.2
v 0.6 2.5 -0.2
v 0.3 1.6 -0.3
v 0.3 2.4 -0.3
v 0.3 2.5 -0.3
v 0.5 1.6 -0.3
v 0.5 2.4 -0.3
v 0.5 2.5 -0.3
v 0.3 0.6 0.3
v 0.4 0.6 0.3
v 0.5 0.6 0.3
v 0.4 0.6 0.2
v 0.5 0.6 0.2
v 0.3 0.6 -0.1
v 0.5 0.6 -0.1
v 0.2 1.4 0.1
v 0.3 1.4 0.1
v 0.5 1.4 0.1
v 0.6 1.4 0.1
v 0.2 1.4 -0.1
v 0.3 1.4 -0.1
v 0.5 1.4 -0.1
v 0.6 1.4 -0.1
v 0.3 1.4 -0.2
v 0.5 1.4 -0.2
v 0.2 1.6 -0.1
v 0.3 1.6 -0.1
v 0.5 1.6 -0.1
v 0.6 1.6 -0.1
v 0.2 1.6 -0.2
v 0.3 1.6 -0.2
v 0.5 1.6 -0.2
v 0.6 1.6 -0.2
v 0.3 1.6 -0.3
v 0.5 1.6 -0.3
v 0.3 2.6 0.3
v 0.5 2.6 0.3
v 0.3 2.6 0.2
v 0.5 2.6 0.2
v 0.6 2.6 0.2
v 0.5 2.6 0.1
v 0.6 2.6 0.1
v 0.3 2.8 -0.1
v 0.5 2.8 -0.1
v 0.3 2.8 -0.2
v 0.5 2.8 -0.2
v 0.3 0.7 0.3
v 0.4 0.7 0.3
v 0.5 0.7 0.3
v 0.3 0.7 0.2
v 0.4 0.7 0.2
v 0.5 0.7 0.2
v 0.2 2.5 -0.1
v 0.3 2.5 -0.1
v 0.5 2.5 -0.1
v 0.6 2.5 -0.1
v 0.2 2.5 -0.2
v 0.3 2.5 -0.2
v 0.5 2.5 -0.2
v 0.6 2.5 -0.2
v 0.3 2.5 -0.3
v 0.5 2.5 -0.3
v 0.2 2.6 0.1
v 0.3 2.6 0.1
v 0.5 2.6 0.1
v 0.6 2.6 0.1
v 0.2 2.6 -0.1
v 0.3 2.6 -0.1
v 0.5 2.6 -0.1
v 0.6 2.6 -0.1
v 0.3 2.6 -0.2
v 0.5 2.6 -0.2
v 0.5 2.8 0.2
v 0.6 2.8 0.2
v 0.5 2.8 0.1
v 0.6 2.8 0.1
v 0.3 2.9 0.3
v 0.5 2.9 0.3
v 0.3 2.9 0.2
v 0.5 2.9 0.2
v 0.3 2.9 -0.2
v 0.5 2.9 -0.2

# faces
f 3/3/1 2/3/1 1/3/1
f 5/3/1 3/3/1 1/3/1
f 5/3/1 4/3/1 3/3/1
f 6/3/1 4/3/1 5/3/1
f 7/3/1 5/3/1 1/3/1
f 7/2/1 6/2/1 5/2/1
f 8/2/1 6/2/1 7/2/1
f 9/3/1 7/3/1 1/3/1
f 10/3/1 7/3/1 9/3/1
f 13/3/1 12/3/1 11/3/1
f 14/3/1 12/3/1 13/3/1
f 15/3/1 12/3/1 14/3/1
f 16/3/1 12/3/1 15/3/1
f 17/1/1 16/1/1 15/1/1
f 17/3/1 12/3/1 16/3/1
f 18/3/1 12/3/1 17/3/1
f 19/3/1 15/3/1 14/3/1
f 19/1/1 17/1/1 15/1/1
f 19/1/1 18/1/1 17/1/1
f 20/1/1 18/1/1 19/1/1
f 22/3/1 21/3/1 20/3/1
f 23/3/1 21/3/1 22/3/1
f 24/1/1 23/1/1 22/1/1
f 25/1/1 23/1/1 24/1/1
f 27/3/1 26/3/1 25/3/1
f 28/3/1 26/3/1 27/3/1
f 29/3/1 26/3/1 28/3/1
f 31/2/1 29/2/1 28/2/1
f 32/2/1 29/2/1 31/2/1
f 34/3/1 19/3/1 14/3/1
f 35/3/1 19/3/1 34/3/1
f 36/1/1 31/1/1 30/1/1
f 37/1/1 31/1/1 36/1/1
f 38/3/1 35/3/1 34/3/1
f 38/3/1 34/3/1 33/3/1
f 38/1/1 36/1/1 35/1/1
f 39/1/1 36/1/1 38/1/1
f 40/3/1 38/3/1 33/3/1
f 40/3/1 39/3/1 38/3/1
f 41/3/1 39/3/1 40/3/1
f 42/1/1 36/1/1 39/1/1
f 42/3/1 39/3/1 41/3/1
f 43/1/1 36/1/1 42/1/1
f 45/2/1 41/2/1 40/2/1
f 46/3/1 44/3/1 43/3/1
f 46/2/1 41/2/1 45/2/1
f 46/3/1 42/3/1 41/3/1
f 46/3/1 43/3/1 42/3/1
f 47/3/1 44/3/1 46/3/1
f 48/2/2 49/2/2 51/2/2
f 49/3/2 50/3/2 52/3/2
f 51/2/2 49/2/2 52/2/2
f 52/3/2 50/3/2 53/3/2
f 53/3/2 50/3/2 54/3/2
f 53/1/2 54/1/2 55/1/2
f 54/3/2 50/3/2 55/3/2
f 55/3/2 50/3/2 56/3/2
f 52/3/2 53/3/2 57/3/2
f 53/1/2 55/1/2 57/1/2
f 55/1/2 56/1/2 57/1/2
f 57/1/2 56/1/2 58/1/2
f 58/3/2 59/3/2 60/3/2
f 60/3/2 59/3/2 61/3/2
f 60/1/2 61/1/2 62/1/2
f 62/1/2 61/1/2 63/1/2
f 52/3/2 57/3/2 65/3/2
f 65/3/2 57/3/2 66/3/2
f 63/3/2 64/3/2 67/3/2
f 67/3/2 64/3/2 68/3/2
f 68/3/2 64/3/2 69/3/2
f 65/2/2 66/2/2 70/2/2
f 70/2/2 66/2/2 71/2/2
f 68/2/2 69/2/2 73/2/2
f 73/2/2 69/2/2 74/2/2
f 70/3/2 71/3/2 76/3/2
f 76/3/2 71/3/2 77/3/2
f 72/1/2 73/1/2 78/1/2
f 78/1/2 73/1/2 79/1/2
f 75/3/2 76/3/2 80/3/2
f 80/3/2 76/3/2 81/3/2
f 77/1/2 78/1/2 82/1/2
f 82/1/2 78/1/2 83/1/2
f 80/2/2 81/2/2 85/2/2
f 83/3/2 84/3/2 86/3/2
f 85/2/2 81/2/2 86/2/2
f 81/3/2 82/3/2 86/3/2
f 82/3/2 83/3/2 86/3/2
f 86/3/2 84/3/2 87/3/2
f 88/3/2 89/3/2 90/3/2
f 88/3/2 90/3/2 92/3/2
f 90/3/2 91/3/2 92/3/2
f 92/3/2 91/3/2 93/3/2
f 88/3/2 92/3/2 94/3/2
f 92/2/2 93/2/2 94/2/2
f 94/2/2 93/2/2 95/2/2
f 88/3/2 94/3/2 97/3/2
f 97/3/2 94/3/2 98/3/2
f 96/3/2 97/3/2 99/3/2
f 99/3/2 97/3/2 100/3/2
f 106/3/3 102/3/3 101/3/3
f 107/3/3 102/3/3 106/3/3
f 108/2/3 107/2/3 106/2/3
f 109/2/3 107/2/3 108/2/3
f 110/3/3 104/3/3 103/3/3
f 111/2/3 105/2/3 104/2/3
f 111/3/3 104/3/3 110/3/3
f 112/2/3 105/2/3 111/2/3
f 115/3/3 114/3/3 113/3/3
f 116/3/3 114/3/3 115/3/3
f 117/3/3 114/3/3 116/3/3
f 118/3/3 116/3/3 115/3/3
f 119/2/3 117/2/3 116/2/3
f 119/3/3 116/3/3 118/3/3
f 120/3/3 114/3/3 117/3/3
f 120/2/3 117/2/3 119/2/3
f 121/3/3 114/3/3 120/3/3
f 123/3/3 122/3/3 121/3/3
f 124/3/3 122/3/3 123/3/3
f 127/3/3 126/3/3 125/3/3
f 128/3/3 126/3/3 127/3/3
f 133/3/3 130/3/3 129/3/3
f 133/3/3 132/3/3 131/3/3
f 133/3/3 131/3/3 130/3/3
f 134/3/3 132/3/3 133/3/3
f 135/3/4 136/3/4 137/3/4
f 137/3/4 136/3/4 138/3/4
f 139/3/4 140/3/4 145/3/4
f 145/3/4 140/3/4 146/3/4
f 146/3/4 140/3/4 147/3/4
f 141/3/4 142/3/4 148/3/4
f 148/3/4 142/3/4 149/3/4
f 143/3/4 144/3/4 151/3/4
f 144/1/4 145/1/4 152/1/4
f 151/3/4 144/3/4 152/3/4
f 152/1/4 145/1/4 153/1/4
f 149/1/4 150/1/4 157/1/4
f 157/1/4 150/1/4 158/1/4
f 154/3/4 155/3/4 159/3/4
f 153/3/4 154/3/4 159/3/4
f 159/3/4 155/3/4 160/3/4
f 156/3/4 157/3/4 161/3/4
f 161/3/4 157/3/4 162/3/4
f 163/3/4 164/3/4 168/3/4
f 164/2/4 165/2/4 169/2/4
f 168/3/4 164/3/4 169/3/4
f 169/2/4 165/2/4 170/2/4
f 170/2/4 165/2/4 171/2/4
f 166/3/4 167/3/4 175/3/4
f 167/1/4 168/1/4 176/1/4
f 175/3/4 167/3/4 176/3/4
f 176/1/4 168/1/4 177/1/4
f 171/1/4 172/1/4 180/1/4
f 180/1/4 172/1/4 181/1/4
f 173/3/4 174/3/4 182/3/4
f 182/3/4 174/3/4 183/3/4
f 177/3/4 178/3/4 184/3/4
f 178/2/4 179/2/4 185/2/4
f 184/3/4 178/3/4 185/3/4
f 179/2/4 180/2/4 185/2/4
f 185/2/4 180/2/4 186/2/4
f 187/3/4 188/3/4 190/3/4
f 188/2/4 189/2/4 191/2/4
f 190/3/4 188/3/4 191/3/4
f 191/2/4 189/2/4 192/2/4
f 196/3/5 194/3/5 193/3/5
f 196/2/5 195/2/5 194/2/5
f 197/2/5 195/2/5 196/2/5
f 198/3/5 196/3/5 193/3/5
f 198/3/5 197/3/5 196/3/5
f 199/3/5 197/3/5 198/3/5
f 204/3/5 201/3/5 200/3/5
f 205/3/5 201/3/5 204/3/5
f 206/3/5 203/3/5 202/3/5
f 207/3/5 203/3/5 206/3/5
f 208/3/5 206/3/5 205/3/5
f 209/3/5 206/3/5 208/3/5
f 214/3/5 211/3/5 210/3/5
f 215/3/5 211/3/5 214/3/5
f 216/3/5 213/3/5 212/3/5
f 217/3/5 213/3/5 216/3/5
f 218/3/5 216/3/5 215/3/5
f 219/3/5 216/3/5 218/3/5
f 222/3/5 221/3/5 220/3/5
f 223/3/5 221/3/5 222/3/5
f 225/3/5 224/3/5 223/3/5
f 226/3/5 224/3/5 225/3/5
f 229/3/5 228/3/5 227/3/5
f 230/3/5 228/3/5 229/3/5
f 231/3/6 232/3/6 234/3/6
f 232/2/6 233/2/6 235/2/6
f 234/3/6 232/3/6 235/3/6
f 235/2/6 233/2/6 236/2/6
f 237/2/6 238/2/6 241/2/6
f 241/2/6 238/2/6 242/2/6
f 239/2/6 240/2/6 243/2/6
f 243/2/6 240/2/6 244/2/6
f 242/2/6 243/2/6 245/2/6
f 245/2/6 243/2/6 246/2/6
f 247/3/6 248/3/6 251/3/6
f 251/3/6 248/3/6 252/3/6
f 249/3/6 250/3/6 253/3/6
f 253/3/6 250/3/6 254/3/6
f 252/1/6 253/1/6 255/1/6
f 255/1/6 253/1/6 256/1/6
f 257/3/6 258/3/6 259/3/6
f 259/3/6 258/3/6 260/3/6
f 261/2/6 262/2/6 263/2/6
f 263/2/6 262/2/6 264/2/6
f 263/3/6 264/3/6 265/3/6
f 265/3/6 264/3/6 266/3/6
