# MagicaVoxel @ Ephtracy

# group
o 

# material
mtllib Body-11.mtl
usemtl palette

# normals
vn -1 0 0
vn 1 0 0
vn 0 0 1
vn 0 0 -1
vn 0 -1 0
vn 0 1 0

# texcoords
vt 0.705078 0.5
vt 0.712891 0.5
vt 0.751953 0.5
vt 0.755859 0.5

# verts
v -0.5 -0.15 0.25
v -0.5 -0.15 0.15
v -0.5 -0.15 0.05
v -0.5 -0.15 -0.45
v -0.5 -0.05 0.15
v -0.5 -0.05 0.05
v -0.5 0.05 0.25
v -0.5 0.05 -0.45
v -0.4 -0.25 0.25
v -0.4 -0.25 -0.45
v -0.4 -0.15 0.35
v -0.4 -0.15 0.25
v -0.4 -0.15 0.15
v -0.4 -0.15 0.05
v -0.4 -0.15 -0.45
v -0.4 -0.15 -0.55
v -0.4 -0.05 0.15
v -0.4 -0.05 0.05
v -0.4 0.05 0.25
v -0.4 0.05 -0.45
v -0.4 0.15 0.35
v -0.4 0.15 -0.55
v -0.3 -0.45 0.55
v -0.3 -0.45 0.45
v -0.3 -0.15 0.55
v -0.3 -0.15 0.45
v -0.3 -0.15 0.35
v -0.3 -0.05 0.45
v -0.3 -0.05 0.35
v -0.3 0.25 0.55
v -0.3 0.25 0.45
v -0.2 -0.55 0.55
v -0.2 -0.55 0.45
v -0.2 -0.45 0.55
v -0.2 -0.45 0.45
v -0.2 -0.35 0.35
v -0.2 -0.35 -0.05
v -0.2 -0.25 0.35
v -0.2 -0.25 0.25
v -0.2 -0.25 -0.05
v -0.2 0.15 0.15
v -0.2 0.15 -0.05
v -0.2 0.15 -0.15
v -0.2 0.15 -0.35
v -0.2 0.55 0.15
v -0.2 0.55 -0.05
v -0.2 0.55 -0.15
v -0.2 0.55 -0.35
v -0.1 0.15 0.25
v -0.1 0.15 0.15
v -0.1 0.15 -0.05
v -0.1 0.15 -0.15
v -0.1 0.15 -0.35
v -0.1 0.15 -0.45
v -0.1 0.55 0.25
v -0.1 0.55 0.15
v -0.1 0.55 -0.05
v -0.1 0.55 -0.15
v -0.1 0.55 -0.35
v -0.1 0.55 -0.45
v 0.1 0.15 0.55
v 0.1 0.15 0.45
v 0.1 0.25 0.55
v 0.1 0.25 0.45
v 0.2 0.05 0.35
v 0.2 0.05 0.15
v 0.2 0.05 -0.35
v 0.2 0.05 -0.55
v 0.2 0.15 0.35
v 0.2 0.15 0.15
v 0.2 0.15 -0.35
v 0.2 0.15 -0.55
v -0.2 0.05 0.35
v -0.2 0.05 0.15
v -0.2 0.05 -0.35
v -0.2 0.05 -0.55
v -0.2 0.15 0.35
v -0.2 0.15 0.15
v -0.2 0.15 -0.35
v -0.2 0.15 -0.55
v -0.1 0.15 0.55
v -0.1 0.15 0.45
v -0.1 0.25 0.55
v -0.1 0.25 0.45
v 0.1 0.15 0.25
v 0.1 0.15 0.15
v 0.1 0.15 -0.05
v 0.1 0.15 -0.15
v 0.1 0.15 -0.35
v 0.1 0.15 -0.45
v 0.1 0.55 0.25
v 0.1 0.55 0.15
v 0.1 0.55 -0.05
v 0.1 0.55 -0.15
v 0.1 0.55 -0.35
v 0.1 0.55 -0.45
v 0.2 -0.55 0.55
v 0.2 -0.55 0.45
v 0.2 -0.45 0.55
v 0.2 -0.45 0.45
v 0.2 -0.35 0.35
v 0.2 -0.35 -0.05
v 0.2 -0.25 0.35
v 0.2 -0.25 0.25
v 0.2 -0.25 -0.05
v 0.2 0.15 0.15
v 0.2 0.15 -0.05
v 0.2 0.15 -0.15
v 0.2 0.15 -0.35
v 0.2 0.55 0.15
v 0.2 0.55 -0.05
v 0.2 0.55 -0.15
v 0.2 0.55 -0.35
v 0.3 -0.45 0.55
v 0.3 -0.45 0.45
v 0.3 -0.15 0.55
v 0.3 -0.15 0.45
v 0.3 -0.15 0.35
v 0.3 -0.05 0.45
v 0.3 -0.05 0.35
v 0.3 0.25 0.55
v 0.3 0.25 0.45
v 0.4 -0.25 0.25
v 0.4 -0.25 -0.45
v 0.4 -0.15 0.35
v 0.4 -0.15 0.25
v 0.4 -0.15 0.15
v 0.4 -0.15 0.05
v 0.4 -0.15 -0.45
v 0.4 -0.15 -0.55
v 0.4 -0.05 0.15
v 0.4 -0.05 0.05
v 0.4 0.05 0.25
v 0.4 0.05 -0.45
v 0.4 0.15 0.35
v 0.4 0.15 -0.55
v 0.5 -0.15 0.25
v 0.5 -0.15 0.15
v 0.5 -0.15 0.05
v 0.5 -0.15 -0.45
v 0.5 -0.05 0.15
v 0.5 -0.05 0.05
v 0.5 0.05 0.25
v 0.5 0.05 -0.45
v -0.3 -0.45 0.55
v -0.3 -0.15 0.55
v -0.3 0.25 0.55
v -0.2 -0.55 0.55
v -0.2 -0.45 0.55
v -0.1 -0.25 0.55
v -0.1 -0.15 0.55
v -0.1 0.15 0.55
v -0.1 0.25 0.55
v 0.1 -0.25 0.55
v 0.1 -0.15 0.55
v 0.1 0.15 0.55
v 0.1 0.25 0.55
v 0.2 -0.55 0.55
v 0.2 -0.45 0.55
v 0.3 -0.45 0.55
v 0.3 -0.15 0.55
v 0.3 0.25 0.55
v -0.4 -0.15 0.35
v -0.4 0.15 0.35
v -0.3 -0.15 0.35
v -0.3 -0.05 0.35
v -0.2 -0.35 0.35
v -0.2 -0.25 0.35
v -0.2 0.05 0.35
v -0.2 0.15 0.35
v 0.2 -0.35 0.35
v 0.2 -0.25 0.35
v 0.2 0.05 0.35
v 0.2 0.15 0.35
v 0.3 -0.15 0.35
v 0.3 -0.05 0.35
v 0.4 -0.15 0.35
v 0.4 0.15 0.35
v -0.5 -0.15 0.25
v -0.5 0.05 0.25
v -0.4 -0.25 0.25
v -0.4 -0.15 0.25
v -0.4 0.05 0.25
v -0.2 -0.25 0.25
v -0.1 0.15 0.25
v -0.1 0.55 0.25
v 0.1 0.15 0.25
v 0.1 0.55 0.25
v 0.2 -0.25 0.25
v 0.4 -0.25 0.25
v 0.4 -0.15 0.25
v 0.4 0.05 0.25
v 0.5 -0.15 0.25
v 0.5 0.05 0.25
v -0.2 0.05 0.15
v -0.2 0.15 0.15
v -0.2 0.55 0.15
v -0.1 0.15 0.15
v -0.1 0.55 0.15
v 0.1 0.15 0.15
v 0.1 0.55 0.15
v 0.2 0.05 0.15
v 0.2 0.15 0.15
v 0.2 0.55 0.15
v -0.5 -0.15 0.05
v -0.5 -0.05 0.05
v -0.4 -0.15 0.05
v -0.4 -0.05 0.05
v 0.4 -0.15 0.05
v 0.4 -0.05 0.05
v 0.5 -0.15 0.05
v 0.5 -0.05 0.05
v -0.2 0.15 -0.15
v -0.2 0.55 -0.15
v -0.1 0.15 -0.15
v -0.1 0.55 -0.15
v 0.1 0.15 -0.15
v 0.1 0.55 -0.15
v 0.2 0.15 -0.15
v 0.2 0.55 -0.15
v -0.3 -0.45 0.45
v -0.3 -0.15 0.45
v -0.3 -0.05 0.45
v -0.3 0.25 0.45
v -0.2 -0.55 0.45
v -0.2 -0.45 0.45
v -0.1 -0.25 0.45
v -0.1 -0.15 0.45
v -0.1 0.15 0.45
v -0.1 0.25 0.45
v 0.1 -0.25 0.45
v 0.1 -0.15 0.45
v 0.1 0.15 0.45
v 0.1 0.25 0.45
v 0.2 -0.55 0.45
v 0.2 -0.45 0.45
v 0.3 -0.45 0.45
v 0.3 -0.15 0.45
v 0.3 -0.05 0.45
v 0.3 0.25 0.45
v -0.5 -0.15 0.15
v -0.5 -0.05 0.15
v -0.4 -0.15 0.15
v -0.4 -0.05 0.15
v 0.4 -0.15 0.15
v 0.4 -0.05 0.15
v 0.5 -0.15 0.15
v 0.5 -0.05 0.15
v -0.2 -0.35 -0.05
v -0.2 -0.25 -0.05
v -0.2 0.15 -0.05
v -0.2 0.55 -0.05
v -0.1 0.15 -0.05
v -0.1 0.55 -0.05
v 0.1 0.15 -0.05
v 0.1 0.55 -0.05
v 0.2 -0.35 -0.05
v 0.2 -0.25 -0.05
v 0.2 0.15 -0.05
v 0.2 0.55 -0.05
v -0.2 0.05 -0.35
v -0.2 0.15 -0.35
v -0.2 0.55 -0.35
v -0.1 0.15 -0.35
v -0.1 0.55 -0.35
v 0.1 0.15 -0.35
v 0.1 0.55 -0.35
v 0.2 0.05 -0.35
v 0.2 0.15 -0.35
v 0.2 0.55 -0.35
v -0.5 -0.15 -0.45
v -0.5 0.05 -0.45
v -0.4 -0.25 -0.45
v -0.4 -0.15 -0.45
v -0.4 0.05 -0.45
v -0.1 0.15 -0.45
v -0.1 0.55 -0.45
v 0.1 0.15 -0.45
v 0.1 0.55 -0.45
v 0.4 -0.25 -0.45
v 0.4 -0.15 -0.45
v 0.4 0.05 -0.45
v 0.5 -0.15 -0.45
v 0.5 0.05 -0.45
v -0.4 -0.15 -0.55
v -0.4 0.15 -0.55
v -0.2 0.05 -0.55
v -0.2 0.15 -0.55
v 0.2 0.05 -0.55
v 0.2 0.15 -0.55
v 0.4 -0.15 -0.55
v 0.4 0.15 -0.55
v -0.2 -0.55 0.55
v 0.2 -0.55 0.55
v -0.2 -0.55 0.45
v 0.2 -0.55 0.45
v -0.3 -0.45 0.55
v -0.2 -0.45 0.55
v 0.2 -0.45 0.55
v 0.3 -0.45 0.55
v -0.3 -0.45 0.45
v -0.2 -0.45 0.45
v 0.2 -0.45 0.45
v 0.3 -0.45 0.45
v -0.2 -0.35 0.35
v 0.2 -0.35 0.35
v -0.2 -0.35 -0.05
v 0.2 -0.35 -0.05
v -0.4 -0.25 0.25
v -0.2 -0.25 0.25
v 0.2 -0.25 0.25
v 0.4 -0.25 0.25
v -0.2 -0.25 -0.05
v 0.2 -0.25 -0.05
v -0.4 -0.25 -0.45
v 0.4 -0.25 -0.45
v -0.3 -0.15 0.45
v -0.1 -0.15 0.45
v 0.1 -0.15 0.45
v 0.3 -0.15 0.45
v -0.4 -0.15 0.35
v -0.3 -0.15 0.35
v 0.3 -0.15 0.35
v 0.4 -0.15 0.35
v -0.5 -0.15 0.25
v -0.4 -0.15 0.25
v 0.4 -0.15 0.25
v 0.5 -0.15 0.25
v -0.5 -0.15 0.15
v -0.4 -0.15 0.15
v 0.4 -0.15 0.15
v 0.5 -0.15 0.15
v -0.5 -0.15 0.05
v -0.4 -0.15 0.05
v 0.4 -0.15 0.05
v 0.5 -0.15 0.05
v -0.5 -0.15 -0.45
v -0.4 -0.15 -0.45
v 0.4 -0.15 -0.45
v 0.5 -0.15 -0.45
v -0.4 -0.15 -0.55
v 0.4 -0.15 -0.55
v -0.5 -0.05 0.15
v -0.4 -0.05 0.15
v 0.4 -0.05 0.15
v 0.5 -0.05 0.15
v -0.5 -0.05 0.05
v -0.4 -0.05 0.05
v 0.4 -0.05 0.05
v 0.5 -0.05 0.05
v -0.1 0.15 0.25
v 0.1 0.15 0.25
v -0.1 0.15 0.15
v 0.1 0.15 0.15
v -0.1 0.15 -0.35
v 0.1 0.15 -0.35
v -0.1 0.15 -0.45
v 0.1 0.15 -0.45
v -0.2 -0.25 0.35
v 0.2 -0.25 0.35
v -0.2 -0.25 0.25
v 0.2 -0.25 0.25
v -0.3 -0.05 0.45
v 0.3 -0.05 0.45
v -0.3 -0.05 0.35
v 0.3 -0.05 0.35
v -0.2 0.05 0.35
v 0.2 0.05 0.35
v -0.5 0.05 0.25
v -0.4 0.05 0.25
v 0.4 0.05 0.25
v 0.5 0.05 0.25
v -0.2 0.05 0.15
v 0.2 0.05 0.15
v -0.2 0.05 -0.35
v 0.2 0.05 -0.35
v -0.5 0.05 -0.45
v -0.4 0.05 -0.45
v 0.4 0.05 -0.45
v 0.5 0.05 -0.45
v -0.2 0.05 -0.55
v 0.2 0.05 -0.55
v -0.1 0.15 0.55
v 0.1 0.15 0.55
v -0.1 0.15 0.45
v 0.1 0.15 0.45
v -0.4 0.15 0.35
v -0.2 0.15 0.35
v 0.2 0.15 0.35
v 0.4 0.15 0.35
v -0.2 0.15 0.15
v 0.2 0.15 0.15
v -0.2 0.15 -0.05
v -0.1 0.15 -0.05
v 0.1 0.15 -0.05
v 0.2 0.15 -0.05
v -0.2 0.15 -0.15
v -0.1 0.15 -0.15
v 0.1 0.15 -0.15
v 0.2 0.15 -0.15
v -0.2 0.15 -0.35
v 0.2 0.15 -0.35
v -0.4 0.15 -0.55
v -0.2 0.15 -0.55
v 0.2 0.15 -0.55
v 0.4 0.15 -0.55
v -0.3 0.25 0.55
v -0.1 0.25 0.55
v 0.1 0.25 0.55
v 0.3 0.25 0.55
v -0.3 0.25 0.45
v -0.1 0.25 0.45
v 0.1 0.25 0.45
v 0.3 0.25 0.45
v -0.1 0.55 0.25
v 0.1 0.55 0.25
v -0.2 0.55 0.15
v -0.1 0.55 0.15
v 0.1 0.55 0.15
v 0.2 0.55 0.15
v -0.2 0.55 -0.05
v -0.1 0.55 -0.05
v 0.1 0.55 -0.05
v 0.2 0.55 -0.05
v -0.2 0.55 -0.15
v -0.1 0.55 -0.15
v 0.1 0.55 -0.15
v 0.2 0.55 -0.15
v -0.2 0.55 -0.35
v -0.1 0.55 -0.35
v 0.1 0.55 -0.35
v 0.2 0.55 -0.35
v -0.1 0.55 -0.45
v 0.1 0.55 -0.45

# faces
f 5/4/1 2/4/1 1/4/1
f 6/4/1 4/4/1 3/4/1
f 7/4/1 5/4/1 1/4/1
f 7/4/1 6/4/1 5/4/1
f 8/4/1 4/4/1 6/4/1
f 8/4/1 6/4/1 7/4/1
f 12/4/1 10/4/1 9/4/1
f 13/4/1 10/4/1 12/4/1
f 14/4/1 10/4/1 13/4/1
f 15/4/1 10/4/1 14/4/1
f 17/4/1 14/4/1 13/4/1
f 18/4/1 14/4/1 17/4/1
f 19/4/1 12/4/1 11/4/1
f 20/4/1 16/4/1 15/4/1
f 21/4/1 19/4/1 11/4/1
f 21/4/1 20/4/1 19/4/1
f 22/4/1 16/4/1 20/4/1
f 22/4/1 20/4/1 21/4/1
f 25/4/1 24/4/1 23/4/1
f 26/4/1 24/4/1 25/4/1
f 28/3/1 26/3/1 25/3/1
f 28/4/1 27/4/1 26/4/1
f 29/4/1 27/4/1 28/4/1
f 30/3/1 28/3/1 25/3/1
f 31/3/1 28/3/1 30/3/1
f 34/4/1 33/4/1 32/4/1
f 35/4/1 33/4/1 34/4/1
f 38/3/1 37/3/1 36/3/1
f 39/3/1 37/3/1 38/3/1
f 40/3/1 37/3/1 39/3/1
f 45/1/1 42/1/1 41/1/1
f 46/1/1 42/1/1 45/1/1
f 47/1/1 44/1/1 43/1/1
f 48/1/1 44/1/1 47/1/1
f 55/1/1 50/1/1 49/1/1
f 56/1/1 50/1/1 55/1/1
f 57/1/1 52/1/1 51/1/1
f 58/1/1 52/1/1 57/1/1
f 59/1/1 54/1/1 53/1/1
f 60/1/1 54/1/1 59/1/1
f 63/3/1 62/3/1 61/3/1
f 64/3/1 62/3/1 63/3/1
f 69/4/1 66/4/1 65/4/1
f 70/4/1 66/4/1 69/4/1
f 71/4/1 68/4/1 67/4/1
f 72/4/1 68/4/1 71/4/1
f 73/4/2 74/4/2 77/4/2
f 77/4/2 74/4/2 78/4/2
f 75/4/2 76/4/2 79/4/2
f 79/4/2 76/4/2 80/4/2
f 81/3/2 82/3/2 83/3/2
f 83/3/2 82/3/2 84/3/2
f 85/1/2 86/1/2 91/1/2
f 91/1/2 86/1/2 92/1/2
f 87/1/2 88/1/2 93/1/2
f 93/1/2 88/1/2 94/1/2
f 89/1/2 90/1/2 95/1/2
f 95/1/2 90/1/2 96/1/2
f 97/4/2 98/4/2 99/4/2
f 99/4/2 98/4/2 100/4/2
f 101/3/2 102/3/2 103/3/2
f 103/3/2 102/3/2 104/3/2
f 104/3/2 102/3/2 105/3/2
f 106/1/2 107/1/2 110/1/2
f 110/1/2 107/1/2 111/1/2
f 108/1/2 109/1/2 112/1/2
f 112/1/2 109/1/2 113/1/2
f 114/4/2 115/4/2 116/4/2
f 116/4/2 115/4/2 117/4/2
f 116/3/2 117/3/2 119/3/2
f 117/4/2 118/4/2 119/4/2
f 119/4/2 118/4/2 120/4/2
f 116/3/2 119/3/2 121/3/2
f 121/3/2 119/3/2 122/3/2
f 123/4/2 124/4/2 126/4/2
f 126/4/2 124/4/2 127/4/2
f 127/4/2 124/4/2 128/4/2
f 128/4/2 124/4/2 129/4/2
f 127/4/2 128/4/2 131/4/2
f 131/4/2 128/4/2 132/4/2
f 125/4/2 126/4/2 133/4/2
f 129/4/2 130/4/2 134/4/2
f 125/4/2 133/4/2 135/4/2
f 133/4/2 134/4/2 135/4/2
f 134/4/2 130/4/2 136/4/2
f 135/4/2 134/4/2 136/4/2
f 137/4/2 138/4/2 141/4/2
f 139/4/2 140/4/2 142/4/2
f 137/4/2 141/4/2 143/4/2
f 141/4/2 142/4/2 143/4/2
f 142/4/2 140/4/2 144/4/2
f 143/4/2 142/4/2 144/4/2
f 149/4/3 146/4/3 145/4/3
f 150/4/3 146/4/3 149/4/3
f 150/4/3 149/4/3 148/4/3
f 151/3/3 147/3/3 146/3/3
f 151/4/3 146/4/3 150/4/3
f 152/3/3 147/3/3 151/3/3
f 153/3/3 147/3/3 152/3/3
f 154/4/3 150/4/3 148/4/3
f 154/3/3 151/3/3 150/3/3
f 154/3/3 152/3/3 151/3/3
f 155/3/3 152/3/3 154/3/3
f 156/3/3 152/3/3 155/3/3
f 158/4/3 154/4/3 148/4/3
f 158/4/3 155/4/3 154/4/3
f 159/4/3 155/4/3 158/4/3
f 160/4/3 155/4/3 159/4/3
f 161/3/3 157/3/3 156/3/3
f 161/4/3 155/4/3 160/4/3
f 161/3/3 156/3/3 155/3/3
f 162/3/3 157/3/3 161/3/3
f 165/4/3 164/4/3 163/4/3
f 166/4/3 164/4/3 165/4/3
f 169/4/3 164/4/3 166/4/3
f 170/4/3 164/4/3 169/4/3
f 171/3/3 168/3/3 167/3/3
f 172/3/3 168/3/3 171/3/3
f 173/4/3 169/4/3 166/4/3
f 176/4/3 174/4/3 173/4/3
f 176/4/3 173/4/3 166/4/3
f 177/4/3 176/4/3 175/4/3
f 178/4/3 174/4/3 176/4/3
f 178/4/3 176/4/3 177/4/3
f 182/4/3 180/4/3 179/4/3
f 183/4/3 180/4/3 182/4/3
f 184/4/3 182/4/3 181/4/3
f 187/1/3 186/1/3 185/1/3
f 188/1/3 186/1/3 187/1/3
f 189/4/3 182/4/3 184/4/3
f 190/4/3 182/4/3 189/4/3
f 191/4/3 182/4/3 190/4/3
f 193/4/3 192/4/3 191/4/3
f 194/4/3 192/4/3 193/4/3
f 198/1/3 196/1/3 195/1/3
f 198/1/3 197/1/3 196/1/3
f 199/1/3 197/1/3 198/1/3
f 200/1/3 198/1/3 195/1/3
f 202/1/3 200/1/3 195/1/3
f 202/1/3 201/1/3 200/1/3
f 203/1/3 201/1/3 202/1/3
f 204/1/3 201/1/3 203/1/3
f 207/4/3 206/4/3 205/4/3
f 208/4/3 206/4/3 207/4/3
f 211/4/3 210/4/3 209/4/3
f 212/4/3 210/4/3 211/4/3
f 215/1/3 214/1/3 213/1/3
f 216/1/3 214/1/3 215/1/3
f 219/1/3 218/1/3 217/1/3
f 220/1/3 218/1/3 219/1/3
f 221/4/4 222/4/4 226/4/4
f 226/4/4 222/4/4 227/4/4
f 225/4/4 226/4/4 227/4/4
f 227/4/4 222/4/4 228/4/4
f 223/3/4 224/3/4 229/3/4
f 229/3/4 224/3/4 230/3/4
f 227/3/4 228/3/4 231/3/4
f 225/4/4 227/4/4 231/4/4
f 231/3/4 228/3/4 232/3/4
f 223/3/4 229/3/4 233/3/4
f 231/4/4 232/4/4 235/4/4
f 225/4/4 231/4/4 235/4/4
f 235/4/4 232/4/4 236/4/4
f 236/4/4 232/4/4 237/4/4
f 237/4/4 232/4/4 238/4/4
f 233/3/4 234/3/4 239/3/4
f 223/3/4 233/3/4 239/3/4
f 239/3/4 234/3/4 240/3/4
f 241/4/4 242/4/4 243/4/4
f 243/4/4 242/4/4 244/4/4
f 245/4/4 246/4/4 247/4/4
f 247/4/4 246/4/4 248/4/4
f 251/1/4 252/1/4 253/1/4
f 253/1/4 252/1/4 254/1/4
f 249/3/4 250/3/4 257/3/4
f 257/3/4 250/3/4 258/3/4
f 255/1/4 256/1/4 259/1/4
f 259/1/4 256/1/4 260/1/4
f 261/1/4 262/1/4 264/1/4
f 262/1/4 263/1/4 264/1/4
f 264/1/4 263/1/4 265/1/4
f 261/1/4 264/1/4 266/1/4
f 261/1/4 266/1/4 268/1/4
f 266/1/4 267/1/4 268/1/4
f 268/1/4 267/1/4 269/1/4
f 269/1/4 267/1/4 270/1/4
f 271/4/4 272/4/4 274/4/4
f 274/4/4 272/4/4 275/4/4
f 276/1/4 277/1/4 278/1/4
f 278/1/4 277/1/4 279/1/4
f 273/4/4 274/4/4 280/4/4
f 280/4/4 274/4/4 281/4/4
f 281/4/4 282/4/4 283/4/4
f 283/4/4 282/4/4 284/4/4
f 285/4/4 286/4/4 287/4/4
f 287/4/4 286/4/4 288/4/4
f 285/4/4 287/4/4 289/4/4
f 285/4/4 289/4/4 291/4/4
f 289/4/4 290/4/4 291/4/4
f 291/4/4 290/4/4 292/4/4
f 295/4/5 294/4/5 293/4/5
f 296/4/5 294/4/5 295/4/5
f 301/4/5 298/4/5 297/4/5
f 302/4/5 298/4/5 301/4/5
f 303/4/5 300/4/5 299/4/5
f 304/4/5 300/4/5 303/4/5
f 307/3/5 306/3/5 305/3/5
f 308/3/5 306/3/5 307/3/5
f 313/4/5 310/4/5 309/4/5
f 314/4/5 312/4/5 311/4/5
f 315/4/5 313/4/5 309/4/5
f 315/4/5 314/4/5 313/4/5
f 316/4/5 312/4/5 314/4/5
f 316/4/5 314/4/5 315/4/5
f 322/4/5 318/4/5 317/4/5
f 322/4/5 320/4/5 319/4/5
f 322/4/5 319/4/5 318/4/5
f 323/4/5 320/4/5 322/4/5
f 326/4/5 322/4/5 321/4/5
f 326/4/5 324/4/5 323/4/5
f 326/4/5 323/4/5 322/4/5
f 327/4/5 324/4/5 326/4/5
f 329/4/5 326/4/5 325/4/5
f 330/4/5 326/4/5 329/4/5
f 331/4/5 328/4/5 327/4/5
f 332/4/5 328/4/5 331/4/5
f 337/4/5 334/4/5 333/4/5
f 338/4/5 334/4/5 337/4/5
f 339/4/5 336/4/5 335/4/5
f 340/4/5 336/4/5 339/4/5
f 341/4/5 339/4/5 338/4/5
f 342/4/5 339/4/5 341/4/5
f 347/4/5 344/4/5 343/4/5
f 348/4/5 344/4/5 347/4/5
f 349/4/5 346/4/5 345/4/5
f 350/4/5 346/4/5 349/4/5
f 353/1/5 352/1/5 351/1/5
f 354/1/5 352/1/5 353/1/5
f 357/1/5 356/1/5 355/1/5
f 358/1/5 356/1/5 357/1/5
f 359/3/6 360/3/6 361/3/6
f 361/3/6 360/3/6 362/3/6
f 363/4/6 364/4/6 365/4/6
f 365/4/6 364/4/6 366/4/6
f 367/4/6 368/4/6 373/4/6
f 373/4/6 368/4/6 374/4/6
f 369/4/6 370/4/6 377/4/6
f 377/4/6 370/4/6 378/4/6
f 371/4/6 372/4/6 379/4/6
f 379/4/6 372/4/6 380/4/6
f 375/4/6 376/4/6 381/4/6
f 381/4/6 376/4/6 382/4/6
f 383/3/6 384/3/6 385/3/6
f 385/3/6 384/3/6 386/3/6
f 387/4/6 388/4/6 391/4/6
f 389/4/6 390/4/6 392/4/6
f 387/4/6 391/4/6 393/4/6
f 392/4/6 390/4/6 396/4/6
f 393/4/6 394/4/6 397/4/6
f 387/4/6 393/4/6 397/4/6
f 397/4/6 394/4/6 398/4/6
f 395/4/6 396/4/6 399/4/6
f 396/4/6 390/4/6 400/4/6
f 399/4/6 396/4/6 400/4/6
f 387/4/6 397/4/6 401/4/6
f 400/4/6 390/4/6 402/4/6
f 387/4/6 401/4/6 403/4/6
f 403/4/6 401/4/6 404/4/6
f 402/4/6 390/4/6 405/4/6
f 405/4/6 390/4/6 406/4/6
f 407/3/6 408/3/6 411/3/6
f 411/3/6 408/3/6 412/3/6
f 409/3/6 410/3/6 413/3/6
f 413/3/6 410/3/6 414/3/6
f 415/1/6 416/1/6 418/1/6
f 418/1/6 416/1/6 419/1/6
f 417/1/6 418/1/6 421/1/6
f 418/2/6 419/2/6 422/2/6
f 421/1/6 418/1/6 422/1/6
f 419/1/6 420/1/6 423/1/6
f 422/2/6 419/2/6 423/2/6
f 423/1/6 420/1/6 424/1/6
f 422/1/6 423/1/6 426/1/6
f 426/1/6 423/1/6 427/1/6
f 425/1/6 426/1/6 429/1/6
f 426/2/6 427/2/6 430/2/6
f 429/1/6 426/1/6 430/1/6
f 427/1/6 428/1/6 431/1/6
f 430/2/6 427/2/6 431/2/6
f 431/1/6 428/1/6 432/1/6
f 430/1/6 431/1/6 433/1/6
f 433/1/6 431/1/6 434/1/6
