# MagicaVoxel @ Ephtracy

# group
o 

# material
mtllib Redhead-10.mtl
usemtl palette

# normals
vn 1 0 0
vn -1 0 0
vn 0 0 1
vn 0 0 -1
vn 0 -1 0
vn 0 1 0

# texcoords
vt 0.818359 0.5
vt 0.822266 0.5
vt 0.826172 0.5
vt 0.880859 0.5
vt 0.884766 0.5
vt 0.888672 0.5

# verts
v 6.1 1.4 0.1
v 6.1 1.4 -0.1
v 6.1 1.6 -0.1
v 6.1 1.6 -0.2
v 6.1 2.3 -0.1
v 6.1 2.3 -0.2
v 6.1 2.5 -0.1
v 6.1 2.5 -0.2
v 6.1 2.6 0.1
v 6.1 2.6 -0.1
v 6 0.6 0.3
v 6 0.6 -0.1
v 6 0.7 0.3
v 6 0.7 0.2
v 6 1.2 0.1
v 6 1.2 0
v 6 1.3 0
v 6 1.3 -0.1
v 6 1.4 0.1
v 6 1.4 -0.1
v 6 1.4 -0.2
v 6 1.5 -0.1
v 6 1.5 -0.2
v 6 1.6 -0.1
v 6 1.6 -0.2
v 6 1.6 -0.3
v 6 2.3 -0.2
v 6 2.4 -0.2
v 6 2.4 -0.3
v 6 2.5 -0.1
v 6 2.5 -0.2
v 6 2.5 -0.3
v 6 2.6 0.3
v 6 2.6 0.2
v 6 2.6 0.1
v 6 2.6 0
v 6 2.6 -0.1
v 6 2.6 -0.2
v 6 2.7 0.1
v 6 2.7 0
v 6 2.8 0.3
v 6 2.8 0.2
v 6 2.8 0
v 6 2.8 -0.1
v 6 2.8 -0.2
v 6 2.9 0.3
v 6 2.9 0.2
v 6 2.9 0.1
v 6 2.9 0
v 6 2.9 -0.2
v 5.8 0.6 0.3
v 5.8 0.6 0.2
v 5.8 0.6 -0.1
v 5.8 0.7 0.3
v 5.8 0.7 0.2
v 5.8 0.7 0.1
v 5.8 0.7 0
v 5.8 1.2 0.1
v 5.8 1.2 0
v 5.8 1.3 0
v 5.8 1.3 -0.1
v 5.8 1.4 0.2
v 5.8 1.4 0.1
v 5.8 1.4 0
v 5.8 1.4 -0.1
v 5.8 1.4 -0.2
v 5.8 1.5 -0.1
v 5.8 1.5 -0.2
v 5.8 1.6 -0.1
v 5.8 1.6 -0.2
v 5.8 1.6 -0.3
v 5.8 2.3 -0.2
v 5.8 2.4 -0.2
v 5.8 2.4 -0.3
v 5.8 2.5 -0.1
v 5.8 2.5 -0.2
v 5.8 2.5 -0.3
v 5.8 2.6 0.3
v 5.8 2.6 0.2
v 5.8 2.6 0.1
v 5.8 2.6 -0.1
v 5.8 2.6 -0.2
v 5.8 2.8 0.3
v 5.8 2.8 0.2
v 5.8 2.8 0.1
v 5.8 2.8 -0.1
v 5.8 2.8 -0.2
v 5.8 2.9 0.3
v 5.8 2.9 0.2
v 5.8 2.9 -0.2
v 5.7 1.4 0.1
v 5.7 1.4 -0.1
v 5.7 1.6 -0.1
v 5.7 1.6 -0.2
v 5.7 2.3 -0.1
v 5.7 2.3 -0.2
v 5.7 2.5 -0.1
v 5.7 2.5 -0.2
v 5.7 2.6 0.2
v 5.7 2.6 0.1
v 5.7 2.6 -0.1
v 5.7 2.8 0.2
v 5.7 2.8 0.1
v 6 0.6 0.3
v 6 0.7 0.3
v 6 2.6 0.3
v 6 2.8 0.3
v 6 2.9 0.3
v 5.9 0.6 0.3
v 5.9 0.7 0.3
v 5.9 2.6 0.3
v 5.9 2.8 0.3
v 5.9 2.9 0.3
v 5.8 0.6 0.3
v 5.8 0.7 0.3
v 5.8 2.6 0.3
v 5.8 2.8 0.3
v 5.8 2.9 0.3
v 6 0.7 0.2
v 6 2.6 0.2
v 5.9 0.7 0.2
v 5.9 1.4 0.2
v 5.9 2.6 0.2
v 5.8 0.7 0.2
v 5.8 1.4 0.2
v 5.8 2.6 0.2
v 5.8 2.8 0.2
v 5.7 2.6 0.2
v 5.7 2.8 0.2
v 6.1 1.4 0.1
v 6.1 2.6 0.1
v 6 1.4 0.1
v 6 2.6 0.1
v 5.8 1.4 0.1
v 5.8 2.6 0.1
v 5.7 1.4 0.1
v 5.7 2.6 0.1
v 5.8 2.6 0.1
v 5.8 2.8 0.1
v 5.7 2.6 0.1
v 5.7 2.8 0.1
v 6.1 1.4 -0.1
v 6.1 1.6 -0.1
v 6.1 2.5 -0.1
v 6.1 2.6 -0.1
v 6 0.6 -0.1
v 6 1.3 -0.1
v 6 1.4 -0.1
v 6 1.5 -0.1
v 6 1.6 -0.1
v 6 2.5 -0.1
v 6 2.6 -0.1
v 6 2.8 -0.1
v 5.8 0.6 -0.1
v 5.8 1.3 -0.1
v 5.8 1.4 -0.1
v 5.8 1.5 -0.1
v 5.8 1.6 -0.1
v 5.8 2.5 -0.1
v 5.8 2.6 -0.1
v 5.8 2.8 -0.1
v 5.7 1.4 -0.1
v 5.7 1.6 -0.1
v 5.7 2.5 -0.1
v 5.7 2.6 -0.1
v 6.1 1.6 -0.2
v 6.1 2.3 -0.2
v 6.1 2.5 -0.2
v 6 1.4 -0.2
v 6 1.5 -0.2
v 6 1.6 -0.2
v 6 2.3 -0.2
v 6 2.4 -0.2
v 6 2.5 -0.2
v 6 2.6 -0.2
v 6 2.8 -0.2
v 6 2.9 -0.2
v 5.8 1.4 -0.2
v 5.8 1.5 -0.2
v 5.8 1.6 -0.2
v 5.8 2.3 -0.2
v 5.8 2.4 -0.2
v 5.8 2.5 -0.2
v 5.8 2.6 -0.2
v 5.8 2.8 -0.2
v 5.8 2.9 -0.2
v 5.7 1.6 -0.2
v 5.7 2.3 -0.2
v 5.7 2.5 -0.2
v 6 1.6 -0.3
v 6 2.4 -0.3
v 6 2.5 -0.3
v 5.8 1.6 -0.3
v 5.8 2.4 -0.3
v 5.8 2.5 -0.3
v 6 0.6 0.3
v 5.9 0.6 0.3
v 5.8 0.6 0.3
v 5.9 0.6 0.2
v 5.8 0.6 0.2
v 6 0.6 -0.1
v 5.8 0.6 -0.1
v 6.1 1.4 0.1
v 6 1.4 0.1
v 5.8 1.4 0.1
v 5.7 1.4 0.1
v 5.8 1.4 0
v 6.1 1.4 -0.1
v 6 1.4 -0.1
v 5.8 1.4 -0.1
v 5.7 1.4 -0.1
v 6 1.4 -0.2
v 5.8 1.4 -0.2
v 6.1 1.6 -0.1
v 6 1.6 -0.1
v 5.8 1.6 -0.1
v 5.7 1.6 -0.1
v 6.1 1.6 -0.2
v 6 1.6 -0.2
v 5.8 1.6 -0.2
v 5.7 1.6 -0.2
v 6 1.6 -0.3
v 5.8 1.6 -0.3
v 6 2.6 0.3
v 5.9 2.6 0.3
v 5.8 2.6 0.3
v 6 2.6 0.2
v 5.9 2.6 0.2
v 5.8 2.6 0.2
v 5.7 2.6 0.2
v 5.8 2.6 0.1
v 5.7 2.6 0.1
v 6 2.8 -0.1
v 5.8 2.8 -0.1
v 6 2.8 -0.2
v 5.8 2.8 -0.2
v 6 0.7 0.3
v 5.9 0.7 0.3
v 5.8 0.7 0.3
v 6 0.7 0.2
v 5.9 0.7 0.2
v 5.8 0.7 0.2
v 6.1 2.5 -0.1
v 6 2.5 -0.1
v 5.8 2.5 -0.1
v 5.7 2.5 -0.1
v 6.1 2.5 -0.2
v 6 2.5 -0.2
v 5.8 2.5 -0.2
v 5.7 2.5 -0.2
v 6 2.5 -0.3
v 5.8 2.5 -0.3
v 6.1 2.6 0.1
v 6 2.6 0.1
v 5.8 2.6 0.1
v 5.7 2.6 0.1
v 6 2.6 0
v 6.1 2.6 -0.1
v 6 2.6 -0.1
v 5.8 2.6 -0.1
v 5.7 2.6 -0.1
v 6 2.6 -0.2
v 5.8 2.6 -0.2
v 5.8 2.8 0.2
v 5.7 2.8 0.2
v 5.8 2.8 0.1
v 5.7 2.8 0.1
v 6 2.9 0.3
v 5.9 2.9 0.3
v 5.8 2.9 0.3
v 6 2.9 0.2
v 5.9 2.9 0.2
v 5.8 2.9 0.2
v 6 2.9 0.1
v 5.9 2.9 0.1
v 6 2.9 0
v 5.9 2.9 0
v 6 2.9 -0.2
v 5.8 2.9 -0.2

# faces
f 1/5/1 2/5/1 3/5/1
f 1/5/1 3/5/1 5/5/1
f 3/5/1 4/5/1 5/5/1
f 5/5/1 4/5/1 6/5/1
f 1/5/1 5/5/1 7/5/1
f 5/6/1 6/6/1 7/6/1
f 7/6/1 6/6/1 8/6/1
f 1/5/1 7/5/1 9/5/1
f 9/5/1 7/5/1 10/5/1
f 11/5/1 12/5/1 13/5/1
f 13/5/1 12/5/1 14/5/1
f 14/5/1 12/5/1 15/5/1
f 15/5/1 12/5/1 16/5/1
f 15/4/1 16/4/1 17/4/1
f 16/5/1 12/5/1 17/5/1
f 17/5/1 12/5/1 18/5/1
f 14/5/1 15/5/1 19/5/1
f 15/4/1 17/4/1 19/4/1
f 17/4/1 18/4/1 19/4/1
f 19/4/1 18/4/1 20/4/1
f 20/5/1 21/5/1 22/5/1
f 22/5/1 21/5/1 23/5/1
f 22/4/1 23/4/1 24/4/1
f 24/4/1 23/4/1 25/4/1
f 25/5/1 26/5/1 27/5/1
f 27/5/1 26/5/1 28/5/1
f 28/5/1 26/5/1 29/5/1
f 28/6/1 29/6/1 31/6/1
f 31/6/1 29/6/1 32/6/1
f 14/5/1 19/5/1 34/5/1
f 34/5/1 19/5/1 35/5/1
f 30/4/1 31/4/1 37/4/1
f 37/4/1 31/4/1 38/4/1
f 35/1/1 36/1/1 39/1/1
f 34/5/1 35/5/1 39/5/1
f 36/4/1 37/4/1 40/4/1
f 39/1/1 36/1/1 40/1/1
f 33/3/1 34/3/1 41/3/1
f 34/5/1 39/5/1 42/5/1
f 41/3/1 34/3/1 42/3/1
f 40/4/1 37/4/1 43/4/1
f 39/2/1 40/2/1 43/2/1
f 43/4/1 37/4/1 44/4/1
f 41/2/1 42/2/1 46/2/1
f 42/5/1 39/5/1 47/5/1
f 46/2/1 42/2/1 47/2/1
f 39/2/1 43/2/1 48/2/1
f 47/5/1 39/5/1 48/5/1
f 44/5/1 45/5/1 49/5/1
f 48/2/1 43/2/1 49/2/1
f 43/5/1 44/5/1 49/5/1
f 49/5/1 45/5/1 50/5/1
f 54/6/2 52/6/2 51/6/2
f 55/5/2 53/5/2 52/5/2
f 55/6/2 52/6/2 54/6/2
f 56/5/2 53/5/2 55/5/2
f 57/5/2 53/5/2 56/5/2
f 58/5/2 56/5/2 55/5/2
f 58/3/2 57/3/2 56/3/2
f 59/5/2 53/5/2 57/5/2
f 59/3/2 57/3/2 58/3/2
f 60/2/2 59/2/2 58/2/2
f 60/5/2 53/5/2 59/5/2
f 61/5/2 53/5/2 60/5/2
f 62/5/2 58/5/2 55/5/2
f 63/2/2 60/2/2 58/2/2
f 63/5/2 58/5/2 62/5/2
f 64/4/2 61/4/2 60/4/2
f 64/2/2 60/2/2 63/2/2
f 65/4/2 61/4/2 64/4/2
f 67/5/2 66/5/2 65/5/2
f 68/5/2 66/5/2 67/5/2
f 69/4/2 68/4/2 67/4/2
f 70/4/2 68/4/2 69/4/2
f 72/5/2 71/5/2 70/5/2
f 73/5/2 71/5/2 72/5/2
f 74/5/2 71/5/2 73/5/2
f 76/6/2 74/6/2 73/6/2
f 77/6/2 74/6/2 76/6/2
f 79/3/2 63/3/2 62/3/2
f 80/3/2 63/3/2 79/3/2
f 81/4/2 76/4/2 75/4/2
f 82/4/2 76/4/2 81/4/2
f 83/5/2 79/5/2 78/5/2
f 84/5/2 79/5/2 83/5/2
f 85/4/2 81/4/2 80/4/2
f 86/4/2 81/4/2 85/4/2
f 88/6/2 84/6/2 83/6/2
f 89/5/2 87/5/2 86/5/2
f 89/6/2 84/6/2 88/6/2
f 89/5/2 85/5/2 84/5/2
f 89/5/2 86/5/2 85/5/2
f 90/5/2 87/5/2 89/5/2
f 93/5/2 92/5/2 91/5/2
f 95/5/2 93/5/2 91/5/2
f 95/5/2 94/5/2 93/5/2
f 96/5/2 94/5/2 95/5/2
f 97/5/2 95/5/2 91/5/2
f 97/6/2 96/6/2 95/6/2
f 98/6/2 96/6/2 97/6/2
f 100/5/2 97/5/2 91/5/2
f 101/5/2 97/5/2 100/5/2
f 102/5/2 100/5/2 99/5/2
f 103/5/2 100/5/2 102/5/2
f 104/5/3 105/5/3 109/5/3
f 109/5/3 105/5/3 110/5/3
f 106/3/3 107/3/3 111/3/3
f 107/2/3 108/2/3 112/2/3
f 111/3/3 107/3/3 112/3/3
f 112/2/3 108/2/3 113/2/3
f 109/6/3 110/6/3 114/6/3
f 114/6/3 110/6/3 115/6/3
f 111/5/3 112/5/3 116/5/3
f 112/6/3 113/6/3 117/6/3
f 116/5/3 112/5/3 117/5/3
f 117/6/3 113/6/3 118/6/3
f 119/5/3 120/5/3 121/5/3
f 121/5/3 120/5/3 122/5/3
f 122/5/3 120/5/3 123/5/3
f 121/5/3 122/5/3 124/5/3
f 122/3/3 123/3/3 125/3/3
f 124/5/3 122/5/3 125/5/3
f 125/3/3 123/3/3 126/3/3
f 126/5/3 127/5/3 128/5/3
f 128/5/3 127/5/3 129/5/3
f 130/5/3 131/5/3 132/5/3
f 132/5/3 131/5/3 133/5/3
f 134/5/3 135/5/3 136/5/3
f 136/5/3 135/5/3 137/5/3
f 140/5/4 139/5/4 138/5/4
f 141/5/4 139/5/4 140/5/4
f 148/5/4 143/5/4 142/5/4
f 149/5/4 143/5/4 148/5/4
f 150/5/4 143/5/4 149/5/4
f 151/5/4 145/5/4 144/5/4
f 152/5/4 145/5/4 151/5/4
f 154/5/4 147/5/4 146/5/4
f 155/4/4 148/4/4 147/4/4
f 155/5/4 147/5/4 154/5/4
f 156/4/4 148/4/4 155/4/4
f 160/4/4 153/4/4 152/4/4
f 161/4/4 153/4/4 160/4/4
f 162/5/4 158/5/4 157/5/4
f 162/5/4 157/5/4 156/5/4
f 163/5/4 158/5/4 162/5/4
f 164/5/4 160/5/4 159/5/4
f 165/5/4 160/5/4 164/5/4
f 171/5/4 167/5/4 166/5/4
f 172/6/4 168/6/4 167/6/4
f 172/5/4 167/5/4 171/5/4
f 173/6/4 168/6/4 172/6/4
f 174/6/4 168/6/4 173/6/4
f 178/5/4 170/5/4 169/5/4
f 179/4/4 171/4/4 170/4/4
f 179/5/4 170/5/4 178/5/4
f 180/4/4 171/4/4 179/4/4
f 183/4/4 175/4/4 174/4/4
f 184/4/4 175/4/4 183/4/4
f 185/5/4 177/5/4 176/5/4
f 186/5/4 177/5/4 185/5/4
f 187/5/4 181/5/4 180/5/4
f 188/6/4 182/6/4 181/6/4
f 188/5/4 181/5/4 187/5/4
f 188/6/4 183/6/4 182/6/4
f 189/6/4 183/6/4 188/6/4
f 193/5/4 191/5/4 190/5/4
f 194/6/4 192/6/4 191/6/4
f 194/5/4 191/5/4 193/5/4
f 195/6/4 192/6/4 194/6/4
f 196/5/5 197/5/5 199/5/5
f 197/6/5 198/6/5 199/6/5
f 199/6/5 198/6/5 200/6/5
f 196/5/5 199/5/5 201/5/5
f 199/5/5 200/5/5 201/5/5
f 201/5/5 200/5/5 202/5/5
f 205/5/5 206/5/5 207/5/5
f 203/5/5 204/5/5 208/5/5
f 208/5/5 204/5/5 209/5/5
f 207/5/5 206/5/5 210/5/5
f 210/5/5 206/5/5 211/5/5
f 209/5/5 210/5/5 212/5/5
f 212/5/5 210/5/5 213/5/5
f 214/5/5 215/5/5 218/5/5
f 218/5/5 215/5/5 219/5/5
f 216/5/5 217/5/5 220/5/5
f 220/5/5 217/5/5 221/5/5
f 219/5/5 220/5/5 222/5/5
f 222/5/5 220/5/5 223/5/5
f 224/3/5 225/3/5 227/3/5
f 225/5/5 226/5/5 228/5/5
f 227/3/5 225/3/5 228/3/5
f 228/5/5 226/5/5 229/5/5
f 229/5/5 230/5/5 231/5/5
f 231/5/5 230/5/5 232/5/5
f 233/5/5 234/5/5 235/5/5
f 235/5/5 234/5/5 236/5/5
f 240/5/6 238/5/6 237/5/6
f 241/6/6 239/6/6 238/6/6
f 241/5/6 238/5/6 240/5/6
f 242/6/6 239/6/6 241/6/6
f 247/6/6 244/6/6 243/6/6
f 248/6/6 244/6/6 247/6/6
f 249/6/6 246/6/6 245/6/6
f 250/6/6 246/6/6 249/6/6
f 251/6/6 249/6/6 248/6/6
f 252/6/6 249/6/6 251/6/6
f 257/5/6 254/5/6 253/5/6
f 258/5/6 257/5/6 253/5/6
f 259/5/6 257/5/6 258/5/6
f 260/5/6 256/5/6 255/5/6
f 261/5/6 256/5/6 260/5/6
f 262/4/6 260/4/6 259/4/6
f 263/4/6 260/4/6 262/4/6
f 266/5/6 265/5/6 264/5/6
f 267/5/6 265/5/6 266/5/6
f 271/2/6 269/2/6 268/2/6
f 272/6/6 270/6/6 269/6/6
f 272/2/6 269/2/6 271/2/6
f 273/6/6 270/6/6 272/6/6
f 274/5/6 272/5/6 271/5/6
f 274/5/6 273/5/6 272/5/6
f 275/5/6 273/5/6 274/5/6
f 276/2/6 275/2/6 274/2/6
f 277/5/6 273/5/6 275/5/6
f 277/2/6 275/2/6 276/2/6
f 278/5/6 277/5/6 276/5/6
f 279/5/6 273/5/6 277/5/6
f 279/5/6 277/5/6 278/5/6
