# MagicaVoxel @ Ephtracy

# group
o 

# material
mtllib Head-2.mtl
usemtl palette

# normals
vn -1 0 0
vn 1 0 0
vn 0 0 1
vn 0 0 -1
vn 0 -1 0
vn 0 1 0

# texcoords
vt 0.705078 0.5
vt 0.931641 0.5
vt 0.943359 0.5

# verts
v -0.2 -0.2 0.15
v -0.2 -0.2 -0.05
v -0.2 0 0.25
v -0.2 0 0.15
v -0.2 0.1 0.25
v -0.2 0.1 0.15
v -0.2 0.3 0.15
v -0.2 0.3 -0.05
v -0.1 -0.3 0.25
v -0.1 -0.3 -0.05
v -0.1 -0.2 0.15
v -0.1 -0.2 -0.05
v -0.1 0 0.25
v -0.1 0 0.15
v -0.1 0 -0.05
v -0.1 0 -0.35
v -0.1 0.1 0.35
v -0.1 0.1 0.25
v -0.1 0.1 0.15
v -0.1 0.2 0.35
v -0.1 0.2 0.25
v -0.1 0.2 -0.05
v -0.1 0.2 -0.35
v -0.1 0.3 0.25
v -0.1 0.3 0.15
v 0.1 0 0.25
v 0.1 0 0.15
v 0.1 0.1 0.25
v 0.1 0.1 0.15
v -0.1 0 0.25
v -0.1 0 0.15
v -0.1 0.1 0.25
v -0.1 0.1 0.15
v 0.1 -0.3 0.25
v 0.1 -0.3 -0.05
v 0.1 -0.2 0.15
v 0.1 -0.2 -0.05
v 0.1 0 0.25
v 0.1 0 0.15
v 0.1 0 -0.05
v 0.1 0 -0.35
v 0.1 0.1 0.35
v 0.1 0.1 0.25
v 0.1 0.1 0.15
v 0.1 0.2 0.35
v 0.1 0.2 0.25
v 0.1 0.2 -0.05
v 0.1 0.2 -0.35
v 0.1 0.3 0.25
v 0.1 0.3 0.15
v 0.2 -0.2 0.15
v 0.2 -0.2 -0.05
v 0.2 0 0.25
v 0.2 0 0.15
v 0.2 0.1 0.25
v 0.2 0.1 0.15
v 0.2 0.3 0.15
v 0.2 0.3 -0.05
v -0.1 0.1 0.35
v -0.1 0.2 0.35
v 0.1 0.1 0.35
v 0.1 0.2 0.35
v -0.2 0 0.25
v -0.2 0.1 0.25
v -0.1 -0.3 0.25
v -0.1 0 0.25
v -0.1 0.1 0.25
v -0.1 0.2 0.25
v -0.1 0.3 0.25
v 0.1 -0.3 0.25
v 0.1 0 0.25
v 0.1 0.1 0.25
v 0.1 0.2 0.25
v 0.1 0.3 0.25
v 0.2 0 0.25
v 0.2 0.1 0.25
v -0.2 -0.2 0.15
v -0.2 0 0.15
v -0.2 0.1 0.15
v -0.2 0.3 0.15
v -0.1 -0.2 0.15
v -0.1 0 0.15
v -0.1 0.1 0.15
v -0.1 0.3 0.15
v 0.1 -0.2 0.15
v 0.1 0 0.15
v 0.1 0.1 0.15
v 0.1 0.3 0.15
v 0.2 -0.2 0.15
v 0.2 0 0.15
v 0.2 0.1 0.15
v 0.2 0.3 0.15
v -0.2 -0.2 -0.05
v -0.2 0.3 -0.05
v -0.1 -0.3 -0.05
v -0.1 -0.2 -0.05
v -0.1 0 -0.05
v -0.1 0.2 -0.05
v 0.1 -0.3 -0.05
v 0.1 -0.2 -0.05
v 0.1 0 -0.05
v 0.1 0.2 -0.05
v 0.2 -0.2 -0.05
v 0.2 0.3 -0.05
v -0.1 0 -0.35
v -0.1 0.2 -0.35
v 0.1 0 -0.35
v 0.1 0.2 -0.35
v -0.1 -0.3 0.25
v 0.1 -0.3 0.25
v -0.1 -0.3 -0.05
v 0.1 -0.3 -0.05
v -0.2 -0.2 0.15
v -0.1 -0.2 0.15
v 0.1 -0.2 0.15
v 0.2 -0.2 0.15
v -0.2 -0.2 -0.05
v -0.1 -0.2 -0.05
v 0.1 -0.2 -0.05
v 0.2 -0.2 -0.05
v -0.2 0 0.25
v -0.1 0 0.25
v 0.1 0 0.25
v 0.2 0 0.25
v -0.2 0 0.15
v -0.1 0 0.15
v 0.1 0 0.15
v 0.2 0 0.15
v -0.1 0 -0.05
v 0.1 0 -0.05
v -0.1 0 -0.35
v 0.1 0 -0.35
v -0.1 0.1 0.35
v 0.1 0.1 0.35
v -0.1 0.1 0.25
v 0.1 0.1 0.25
v -0.1 0.1 0.15
v 0.1 0.1 0.15
v -0.1 0 0.25
v 0.1 0 0.25
v -0.1 0 0.15
v 0.1 0 0.15
v -0.2 0.1 0.25
v -0.1 0.1 0.25
v 0.1 0.1 0.25
v 0.2 0.1 0.25
v -0.2 0.1 0.15
v -0.1 0.1 0.15
v 0.1 0.1 0.15
v 0.2 0.1 0.15
v -0.1 0.2 0.35
v 0.1 0.2 0.35
v -0.1 0.2 0.25
v 0.1 0.2 0.25
v -0.1 0.2 -0.05
v 0.1 0.2 -0.05
v -0.1 0.2 -0.35
v 0.1 0.2 -0.35
v -0.1 0.3 0.25
v 0.1 0.3 0.25
v -0.2 0.3 0.15
v -0.1 0.3 0.15
v 0.1 0.3 0.15
v 0.2 0.3 0.15
v -0.2 0.3 -0.05
v 0.2 0.3 -0.05

# faces
f 4/3/1 2/3/1 1/3/1
f 5/3/1 4/3/1 3/3/1
f 6/3/1 2/3/1 4/3/1
f 6/3/1 4/3/1 5/3/1
f 7/3/1 2/3/1 6/3/1
f 8/3/1 2/3/1 7/3/1
f 11/3/1 10/3/1 9/3/1
f 12/3/1 10/3/1 11/3/1
f 13/3/1 11/3/1 9/3/1
f 14/3/1 11/3/1 13/3/1
f 20/3/1 18/3/1 17/3/1
f 20/3/1 19/3/1 18/3/1
f 21/3/1 19/3/1 20/3/1
f 22/1/1 16/1/1 15/1/1
f 23/1/1 16/1/1 22/1/1
f 24/3/1 19/3/1 21/3/1
f 25/3/1 19/3/1 24/3/1
f 28/3/1 27/3/1 26/3/1
f 29/3/1 27/3/1 28/3/1
f 30/3/2 31/3/2 32/3/2
f 32/3/2 31/3/2 33/3/2
f 34/3/2 35/3/2 36/3/2
f 36/3/2 35/3/2 37/3/2
f 34/3/2 36/3/2 38/3/2
f 38/3/2 36/3/2 39/3/2
f 42/3/2 43/3/2 45/3/2
f 43/3/2 44/3/2 45/3/2
f 45/3/2 44/3/2 46/3/2
f 40/1/2 41/1/2 47/1/2
f 47/1/2 41/1/2 48/1/2
f 46/3/2 44/3/2 49/3/2
f 49/3/2 44/3/2 50/3/2
f 51/3/2 52/3/2 54/3/2
f 53/3/2 54/3/2 55/3/2
f 54/3/2 52/3/2 56/3/2
f 55/3/2 54/3/2 56/3/2
f 56/3/2 52/3/2 57/3/2
f 57/3/2 52/3/2 58/3/2
f 61/3/3 60/3/3 59/3/3
f 62/3/3 60/3/3 61/3/3
f 66/3/3 64/3/3 63/3/3
f 67/3/3 64/3/3 66/3/3
f 70/3/3 66/3/3 65/3/3
f 71/3/3 66/3/3 70/3/3
f 73/3/3 69/3/3 68/3/3
f 74/3/3 69/3/3 73/3/3
f 75/3/3 72/3/3 71/3/3
f 76/3/3 72/3/3 75/3/3
f 81/3/3 78/3/3 77/3/3
f 82/3/3 78/3/3 81/3/3
f 83/3/3 80/3/3 79/3/3
f 84/3/3 80/3/3 83/3/3
f 86/2/3 83/2/3 82/2/3
f 87/2/3 83/2/3 86/2/3
f 89/3/3 86/3/3 85/3/3
f 90/3/3 86/3/3 89/3/3
f 91/3/3 88/3/3 87/3/3
f 92/3/3 88/3/3 91/3/3
f 93/3/4 94/3/4 96/3/4
f 96/3/4 94/3/4 97/3/4
f 97/3/4 94/3/4 98/3/4
f 95/3/4 96/3/4 99/3/4
f 96/3/4 97/3/4 99/3/4
f 99/3/4 97/3/4 100/3/4
f 100/3/4 97/3/4 101/3/4
f 98/3/4 94/3/4 102/3/4
f 100/3/4 101/3/4 103/3/4
f 101/3/4 102/3/4 103/3/4
f 102/3/4 94/3/4 104/3/4
f 103/3/4 102/3/4 104/3/4
f 105/1/4 106/1/4 107/1/4
f 107/1/4 106/1/4 108/1/4
f 111/3/5 110/3/5 109/3/5
f 112/3/5 110/3/5 111/3/5
f 117/3/5 114/3/5 113/3/5
f 118/3/5 114/3/5 117/3/5
f 119/3/5 116/3/5 115/3/5
f 120/3/5 116/3/5 119/3/5
f 125/3/5 122/3/5 121/3/5
f 126/3/5 122/3/5 125/3/5
f 127/3/5 124/3/5 123/3/5
f 128/3/5 124/3/5 127/3/5
f 131/1/5 130/1/5 129/1/5
f 132/1/5 130/1/5 131/1/5
f 135/3/5 134/3/5 133/3/5
f 136/3/5 134/3/5 135/3/5
f 137/3/5 136/3/5 135/3/5
f 138/3/5 136/3/5 137/3/5
f 139/3/6 140/3/6 141/3/6
f 141/3/6 140/3/6 142/3/6
f 143/3/6 144/3/6 147/3/6
f 147/3/6 144/3/6 148/3/6
f 145/3/6 146/3/6 149/3/6
f 149/3/6 146/3/6 150/3/6
f 151/3/6 152/3/6 153/3/6
f 153/3/6 152/3/6 154/3/6
f 155/1/6 156/1/6 157/1/6
f 157/1/6 156/1/6 158/1/6
f 159/3/6 160/3/6 162/3/6
f 162/3/6 160/3/6 163/3/6
f 161/3/6 162/3/6 165/3/6
f 163/3/6 164/3/6 165/3/6
f 162/3/6 163/3/6 165/3/6
f 165/3/6 164/3/6 166/3/6
