# MagicaVoxel @ Ephtracy

# group
o 

# material
mtllib Head-3.mtl
usemtl palette

# normals
vn -1 0 0
vn 1 0 0
vn 0 0 1
vn 0 0 -1
vn 0 -1 0
vn 0 1 0

# texcoords
vt 0.708984 0.5
vt 0.857422 0.5
vt 0.876953 0.5
vt 0.880859 0.5

# verts
v -0.2 -0.2 0.15
v -0.2 -0.2 -0.05
v -0.2 0 -0.05
v -0.2 0 -0.25
v -0.2 0.1 0.15
v -0.2 0.1 -0.25
v -0.1 -0.2 0.25
v -0.1 -0.2 0.15
v -0.1 -0.2 -0.05
v -0.1 -0.2 -0.15
v -0.1 -0.1 0.25
v -0.1 -0.1 0.15
v -0.1 0 0.35
v -0.1 0 0.25
v -0.1 0 0.15
v -0.1 0 -0.05
v -0.1 0 -0.15
v -0.1 0.1 0.35
v -0.1 0.1 0.25
v -0.1 0.1 0.15
v -0.1 0.1 -0.25
v -0.1 0.1 -0.35
v -0.1 0.2 0.25
v -0.1 0.2 -0.35
v 0.1 0 -0.15
v 0.1 0 -0.25
v 0.1 0.1 -0.15
v 0.1 0.1 -0.25
v -0.1 0 -0.15
v -0.1 0 -0.25
v -0.1 0.1 -0.15
v -0.1 0.1 -0.25
v 0.1 -0.2 0.25
v 0.1 -0.2 0.15
v 0.1 -0.2 -0.05
v 0.1 -0.2 -0.15
v 0.1 -0.1 0.25
v 0.1 -0.1 0.15
v 0.1 0 0.35
v 0.1 0 0.25
v 0.1 0 0.15
v 0.1 0 -0.05
v 0.1 0 -0.15
v 0.1 0.1 0.35
v 0.1 0.1 0.25
v 0.1 0.1 0.15
v 0.1 0.1 -0.25
v 0.1 0.1 -0.35
v 0.1 0.2 0.25
v 0.1 0.2 -0.35
v 0.2 -0.2 0.15
v 0.2 -0.2 -0.05
v 0.2 0 -0.05
v 0.2 0 -0.25
v 0.2 0.1 0.15
v 0.2 0.1 -0.25
v -0.1 0 0.35
v -0.1 0.1 0.35
v 0.1 0 0.35
v 0.1 0.1 0.35
v -0.1 -0.2 0.25
v -0.1 -0.1 0.25
v -0.1 0 0.25
v -0.1 0.1 0.25
v -0.1 0.2 0.25
v 0.1 -0.2 0.25
v 0.1 -0.1 0.25
v 0.1 0 0.25
v 0.1 0.1 0.25
v 0.1 0.2 0.25
v -0.2 -0.2 0.15
v -0.2 0.1 0.15
v -0.1 -0.2 0.15
v -0.1 -0.1 0.15
v -0.1 0 0.15
v -0.1 0.1 0.15
v 0.1 -0.2 0.15
v 0.1 -0.1 0.15
v 0.1 0 0.15
v 0.1 0.1 0.15
v 0.2 -0.2 0.15
v 0.2 0.1 0.15
v -0.2 -0.2 -0.05
v -0.2 0 -0.05
v -0.1 -0.2 -0.05
v -0.1 0 -0.05
v 0.1 -0.2 -0.05
v 0.1 0 -0.05
v 0.2 -0.2 -0.05
v 0.2 0 -0.05
v -0.1 -0.2 -0.15
v -0.1 0 -0.15
v -0.1 0.1 -0.15
v 0.1 -0.2 -0.15
v 0.1 0 -0.15
v 0.1 0.1 -0.15
v -0.2 0 -0.25
v -0.2 0.1 -0.25
v -0.1 0 -0.25
v -0.1 0.1 -0.25
v 0.1 0 -0.25
v 0.1 0.1 -0.25
v 0.2 0 -0.25
v 0.2 0.1 -0.25
v -0.1 0.1 -0.35
v -0.1 0.2 -0.35
v 0.1 0.1 -0.35
v 0.1 0.2 -0.35
v -0.1 -0.2 0.25
v 0.1 -0.2 0.25
v -0.2 -0.2 0.15
v -0.1 -0.2 0.15
v 0.1 -0.2 0.15
v 0.2 -0.2 0.15
v -0.2 -0.2 -0.05
v -0.1 -0.2 -0.05
v 0.1 -0.2 -0.05
v 0.2 -0.2 -0.05
v -0.1 -0.2 -0.15
v 0.1 -0.2 -0.15
v -0.1 0 0.35
v 0.1 0 0.35
v -0.1 0 0.25
v 0.1 0 0.25
v -0.2 0 -0.05
v -0.1 0 -0.05
v 0.1 0 -0.05
v 0.2 0 -0.05
v -0.1 0 -0.15
v 0.1 0 -0.15
v -0.2 0 -0.25
v -0.1 0 -0.25
v 0.1 0 -0.25
v 0.2 0 -0.25
v -0.1 0.1 -0.15
v 0.1 0.1 -0.15
v -0.1 0.1 -0.25
v 0.1 0.1 -0.25
v -0.1 0.1 -0.35
v 0.1 0.1 -0.35
v -0.1 0.1 0.35
v 0.1 0.1 0.35
v -0.1 0.1 0.25
v 0.1 0.1 0.25
v -0.2 0.1 0.15
v -0.1 0.1 0.15
v 0.1 0.1 0.15
v 0.2 0.1 0.15
v -0.2 0.1 -0.25
v -0.1 0.1 -0.25
v 0.1 0.1 -0.25
v 0.2 0.1 -0.25
v -0.1 0.2 0.25
v 0.1 0.2 0.25
v -0.1 0.2 -0.35
v 0.1 0.2 -0.35

# faces
f 3/4/1 2/4/1 1/4/1
f 5/4/1 3/4/1 1/4/1
f 5/4/1 4/4/1 3/4/1
f 6/4/1 4/4/1 5/4/1
f 11/1/1 8/1/1 7/1/1
f 12/1/1 8/1/1 11/1/1
f 14/2/1 12/2/1 11/2/1
f 15/2/1 12/2/1 14/2/1
f 16/1/1 10/1/1 9/1/1
f 17/1/1 10/1/1 16/1/1
f 18/1/1 14/1/1 13/1/1
f 19/3/1 15/3/1 14/3/1
f 19/1/1 14/1/1 18/1/1
f 20/3/1 15/3/1 19/3/1
f 23/3/1 20/3/1 19/3/1
f 23/3/1 22/3/1 21/3/1
f 23/3/1 21/3/1 20/3/1
f 24/3/1 22/3/1 23/3/1
f 27/4/1 26/4/1 25/4/1
f 28/4/1 26/4/1 27/4/1
f 29/4/2 30/4/2 31/4/2
f 31/4/2 30/4/2 32/4/2
f 33/1/2 34/1/2 37/1/2
f 37/1/2 34/1/2 38/1/2
f 37/2/2 38/2/2 40/2/2
f 40/2/2 38/2/2 41/2/2
f 35/1/2 36/1/2 42/1/2
f 42/1/2 36/1/2 43/1/2
f 39/1/2 40/1/2 44/1/2
f 40/3/2 41/3/2 45/3/2
f 44/1/2 40/1/2 45/1/2
f 45/3/2 41/3/2 46/3/2
f 45/3/2 46/3/2 49/3/2
f 47/3/2 48/3/2 49/3/2
f 46/3/2 47/3/2 49/3/2
f 49/3/2 48/3/2 50/3/2
f 51/4/2 52/4/2 53/4/2
f 51/4/2 53/4/2 55/4/2
f 53/4/2 54/4/2 55/4/2
f 55/4/2 54/4/2 56/4/2
f 59/1/3 58/1/3 57/1/3
f 60/1/3 58/1/3 59/1/3
f 66/1/3 62/1/3 61/1/3
f 67/2/3 63/2/3 62/2/3
f 67/1/3 62/1/3 66/1/3
f 68/2/3 63/2/3 67/2/3
f 69/3/3 65/3/3 64/3/3
f 70/3/3 65/3/3 69/3/3
f 73/4/3 72/4/3 71/4/3
f 74/4/3 72/4/3 73/4/3
f 75/4/3 72/4/3 74/4/3
f 76/4/3 72/4/3 75/4/3
f 81/4/3 78/4/3 77/4/3
f 81/4/3 80/4/3 79/4/3
f 81/4/3 79/4/3 78/4/3
f 82/4/3 80/4/3 81/4/3
f 83/4/4 84/4/4 85/4/4
f 85/4/4 84/4/4 86/4/4
f 87/4/4 88/4/4 89/4/4
f 89/4/4 88/4/4 90/4/4
f 91/1/4 92/1/4 94/1/4
f 92/1/4 93/1/4 94/1/4
f 94/1/4 93/1/4 95/1/4
f 95/1/4 93/1/4 96/1/4
f 97/4/4 98/4/4 99/4/4
f 99/4/4 98/4/4 100/4/4
f 101/4/4 102/4/4 103/4/4
f 103/4/4 102/4/4 104/4/4
f 105/3/4 106/3/4 107/3/4
f 107/3/4 106/3/4 108/3/4
f 112/1/5 110/1/5 109/1/5
f 113/1/5 110/1/5 112/1/5
f 115/4/5 112/4/5 111/4/5
f 116/1/5 113/1/5 112/1/5
f 116/4/5 112/4/5 115/4/5
f 117/4/5 114/4/5 113/4/5
f 117/1/5 113/1/5 116/1/5
f 118/4/5 114/4/5 117/4/5
f 119/1/5 117/1/5 116/1/5
f 120/1/5 117/1/5 119/1/5
f 123/1/5 122/1/5 121/1/5
f 124/1/5 122/1/5 123/1/5
f 129/4/5 126/4/5 125/4/5
f 130/4/5 128/4/5 127/4/5
f 131/4/5 129/4/5 125/4/5
f 132/4/5 129/4/5 131/4/5
f 133/4/5 128/4/5 130/4/5
f 134/4/5 128/4/5 133/4/5
f 137/3/5 136/3/5 135/3/5
f 138/3/5 136/3/5 137/3/5
f 139/3/5 138/3/5 137/3/5
f 140/3/5 138/3/5 139/3/5
f 141/1/6 142/1/6 143/1/6
f 143/1/6 142/1/6 144/1/6
f 145/4/6 146/4/6 149/4/6
f 149/4/6 146/4/6 150/4/6
f 147/4/6 148/4/6 151/4/6
f 151/4/6 148/4/6 152/4/6
f 153/3/6 154/3/6 155/3/6
f 155/3/6 154/3/6 156/3/6
