# MagicaVoxel @ Ephtracy

# group
o Thigh_04_R

# material
mtllib Body-28-Thigh_04_R.mtl
usemtl palette

# normals
vn -1 0 0
vn 1 0 0
vn 0 0 1
vn 0 0 -1
vn 0 -1 0
vn 0 1 0

# texcoords
vt 0.478516 0.5
vt 0.482422 0.5
vt 0.783203 0.5
vt 0.787109 0.5
vt 0.791016 0.5
vt 0.794922 0.5

# verts
v -0.7 3.2 0.2
v -0.7 3.2 -0.1
v -0.7 3.4 0.2
v -0.7 3.4 0.1
v -0.7 3.4 -0.1
v -0.7 3.4 -0.2
v -0.7 3.5 0.2
v -0.7 3.5 0.1
v -0.7 3.6 0.2
v -0.7 3.6 0.1
v -0.7 3.9 0.2
v -0.7 3.9 0.1
v -0.7 4 0.2
v -0.7 4 0.1
v -0.7 4.1 0.2
v -0.7 4.1 0.1
v -0.7 4.4 0.2
v -0.7 4.4 -0.2
v -0.7 4.5 0.2
v -0.7 4.5 -0.1
v -0.7 4.5 -0.2
v -0.7 4.6 0.2
v -0.7 4.6 0
v -0.7 4.7 0.2
v -0.7 4.7 0
v -0.7 4.7 -0.1
v -0.6 2.8 0.2
v -0.6 2.8 -0.1
v -0.6 2.9 0.3
v -0.6 2.9 0.2
v -0.6 3 0
v -0.6 3 -0.1
v -0.6 3.2 0.2
v -0.6 3.2 0
v -0.6 3.2 -0.1
v -0.6 3.2 -0.2
v -0.6 3.4 0.3
v -0.6 3.4 0.2
v -0.6 3.4 -0.1
v -0.6 3.4 -0.2
v -0.6 3.4 -0.3
v -0.6 3.5 0.3
v -0.6 3.5 0.2
v -0.6 3.6 0.3
v -0.6 3.6 0.2
v -0.6 3.7 0.3
v -0.6 3.7 0.2
v -0.6 3.9 0.3
v -0.6 3.9 0.2
v -0.6 4 0.3
v -0.6 4 0.2
v -0.6 4.1 0.3
v -0.6 4.1 0.2
v -0.6 4.2 0.3
v -0.6 4.2 0.2
v -0.6 4.3 -0.2
v -0.6 4.3 -0.3
v -0.6 4.4 0.2
v -0.6 4.4 -0.2
v -0.6 4.5 0.3
v -0.6 4.5 0.2
v -0.6 4.5 -0.2
v -0.6 4.5 -0.3
v -0.6 4.6 0.3
v -0.6 4.6 0.2
v -0.6 4.7 0.3
v -0.6 4.7 0.2
v -0.5 2.9 -0.1
v -0.5 2.9 -0.2
v -0.5 3 -0.1
v -0.5 3.2 -0.1
v -0.5 3.2 -0.2
v -0.5 3.2 -0.3
v -0.5 3.3 -0.2
v -0.5 3.3 -0.3
v -0.5 3.4 -0.2
v -0.5 3.4 -0.3
v -0.3 2.8 0.2
v -0.3 2.8 0.1
v -0.3 2.8 0
v -0.3 2.8 -0.1
v -0.3 2.9 0.3
v -0.3 2.9 0.2
v -0.3 2.9 0.1
v -0.3 2.9 0
v -0.3 2.9 -0.1
v -0.3 3 0.3
v -0.3 3 0.2
v -0.6 4.6 0
v -0.6 4.6 -0.1
v -0.6 4.7 0
v -0.6 4.7 -0.1
v -0.5 2.8 0.2
v -0.5 2.8 -0.1
v -0.5 2.9 0.3
v -0.5 2.9 0.2
v -0.5 2.9 -0.1
v -0.5 3 0.3
v -0.5 3 0.2
v -0.5 4.3 -0.2
v -0.5 4.3 -0.3
v -0.5 4.4 -0.1
v -0.5 4.4 -0.2
v -0.5 4.5 0
v -0.5 4.5 -0.1
v -0.5 4.5 -0.2
v -0.5 4.5 -0.3
v -0.5 4.6 0.3
v -0.5 4.6 0.2
v -0.5 4.6 0
v -0.5 4.6 -0.1
v -0.5 4.7 0.3
v -0.5 4.7 0.2
v -0.5 4.7 0
v -0.3 2.9 -0.1
v -0.3 2.9 -0.2
v -0.3 3 -0.1
v -0.3 3 -0.2
v -0.3 4.5 0.3
v -0.3 4.5 0.2
v -0.3 4.5 0
v -0.3 4.6 0.3
v -0.3 4.6 0
v -0.2 2.8 0.2
v -0.2 2.8 0.1
v -0.2 2.8 0
v -0.2 2.8 -0.1
v -0.2 2.9 0.3
v -0.2 2.9 0.2
v -0.2 2.9 0.1
v -0.2 2.9 0
v -0.2 2.9 -0.1
v -0.2 3 0.1
v -0.2 3 0
v -0.2 3 -0.1
v -0.2 3 -0.2
v -0.2 3.1 0.3
v -0.2 3.1 0.2
v -0.2 3.2 0.3
v -0.2 3.2 0.2
v -0.2 3.2 0.1
v -0.2 3.2 -0.1
v -0.2 3.2 -0.2
v -0.2 3.2 -0.3
v -0.2 3.3 0.3
v -0.2 3.3 0.2
v -0.2 3.3 0.1
v -0.2 3.6 0.3
v -0.2 3.6 0.1
v -0.2 3.7 0.3
v -0.2 3.7 0.1
v -0.2 3.8 0.3
v -0.2 3.8 0.1
v -0.2 3.9 0.3
v -0.2 3.9 0.1
v -0.2 4 0.3
v -0.2 4 0.2
v -0.2 4.1 0.3
v -0.2 4.1 0.2
v -0.2 4.1 -0.2
v -0.2 4.1 -0.3
v -0.2 4.2 0.1
v -0.2 4.2 -0.2
v -0.2 4.3 -0.1
v -0.2 4.3 -0.2
v -0.2 4.3 -0.3
v -0.2 4.4 0.2
v -0.2 4.4 0.1
v -0.2 4.4 0
v -0.2 4.4 -0.1
v -0.2 4.4 -0.2
v -0.2 4.5 0.3
v -0.2 4.5 0.2
v -0.2 4.5 0.1
v -0.2 4.5 0
v -0.2 4.5 -0.1
v -0.1 3 0.1
v -0.1 3 0
v -0.1 3 -0.1
v -0.1 3.2 0.1
v -0.1 3.2 0
v -0.1 3.2 -0.1
v -0.1 3.2 -0.2
v -0.1 3.3 0.1
v -0.1 3.3 0
v -0.1 3.6 0.1
v -0.1 3.6 0
v -0.1 3.7 0.1
v -0.1 3.7 0
v -0.1 3.8 0.1
v -0.1 3.8 0
v -0.1 3.9 0.1
v -0.1 3.9 0
v -0.1 4.1 0
v -0.1 4.1 -0.2
v -0.1 4.2 0.1
v -0.1 4.2 0
v -0.1 4.2 -0.1
v -0.1 4.2 -0.2
v -0.1 4.3 0
v -0.1 4.3 -0.1
v -0.1 4.3 -0.2
v -0.1 4.4 0.1
v -0.1 4.4 0
v -0.1 4.4 -0.1
v -0.1 4.5 0.1
v -0.1 4.5 0
v -0.6 2.9 0.3
v -0.6 3.4 0.3
v -0.6 3.5 0.3
v -0.6 3.6 0.3
v -0.6 3.7 0.3
v -0.6 3.9 0.3
v -0.6 4 0.3
v -0.6 4.1 0.3
v -0.6 4.2 0.3
v -0.6 4.5 0.3
v -0.6 4.6 0.3
v -0.6 4.7 0.3
v -0.5 2.9 0.3
v -0.5 3 0.3
v -0.5 3.5 0.3
v -0.5 3.6 0.3
v -0.5 3.7 0.3
v -0.5 3.8 0.3
v -0.5 3.9 0.3
v -0.5 4 0.3
v -0.5 4.1 0.3
v -0.5 4.2 0.3
v -0.5 4.5 0.3
v -0.5 4.6 0.3
v -0.5 4.7 0.3
v -0.4 3.4 0.3
v -0.4 3.5 0.3
v -0.4 3.6 0.3
v -0.4 3.7 0.3
v -0.4 3.8 0.3
v -0.4 3.9 0.3
v -0.4 4 0.3
v -0.4 4.1 0.3
v -0.3 2.9 0.3
v -0.3 3 0.3
v -0.3 3.1 0.3
v -0.3 3.2 0.3
v -0.3 3.3 0.3
v -0.3 3.5 0.3
v -0.3 3.6 0.3
v -0.3 3.7 0.3
v -0.3 3.8 0.3
v -0.3 3.9 0.3
v -0.3 4 0.3
v -0.3 4.1 0.3
v -0.3 4.2 0.3
v -0.3 4.5 0.3
v -0.3 4.6 0.3
v -0.2 2.9 0.3
v -0.2 3.1 0.3
v -0.2 3.2 0.3
v -0.2 3.3 0.3
v -0.2 3.6 0.3
v -0.2 3.7 0.3
v -0.2 3.8 0.3
v -0.2 3.9 0.3
v -0.2 4 0.3
v -0.2 4.1 0.3
v -0.2 4.5 0.3
v -0.7 3.2 0.2
v -0.7 3.4 0.2
v -0.7 3.5 0.2
v -0.7 3.6 0.2
v -0.7 3.9 0.2
v -0.7 4 0.2
v -0.7 4.1 0.2
v -0.7 4.4 0.2
v -0.7 4.5 0.2
v -0.7 4.6 0.2
v -0.7 4.7 0.2
v -0.6 2.8 0.2
v -0.6 2.9 0.2
v -0.6 3.2 0.2
v -0.6 3.4 0.2
v -0.6 3.5 0.2
v -0.6 3.6 0.2
v -0.6 3.7 0.2
v -0.6 3.9 0.2
v -0.6 4 0.2
v -0.6 4.1 0.2
v -0.6 4.2 0.2
v -0.6 4.4 0.2
v -0.6 4.5 0.2
v -0.6 4.6 0.2
v -0.6 4.7 0.2
v -0.5 2.8 0.2
v -0.5 2.9 0.2
v -0.5 3 0.2
v -0.3 2.8 0.2
v -0.3 2.9 0.2
v -0.3 3 0.2
v -0.2 2.8 0.2
v -0.2 2.9 0.2
v -0.2 3 0.1
v -0.2 3.2 0.1
v -0.2 3.3 0.1
v -0.2 3.6 0.1
v -0.2 3.7 0.1
v -0.2 3.8 0.1
v -0.2 3.9 0.1
v -0.2 4.2 0.1
v -0.2 4.4 0.1
v -0.2 4.5 0.1
v -0.1 3 0.1
v -0.1 3.2 0.1
v -0.1 3.3 0.1
v -0.1 3.6 0.1
v -0.1 3.7 0.1
v -0.1 3.8 0.1
v -0.1 3.9 0.1
v -0.1 4.2 0.1
v -0.1 4.4 0.1
v -0.1 4.5 0.1
v -0.6 4.6 0
v -0.6 4.7 0
v -0.5 4.5 0
v -0.5 4.6 0
v -0.5 4.7 0
v -0.3 4.5 0
v -0.3 4.6 0
v -0.2 4.4 0
v -0.2 4.5 0
v -0.1 4.4 0
v -0.1 4.5 0
v -0.7 3.2 -0.1
v -0.7 3.4 -0.1
v -0.7 4.5 -0.1
v -0.7 4.7 -0.1
v -0.6 2.8 -0.1
v -0.6 3 -0.1
v -0.6 3.2 -0.1
v -0.6 3.4 -0.1
v -0.6 4.5 -0.1
v -0.6 4.6 -0.1
v -0.6 4.7 -0.1
v -0.5 2.8 -0.1
v -0.5 2.9 -0.1
v -0.5 3 -0.1
v -0.5 3.2 -0.1
v -0.5 4.4 -0.1
v -0.5 4.5 -0.1
v -0.5 4.6 -0.1
v -0.3 2.8 -0.1
v -0.3 2.9 -0.1
v -0.3 3 -0.1
v -0.2 2.8 -0.1
v -0.2 2.9 -0.1
v -0.2 3 -0.1
v -0.2 3.2 -0.1
v -0.2 4.3 -0.1
v -0.2 4.4 -0.1
v -0.2 4.5 -0.1
v -0.1 3 -0.1
v -0.1 3.2 -0.1
v -0.1 4.3 -0.1
v -0.1 4.4 -0.1
v -0.7 3.4 -0.2
v -0.7 4.4 -0.2
v -0.7 4.5 -0.2
v -0.6 3.2 -0.2
v -0.6 3.4 -0.2
v -0.6 4.3 -0.2
v -0.6 4.4 -0.2
v -0.6 4.5 -0.2
v -0.5 2.9 -0.2
v -0.5 3.2 -0.2
v -0.5 3.3 -0.2
v -0.5 3.4 -0.2
v -0.5 4.3 -0.2
v -0.5 4.4 -0.2
v -0.4 2.9 -0.2
v -0.4 3 -0.2
v -0.3 2.9 -0.2
v -0.3 3 -0.2
v -0.3 3.2 -0.2
v -0.2 3 -0.2
v -0.2 3.2 -0.2
v -0.2 4.1 -0.2
v -0.2 4.2 -0.2
v -0.2 4.3 -0.2
v -0.2 4.4 -0.2
v -0.1 3.2 -0.2
v -0.1 4.1 -0.2
v -0.1 4.2 -0.2
v -0.1 4.3 -0.2
v -0.6 3.4 -0.3
v -0.6 4.3 -0.3
v -0.6 4.5 -0.3
v -0.5 3.2 -0.3
v -0.5 3.3 -0.3
v -0.5 3.4 -0.3
v -0.5 4.2 -0.3
v -0.5 4.3 -0.3
v -0.5 4.5 -0.3
v -0.3 3.2 -0.3
v -0.3 3.3 -0.3
v -0.3 4.1 -0.3
v -0.3 4.2 -0.3
v -0.2 3.2 -0.3
v -0.2 4.1 -0.3
v -0.2 4.3 -0.3
v -0.6 2.8 0.2
v -0.5 2.8 0.2
v -0.3 2.8 0.2
v -0.2 2.8 0.2
v -0.3 2.8 0.1
v -0.2 2.8 0.1
v -0.3 2.8 0
v -0.2 2.8 0
v -0.6 2.8 -0.1
v -0.5 2.8 -0.1
v -0.3 2.8 -0.1
v -0.2 2.8 -0.1
v -0.6 2.9 0.3
v -0.5 2.9 0.3
v -0.3 2.9 0.3
v -0.2 2.9 0.3
v -0.6 2.9 0.2
v -0.5 2.9 0.2
v -0.3 2.9 0.2
v -0.2 2.9 0.2
v -0.3 2.9 0.1
v -0.3 2.9 0
v -0.5 2.9 -0.1
v -0.4 2.9 -0.1
v -0.3 2.9 -0.1
v -0.5 2.9 -0.2
v -0.4 2.9 -0.2
v -0.3 2.9 -0.2
v -0.5 3 0.3
v -0.3 3 0.3
v -0.5 3 0.2
v -0.3 3 0.2
v -0.2 3 0.1
v -0.1 3 0.1
v -0.2 3 0
v -0.1 3 0
v -0.3 3 -0.1
v -0.2 3 -0.1
v -0.1 3 -0.1
v -0.3 3 -0.2
v -0.2 3 -0.2
v -0.7 3.2 0.2
v -0.6 3.2 0.2
v -0.6 3.2 0
v -0.7 3.2 -0.1
v -0.6 3.2 -0.1
v -0.5 3.2 -0.1
v -0.2 3.2 -0.1
v -0.1 3.2 -0.1
v -0.6 3.2 -0.2
v -0.5 3.2 -0.2
v -0.3 3.2 -0.2
v -0.2 3.2 -0.2
v -0.1 3.2 -0.2
v -0.5 3.2 -0.3
v -0.3 3.2 -0.3
v -0.2 3.2 -0.3
v -0.7 3.4 -0.1
v -0.6 3.4 -0.1
v -0.7 3.4 -0.2
v -0.6 3.4 -0.2
v -0.5 3.4 -0.2
v -0.6 3.4 -0.3
v -0.5 3.4 -0.3
v -0.2 4.3 -0.1
v -0.1 4.3 -0.1
v -0.5 4.3 -0.2
v -0.2 4.3 -0.2
v -0.1 4.3 -0.2
v -0.5 4.3 -0.3
v -0.2 4.3 -0.3
v -0.2 4.4 0
v -0.1 4.4 0
v -0.5 4.4 -0.1
v -0.2 4.4 -0.1
v -0.1 4.4 -0.1
v -0.5 4.4 -0.2
v -0.2 4.4 -0.2
v -0.3 4.5 0.3
v -0.2 4.5 0.3
v -0.3 4.5 0.2
v -0.2 4.5 0.2
v -0.2 4.5 0.1
v -0.1 4.5 0.1
v -0.5 4.5 0
v -0.3 4.5 0
v -0.2 4.5 0
v -0.1 4.5 0
v -0.7 4.5 -0.1
v -0.6 4.5 -0.1
v -0.5 4.5 -0.1
v -0.2 4.5 -0.1
v -0.7 4.5 -0.2
v -0.6 4.5 -0.2
v -0.5 4.5 -0.2
v -0.6 4.5 -0.3
v -0.5 4.5 -0.3
v -0.5 4.6 0.3
v -0.3 4.6 0.3
v -0.5 4.6 0.2
v -0.6 4.6 0
v -0.5 4.6 0
v -0.3 4.6 0
v -0.6 4.6 -0.1
v -0.5 4.6 -0.1
v -0.6 4.7 0.3
v -0.5 4.7 0.3
v -0.7 4.7 0.2
v -0.6 4.7 0.2
v -0.5 4.7 0.2
v -0.7 4.7 0
v -0.6 4.7 0
v -0.5 4.7 0
v -0.7 4.7 -0.1
v -0.6 4.7 -0.1

# faces
f 3/5/1 2/5/1 1/5/1
f 4/5/1 2/5/1 3/5/1
f 5/5/1 2/5/1 4/5/1
f 7/4/1 4/4/1 3/4/1
f 8/5/1 6/5/1 5/5/1
f 8/4/1 4/4/1 7/4/1
f 8/5/1 5/5/1 4/5/1
f 9/1/1 8/1/1 7/1/1
f 10/5/1 6/5/1 8/5/1
f 10/1/1 8/1/1 9/1/1
f 11/5/1 10/5/1 9/5/1
f 12/5/1 6/5/1 10/5/1
f 12/5/1 10/5/1 11/5/1
f 13/6/1 12/6/1 11/6/1
f 14/5/1 6/5/1 12/5/1
f 14/6/1 12/6/1 13/6/1
f 15/1/1 14/1/1 13/1/1
f 16/5/1 6/5/1 14/5/1
f 16/1/1 14/1/1 15/1/1
f 17/5/1 16/5/1 15/5/1
f 18/5/1 6/5/1 16/5/1
f 18/5/1 16/5/1 17/5/1
f 19/4/1 18/4/1 17/4/1
f 20/4/1 18/4/1 19/4/1
f 21/4/1 18/4/1 20/4/1
f 22/3/1 20/3/1 19/3/1
f 23/3/1 20/3/1 22/3/1
f 24/5/1 23/5/1 22/5/1
f 25/3/1 20/3/1 23/3/1
f 25/5/1 23/5/1 24/5/1
f 26/3/1 20/3/1 25/3/1
f 30/5/1 28/5/1 27/5/1
f 31/5/1 28/5/1 30/5/1
f 31/5/1 30/5/1 29/5/1
f 32/5/1 28/5/1 31/5/1
f 33/5/1 31/5/1 29/5/1
f 34/4/1 32/4/1 31/4/1
f 34/5/1 31/5/1 33/5/1
f 35/4/1 32/4/1 34/4/1
f 37/5/1 33/5/1 29/5/1
f 38/5/1 33/5/1 37/5/1
f 39/5/1 36/5/1 35/5/1
f 40/5/1 36/5/1 39/5/1
f 42/6/1 38/6/1 37/6/1
f 43/6/1 38/6/1 42/6/1
f 44/2/1 43/2/1 42/2/1
f 45/2/1 43/2/1 44/2/1
f 46/4/1 45/4/1 44/4/1
f 47/4/1 45/4/1 46/4/1
f 48/5/1 47/5/1 46/5/1
f 49/5/1 47/5/1 48/5/1
f 50/6/1 49/6/1 48/6/1
f 51/6/1 49/6/1 50/6/1
f 52/2/1 51/2/1 50/2/1
f 53/2/1 51/2/1 52/2/1
f 54/6/1 53/6/1 52/6/1
f 55/6/1 53/6/1 54/6/1
f 56/5/1 41/5/1 40/5/1
f 57/5/1 41/5/1 56/5/1
f 58/5/1 55/5/1 54/5/1
f 59/4/1 57/4/1 56/4/1
f 60/5/1 58/5/1 54/5/1
f 61/5/1 58/5/1 60/5/1
f 62/4/1 57/4/1 59/4/1
f 63/4/1 57/4/1 62/4/1
f 64/4/1 61/4/1 60/4/1
f 65/4/1 61/4/1 64/4/1
f 66/3/1 65/3/1 64/3/1
f 67/3/1 65/3/1 66/3/1
f 70/4/1 69/4/1 68/4/1
f 71/4/1 69/4/1 70/4/1
f 72/4/1 69/4/1 71/4/1
f 74/4/1 73/4/1 72/4/1
f 75/4/1 73/4/1 74/4/1
f 76/5/1 75/5/1 74/5/1
f 77/5/1 75/5/1 76/5/1
f 83/5/1 79/5/1 78/5/1
f 84/3/1 80/3/1 79/3/1
f 84/5/1 79/5/1 83/5/1
f 85/5/1 81/5/1 80/5/1
f 85/3/1 80/3/1 84/3/1
f 86/5/1 81/5/1 85/5/1
f 87/5/1 83/5/1 82/5/1
f 88/5/1 83/5/1 87/5/1
f 89/3/2 90/3/2 91/3/2
f 91/3/2 90/3/2 92/3/2
f 93/5/2 94/5/2 96/5/2
f 96/5/2 94/5/2 97/5/2
f 95/5/2 96/5/2 98/5/2
f 98/5/2 96/5/2 99/5/2
f 100/4/2 101/4/2 103/4/2
f 102/5/2 103/5/2 105/5/2
f 103/4/2 101/4/2 106/4/2
f 105/5/2 103/5/2 106/5/2
f 106/4/2 101/4/2 107/4/2
f 104/5/2 105/5/2 110/5/2
f 110/5/2 105/5/2 111/5/2
f 108/3/2 109/3/2 112/3/2
f 109/5/2 110/5/2 113/5/2
f 112/3/2 109/3/2 113/3/2
f 113/5/2 110/5/2 114/5/2
f 115/3/2 116/3/2 117/3/2
f 117/3/2 116/3/2 118/3/2
f 119/5/2 120/5/2 122/5/2
f 120/5/2 121/5/2 122/5/2
f 122/5/2 121/5/2 123/5/2
f 124/5/2 125/5/2 129/5/2
f 125/3/2 126/3/2 130/3/2
f 129/5/2 125/5/2 130/5/2
f 126/5/2 127/5/2 131/5/2
f 130/3/2 126/3/2 131/3/2
f 131/5/2 127/5/2 132/5/2
f 129/5/2 130/5/2 133/5/2
f 128/5/2 129/5/2 133/5/2
f 130/5/2 131/5/2 133/5/2
f 131/4/2 132/4/2 134/4/2
f 133/5/2 131/5/2 134/5/2
f 134/4/2 132/4/2 135/4/2
f 128/5/2 133/5/2 137/5/2
f 137/5/2 133/5/2 138/5/2
f 137/4/2 138/4/2 139/4/2
f 138/5/2 133/5/2 140/5/2
f 139/4/2 138/4/2 140/4/2
f 140/5/2 133/5/2 141/5/2
f 135/4/2 136/4/2 142/4/2
f 142/4/2 136/4/2 143/4/2
f 139/6/2 140/6/2 145/6/2
f 140/5/2 141/5/2 146/5/2
f 145/6/2 140/6/2 146/6/2
f 146/5/2 141/5/2 147/5/2
f 145/5/2 146/5/2 148/5/2
f 146/5/2 147/5/2 148/5/2
f 148/5/2 147/5/2 149/5/2
f 148/6/2 149/6/2 150/6/2
f 150/6/2 149/6/2 151/6/2
f 150/2/2 151/2/2 152/2/2
f 152/2/2 151/2/2 153/2/2
f 152/4/2 153/4/2 154/4/2
f 154/4/2 153/4/2 155/4/2
f 154/5/2 155/5/2 156/5/2
f 156/5/2 155/5/2 157/5/2
f 156/6/2 157/6/2 158/6/2
f 157/5/2 155/5/2 159/5/2
f 158/6/2 157/6/2 159/6/2
f 143/5/2 144/5/2 160/5/2
f 160/5/2 144/5/2 161/5/2
f 159/5/2 155/5/2 162/5/2
f 158/5/2 159/5/2 162/5/2
f 160/4/2 161/4/2 163/4/2
f 163/4/2 161/4/2 165/4/2
f 165/4/2 161/4/2 166/4/2
f 158/5/2 162/5/2 167/5/2
f 167/5/2 162/5/2 168/5/2
f 164/3/2 165/3/2 170/3/2
f 170/3/2 165/3/2 171/3/2
f 158/5/2 167/5/2 172/5/2
f 167/3/2 168/3/2 173/3/2
f 172/5/2 167/5/2 173/5/2
f 173/3/2 168/3/2 174/3/2
f 169/5/2 170/5/2 175/5/2
f 175/5/2 170/5/2 176/5/2
f 177/5/2 178/5/2 180/5/2
f 178/4/2 179/4/2 181/4/2
f 180/5/2 178/5/2 181/5/2
f 181/4/2 179/4/2 182/4/2
f 180/6/2 181/6/2 184/6/2
f 182/5/2 183/5/2 185/5/2
f 184/6/2 181/6/2 185/6/2
f 181/5/2 182/5/2 185/5/2
f 184/5/2 185/5/2 186/5/2
f 185/5/2 183/5/2 187/5/2
f 186/5/2 185/5/2 187/5/2
f 186/4/2 187/4/2 188/4/2
f 187/5/2 183/5/2 189/5/2
f 188/4/2 187/4/2 189/4/2
f 188/2/2 189/2/2 190/2/2
f 189/5/2 183/5/2 191/5/2
f 190/2/2 189/2/2 191/2/2
f 190/4/2 191/4/2 192/4/2
f 191/5/2 183/5/2 193/5/2
f 192/4/2 191/4/2 193/4/2
f 192/5/2 193/5/2 194/5/2
f 193/5/2 183/5/2 194/5/2
f 194/5/2 183/5/2 195/5/2
f 192/5/2 194/5/2 196/5/2
f 194/4/2 195/4/2 197/4/2
f 196/5/2 194/5/2 197/5/2
f 197/4/2 195/4/2 198/4/2
f 198/4/2 195/4/2 199/4/2
f 196/4/2 197/4/2 200/4/2
f 197/4/2 198/4/2 200/4/2
f 198/3/2 199/3/2 201/3/2
f 200/4/2 198/4/2 201/4/2
f 201/3/2 199/3/2 202/3/2
f 196/4/2 200/4/2 203/4/2
f 200/3/2 201/3/2 204/3/2
f 203/4/2 200/4/2 204/4/2
f 204/3/2 201/3/2 205/3/2
f 203/3/2 204/3/2 206/3/2
f 206/3/2 204/3/2 207/3/2
f 220/5/3 209/5/3 208/5/3
f 221/5/3 209/5/3 220/5/3
f 222/6/3 210/6/3 209/6/3
f 222/2/3 211/2/3 210/2/3
f 223/4/3 212/4/3 211/4/3
f 223/2/3 211/2/3 222/2/3
f 224/5/3 213/5/3 212/5/3
f 224/4/3 212/4/3 223/4/3
f 225/5/3 213/5/3 224/5/3
f 226/6/3 214/6/3 213/6/3
f 226/5/3 213/5/3 225/5/3
f 227/2/3 215/2/3 214/2/3
f 227/6/3 214/6/3 226/6/3
f 228/6/3 216/6/3 215/6/3
f 228/2/3 215/2/3 227/2/3
f 229/5/3 217/5/3 216/5/3
f 229/6/3 216/6/3 228/6/3
f 230/4/3 218/4/3 217/4/3
f 230/5/3 217/5/3 229/5/3
f 231/3/3 219/3/3 218/3/3
f 231/4/3 218/4/3 230/4/3
f 232/3/3 219/3/3 231/3/3
f 233/5/3 209/5/3 221/5/3
f 233/6/3 222/6/3 209/6/3
f 234/1/3 223/1/3 222/1/3
f 234/6/3 222/6/3 233/6/3
f 235/6/3 224/6/3 223/6/3
f 235/1/3 223/1/3 234/1/3
f 236/5/3 225/5/3 224/5/3
f 236/6/3 224/6/3 235/6/3
f 237/6/3 226/6/3 225/6/3
f 237/5/3 225/5/3 236/5/3
f 238/4/3 227/4/3 226/4/3
f 238/6/3 226/6/3 237/6/3
f 239/2/3 228/2/3 227/2/3
f 239/4/3 227/4/3 238/4/3
f 240/4/3 229/4/3 228/4/3
f 240/2/3 228/2/3 239/2/3
f 242/5/3 234/5/3 233/5/3
f 242/5/3 233/5/3 221/5/3
f 243/5/3 234/5/3 242/5/3
f 244/5/3 234/5/3 243/5/3
f 245/5/3 234/5/3 244/5/3
f 246/6/3 235/6/3 234/6/3
f 246/5/3 234/5/3 245/5/3
f 247/5/3 236/5/3 235/5/3
f 247/6/3 235/6/3 246/6/3
f 248/6/3 237/6/3 236/6/3
f 248/5/3 236/5/3 247/5/3
f 249/5/3 238/5/3 237/5/3
f 249/6/3 237/6/3 248/6/3
f 250/6/3 239/6/3 238/6/3
f 250/5/3 238/5/3 249/5/3
f 251/1/3 240/1/3 239/1/3
f 251/6/3 239/6/3 250/6/3
f 252/4/3 229/4/3 240/4/3
f 252/1/3 240/1/3 251/1/3
f 253/5/3 230/5/3 229/5/3
f 253/4/3 229/4/3 252/4/3
f 253/5/3 231/5/3 230/5/3
f 254/5/3 231/5/3 253/5/3
f 255/5/3 231/5/3 254/5/3
f 256/5/3 242/5/3 241/5/3
f 256/5/3 243/5/3 242/5/3
f 257/4/3 244/4/3 243/4/3
f 257/5/3 243/5/3 256/5/3
f 258/6/3 245/6/3 244/6/3
f 258/4/3 244/4/3 257/4/3
f 259/5/3 246/5/3 245/5/3
f 259/6/3 245/6/3 258/6/3
f 259/5/3 247/5/3 246/5/3
f 260/6/3 248/6/3 247/6/3
f 260/5/3 247/5/3 259/5/3
f 261/2/3 249/2/3 248/2/3
f 261/6/3 248/6/3 260/6/3
f 262/4/3 250/4/3 249/4/3
f 262/2/3 249/2/3 261/2/3
f 263/5/3 251/5/3 250/5/3
f 263/4/3 250/4/3 262/4/3
f 264/6/3 252/6/3 251/6/3
f 264/5/3 251/5/3 263/5/3
f 265/5/3 253/5/3 252/5/3
f 265/6/3 252/6/3 264/6/3
f 265/5/3 254/5/3 253/5/3
f 266/5/3 254/5/3 265/5/3
f 280/5/3 268/5/3 267/5/3
f 281/4/3 269/4/3 268/4/3
f 281/5/3 268/5/3 280/5/3
f 282/1/3 270/1/3 269/1/3
f 282/4/3 269/4/3 281/4/3
f 283/5/3 271/5/3 270/5/3
f 283/1/3 270/1/3 282/1/3
f 284/5/3 271/5/3 283/5/3
f 285/6/3 272/6/3 271/6/3
f 285/5/3 271/5/3 284/5/3
f 286/1/3 273/1/3 272/1/3
f 286/6/3 272/6/3 285/6/3
f 287/5/3 274/5/3 273/5/3
f 287/1/3 273/1/3 286/1/3
f 288/5/3 274/5/3 287/5/3
f 289/4/3 275/4/3 274/4/3
f 289/5/3 274/5/3 288/5/3
f 290/3/3 276/3/3 275/3/3
f 290/4/3 275/4/3 289/4/3
f 291/5/3 277/5/3 276/5/3
f 291/3/3 276/3/3 290/3/3
f 292/5/3 277/5/3 291/5/3
f 293/5/3 279/5/3 278/5/3
f 294/5/3 279/5/3 293/5/3
f 297/4/3 295/4/3 294/4/3
f 298/4/3 295/4/3 297/4/3
f 299/5/3 297/5/3 296/5/3
f 300/5/3 297/5/3 299/5/3
f 311/5/3 302/5/3 301/5/3
f 312/6/3 303/6/3 302/6/3
f 312/5/3 302/5/3 311/5/3
f 313/5/3 304/5/3 303/5/3
f 313/6/3 303/6/3 312/6/3
f 314/4/3 305/4/3 304/4/3
f 314/5/3 304/5/3 313/5/3
f 315/2/3 306/2/3 305/2/3
f 315/4/3 305/4/3 314/4/3
f 316/4/3 307/4/3 306/4/3
f 316/2/3 306/2/3 315/2/3
f 317/5/3 308/5/3 307/5/3
f 317/4/3 307/4/3 316/4/3
f 318/4/3 309/4/3 308/4/3
f 318/5/3 308/5/3 317/5/3
f 319/3/3 310/3/3 309/3/3
f 319/4/3 309/4/3 318/4/3
f 320/3/3 310/3/3 319/3/3
f 321/5/4 322/5/4 324/5/4
f 324/5/4 322/5/4 325/5/4
f 323/5/4 324/5/4 326/5/4
f 326/5/4 324/5/4 327/5/4
f 328/3/4 329/3/4 330/3/4
f 330/3/4 329/3/4 331/3/4
f 332/5/4 333/5/4 338/5/4
f 338/5/4 333/5/4 339/5/4
f 334/3/4 335/3/4 340/3/4
f 340/3/4 335/3/4 341/3/4
f 341/3/4 335/3/4 342/3/4
f 336/5/4 337/5/4 343/5/4
f 343/5/4 337/5/4 344/5/4
f 337/4/4 338/4/4 345/4/4
f 344/5/4 337/5/4 345/5/4
f 345/4/4 338/4/4 346/4/4
f 340/5/4 341/5/4 348/5/4
f 348/5/4 341/5/4 349/5/4
f 350/5/4 351/5/4 353/5/4
f 351/4/4 352/4/4 354/4/4
f 353/5/4 351/5/4 354/5/4
f 354/4/4 352/4/4 355/4/4
f 347/5/4 348/5/4 358/5/4
f 358/5/4 348/5/4 359/5/4
f 355/4/4 356/4/4 360/4/4
f 360/4/4 356/4/4 361/4/4
f 357/3/4 358/3/4 362/3/4
f 362/3/4 358/3/4 363/3/4
f 364/5/4 365/5/4 368/5/4
f 368/5/4 365/5/4 369/5/4
f 365/4/4 366/4/4 370/4/4
f 369/5/4 365/5/4 370/5/4
f 370/4/4 366/4/4 371/4/4
f 367/5/4 368/5/4 373/5/4
f 373/5/4 368/5/4 374/5/4
f 374/5/4 368/5/4 375/5/4
f 372/4/4 373/4/4 378/4/4
f 378/4/4 373/4/4 379/4/4
f 378/3/4 379/3/4 380/3/4
f 379/4/4 373/4/4 381/4/4
f 380/3/4 379/3/4 381/3/4
f 381/4/4 373/4/4 382/4/4
f 381/4/4 382/4/4 383/4/4
f 383/4/4 382/4/4 384/4/4
f 376/3/4 377/3/4 387/3/4
f 387/3/4 377/3/4 388/3/4
f 384/5/4 385/5/4 389/5/4
f 385/4/4 386/4/4 390/4/4
f 389/5/4 385/5/4 390/5/4
f 386/3/4 387/3/4 391/3/4
f 390/4/4 386/4/4 391/4/4
f 391/3/4 387/3/4 392/3/4
f 393/5/4 394/5/4 398/5/4
f 398/5/4 394/5/4 399/5/4
f 394/4/4 395/4/4 400/4/4
f 399/5/4 394/5/4 400/5/4
f 400/4/4 395/4/4 401/4/4
f 396/4/4 397/4/4 402/4/4
f 398/5/4 399/5/4 403/5/4
f 402/4/4 397/4/4 403/4/4
f 397/5/4 398/5/4 403/5/4
f 403/5/4 399/5/4 404/5/4
f 399/4/4 400/4/4 405/4/4
f 404/5/4 399/5/4 405/5/4
f 403/5/4 404/5/4 406/5/4
f 402/5/4 403/5/4 406/5/4
f 404/4/4 405/4/4 407/4/4
f 406/5/4 404/5/4 407/5/4
f 405/4/4 400/4/4 408/4/4
f 407/4/4 405/4/4 408/4/4
f 413/5/5 412/5/5 411/5/5
f 414/5/5 412/5/5 413/5/5
f 415/3/5 414/3/5 413/3/5
f 416/3/5 414/3/5 415/3/5
f 417/5/5 410/5/5 409/5/5
f 418/5/5 410/5/5 417/5/5
f 419/5/5 416/5/5 415/5/5
f 420/5/5 416/5/5 419/5/5
f 425/5/5 422/5/5 421/5/5
f 426/5/5 422/5/5 425/5/5
f 427/5/5 424/5/5 423/5/5
f 428/5/5 424/5/5 427/5/5
f 429/4/5 427/4/5 426/4/5
f 430/4/5 429/4/5 426/4/5
f 431/4/5 430/4/5 426/4/5
f 432/4/5 430/4/5 431/4/5
f 433/4/5 430/4/5 432/4/5
f 434/4/5 432/4/5 431/4/5
f 435/3/5 433/3/5 432/3/5
f 435/4/5 432/4/5 434/4/5
f 436/3/5 433/3/5 435/3/5
f 439/5/5 438/5/5 437/5/5
f 440/5/5 438/5/5 439/5/5
f 443/5/5 442/5/5 441/5/5
f 444/5/5 442/5/5 443/5/5
f 446/4/5 444/4/5 443/4/5
f 447/4/5 444/4/5 446/4/5
f 448/4/5 446/4/5 445/4/5
f 449/4/5 446/4/5 448/4/5
f 452/5/5 451/5/5 450/5/5
f 453/5/5 452/5/5 450/5/5
f 454/5/5 452/5/5 453/5/5
f 458/5/5 455/5/5 454/5/5
f 459/5/5 455/5/5 458/5/5
f 461/5/5 457/5/5 456/5/5
f 462/5/5 457/5/5 461/5/5
f 463/4/5 460/4/5 459/4/5
f 464/5/5 461/5/5 460/5/5
f 464/4/5 460/4/5 463/4/5
f 465/5/5 461/5/5 464/5/5
f 468/5/5 467/5/5 466/5/5
f 469/5/5 467/5/5 468/5/5
f 471/5/5 470/5/5 469/5/5
f 472/5/5 470/5/5 471/5/5
f 473/3/6 474/3/6 476/3/6
f 476/3/6 474/3/6 477/3/6
f 475/4/6 476/4/6 478/4/6
f 478/4/6 476/4/6 479/4/6
f 480/3/6 481/3/6 483/3/6
f 483/3/6 481/3/6 484/3/6
f 482/3/6 483/3/6 485/3/6
f 485/3/6 483/3/6 486/3/6
f 487/5/6 488/5/6 489/5/6
f 489/5/6 488/5/6 490/5/6
f 489/3/6 490/3/6 491/3/6
f 489/3/6 491/3/6 494/3/6
f 491/3/6 492/3/6 494/3/6
f 494/3/6 492/3/6 495/3/6
f 495/3/6 492/3/6 496/3/6
f 493/5/6 494/5/6 499/5/6
f 494/5/6 495/5/6 499/5/6
f 499/5/6 495/5/6 500/5/6
f 497/4/6 498/4/6 501/4/6
f 498/5/6 499/5/6 502/5/6
f 501/4/6 498/4/6 502/4/6
f 502/5/6 499/5/6 503/5/6
f 502/4/6 503/4/6 504/4/6
f 504/4/6 503/4/6 505/4/6
f 506/5/6 507/5/6 508/5/6
f 508/5/6 507/5/6 510/5/6
f 510/5/6 507/5/6 511/5/6
f 509/5/6 510/5/6 512/5/6
f 512/5/6 510/5/6 513/5/6
f 514/3/6 515/3/6 517/3/6
f 517/3/6 515/3/6 518/3/6
f 516/5/6 517/5/6 519/5/6
f 517/5/6 518/5/6 519/5/6
f 519/5/6 518/5/6 520/5/6
f 520/5/6 518/5/6 521/5/6
f 519/3/6 520/3/6 522/3/6
f 522/3/6 520/3/6 523/3/6
