# MagicaVoxel @ Ephtracy

# group
o Thigh_04_L

# material
mtllib Body-25-Thigh_04_L.mtl
usemtl palette

# normals
vn 1 0 0
vn -1 0 0
vn 0 0 1
vn 0 0 -1
vn 0 -1 0
vn 0 1 0

# texcoords
vt 0.478516 0.5
vt 0.482422 0.5
vt 0.486328 0.5
vt 0.783203 0.5
vt 0.787109 0.5
vt 0.791016 0.5
vt 0.794922 0.5

# verts
v 0.7 3.2 0.2
v 0.7 3.2 -0.1
v 0.7 3.4 -0.1
v 0.7 3.4 -0.2
v 0.7 4.1 -0.1
v 0.7 4.1 -0.2
v 0.7 4.2 -0.1
v 0.7 4.2 -0.2
v 0.7 4.4 0.2
v 0.7 4.4 -0.2
v 0.7 4.5 0.2
v 0.7 4.5 -0.1
v 0.7 4.5 -0.2
v 0.7 4.6 0.2
v 0.7 4.6 0
v 0.7 4.7 0.2
v 0.7 4.7 0
v 0.7 4.7 -0.1
v 0.6 2.8 0.2
v 0.6 2.8 -0.1
v 0.6 2.9 0.3
v 0.6 2.9 0.2
v 0.6 3 0
v 0.6 3 -0.1
v 0.6 3.2 0.3
v 0.6 3.2 0.2
v 0.6 3.2 0
v 0.6 3.2 -0.1
v 0.6 3.2 -0.2
v 0.6 3.3 0.3
v 0.6 3.3 0.2
v 0.6 3.4 0.3
v 0.6 3.4 0.2
v 0.6 3.4 -0.1
v 0.6 3.4 -0.2
v 0.6 3.4 -0.3
v 0.6 3.5 0.3
v 0.6 3.5 0.2
v 0.6 3.9 0.3
v 0.6 3.9 0.2
v 0.6 4 0.3
v 0.6 4 0.2
v 0.6 4 -0.2
v 0.6 4 -0.3
v 0.6 4.1 0.3
v 0.6 4.1 0.2
v 0.6 4.1 -0.2
v 0.6 4.1 -0.3
v 0.6 4.2 -0.2
v 0.6 4.2 -0.3
v 0.6 4.4 0.2
v 0.6 4.4 -0.2
v 0.6 4.5 0.3
v 0.6 4.5 0.2
v 0.6 4.5 -0.2
v 0.6 4.5 -0.3
v 0.6 4.6 0.3
v 0.6 4.6 0.2
v 0.6 4.7 0.3
v 0.6 4.7 0.2
v 0.5 2.9 -0.1
v 0.5 2.9 -0.2
v 0.5 3 -0.1
v 0.5 3.2 -0.1
v 0.5 3.2 -0.2
v 0.5 3.2 -0.3
v 0.5 3.3 -0.2
v 0.5 3.3 -0.3
v 0.5 3.4 -0.2
v 0.5 3.4 -0.3
v 0.3 2.8 0.2
v 0.3 2.8 -0.1
v 0.3 2.9 0.3
v 0.3 2.9 0.2
v 0.3 2.9 -0.1
v 0.3 3 0.3
v 0.3 3 0.2
v 0.6 4.6 0
v 0.6 4.6 -0.1
v 0.6 4.7 0
v 0.6 4.7 -0.1
v 0.5 2.8 0.2
v 0.5 2.8 -0.1
v 0.5 2.9 0.3
v 0.5 2.9 0.2
v 0.5 2.9 -0.1
v 0.5 3 0.3
v 0.5 3 0.2
v 0.5 4.3 -0.2
v 0.5 4.3 -0.3
v 0.5 4.4 -0.1
v 0.5 4.4 -0.2
v 0.5 4.5 0
v 0.5 4.5 -0.1
v 0.5 4.5 -0.2
v 0.5 4.5 -0.3
v 0.5 4.6 0.3
v 0.5 4.6 0.2
v 0.5 4.6 0
v 0.5 4.6 -0.1
v 0.5 4.7 0.3
v 0.5 4.7 0.2
v 0.5 4.7 0
v 0.3 2.9 -0.1
v 0.3 2.9 -0.2
v 0.3 3 -0.1
v 0.3 3 -0.2
v 0.3 4.5 0.3
v 0.3 4.5 0.2
v 0.3 4.5 0
v 0.3 4.6 0.3
v 0.3 4.6 0
v 0.2 2.8 0.2
v 0.2 2.8 -0.1
v 0.2 2.9 0.3
v 0.2 2.9 0.2
v 0.2 2.9 0
v 0.2 2.9 -0.1
v 0.2 3 0.1
v 0.2 3 0
v 0.2 3 -0.1
v 0.2 3 -0.2
v 0.2 3.1 0.3
v 0.2 3.1 0.2
v 0.2 3.2 0.3
v 0.2 3.2 0.2
v 0.2 3.2 0.1
v 0.2 3.2 -0.1
v 0.2 3.2 -0.2
v 0.2 3.2 -0.3
v 0.2 3.3 0.3
v 0.2 3.3 0.2
v 0.2 3.3 0.1
v 0.2 3.4 0.3
v 0.2 3.4 0.2
v 0.2 3.5 0.3
v 0.2 3.5 0.2
v 0.2 3.6 0.3
v 0.2 3.6 0.2
v 0.2 3.8 0.3
v 0.2 3.8 0.2
v 0.2 3.9 0.3
v 0.2 3.9 0.2
v 0.2 3.9 0.1
v 0.2 3.9 -0.2
v 0.2 3.9 -0.3
v 0.2 4 0.1
v 0.2 4 -0.2
v 0.2 4 -0.3
v 0.2 4.1 0.1
v 0.2 4.1 -0.2
v 0.2 4.1 -0.3
v 0.2 4.2 0.1
v 0.2 4.2 -0.2
v 0.2 4.2 -0.3
v 0.2 4.3 -0.1
v 0.2 4.3 -0.2
v 0.2 4.3 -0.3
v 0.2 4.4 0.2
v 0.2 4.4 0.1
v 0.2 4.4 0
v 0.2 4.4 -0.1
v 0.2 4.4 -0.2
v 0.2 4.5 0.3
v 0.2 4.5 0.2
v 0.2 4.5 0.1
v 0.2 4.5 0
v 0.2 4.5 -0.1
v 0.1 3 0.1
v 0.1 3 0
v 0.1 3 -0.1
v 0.1 3.2 0.1
v 0.1 3.2 0
v 0.1 3.2 -0.1
v 0.1 3.2 -0.2
v 0.1 3.3 0.1
v 0.1 3.3 0
v 0.1 3.7 0
v 0.1 3.7 -0.1
v 0.1 3.8 0
v 0.1 3.8 -0.1
v 0.1 3.9 0.1
v 0.1 3.9 -0.2
v 0.1 4 0.1
v 0.1 4 0
v 0.1 4 -0.2
v 0.1 4.1 0.1
v 0.1 4.1 0
v 0.1 4.1 -0.2
v 0.1 4.2 0.1
v 0.1 4.2 0
v 0.1 4.2 -0.1
v 0.1 4.2 -0.2
v 0.1 4.3 0
v 0.1 4.3 -0.1
v 0.1 4.3 -0.2
v 0.1 4.4 0.1
v 0.1 4.4 0
v 0.1 4.4 -0.1
v 0.1 4.5 0.1
v 0.1 4.5 0
v 0.6 2.9 0.3
v 0.6 3.2 0.3
v 0.6 3.3 0.3
v 0.6 3.4 0.3
v 0.6 3.5 0.3
v 0.6 3.9 0.3
v 0.6 4 0.3
v 0.6 4.1 0.3
v 0.6 4.5 0.3
v 0.6 4.6 0.3
v 0.6 4.7 0.3
v 0.5 2.9 0.3
v 0.5 3 0.3
v 0.5 3.3 0.3
v 0.5 3.4 0.3
v 0.5 3.5 0.3
v 0.5 3.6 0.3
v 0.5 3.7 0.3
v 0.5 3.8 0.3
v 0.5 3.9 0.3
v 0.5 4 0.3
v 0.5 4.1 0.3
v 0.5 4.5 0.3
v 0.5 4.6 0.3
v 0.5 4.7 0.3
v 0.4 3.3 0.3
v 0.4 3.4 0.3
v 0.4 3.6 0.3
v 0.4 3.7 0.3
v 0.4 3.8 0.3
v 0.4 3.9 0.3
v 0.4 4 0.3
v 0.4 4.1 0.3
v 0.3 2.9 0.3
v 0.3 3 0.3
v 0.3 3.1 0.3
v 0.3 3.2 0.3
v 0.3 3.4 0.3
v 0.3 3.5 0.3
v 0.3 3.7 0.3
v 0.3 3.8 0.3
v 0.3 3.9 0.3
v 0.3 4 0.3
v 0.3 4.5 0.3
v 0.3 4.6 0.3
v 0.2 2.9 0.3
v 0.2 3.1 0.3
v 0.2 3.2 0.3
v 0.2 3.3 0.3
v 0.2 3.4 0.3
v 0.2 3.5 0.3
v 0.2 3.6 0.3
v 0.2 3.8 0.3
v 0.2 3.9 0.3
v 0.2 4.5 0.3
v 0.7 3.2 0.2
v 0.7 4.4 0.2
v 0.7 4.5 0.2
v 0.7 4.6 0.2
v 0.7 4.7 0.2
v 0.6 2.8 0.2
v 0.6 2.9 0.2
v 0.6 3.2 0.2
v 0.6 3.3 0.2
v 0.6 3.4 0.2
v 0.6 3.5 0.2
v 0.6 3.9 0.2
v 0.6 4 0.2
v 0.6 4.1 0.2
v 0.6 4.4 0.2
v 0.6 4.5 0.2
v 0.6 4.6 0.2
v 0.6 4.7 0.2
v 0.5 2.8 0.2
v 0.5 2.9 0.2
v 0.5 3 0.2
v 0.3 2.8 0.2
v 0.3 2.9 0.2
v 0.3 3 0.2
v 0.2 2.8 0.2
v 0.2 2.9 0.2
v 0.2 3 0.1
v 0.2 3.2 0.1
v 0.2 3.3 0.1
v 0.2 3.9 0.1
v 0.2 4 0.1
v 0.2 4.1 0.1
v 0.2 4.2 0.1
v 0.2 4.4 0.1
v 0.2 4.5 0.1
v 0.1 3 0.1
v 0.1 3.2 0.1
v 0.1 3.3 0.1
v 0.1 3.9 0.1
v 0.1 4 0.1
v 0.1 4.1 0.1
v 0.1 4.2 0.1
v 0.1 4.4 0.1
v 0.1 4.5 0.1
v 0.6 4.6 0
v 0.6 4.7 0
v 0.5 4.5 0
v 0.5 4.6 0
v 0.5 4.7 0
v 0.3 4.5 0
v 0.3 4.6 0
v 0.2 4.4 0
v 0.2 4.5 0
v 0.1 4.4 0
v 0.1 4.5 0
v 0.7 3.2 -0.1
v 0.7 3.4 -0.1
v 0.7 4.5 -0.1
v 0.7 4.7 -0.1
v 0.6 2.8 -0.1
v 0.6 3 -0.1
v 0.6 3.2 -0.1
v 0.6 3.4 -0.1
v 0.6 4.5 -0.1
v 0.6 4.6 -0.1
v 0.6 4.7 -0.1
v 0.5 2.8 -0.1
v 0.5 2.9 -0.1
v 0.5 3 -0.1
v 0.5 3.2 -0.1
v 0.5 4.4 -0.1
v 0.5 4.5 -0.1
v 0.5 4.6 -0.1
v 0.3 2.8 -0.1
v 0.3 2.9 -0.1
v 0.3 3 -0.1
v 0.2 2.8 -0.1
v 0.2 2.9 -0.1
v 0.2 3 -0.1
v 0.2 3.2 -0.1
v 0.2 4.3 -0.1
v 0.2 4.4 -0.1
v 0.2 4.5 -0.1
v 0.1 3 -0.1
v 0.1 3.2 -0.1
v 0.1 4.3 -0.1
v 0.1 4.4 -0.1
v 0.7 3.4 -0.2
v 0.7 4.1 -0.2
v 0.7 4.2 -0.2
v 0.7 4.4 -0.2
v 0.7 4.5 -0.2
v 0.6 3.2 -0.2
v 0.6 3.4 -0.2
v 0.6 4 -0.2
v 0.6 4.1 -0.2
v 0.6 4.2 -0.2
v 0.6 4.4 -0.2
v 0.6 4.5 -0.2
v 0.5 2.9 -0.2
v 0.5 3.2 -0.2
v 0.5 3.3 -0.2
v 0.5 3.4 -0.2
v 0.5 4.3 -0.2
v 0.5 4.4 -0.2
v 0.4 2.9 -0.2
v 0.4 3 -0.2
v 0.4 4.3 -0.2
v 0.3 2.9 -0.2
v 0.3 3 -0.2
v 0.3 3.2 -0.2
v 0.2 3 -0.2
v 0.2 3.2 -0.2
v 0.2 3.9 -0.2
v 0.2 4 -0.2
v 0.2 4.1 -0.2
v 0.2 4.2 -0.2
v 0.2 4.3 -0.2
v 0.2 4.4 -0.2
v 0.1 3.2 -0.2
v 0.1 3.9 -0.2
v 0.1 4 -0.2
v 0.1 4.1 -0.2
v 0.1 4.2 -0.2
v 0.1 4.3 -0.2
v 0.6 3.4 -0.3
v 0.6 4 -0.3
v 0.6 4.1 -0.3
v 0.6 4.2 -0.3
v 0.6 4.5 -0.3
v 0.5 3.2 -0.3
v 0.5 3.3 -0.3
v 0.5 3.4 -0.3
v 0.5 3.8 -0.3
v 0.5 3.9 -0.3
v 0.5 4 -0.3
v 0.5 4.1 -0.3
v 0.5 4.2 -0.3
v 0.5 4.3 -0.3
v 0.5 4.5 -0.3
v 0.4 3.8 -0.3
v 0.4 3.9 -0.3
v 0.4 4 -0.3
v 0.4 4.1 -0.3
v 0.4 4.2 -0.3
v 0.4 4.3 -0.3
v 0.3 3.2 -0.3
v 0.3 3.3 -0.3
v 0.3 3.9 -0.3
v 0.3 4 -0.3
v 0.3 4.1 -0.3
v 0.3 4.2 -0.3
v 0.2 3.2 -0.3
v 0.2 3.9 -0.3
v 0.2 4 -0.3
v 0.2 4.1 -0.3
v 0.2 4.2 -0.3
v 0.2 4.3 -0.3
v 0.6 2.8 0.2
v 0.5 2.8 0.2
v 0.3 2.8 0.2
v 0.2 2.8 0.2
v 0.6 2.8 -0.1
v 0.5 2.8 -0.1
v 0.3 2.8 -0.1
v 0.2 2.8 -0.1
v 0.6 2.9 0.3
v 0.5 2.9 0.3
v 0.3 2.9 0.3
v 0.2 2.9 0.3
v 0.6 2.9 0.2
v 0.5 2.9 0.2
v 0.3 2.9 0.2
v 0.2 2.9 0.2
v 0.5 2.9 -0.1
v 0.4 2.9 -0.1
v 0.3 2.9 -0.1
v 0.5 2.9 -0.2
v 0.4 2.9 -0.2
v 0.3 2.9 -0.2
v 0.5 3 0.3
v 0.3 3 0.3
v 0.5 3 0.2
v 0.3 3 0.2
v 0.2 3 0.1
v 0.1 3 0.1
v 0.2 3 0
v 0.1 3 0
v 0.3 3 -0.1
v 0.2 3 -0.1
v 0.1 3 -0.1
v 0.3 3 -0.2
v 0.2 3 -0.2
v 0.7 3.2 0.2
v 0.6 3.2 0.2
v 0.6 3.2 0
v 0.7 3.2 -0.1
v 0.6 3.2 -0.1
v 0.5 3.2 -0.1
v 0.2 3.2 -0.1
v 0.1 3.2 -0.1
v 0.6 3.2 -0.2
v 0.5 3.2 -0.2
v 0.3 3.2 -0.2
v 0.2 3.2 -0.2
v 0.1 3.2 -0.2
v 0.5 3.2 -0.3
v 0.3 3.2 -0.3
v 0.2 3.2 -0.3
v 0.7 3.4 -0.1
v 0.6 3.4 -0.1
v 0.7 3.4 -0.2
v 0.6 3.4 -0.2
v 0.5 3.4 -0.2
v 0.6 3.4 -0.3
v 0.5 3.4 -0.3
v 0.2 4.3 -0.1
v 0.1 4.3 -0.1
v 0.5 4.3 -0.2
v 0.4 4.3 -0.2
v 0.2 4.3 -0.2
v 0.1 4.3 -0.2
v 0.5 4.3 -0.3
v 0.4 4.3 -0.3
v 0.2 4.3 -0.3
v 0.2 4.4 0
v 0.1 4.4 0
v 0.5 4.4 -0.1
v 0.2 4.4 -0.1
v 0.1 4.4 -0.1
v 0.5 4.4 -0.2
v 0.2 4.4 -0.2
v 0.3 4.5 0.3
v 0.2 4.5 0.3
v 0.3 4.5 0.2
v 0.2 4.5 0.2
v 0.2 4.5 0.1
v 0.1 4.5 0.1
v 0.5 4.5 0
v 0.3 4.5 0
v 0.2 4.5 0
v 0.1 4.5 0
v 0.7 4.5 -0.1
v 0.6 4.5 -0.1
v 0.5 4.5 -0.1
v 0.2 4.5 -0.1
v 0.7 4.5 -0.2
v 0.6 4.5 -0.2
v 0.5 4.5 -0.2
v 0.6 4.5 -0.3
v 0.5 4.5 -0.3
v 0.5 4.6 0.3
v 0.3 4.6 0.3
v 0.5 4.6 0.2
v 0.6 4.6 0
v 0.5 4.6 0
v 0.3 4.6 0
v 0.6 4.6 -0.1
v 0.5 4.6 -0.1
v 0.6 4.7 0.3
v 0.5 4.7 0.3
v 0.7 4.7 0.2
v 0.6 4.7 0.2
v 0.5 4.7 0.2
v 0.7 4.7 0
v 0.6 4.7 0
v 0.5 4.7 0
v 0.7 4.7 -0.1
v 0.6 4.7 -0.1

# faces
f 1/6/1 2/6/1 3/6/1
f 1/6/1 3/6/1 5/6/1
f 3/6/1 4/6/1 5/6/1
f 5/6/1 4/6/1 6/6/1
f 1/6/1 5/6/1 7/6/1
f 5/7/1 6/7/1 7/7/1
f 7/7/1 6/7/1 8/7/1
f 1/6/1 7/6/1 9/6/1
f 7/6/1 8/6/1 9/6/1
f 9/6/1 8/6/1 10/6/1
f 9/5/1 10/5/1 11/5/1
f 11/5/1 10/5/1 12/5/1
f 12/5/1 10/5/1 13/5/1
f 11/4/1 12/4/1 14/4/1
f 14/4/1 12/4/1 15/4/1
f 14/6/1 15/6/1 16/6/1
f 15/4/1 12/4/1 17/4/1
f 16/6/1 15/6/1 17/6/1
f 17/4/1 12/4/1 18/4/1
f 19/6/1 20/6/1 22/6/1
f 22/6/1 20/6/1 23/6/1
f 21/6/1 22/6/1 23/6/1
f 23/6/1 20/6/1 24/6/1
f 21/6/1 23/6/1 25/6/1
f 25/6/1 23/6/1 26/6/1
f 23/5/1 24/5/1 27/5/1
f 26/6/1 23/6/1 27/6/1
f 27/5/1 24/5/1 28/5/1
f 25/7/1 26/7/1 30/7/1
f 30/7/1 26/7/1 31/7/1
f 30/1/1 31/1/1 32/1/1
f 32/1/1 31/1/1 33/1/1
f 28/6/1 29/6/1 34/6/1
f 34/6/1 29/6/1 35/6/1
f 32/5/1 33/5/1 37/5/1
f 37/5/1 33/5/1 38/5/1
f 37/6/1 38/6/1 39/6/1
f 39/6/1 38/6/1 40/6/1
f 39/7/1 40/7/1 41/7/1
f 41/7/1 40/7/1 42/7/1
f 35/6/1 36/6/1 43/6/1
f 43/6/1 36/6/1 44/6/1
f 41/5/1 42/5/1 45/5/1
f 45/5/1 42/5/1 46/5/1
f 43/5/1 44/5/1 47/5/1
f 47/5/1 44/5/1 48/5/1
f 47/1/1 48/1/1 49/1/1
f 49/1/1 48/1/1 50/1/1
f 45/6/1 46/6/1 51/6/1
f 49/5/1 50/5/1 52/5/1
f 45/6/1 51/6/1 53/6/1
f 53/6/1 51/6/1 54/6/1
f 52/5/1 50/5/1 55/5/1
f 55/5/1 50/5/1 56/5/1
f 53/5/1 54/5/1 57/5/1
f 57/5/1 54/5/1 58/5/1
f 57/4/1 58/4/1 59/4/1
f 59/4/1 58/4/1 60/4/1
f 61/5/1 62/5/1 63/5/1
f 63/5/1 62/5/1 64/5/1
f 64/5/1 62/5/1 65/5/1
f 65/5/1 66/5/1 67/5/1
f 67/5/1 66/5/1 68/5/1
f 67/6/1 68/6/1 69/6/1
f 69/6/1 68/6/1 70/6/1
f 71/6/1 72/6/1 74/6/1
f 74/6/1 72/6/1 75/6/1
f 73/6/1 74/6/1 76/6/1
f 76/6/1 74/6/1 77/6/1
f 80/4/2 79/4/2 78/4/2
f 81/4/2 79/4/2 80/4/2
f 85/6/2 83/6/2 82/6/2
f 86/6/2 83/6/2 85/6/2
f 87/6/2 85/6/2 84/6/2
f 88/6/2 85/6/2 87/6/2
f 92/5/2 90/5/2 89/5/2
f 94/6/2 92/6/2 91/6/2
f 95/5/2 90/5/2 92/5/2
f 95/6/2 92/6/2 94/6/2
f 96/5/2 90/5/2 95/5/2
f 99/6/2 94/6/2 93/6/2
f 100/6/2 94/6/2 99/6/2
f 101/4/2 98/4/2 97/4/2
f 102/6/2 99/6/2 98/6/2
f 102/4/2 98/4/2 101/4/2
f 103/6/2 99/6/2 102/6/2
f 106/4/2 105/4/2 104/4/2
f 107/4/2 105/4/2 106/4/2
f 111/6/2 109/6/2 108/6/2
f 111/6/2 110/6/2 109/6/2
f 112/6/2 110/6/2 111/6/2
f 116/6/2 114/6/2 113/6/2
f 117/6/2 114/6/2 116/6/2
f 118/6/2 114/6/2 117/6/2
f 119/6/2 116/6/2 115/6/2
f 119/6/2 117/6/2 116/6/2
f 120/5/2 118/5/2 117/5/2
f 120/6/2 117/6/2 119/6/2
f 121/5/2 118/5/2 120/5/2
f 123/6/2 119/6/2 115/6/2
f 124/6/2 119/6/2 123/6/2
f 125/5/2 124/5/2 123/5/2
f 126/6/2 119/6/2 124/6/2
f 126/5/2 124/5/2 125/5/2
f 127/6/2 119/6/2 126/6/2
f 128/5/2 122/5/2 121/5/2
f 129/5/2 122/5/2 128/5/2
f 131/7/2 126/7/2 125/7/2
f 132/6/2 127/6/2 126/6/2
f 132/7/2 126/7/2 131/7/2
f 133/6/2 127/6/2 132/6/2
f 134/1/2 132/1/2 131/1/2
f 135/6/2 133/6/2 132/6/2
f 135/1/2 132/1/2 134/1/2
f 136/2/2 135/2/2 134/2/2
f 137/6/2 133/6/2 135/6/2
f 137/2/2 135/2/2 136/2/2
f 138/5/2 137/5/2 136/5/2
f 139/6/2 133/6/2 137/6/2
f 139/5/2 137/5/2 138/5/2
f 140/6/2 139/6/2 138/6/2
f 141/6/2 133/6/2 139/6/2
f 141/6/2 139/6/2 140/6/2
f 142/7/2 141/7/2 140/7/2
f 143/6/2 133/6/2 141/6/2
f 143/7/2 141/7/2 142/7/2
f 144/6/2 133/6/2 143/6/2
f 145/6/2 130/6/2 129/6/2
f 146/6/2 130/6/2 145/6/2
f 147/6/2 144/6/2 143/6/2
f 147/6/2 143/6/2 142/6/2
f 148/5/2 146/5/2 145/5/2
f 149/5/2 146/5/2 148/5/2
f 150/6/2 147/6/2 142/6/2
f 151/2/2 149/2/2 148/2/2
f 152/2/2 149/2/2 151/2/2
f 153/6/2 150/6/2 142/6/2
f 154/7/2 152/7/2 151/7/2
f 155/7/2 152/7/2 154/7/2
f 157/5/2 155/5/2 154/5/2
f 158/5/2 155/5/2 157/5/2
f 159/6/2 153/6/2 142/6/2
f 160/6/2 153/6/2 159/6/2
f 162/4/2 157/4/2 156/4/2
f 163/4/2 157/4/2 162/4/2
f 164/6/2 159/6/2 142/6/2
f 165/4/2 160/4/2 159/4/2
f 165/6/2 159/6/2 164/6/2
f 166/4/2 160/4/2 165/4/2
f 167/6/2 162/6/2 161/6/2
f 168/6/2 162/6/2 167/6/2
f 172/6/2 170/6/2 169/6/2
f 173/5/2 171/5/2 170/5/2
f 173/6/2 170/6/2 172/6/2
f 174/5/2 171/5/2 173/5/2
f 176/7/2 173/7/2 172/7/2
f 177/6/2 175/6/2 174/6/2
f 177/7/2 173/7/2 176/7/2
f 177/6/2 174/6/2 173/6/2
f 178/6/2 177/6/2 176/6/2
f 178/6/2 175/6/2 177/6/2
f 179/6/2 175/6/2 178/6/2
f 180/6/2 178/6/2 176/6/2
f 180/7/2 179/7/2 178/7/2
f 181/6/2 175/6/2 179/6/2
f 181/7/2 179/7/2 180/7/2
f 182/6/2 180/6/2 176/6/2
f 182/6/2 181/6/2 180/6/2
f 183/6/2 175/6/2 181/6/2
f 183/6/2 181/6/2 182/6/2
f 184/7/2 183/7/2 182/7/2
f 185/7/2 183/7/2 184/7/2
f 186/7/2 183/7/2 185/7/2
f 187/5/2 185/5/2 184/5/2
f 188/1/2 186/1/2 185/1/2
f 188/5/2 185/5/2 187/5/2
f 189/1/2 186/1/2 188/1/2
f 190/6/2 188/6/2 187/6/2
f 191/5/2 189/5/2 188/5/2
f 191/6/2 188/6/2 190/6/2
f 192/5/2 189/5/2 191/5/2
f 193/5/2 189/5/2 192/5/2
f 194/5/2 191/5/2 190/5/2
f 194/5/2 192/5/2 191/5/2
f 195/4/2 193/4/2 192/4/2
f 195/5/2 192/5/2 194/5/2
f 196/4/2 193/4/2 195/4/2
f 197/5/2 194/5/2 190/5/2
f 198/4/2 195/4/2 194/4/2
f 198/5/2 194/5/2 197/5/2
f 199/4/2 195/4/2 198/4/2
f 200/4/2 198/4/2 197/4/2
f 201/4/2 198/4/2 200/4/2
f 202/6/3 203/6/3 213/6/3
f 213/6/3 203/6/3 214/6/3
f 203/7/3 204/7/3 215/7/3
f 204/1/3 205/1/3 215/1/3
f 205/5/3 206/5/3 216/5/3
f 215/1/3 205/1/3 216/1/3
f 206/6/3 207/6/3 217/6/3
f 216/5/3 206/5/3 217/5/3
f 217/6/3 207/6/3 218/6/3
f 218/6/3 207/6/3 219/6/3
f 219/6/3 207/6/3 220/6/3
f 207/7/3 208/7/3 221/7/3
f 220/6/3 207/6/3 221/6/3
f 208/5/3 209/5/3 222/5/3
f 221/7/3 208/7/3 222/7/3
f 209/6/3 210/6/3 223/6/3
f 222/5/3 209/5/3 223/5/3
f 210/5/3 211/5/3 224/5/3
f 223/6/3 210/6/3 224/6/3
f 211/4/3 212/4/3 225/4/3
f 224/5/3 211/5/3 225/5/3
f 225/4/3 212/4/3 226/4/3
f 203/7/3 215/7/3 227/7/3
f 215/2/3 216/2/3 227/2/3
f 216/3/3 217/3/3 228/3/3
f 227/2/3 216/2/3 228/2/3
f 218/7/3 219/7/3 229/7/3
f 217/5/3 218/5/3 229/5/3
f 219/6/3 220/6/3 230/6/3
f 229/7/3 219/7/3 230/7/3
f 220/5/3 221/5/3 231/5/3
f 230/6/3 220/6/3 231/6/3
f 221/1/3 222/1/3 232/1/3
f 231/5/3 221/5/3 232/5/3
f 222/7/3 223/7/3 233/7/3
f 232/1/3 222/1/3 233/1/3
f 223/6/3 224/6/3 234/6/3
f 233/7/3 223/7/3 234/7/3
f 224/6/3 225/6/3 234/6/3
f 214/6/3 203/6/3 236/6/3
f 236/6/3 203/6/3 237/6/3
f 203/7/3 227/7/3 238/7/3
f 237/6/3 203/6/3 238/6/3
f 227/1/3 228/1/3 239/1/3
f 228/3/3 217/3/3 239/3/3
f 217/5/3 229/5/3 240/5/3
f 239/3/3 217/3/3 240/3/3
f 229/6/3 230/6/3 241/6/3
f 230/7/3 231/7/3 241/7/3
f 231/1/3 232/1/3 242/1/3
f 241/7/3 231/7/3 242/7/3
f 232/5/3 233/5/3 243/5/3
f 242/1/3 232/1/3 243/1/3
f 233/6/3 234/6/3 244/6/3
f 243/5/3 233/5/3 244/5/3
f 234/6/3 225/6/3 245/6/3
f 244/6/3 234/6/3 245/6/3
f 245/6/3 225/6/3 246/6/3
f 236/6/3 237/6/3 247/6/3
f 235/6/3 236/6/3 247/6/3
f 237/5/3 238/5/3 248/5/3
f 247/6/3 237/6/3 248/6/3
f 238/7/3 227/7/3 249/7/3
f 248/5/3 238/5/3 249/5/3
f 227/1/3 239/1/3 250/1/3
f 249/7/3 227/7/3 250/7/3
f 239/2/3 240/2/3 251/2/3
f 250/1/3 239/1/3 251/1/3
f 240/5/3 229/5/3 252/5/3
f 251/2/3 240/2/3 252/2/3
f 241/6/3 242/6/3 253/6/3
f 252/5/3 229/5/3 253/5/3
f 229/6/3 241/6/3 253/6/3
f 242/7/3 243/7/3 254/7/3
f 253/6/3 242/6/3 254/6/3
f 243/6/3 244/6/3 255/6/3
f 254/7/3 243/7/3 255/7/3
f 244/6/3 245/6/3 255/6/3
f 255/6/3 245/6/3 256/6/3
f 257/6/3 258/6/3 264/6/3
f 264/6/3 258/6/3 265/6/3
f 265/6/3 258/6/3 266/6/3
f 266/6/3 258/6/3 267/6/3
f 267/6/3 258/6/3 268/6/3
f 268/6/3 258/6/3 269/6/3
f 269/6/3 258/6/3 270/6/3
f 258/5/3 259/5/3 271/5/3
f 270/6/3 258/6/3 271/6/3
f 259/4/3 260/4/3 272/4/3
f 271/5/3 259/5/3 272/5/3
f 260/6/3 261/6/3 273/6/3
f 272/4/3 260/4/3 273/4/3
f 273/6/3 261/6/3 274/6/3
f 262/6/3 263/6/3 275/6/3
f 275/6/3 263/6/3 276/6/3
f 276/5/3 277/5/3 279/5/3
f 279/5/3 277/5/3 280/5/3
f 278/6/3 279/6/3 281/6/3
f 281/6/3 279/6/3 282/6/3
f 283/6/3 284/6/3 292/6/3
f 284/7/3 285/7/3 293/7/3
f 292/6/3 284/6/3 293/6/3
f 285/6/3 286/6/3 294/6/3
f 293/7/3 285/7/3 294/7/3
f 286/7/3 287/7/3 295/7/3
f 294/6/3 286/6/3 295/6/3
f 287/5/3 288/5/3 296/5/3
f 295/7/3 287/7/3 296/7/3
f 288/6/3 289/6/3 297/6/3
f 296/5/3 288/5/3 297/5/3
f 289/5/3 290/5/3 298/5/3
f 297/6/3 289/6/3 298/6/3
f 290/4/3 291/4/3 299/4/3
f 298/5/3 290/5/3 299/5/3
f 299/4/3 291/4/3 300/4/3
f 304/6/4 302/6/4 301/6/4
f 305/6/4 302/6/4 304/6/4
f 306/6/4 304/6/4 303/6/4
f 307/6/4 304/6/4 306/6/4
f 310/4/4 309/4/4 308/4/4
f 311/4/4 309/4/4 310/4/4
f 318/6/4 313/6/4 312/6/4
f 319/6/4 313/6/4 318/6/4
f 320/4/4 315/4/4 314/4/4
f 321/4/4 315/4/4 320/4/4
f 322/4/4 315/4/4 321/4/4
f 323/6/4 317/6/4 316/6/4
f 324/6/4 317/6/4 323/6/4
f 325/5/4 318/5/4 317/5/4
f 325/6/4 317/6/4 324/6/4
f 326/5/4 318/5/4 325/5/4
f 328/6/4 321/6/4 320/6/4
f 329/6/4 321/6/4 328/6/4
f 333/6/4 331/6/4 330/6/4
f 334/5/4 332/5/4 331/5/4
f 334/6/4 331/6/4 333/6/4
f 335/5/4 332/5/4 334/5/4
f 338/6/4 328/6/4 327/6/4
f 339/6/4 328/6/4 338/6/4
f 340/5/4 336/5/4 335/5/4
f 341/5/4 336/5/4 340/5/4
f 342/4/4 338/4/4 337/4/4
f 343/4/4 338/4/4 342/4/4
f 350/6/4 345/6/4 344/6/4
f 351/6/4 345/6/4 350/6/4
f 352/7/4 346/7/4 345/7/4
f 352/6/4 345/6/4 351/6/4
f 353/6/4 347/6/4 346/6/4
f 353/7/4 346/7/4 352/7/4
f 354/5/4 348/5/4 347/5/4
f 354/6/4 347/6/4 353/6/4
f 355/5/4 348/5/4 354/5/4
f 357/6/4 350/6/4 349/6/4
f 358/6/4 350/6/4 357/6/4
f 359/6/4 350/6/4 358/6/4
f 362/5/4 357/5/4 356/5/4
f 363/5/4 357/5/4 362/5/4
f 364/4/4 361/4/4 360/4/4
f 365/4/4 363/4/4 362/4/4
f 366/5/4 357/5/4 363/5/4
f 366/4/4 363/4/4 365/4/4
f 367/5/4 357/5/4 366/5/4
f 368/5/4 367/5/4 366/5/4
f 369/5/4 367/5/4 368/5/4
f 374/4/4 361/4/4 364/4/4
f 375/4/4 361/4/4 374/4/4
f 376/6/4 370/6/4 369/6/4
f 377/7/4 371/7/4 370/7/4
f 377/6/4 370/6/4 376/6/4
f 378/1/4 372/1/4 371/1/4
f 378/7/4 371/7/4 377/7/4
f 379/5/4 373/5/4 372/5/4
f 379/1/4 372/1/4 378/1/4
f 380/4/4 374/4/4 373/4/4
f 380/5/4 373/5/4 379/5/4
f 381/4/4 374/4/4 380/4/4
f 389/6/4 383/6/4 382/6/4
f 390/6/4 383/6/4 389/6/4
f 391/6/4 383/6/4 390/6/4
f 392/5/4 384/5/4 383/5/4
f 392/6/4 383/6/4 391/6/4
f 393/1/4 385/1/4 384/1/4
f 393/5/4 384/5/4 392/5/4
f 394/5/4 386/5/4 385/5/4
f 394/1/4 385/1/4 393/1/4
f 395/5/4 386/5/4 394/5/4
f 396/5/4 386/5/4 395/5/4
f 397/7/4 391/7/4 390/7/4
f 397/6/4 389/6/4 388/6/4
f 397/6/4 390/6/4 389/6/4
f 398/6/4 392/6/4 391/6/4
f 398/7/4 391/7/4 397/7/4
f 399/7/4 393/7/4 392/7/4
f 399/6/4 392/6/4 398/6/4
f 400/2/4 394/2/4 393/2/4
f 400/7/4 393/7/4 399/7/4
f 401/7/4 395/7/4 394/7/4
f 401/2/4 394/2/4 400/2/4
f 402/7/4 395/7/4 401/7/4
f 403/5/4 388/5/4 387/5/4
f 404/6/4 397/6/4 388/6/4
f 404/5/4 388/5/4 403/5/4
f 404/6/4 398/6/4 397/6/4
f 405/7/4 399/7/4 398/7/4
f 405/6/4 398/6/4 404/6/4
f 406/1/4 400/1/4 399/1/4
f 406/7/4 399/7/4 405/7/4
f 407/2/4 401/2/4 400/2/4
f 407/1/4 400/1/4 406/1/4
f 408/5/4 402/5/4 401/5/4
f 408/2/4 401/2/4 407/2/4
f 409/6/4 405/6/4 404/6/4
f 409/6/4 404/6/4 403/6/4
f 410/5/4 406/5/4 405/5/4
f 410/6/4 405/6/4 409/6/4
f 411/2/4 407/2/4 406/2/4
f 411/5/4 406/5/4 410/5/4
f 412/7/4 408/7/4 407/7/4
f 412/2/4 407/2/4 411/2/4
f 413/5/4 402/5/4 408/5/4
f 413/7/4 408/7/4 412/7/4
f 414/5/4 402/5/4 413/5/4
f 415/6/5 416/6/5 419/6/5
f 419/6/5 416/6/5 420/6/5
f 417/6/5 418/6/5 421/6/5
f 421/6/5 418/6/5 422/6/5
f 423/6/5 424/6/5 427/6/5
f 427/6/5 424/6/5 428/6/5
f 425/6/5 426/6/5 429/6/5
f 429/6/5 426/6/5 430/6/5
f 428/5/5 429/5/5 431/5/5
f 431/5/5 429/5/5 432/5/5
f 432/5/5 429/5/5 433/5/5
f 431/5/5 432/5/5 434/5/5
f 432/4/5 433/4/5 435/4/5
f 434/5/5 432/5/5 435/5/5
f 435/4/5 433/4/5 436/4/5
f 437/6/5 438/6/5 439/6/5
f 439/6/5 438/6/5 440/6/5
f 441/6/5 442/6/5 443/6/5
f 443/6/5 442/6/5 444/6/5
f 443/5/5 444/5/5 446/5/5
f 446/5/5 444/5/5 447/5/5
f 445/5/5 446/5/5 448/5/5
f 448/5/5 446/5/5 449/5/5
f 450/6/5 451/6/5 452/6/5
f 450/6/5 452/6/5 453/6/5
f 453/6/5 452/6/5 454/6/5
f 454/6/5 455/6/5 458/6/5
f 458/6/5 455/6/5 459/6/5
f 456/6/5 457/6/5 461/6/5
f 461/6/5 457/6/5 462/6/5
f 459/5/5 460/5/5 463/5/5
f 460/6/5 461/6/5 464/6/5
f 463/5/5 460/5/5 464/5/5
f 464/6/5 461/6/5 465/6/5
f 466/6/5 467/6/5 468/6/5
f 468/6/5 467/6/5 469/6/5
f 469/6/5 470/6/5 471/6/5
f 471/6/5 470/6/5 472/6/5
f 477/4/6 474/4/6 473/4/6
f 478/4/6 474/4/6 477/4/6
f 479/7/6 476/7/6 475/7/6
f 480/5/6 477/5/6 476/5/6
f 480/7/6 476/7/6 479/7/6
f 481/5/6 477/5/6 480/5/6
f 485/4/6 483/4/6 482/4/6
f 486/4/6 483/4/6 485/4/6
f 487/4/6 485/4/6 484/4/6
f 488/4/6 485/4/6 487/4/6
f 491/6/6 490/6/6 489/6/6
f 492/6/6 490/6/6 491/6/6
f 493/4/6 492/4/6 491/4/6
f 496/4/6 493/4/6 491/4/6
f 496/4/6 494/4/6 493/4/6
f 497/4/6 494/4/6 496/4/6
f 498/4/6 494/4/6 497/4/6
f 501/6/6 496/6/6 495/6/6
f 501/6/6 497/6/6 496/6/6
f 502/6/6 497/6/6 501/6/6
f 503/5/6 500/5/6 499/5/6
f 504/6/6 501/6/6 500/6/6
f 504/5/6 500/5/6 503/5/6
f 505/6/6 501/6/6 504/6/6
f 506/5/6 505/5/6 504/5/6
f 507/5/6 505/5/6 506/5/6
f 510/6/6 509/6/6 508/6/6
f 512/6/6 509/6/6 510/6/6
f 513/6/6 509/6/6 512/6/6
f 514/6/6 512/6/6 511/6/6
f 515/6/6 512/6/6 514/6/6
f 519/4/6 517/4/6 516/4/6
f 520/4/6 517/4/6 519/4/6
f 521/6/6 519/6/6 518/6/6
f 521/6/6 520/6/6 519/6/6
f 522/6/6 520/6/6 521/6/6
f 523/6/6 520/6/6 522/6/6
f 524/4/6 522/4/6 521/4/6
f 525/4/6 522/4/6 524/4/6
