# MagicaVoxel @ Ephtracy

# group
o Shoe_01

# material
mtllib Body-49-Shoe_01.mtl
usemtl palette

# normals
vn 1 0 0
vn -1 0 0
vn 0 0 1
vn 0 0 -1
vn 0 -1 0
vn 0 1 0

# texcoords
vt 0.892578 0.5
vt 0.900391 0.5

# verts
v -0.3 0 0.8
v -0.3 0 0.2
v -0.3 0 0.1
v -0.3 0 -0.1
v -0.3 0.1 0.8
v -0.3 0.1 0.3
v -0.3 0.1 0.2
v -0.3 0.1 0.1
v -0.3 0.1 0
v -0.3 0.2 0.8
v -0.3 0.2 0.7
v -0.3 0.2 0.4
v -0.3 0.2 0.3
v -0.3 0.2 0.1
v -0.3 0.3 0.7
v -0.3 0.3 0.5
v -0.3 0.3 0.4
v -0.3 0.3 0.3
v -0.3 0.4 0.5
v -0.3 0.4 0.4
v -0.3 0.4 0.1
v -0.3 0.4 0
v -0.3 0.4 -0.1
v -0.3 0.5 0.4
v -0.3 0.5 0.3
v -0.3 0.5 0.1
v -0.3 0.5 0
v -0.3 0.6 0.3
v -0.3 0.6 -0.1
v -0.5 0 0.8
v -0.5 0 0.2
v -0.5 0 0.1
v -0.5 0 -0.1
v -0.5 0.1 0.8
v -0.5 0.1 0.3
v -0.5 0.1 0.2
v -0.5 0.1 0.1
v -0.5 0.1 0
v -0.5 0.2 0.8
v -0.5 0.2 0.7
v -0.5 0.2 0.4
v -0.5 0.2 0.3
v -0.5 0.2 0.1
v -0.5 0.3 0.7
v -0.5 0.3 0.5
v -0.5 0.3 0.4
v -0.5 0.3 0.3
v -0.5 0.4 0.5
v -0.5 0.4 0.4
v -0.5 0.4 0.1
v -0.5 0.4 0
v -0.5 0.4 -0.1
v -0.5 0.5 0.4
v -0.5 0.5 0.3
v -0.5 0.5 0.1
v -0.5 0.5 0
v -0.5 0.6 0.3
v -0.5 0.6 -0.1
v -0.3 0 0.8
v -0.3 0.1 0.8
v -0.3 0.2 0.8
v -0.5 0 0.8
v -0.5 0.1 0.8
v -0.5 0.2 0.8
v -0.3 0.2 0.7
v -0.3 0.3 0.7
v -0.5 0.2 0.7
v -0.5 0.3 0.7
v -0.3 0.3 0.5
v -0.3 0.4 0.5
v -0.5 0.3 0.5
v -0.5 0.4 0.5
v -0.3 0.4 0.4
v -0.3 0.5 0.4
v -0.5 0.4 0.4
v -0.5 0.5 0.4
v -0.3 0.5 0.3
v -0.3 0.6 0.3
v -0.5 0.5 0.3
v -0.5 0.6 0.3
v -0.3 0 0.1
v -0.3 0.1 0.1
v -0.5 0 0.1
v -0.5 0.1 0.1
v -0.3 0 0.2
v -0.3 0.1 0.2
v -0.5 0 0.2
v -0.5 0.1 0.2
v -0.3 0 -0.1
v -0.3 0.4 -0.1
v -0.3 0.6 -0.1
v -0.5 0 -0.1
v -0.5 0.4 -0.1
v -0.5 0.6 -0.1
v -0.3 0 0.8
v -0.5 0 0.8
v -0.3 0 0.2
v -0.5 0 0.2
v -0.3 0 0.1
v -0.5 0 0.1
v -0.3 0 -0.1
v -0.5 0 -0.1
v -0.3 0.1 0.2
v -0.5 0.1 0.2
v -0.3 0.1 0.1
v -0.5 0.1 0.1
v -0.3 0.2 0.8
v -0.5 0.2 0.8
v -0.3 0.2 0.7
v -0.5 0.2 0.7
v -0.3 0.3 0.7
v -0.5 0.3 0.7
v -0.3 0.3 0.5
v -0.5 0.3 0.5
v -0.3 0.4 0.5
v -0.5 0.4 0.5
v -0.3 0.4 0.4
v -0.5 0.4 0.4
v -0.3 0.5 0.4
v -0.5 0.5 0.4
v -0.3 0.5 0.3
v -0.5 0.5 0.3
v -0.3 0.6 0.3
v -0.5 0.6 0.3
v -0.3 0.6 -0.1
v -0.5 0.6 -0.1

# faces
f 1/1/1 2/1/1 5/1/1
f 5/1/1 2/1/1 6/1/1
f 6/1/1 2/1/1 7/1/1
f 3/1/1 4/1/1 8/1/1
f 8/1/1 4/1/1 9/1/1
f 5/2/1 6/2/1 10/2/1
f 10/2/1 6/2/1 11/2/1
f 11/2/1 6/2/1 12/2/1
f 6/1/1 7/1/1 13/1/1
f 12/2/1 6/2/1 13/2/1
f 7/1/1 8/1/1 13/1/1
f 8/2/1 9/2/1 14/2/1
f 13/1/1 8/1/1 14/1/1
f 11/2/1 12/2/1 15/2/1
f 15/2/1 12/2/1 16/2/1
f 12/1/1 13/1/1 17/1/1
f 16/2/1 12/2/1 17/2/1
f 13/2/1 14/2/1 18/2/1
f 17/1/1 13/1/1 18/1/1
f 16/1/1 17/1/1 19/1/1
f 17/2/1 18/2/1 20/2/1
f 19/1/1 17/1/1 20/1/1
f 14/2/1 9/2/1 21/2/1
f 20/2/1 18/2/1 21/2/1
f 18/2/1 14/2/1 21/2/1
f 9/1/1 4/1/1 22/1/1
f 21/2/1 9/2/1 22/2/1
f 22/1/1 4/1/1 23/1/1
f 20/2/1 21/2/1 24/2/1
f 24/2/1 21/2/1 25/2/1
f 21/1/1 22/1/1 26/1/1
f 25/2/1 21/2/1 26/2/1
f 22/2/1 23/2/1 27/2/1
f 26/1/1 22/1/1 27/1/1
f 25/2/1 26/2/1 28/2/1
f 26/2/1 27/2/1 28/2/1
f 27/2/1 23/2/1 29/2/1
f 28/2/1 27/2/1 29/2/1
f 34/1/2 31/1/2 30/1/2
f 35/1/2 31/1/2 34/1/2
f 36/1/2 31/1/2 35/1/2
f 37/1/2 33/1/2 32/1/2
f 38/1/2 33/1/2 37/1/2
f 39/2/2 35/2/2 34/2/2
f 40/2/2 35/2/2 39/2/2
f 41/2/2 35/2/2 40/2/2
f 42/1/2 36/1/2 35/1/2
f 42/2/2 35/2/2 41/2/2
f 42/1/2 37/1/2 36/1/2
f 43/2/2 38/2/2 37/2/2
f 43/1/2 37/1/2 42/1/2
f 44/2/2 41/2/2 40/2/2
f 45/2/2 41/2/2 44/2/2
f 46/1/2 42/1/2 41/1/2
f 46/2/2 41/2/2 45/2/2
f 47/2/2 43/2/2 42/2/2
f 47/1/2 42/1/2 46/1/2
f 48/1/2 46/1/2 45/1/2
f 49/2/2 47/2/2 46/2/2
f 49/1/2 46/1/2 48/1/2
f 50/2/2 38/2/2 43/2/2
f 50/2/2 47/2/2 49/2/2
f 50/2/2 43/2/2 47/2/2
f 51/1/2 33/1/2 38/1/2
f 51/2/2 38/2/2 50/2/2
f 52/1/2 33/1/2 51/1/2
f 53/2/2 50/2/2 49/2/2
f 54/2/2 50/2/2 53/2/2
f 55/1/2 51/1/2 50/1/2
f 55/2/2 50/2/2 54/2/2
f 56/2/2 52/2/2 51/2/2
f 56/1/2 51/1/2 55/1/2
f 57/2/2 55/2/2 54/2/2
f 57/2/2 56/2/2 55/2/2
f 58/2/2 52/2/2 56/2/2
f 58/2/2 56/2/2 57/2/2
f 59/1/3 60/1/3 62/1/3
f 60/2/3 61/2/3 63/2/3
f 62/1/3 60/1/3 63/1/3
f 63/2/3 61/2/3 64/2/3
f 65/2/3 66/2/3 67/2/3
f 67/2/3 66/2/3 68/2/3
f 69/1/3 70/1/3 71/1/3
f 71/1/3 70/1/3 72/1/3
f 73/2/3 74/2/3 75/2/3
f 75/2/3 74/2/3 76/2/3
f 77/2/3 78/2/3 79/2/3
f 79/2/3 78/2/3 80/2/3
f 81/1/3 82/1/3 83/1/3
f 83/1/3 82/1/3 84/1/3
f 87/1/4 86/1/4 85/1/4
f 88/1/4 86/1/4 87/1/4
f 92/1/4 90/1/4 89/1/4
f 93/2/4 91/2/4 90/2/4
f 93/1/4 90/1/4 92/1/4
f 94/2/4 91/2/4 93/2/4
f 95/1/5 96/1/5 97/1/5
f 97/1/5 96/1/5 98/1/5
f 99/1/5 100/1/5 101/1/5
f 101/1/5 100/1/5 102/1/5
f 103/1/5 104/1/5 105/1/5
f 105/1/5 104/1/5 106/1/5
f 109/2/6 108/2/6 107/2/6
f 110/2/6 108/2/6 109/2/6
f 113/2/6 112/2/6 111/2/6
f 114/2/6 112/2/6 113/2/6
f 117/1/6 116/1/6 115/1/6
f 118/1/6 116/1/6 117/1/6
f 121/2/6 120/2/6 119/2/6
f 122/2/6 120/2/6 121/2/6
f 125/2/6 124/2/6 123/2/6
f 126/2/6 124/2/6 125/2/6
