# MagicaVoxel @ Ephtracy

# group
o Shoe_03

# material
mtllib Body-8-Shoe_03.mtl
usemtl palette

# normals
vn -1 0 0
vn 1 0 0
vn 0 0 1
vn 0 0 -1
vn 0 -1 0
vn 0 1 0

# texcoords
vt 0.482422 0.5
vt 0.486328 0.5
vt 0.958984 0.5
vt 0.962891 0.5

# verts
v -0.5 0 0.8
v -0.5 0 0.4
v -0.5 0 0
v -0.5 0 -0.1
v -0.5 0.1 0.8
v -0.5 0.1 0.4
v -0.5 0.1 0.3
v -0.5 0.2 0.8
v -0.5 0.2 0.7
v -0.5 0.2 0.6
v -0.5 0.2 0.5
v -0.5 0.3 0.7
v -0.5 0.3 0.6
v -0.5 0.3 0.5
v -0.5 0.3 0.4
v -0.5 0.3 0.3
v -0.5 0.3 0.2
v -0.5 0.4 0.5
v -0.5 0.4 0.4
v -0.5 0.4 0.3
v -0.5 0.4 0.2
v -0.5 0.4 0
v -0.5 0.4 -0.1
v -0.5 0.5 0.4
v -0.5 0.5 0.3
v -0.5 0.5 0.2
v -0.5 0.5 0
v -0.5 0.6 0.3
v -0.5 0.6 0.2
v -0.5 0.6 -0.1
v -0.3 0 0.8
v -0.3 0 0.4
v -0.3 0 0
v -0.3 0 -0.1
v -0.3 0.1 0.8
v -0.3 0.1 0.7
v -0.3 0.1 0.4
v -0.3 0.1 0.3
v -0.3 0.2 0.8
v -0.3 0.2 0.7
v -0.3 0.2 0.6
v -0.3 0.2 0.5
v -0.3 0.3 0.7
v -0.3 0.3 0.6
v -0.3 0.3 0.5
v -0.3 0.3 0.4
v -0.3 0.3 0.3
v -0.3 0.3 0.2
v -0.3 0.4 0.5
v -0.3 0.4 0.4
v -0.3 0.4 0.3
v -0.3 0.4 0.2
v -0.3 0.4 0
v -0.3 0.5 0.4
v -0.3 0.5 0.3
v -0.3 0.5 0.2
v -0.3 0.5 -0.1
v -0.3 0.6 0.3
v -0.3 0.6 0.2
v -0.3 0.6 -0.1
v -0.5 0 0.8
v -0.5 0.1 0.8
v -0.5 0.2 0.8
v -0.4 0.1 0.8
v -0.4 0.2 0.8
v -0.3 0 0.8
v -0.3 0.1 0.8
v -0.3 0.2 0.8
v -0.5 0.2 0.7
v -0.5 0.3 0.7
v -0.4 0.2 0.7
v -0.3 0.2 0.7
v -0.3 0.3 0.7
v -0.5 0.3 0.5
v -0.5 0.4 0.5
v -0.4 0.3 0.5
v -0.4 0.4 0.5
v -0.3 0.3 0.5
v -0.3 0.4 0.5
v -0.5 0.4 0.4
v -0.5 0.5 0.4
v -0.4 0.4 0.4
v -0.4 0.5 0.4
v -0.3 0.4 0.4
v -0.3 0.5 0.4
v -0.5 0.5 0.3
v -0.5 0.6 0.3
v -0.4 0.5 0.3
v -0.3 0.5 0.3
v -0.3 0.6 0.3
v -0.5 0 0
v -0.5 0.4 0
v -0.3 0 0
v -0.3 0.4 0
v -0.5 0 0.4
v -0.5 0.1 0.4
v -0.3 0 0.4
v -0.3 0.1 0.4
v -0.5 0.1 0.3
v -0.5 0.3 0.3
v -0.3 0.1 0.3
v -0.3 0.3 0.3
v -0.5 0.3 0.2
v -0.5 0.4 0.2
v -0.3 0.3 0.2
v -0.3 0.4 0.2
v -0.5 0 -0.1
v -0.5 0.4 -0.1
v -0.5 0.6 -0.1
v -0.4 0.4 -0.1
v -0.4 0.5 -0.1
v -0.3 0 -0.1
v -0.3 0.5 -0.1
v -0.3 0.6 -0.1
v -0.5 0 0.8
v -0.3 0 0.8
v -0.5 0 0.4
v -0.3 0 0.4
v -0.5 0 0
v -0.3 0 0
v -0.5 0 -0.1
v -0.3 0 -0.1
v -0.5 0.1 0.4
v -0.3 0.1 0.4
v -0.5 0.1 0.3
v -0.3 0.1 0.3
v -0.5 0.3 0.3
v -0.3 0.3 0.3
v -0.5 0.3 0.2
v -0.3 0.3 0.2
v -0.5 0.4 0.2
v -0.3 0.4 0.2
v -0.5 0.4 0
v -0.3 0.4 0
v -0.5 0.2 0.8
v -0.4 0.2 0.8
v -0.3 0.2 0.8
v -0.5 0.2 0.7
v -0.4 0.2 0.7
v -0.3 0.2 0.7
v -0.5 0.3 0.7
v -0.3 0.3 0.7
v -0.5 0.3 0.6
v -0.3 0.3 0.6
v -0.5 0.3 0.5
v -0.4 0.3 0.5
v -0.3 0.3 0.5
v -0.5 0.4 0.5
v -0.4 0.4 0.5
v -0.3 0.4 0.5
v -0.5 0.4 0.4
v -0.4 0.4 0.4
v -0.3 0.4 0.4
v -0.5 0.5 0.4
v -0.4 0.5 0.4
v -0.3 0.5 0.4
v -0.5 0.5 0.3
v -0.4 0.5 0.3
v -0.3 0.5 0.3
v -0.5 0.6 0.3
v -0.3 0.6 0.3
v -0.5 0.6 0.2
v -0.3 0.6 0.2
v -0.5 0.6 -0.1
v -0.3 0.6 -0.1

# faces
f 5/3/1 2/3/1 1/3/1
f 6/3/1 2/3/1 5/3/1
f 8/4/1 6/4/1 5/4/1
f 9/4/1 6/4/1 8/4/1
f 10/4/1 6/4/1 9/4/1
f 11/4/1 6/4/1 10/4/1
f 12/4/1 10/4/1 9/4/1
f 13/1/1 11/1/1 10/1/1
f 13/4/1 10/4/1 12/4/1
f 14/4/1 6/4/1 11/4/1
f 14/1/1 11/1/1 13/1/1
f 15/3/1 7/3/1 6/3/1
f 15/4/1 6/4/1 14/4/1
f 16/3/1 7/3/1 15/3/1
f 18/2/1 15/2/1 14/2/1
f 19/4/1 16/4/1 15/4/1
f 19/2/1 15/2/1 18/2/1
f 20/3/1 17/3/1 16/3/1
f 20/4/1 16/4/1 19/4/1
f 21/3/1 17/3/1 20/3/1
f 22/3/1 4/3/1 3/3/1
f 23/3/1 4/3/1 22/3/1
f 24/2/1 20/2/1 19/2/1
f 25/4/1 21/4/1 20/4/1
f 25/2/1 20/2/1 24/2/1
f 26/3/1 22/3/1 21/3/1
f 26/4/1 21/4/1 25/4/1
f 27/4/1 23/4/1 22/4/1
f 27/3/1 22/3/1 26/3/1
f 28/1/1 26/1/1 25/1/1
f 29/4/1 27/4/1 26/4/1
f 29/1/1 26/1/1 28/1/1
f 30/4/1 23/4/1 27/4/1
f 30/4/1 27/4/1 29/4/1
f 31/3/2 32/3/2 35/3/2
f 35/3/2 32/3/2 36/3/2
f 36/3/2 32/3/2 37/3/2
f 35/1/2 36/1/2 39/1/2
f 36/4/2 37/4/2 40/4/2
f 39/1/2 36/1/2 40/1/2
f 40/4/2 37/4/2 41/4/2
f 41/4/2 37/4/2 42/4/2
f 40/4/2 41/4/2 43/4/2
f 41/1/2 42/1/2 44/1/2
f 43/4/2 41/4/2 44/4/2
f 42/4/2 37/4/2 45/4/2
f 44/1/2 42/1/2 45/1/2
f 37/3/2 38/3/2 46/3/2
f 45/4/2 37/4/2 46/4/2
f 46/3/2 38/3/2 47/3/2
f 45/1/2 46/1/2 49/1/2
f 46/4/2 47/4/2 50/4/2
f 49/1/2 46/1/2 50/1/2
f 47/3/2 48/3/2 51/3/2
f 50/4/2 47/4/2 51/4/2
f 51/3/2 48/3/2 52/3/2
f 33/3/2 34/3/2 53/3/2
f 50/1/2 51/1/2 54/1/2
f 51/4/2 52/4/2 55/4/2
f 54/1/2 51/1/2 55/1/2
f 52/3/2 53/3/2 56/3/2
f 55/4/2 52/4/2 56/4/2
f 53/3/2 34/3/2 57/3/2
f 56/3/2 53/3/2 57/3/2
f 55/1/2 56/1/2 58/1/2
f 56/4/2 57/4/2 59/4/2
f 58/1/2 56/1/2 59/1/2
f 59/4/2 57/4/2 60/4/2
f 64/3/3 62/3/3 61/3/3
f 64/4/3 63/4/3 62/4/3
f 65/4/3 63/4/3 64/4/3
f 66/3/3 64/3/3 61/3/3
f 67/1/3 65/1/3 64/1/3
f 67/3/3 64/3/3 66/3/3
f 68/1/3 65/1/3 67/1/3
f 71/4/3 70/4/3 69/4/3
f 72/4/3 70/4/3 71/4/3
f 73/4/3 70/4/3 72/4/3
f 76/2/3 75/2/3 74/2/3
f 77/2/3 75/2/3 76/2/3
f 78/1/3 77/1/3 76/1/3
f 79/1/3 77/1/3 78/1/3
f 82/2/3 81/2/3 80/2/3
f 83/2/3 81/2/3 82/2/3
f 84/1/3 83/1/3 82/1/3
f 85/1/3 83/1/3 84/1/3
f 88/1/3 87/1/3 86/1/3
f 89/1/3 87/1/3 88/1/3
f 90/1/3 87/1/3 89/1/3
f 93/3/3 92/3/3 91/3/3
f 94/3/3 92/3/3 93/3/3
f 95/3/4 96/3/4 97/3/4
f 97/3/4 96/3/4 98/3/4
f 99/3/4 100/3/4 101/3/4
f 101/3/4 100/3/4 102/3/4
f 103/3/4 104/3/4 105/3/4
f 105/3/4 104/3/4 106/3/4
f 107/3/4 108/3/4 110/3/4
f 108/4/4 109/4/4 110/4/4
f 110/4/4 109/4/4 111/4/4
f 107/3/4 110/3/4 112/3/4
f 110/3/4 111/3/4 112/3/4
f 111/4/4 109/4/4 113/4/4
f 112/3/4 111/3/4 113/3/4
f 113/4/4 109/4/4 114/4/4
f 117/3/5 116/3/5 115/3/5
f 118/3/5 116/3/5 117/3/5
f 121/3/5 120/3/5 119/3/5
f 122/3/5 120/3/5 121/3/5
f 125/3/5 124/3/5 123/3/5
f 126/3/5 124/3/5 125/3/5
f 129/3/5 128/3/5 127/3/5
f 130/3/5 128/3/5 129/3/5
f 133/3/5 132/3/5 131/3/5
f 134/3/5 132/3/5 133/3/5
f 135/4/6 136/4/6 138/4/6
f 136/1/6 137/1/6 139/1/6
f 138/4/6 136/4/6 139/4/6
f 139/1/6 137/1/6 140/1/6
f 141/4/6 142/4/6 143/4/6
f 143/4/6 142/4/6 144/4/6
f 143/1/6 144/1/6 145/1/6
f 145/1/6 144/1/6 146/1/6
f 146/1/6 144/1/6 147/1/6
f 148/2/6 149/2/6 151/2/6
f 149/1/6 150/1/6 152/1/6
f 151/2/6 149/2/6 152/2/6
f 152/1/6 150/1/6 153/1/6
f 154/2/6 155/2/6 157/2/6
f 155/1/6 156/1/6 158/1/6
f 157/2/6 155/2/6 158/2/6
f 158/1/6 156/1/6 159/1/6
f 160/1/6 161/1/6 162/1/6
f 162/1/6 161/1/6 163/1/6
f 162/4/6 163/4/6 164/4/6
f 164/4/6 163/4/6 165/4/6
