# MagicaVoxel @ Ephtracy

# group
o 

# material
mtllib Bag-7.mtl
usemtl palette

# normals
vn -1 0 0
vn 1 0 0
vn 0 0 1
vn 0 0 -1
vn 0 -1 0
vn 0 1 0

# texcoords
vt 0.705078 0.5
vt 0.708984 0.5
vt 0.712891 0.5
vt 0.841797 0.5
vt 0.857422 0.5

# verts
v -0.4 -0.5 -0.2
v -0.4 -0.5 -0.4
v -0.4 -0.5 -0.5
v -0.4 -0.5 -0.6
v -0.4 0.1 -0.2
v -0.4 0.1 -0.3
v -0.4 0.1 -0.4
v -0.4 0.1 -0.5
v -0.4 0.1 -0.6
v -0.4 0.2 -0.3
v -0.4 0.2 -0.5
v -0.3 -0.5 -0.4
v -0.3 -0.5 -0.5
v -0.3 -0.4 -0.4
v -0.3 -0.4 -0.5
v -0.3 -0.1 -0.4
v -0.3 -0.1 -0.5
v -0.3 0.1 -0.4
v -0.3 0.1 -0.5
v -0.2 -0.5 -0.6
v -0.2 -0.5 -0.7
v -0.2 -0.2 -0.6
v -0.2 0 -0.6
v -0.2 0.1 -0.3
v -0.2 0.1 -0.4
v -0.2 0.1 -0.5
v -0.2 0.1 -0.6
v -0.2 0.1 -0.7
v -0.2 0.2 -0.4
v -0.2 0.2 -0.5
v -0.2 0.2 -0.6
v -0.2 0.4 0.7
v -0.2 0.4 0.6
v -0.2 0.4 0
v -0.2 0.4 -0.3
v -0.2 0.4 -0.4
v -0.2 0.5 0.7
v -0.2 0.5 0.6
v -0.2 0.5 0
v -0.2 0.5 -0.3
v -0.1 -0.5 -0.5
v -0.1 -0.5 -0.6
v -0.1 -0.4 -0.5
v -0.1 -0.4 -0.6
v -0.1 0.4 0.5
v -0.1 0.4 0.4
v -0.1 0.5 0.5
v -0.1 0.5 0.4
v 0.1 0.1 -0.3
v 0.1 0.1 -0.4
v 0.1 0.4 0.6
v 0.1 0.4 0.5
v 0.1 0.4 0.4
v 0.1 0.4 -0.3
v 0.1 0.4 -0.4
v 0.1 0.5 0.6
v 0.1 0.5 0.5
v 0.1 0.5 0.4
v 0.1 0.5 -0.3
v 0.2 -0.5 -0.5
v 0.2 -0.5 -0.6
v 0.2 -0.4 -0.5
v 0.2 -0.4 -0.6
v 0.2 0.1 -0.4
v 0.2 0.1 -0.5
v 0.2 0.2 -0.4
v 0.2 0.2 -0.5
v 0.3 0.1 -0.3
v 0.3 0.1 -0.4
v 0.3 0.2 -0.3
v 0.3 0.2 -0.4
v -0.3 0.1 -0.3
v -0.3 0.1 -0.4
v -0.3 0.2 -0.3
v -0.3 0.2 -0.4
v -0.2 -0.5 -0.5
v -0.2 -0.5 -0.6
v -0.2 -0.4 -0.5
v -0.2 -0.4 -0.6
v -0.2 0.1 -0.4
v -0.2 0.1 -0.5
v -0.2 0.2 -0.4
v -0.2 0.2 -0.5
v -0.1 0.1 -0.3
v -0.1 0.1 -0.4
v -0.1 0.4 0
v -0.1 0.4 -0.3
v -0.1 0.4 -0.4
v -0.1 0.5 0
v -0.1 0.5 -0.3
v 0.1 -0.5 -0.5
v 0.1 -0.5 -0.6
v 0.1 -0.4 -0.5
v 0.1 -0.4 -0.6
v 0.2 -0.5 -0.6
v 0.2 -0.5 -0.7
v 0.2 -0.2 -0.6
v 0.2 0 -0.6
v 0.2 0.1 -0.3
v 0.2 0.1 -0.4
v 0.2 0.1 -0.5
v 0.2 0.1 -0.6
v 0.2 0.1 -0.7
v 0.2 0.2 -0.4
v 0.2 0.2 -0.5
v 0.2 0.2 -0.6
v 0.2 0.4 0.7
v 0.2 0.4 -0.3
v 0.2 0.4 -0.4
v 0.2 0.5 0.7
v 0.2 0.5 -0.3
v 0.3 -0.5 -0.4
v 0.3 -0.5 -0.5
v 0.3 -0.4 -0.4
v 0.3 -0.4 -0.5
v 0.3 -0.2 -0.4
v 0.3 -0.2 -0.5
v 0.3 0.1 -0.4
v 0.3 0.1 -0.5
v 0.4 -0.5 -0.2
v 0.4 -0.5 -0.4
v 0.4 -0.5 -0.5
v 0.4 -0.5 -0.6
v 0.4 0.1 -0.2
v 0.4 0.1 -0.3
v 0.4 0.1 -0.4
v 0.4 0.1 -0.5
v 0.4 0.1 -0.6
v 0.4 0.2 -0.3
v 0.4 0.2 -0.5
v -0.2 0.4 0.7
v -0.2 0.5 0.7
v 0.2 0.4 0.7
v 0.2 0.5 0.7
v -0.1 0.4 0.5
v -0.1 0.5 0.5
v 0.1 0.4 0.5
v 0.1 0.5 0.5
v -0.2 0.4 0
v -0.2 0.5 0
v -0.1 0.4 0
v -0.1 0.5 0
v -0.4 -0.5 -0.2
v -0.4 0.1 -0.2
v 0.4 -0.5 -0.2
v 0.4 0.1 -0.2
v -0.4 0.1 -0.3
v -0.4 0.2 -0.3
v -0.3 0.1 -0.3
v -0.3 0.2 -0.3
v -0.2 0.1 -0.3
v -0.2 0.4 -0.3
v -0.1 0.1 -0.3
v -0.1 0.4 -0.3
v 0.1 0.1 -0.3
v 0.1 0.4 -0.3
v 0.2 0.1 -0.3
v 0.2 0.4 -0.3
v 0.3 0.1 -0.3
v 0.3 0.2 -0.3
v 0.4 0.1 -0.3
v 0.4 0.2 -0.3
v -0.3 0.1 -0.4
v -0.3 0.2 -0.4
v -0.2 0.1 -0.4
v -0.2 0.2 -0.4
v 0.2 0.1 -0.4
v 0.2 0.2 -0.4
v 0.3 0.1 -0.4
v 0.3 0.2 -0.4
v -0.4 -0.5 -0.5
v -0.4 0.1 -0.5
v -0.3 -0.5 -0.5
v -0.3 -0.4 -0.5
v -0.3 -0.1 -0.5
v -0.3 0.1 -0.5
v -0.2 0.1 -0.5
v -0.2 0.2 -0.5
v 0.2 0.1 -0.5
v 0.2 0.2 -0.5
v 0.3 -0.5 -0.5
v 0.3 -0.4 -0.5
v 0.3 -0.2 -0.5
v 0.3 0.1 -0.5
v 0.4 -0.5 -0.5
v 0.4 0.1 -0.5
v -0.2 -0.5 -0.6
v -0.2 -0.4 -0.6
v -0.1 -0.5 -0.6
v -0.1 -0.4 -0.6
v 0.1 -0.5 -0.6
v 0.1 -0.4 -0.6
v 0.2 -0.5 -0.6
v 0.2 -0.4 -0.6
v -0.2 0.4 0.6
v -0.2 0.5 0.6
v 0.1 0.4 0.6
v 0.1 0.5 0.6
v -0.1 0.4 0.4
v -0.1 0.5 0.4
v 0.1 0.4 0.4
v 0.1 0.5 0.4
v -0.2 0.4 -0.3
v -0.2 0.5 -0.3
v -0.1 0.4 -0.3
v -0.1 0.5 -0.3
v 0.1 0.4 -0.3
v 0.1 0.5 -0.3
v 0.2 0.4 -0.3
v 0.2 0.5 -0.3
v -0.4 -0.5 -0.4
v -0.4 0.1 -0.4
v -0.3 -0.5 -0.4
v -0.3 -0.4 -0.4
v -0.3 -0.1 -0.4
v -0.3 0.1 -0.4
v -0.2 0.1 -0.4
v -0.2 0.2 -0.4
v -0.2 0.4 -0.4
v -0.1 0.1 -0.4
v -0.1 0.4 -0.4
v 0.1 0.1 -0.4
v 0.1 0.4 -0.4
v 0.2 0.1 -0.4
v 0.2 0.2 -0.4
v 0.2 0.4 -0.4
v 0.3 -0.5 -0.4
v 0.3 -0.4 -0.4
v 0.3 -0.2 -0.4
v 0.3 0.1 -0.4
v 0.4 -0.5 -0.4
v 0.4 0.1 -0.4
v -0.4 0.1 -0.5
v -0.4 0.2 -0.5
v -0.2 -0.5 -0.5
v -0.2 -0.4 -0.5
v -0.2 0.1 -0.5
v -0.2 0.2 -0.5
v -0.1 -0.5 -0.5
v -0.1 -0.4 -0.5
v 0.1 -0.5 -0.5
v 0.1 -0.4 -0.5
v 0.2 -0.5 -0.5
v 0.2 -0.4 -0.5
v 0.2 0.1 -0.5
v 0.2 0.2 -0.5
v 0.4 0.1 -0.5
v 0.4 0.2 -0.5
v -0.4 -0.5 -0.6
v -0.4 0.1 -0.6
v -0.3 -0.2 -0.6
v -0.3 0 -0.6
v -0.2 -0.5 -0.6
v -0.2 -0.2 -0.6
v -0.2 0 -0.6
v -0.2 0.1 -0.6
v -0.2 0.2 -0.6
v 0.2 -0.5 -0.6
v 0.2 -0.2 -0.6
v 0.2 0 -0.6
v 0.2 0.1 -0.6
v 0.2 0.2 -0.6
v 0.3 -0.2 -0.6
v 0.3 0 -0.6
v 0.4 -0.5 -0.6
v 0.4 0.1 -0.6
v -0.2 -0.5 -0.7
v -0.2 0.1 -0.7
v 0.2 -0.5 -0.7
v 0.2 0.1 -0.7
v -0.4 -0.5 -0.2
v 0.4 -0.5 -0.2
v -0.4 -0.5 -0.4
v -0.3 -0.5 -0.4
v 0.3 -0.5 -0.4
v 0.4 -0.5 -0.4
v -0.4 -0.5 -0.5
v -0.3 -0.5 -0.5
v -0.2 -0.5 -0.5
v -0.1 -0.5 -0.5
v 0.1 -0.5 -0.5
v 0.2 -0.5 -0.5
v 0.3 -0.5 -0.5
v 0.4 -0.5 -0.5
v -0.4 -0.5 -0.6
v -0.2 -0.5 -0.6
v -0.1 -0.5 -0.6
v 0.1 -0.5 -0.6
v 0.2 -0.5 -0.6
v 0.4 -0.5 -0.6
v -0.2 -0.5 -0.7
v 0.2 -0.5 -0.7
v -0.2 -0.4 -0.5
v -0.1 -0.4 -0.5
v 0.1 -0.4 -0.5
v 0.2 -0.4 -0.5
v -0.2 -0.4 -0.6
v -0.1 -0.4 -0.6
v 0.1 -0.4 -0.6
v 0.2 -0.4 -0.6
v -0.4 0.1 -0.4
v -0.3 0.1 -0.4
v 0.3 0.1 -0.4
v 0.4 0.1 -0.4
v -0.4 0.1 -0.5
v -0.3 0.1 -0.5
v 0.3 0.1 -0.5
v 0.4 0.1 -0.5
v -0.2 0.4 0.7
v 0.2 0.4 0.7
v -0.2 0.4 0.6
v 0.1 0.4 0.6
v -0.1 0.4 0.5
v 0.1 0.4 0.5
v -0.1 0.4 0.4
v 0.1 0.4 0.4
v -0.2 0.4 0
v -0.1 0.4 0
v -0.2 0.4 -0.3
v -0.1 0.4 -0.3
v 0.1 0.4 -0.3
v 0.2 0.4 -0.3
v -0.4 0.1 -0.2
v 0.4 0.1 -0.2
v -0.4 0.1 -0.3
v -0.3 0.1 -0.3
v -0.2 0.1 -0.3
v -0.1 0.1 -0.3
v 0.1 0.1 -0.3
v 0.2 0.1 -0.3
v 0.3 0.1 -0.3
v 0.4 0.1 -0.3
v -0.3 0.1 -0.4
v -0.2 0.1 -0.4
v -0.1 0.1 -0.4
v 0.1 0.1 -0.4
v 0.2 0.1 -0.4
v 0.3 0.1 -0.4
v -0.4 0.1 -0.5
v -0.2 0.1 -0.5
v 0.2 0.1 -0.5
v 0.4 0.1 -0.5
v -0.4 0.1 -0.6
v -0.2 0.1 -0.6
v 0.2 0.1 -0.6
v 0.4 0.1 -0.6
v -0.2 0.1 -0.7
v 0.2 0.1 -0.7
v -0.4 0.2 -0.3
v -0.3 0.2 -0.3
v 0.3 0.2 -0.3
v 0.4 0.2 -0.3
v -0.3 0.2 -0.4
v -0.2 0.2 -0.4
v 0.2 0.2 -0.4
v 0.3 0.2 -0.4
v -0.4 0.2 -0.5
v -0.2 0.2 -0.5
v 0.2 0.2 -0.5
v 0.4 0.2 -0.5
v -0.2 0.2 -0.6
v 0.2 0.2 -0.6
v -0.2 0.4 -0.3
v -0.1 0.4 -0.3
v 0.1 0.4 -0.3
v 0.2 0.4 -0.3
v -0.2 0.4 -0.4
v -0.1 0.4 -0.4
v 0.1 0.4 -0.4
v 0.2 0.4 -0.4
v -0.2 0.5 0.7
v 0.2 0.5 0.7
v -0.2 0.5 0.6
v 0.1 0.5 0.6
v -0.1 0.5 0.5
v 0.1 0.5 0.5
v -0.1 0.5 0.4
v 0.1 0.5 0.4
v -0.2 0.5 0
v -0.1 0.5 0
v -0.2 0.5 -0.3
v -0.1 0.5 -0.3
v 0.1 0.5 -0.3
v 0.2 0.5 -0.3

# faces
f 5/3/1 2/3/1 1/3/1
f 6/3/1 2/3/1 5/3/1
f 7/3/1 2/3/1 6/3/1
f 8/2/1 4/2/1 3/2/1
f 9/2/1 4/2/1 8/2/1
f 10/3/1 7/3/1 6/3/1
f 10/3/1 8/3/1 7/3/1
f 11/3/1 8/3/1 10/3/1
f 14/3/1 13/3/1 12/3/1
f 15/3/1 13/3/1 14/3/1
f 16/5/1 15/5/1 14/5/1
f 17/5/1 15/5/1 16/5/1
f 18/4/1 17/4/1 16/4/1
f 19/4/1 17/4/1 18/4/1
f 22/2/1 21/2/1 20/2/1
f 23/2/1 21/2/1 22/2/1
f 27/2/1 21/2/1 23/2/1
f 28/2/1 21/2/1 27/2/1
f 29/1/1 25/1/1 24/1/1
f 30/3/1 27/3/1 26/3/1
f 31/3/1 27/3/1 30/3/1
f 35/1/1 29/1/1 24/1/1
f 36/1/1 29/1/1 35/1/1
f 37/1/1 33/1/1 32/1/1
f 38/1/1 33/1/1 37/1/1
f 39/1/1 35/1/1 34/1/1
f 40/1/1 35/1/1 39/1/1
f 43/3/1 42/3/1 41/3/1
f 44/3/1 42/3/1 43/3/1
f 47/1/1 46/1/1 45/1/1
f 48/1/1 46/1/1 47/1/1
f 54/1/1 50/1/1 49/1/1
f 55/1/1 50/1/1 54/1/1
f 56/1/1 52/1/1 51/1/1
f 57/1/1 52/1/1 56/1/1
f 58/1/1 54/1/1 53/1/1
f 59/1/1 54/1/1 58/1/1
f 62/2/1 61/2/1 60/2/1
f 63/2/1 61/2/1 62/2/1
f 66/3/1 65/3/1 64/3/1
f 67/3/1 65/3/1 66/3/1
f 70/3/1 69/3/1 68/3/1
f 71/3/1 69/3/1 70/3/1
f 72/3/2 73/3/2 74/3/2
f 74/3/2 73/3/2 75/3/2
f 76/2/2 77/2/2 78/2/2
f 78/2/2 77/2/2 79/2/2
f 80/3/2 81/3/2 82/3/2
f 82/3/2 81/3/2 83/3/2
f 84/1/2 85/1/2 87/1/2
f 87/1/2 85/1/2 88/1/2
f 86/1/2 87/1/2 89/1/2
f 89/1/2 87/1/2 90/1/2
f 91/3/2 92/3/2 93/3/2
f 93/3/2 92/3/2 94/3/2
f 95/2/2 96/2/2 97/2/2
f 97/2/2 96/2/2 98/2/2
f 98/2/2 96/2/2 102/2/2
f 102/2/2 96/2/2 103/2/2
f 99/1/2 100/1/2 104/1/2
f 101/3/2 102/3/2 105/3/2
f 105/3/2 102/3/2 106/3/2
f 99/1/2 104/1/2 108/1/2
f 108/1/2 104/1/2 109/1/2
f 107/1/2 108/1/2 110/1/2
f 110/1/2 108/1/2 111/1/2
f 112/3/2 113/3/2 114/3/2
f 114/3/2 113/3/2 115/3/2
f 114/5/2 115/5/2 116/5/2
f 116/5/2 115/5/2 117/5/2
f 116/4/2 117/4/2 118/4/2
f 118/4/2 117/4/2 119/4/2
f 120/3/2 121/3/2 124/3/2
f 124/3/2 121/3/2 125/3/2
f 125/3/2 121/3/2 126/3/2
f 122/2/2 123/2/2 127/2/2
f 127/2/2 123/2/2 128/2/2
f 125/3/2 126/3/2 129/3/2
f 126/3/2 127/3/2 129/3/2
f 129/3/2 127/3/2 130/3/2
f 133/1/3 132/1/3 131/1/3
f 134/1/3 132/1/3 133/1/3
f 137/1/3 136/1/3 135/1/3
f 138/1/3 136/1/3 137/1/3
f 141/1/3 140/1/3 139/1/3
f 142/1/3 140/1/3 141/1/3
f 145/3/3 144/3/3 143/3/3
f 146/3/3 144/3/3 145/3/3
f 149/3/3 148/3/3 147/3/3
f 150/3/3 148/3/3 149/3/3
f 153/1/3 152/1/3 151/1/3
f 154/1/3 152/1/3 153/1/3
f 157/1/3 156/1/3 155/1/3
f 158/1/3 156/1/3 157/1/3
f 161/3/3 160/3/3 159/3/3
f 162/3/3 160/3/3 161/3/3
f 165/3/3 164/3/3 163/3/3
f 166/3/3 164/3/3 165/3/3
f 169/3/3 168/3/3 167/3/3
f 170/3/3 168/3/3 169/3/3
f 173/2/3 172/2/3 171/2/3
f 174/2/3 172/2/3 173/2/3
f 175/2/3 172/2/3 174/2/3
f 176/2/3 172/2/3 175/2/3
f 179/3/3 178/3/3 177/3/3
f 180/3/3 178/3/3 179/3/3
f 185/2/3 182/2/3 181/2/3
f 185/2/3 184/2/3 183/2/3
f 185/2/3 183/2/3 182/2/3
f 186/2/3 184/2/3 185/2/3
f 189/2/3 188/2/3 187/2/3
f 190/2/3 188/2/3 189/2/3
f 193/2/3 192/2/3 191/2/3
f 194/2/3 192/2/3 193/2/3
f 195/1/4 196/1/4 197/1/4
f 197/1/4 196/1/4 198/1/4
f 199/1/4 200/1/4 201/1/4
f 201/1/4 200/1/4 202/1/4
f 203/1/4 204/1/4 205/1/4
f 205/1/4 204/1/4 206/1/4
f 207/1/4 208/1/4 209/1/4
f 209/1/4 208/1/4 210/1/4
f 211/3/4 212/3/4 213/3/4
f 213/3/4 212/3/4 214/3/4
f 214/3/4 212/3/4 215/3/4
f 215/3/4 212/3/4 216/3/4
f 217/1/4 218/1/4 220/1/4
f 218/1/4 219/1/4 220/1/4
f 220/1/4 219/1/4 221/1/4
f 222/1/4 223/1/4 224/1/4
f 224/1/4 223/1/4 225/1/4
f 225/1/4 223/1/4 226/1/4
f 227/3/4 228/3/4 231/3/4
f 229/3/4 230/3/4 231/3/4
f 228/3/4 229/3/4 231/3/4
f 231/3/4 230/3/4 232/3/4
f 233/3/4 234/3/4 237/3/4
f 237/3/4 234/3/4 238/3/4
f 235/3/4 236/3/4 239/3/4
f 239/3/4 236/3/4 240/3/4
f 241/3/4 242/3/4 243/3/4
f 243/3/4 242/3/4 244/3/4
f 245/3/4 246/3/4 247/3/4
f 247/3/4 246/3/4 248/3/4
f 249/2/4 250/2/4 251/2/4
f 251/2/4 250/2/4 252/2/4
f 249/2/4 251/2/4 253/2/4
f 251/5/4 252/5/4 254/5/4
f 253/2/4 251/2/4 254/2/4
f 252/2/4 250/2/4 255/2/4
f 254/5/4 252/5/4 255/5/4
f 255/2/4 250/2/4 256/2/4
f 256/3/4 257/3/4 261/3/4
f 261/3/4 257/3/4 262/3/4
f 259/4/4 260/4/4 263/4/4
f 258/2/4 259/2/4 263/2/4
f 260/2/4 261/2/4 264/2/4
f 263/4/4 260/4/4 264/4/4
f 258/2/4 263/2/4 265/2/4
f 263/2/4 264/2/4 265/2/4
f 264/2/4 261/2/4 266/2/4
f 265/2/4 264/2/4 266/2/4
f 267/2/4 268/2/4 269/2/4
f 269/2/4 268/2/4 270/2/4
f 273/3/5 272/3/5 271/3/5
f 274/3/5 272/3/5 273/3/5
f 275/3/5 272/3/5 274/3/5
f 276/3/5 272/3/5 275/3/5
f 278/3/5 275/3/5 274/3/5
f 279/3/5 275/3/5 278/3/5
f 280/3/5 275/3/5 279/3/5
f 281/3/5 275/3/5 280/3/5
f 282/3/5 275/3/5 281/3/5
f 283/3/5 275/3/5 282/3/5
f 285/2/5 278/2/5 277/2/5
f 285/2/5 279/2/5 278/2/5
f 286/2/5 279/2/5 285/2/5
f 287/3/5 281/3/5 280/3/5
f 288/3/5 281/3/5 287/3/5
f 289/2/5 284/2/5 283/2/5
f 289/2/5 283/2/5 282/2/5
f 290/2/5 284/2/5 289/2/5
f 291/2/5 288/2/5 287/2/5
f 291/2/5 287/2/5 286/2/5
f 291/2/5 289/2/5 288/2/5
f 292/2/5 289/2/5 291/2/5
f 297/3/5 294/3/5 293/3/5
f 298/3/5 294/3/5 297/3/5
f 299/3/5 296/3/5 295/3/5
f 300/3/5 296/3/5 299/3/5
f 305/3/5 302/3/5 301/3/5
f 306/3/5 302/3/5 305/3/5
f 307/3/5 304/3/5 303/3/5
f 308/3/5 304/3/5 307/3/5
f 311/1/5 310/1/5 309/1/5
f 312/1/5 310/1/5 311/1/5
f 314/1/5 310/1/5 312/1/5
f 315/1/5 314/1/5 313/1/5
f 316/1/5 310/1/5 314/1/5
f 316/1/5 314/1/5 315/1/5
f 319/1/5 318/1/5 317/1/5
f 320/1/5 318/1/5 319/1/5
f 321/1/5 310/1/5 316/1/5
f 322/1/5 310/1/5 321/1/5
f 323/3/6 324/3/6 325/3/6
f 325/3/6 324/3/6 326/3/6
f 326/3/6 324/3/6 327/3/6
f 327/3/6 324/3/6 328/3/6
f 328/3/6 324/3/6 329/3/6
f 329/3/6 324/3/6 330/3/6
f 330/3/6 324/3/6 331/3/6
f 331/3/6 324/3/6 332/3/6
f 326/3/6 327/3/6 333/3/6
f 333/3/6 327/3/6 334/3/6
f 328/3/6 329/3/6 335/3/6
f 335/3/6 329/3/6 336/3/6
f 330/3/6 331/3/6 337/3/6
f 337/3/6 331/3/6 338/3/6
f 335/3/6 336/3/6 340/3/6
f 336/3/6 337/3/6 340/3/6
f 334/3/6 335/3/6 340/3/6
f 340/3/6 337/3/6 341/3/6
f 339/2/6 340/2/6 343/2/6
f 343/2/6 340/2/6 344/2/6
f 341/2/6 342/2/6 345/2/6
f 345/2/6 342/2/6 346/2/6
f 344/2/6 345/2/6 347/2/6
f 347/2/6 345/2/6 348/2/6
f 349/3/6 350/3/6 353/3/6
f 351/3/6 352/3/6 356/3/6
f 353/3/6 354/3/6 357/3/6
f 349/3/6 353/3/6 357/3/6
f 357/3/6 354/3/6 358/3/6
f 355/3/6 356/3/6 359/3/6
f 356/3/6 352/3/6 360/3/6
f 359/3/6 356/3/6 360/3/6
f 358/3/6 359/3/6 361/3/6
f 361/3/6 359/3/6 362/3/6
f 363/1/6 364/1/6 367/1/6
f 367/1/6 364/1/6 368/1/6
f 365/1/6 366/1/6 369/1/6
f 369/1/6 366/1/6 370/1/6
f 371/1/6 372/1/6 373/1/6
f 373/1/6 372/1/6 374/1/6
f 374/1/6 372/1/6 376/1/6
f 375/1/6 376/1/6 377/1/6
f 376/1/6 372/1/6 378/1/6
f 377/1/6 376/1/6 378/1/6
f 379/1/6 380/1/6 381/1/6
f 381/1/6 380/1/6 382/1/6
f 378/1/6 372/1/6 383/1/6
f 383/1/6 372/1/6 384/1/6
