# MagicaVoxel @ Ephtracy

# group
o 

# material
mtllib Other-15.mtl
usemtl palette

# normals
vn -1 0 0
vn 1 0 0
vn 0 0 1
vn 0 0 -1
vn 0 -1 0
vn 0 1 0

# texcoords
vt 0.705078 0.5
vt 0.708984 0.5
vt 0.712891 0.5

# verts
v -0.25 0.05 0.1
v -0.25 0.05 0
v -0.25 0.15 0.1
v -0.25 0.15 0
v -0.15 -0.15 0.1
v -0.15 -0.15 0
v -0.15 -0.05 0.1
v -0.15 -0.05 0
v -0.05 -0.05 0.1
v -0.05 -0.05 0
v -0.05 0.05 0.1
v -0.05 0.05 0
v 0.15 -0.05 0
v 0.15 -0.05 -0.1
v 0.15 0.05 0
v 0.15 0.05 -0.1
v 0.15 -0.15 0.1
v 0.15 -0.15 0
v 0.15 -0.05 0.1
v 0.15 -0.05 0
v 0.15 0.05 0.1
v 0.15 0.05 0
v 0.15 0.15 0.1
v 0.15 0.15 0
v 0.25 -0.05 0.1
v 0.25 -0.05 -0.1
v 0.25 0.05 0.1
v 0.25 0.05 -0.1
v -0.25 0.05 0.1
v -0.25 0.15 0.1
v -0.15 -0.15 0.1
v -0.15 -0.05 0.1
v -0.05 -0.15 0.1
v -0.05 -0.05 0.1
v -0.05 0.05 0.1
v -0.05 0.15 0.1
v 0.15 -0.15 0.1
v 0.15 -0.05 0.1
v 0.15 0.05 0.1
v 0.15 0.15 0.1
v 0.25 -0.05 0.1
v 0.25 0.05 0.1
v -0.25 0.05 0
v -0.25 0.15 0
v -0.15 -0.15 0
v -0.15 -0.05 0
v -0.05 -0.15 0
v -0.05 -0.05 0
v -0.05 0.05 0
v -0.05 0.15 0
v 0.15 -0.15 0
v 0.15 -0.05 0
v 0.15 0.05 0
v 0.15 0.15 0
v 0.15 -0.05 -0.1
v 0.15 0.05 -0.1
v 0.25 -0.05 -0.1
v 0.25 0.05 -0.1
v -0.15 -0.15 0.1
v -0.05 -0.15 0.1
v 0.15 -0.15 0.1
v -0.15 -0.15 0
v -0.05 -0.15 0
v 0.15 -0.15 0
v 0.15 -0.05 0.1
v 0.25 -0.05 0.1
v 0.15 -0.05 0
v 0.15 -0.05 -0.1
v 0.25 -0.05 -0.1
v -0.25 0.05 0.1
v -0.05 0.05 0.1
v -0.25 0.05 0
v -0.05 0.05 0
v -0.15 -0.05 0.1
v -0.05 -0.05 0.1
v -0.15 -0.05 0
v -0.05 -0.05 0
v 0.15 0.05 0.1
v 0.25 0.05 0.1
v 0.15 0.05 0
v 0.15 0.05 -0.1
v 0.25 0.05 -0.1
v -0.25 0.15 0.1
v -0.05 0.15 0.1
v 0.15 0.15 0.1
v -0.25 0.15 0
v -0.05 0.15 0
v 0.15 0.15 0

# faces
f 3/3/1 2/3/1 1/3/1
f 4/3/1 2/3/1 3/3/1
f 7/3/1 6/3/1 5/3/1
f 8/3/1 6/3/1 7/3/1
f 11/2/1 10/2/1 9/2/1
f 12/2/1 10/2/1 11/2/1
f 15/1/1 14/1/1 13/1/1
f 16/1/1 14/1/1 15/1/1
f 17/2/2 18/2/2 19/2/2
f 19/2/2 18/2/2 20/2/2
f 21/2/2 22/2/2 23/2/2
f 23/2/2 22/2/2 24/2/2
f 25/1/2 26/1/2 27/1/2
f 27/1/2 26/1/2 28/1/2
f 33/3/3 32/3/3 31/3/3
f 34/3/3 32/3/3 33/3/3
f 35/3/3 30/3/3 29/3/3
f 36/3/3 30/3/3 35/3/3
f 37/2/3 34/2/3 33/2/3
f 37/2/3 35/2/3 34/2/3
f 37/2/3 36/2/3 35/2/3
f 38/2/3 36/2/3 37/2/3
f 39/2/3 36/2/3 38/2/3
f 40/2/3 36/2/3 39/2/3
f 41/1/3 39/1/3 38/1/3
f 42/1/3 39/1/3 41/1/3
f 45/3/4 46/3/4 47/3/4
f 47/3/4 46/3/4 48/3/4
f 43/3/4 44/3/4 49/3/4
f 49/3/4 44/3/4 50/3/4
f 47/2/4 48/2/4 51/2/4
f 48/2/4 49/2/4 51/2/4
f 49/2/4 50/2/4 51/2/4
f 51/2/4 50/2/4 52/2/4
f 52/2/4 50/2/4 53/2/4
f 53/2/4 50/2/4 54/2/4
f 55/1/4 56/1/4 57/1/4
f 57/1/4 56/1/4 58/1/4
f 62/3/5 60/3/5 59/3/5
f 63/2/5 61/2/5 60/2/5
f 63/3/5 60/3/5 62/3/5
f 64/2/5 61/2/5 63/2/5
f 67/1/5 66/1/5 65/1/5
f 68/1/5 66/1/5 67/1/5
f 69/1/5 66/1/5 68/1/5
f 72/3/5 71/3/5 70/3/5
f 73/3/5 71/3/5 72/3/5
f 74/3/6 75/3/6 76/3/6
f 76/3/6 75/3/6 77/3/6
f 78/1/6 79/1/6 80/1/6
f 80/1/6 79/1/6 81/1/6
f 81/1/6 79/1/6 82/1/6
f 83/3/6 84/3/6 86/3/6
f 84/2/6 85/2/6 87/2/6
f 86/3/6 84/3/6 87/3/6
f 87/2/6 85/2/6 88/2/6
