# MagicaVoxel @ Ephtracy

# group
o 

# material
mtllib Other-13.mtl
usemtl palette

# normals
vn -1 0 0
vn 1 0 0
vn 0 0 1
vn 0 0 -1
vn 0 -1 0
vn 0 1 0

# texcoords
vt 0.845703 0.5
vt 0.849609 0.5
vt 0.853516 0.5
vt 0.857422 0.5

# verts
v -0.5 -0.35 0.6
v -0.5 -0.35 0.5
v -0.5 -0.35 -0.6
v -0.5 -0.35 -0.7
v -0.5 -0.25 0.7
v -0.5 -0.25 0.6
v -0.5 -0.25 0.5
v -0.5 -0.25 -0.6
v -0.5 0.55 0.7
v -0.5 0.55 0.6
v -0.5 0.55 0.5
v -0.5 0.55 -0.5
v -0.5 0.55 -0.6
v -0.5 0.55 -0.7
v -0.5 0.65 0.6
v -0.5 0.65 0.5
v -0.5 0.65 -0.5
v -0.5 0.65 -0.6
v -0.4 -0.35 0.7
v -0.4 -0.35 0.6
v -0.4 -0.35 0.5
v -0.4 -0.35 -0.6
v -0.4 -0.25 0.7
v -0.4 -0.25 0.6
v -0.4 -0.25 0.5
v -0.4 -0.25 -0.6
v -0.4 0.55 0.7
v -0.4 0.55 0.6
v -0.4 0.55 0.5
v -0.4 0.55 -0.5
v -0.4 0.55 -0.6
v -0.4 0.55 -0.7
v -0.4 0.65 0.7
v -0.4 0.65 0.6
v -0.4 0.65 0.5
v -0.4 0.65 -0.5
v -0.4 0.65 -0.6
v -0.4 0.65 -0.7
v -0.3 -0.65 0.5
v -0.3 -0.65 -0.5
v -0.3 -0.35 0.5
v -0.3 -0.35 -0.5
v 0.1 0.55 -0.6
v 0.1 0.55 -0.7
v 0.1 0.65 -0.6
v 0.1 0.65 -0.7
v 0.3 -0.15 0.6
v 0.3 -0.15 0.5
v 0.3 -0.15 0.4
v 0.3 -0.05 0.5
v 0.3 -0.05 0.4
v 0.3 0.05 0.5
v 0.3 0.05 0.4
v 0.3 0.15 0.5
v 0.3 0.15 0.4
v 0.3 0.25 0.5
v 0.3 0.25 0.4
v 0.3 0.35 0.5
v 0.3 0.35 0.4
v 0.3 0.45 0.6
v 0.3 0.45 0.5
v 0.4 -0.25 0.7
v 0.4 -0.25 0.6
v 0.4 0.55 0.7
v 0.4 0.55 0.6
v -0.4 -0.25 0.7
v -0.4 -0.25 0.6
v -0.4 0.55 0.7
v -0.4 0.55 0.6
v -0.3 -0.15 0.6
v -0.3 -0.15 0.5
v -0.3 -0.15 0.4
v -0.3 -0.05 0.5
v -0.3 -0.05 0.4
v -0.3 0.05 0.5
v -0.3 0.05 0.4
v -0.3 0.15 0.5
v -0.3 0.15 0.4
v -0.3 0.25 0.5
v -0.3 0.25 0.4
v -0.3 0.35 0.5
v -0.3 0.35 0.4
v -0.3 0.45 0.6
v -0.3 0.45 0.5
v -0.1 0.55 -0.6
v -0.1 0.55 -0.7
v -0.1 0.65 -0.6
v -0.1 0.65 -0.7
v 0.3 -0.65 0.5
v 0.3 -0.65 -0.5
v 0.3 -0.35 0.5
v 0.3 -0.35 -0.5
v 0.4 -0.35 0.7
v 0.4 -0.35 0.6
v 0.4 -0.35 0.5
v 0.4 -0.35 -0.5
v 0.4 -0.35 -0.6
v 0.4 -0.35 -0.7
v 0.4 -0.25 0.7
v 0.4 -0.25 0.6
v 0.4 -0.25 0.5
v 0.4 -0.25 -0.5
v 0.4 -0.25 -0.6
v 0.4 -0.05 -0.5
v 0.4 -0.05 -0.6
v 0.4 0.05 -0.6
v 0.4 0.05 -0.7
v 0.4 0.55 0.7
v 0.4 0.55 0.6
v 0.4 0.55 0.5
v 0.4 0.55 -0.5
v 0.4 0.55 -0.6
v 0.4 0.55 -0.7
v 0.4 0.65 0.7
v 0.4 0.65 0.6
v 0.4 0.65 0.5
v 0.4 0.65 -0.5
v 0.4 0.65 -0.6
v 0.4 0.65 -0.7
v 0.5 -0.35 0.6
v 0.5 -0.35 0.5
v 0.5 -0.35 -0.5
v 0.5 -0.35 -0.6
v 0.5 -0.25 0.7
v 0.5 -0.25 0.6
v 0.5 -0.25 0.5
v 0.5 -0.25 -0.5
v 0.5 -0.25 -0.6
v 0.5 -0.05 -0.5
v 0.5 -0.05 -0.6
v 0.5 0.05 -0.6
v 0.5 0.05 -0.7
v 0.5 0.55 0.7
v 0.5 0.55 0.6
v 0.5 0.55 0.5
v 0.5 0.55 -0.5
v 0.5 0.55 -0.6
v 0.5 0.55 -0.7
v 0.5 0.65 0.6
v 0.5 0.65 0.5
v 0.5 0.65 -0.5
v 0.5 0.65 -0.6
v -0.5 -0.25 0.7
v -0.5 0.55 0.7
v -0.4 -0.35 0.7
v -0.4 -0.25 0.7
v -0.4 0.55 0.7
v -0.4 0.65 0.7
v 0.4 -0.35 0.7
v 0.4 -0.25 0.7
v 0.4 0.55 0.7
v 0.4 0.65 0.7
v 0.5 -0.25 0.7
v 0.5 0.55 0.7
v -0.5 -0.35 0.6
v -0.5 -0.25 0.6
v -0.5 0.55 0.6
v -0.5 0.65 0.6
v -0.4 -0.35 0.6
v -0.4 -0.25 0.6
v -0.4 0.55 0.6
v -0.4 0.65 0.6
v -0.3 -0.15 0.6
v -0.3 0.45 0.6
v 0.3 -0.15 0.6
v 0.3 0.45 0.6
v 0.4 -0.35 0.6
v 0.4 -0.25 0.6
v 0.4 0.55 0.6
v 0.4 0.65 0.6
v 0.5 -0.35 0.6
v 0.5 -0.25 0.6
v 0.5 0.55 0.6
v 0.5 0.65 0.6
v -0.3 -0.65 0.5
v -0.3 -0.35 0.5
v -0.3 -0.05 0.5
v -0.3 0.05 0.5
v -0.3 0.15 0.5
v -0.3 0.25 0.5
v -0.3 0.35 0.5
v -0.3 0.45 0.5
v 0.3 -0.65 0.5
v 0.3 -0.35 0.5
v 0.3 -0.05 0.5
v 0.3 0.05 0.5
v 0.3 0.15 0.5
v 0.3 0.25 0.5
v 0.3 0.35 0.5
v 0.3 0.45 0.5
v -0.3 -0.15 0.4
v -0.3 -0.05 0.4
v -0.3 0.05 0.4
v -0.3 0.15 0.4
v -0.3 0.25 0.4
v -0.3 0.35 0.4
v 0.3 -0.15 0.4
v 0.3 -0.05 0.4
v 0.3 0.05 0.4
v 0.3 0.15 0.4
v 0.3 0.25 0.4
v 0.3 0.35 0.4
v -0.5 0.55 -0.5
v -0.5 0.65 -0.5
v -0.4 0.55 -0.5
v -0.4 0.65 -0.5
v 0.4 -0.35 -0.5
v 0.4 -0.25 -0.5
v 0.4 0.55 -0.5
v 0.4 0.65 -0.5
v 0.5 -0.35 -0.5
v 0.5 -0.25 -0.5
v 0.5 0.55 -0.5
v 0.5 0.65 -0.5
v -0.5 -0.35 -0.6
v -0.5 -0.25 -0.6
v -0.4 -0.35 -0.6
v -0.4 -0.25 -0.6
v -0.5 -0.35 0.5
v -0.5 -0.25 0.5
v -0.5 0.55 0.5
v -0.5 0.65 0.5
v -0.4 -0.35 0.5
v -0.4 -0.25 0.5
v -0.4 0.55 0.5
v -0.4 0.65 0.5
v 0.4 -0.35 0.5
v 0.4 -0.25 0.5
v 0.4 0.55 0.5
v 0.4 0.65 0.5
v 0.5 -0.35 0.5
v 0.5 -0.25 0.5
v 0.5 0.55 0.5
v 0.5 0.65 0.5
v -0.3 -0.65 -0.5
v -0.3 -0.35 -0.5
v 0.3 -0.65 -0.5
v 0.3 -0.35 -0.5
v 0.4 -0.25 -0.5
v 0.4 -0.05 -0.5
v 0.5 -0.25 -0.5
v 0.5 -0.05 -0.5
v -0.5 0.55 -0.6
v -0.5 0.65 -0.6
v -0.4 0.55 -0.6
v -0.4 0.65 -0.6
v -0.1 0.55 -0.6
v -0.1 0.65 -0.6
v 0.1 0.55 -0.6
v 0.1 0.65 -0.6
v 0.4 -0.35 -0.6
v 0.4 -0.25 -0.6
v 0.4 -0.05 -0.6
v 0.4 0.05 -0.6
v 0.4 0.55 -0.6
v 0.4 0.65 -0.6
v 0.5 -0.35 -0.6
v 0.5 -0.25 -0.6
v 0.5 -0.05 -0.6
v 0.5 0.05 -0.6
v 0.5 0.55 -0.6
v 0.5 0.65 -0.6
v -0.5 -0.35 -0.7
v -0.5 0.55 -0.7
v -0.4 0.55 -0.7
v -0.4 0.65 -0.7
v -0.1 0.55 -0.7
v -0.1 0.65 -0.7
v 0.1 0.55 -0.7
v 0.1 0.65 -0.7
v 0.4 -0.35 -0.7
v 0.4 0.05 -0.7
v 0.4 0.55 -0.7
v 0.4 0.65 -0.7
v 0.5 0.05 -0.7
v 0.5 0.55 -0.7
v -0.3 -0.65 0.5
v 0.3 -0.65 0.5
v -0.3 -0.65 -0.5
v 0.3 -0.65 -0.5
v -0.4 -0.35 0.7
v 0.4 -0.35 0.7
v -0.5 -0.35 0.6
v -0.4 -0.35 0.6
v 0.4 -0.35 0.6
v 0.5 -0.35 0.6
v -0.5 -0.35 0.5
v -0.4 -0.35 0.5
v -0.3 -0.35 0.5
v 0.3 -0.35 0.5
v 0.4 -0.35 0.5
v 0.5 -0.35 0.5
v -0.3 -0.35 -0.5
v 0.3 -0.35 -0.5
v 0.4 -0.35 -0.5
v 0.5 -0.35 -0.5
v -0.5 -0.35 -0.6
v -0.4 -0.35 -0.6
v 0.4 -0.35 -0.6
v 0.5 -0.35 -0.6
v -0.5 -0.35 -0.7
v 0.4 -0.35 -0.7
v -0.5 -0.25 0.7
v -0.4 -0.25 0.7
v 0.4 -0.25 0.7
v 0.5 -0.25 0.7
v -0.5 -0.25 0.6
v -0.4 -0.25 0.6
v 0.4 -0.25 0.6
v 0.5 -0.25 0.6
v -0.5 -0.25 0.5
v -0.4 -0.25 0.5
v 0.4 -0.25 0.5
v 0.5 -0.25 0.5
v 0.4 -0.25 -0.5
v 0.5 -0.25 -0.5
v -0.5 -0.25 -0.6
v -0.4 -0.25 -0.6
v -0.3 -0.05 0.5
v 0.3 -0.05 0.5
v -0.3 -0.05 0.4
v 0.3 -0.05 0.4
v 0.4 -0.05 -0.5
v 0.5 -0.05 -0.5
v 0.4 -0.05 -0.6
v 0.5 -0.05 -0.6
v 0.4 0.05 -0.6
v 0.5 0.05 -0.6
v 0.4 0.05 -0.7
v 0.5 0.05 -0.7
v -0.3 0.15 0.5
v 0.3 0.15 0.5
v -0.3 0.15 0.4
v 0.3 0.15 0.4
v -0.3 0.35 0.5
v 0.3 0.35 0.5
v -0.3 0.35 0.4
v 0.3 0.35 0.4
v -0.3 0.45 0.6
v 0.3 0.45 0.6
v -0.3 0.45 0.5
v 0.3 0.45 0.5
v -0.4 0.55 0.7
v 0.4 0.55 0.7
v -0.4 0.55 0.6
v 0.4 0.55 0.6
v -0.4 -0.25 0.7
v 0.4 -0.25 0.7
v -0.4 -0.25 0.6
v 0.4 -0.25 0.6
v 0.4 -0.25 -0.5
v 0.5 -0.25 -0.5
v 0.4 -0.25 -0.6
v 0.5 -0.25 -0.6
v -0.3 -0.15 0.6
v 0.3 -0.15 0.6
v -0.3 -0.15 0.5
v 0.3 -0.15 0.5
v -0.3 -0.15 0.4
v 0.3 -0.15 0.4
v -0.3 0.05 0.5
v 0.3 0.05 0.5
v -0.3 0.05 0.4
v 0.3 0.05 0.4
v -0.3 0.25 0.5
v 0.3 0.25 0.5
v -0.3 0.25 0.4
v 0.3 0.25 0.4
v -0.5 0.55 0.7
v -0.4 0.55 0.7
v 0.4 0.55 0.7
v 0.5 0.55 0.7
v -0.5 0.55 0.6
v -0.4 0.55 0.6
v 0.4 0.55 0.6
v 0.5 0.55 0.6
v -0.5 0.55 0.5
v -0.4 0.55 0.5
v 0.4 0.55 0.5
v 0.5 0.55 0.5
v -0.5 0.55 -0.5
v -0.4 0.55 -0.5
v 0.4 0.55 -0.5
v 0.5 0.55 -0.5
v -0.5 0.55 -0.6
v -0.4 0.55 -0.6
v -0.1 0.55 -0.6
v 0.1 0.55 -0.6
v 0.4 0.55 -0.6
v 0.5 0.55 -0.6
v -0.5 0.55 -0.7
v -0.4 0.55 -0.7
v -0.1 0.55 -0.7
v 0.1 0.55 -0.7
v 0.4 0.55 -0.7
v 0.5 0.55 -0.7
v -0.4 0.65 0.7
v 0.4 0.65 0.7
v -0.5 0.65 0.6
v -0.4 0.65 0.6
v 0.4 0.65 0.6
v 0.5 0.65 0.6
v -0.5 0.65 0.5
v -0.4 0.65 0.5
v 0.4 0.65 0.5
v 0.5 0.65 0.5
v -0.5 0.65 -0.5
v -0.4 0.65 -0.5
v 0.4 0.65 -0.5
v 0.5 0.65 -0.5
v -0.5 0.65 -0.6
v -0.4 0.65 -0.6
v -0.1 0.65 -0.6
v 0.1 0.65 -0.6
v 0.4 0.65 -0.6
v 0.5 0.65 -0.6
v -0.4 0.65 -0.7
v -0.1 0.65 -0.7
v 0.1 0.65 -0.7
v 0.4 0.65 -0.7

# faces
f 6/1/1 2/1/1 1/1/1
f 7/1/1 2/1/1 6/1/1
f 8/1/1 4/1/1 3/1/1
f 9/1/1 7/1/1 6/1/1
f 9/1/1 8/1/1 7/1/1
f 9/1/1 6/1/1 5/1/1
f 10/1/1 8/1/1 9/1/1
f 11/1/1 8/1/1 10/1/1
f 12/1/1 8/1/1 11/1/1
f 13/1/1 4/1/1 8/1/1
f 13/1/1 8/1/1 12/1/1
f 14/1/1 4/1/1 13/1/1
f 15/1/1 11/1/1 10/1/1
f 16/1/1 11/1/1 15/1/1
f 17/1/1 13/1/1 12/1/1
f 18/1/1 13/1/1 17/1/1
f 23/1/1 20/1/1 19/1/1
f 24/1/1 20/1/1 23/1/1
f 25/1/1 22/1/1 21/1/1
f 26/1/1 22/1/1 25/1/1
f 33/1/1 28/1/1 27/1/1
f 34/1/1 28/1/1 33/1/1
f 35/1/1 30/1/1 29/1/1
f 36/1/1 30/1/1 35/1/1
f 37/1/1 32/1/1 31/1/1
f 38/1/1 32/1/1 37/1/1
f 41/3/1 40/3/1 39/3/1
f 42/3/1 40/3/1 41/3/1
f 45/1/1 44/1/1 43/1/1
f 46/1/1 44/1/1 45/1/1
f 50/2/1 48/2/1 47/2/1
f 50/3/1 49/3/1 48/3/1
f 51/3/1 49/3/1 50/3/1
f 52/2/1 50/2/1 47/2/1
f 54/2/1 52/2/1 47/2/1
f 54/3/1 53/3/1 52/3/1
f 55/3/1 53/3/1 54/3/1
f 56/2/1 54/2/1 47/2/1
f 58/2/1 56/2/1 47/2/1
f 58/3/1 57/3/1 56/3/1
f 59/3/1 57/3/1 58/3/1
f 60/2/1 58/2/1 47/2/1
f 61/2/1 58/2/1 60/2/1
f 64/1/1 63/1/1 62/1/1
f 65/1/1 63/1/1 64/1/1
f 66/1/2 67/1/2 68/1/2
f 68/1/2 67/1/2 69/1/2
f 70/2/2 71/2/2 73/2/2
f 71/3/2 72/3/2 73/3/2
f 73/3/2 72/3/2 74/3/2
f 70/2/2 73/2/2 75/2/2
f 70/2/2 75/2/2 77/2/2
f 75/3/2 76/3/2 77/3/2
f 77/3/2 76/3/2 78/3/2
f 70/2/2 77/2/2 79/2/2
f 70/2/2 79/2/2 81/2/2
f 79/3/2 80/3/2 81/3/2
f 81/3/2 80/3/2 82/3/2
f 70/2/2 81/2/2 83/2/2
f 83/2/2 81/2/2 84/2/2
f 85/1/2 86/1/2 87/1/2
f 87/1/2 86/1/2 88/1/2
f 89/3/2 90/3/2 91/3/2
f 91/3/2 90/3/2 92/3/2
f 93/1/2 94/1/2 99/1/2
f 99/1/2 94/1/2 100/1/2
f 95/1/2 96/1/2 101/1/2
f 101/1/2 96/1/2 102/1/2
f 97/1/2 98/1/2 103/1/2
f 102/3/2 103/3/2 104/3/2
f 103/1/2 98/1/2 105/1/2
f 104/3/2 103/3/2 105/3/2
f 105/1/2 98/1/2 106/1/2
f 106/1/2 98/1/2 107/1/2
f 108/1/2 109/1/2 114/1/2
f 114/1/2 109/1/2 115/1/2
f 110/1/2 111/1/2 116/1/2
f 116/1/2 111/1/2 117/1/2
f 112/1/2 113/1/2 118/1/2
f 118/1/2 113/1/2 119/1/2
f 120/1/2 121/1/2 125/1/2
f 125/1/2 121/1/2 126/1/2
f 122/1/2 123/1/2 127/1/2
f 127/1/2 123/1/2 128/1/2
f 125/1/2 126/1/2 129/1/2
f 124/1/2 125/1/2 129/1/2
f 126/1/2 127/1/2 129/1/2
f 129/1/2 130/1/2 131/1/2
f 129/1/2 131/1/2 133/1/2
f 131/1/2 132/1/2 133/1/2
f 124/1/2 129/1/2 133/1/2
f 133/1/2 132/1/2 134/1/2
f 134/1/2 132/1/2 135/1/2
f 135/1/2 132/1/2 136/1/2
f 136/1/2 132/1/2 137/1/2
f 137/1/2 132/1/2 138/1/2
f 134/1/2 135/1/2 139/1/2
f 139/1/2 135/1/2 140/1/2
f 136/1/2 137/1/2 141/1/2
f 141/1/2 137/1/2 142/1/2
f 146/1/3 144/1/3 143/1/3
f 147/1/3 144/1/3 146/1/3
f 149/1/3 146/1/3 145/1/3
f 150/1/3 146/1/3 149/1/3
f 151/1/3 148/1/3 147/1/3
f 152/1/3 148/1/3 151/1/3
f 153/1/3 151/1/3 150/1/3
f 154/1/3 151/1/3 153/1/3
f 159/1/3 156/1/3 155/1/3
f 160/1/3 156/1/3 159/1/3
f 161/1/3 158/1/3 157/1/3
f 162/1/3 158/1/3 161/1/3
f 163/2/3 161/2/3 160/2/3
f 164/2/3 161/2/3 163/2/3
f 165/2/3 163/2/3 160/2/3
f 166/2/3 161/2/3 164/2/3
f 168/2/3 165/2/3 160/2/3
f 168/2/3 166/2/3 165/2/3
f 169/2/3 161/2/3 166/2/3
f 169/2/3 166/2/3 168/2/3
f 171/1/3 168/1/3 167/1/3
f 172/1/3 168/1/3 171/1/3
f 173/1/3 170/1/3 169/1/3
f 174/1/3 170/1/3 173/1/3
f 183/3/3 176/3/3 175/3/3
f 184/3/3 176/3/3 183/3/3
f 185/1/3 178/1/3 177/1/3
f 186/1/3 178/1/3 185/1/3
f 187/1/3 180/1/3 179/1/3
f 188/1/3 180/1/3 187/1/3
f 189/1/3 182/1/3 181/1/3
f 190/1/3 182/1/3 189/1/3
f 197/4/3 192/4/3 191/4/3
f 198/4/3 192/4/3 197/4/3
f 199/4/3 194/4/3 193/4/3
f 200/4/3 194/4/3 199/4/3
f 201/4/3 196/4/3 195/4/3
f 202/4/3 196/4/3 201/4/3
f 205/1/3 204/1/3 203/1/3
f 206/1/3 204/1/3 205/1/3
f 211/1/3 208/1/3 207/1/3
f 212/1/3 208/1/3 211/1/3
f 213/1/3 210/1/3 209/1/3
f 214/1/3 210/1/3 213/1/3
f 217/1/3 216/1/3 215/1/3
f 218/1/3 216/1/3 217/1/3
f 219/1/4 220/1/4 223/1/4
f 223/1/4 220/1/4 224/1/4
f 221/1/4 222/1/4 225/1/4
f 225/1/4 222/1/4 226/1/4
f 227/1/4 228/1/4 231/1/4
f 231/1/4 228/1/4 232/1/4
f 229/1/4 230/1/4 233/1/4
f 233/1/4 230/1/4 234/1/4
f 235/3/4 236/3/4 237/3/4
f 237/3/4 236/3/4 238/3/4
f 239/1/4 240/1/4 241/1/4
f 241/1/4 240/1/4 242/1/4
f 243/1/4 244/1/4 245/1/4
f 245/1/4 244/1/4 246/1/4
f 247/1/4 248/1/4 249/1/4
f 249/1/4 248/1/4 250/1/4
f 251/1/4 252/1/4 257/1/4
f 257/1/4 252/1/4 258/1/4
f 253/1/4 254/1/4 259/1/4
f 259/1/4 254/1/4 260/1/4
f 255/1/4 256/1/4 261/1/4
f 261/1/4 256/1/4 262/1/4
f 263/1/4 264/1/4 265/1/4
f 263/1/4 265/1/4 267/1/4
f 265/1/4 266/1/4 267/1/4
f 267/1/4 266/1/4 268/1/4
f 263/1/4 267/1/4 269/1/4
f 263/1/4 269/1/4 271/1/4
f 269/1/4 270/1/4 271/1/4
f 271/1/4 270/1/4 272/1/4
f 272/1/4 270/1/4 273/1/4
f 273/1/4 270/1/4 274/1/4
f 272/1/4 273/1/4 275/1/4
f 275/1/4 273/1/4 276/1/4
f 279/3/5 278/3/5 277/3/5
f 280/3/5 278/3/5 279/3/5
f 284/1/5 282/1/5 281/1/5
f 285/1/5 282/1/5 284/1/5
f 287/1/5 284/1/5 283/1/5
f 287/1/5 286/1/5 285/1/5
f 287/1/5 285/1/5 284/1/5
f 288/1/5 286/1/5 287/1/5
f 289/1/5 286/1/5 288/1/5
f 290/1/5 286/1/5 289/1/5
f 291/1/5 286/1/5 290/1/5
f 292/1/5 286/1/5 291/1/5
f 293/1/5 289/1/5 288/1/5
f 294/1/5 291/1/5 290/1/5
f 295/1/5 291/1/5 294/1/5
f 298/1/5 293/1/5 288/1/5
f 298/1/5 296/1/5 295/1/5
f 298/1/5 295/1/5 294/1/5
f 298/1/5 294/1/5 293/1/5
f 299/1/5 296/1/5 298/1/5
f 300/1/5 296/1/5 299/1/5
f 301/1/5 298/1/5 297/1/5
f 301/1/5 299/1/5 298/1/5
f 302/1/5 299/1/5 301/1/5
f 307/1/5 304/1/5 303/1/5
f 308/1/5 304/1/5 307/1/5
f 309/1/5 306/1/5 305/1/5
f 310/1/5 306/1/5 309/1/5
f 315/1/5 314/1/5 313/1/5
f 316/1/5 314/1/5 315/1/5
f 317/1/5 312/1/5 311/1/5
f 318/1/5 312/1/5 317/1/5
f 321/1/5 320/1/5 319/1/5
f 322/1/5 320/1/5 321/1/5
f 325/1/5 324/1/5 323/1/5
f 326/1/5 324/1/5 325/1/5
f 329/1/5 328/1/5 327/1/5
f 330/1/5 328/1/5 329/1/5
f 333/1/5 332/1/5 331/1/5
f 334/1/5 332/1/5 333/1/5
f 337/1/5 336/1/5 335/1/5
f 338/1/5 336/1/5 337/1/5
f 341/2/5 340/2/5 339/2/5
f 342/2/5 340/2/5 341/2/5
f 345/1/5 344/1/5 343/1/5
f 346/1/5 344/1/5 345/1/5
f 347/1/6 348/1/6 349/1/6
f 349/1/6 348/1/6 350/1/6
f 351/1/6 352/1/6 353/1/6
f 353/1/6 352/1/6 354/1/6
f 355/2/6 356/2/6 357/2/6
f 357/2/6 356/2/6 358/2/6
f 357/3/6 358/3/6 359/3/6
f 359/3/6 358/3/6 360/3/6
f 361/1/6 362/1/6 363/1/6
f 363/1/6 362/1/6 364/1/6
f 365/1/6 366/1/6 367/1/6
f 367/1/6 366/1/6 368/1/6
f 369/1/6 370/1/6 373/1/6
f 373/1/6 370/1/6 374/1/6
f 371/1/6 372/1/6 375/1/6
f 375/1/6 372/1/6 376/1/6
f 377/1/6 378/1/6 381/1/6
f 381/1/6 378/1/6 382/1/6
f 379/1/6 380/1/6 383/1/6
f 383/1/6 380/1/6 384/1/6
f 385/1/6 386/1/6 391/1/6
f 391/1/6 386/1/6 392/1/6
f 387/1/6 388/1/6 393/1/6
f 393/1/6 388/1/6 394/1/6
f 389/1/6 390/1/6 395/1/6
f 395/1/6 390/1/6 396/1/6
f 397/1/6 398/1/6 400/1/6
f 400/1/6 398/1/6 401/1/6
f 399/1/6 400/1/6 403/1/6
f 401/1/6 402/1/6 403/1/6
f 400/1/6 401/1/6 403/1/6
f 403/1/6 402/1/6 404/1/6
f 404/1/6 402/1/6 405/1/6
f 405/1/6 402/1/6 406/1/6
f 404/1/6 405/1/6 408/1/6
f 408/1/6 405/1/6 409/1/6
f 407/1/6 408/1/6 411/1/6
f 409/1/6 410/1/6 411/1/6
f 408/1/6 409/1/6 411/1/6
f 411/1/6 410/1/6 412/1/6
f 412/1/6 410/1/6 413/1/6
f 413/1/6 410/1/6 414/1/6
f 414/1/6 410/1/6 415/1/6
f 415/1/6 410/1/6 416/1/6
f 412/1/6 413/1/6 417/1/6
f 417/1/6 413/1/6 418/1/6
f 414/1/6 415/1/6 419/1/6
f 419/1/6 415/1/6 420/1/6
